<?xml version="1.0" encoding="utf-8"?>
<!-- Generator: Adobe Illustrator 23.0.3, SVG Export Plug-In . SVG Version: 6.00 Build 0)  -->
<svg version="1.1" id="圖層_1" xmlns="http://www.w3.org/2000/svg" xmlns:xlink="http://www.w3.org/1999/xlink" x="0px" y="0px"
	 viewBox="0 0 120 120" style="enable-background:new 0 0 120 120;" xml:space="preserve">
<style type="text/css">
	.st0{fill:none;stroke:#FFFFFF;stroke-width:3;stroke-linecap:round;stroke-linejoin:round;}
	.st1{fill:#FFFFFF;}
</style>
<g>
	<path id="Layer0_0_1_STROKES" class="st0" d="M7,36.8V20l10,13.7c2.6,2.6,5.5,3.2,8.5,1.9l7.7-6.9c1.2-2.1,1.2-4.3,0-6.8L18.6,8.6
		c7.5-2,14.2-1.1,20.2,2.9c4.7,3.2,8.2,7.8,10,13.1c1,4.3,1,8.8,0,13.1l56,54.9c6.8,7.5,7.5,13.3,2.1,17.4
		c-5.4,4.1-11.7,2.9-18.8-3.7L34,50.2H22.5C13.5,50.3,8.3,45.9,7,36.8z M66.7,35.9L90.6,12c17.1-4.9,24.4,1.9,21.9,20.3L88.9,57.2
		 M80.1,51l20.3-21.1 M73.5,44l21.3-21.3 M39.6,74.3L16.3,97.7c-3.3,3.9-4.7,7-4.4,9.2c0.4,2.3,2.1,3.8,5.1,4.5
		c2.5,0,5.4-1.5,8.8-4.5l22-24"/>
	<circle class="st1" cx="100.5" cy="103.2" r="3.5"/>
</g>
</svg>
