<?xml version="1.0" encoding="utf-8"?>
<!-- Generator: Adobe Illustrator 22.0.1, SVG Export Plug-In . SVG Version: 6.00 Build 0)  -->
<svg version="1.1" id="圖層_1" xmlns="http://www.w3.org/2000/svg" xmlns:xlink="http://www.w3.org/1999/xlink" x="0px" y="0px"
	 viewBox="0 0 20 20" style="enable-background:new 0 0 20 20;" xml:space="preserve">
<style type="text/css">
	.st0{fill:#FFFFFF;}
	.st1{opacity:0.5;fill:#FFFFFF;}
	.st2{opacity:0.5;}
</style>
<path class="st0" d="M9.99997,2.10129c-4.3623,0-7.89844,3.53662-7.89844,7.89838c0,4.36279,3.53613,7.89905,7.89844,7.89905
	s7.8985-3.53625,7.8985-7.89905C17.89847,5.63791,14.36227,2.10129,9.99997,2.10129z M9.99997,5.98021
	c1.01874,0,1.84387,0.82513,1.84387,1.84381c0,1.01874-0.82513,1.84387-1.84387,1.84387c-1.01868,0-1.84381-0.82513-1.84381-1.84387
	C8.15616,6.80535,8.98129,5.98021,9.99997,5.98021z M13.68771,13.35564H6.31229V12.4337c0-1.2262,2.45691-1.84387,3.68768-1.84387
	s3.68774,0.61768,3.68774,1.84387V13.35564z"/>
</svg>
