<?xml version="1.0" encoding="utf-8"?>
<!-- Generator: Adobe Illustrator 22.0.1, SVG Export Plug-In . SVG Version: 6.00 Build 0)  -->
<svg version="1.1" id="圖層_1" xmlns="http://www.w3.org/2000/svg" xmlns:xlink="http://www.w3.org/1999/xlink" x="0px" y="0px"
	 viewBox="0 0 20 20" style="enable-background:new 0 0 20 20;" xml:space="preserve">
<style type="text/css">
	.st0{fill:#FFFFFF;}
	.st1{opacity:0.5;fill:#FFFFFF;}
	.st2{opacity:0.5;}
</style>
<g>
	<g>
		<path class="st0" d="M9.2705,6.7009c-1.1602,0-2.1016,0.9404-2.1016,2.1011c0,1.1606,0.9414,2.1015,2.1016,2.1015
			c1.1621,0,2.1035-0.9409,2.1035-2.1015C11.374,7.6413,10.4326,6.7009,9.2705,6.7009z"/>
		<path class="st0" d="M10.0009,2.1013c-4.3632,0-7.9003,3.5366-7.9003,7.8984c0,4.3628,3.5371,7.899,7.9003,7.899
			c4.3614,0,7.8985-3.5362,7.8985-7.899C17.8994,5.6379,14.3623,2.1013,10.0009,2.1013z M13.622,13.0071l-0.3379,0.3374
			c-0.1855,0.186-0.498,0.1772-0.6523,0.021l-1.8867-1.8858c-0.4375,0.2412-0.9395,0.3789-1.4746,0.3789
			c-1.6875,0-3.0567-1.3686-3.0567-3.0566c0-1.6885,1.3692-3.0567,3.0567-3.0567c1.6894,0,3.0566,1.3682,3.0566,3.0567
			c0,0.6338-0.1933,1.2226-0.5215,1.7109l1.8379,1.8394C13.7998,12.509,13.8095,12.82,13.622,13.0071z"/>
	</g>
</g>
</svg>
