<svg width="176" height="42" viewBox="0 0 176 42" xmlns="http://www.w3.org/2000/svg"><title>Mixd - World Class Web Design</title><path d="M58.654 4.588c.09-.402.49-.713.847-.713h.758c.267 0 .713.222.802.534l9.982 24.42h.178L81.16 4.41c.089-.267.49-.534.802-.534h.757c.402 0 .758.356.847.713l5.883 32.085c.133.668-.179 1.114-.847 1.114h-3.12c-.445 0-.802-.356-.89-.668l-3.477-21.346h-.133l-8.601 21.97c-.09.267-.401.534-.802.534h-.892c-.4 0-.713-.223-.802-.534l-8.645-21.97h-.178L57.63 37.12c-.044.356-.49.668-.846.668h-3.12c-.668 0-.98-.446-.891-1.114l5.882-32.085zm40.24.668c0-.49.447-.891.892-.891h3.164c.49 0 .891.445.891.891v31.64c0 .49-.445.891-.89.891h-3.165c-.49 0-.891-.446-.891-.891V5.256zm23.53 15.374l-9.447-14.928c-.401-.624 0-1.337.802-1.337h4.055c.357 0 .669.178.802.445l6.73 11.409h.044l6.818-11.409a.933.933 0 0 1 .758-.445h4.055c.802 0 1.203.713.802 1.337l-9.447 14.973 9.804 15.82c.4.668 0 1.337-.803 1.337H133.7c-.401 0-.713-.223-.802-.446l-7.487-12.255h-.09l-7.397 12.21c-.133.179-.445.446-.802.446h-3.654c-.847 0-1.248-.713-.847-1.337l9.804-15.82zm24.51-15.374c0-.49.401-.891.847-.891h10.962c9.225 0 16.756 7.486 16.756 16.666 0 9.27-7.531 16.756-16.756 16.756h-10.962c-.49 0-.847-.446-.847-.891V5.256zm11.185 27.986c7.041 0 12.122-5.17 12.122-12.21 0-7.042-5.125-12.122-12.122-12.122h-6.283v24.376l6.283-.044zM40.606 14.926c-2.852-.535-5.57 1.382-6.105 4.234 0 0 0 0 0 .044-.089.535-1.515 7.843-8.913 6.506 0 0 17.558 4.947 19.252-4.545 0-.045 0-.09.044-.134.49-2.852-1.426-5.57-4.278-6.105zM10.972 22.68c.089-.58 1.515-7.888 8.912-6.55 0 0-17.557-4.947-19.25 4.545 0 .044 0 .089-.045.134-.535 2.852 1.381 5.614 4.233 6.105a5.275 5.275 0 0 0 6.15-4.234zM26.569 9.534c.446.401 5.971 5.348 1.07 11.007 0 0 13.235-12.567 5.926-18.85-.044-.045-.044-.045-.089-.09-2.183-1.915-5.526-1.648-7.442.536-1.872 2.139-1.649 5.48.535 7.397zm-7.843 22.905c0-.044 0-.044 0 0 0-.044-.045-.044 0 0-.446-.4-5.972-5.347-1.07-11.007 0 0-13.235 12.567-5.927 18.85.045.045.045.045.09.09 2.183 1.916 5.525 1.649 7.442-.535 1.871-2.184 1.648-5.526-.535-7.398zM15.25 11.227c.044 0 .044-.044 0 0 .535-.178 7.576-2.584 10.116 4.501 0 0-4.457-17.691-13.548-14.438-.044 0-.089.044-.133.044-2.719.98-4.145 4.011-3.164 6.73.98 2.718 4.01 4.144 6.729 3.163zm15.33 19.475c0 .044 0 .044 0 0-.535.178-7.576 2.584-10.116-4.501 0 0 4.456 17.691 13.547 14.438.044 0 .09-.044.134-.044 2.718-.98 4.144-4.011 3.164-6.73-.98-2.673-3.967-4.1-6.73-3.163z" fill="#FFF" fill-rule="evenodd"/></svg>