<svg id="Ebene_1" data-name="Ebene 1" xmlns="http://www.w3.org/2000/svg" viewBox="0 0 91.41 146.07"><defs><style>.cls-1{fill:#ffe807;}.cls-2{fill:#e2101b;}.cls-3{fill:#ffd301;}.cls-4{fill:#fdf29b;}.cls-5{fill:#ffcb03;}.cls-6{fill:#fdf3a0;}.cls-7{fill:#fff5b8;}.cls-8{fill:#be1818;}.cls-9{fill:#fff4ec;}.cls-10{fill:#fff9e4;}.cls-11{fill:#fce2c7;}.cls-12{fill:#fad1a6;}.cls-13{fill:#fffffd;}.cls-14{fill:#b51917;}.cls-15{fill:#f6c8df;}.cls-16{fill:#ec6c50;}.cls-17{fill:#fff;}.cls-18{fill:#fffaeb;}.cls-19{fill:#b41e1b;}</style></defs><g id="Ebene_1-2" data-name="Ebene 1"><path class="cls-1" d="M35.21,94.35c5.1,12.5,5.4,10.8,5.4,10.8a17.79,17.79,0,0,0-.4,11.1c1.8,5.9,4.6,13.7,8.6,18.9-2.3-.1-8.5-2-11.2.8s-2.1,7.7-2.1,7.7-.6,1.6,4,1.9,11.6.3,15.5-.6,4.2-3.3,4.2-3.3.6,3.1,3.5,3.3,13.6,1.1,18.6.1c1-.4,2.1-1.9,1.6-4.5s-.6-5.3-5.7-6.1-6.5.3-6.5.3,1.1-15.7.1-21.3-.1-5.2-.1-5.2a23.51,23.51,0,0,0,2.5-9.4c2.2-.4,5.1-2.9,6.2-3.9s4.8-3.4.6-5.1c-.4-1.1.5-1.9-2-3,1.9-1.8,6.2-5.7,6.8-8.2s-2.3-6.4-2.3-6.4L78,67s1.1-1.9,1.1-2,.3-3,.3-3.1l-1.6-2.6s3.8-3.4,5.1-5.9,1.6-6.8-1.2-7.5-2.1-.1-2.1-.1,3.1-5.1,3.7-8a39.43,39.43,0,0,0,.8-9.2,15.93,15.93,0,0,0-.8-3.6,16,16,0,0,0,5.1-4.6c1.8-2.8,3.1-6.8,2.3-9.4s-4-9.6-13.7-6.2c-.6-1.2-5-6.4-11.1-2.8-2.5,1.4-5,6.4-5,6.4s-2.9-.7-4.3-.3c0,.4,3.8,2.2,4.8,3.5-1.9-.6-5.4-1.9-8.4-.2,1.7.6,5.5,1.8,5.5,1.8s-6,3.7-8.3,7.5-2.7,5.8-5.3,6.2-4.6,1.3-6.8,4.5-2.2,7.2-.8,10.9,4.3,8.7,6.8,10.3c1,1.1.5,1.8.5,1.8s-12.2-7.3-14.9-9.8-3.1-3-3.1-3,0-4.1-1.5-5.9c-1.4-2-1-1.8-1-1.8l2.4-4.4s1.1-2.8-1.1-3.3-5.6.2-6,4.5.2,2.7.2,2.7a23.49,23.49,0,0,1-5.1,2.1c-1.8.3-7.6.8-8.9,1.4a4.93,4.93,0,0,0-2.7,2.6c-.3,1.1-2.8.9-2.4,2.4s.9,3.1,2.9,3.3c.6,1.1,1.5,4.3,7.4,3.8s8.6-1.8,8.6-1.8.8,6.5,2.6,9.1,3.6,8.8,12.8,12.9c-.1,2-1.8,6.9-1.6,12.2A86.39,86.39,0,0,0,35.21,94.35Z"/></g><path class="cls-1" d="M78.8,68.32a2.36,2.36,0,0,1,.39.44c1.18,1.37,2.27,2.81,3.31,4.28a15,15,0,0,1,1.61,2.88,3.63,3.63,0,0,1-.16,3.3,17.44,17.44,0,0,1-1.73,2.59,21.7,21.7,0,0,1-1.85,2.1l-1,1a34.81,34.81,0,0,1-3.72,3.15,5.7,5.7,0,0,1-.75.54,10.56,10.56,0,0,0-.93.68.47.47,0,0,0-.07.12.89.89,0,0,0-.61.35c-.6.38-1.2.75-1.8,1.14a1,1,0,0,0-.17.14l-.08,0h0l0-.06a1,1,0,0,0,.85-.3s.13-.06.2-.09a.28.28,0,0,1-.11.32.2.2,0,0,0,0,.31,1.53,1.53,0,0,1,.28,1,5.81,5.81,0,0,0,0,.59c0,.14.06.18.2.19h.23a3.47,3.47,0,0,1,.72,0l-.16.07a1.25,1.25,0,0,0-.69.22,1.6,1.6,0,0,0,.7-.07l.35,0a8.46,8.46,0,0,0,1.81-.31,1.7,1.7,0,0,1,.31-.06,10.73,10.73,0,0,1,2.19-.12,1.52,1.52,0,0,1,.58.26,1.59,1.59,0,0,1,.84,1.35,1.25,1.25,0,0,1-.18,1A5,5,0,0,1,77.54,97a1.1,1.1,0,0,1-.56.16,1.24,1.24,0,0,0-.6.15,8.72,8.72,0,0,1-2.11.59.22.22,0,0,0-.19-.26l-.27,0a13.07,13.07,0,0,1-1.53-.08,17.73,17.73,0,0,1-1.91-.33,10.13,10.13,0,0,1-1.88-.63,7.81,7.81,0,0,1-1.83-1.15,6.7,6.7,0,0,1-2-2.71,6.09,6.09,0,0,1-.47-1.36c0-.29-.08-.57-.13-.85a4.78,4.78,0,0,1-.08-.76,7.39,7.39,0,0,1,.18-1.93c.09-.39.15-.8.27-1.18.33-1,.67-2,1-3q.24-.69.51-1.35c.14-.34.3-.66.45-1a26.41,26.41,0,0,1,1.27-2.69L68,78c.43-.75.85-1.49,1.29-2.23.28-.5.58-1,.87-1.48,0-.08.14-.17,0-.31l-.43.31a.33.33,0,0,1-.24.1c0-.1-.06-.18-.18-.15a2.24,2.24,0,0,0-.34.11c-.52.27-1.08.46-1.57.78a12,12,0,0,0-1.62,1.22c-.18.16-.35.33-.54.48a3.13,3.13,0,0,0-.58.57c-.53.65-1.05,1.31-1.55,2a12.25,12.25,0,0,0-.87,1.26c-.2.37-.43.72-.65,1.08-.44.67-.76,1.4-1.15,2.1a13,13,0,0,0-.65,1.48,13.81,13.81,0,0,0-.51,1.35c-.14.43-.23.87-.33,1.31a4.51,4.51,0,0,0-.09.53,10.62,10.62,0,0,0-.14,1.25,12.55,12.55,0,0,0,.07,1.62,17.63,17.63,0,0,0,.34,1.76,7.94,7.94,0,0,0,.63,1.64c.2.37.38.76.61,1.11a6.78,6.78,0,0,0,.72,1,10.07,10.07,0,0,1,.72.87,1.77,1.77,0,0,0,.41.41,3.45,3.45,0,0,1,.28.23,6.64,6.64,0,0,0,1.06.84,9.47,9.47,0,0,0,.95.6,12.88,12.88,0,0,0,1.53.77c.84.33,1.7.62,2.55.92a1.54,1.54,0,0,1,.43.17c-.1.31-.18.61-.3.9-.37.89-.65,1.81-1.06,2.68a6.67,6.67,0,0,1-.54.84.28.28,0,0,1-.32.11,4.23,4.23,0,0,0-.71-.13,3.65,3.65,0,0,0-.93-.12,29.5,29.5,0,0,0-3.52.07c-.39.06-.78,0-1.17.09s-1,.16-1.5.25a16.34,16.34,0,0,0-1.71.4,10.06,10.06,0,0,0-2,.81,14.87,14.87,0,0,0-1.29.74,9.32,9.32,0,0,0-1.13.82,5.08,5.08,0,0,0-.92,1,6.26,6.26,0,0,0-.73,1.18,8.6,8.6,0,0,0-.24.87,2.44,2.44,0,0,0,0,.85.51.51,0,0,0,.41.42,1.93,1.93,0,0,0,.72,0,3.52,3.52,0,0,0,1-.43,9.06,9.06,0,0,1,.92-.49c.38-.19.77-.35,1.14-.53a9.65,9.65,0,0,1,1.21-.5l1.17-.36a16.28,16.28,0,0,1,1.82-.49c.52-.09,1-.19,1.55-.27a7.55,7.55,0,0,1,1.43-.16c.36,0,.72,0,1.08,0a4.57,4.57,0,0,1,1.38.21,2.74,2.74,0,0,1,.53.23,3.78,3.78,0,0,1,1.57,1.76,6.16,6.16,0,0,1,.47,1.35c.07.42.2.82.29,1.23.15.67.28,1.35.42,2,.1.49.17,1,.23,1.47a7.32,7.32,0,0,0,.11.8c.08.34.09.68.14,1a5.45,5.45,0,0,1,.11,1.21.2.2,0,0,0,0,.13,1.65,1.65,0,0,1,.07.58.81.81,0,0,0,0,.27,2.73,2.73,0,0,1,.08.85,1.13,1.13,0,0,0,0,.32,3,3,0,0,1,.07.94c0,.57,0,1.14,0,1.72a1.06,1.06,0,0,1,0,.31,2.76,2.76,0,0,0-.07,1c0,.62-.14,1.23-.1,1.85a.31.31,0,0,1,0,.13,1.16,1.16,0,0,0-.06.49c0,.47-.13.92-.1,1.39,0,0,0,.06,0,.09-.05.4-.13.8-.15,1.2a9.09,9.09,0,0,0-.11,1.17.24.24,0,0,1,0,.08,2.26,2.26,0,0,0-.05.86c0,.27.2.39.46.31.52-.15,1-.31,1.55-.45a2.06,2.06,0,0,0,.48-.15,14.85,14.85,0,0,1,1.51-.24,25.14,25.14,0,0,1,3.47-.19c.74,0,1.48-.06,2.21-.09a1.77,1.77,0,0,1,1.25.28A6.75,6.75,0,0,1,81,135.71l.34.3c.57.5.41.32.72,1,.14.33.28.67.43,1a2.51,2.51,0,0,1,.19.7,39.84,39.84,0,0,1,.41,4.49.94.94,0,0,1-.23.66,1.84,1.84,0,0,1-1,.73,7.92,7.92,0,0,1-2,.39c-.47.05-.93.11-1.4.15l-1.35.1-2.48.12-.81.05h-.18c-.62,0-1.24-.07-1.85-.12a1,1,0,0,1-.34-.11,1.4,1.4,0,0,0-.57-.13c-1,0-1.9,0-2.84-.13a.18.18,0,0,0-.13-.11c-.21-.07-.4-.14-.61-.19a13.69,13.69,0,0,1-1.42-.43,10.41,10.41,0,0,1-2.91-1.63,3,3,0,0,1-1-1.24,5.59,5.59,0,0,1-.4-1.93c0-.59,0-1.18,0-1.77a1.9,1.9,0,0,0-.23-1c-.62-1.14-1.21-2.29-1.81-3.44-.13-.26-.24-.53-.36-.78q-1.16-2.31-2.23-4.65c-.46-1-.94-2-1.41-2.93-.05-.1-.1-.19-.14-.29l-1.82-3.89c-.4-.84-.81-1.68-1.21-2.53-.24-.49-.46-1-.69-1.47-.53-1.14-1.06-2.27-1.57-3.41a3,3,0,0,0-.61-.84c-.85-.85-1.73-1.67-2.52-2.59-.59-.69-1.2-1.35-1.77-2.06a24.81,24.81,0,0,1-2.4-3.66c-.22-.42-.44-.86-.68-1.27s-.63-1.13-.93-1.71-.65-1.25-.93-1.91c-.39-.93-.83-1.84-1.18-2.78A31.27,31.27,0,0,1,37.92,93c-.14-.55-.32-1.1-.41-1.66s-.29-1.42-.42-2.13a17.85,17.85,0,0,1-.3-2.18c0-.3-.07-.6-.11-.9s-.11-.77-.15-1.16-.07-1-.11-1.58a.57.57,0,0,0,0-.13,17.16,17.16,0,0,1-.14-1.89c-.05-.66,0-1.33,0-2a1.67,1.67,0,0,1,0-.5c.12-.55.07-1.11.14-1.66s.11-1,.19-1.57c.14-.87.24-1.76.4-2.63s.36-1.71.61-2.54c.29-1,.63-2,1-3,.23-.59.43-1.19.7-1.76a29.64,29.64,0,0,1,2.43-4.28c1.2-1.77,2.49-3.48,3.75-5.2a3.08,3.08,0,0,1,.24-.27A.25.25,0,0,1,46,56a20.82,20.82,0,0,0,2.42,1.77l.57.36a.25.25,0,0,0,.21.11h0a.11.11,0,0,0,.1.09h0a.09.09,0,0,0,.09.07l.09,0h0c0,.1.11.11.19.09h0c0,.07,0,.11.08.14l.55.3.38.24c.18.11.18.11.12.32s-.06.21.09.28l.57.26a20.28,20.28,0,0,0,2.93,1,10.11,10.11,0,0,0,1.34.34h.18a3.11,3.11,0,0,0,1,.24l.51.1c.09,0,.11-.07.12-.15s.08-.22.13-.33.09-.16.24-.13c.45.09.9.18,1.34.29,0,0,.09.07.13.11a2.82,2.82,0,0,0,0,.82c0,.27-.05.54-.08.81a16.13,16.13,0,0,0,.09,2.2,1.11,1.11,0,0,0,.07.26l.64,1.68c.08.37.11.4.45.44h0c0,.08.06.09.12.1a7.19,7.19,0,0,0,1.22.66c0,.21-.1.36-.13.55a.47.47,0,0,0,.07.43,3,3,0,0,0,1.53,1.27,7.52,7.52,0,0,0,1.24.23c.14,0,.26-.06.39-.06a4.29,4.29,0,0,0,1.68-.49,8.44,8.44,0,0,0,1-.58,3.59,3.59,0,0,0,.91-.87c.14-.2.29-.38.45-.57s.17-.12.31,0a1.25,1.25,0,0,1,.22.16,2.29,2.29,0,0,0,.51.37,9.34,9.34,0,0,0,1.73.87,6.51,6.51,0,0,0,2.59.52,5.26,5.26,0,0,0,1.62-.34,2.63,2.63,0,0,0,1.17-1,2.1,2.1,0,0,0,.45-.83,3,3,0,0,1,.17-.41.09.09,0,0,1,.15,0c.1.07.18.17.27.24a1.07,1.07,0,0,0,.57.33h0A.17.17,0,0,0,78.8,68.32Z"/><path class="cls-1" d="M45,53.46a15.17,15.17,0,0,1-1.5-1.5,33.16,33.16,0,0,1-3.09-4.18,26.2,26.2,0,0,1-2.32-4.65,18,18,0,0,1-.85-3A11.92,11.92,0,0,1,37,38.12a16,16,0,0,1,.19-3.25,8.2,8.2,0,0,1,1-2.67,12.75,12.75,0,0,1,1.25-1.82,5.58,5.58,0,0,0,.44-.64,4.11,4.11,0,0,1,1.44-1.34l.16-.08a.5.5,0,0,1,.73.53c0,.07,0,.14-.05.22-.35,1.57-.7,3.15-1.06,4.72a2,2,0,0,0-.05.49c-.07,0-.08.12-.11.19a2.22,2.22,0,0,1-.33.92.77.77,0,0,0-.11.38c-.08.43-.17.85-.21,1.29s-.06.59-.07.89,0,.48,0,.73a7.39,7.39,0,0,0,.15,1.15,6.11,6.11,0,0,0,.44,1.33A5.25,5.25,0,0,0,41.78,43s.06.11.1.15a5,5,0,0,0,.55.65c.17.15.34.29.51.45a3,3,0,0,0,.27.23,10,10,0,0,0,1.51.9l1,.46a2.9,2.9,0,0,0,.85.27l.27.06a8.46,8.46,0,0,0,1.51.22.56.56,0,0,1,.22,0,1.57,1.57,0,0,0,.53.06,8,8,0,0,0,2-.25l-.09.53a3.1,3.1,0,0,0-.16.9,1.81,1.81,0,0,0-.15.65.8.8,0,0,0,.07.48c0,.33,0,.66.09,1a1.47,1.47,0,0,0,1,1.29c.09.1.21.16.27.29s.1.18.27.15A4.58,4.58,0,0,0,53.85,51a8.47,8.47,0,0,0,2.39-2.23.34.34,0,0,0,.11-.29h0c.07,0,.09,0,.1-.1h0c.06,0,.08,0,.1-.1h0a.18.18,0,0,0,.1-.18h0l.09-.09a2.23,2.23,0,0,1,.19-.24,2,2,0,0,0,.47-.87c.09-.16.19-.31.27-.47.37-.78.72-1.56,1.09-2.33s.73-1.65,1.05-2.5a.33.33,0,0,0-.05-.41c-.14-.14-.26-.29-.39-.44s-.21-.2-.41-.11l-.94.44-.69.33s-.12.08-.1.13c.07.2-.07.25-.2.29a2,2,0,0,1-1,.31c-.09,0-.16.06-.23.12a1.31,1.31,0,0,1-.78.31,1.08,1.08,0,0,0-.42.13.82.82,0,0,1-.56.12c-.7-.09-1.39-.2-2.08-.34a14.41,14.41,0,0,1-2.68-.76,7.94,7.94,0,0,1-1-.45,3.93,3.93,0,0,1-1.65-1.63,3.24,3.24,0,0,1-.36-1.1,2,2,0,0,0-.2-.78,6.25,6.25,0,0,0,1.68-1.34,8.42,8.42,0,0,0,.78-1.1,7.23,7.23,0,0,0,.88-2,6.17,6.17,0,0,0,.21-1.42.47.47,0,0,1,.31.16.34.34,0,0,0,.37.09A11.13,11.13,0,0,1,51.48,32a8.15,8.15,0,0,0,.83-.17c.11,0,.23-.08.34-.1a5.15,5.15,0,0,0,1.46-.59,5.86,5.86,0,0,0,1.74-1.55,5.57,5.57,0,0,0,.81-1.3c.16-.34.25-.7.38-1a4.24,4.24,0,0,0,.22-1.46.47.47,0,0,0-.38-.49,1.31,1.31,0,0,1,.08-.21A7.64,7.64,0,0,0,57.57,23a3.74,3.74,0,0,0-.33-2.37,2.22,2.22,0,0,0-1.55-1.14,2.41,2.41,0,0,0-1.25,0,6.07,6.07,0,0,0-1.56.7,1,1,0,0,0-.3.27A12.39,12.39,0,0,1,51.46,22a3.2,3.2,0,0,0-.52.89c-.22.61-.46,1.22-.7,1.82a1.62,1.62,0,0,0-.12.61c0,.39,0,.79,0,1.18a1.15,1.15,0,0,0,.1.52c.17.36.33.72.49,1.07a.59.59,0,0,0,.3.32l.6.32a.19.19,0,0,1,.12.22.24.24,0,0,1-.19.23,7.45,7.45,0,0,1-1.34.18c-.37,0-.75,0-1.13,0a.77.77,0,0,1-.6-.26,5.45,5.45,0,0,0-3.38-1.64l-.18,0a.3.3,0,0,1-.3-.28.29.29,0,0,1,.23-.34l.35-.08a4.56,4.56,0,0,0,.95-.3,2.45,2.45,0,0,0,1-.78,17,17,0,0,0,1-1.42c.79-1.29,1.53-2.6,2.41-3.83a22.24,22.24,0,0,1,2-2.48,20.77,20.77,0,0,1,3.18-2.81,22.36,22.36,0,0,1,2.31-1.51,1.23,1.23,0,0,1,.4-.19.53.53,0,0,0,.18,0c.11,0,.13-.14,0-.2s-.21-.11-.31-.18a.16.16,0,0,1,0-.26.48.48,0,0,1,.26-.07,2.07,2.07,0,0,0,.49-.07,6,6,0,0,1,1.12-.11,11.28,11.28,0,0,1,2.46.17,1.15,1.15,0,0,0,.32,0,.14.14,0,0,0,.11-.23.76.76,0,0,0-.11-.14,3,3,0,0,0-1.19-.94.8.8,0,0,1-.16-.08.69.69,0,0,1-.29-.34.1.1,0,0,1,.07-.14,1.35,1.35,0,0,1,.49,0,1.67,1.67,0,0,0,.31.05,7.51,7.51,0,0,1,1.77.28,18.06,18.06,0,0,1,2.19.71l.88.35c.05,0,.09,0,.12,0a.08.08,0,0,0,0-.08c-.24-.31-.47-.62-.72-.93a1.25,1.25,0,0,0-.27-.24,1.71,1.71,0,0,1-.64-.91.64.64,0,0,1,.57.13,1.66,1.66,0,0,0,.61.27c.52.16,1,.31,1.55.48a12,12,0,0,1,2,.8.51.51,0,0,0,.29.1h0c0,.07.1.08.17.08h.17c.25.14.25.14.35-.1a1.54,1.54,0,0,0,0-.17h.16c0,.11,0,.21,0,.32a.62.62,0,0,0,.09.3,1,1,0,0,0,1.15.49,1.7,1.7,0,0,0,1-.8l1.27-2.19a8.52,8.52,0,0,1,1.7-2.08,6.52,6.52,0,0,1,3.16-1.57,2.84,2.84,0,0,0,1-.33,1.25,1.25,0,0,0,.7-1.08.61.61,0,0,0-.41-.64A1.36,1.36,0,0,0,80.57,4c-.14,0-.29,0-.45,0l.11-.13a9.87,9.87,0,0,1,4.53.59A13.14,13.14,0,0,1,86.05,5a8.69,8.69,0,0,1,2.3,1.79A8.17,8.17,0,0,1,90.2,10a6.06,6.06,0,0,1,.23,1.2,12.24,12.24,0,0,1,.07,2.57,16.2,16.2,0,0,1-.38,2.4,11.84,11.84,0,0,1-1,2.66,20.81,20.81,0,0,1-1.05,1.84,15.78,15.78,0,0,1-1,1.3c-.49.64-1.3.8-1.89,1.34-.44.41-1.19.79-1.67,1.17-.14.11.29.66.14.77-.1-.06-.08-.19-.13-.28s-.15-.19-.32-.12l-2.67,1.1a1.91,1.91,0,0,0-.28.15.19.19,0,0,0-.08.23c.08.26.15.52.23.78a2.72,2.72,0,0,1,.18,1.06.55.55,0,0,0,0,.18,3.23,3.23,0,0,1,.08,1,1.65,1.65,0,0,0,0,.32,1.3,1.3,0,0,1,0,.44V31a1.34,1.34,0,0,1,0,.35,1.4,1.4,0,0,0-.06.49c0,.43-.12.84-.1,1.26,0,0,0,.06,0,.09l-.15.74A13.21,13.21,0,0,1,80,35.67c-.18.49-.37,1-.52,1.49a6,6,0,0,1-.38,1c-.35.72-.71,1.43-1.07,2.15-.08.14-.16.29-.25.42l-1.24,1.83a7.09,7.09,0,0,1-.56.76c-.4.44-.78.88-1.15,1.33a3.33,3.33,0,0,1-.42.42l-1.33,1.07c-.62.52-1.3,1-2,1.43a.29.29,0,0,1-.37,0l-.24-.2c-.08-.08-.15-.16-.26-.16a2.37,2.37,0,0,1-.13-.34.63.63,0,0,0-.33-.4c-.18-.09-.34-.2-.51-.3a.19.19,0,0,0,0-.08,2.56,2.56,0,0,0-1.59-.69h0s0-.06-.09,0a3.09,3.09,0,0,0-1.54,0,.42.42,0,0,0-.27.06c-.08,0-.17,0-.18.1h0a.21.21,0,0,0-.25,0l-.44.31c-.6.39-1.2.79-1.81,1.17a1.1,1.1,0,0,0-.41.47c-.46,1-.94,2.05-1.41,3.07a1.05,1.05,0,0,0-.12.38c-.12,1-.24,1.91-.35,2.87a2.43,2.43,0,0,0,.09,1.07.58.58,0,0,1,0,.37L61,56.34c0,.47.11.94.16,1.41a.15.15,0,0,1-.11.17,1.49,1.49,0,0,0-1,0,18.12,18.12,0,0,0-1.8-.25L55.6,57.2c-.42-.06-.82-.19-1.24-.21-.14-.12-.31-.06-.47-.08-1.54-.52-3.07-1-4.62-1.55a8.39,8.39,0,0,1-2.07-1c-.51-.34-1.05-.65-1.57-1a.43.43,0,0,0-.47,0ZM81.69,14.37h0a8.47,8.47,0,0,0,1.1-2.59A8.09,8.09,0,0,0,83,9.65c0-.32-.09-.45-.43-.19l0,0a4.52,4.52,0,0,0-1.28.73c-.35.25-.69.53-1,.8a7,7,0,0,0-1,1,13.31,13.31,0,0,0-1.46,2.32c-.27.58-.53,1.17-.79,1.76,0,.11-.07.23-.11.35a.08.08,0,0,0,.11.09l.39-.12a1.27,1.27,0,0,1,.88,0,1.71,1.71,0,0,1,.88.51l0,0c.11.1.17.1.27,0l.23-.22c.4-.4.8-.81,1.21-1.21a1.73,1.73,0,0,0,.53-.77,2.39,2.39,0,0,1,.16-.32A.14.14,0,0,0,81.69,14.37ZM58.4,29c0,.42,0,.71,0,1a1,1,0,0,0,.12.48c.21.38.42.76.62,1.15a.45.45,0,0,0,.31.24c.43.09.85.2,1.27.31a.61.61,0,0,0,.4,0c.42-.16.84-.33,1.27-.46a2.57,2.57,0,0,0,1-.61l.39-.37a8.81,8.81,0,0,0,1.88-3.17A6.37,6.37,0,0,0,66,24.69a4.31,4.31,0,0,0-.55-1.7,2.38,2.38,0,0,0-1.59-1.1,1.71,1.71,0,0,0-.45,0,3.77,3.77,0,0,0-1.23.27,6.35,6.35,0,0,0-1.81,1.18.66.66,0,0,0-.29.48c0,.08-.08.16-.12.25-.21.41-.41.83-.64,1.24a7,7,0,0,0-.71,1.85A5.31,5.31,0,0,0,58.4,29Zm-3.17-11.6A2.91,2.91,0,0,0,56,17.1a15.73,15.73,0,0,1,2.64-.78l.52-.15c.05,0,.1,0,.08-.08a.15.15,0,0,0-.1-.07,3.07,3.07,0,0,0-1.17,0,5.44,5.44,0,0,0-1.58.65C56,16.93,55.51,17,55.23,17.39Z"/><path class="cls-1" d="M26.48,27.29l.11.07a.71.71,0,0,1,.34.69.62.62,0,0,0,0,.27,1,1,0,0,1-.22.84c-.83,1.29-1.64,2.6-2.46,3.9a.78.78,0,0,0,0,1.07,8.65,8.65,0,0,1,1.38,2.37l0,.08a3.88,3.88,0,0,1,.51,1.94c0,.5.08,1,.11,1.49,0,.1,0,.21,0,.32s0,.51-.06.76a.42.42,0,0,0,.16.39L28,42.77c1.27,1.06,2.53,2.15,3.83,3.17,2,1.54,4,3,6,4.44l1.18.83s.05,0,.06.07a4.74,4.74,0,0,1,.52,2.08,8.4,8.4,0,0,1-.07,1.8,6.46,6.46,0,0,1-.82,2.22,6.21,6.21,0,0,1-1.17,1.48A5.59,5.59,0,0,1,35.89,60a6.73,6.73,0,0,1-3,.59,8.12,8.12,0,0,1-1.39-.09,9.35,9.35,0,0,1-1.26-.33c-.37-.16-.73-.34-1.11-.48a6.75,6.75,0,0,1-1.41-.8,8.5,8.5,0,0,1-1.39-1.15c-.23-.25-.41-.55-.64-.81a16.66,16.66,0,0,1-1.14-1.73c-.2-.56-.52-1.08-.72-1.65a15.84,15.84,0,0,1-.58-1.89c-.12-.48-.19-1-.27-1.46a4.51,4.51,0,0,1-.09-.53,5.35,5.35,0,0,0-.09-1.26,1.08,1.08,0,0,1,0-.18V45.56a1.08,1.08,0,0,1,0-.36,1.57,1.57,0,0,0,.05-.53c0-.26,0-.52,0-.77a3.09,3.09,0,0,0,.14-.43c.07-.26-.06-.38-.32-.29a2.15,2.15,0,0,0-.48.24,19.48,19.48,0,0,1-2.05,1.14c-.21.09-.42.17-.62.27a15.44,15.44,0,0,1-2.75,1,10.08,10.08,0,0,1-1.81.4c-.43,0-.86.14-1.29.19s-.95.12-1.43.15c-.32,0-.63,0-.95,0a10.1,10.1,0,0,1-2.68-.34,5.89,5.89,0,0,1-1.36-.59,1.9,1.9,0,0,1-.53-.49.68.68,0,0,1-.16-.55,1.29,1.29,0,0,1,.27-.71,2.41,2.41,0,0,1,1.82-1,.59.59,0,0,0,.45-.18,11,11,0,0,1,1.6.23,8.45,8.45,0,0,0,1.34.14A9.76,9.76,0,0,0,13.12,43c.18,0,.43,0,.45-.34,0,0,.08-.08.12-.12a.28.28,0,0,0,.11-.24,7,7,0,0,1,.11-.89,3.28,3.28,0,0,1,.13-.75A8.5,8.5,0,0,1,15.19,38c.09-.13.15-.3.25-.42.33-.35.61-.74,1-1.07a4.18,4.18,0,0,1,.89-.62,1.92,1.92,0,0,1,.81-.25,5.41,5.41,0,0,1,1.79.14.88.88,0,0,0,.36,0c.09,0,.13-.06.11-.16-.14-.64-.27-1.29-.4-1.93a.22.22,0,0,0,.08-.2V33a1.52,1.52,0,0,1,.17-1,7.15,7.15,0,0,1,1.21-2.44,4,4,0,0,1,.87-.91A5,5,0,0,1,25,27.78a6,6,0,0,0,.85-.11C26.05,27.61,26.34,27.57,26.48,27.29Z"/><path class="cls-2" d="M69.25,46.19c.17.1.33.21.51.3a.63.63,0,0,1,.33.4,2.37,2.37,0,0,0,.13.34,7.09,7.09,0,0,0,.36,1.19,3.37,3.37,0,0,1,.25,1.4,1.23,1.23,0,0,0,0,.27,12.44,12.44,0,0,0,0,1.93c0,.21,0,.42,0,.63a4.28,4.28,0,0,1-.15,1.43,5.21,5.21,0,0,0-.45,1.09l-.07.12a.45.45,0,0,0-.16.36c-.28.71-.56,1.43-.85,2.14a2.9,2.9,0,0,1-.31.54c-.29.39-.57.78-.84,1.18a1.17,1.17,0,0,0-.17.31.18.18,0,0,0,.13.25c.22,0,.29.16.35.34a7.21,7.21,0,0,1,.33,1.9c0,.15,0,.3,0,.45a.09.09,0,0,0,0,.07.08.08,0,0,0,.12,0l.18-.21c.09-.13.18-.27.28-.4a7.85,7.85,0,0,0,.91-1.56,10.75,10.75,0,0,0,.84-2.47,4.14,4.14,0,0,0,.15-1.68,1.87,1.87,0,0,0-.2-.59.58.58,0,0,0-.63-.35h-.18l.1-.24,0-.07A2.43,2.43,0,0,1,71.47,55c.35,0,.35,0,.41-.35,0,0,0-.06-.09-.1a.94.94,0,0,1-.42,0s0-.06,0-.08l1.51-2.56c.27-.45.53-.91.82-1.34A13.44,13.44,0,0,1,75.89,48a.48.48,0,0,0,.09-.11s.11-.06.1-.14h0c.14,0,.21-.08.27-.19h0l1.28-.83s0,0,0-.06l-.18-.1a.37.37,0,0,1,.22-.52,4.07,4.07,0,0,1,.58-.22c.39-.11.8-.13,1.19-.21h.18a5.06,5.06,0,0,1,2.71.55,2.32,2.32,0,0,1,1.15,1.1,5.14,5.14,0,0,1,.42,1.88,4.76,4.76,0,0,1-.8,2.91,25.17,25.17,0,0,1-1.88,2.71c-.26.31-.47.66-.71,1a17.19,17.19,0,0,1-2,2.25l-.62.59a.19.19,0,0,0,0,.24c.08.14.14.27.22.4a18.76,18.76,0,0,1,1.14,2,3.51,3.51,0,0,1,.41,1.65,2.67,2.67,0,0,0,0,.4,2.19,2.19,0,0,1-.17.88c-.4.9-.79,1.79-1.18,2.69a.49.49,0,0,1-.25.24,3.18,3.18,0,0,1-1.19.07.16.16,0,0,0-.22-.08l-.87.36-1.06.1-.89-.09a3.43,3.43,0,0,1-1.08-.31A4.92,4.92,0,0,1,71.14,66a5.86,5.86,0,0,1-1-1.41,3.23,3.23,0,0,0-.36-.72.39.39,0,0,1,.33-.46,1.09,1.09,0,0,0,.25-.1,2,2,0,0,0,.65-.46.5.5,0,0,1-.27-.33c-.22.12-.42.24-.64.35s-.17.19-.26.22-.22,0-.33,0l-.77,0s-.1.07-.1.07c.1.17-.11.3-.05.46a4,4,0,0,0-.15,1.09,1.05,1.05,0,0,0-.12.38,2,2,0,0,1-.1.44A9.23,9.23,0,0,1,67,67.79a2.29,2.29,0,0,1-.23.21,3.2,3.2,0,0,1-1.3.59,1,1,0,0,1-.82-.06c0-.12-.1-.14-.2-.11a6.09,6.09,0,0,1-2.62,0,7.19,7.19,0,0,1-1.22-.66.17.17,0,0,0-.12-.1h0a1.57,1.57,0,0,0-.45-.44l-.64-1.68a1.11,1.11,0,0,1-.07-.26,16.13,16.13,0,0,1-.09-2.2c0-.27.05-.54.08-.81s.28-.74.43-1.11a.4.4,0,0,0,.29-.18l1-1.37s.07,0,.08,0a.85.85,0,0,0,0-.68l-.08-1a.15.15,0,0,0,.11-.17c0-.47-.11-.94-.16-1.41l-.12-1.06a5,5,0,0,1,.05-1,14.22,14.22,0,0,1,.63-3.55,7.56,7.56,0,0,1,1-2,6.63,6.63,0,0,1,1.82-1.8,4.29,4.29,0,0,1,1.6-.72l.13,0s.1,0,.08-.06a.57.57,0,0,0-.25-.11,1.83,1.83,0,0,1-.28-.14c-.13-.07-.13-.18-.07-.3h0a.23.23,0,0,0,.18,0c.1,0,.2,0,.27-.08a13.19,13.19,0,0,0,1.54,0h.08a4.26,4.26,0,0,1,.81.38A4.46,4.46,0,0,0,69.25,46.19ZM73.08,55a0,0,0,0,0,0,0s0,0,0,0l0,0a.1.1,0,0,0,.09.08.09.09,0,0,0,.08.1.11.11,0,0,0,.09.09.09.09,0,0,0,.1.09A7.16,7.16,0,0,1,74,57.3,2.45,2.45,0,0,0,73.84,56a1.29,1.29,0,0,0-.35-.61l-.08-.11-.1-.09s-.07-.09-.13,0S73.14,55,73.08,55Zm-1,7s.09,0,0-.06l0,.07h0s0,0,0,0ZM63.2,52.77c0,.13,0,.25,0,.37a.22.22,0,0,0,.36.16.83.83,0,0,0,.21-.16L64,52.9A26.25,26.25,0,0,1,67,50a3.26,3.26,0,0,0,.41-.42.94.94,0,0,0,.25-.47.82.82,0,0,0-.82-1,1.64,1.64,0,0,0-.62.13,3,3,0,0,0-1.07.73,7.29,7.29,0,0,0-1.76,3A3,3,0,0,0,63.2,52.77Zm17.85-4.05a.55.55,0,0,0-.24-.46,1.33,1.33,0,0,0-1-.27,3.22,3.22,0,0,0-1,.27,6.87,6.87,0,0,0-2.37,1.84,5.72,5.72,0,0,0-.85,1.32,1.76,1.76,0,0,0-.1.3.15.15,0,0,0,.23.17,3,3,0,0,0,.4-.21A22.15,22.15,0,0,1,79.46,50c.22-.08.45-.18.66-.28s.4-.22.59-.34A.79.79,0,0,0,81.05,48.72Zm-18,18.45a2.19,2.19,0,0,0,1.43-.48,1.43,1.43,0,0,0,.4-.48.13.13,0,0,0-.11-.2,2.68,2.68,0,0,0-.4,0,4.1,4.1,0,0,1-3.13-1.39l-.32-.37a1.8,1.8,0,0,0-.19-.2.15.15,0,0,0-.22.08,1.64,1.64,0,0,0,0,.23,2.68,2.68,0,0,0,.1.89A2.47,2.47,0,0,0,63.06,67.17Zm11.41-1a2.73,2.73,0,0,0,2.7-2.28,2.45,2.45,0,0,0-.23-1.66.59.59,0,0,0-.13-.18.08.08,0,0,0-.12,0,.5.5,0,0,0-.08.2c-.06.25-.11.51-.17.75a2.84,2.84,0,0,1-1.7,2,4.75,4.75,0,0,1-1.43.39c-.12,0-.25,0-.33.11s0,.2.23.3A2.5,2.5,0,0,0,74.47,66.14Zm-2-4.56s0,0,0,0-.2.12-.17.2a.05.05,0,0,0,0,0A.2.2,0,0,0,72.42,61.58Zm4.47-2.1a.19.19,0,0,0-.16.14s0,0,0,0,0,0,.07,0l.15-.08a.09.09,0,0,0,0-.09S76.92,59.5,76.89,59.48ZM72.6,61.37s0-.07,0-.07-.07,0-.09.05,0,.06,0,.07A.08.08,0,0,0,72.6,61.37Z"/><path class="cls-3" d="M70.7,134.64a2.06,2.06,0,0,1-.48.15c-.52.14-1,.3-1.55.45-.26.08-.46,0-.46-.31a2.26,2.26,0,0,1,.05-.86.24.24,0,0,0,0-.08,9.09,9.09,0,0,1,.11-1.17c0-.4.1-.8.15-1.2,0,0,0-.06,0-.09,0-.47.11-.92.1-1.39a1.16,1.16,0,0,1,.06-.49.31.31,0,0,0,0-.13c0-.62.13-1.23.1-1.85a2.76,2.76,0,0,1,.07-1,1.06,1.06,0,0,0,0-.31c0-.58,0-1.15,0-1.72a3,3,0,0,0-.07-.94,1.13,1.13,0,0,1,0-.32,2.73,2.73,0,0,0-.08-.85.81.81,0,0,1,0-.27,1.65,1.65,0,0,0-.07-.58.2.2,0,0,1,0-.13,5.45,5.45,0,0,0-.11-1.21c0-.34-.06-.68-.14-1a7.32,7.32,0,0,1-.11-.8c-.06-.49-.13-1-.23-1.47-.14-.67-.27-1.35-.42-2-.09-.41-.22-.81-.29-1.23a6.16,6.16,0,0,0-.47-1.35,3.78,3.78,0,0,0-1.57-1.76,2.74,2.74,0,0,0-.53-.23,4.57,4.57,0,0,0-1.38-.21c-.36,0-.72,0-1.08,0a7.55,7.55,0,0,0-1.43.16c-.52.08-1,.18-1.55.27a16.28,16.28,0,0,0-1.82.49l-1.17.36a9.65,9.65,0,0,0-1.21.5c-.37.18-.76.34-1.14.53a9.06,9.06,0,0,0-.92.49,3.52,3.52,0,0,1-1,.43,1.93,1.93,0,0,1-.72,0,.51.51,0,0,1-.41-.42,2.44,2.44,0,0,1,0-.85,8.6,8.6,0,0,1,.24-.87,6.26,6.26,0,0,1,.73-1.18,5.08,5.08,0,0,1,.92-1,9.32,9.32,0,0,1,1.13-.82,14.87,14.87,0,0,1,1.29-.74,10.06,10.06,0,0,1,2-.81,16.34,16.34,0,0,1,1.71-.4c.5-.09,1-.14,1.5-.25s.78,0,1.17-.09a29.5,29.5,0,0,1,3.52-.07,3.65,3.65,0,0,1,.93.12,4.23,4.23,0,0,1,.71.13.28.28,0,0,0,.32-.11,6.67,6.67,0,0,0,.54-.84c.41-.87.69-1.79,1.06-2.68.12-.29.2-.59.3-.9a1.54,1.54,0,0,0-.43-.17c-.85-.3-1.71-.59-2.55-.92a12.88,12.88,0,0,1-1.53-.77,9.47,9.47,0,0,1-.95-.6,6.64,6.64,0,0,1-1.06-.84,3.45,3.45,0,0,0-.28-.23,1.77,1.77,0,0,1-.41-.41,10.07,10.07,0,0,0-.72-.87,6.78,6.78,0,0,1-.72-1c-.23-.35-.41-.74-.61-1.11a7.94,7.94,0,0,1-.63-1.64,17.63,17.63,0,0,1-.34-1.76,12.55,12.55,0,0,1-.07-1.62,10.62,10.62,0,0,1,.14-1.25A4.51,4.51,0,0,1,59,88c.1-.44.19-.88.33-1.31a13.81,13.81,0,0,1,.51-1.35,13,13,0,0,1,.65-1.48c.39-.7.71-1.43,1.15-2.1.22-.36.45-.71.65-1.08a12.25,12.25,0,0,1,.87-1.26c.5-.68,1-1.34,1.55-2a3.13,3.13,0,0,1,.58-.57c.19-.15.36-.32.54-.48a12,12,0,0,1,1.62-1.22c.49-.32,1-.51,1.57-.78a2.24,2.24,0,0,1,.34-.11c.12,0,.16,0,.18.15s-.16.11-.17.21a1.69,1.69,0,0,1-.53.92l-.49.46a4.67,4.67,0,0,0-1,1.31,2.86,2.86,0,0,1-.36.52.35.35,0,0,1-.42.17.17.17,0,0,0-.23.08c-.09.11-.16.22-.24.33a.28.28,0,0,0,0,.3.72.72,0,0,1-.08.72c-.33.59-.75,1.12-1.12,1.69a.16.16,0,0,1-.19.09,2,2,0,0,1,.39-.79A9.24,9.24,0,0,0,65.79,79a.12.12,0,0,0,0-.14,11.72,11.72,0,0,0-1.5,2.53,3.66,3.66,0,0,0-.49.94c0,.07,0,.11.08.14l-.11.07h0a.2.2,0,0,1-.1.22.29.29,0,0,0-.17.19.83.83,0,0,0-.11.15c-.36.67-.72,1.34-1.07,2a.76.76,0,0,0-.08.21l-.33,1.25c-.09.33-.19.66-.27,1a6,6,0,0,0-.22.91.8.8,0,0,0-.09.52c0,.37.06.73.1,1.1a.89.89,0,0,0,0,.46c0,.22,0,.44,0,.66a.84.84,0,0,0,.19.53h0a.14.14,0,0,0,0,.09,5.93,5.93,0,0,0,.32.83,16.19,16.19,0,0,0,.87,1.58,2.83,2.83,0,0,0,.62.71c.75.6,1.51,1.19,2.25,1.81a4.52,4.52,0,0,0,1.55.89c.44.12.87.32,1.3.48a.85.85,0,0,0,.22,0,1.22,1.22,0,0,0,.57.25,9.91,9.91,0,0,0,1.33.19,3.67,3.67,0,0,0,.43.09,5.2,5.2,0,0,1,1,.16l.26,0c.79.09.71,0,.54.77L72.34,102c0,.15-.07.29-.12.43a11,11,0,0,0-.5,2,2.1,2.1,0,0,1-.37,1,11.75,11.75,0,0,0-1.26,2.44.65.65,0,0,0-.09.3c0,.07,0,.12.11.12s.15,0,.17.16l.18,1.7c.11,1,.23,2,.33,3.06,0,.48.09,1,.13,1.44l.24,3.65c0,.5.07,1,.1,1.49.07,1.28.16,2.56.12,3.84-.06,1.57-.06,3.14-.11,4.71s-.13,3.1-.2,4.65c0,.21,0,.42,0,.63a1.16,1.16,0,0,1-.29.83S70.71,134.57,70.7,134.64Z"/><path class="cls-4" d="M46,56a.25.25,0,0,0-.26,0,3.08,3.08,0,0,0-.24.27C44.24,58,43,59.69,41.75,61.46a29.64,29.64,0,0,0-2.43,4.28c-.27.57-.47,1.17-.7,1.76-.38,1-.72,2-1,3-.25.83-.44,1.69-.61,2.54s-.26,1.76-.4,2.63c-.08.52-.13,1-.19,1.57s0,1.11-.14,1.66a1.67,1.67,0,0,0,0,.5c0,.66,0,1.33,0,2a17.16,17.16,0,0,0,.14,1.89.57.57,0,0,1,0,.13c0,.53.06,1,.11,1.58s.1.77.15,1.16.08.6.11.9a17.85,17.85,0,0,0,.3,2.18c.13.71.29,1.42.42,2.13s.27,1.11.41,1.66A31.27,31.27,0,0,0,39,96.42c.35.94.79,1.85,1.18,2.78.28.66.6,1.29.93,1.91s.59,1.15.93,1.71.46.85.68,1.27a24.81,24.81,0,0,0,2.4,3.66c.57.71,1.18,1.37,1.77,2.06.79.92,1.67,1.74,2.52,2.59a3,3,0,0,1,.61.84c.51,1.14,1,2.27,1.57,3.41.23.49.45,1,.69,1.47.4.85.81,1.69,1.21,2.53l1.82,3.89c0,.1.09.19.14.29.47,1,.95,2,1.41,2.93q1.08,2.34,2.23,4.65c.12.25.23.52.36.78.6,1.15,1.19,2.3,1.81,3.44a1.9,1.9,0,0,1,.23,1c0,.59,0,1.18,0,1.77a5.59,5.59,0,0,0,.4,1.93,3,3,0,0,0,1,1.24,10.41,10.41,0,0,0,2.91,1.63,13.69,13.69,0,0,0,1.42.43c.21,0,.4.12.61.19a.18.18,0,0,1,.13.11c-.11.09-.22.05-.34,0a9.23,9.23,0,0,0-1.39-.15,1.23,1.23,0,0,0-.57.1.78.78,0,0,1-.52.07l-2-.32c-.46-.08-.92-.14-1.38-.21l-.27-.05a.94.94,0,0,1-.65-.35c-.33-.39-.68-.76-1-1.14a.94.94,0,0,1-.22-.57c-.08-.73-.15-1.46-.26-2.19-.06-.37-.06-.75-.12-1.12a3.25,3.25,0,0,0-.17-.92,1,1,0,0,1,0-.17,7.61,7.61,0,0,0-.11-1.35,1.23,1.23,0,0,0-.25-.67c-.2-.28-.38-.58-.55-.87a16.71,16.71,0,0,1-1.09-1.88c-.14-.31-.29-.63-.44-.94l-1.74-3.57c-.75-1.51-1.49-3-2.19-4.56-.6-1.3-1.22-2.58-1.83-3.88-.27-.55-.53-1.11-.79-1.67l-1.88-4a6.2,6.2,0,0,1-.35-.88,1.37,1.37,0,0,0-.39-.64c-.64-.55-1.29-1.09-1.92-1.65a7.43,7.43,0,0,1-.85-.73s0-.11-.1-.13h0a.09.09,0,0,0-.1-.09h0a.27.27,0,0,0-.09-.24c-.81-.92-1.58-1.86-2.32-2.83-1-1.34-1.7-2.8-2.74-4.13-.31-.4-.43-.83-.75-1.23a3.94,3.94,0,0,1-.44-.73c-.35-1.06-1-1.66-1.41-2.72-.66-2-1.31-3.91-2-5.86a5.23,5.23,0,0,1-.22-1.1,2.53,2.53,0,0,0-.13-.62c-.36-1-.72-2.11-1.09-3.16a1.5,1.5,0,0,1-.08-.79c.08-.43.08-.87.12-1.3s.1-.89.15-1.34a4,4,0,0,0,0-1c0-.24-.06-.48-.09-.72-.07-.58-.16-1.15-.24-1.74a5.74,5.74,0,0,1,0-1.31c0-.44.11-.89.16-1.34.08-.62.18-1.25.25-1.87s.13-1.26.21-1.88c0-.35.09-.69.14-1s0-.57.1-.85a7.52,7.52,0,0,0,.11-.94,1.55,1.55,0,0,1,.18-.6c.17-.39.35-.77.53-1.15a.9.9,0,0,0,.08-.21c0-.34.08-.69.11-1A.18.18,0,0,0,35,68.5s0-.07.06-.09a.15.15,0,0,0,.12-.1h0a.17.17,0,0,0,.09-.19h0c.1,0,.14-.1.19-.18.29-.45.57-.91.87-1.36a4.19,4.19,0,0,0,.32-.59c.14-.31.28-.62.43-.93a.67.67,0,0,0,.09-.48h0c.11,0,.1-.11.09-.19h0c.1,0,.1-.11.1-.19h0c.1,0,.09-.12.1-.19h0s.09,0,0-.09a10.1,10.1,0,0,1,.81-1.43l0,0c.11,0,.14-.09.14-.19h0a.21.21,0,0,0,.19-.09c.18-.26.38-.51.56-.77.56-.79,1.08-1.62,1.69-2.38.39-.48.77-1,1.14-1.46a.47.47,0,0,0,.13-.37h0a.14.14,0,0,0,.1-.1h0a.21.21,0,0,0,.1-.14c0-.12.1-.18.17-.25s.43-.42.62-.65a5.67,5.67,0,0,1,1-.93l.62-.51a.2.2,0,0,0,.07-.2.16.16,0,0,1,.23.05c.06.1.11.2.16.3a1,1,0,0,0,.24.36.52.52,0,0,0,.19.38C45.77,55.71,45.88,55.83,46,56Z"/><path class="cls-3" d="M44.67,110.63a7.43,7.43,0,0,0,.85.73c.63.56,1.28,1.1,1.92,1.65a1.37,1.37,0,0,1,.39.64,6.2,6.2,0,0,0,.35.88l1.88,4c.26.56.52,1.12.79,1.67.61,1.3,1.23,2.58,1.83,3.88.7,1.53,1.44,3,2.19,4.56l1.74,3.57c.15.31.3.63.44.94A16.71,16.71,0,0,0,58.14,135c.17.29.35.59.55.87a1.23,1.23,0,0,1,.25.67,7.61,7.61,0,0,1,.11,1.35,1,1,0,0,0,0,.17c0,.89,0,1.78,0,2.67a1.33,1.33,0,0,1-.27.93,1.41,1.41,0,0,0-.26.52,1.66,1.66,0,0,1-.56.86,1.8,1.8,0,0,0-.38.44c-.16.25-.33.5-.49.76a.5.5,0,0,1-.43.27c-.45,0-.9.11-1.35.14a9.79,9.79,0,0,0-1.42.24l-.31.06a1.12,1.12,0,0,1-.74-.08,1.64,1.64,0,0,0-.66-.16l-.06-.07c0-.06-.09-.12,0-.15a4.09,4.09,0,0,0,.75-.31,1.34,1.34,0,0,0,.51-.43,9,9,0,0,0,.92-1.66,6.32,6.32,0,0,0,.47-1.59,6.79,6.79,0,0,0,.1-1.8c0-.42-.07-.83-.1-1.25a9,9,0,0,0-.17-1c-.08-.47-.18-.94-.26-1.41a17.8,17.8,0,0,0-.42-1.75c-.24-.9-.52-1.79-.82-2.67-.2-.6-.46-1.17-.71-1.75-.32-.76-.65-1.52-1-2.27a18.49,18.49,0,0,0-1-1.93c-.29-.46-.55-1-.83-1.44s-.56-1-.85-1.44-.6-1.07-1-1.57l-1.34-1.93a1.51,1.51,0,0,0-.21-.23l-.89-.9a6.49,6.49,0,0,0-2.61-1.55,1.59,1.59,0,0,0-.89,0l-.34.11a1.12,1.12,0,0,0-.84.75s-.06.06-.09.09c-.08-.15-.15-.3-.23-.44-.23-.41-.21-.73-.46-1.12a2.77,2.77,0,0,1-.32-1.53c0-.19.09-.3.08-.49a2.49,2.49,0,0,1,0-.72c.1-.29-.31-.52-.3-.82.07-1.61.14-3.22.22-4.83,0-.2,0-.39,0-.59a.26.26,0,0,1,.14-.21l.43-.22c.15.08.83,0,.92.12,1,1.26,1.5,2.07,2.52,3.28.28.32.5,1.22.9,1.42h0c0,.07,0,.09.1.09h0A.22.22,0,0,0,44.67,110.63Z"/><path class="cls-3" d="M44.83,54.51a.2.2,0,0,1-.07.2l-.62.51a5.67,5.67,0,0,0-1,.93c-.19.23-.41.43-.62.65s-.17.13-.17.25a.19.19,0,0,0-.1.14h0a.11.11,0,0,0-.1.1h0s-.06,0-.08,0a26.05,26.05,0,0,0-1.73,2c-.67.91-1.23,1.89-1.84,2.84a1,1,0,0,0-.06.16h0c-.08,0-.1.12-.14.19l0,0A10.1,10.1,0,0,0,37.44,64a.29.29,0,0,0,0,.09h0a.21.21,0,0,0-.1.19h0a.17.17,0,0,0-.1.19h0a.16.16,0,0,0-.09.19h0c-.14.08-.18.23-.25.36l-1,1.89-.55,1c0,.07-.1.15,0,.25h0c-.11,0-.13.1-.09.19h0c-.08,0-.1,0-.12.1s-.07,0-.06.09l-.38.7c-.15,0-.22-.08-.3-.13-.76-.52-1.52-1-2.27-1.58a6.64,6.64,0,0,0-1.37-.78,1.78,1.78,0,0,1-.69-.49,5.18,5.18,0,0,0-1.11-.92c-.25-.17-.48-.36-.74-.52a3,3,0,0,1-.78-.73l-2-2.51c-.11-.13-.22-.25-.34-.37a3.41,3.41,0,0,1-.37-.39,10.73,10.73,0,0,1-.84-1.27c-.79-1.7-1.56-3.4-2.34-5.1-.28-.61-.45-1.27-.67-1.91l-1.71-5.24c.13-.1.27-.19.4-.3l1.82-1.46a5.4,5.4,0,0,0,1-1c.18-.23.4-.43.61-.65,0,.25,0,.51,0,.77a1.57,1.57,0,0,1-.05.53,1.08,1.08,0,0,0,0,.36v2.62a1.08,1.08,0,0,0,0,.18,5.35,5.35,0,0,1,.09,1.26,4.51,4.51,0,0,0,.09.53c.08.49.15,1,.27,1.46a15.84,15.84,0,0,0,.58,1.89c.2.57.52,1.09.72,1.65a16.66,16.66,0,0,0,1.14,1.73c.23.26.41.56.64.81a8.5,8.5,0,0,0,1.39,1.15,6.75,6.75,0,0,0,1.41.8c.38.14.74.32,1.11.48a9.35,9.35,0,0,0,1.26.33,8.12,8.12,0,0,0,1.39.09,6.73,6.73,0,0,0,3-.59,5.59,5.59,0,0,0,1.64-1.09,6.21,6.21,0,0,0,1.17-1.48,6.46,6.46,0,0,0,.82-2.22,8.4,8.4,0,0,0,.07-1.8,4.74,4.74,0,0,0-.52-2.08s0-.05-.06-.07c0-.18-.17-.32-.15-.52l0,0a.83.83,0,0,1,.39.21L43,53.31l1.45.91A1.46,1.46,0,0,1,44.83,54.51Z"/><path class="cls-3" d="M70.85,50.09a1.23,1.23,0,0,1,0-.27,3.37,3.37,0,0,0-.25-1.4,7.09,7.09,0,0,1-.36-1.19c.11,0,.18.08.26.16l.24.2a.29.29,0,0,0,.37,0c.66-.47,1.34-.91,2-1.43l1.33-1.07a3.33,3.33,0,0,0,.42-.42c.37-.45.75-.89,1.15-1.33a7.09,7.09,0,0,0,.56-.76l1.24-1.83c.09-.13.17-.28.25-.42.36-.72.72-1.43,1.07-2.15a6,6,0,0,0,.38-1c.15-.51.34-1,.52-1.49a13.21,13.21,0,0,0,.45-1.75l.15-.74s0-.06,0-.09c0-.42.14-.83.1-1.26a1.4,1.4,0,0,1,.06-.49,1.34,1.34,0,0,0,0-.35v-.91a1.3,1.3,0,0,0,0-.44,1.65,1.65,0,0,1,0-.32,3.23,3.23,0,0,0-.08-1,.55.55,0,0,1,0-.18,2.72,2.72,0,0,0-.18-1.06c-.08-.26-.15-.52-.23-.78a.19.19,0,0,1,.08-.23,1.91,1.91,0,0,1,.28-.15l2.67-1.1c.17-.07.23,0,.32.12s0,.22.13.28a.83.83,0,0,0,0,.44c.2.79.41,1.58.62,2.36a1.51,1.51,0,0,1,.06.36c0,.88,0,1.77.08,2.66a5.92,5.92,0,0,1-.07,1.26c-.2,1.25-.38,2.5-.58,3.75a3.46,3.46,0,0,1-.21.78c-.48,1.27-.94,2.55-1.44,3.81-.29.72-.63,1.43-1,2.14S80.5,44.29,80.15,45c-.12.24-.23.46-.54.47-.09,0-.1.1-.15.15-.39.08-.8.1-1.19.21a4.07,4.07,0,0,0-.58.22.37.37,0,0,0-.22.52l0,0a2.58,2.58,0,0,0-1.07.84s0,.08,0,.12h0c-.15,0-.21.09-.27.19h0a.23.23,0,0,0-.1.14.48.48,0,0,1-.09.11,13.44,13.44,0,0,0-2.16,2.53c-.29.43-.55.89-.82,1.34L71.4,54.45s0,.06,0,.08-.15.15-.27.07-.19-.09-.23-.2a2.48,2.48,0,0,0-.17-.32,4.28,4.28,0,0,0,.15-1.43c0-.21,0-.42,0-.63A.67.67,0,0,0,71,51.7c0-.27,0-.53.07-.8a.85.85,0,0,0,0-.22C71,50.48,70.91,50.29,70.85,50.09Z"/><path class="cls-3" d="M20,33.73c.13.64.26,1.29.4,1.93,0,.1,0,.15-.11.16a.88.88,0,0,1-.36,0,5.41,5.41,0,0,0-1.79-.14,1.92,1.92,0,0,0-.81.25,4.18,4.18,0,0,0-.89.62c-.36.33-.64.72-1,1.07-.1.12-.16.29-.25.42A8.5,8.5,0,0,0,14,40.69a3.28,3.28,0,0,0-.13.75,7,7,0,0,0-.11.89.28.28,0,0,1-.11.24s-.12.08-.12.12c0,.3-.27.32-.45.34a9.76,9.76,0,0,1-1.07.13A8.45,8.45,0,0,1,10.71,43a11,11,0,0,0-1.6-.23c-.15-.13-.35-.07-.52-.11a5.07,5.07,0,0,0-1.34-.16,3.44,3.44,0,0,1-.45-.05,1.66,1.66,0,0,0-.8,0,3.38,3.38,0,0,0-1.37.67A.62.62,0,0,1,4,43.3l-.16,0A.3.3,0,0,0,3.76,43c-.08-.08-.16-.17-.25-.25A1.4,1.4,0,0,1,3,41.61a1.65,1.65,0,0,1,.68-1.31c.32-.25.67-.46,1-.7a.7.7,0,0,1,.46-.16.25.25,0,0,0,.24-.09h.37l.62-.08a2.17,2.17,0,0,0,.67-.05.86.86,0,0,1,.57,0,.56.56,0,0,0,.44,0,.1.1,0,0,0,0-.07s0,0-.06,0l-1.17,0-.58,0c-.5,0-1,0-1.49,0a7.44,7.44,0,0,1-1.72-.26c-.08-.12,0-.19,0-.27s.12-.21.16-.32A1.86,1.86,0,0,1,4,37.41a7.12,7.12,0,0,1,2.52-.94c.15,0,.3,0,.44-.09a3,3,0,0,1,.57-.14,1.65,1.65,0,0,1,.5.17,1.05,1.05,0,0,0,.5,0L10.88,36a6.4,6.4,0,0,0,1.7-.56,1.57,1.57,0,0,1,1-.18,2.19,2.19,0,0,0,1.35-.2A24.15,24.15,0,0,0,17.18,34a6,6,0,0,1,1.2-.5,5.6,5.6,0,0,0,.81-.3.7.7,0,0,1,.29-.09c.14,0,.12-.1.13-.18s.13,0,.15.06A3.7,3.7,0,0,1,20,33.73Z"/><path class="cls-4" d="M68.82,98.1a.85.85,0,0,1-.22,0c-.43-.16-.86-.36-1.3-.48a4.52,4.52,0,0,1-1.55-.89c-.74-.62-1.5-1.21-2.25-1.81a2.83,2.83,0,0,1-.62-.71A16.19,16.19,0,0,1,62,92.59a5.93,5.93,0,0,1-.32-.83l0,0,0-.06h0c0-.23,0-.45,0-.68s0-.39-.23-.51a.89.89,0,0,1,0-.46.93.93,0,0,0,.16-.54c0-.34-.08-.67-.12-1,0,0,0,0,0-.07a6,6,0,0,1,.22-.91c.08-.33.18-.66.27-1,.05,0,.13,0,.15-.09a2.85,2.85,0,0,0,.31-.6,7.81,7.81,0,0,1,.48-1.21c.24-.52.47-1,.7-1.56a.12.12,0,0,0,0-.16.29.29,0,0,1,.17-.19.2.2,0,0,0,.1-.22h0l.11-.07a1.56,1.56,0,0,1,.16-.2.3.3,0,0,0,.09-.24h0c.18,0,.2-.07.19-.28h0c.17,0,.18-.07.18-.28h0c.06,0,.09,0,.09-.09h0c.1,0,.12-.09.1-.18h0a.16.16,0,0,0,.19-.09c.37-.57.79-1.1,1.12-1.69a.72.72,0,0,0,.08-.72.28.28,0,0,1,0-.3c.08-.11.15-.22.24-.33a.17.17,0,0,1,.23-.08.35.35,0,0,0,.42-.17,2.86,2.86,0,0,0,.36-.52,4.67,4.67,0,0,1,1-1.31l.49-.46a1.69,1.69,0,0,0,.53-.92c0-.1.1-.15.17-.21a.33.33,0,0,0,.24-.1l.43-.31c.1.14,0,.23,0,.31-.29.5-.59,1-.87,1.48-.44.74-.86,1.48-1.29,2.23l-.38.67a26.41,26.41,0,0,0-1.27,2.69c-.15.33-.31.65-.45,1s-.35.89-.51,1.35c-.35,1-.69,2-1,3-.12.38-.18.79-.27,1.18A7.39,7.39,0,0,0,64,89.78a4.78,4.78,0,0,0,.08.76c0,.28.1.56.13.85a6.09,6.09,0,0,0,.47,1.36,6.7,6.7,0,0,0,2,2.71,7.81,7.81,0,0,0,1.83,1.15,10.13,10.13,0,0,0,1.88.63,17.73,17.73,0,0,0,1.91.33,13.07,13.07,0,0,0,1.53.08l.27,0a.22.22,0,0,1,.19.26v.36c0,.19,0,.24-.25.28a11.43,11.43,0,0,1-1.43.08c-.11,0-.21,0-.22.16l-.26,0a5.2,5.2,0,0,0-1-.16,3.67,3.67,0,0,1-.43-.09,6.21,6.21,0,0,0-1.19-.34A1.7,1.7,0,0,0,68.82,98.1Z"/><path class="cls-1" d="M61.55,8.31a.76.76,0,0,1-.15-.79A4.21,4.21,0,0,0,61.52,7a1.11,1.11,0,0,1,.26-.52A1.17,1.17,0,0,0,62,6.14a8.2,8.2,0,0,1,2.12-2.83,8.52,8.52,0,0,1,3.43-1.83,10.15,10.15,0,0,1,2.9-.34,2.48,2.48,0,0,1,.27,0,.47.47,0,0,0,.05.26,2.34,2.34,0,0,1,.31,1.24c0,.23,0,.46,0,.68a5.47,5.47,0,0,1-.19,1.56,2.85,2.85,0,0,1-.33.88c-.27.41-.54.83-.8,1.25a3.87,3.87,0,0,1-.81.9,2.22,2.22,0,0,1-1.06.56,2,2,0,0,1-.26-.06c-.47-.16-.93-.34-1.39-.51a3.72,3.72,0,0,0-1.57-.36,1.78,1.78,0,0,0-.63-.2c-.06,0-.13,0-.16,0s0,.12,0,.16.19.23.29.34.11,0,.17,0a.54.54,0,0,0,.14.36A4.54,4.54,0,0,1,65,9.1a.76.76,0,0,1,0,.77l-.47-.2a.56.56,0,0,0-.33-.08.93.93,0,0,1-.37-.15,13.52,13.52,0,0,0-2.14-1.1A.51.51,0,0,0,61.55,8.31Z"/><path class="cls-3" d="M51.14,46.26a8,8,0,0,1-2,.25,1.57,1.57,0,0,1-.53-.06.56.56,0,0,0-.22,0,8.46,8.46,0,0,1-1.51-.22l-.27-.06a2.9,2.9,0,0,1-.85-.27l-1-.46a10,10,0,0,1-1.51-.9,3,3,0,0,1-.27-.23c-.17-.16-.34-.3-.51-.45a5,5,0,0,1-.55-.65s-.06-.11-.1-.15a5.25,5.25,0,0,1-1.05-1.87,6.11,6.11,0,0,1-.44-1.33,7.39,7.39,0,0,1-.15-1.15c0-.25,0-.49,0-.73s0-.59.07-.89.13-.86.21-1.29a.77.77,0,0,1,.11-.38,2.22,2.22,0,0,0,.33-.92c0-.07,0-.14.11-.19a.69.69,0,0,1,.09.34.56.56,0,0,0,.17.36c.1.08.1.22.14.33.2.6.38,1.2.58,1.8.12.36.25.71.37,1.07,0,0,0,.06,0,.09.26.64.52,1.28.73,1.94a.72.72,0,0,0,.2.29l1.06.85c.43.35.87.7,1.29,1.06a1.13,1.13,0,0,0,.5.28c.55.16,1.11.29,1.65.48a9.75,9.75,0,0,0,2.4.36l1.12.09c.1,0,.17.05.17.16s.1.24.24.29.1.06.15.1a10.24,10.24,0,0,0-.2,1.56c0,.05,0,.1,0,.14C51.57,46.18,51.5,46.24,51.14,46.26Z"/><path class="cls-4" d="M61.55,8.31a.51.51,0,0,1,.17,0,13.52,13.52,0,0,1,2.14,1.1.93.93,0,0,0,.37.15.26.26,0,0,0,.15.25c.22.11.39.32.64.37a.08.08,0,0,0,.08-.09A2.33,2.33,0,0,0,65,9.87a.76.76,0,0,0,0-.77,4.54,4.54,0,0,0-.49-.79A.54.54,0,0,1,64.4,8a.34.34,0,0,1,.14-.17.32.32,0,0,0,.15-.21,3.72,3.72,0,0,1,1.57.36c.46.17.92.35,1.39.51a2,2,0,0,0,.26.06l1.49,1.62a2.42,2.42,0,0,1,.25.31l.74,1.12a.31.31,0,0,1,.07.29.51.51,0,0,1-.29-.1,12,12,0,0,0-2-.8c-.51-.17-1-.32-1.55-.48a1.66,1.66,0,0,1-.61-.27.64.64,0,0,0-.57-.13,1.71,1.71,0,0,0,.64.91,1.25,1.25,0,0,1,.27.24c.25.31.48.62.72.93a.08.08,0,0,1,0,.08s-.07,0-.12,0l-.88-.35a18.06,18.06,0,0,0-2.19-.71,7.51,7.51,0,0,0-1.77-.28,1.67,1.67,0,0,1-.31-.05,1.35,1.35,0,0,0-.49,0,.1.1,0,0,0-.07.14.69.69,0,0,0,.29.34.8.8,0,0,0,.16.08,3,3,0,0,1,1.19.94.76.76,0,0,1,.11.14.14.14,0,0,1-.11.23,1.15,1.15,0,0,1-.32,0,11.28,11.28,0,0,0-2.46-.17,6,6,0,0,0-1.12.11,2.07,2.07,0,0,1-.49.07.48.48,0,0,0-.26.07.16.16,0,0,0,0,.26c.1.07.21.12.31.18s.08.16,0,.2a.53.53,0,0,1-.18,0,1.39,1.39,0,0,0-.51-.27c-.3-.09-.45-.49-.75-.59-.46-.15-1-.25-1.45-.42a5.42,5.42,0,0,0-1.33-.2c-.22,0-.43-.22-.65-.26s-.42.09-.26-.1a1.14,1.14,0,0,1,.16-.15.56.56,0,0,0,.22-.28.39.39,0,0,1,.33-.27,8.29,8.29,0,0,1,2.21-.35,6.91,6.91,0,0,0,.91,0,6.88,6.88,0,0,1,1.56.2,1,1,0,0,0,.48,0c.69-.24.5-.23,1.14.07a.89.89,0,0,0,.47.14s0,.07.08,0l0-.06a.41.41,0,0,0-.21-.27A11.64,11.64,0,0,0,58,9.05a5.51,5.51,0,0,1-.66-.29,4.74,4.74,0,0,1-.6-.39s0-.11,0-.11c.27,0,.46-.28.76-.24A3.87,3.87,0,0,0,58,8a.53.53,0,0,0,.42-.11.47.47,0,0,1,.31,0,3.83,3.83,0,0,1,.67.08,14.82,14.82,0,0,1,1.86.34A1.18,1.18,0,0,0,61.55,8.31Z"/><path class="cls-4" d="M4,43.3a.62.62,0,0,0,.62-.16A3.38,3.38,0,0,1,6,42.47a1.66,1.66,0,0,1,.8,0,3.44,3.44,0,0,0,.45.05,5.07,5.07,0,0,1,1.34.16c.17,0,.37,0,.52.11a.59.59,0,0,1-.45.18,2.41,2.41,0,0,0-1.82,1,1.29,1.29,0,0,0-.27.71.68.68,0,0,0,.16.55,1.9,1.9,0,0,0,.53.49,5.89,5.89,0,0,0,1.36.59,10.1,10.1,0,0,0,2.68.34c.32,0,.63,0,.95,0,.48,0,1-.09,1.43-.15s.86-.14,1.29-.19a10.08,10.08,0,0,0,1.81-.4,15.44,15.44,0,0,0,2.75-1c.2-.1.41-.18.62-.27a19.48,19.48,0,0,0,2.05-1.14,2.15,2.15,0,0,1,.48-.24c.26-.09.39,0,.32.29a3.09,3.09,0,0,1-.14.43c-.21.22-.43.42-.61.65a5.4,5.4,0,0,1-1,1L19.47,47c-.13.11-.27.2-.4.3a.79.79,0,0,0-.48,0,9.85,9.85,0,0,0-1.93.61,3.37,3.37,0,0,1-1.32.25H11.41a2.61,2.61,0,0,0-.68.06,1.34,1.34,0,0,1-.49,0L8.68,48,8.32,48a3.16,3.16,0,0,1-.91-.2,4.32,4.32,0,0,0-.8-.14,5.41,5.41,0,0,0-.89-.11.64.64,0,0,1-.49-.28c-.37-.47-.76-.93-1.12-1.42a2,2,0,0,1-.4-.75,1.09,1.09,0,0,1,0-.62A7.57,7.57,0,0,1,4,43.3Z"/><path class="cls-3" d="M64.67,68.53a1,1,0,0,0,.82.06,3.2,3.2,0,0,0,1.3-.59,2.29,2.29,0,0,0,.23-.21,9.23,9.23,0,0,0,1.24-2.18,2,2,0,0,0,.1-.44,1.05,1.05,0,0,1,.12-.38c.2,0,0-.88.18-.9s0-.2.14-.37.69.76.61.64-.12-.13-.18-.2a.34.34,0,0,1-.13-.23h.38a.08.08,0,0,0,.08,0,1.45,1.45,0,0,0,.14.46c0,.06.07.11.13.11h0a.53.53,0,0,0,.19.46h0v0s0,0,0,0a.14.14,0,0,0,0,.06.7.7,0,0,0,.14.37c.16.27.33.54.5.8a4.47,4.47,0,0,0,1.38,1.39.77.77,0,0,0,.24.12,5,5,0,0,0,2.35,0l1.06-.1a3.37,3.37,0,0,0,1.09-.28A3.18,3.18,0,0,0,78,67.15l.52.77a.9.9,0,0,1,.17.3,1.07,1.07,0,0,1-.57-.33c-.09-.07-.17-.17-.27-.24a.09.09,0,0,0-.15,0,3,3,0,0,0-.17.41,2.1,2.1,0,0,1-.45.83,2.63,2.63,0,0,1-1.17,1,5.26,5.26,0,0,1-1.62.34,6.51,6.51,0,0,1-2.59-.52A9.34,9.34,0,0,1,70,68.84a2.29,2.29,0,0,1-.51-.37,1.25,1.25,0,0,0-.22-.16c-.14-.08-.22-.07-.31,0s-.31.37-.45.57a3.59,3.59,0,0,1-.91.87,8.44,8.44,0,0,1-1,.58,4.29,4.29,0,0,1-1.68.49c-.13,0-.25.1-.39.06a7.52,7.52,0,0,1-1.24-.23,3,3,0,0,1-1.53-1.27.47.47,0,0,1-.07-.43.61.61,0,0,0,.35.06,7.23,7.23,0,0,0,2.21-.39Z"/><path class="cls-5" d="M73.61,93.06a3.47,3.47,0,0,0-.72,0h-.23c-.14,0-.19,0-.2-.19a5.81,5.81,0,0,1,0-.59,1.53,1.53,0,0,0-.28-1,.2.2,0,0,1,0-.31.28.28,0,0,0,.11-.32l0,0a.14.14,0,0,0,.19-.13,2.28,2.28,0,0,0,.88-.75,1.14,1.14,0,0,0,.44-.37.47.47,0,0,1,.07-.12,10.56,10.56,0,0,1,.93-.68,5.7,5.7,0,0,0,.75-.54,1.1,1.1,0,0,0,.61-.14,4.61,4.61,0,0,0,.77-.46,1.89,1.89,0,0,1,1.2-.33,1.64,1.64,0,0,1,1,.47,2.14,2.14,0,0,1,.62,1.5c0,.47,0,.45.43.76a4.87,4.87,0,0,1,.52.37,1.62,1.62,0,0,1,.63,1.1,3.82,3.82,0,0,1,0,1.39.62.62,0,0,1-.17.32,6.44,6.44,0,0,1-1.11,1c-.2.12-.4.22-.6.32A1.59,1.59,0,0,0,78.7,93a1.52,1.52,0,0,0-.58-.26.28.28,0,0,0-.15-.15,2,2,0,0,0-1.52-.14,12.65,12.65,0,0,1-2.58.5.23.23,0,0,0-.25.1Z"/><path class="cls-3" d="M70.46,11.84a.31.31,0,0,0-.07-.29l-.74-1.12a2.42,2.42,0,0,0-.25-.31L67.91,8.5A2.22,2.22,0,0,0,69,7.94a3.87,3.87,0,0,0,.81-.9c.26-.42.53-.84.8-1.25a2.85,2.85,0,0,0,.33-.88,5.47,5.47,0,0,0,.19-1.56c0-.22,0-.45,0-.68a2.34,2.34,0,0,0-.31-1.24.47.47,0,0,1-.05-.26c.48,0,1,0,1.44,0a2.7,2.7,0,0,1,1.27.42c.66.39,1.3.81,1.94,1.23a1.77,1.77,0,0,1,.52.5c0,.06.1.16.15.16.32,0,.4.27.56.45l.15.17a.32.32,0,0,1-.17.42,8.52,8.52,0,0,0-1.7,1.16,9.28,9.28,0,0,0-.71.69c-.2.25-.41.48-.62.72a1.92,1.92,0,0,0-.51.79,3.11,3.11,0,0,1-.51.93,2.07,2.07,0,0,0-.19.25,13.85,13.85,0,0,0-.63,1.49c-.11.38-.25.74-.37,1.11H71.2c0-.1-.07-.22-.2-.2s-.09.14-.13.21a1.11,1.11,0,0,0-.07.26h-.17a.15.15,0,0,0-.17-.08Z"/><path class="cls-4" d="M48.94,135c.25.24.49.48.73.73a.3.3,0,0,1,.11.32.25.25,0,0,1-.31.12c-.47-.12-1,0-1.44-.14l-.13,0a14.06,14.06,0,0,1-1.71-.13c-.73-.07-1.47-.06-2.21-.07-.19,0-.39,0-.58,0a6.4,6.4,0,0,0-2.67.56,4.88,4.88,0,0,0-1.9,1.41,6.64,6.64,0,0,0-1.2,2.35,16,16,0,0,0-.36,1.67.28.28,0,0,0,0,.09c0,.64-.12,1.26-.1,1.9a1,1,0,0,1-.17.71.6.6,0,0,0-.27,0,.46.46,0,0,1-.63-.16,1.33,1.33,0,0,0-.52-.42.25.25,0,0,1-.13-.22,6,6,0,0,1,.05-1,.55.55,0,0,0,0-.18c0-.62.1-1.23.11-1.85a5.9,5.9,0,0,1,.33-1.81c.15-.47.27-1,.4-1.43a1.43,1.43,0,0,1,.36-.66,5.51,5.51,0,0,0,.6-.68,2.69,2.69,0,0,0,.31-.55.58.58,0,0,1,.39-.34L41.79,134a1.51,1.51,0,0,1,.76,0l2.57.5,2.13.39c.43.08.85.17,1.28.24C48.67,135.12,48.83,135.18,48.94,135Z"/><path class="cls-4" d="M51.84,44.17c-.05,0-.09-.09-.15-.1s-.24-.12-.24-.29-.07-.15-.17-.16l-1.12-.09a9.75,9.75,0,0,1-2.4-.36c-.54-.19-1.1-.32-1.65-.48a1.13,1.13,0,0,1-.5-.28c-.42-.36-.86-.71-1.29-1.06l-1.06-.85a.72.72,0,0,1-.2-.29c-.21-.66-.47-1.3-.73-1.94,0,0,0-.06,0-.09a.2.2,0,0,0,.09-.15v-.36a.32.32,0,0,1,.17-.3,3,3,0,0,0,.87-.63.51.51,0,0,1,.24-.1l2-.51c.17,0,.21,0,.24.16a3.61,3.61,0,0,0,.25.72c.11.28.11.28-.13.42l-.12.07c-.13.09-.11.22.06.29h.09a2,2,0,0,1,.2.78,3.24,3.24,0,0,0,.36,1.1,3.93,3.93,0,0,0,1.65,1.63,7.94,7.94,0,0,0,1,.45,14.41,14.41,0,0,0,2.68.76c.69.14,1.38.25,2.08.34a.82.82,0,0,0,.56-.12,1.08,1.08,0,0,1,.42-.13,1.31,1.31,0,0,0,.78-.31c.07-.06.14-.13.23-.12a2,2,0,0,0,1-.31c.13,0,.27-.09.2-.29,0,0,0-.1.1-.13l.69-.33.94-.44c.2-.09.2-.09.41.11-.22,0-.32.21-.45.36a2.31,2.31,0,0,1-.54.54,4.07,4.07,0,0,1-1.16.58,3.05,3.05,0,0,0-.9.41,4.38,4.38,0,0,1-1.32.56,6.57,6.57,0,0,0-1.53.52A4.5,4.5,0,0,1,51.84,44.17Z"/><path class="cls-4" d="M71.36,11.66c.12-.37.26-.73.37-1.11a13.85,13.85,0,0,1,.63-1.49,2.07,2.07,0,0,1,.19-.25,3.11,3.11,0,0,0,.51-.93,1.92,1.92,0,0,1,.51-.79c.21-.24.42-.47.62-.72a9.28,9.28,0,0,1,.71-.69,8.52,8.52,0,0,1,1.7-1.16.32.32,0,0,0,.17-.42,6.43,6.43,0,0,1,1.55-.46A12.31,12.31,0,0,1,81,3.53c-.11.11-.22.05-.32.08l-.26.08a.25.25,0,0,0-.16.14L80.12,4c.16,0,.31,0,.45,0a1.36,1.36,0,0,1,.53.11.61.61,0,0,1,.41.64,1.25,1.25,0,0,1-.7,1.08,2.84,2.84,0,0,1-1,.33A6.52,6.52,0,0,0,76.63,7.7a8.52,8.52,0,0,0-1.7,2.08L73.66,12a1.7,1.7,0,0,1-1,.8,1,1,0,0,1-1.15-.49.62.62,0,0,1-.09-.3C71.37,11.87,71.36,11.77,71.36,11.66Z"/><path class="cls-2" d="M46,56c-.12-.12-.23-.24-.35-.35a.52.52,0,0,1-.19-.38.43.43,0,0,0-.05-.38c-.17-.33-.32-.66-.5-1a.29.29,0,0,1,.05-.39l.2-.1a.43.43,0,0,1,.47,0c.52.32,1.06.63,1.57,1a8.39,8.39,0,0,0,2.07,1c1.55.5,3.08,1,4.62,1.55a1.26,1.26,0,0,0,.47.17l1.25.48a1.32,1.32,0,0,0,.43.12A5,5,0,0,1,56.17,59a1.87,1.87,0,0,1-.78,1.4.34.34,0,0,1-.17.05l-.18,0a25.26,25.26,0,0,1-3.29-1.07l-1.36-.56a2.12,2.12,0,0,0-.74-.36h0c0-.09-.1-.1-.19-.09h0c0-.06,0-.07-.09-.07l-.09,0h0c0-.07,0-.08-.1-.09h0a.29.29,0,0,0-.21-.11l-.57-.36A20.82,20.82,0,0,1,46,56Z"/><path class="cls-3" d="M56.88,25.33a.47.47,0,0,1,.38.49A4.24,4.24,0,0,1,57,27.28c-.13.35-.22.71-.38,1a5.57,5.57,0,0,1-.81,1.3,5.86,5.86,0,0,1-1.74,1.55,5.15,5.15,0,0,1-1.46.59c-.11,0-.23.07-.34.1a8.15,8.15,0,0,1-.83.17,11.13,11.13,0,0,0-1.16.14.34.34,0,0,1-.37-.09.47.47,0,0,0-.31-.16.3.3,0,0,0-.41.05l-.48.49c-.08.09-.15.18-.24.27s-.08.09-.15.06a.1.1,0,0,1,0-.12c0-.21,0-.42,0-.63v0a.33.33,0,0,1,.14-.27l.45-.38a.89.89,0,0,0,.29-1.05l-.2-.51a1.12,1.12,0,0,1,.6-.19l1.45-.11a2.7,2.7,0,0,0,.83-.19,10.65,10.65,0,0,0,1.25-.53,10.45,10.45,0,0,0,1.06-.83l1.06-.86.17-.15C55.93,26.41,56.43,25.89,56.88,25.33Z"/><path class="cls-6" d="M20,33.73a3.7,3.7,0,0,0-.21-.72c0-.07-.09-.06-.15-.06a3,3,0,0,0-.17-1,.79.79,0,0,1,0-.22,12.08,12.08,0,0,1,.08-1.9,2.26,2.26,0,0,1,.34-.87,2.44,2.44,0,0,0,.26-.57,2.73,2.73,0,0,1,1.06-1.53.7.7,0,0,0,.2-.18,2.44,2.44,0,0,1,.95-.6L23,25.8a1.63,1.63,0,0,1,.62-.12c.4,0,.81,0,1.22,0a1.49,1.49,0,0,1,1.28.72c0,.06.08.14.14.17.27.14.28.36.19.61a.28.28,0,0,0,0,.09c-.14.28-.43.32-.68.38a6,6,0,0,1-.85.11,5,5,0,0,0-2.65.86,4,4,0,0,0-.87.91A7.15,7.15,0,0,0,20.22,32a1.52,1.52,0,0,0-.17,1v.58A.22.22,0,0,1,20,33.73Z"/><path class="cls-1" d="M5.4,39.35a.25.25,0,0,1-.24.09.7.7,0,0,0-.46.16c-.32.24-.67.45-1,.7A1.65,1.65,0,0,0,3,41.61a1.4,1.4,0,0,0,.48,1.17c.09.08.17.17.25.25a.3.3,0,0,1,.09.25c-.15.36-.29.73-.44,1.09-.06.15-.11.16-.24.14l-.71-.15c-.25-.06-.45-.18-.43-.49,0-.08,0-.13-.1-.18s-.27-.19-.4-.3a1.76,1.76,0,0,1-.6-1.32v-.5a1.88,1.88,0,0,1,.5-1.18,2.91,2.91,0,0,1,1.46-.86,3.12,3.12,0,0,1,.53-.11,12.68,12.68,0,0,1,1.85-.11A.38.38,0,0,1,5.4,39.35Z"/><path class="cls-7" d="M84.34,3.92a.23.23,0,0,1-.18,0,7.5,7.5,0,0,0-2-.24.83.83,0,0,1-.22,0s-.09,0-.08-.09,0,0,.06,0H82c.39,0,.78,0,1.17,0a2.73,2.73,0,0,1,1.08.3S84.31,3.88,84.34,3.92Z"/><path class="cls-6" d="M6.3,39.09l.58,0,1.17,0s.06,0,.06,0a.1.1,0,0,1,0,.07.56.56,0,0,1-.44,0,.86.86,0,0,0-.57,0,2.17,2.17,0,0,1-.67.05Z"/><path class="cls-7" d="M44,139.82a.55.55,0,0,1,.26-.37l0,0a.44.44,0,0,1-.12.34Z"/><path class="cls-1" d="M5.77,39.35H5.54A.19.19,0,0,1,5.77,39.35Z"/><path class="cls-5" d="M38.86,50.69s-.07,0-.06,0,.06,0,.08,0Z"/><path class="cls-5" d="M78.8,68.32a.17.17,0,0,1-.1-.1A.12.12,0,0,1,78.8,68.32Z"/><path class="cls-8" d="M55.22,60.46a.34.34,0,0,0,.17-.05,1.87,1.87,0,0,0,.78-1.4A5,5,0,0,0,56,57.68a.83.83,0,0,1,.56-.09c.55.07,1.1.12,1.64.17a.2.2,0,0,0,.08,0l1.73.18.4.05c.5.07.44,0,.52.44,0,.15.07.29.1.43a.55.55,0,0,0,0,.26.79.79,0,0,1,0,.48l-1,1.37a.4.4,0,0,1-.29.18.24.24,0,0,0-.24.08l-.16.21s-.08-.1-.13-.11c-.44-.11-.89-.2-1.34-.29-.15,0-.18,0-.24.13s0,.24-.13.33l-.52,0a8.63,8.63,0,0,0-1.12-.16h0a.19.19,0,0,0-.19-.09s0-.1,0-.1.3,0,.44,0,.21,0,.29-.05,0-.13-.23-.22A9.22,9.22,0,0,1,55.22,60.46Z"/><path class="cls-9" d="M55.22,60.46a9.22,9.22,0,0,0,1,.44c.2.09.28.16.23.22s-.19.05-.29.05-.29,0-.44,0,0,.06,0,.1v.08A10.11,10.11,0,0,1,54.37,61a20.28,20.28,0,0,1-2.93-1l-.57-.26c-.15-.07-.15-.09-.09-.28s.06-.21-.12-.32l-.38-.24.11-.08,1.36.56A25.26,25.26,0,0,0,55,60.44Zm-.81.09s0-.07,0-.08-.37-.13-.34,0,.17.15.29.17S54.39,60.57,54.41,60.55Z"/><path class="cls-10" d="M73.61,93.06h0a.31.31,0,0,0,.25-.1,12.65,12.65,0,0,0,2.58-.5,2,2,0,0,1,1.52.14.28.28,0,0,1,.15.15,10.73,10.73,0,0,0-2.19.12,1.7,1.7,0,0,0-.31.06,8.46,8.46,0,0,1-1.81.31l-.35,0v-.15Z"/><path class="cls-9" d="M64.67,68.53l-.39.13a7.23,7.23,0,0,1-2.21.39.61.61,0,0,1-.35-.06c0-.19.18-.34.13-.55a6.09,6.09,0,0,0,2.62,0C64.57,68.39,64.65,68.41,64.67,68.53Z"/><path class="cls-10" d="M73.42,89.78a2.28,2.28,0,0,1-.88.75c-.08,0-.16,0-.19.13l0,0c-.07,0-.16,0-.2.09a1,1,0,0,1-.85.3h0a1,1,0,0,1,.17-.14c.6-.39,1.2-.76,1.8-1.14Z"/><path class="cls-11" d="M59.37,61.48l.16-.21a.24.24,0,0,1,.24-.08c-.15.37-.29.74-.43,1.11A2.82,2.82,0,0,1,59.37,61.48Z"/><path class="cls-12" d="M55.89,61.35a8.63,8.63,0,0,1,1.12.16l-.11.08A3.11,3.11,0,0,1,55.89,61.35Z"/><path class="cls-6" d="M73.45,93.13v.15a1.6,1.6,0,0,1-.7.07A1.25,1.25,0,0,1,73.45,93.13Z"/><path class="cls-11" d="M50.39,58.81l-.11.08-.55-.3s-.1-.07-.08-.14A2.12,2.12,0,0,1,50.39,58.81Z"/><path class="cls-12" d="M60.06,67.25a1.57,1.57,0,0,1,.45.44C60.17,67.65,60.14,67.62,60.06,67.25Z"/><path class="cls-7" d="M73.42,89.78l-.17,0a.89.89,0,0,1,.61-.35A1.14,1.14,0,0,1,73.42,89.78Z"/><path class="cls-11" d="M56.9,61.59l.11-.08.52,0c0,.08,0,.16-.12.15Z"/><path class="cls-10" d="M71.28,91l0,.06h0l.08,0Z"/><path class="cls-12" d="M49,58.08a.29.29,0,0,1,.21.11A.25.25,0,0,1,49,58.08Z"/><path class="cls-11" d="M49.46,58.36c.09,0,.16,0,.19.09S49.49,58.46,49.46,58.36Z"/><path class="cls-12" d="M55.71,61.34v-.08a.19.19,0,0,1,.19.09Z"/><path class="cls-11" d="M49.38,58.29s.09,0,.09.07l-.09,0Z"/><path class="cls-12" d="M49.38,58.29v.05a.09.09,0,0,1-.09-.07Z"/><path class="cls-12" d="M49.19,58.18c.05,0,.1,0,.1.09A.11.11,0,0,1,49.19,58.18Z"/><path class="cls-12" d="M60.51,67.68a.17.17,0,0,1,.12.1C60.57,67.77,60.51,67.76,60.51,67.68Z"/><path class="cls-13" d="M58.4,29a5.31,5.31,0,0,1,.25-1.87,7,7,0,0,1,.71-1.85c.23-.41.43-.83.64-1.24,0-.09.12-.17.12-.25a.66.66,0,0,1,.29-.48,6.35,6.35,0,0,1,1.81-1.18,3.77,3.77,0,0,1,1.23-.27,1.71,1.71,0,0,1,.45,0A2.38,2.38,0,0,1,65.49,23a4.31,4.31,0,0,1,.55,1.7,6.37,6.37,0,0,1-.39,2.84,8.81,8.81,0,0,1-1.88,3.17l-.39.37a2.57,2.57,0,0,1-1,.61c-.43.13-.85.3-1.27.46a.61.61,0,0,1-.4,0c-.42-.11-.84-.22-1.27-.31a.45.45,0,0,1-.31-.24c-.2-.39-.41-.77-.62-1.15a1,1,0,0,1-.12-.48C58.4,29.7,58.4,29.41,58.4,29Z"/><path class="cls-2" d="M57.37,46.94a2,2,0,0,1-.47.87,2.23,2.23,0,0,0-.19.24l-.09.09h0c-.06,0-.12.08-.1.18h0a.09.09,0,0,0-.1.1h0a.1.1,0,0,0-.1.1h0c-.08,0-.16.12-.24.12a.58.58,0,0,0-.44.28l-.35.4a9.18,9.18,0,0,1-1.1,1.06,3.05,3.05,0,0,1-2,.72c-.11,0-.21,0-.32,0a1.47,1.47,0,0,1-1-1.29c-.06-.32,0-.65-.09-1a6,6,0,0,0,.11-1,1,1,0,0,0,.07-.15l.18-.85a1.05,1.05,0,0,1,.63-.48,3.22,3.22,0,0,1,.61-.16,2.15,2.15,0,0,0,.44-.09,2.51,2.51,0,0,1,.67-.08,13,13,0,0,1,2.25.1,7,7,0,0,1,1,.16A.71.71,0,0,1,57.37,46.94Z"/><path class="cls-13" d="M57.37,46.94a.71.71,0,0,0-.58-.71,7,7,0,0,0-1-.16,13,13,0,0,0-2.25-.1,2.51,2.51,0,0,0-.67.08,2.15,2.15,0,0,1-.44.09,3.22,3.22,0,0,0-.61.16,1.05,1.05,0,0,0-.63.48h-.12l.09-.53c.36,0,.43-.08.49-.39,0,0,0-.09,0-.14a10.24,10.24,0,0,1,.2-1.56,4.5,4.5,0,0,0,1.6-.41A6.57,6.57,0,0,1,55,43.24a4.38,4.38,0,0,0,1.32-.56,3.05,3.05,0,0,1,.9-.41,4.07,4.07,0,0,0,1.16-.58,2.31,2.31,0,0,0,.54-.54c.13-.15.23-.32.45-.36.13.15.25.3.39.44a.33.33,0,0,1,.05.41c-.32.85-.66,1.68-1.05,2.5s-.72,1.55-1.09,2.33C57.56,46.63,57.46,46.78,57.37,46.94Z"/><path class="cls-3" d="M81.59,14.48a2.39,2.39,0,0,0-.16.32,1.73,1.73,0,0,1-.53.77c-.41.4-.81.81-1.21,1.21l-.23.22c-.1.09-.16.09-.27,0l0,0a1.71,1.71,0,0,0-.88-.51,1.27,1.27,0,0,0-.88,0l-.39.12a.08.08,0,0,1-.11-.09c0-.12.07-.24.11-.35.26-.59.52-1.18.79-1.76a13.31,13.31,0,0,1,1.46-2.32,7,7,0,0,1,1-1c.34-.27.68-.55,1-.8a4.52,4.52,0,0,1,1.28-.73,2.15,2.15,0,0,1,.09.44c0,.51,0,1,0,1.53a2.7,2.7,0,0,1-.33,1.24,14.57,14.57,0,0,0-.59,1.5,1.1,1.1,0,0,0,0,.18h0C81.62,14.38,81.61,14.43,81.59,14.48Z"/><path class="cls-9" d="M65.58,45.52c-.06.12-.06.23.07.3a1.83,1.83,0,0,0,.28.14.57.57,0,0,1,.25.11c0,.08-.05,0-.08.06l-.13,0a4.29,4.29,0,0,0-1.6.72,6.63,6.63,0,0,0-1.82,1.8,7.56,7.56,0,0,0-1,2A14.22,14.22,0,0,0,61,54.25a5,5,0,0,0-.05,1,.6.6,0,0,0,0-.38,2.43,2.43,0,0,1-.09-1.07c.11-1,.23-1.91.35-2.87a1.05,1.05,0,0,1,.12-.38c.47-1,1-2,1.41-3.07a1.1,1.1,0,0,1,.41-.47c.61-.38,1.21-.78,1.81-1.17l.44-.31A.21.21,0,0,1,65.58,45.52Z"/><path class="cls-9" d="M51.92,51.09c.11,0,.21,0,.32,0a3.05,3.05,0,0,0,2-.72,9.18,9.18,0,0,0,1.1-1.06l.35-.4a.58.58,0,0,1,.44-.28c.08,0,.16-.08.24-.12a.34.34,0,0,1-.11.29A8.47,8.47,0,0,1,53.85,51a4.58,4.58,0,0,1-1.39.52c-.17,0-.19,0-.27-.15S52,51.19,51.92,51.09Z"/><path class="cls-10" d="M81.68,14.38a1.1,1.1,0,0,1,0-.18,14.57,14.57,0,0,1,.59-1.5,2.7,2.7,0,0,0,.33-1.24c0-.51,0-1,0-1.53a2.15,2.15,0,0,0-.09-.44l0,0c.34-.26.42-.13.43.19a8.09,8.09,0,0,1-.25,2.14A8.47,8.47,0,0,1,81.68,14.38Z"/><path class="cls-10" d="M58.24,57.76c-.54,0-1.09-.1-1.64-.17a.83.83,0,0,0-.56.09,1.32,1.32,0,0,1-.43-.12l-1.25-.48V57c.42,0,.82.15,1.24.21l2.66.45Z"/><path class="cls-11" d="M61.07,58.9c0-.14-.07-.28-.1-.43-.08-.41,0-.37-.52-.44l-.4-.05a.22.22,0,0,0,0-.08,1.49,1.49,0,0,1,1,0l.08,1Z"/><path class="cls-11" d="M69.25,46.19a4.46,4.46,0,0,1-.79-.39,4.26,4.26,0,0,0-.81-.38,2.56,2.56,0,0,1,1.59.69A.19.19,0,0,1,69.25,46.19Z"/><path class="cls-12" d="M60.06,57.9a.22.22,0,0,1,0,.08l-1.73-.18a.2.2,0,0,1-.08,0l0-.11A18.12,18.12,0,0,1,60.06,57.9Z"/><path class="cls-10" d="M67.57,45.41a13.19,13.19,0,0,1-1.54,0s0,0,0-.07a3.09,3.09,0,0,1,1.54,0Z"/><path class="cls-10" d="M70.8,11.93a1.11,1.11,0,0,1,.07-.26c0-.07,0-.2.13-.21s.16.1.2.2a1.54,1.54,0,0,1,0,.17C71.05,12.07,71.05,12.07,70.8,11.93Z"/><path class="cls-6" d="M50.92,47.78a6,6,0,0,1-.11,1,.8.8,0,0,1-.07-.48,1.64,1.64,0,0,1,.16-.65Z"/><path class="cls-12" d="M50.92,47.78l0-.09a2.79,2.79,0,0,1,.15-.9h.12l-.18.85A1,1,0,0,1,50.92,47.78Z"/><path class="cls-12" d="M54.36,57v.09a1.26,1.26,0,0,1-.47-.17C54.05,56.93,54.22,56.87,54.36,57Z"/><path class="cls-11" d="M66,45.36s0,0,0,.07-.17.08-.27.08v-.09A.42.42,0,0,1,66,45.36Z"/><path class="cls-12" d="M56.52,48.32c0-.1,0-.14.1-.18A.18.18,0,0,1,56.52,48.32Z"/><path class="cls-10" d="M65.76,45.42v.09a.23.23,0,0,1-.18,0C65.59,45.4,65.68,45.42,65.76,45.42Z"/><path class="cls-6" d="M70.46,11.84a.15.15,0,0,1,.17.08C70.56,11.92,70.49,11.91,70.46,11.84Z"/><path class="cls-9" d="M56.34,48.5a.1.1,0,0,1,.1-.1C56.43,48.46,56.41,48.51,56.34,48.5Z"/><path class="cls-9" d="M56.43,48.41a.09.09,0,0,1,.1-.1S56.49,48.4,56.43,48.41Z"/><path class="cls-12" d="M56.62,48.14l.09-.09Z"/><path class="cls-6" d="M81.59,14.48c0-.05,0-.1.1-.11A.14.14,0,0,1,81.59,14.48Z"/><path class="cls-11" d="M67.57,45.41v0s.07,0,.09,0Z"/><path class="cls-14" d="M70.19,55.56h.18a.58.58,0,0,1,.63.35,1.87,1.87,0,0,1,.2.59,4.14,4.14,0,0,1-.15,1.68,10.75,10.75,0,0,1-.84,2.47,7.85,7.85,0,0,1-.91,1.56c-.1.13-.19.27-.28.4l-.18.21a.08.08,0,0,1-.12,0,.09.09,0,0,1,0-.07c0-.15,0-.3,0-.45a7.21,7.21,0,0,0-.33-1.9c-.06-.18-.13-.33-.35-.34a.18.18,0,0,1-.13-.25,1.17,1.17,0,0,1,.17-.31c.27-.4.55-.79.84-1.18a2.9,2.9,0,0,0,.31-.54c.29-.71.57-1.43.85-2.14A.24.24,0,0,0,70.19,55.56Z"/><path class="cls-15" d="M63.2,52.77a3,3,0,0,1,.16-.84,7.29,7.29,0,0,1,1.76-3,3,3,0,0,1,1.07-.73,1.64,1.64,0,0,1,.62-.13.82.82,0,0,1,.82,1,.94.94,0,0,1-.25.47A3.26,3.26,0,0,1,67,50a26.25,26.25,0,0,0-3,2.91l-.22.24a.83.83,0,0,1-.21.16.22.22,0,0,1-.36-.16C63.21,53,63.21,52.9,63.2,52.77Z"/><path class="cls-15" d="M81.05,48.72a.79.79,0,0,1-.34.7c-.19.12-.39.24-.59.34s-.44.2-.66.28a22.15,22.15,0,0,0-3.31,1.64,3,3,0,0,1-.4.21.15.15,0,0,1-.23-.17,1.76,1.76,0,0,1,.1-.3,5.72,5.72,0,0,1,.85-1.32,6.87,6.87,0,0,1,2.37-1.84,3.22,3.22,0,0,1,1-.27,1.33,1.33,0,0,1,1,.27A.55.55,0,0,1,81.05,48.72Z"/><path class="cls-15" d="M63.06,67.17a2.47,2.47,0,0,1-2.46-1.94,2.68,2.68,0,0,1-.1-.89,1.64,1.64,0,0,1,0-.23.15.15,0,0,1,.22-.08,1.8,1.8,0,0,1,.19.2l.32.37A4.1,4.1,0,0,0,64.38,66a2.68,2.68,0,0,1,.4,0,.13.13,0,0,1,.11.2,1.43,1.43,0,0,1-.4.48A2.19,2.19,0,0,1,63.06,67.17Z"/><path class="cls-15" d="M74.47,66.14a2.5,2.5,0,0,1-1.26-.31c-.18-.1-.27-.22-.23-.3s.21-.1.33-.11A4.75,4.75,0,0,0,74.74,65a2.84,2.84,0,0,0,1.7-2c.06-.24.11-.5.17-.75a.5.5,0,0,1,.08-.2.08.08,0,0,1,.12,0,.59.59,0,0,1,.13.18,2.45,2.45,0,0,1,.23,1.66A2.73,2.73,0,0,1,74.47,66.14Z"/><path class="cls-9" d="M74.68,67.6a5,5,0,0,1-2.35,0,.77.77,0,0,1-.24-.12,4.47,4.47,0,0,1-1.38-1.39c-.17-.26-.34-.53-.5-.8a.7.7,0,0,1-.14-.37s0,0,0,0,0,0,0-.06v0h0v-.18h.17a5.86,5.86,0,0,0,1,1.41,4.92,4.92,0,0,0,1.57,1.18,3.43,3.43,0,0,0,1.08.31Z"/><path class="cls-9" d="M70.7,54.08a2.48,2.48,0,0,1,.17.32c0,.11.14.15.23.2s.19,0,.27-.07a.94.94,0,0,0,.42,0c.1,0,.1.06.09.1-.06.34-.06.35-.41.35a2.43,2.43,0,0,0-1.13.22l-.09-.08A5.21,5.21,0,0,1,70.7,54.08Z"/><path class="cls-11" d="M69.56,63.77a.08.08,0,0,1-.08,0,.53.53,0,0,1,.15-.45c.1-.11,0-.1-.08-.13.11-.07.24,0,.33,0s.15-.17.26-.22.42-.23.64-.35a.5.5,0,0,0,.27.33,2,2,0,0,1-.65.46,1.09,1.09,0,0,1-.25.1.39.39,0,0,0-.33.46h-.08s0-.1-.08-.14,0-.09-.08-.06A.15.15,0,0,0,69.56,63.77Z"/><path class="cls-9" d="M69.55,63.15s.18,0,.08.13a.53.53,0,0,0-.15.45H69.1l-.47,0c-.06-.16.15-.29.05-.46,0,0,.07-.07.1-.07Z"/><path class="cls-11" d="M70.85,50.09c.06.2.13.39.19.59a.85.85,0,0,1,0,.22c0,.27,0,.53-.07.8a.67.67,0,0,1-.15.32A12.44,12.44,0,0,1,70.85,50.09Z"/><path class="cls-11" d="M76.35,47.6s0-.1,0-.12a2.58,2.58,0,0,1,1.07-.84l0,0,.18.1s0,.06,0,.06Z"/><path class="cls-12" d="M73.49,55.35a1.29,1.29,0,0,1,.35.61A2.45,2.45,0,0,1,74,57.3a7.16,7.16,0,0,0-.5-1.92Z"/><path class="cls-12" d="M76.83,67.22a3.37,3.37,0,0,1-1.09.28l.87-.36A.16.16,0,0,1,76.83,67.22Z"/><path class="cls-12" d="M69.74,63.89h.08a3.23,3.23,0,0,1,.36.72H70c-.1-.07-.07-.22-.18-.28h0Z"/><path class="cls-16" d="M61.07,58.9h.09a.85.85,0,0,1,0,.68s0,0-.08,0a.79.79,0,0,0,0-.48A.55.55,0,0,1,61.07,58.9Z"/><path class="cls-16" d="M70.19,55.56a.24.24,0,0,1-.17.09.45.45,0,0,1,.16-.36l.11,0Z"/><path class="cls-16" d="M72.42,61.58a.2.2,0,0,1-.18.21.05.05,0,0,1,0,0c0-.08.09-.22.17-.2S72.41,61.57,72.42,61.58Z"/><path class="cls-16" d="M76.89,59.48s.06,0,.07,0a.09.09,0,0,1,0,.09l-.15.08s0,0-.07,0,0,0,0,0A.19.19,0,0,1,76.89,59.48Z"/><path class="cls-16" d="M72.6,61.37a.08.08,0,0,1-.09.05s0,0,0-.07.05-.07.09-.05S72.6,61.34,72.6,61.37Z"/><path class="cls-11" d="M76.08,47.78c.06-.1.12-.22.27-.19C76.29,47.7,76.22,47.79,76.08,47.78Z"/><path class="cls-11" d="M76,47.91a.23.23,0,0,1,.1-.14C76.09,47.85,76,47.88,76,47.91Z"/><path class="cls-16" d="M72.09,62l0-.07c.06,0,0,0,0,.06Z"/><path class="cls-12" d="M73.45,55.38a.09.09,0,0,1-.1-.09l.06,0,.08.11Z"/><path class="cls-12" d="M73.35,55.29a.11.11,0,0,1-.09-.09l0-.05.1.09Z"/><path class="cls-9" d="M70.29,55.32l-.11,0,.07-.12.09.08Z"/><path class="cls-12" d="M73.18,55.11c.06,0,.1,0,.13,0l0,.05a.09.09,0,0,1-.08-.1Z"/><path class="cls-16" d="M72.09,62l0,0s0,0,0,0h0Z"/><path class="cls-12" d="M73.18,55.1a.1.1,0,0,1-.09-.08h0c.06,0,.11,0,.1.09Z"/><path class="cls-12" d="M73.09,55l0,0s0,0,0,0a0,0,0,0,1,0,0Z"/><path class="cls-17" d="M39.69,139.1s0-.06,0-.09,0,0,.06,0,0,0,0,0,0,.08-.08.06Z"/><path class="cls-7" d="M44.3,139.45l.05-.06c0,.05,0,.07,0,.09Z"/><path class="cls-18" d="M63.5,82.89a.12.12,0,0,1,0,.16c-.23.52-.46,1-.7,1.56a7.81,7.81,0,0,0-.48,1.21,2.85,2.85,0,0,1-.31.6s-.1.06-.15.09l.33-1.25a.76.76,0,0,1,.08-.21c.35-.67.71-1.34,1.07-2A.83.83,0,0,1,63.5,82.89Z"/><path class="cls-10" d="M64.29,81.34a11.72,11.72,0,0,1,1.5-2.53.12.12,0,0,1,0,.14,9.24,9.24,0,0,1-.74,1.43,2,2,0,0,0-.39.79h0c-.1,0-.15.08-.1.18h0c-.09,0-.1,0-.09.09h-.1Z"/><path class="cls-10" d="M61.42,88.41s0,0,0,.07c0,.34.09.67.12,1a.93.93,0,0,1-.16.54c0-.37-.07-.73-.1-1.1A.8.8,0,0,1,61.42,88.41Z"/><path class="cls-10" d="M68.82,98.1a1.7,1.7,0,0,1,.71.1,6.21,6.21,0,0,1,1.19.34,9.91,9.91,0,0,1-1.33-.19A1.22,1.22,0,0,1,68.82,98.1Z"/><path class="cls-7" d="M64.29,81.34l.1.1c0,.1-.1.17-.08.28h0a.29.29,0,0,0-.19.28h0a.18.18,0,0,0-.09.24,1.56,1.56,0,0,0-.16.2c-.06,0-.11-.07-.08-.14A3.66,3.66,0,0,1,64.29,81.34Z"/><path class="cls-18" d="M61.45,90.49c.21.12.21.32.23.51s0,.45,0,.68a.84.84,0,0,1-.19-.53C61.48,90.93,61.47,90.71,61.45,90.49Z"/><path class="cls-18" d="M61.68,91.67l0,.06,0,0A.14.14,0,0,1,61.68,91.67Z"/><polygon class="cls-7" points="63.77 82.49 63.77 82.48 63.73 82.48 63.77 82.49"/><path class="cls-18" d="M38.42,62.34a1,1,0,0,1,.06-.16c.61-1,1.17-1.93,1.84-2.84a26.05,26.05,0,0,1,1.73-2s.06,0,.08,0a.47.47,0,0,1-.13.37c-.37.49-.75,1-1.14,1.46-.61.76-1.13,1.59-1.69,2.38-.18.26-.38.51-.56.77A.21.21,0,0,1,38.42,62.34Z"/><path class="cls-17" d="M35.25,68.14c0-.1,0-.18,0-.25l.55-1,1-1.89c.07-.13.11-.28.25-.36a.67.67,0,0,1-.09.48c-.15.31-.29.62-.43.93a4.19,4.19,0,0,1-.32.59c-.3.45-.58.91-.87,1.36C35.39,68,35.35,68.12,35.25,68.14Z"/><path class="cls-17" d="M35.16,68.32c0-.09,0-.17.09-.19A.17.17,0,0,1,35.16,68.32Z"/><path class="cls-18" d="M38.28,62.53c0-.07.06-.15.14-.19S38.39,62.51,38.28,62.53Z"/><path class="cls-17" d="M37.15,64.61a.16.16,0,0,1,.09-.19C37.25,64.5,37.26,64.58,37.15,64.61Z"/><path class="cls-17" d="M37.24,64.43a.17.17,0,0,1,.1-.19C37.34,64.32,37.34,64.4,37.24,64.43Z"/><path class="cls-17" d="M37.33,64.25a.21.21,0,0,1,.1-.19C37.42,64.13,37.43,64.22,37.33,64.25Z"/><path class="cls-17" d="M44.58,110.5c-.06,0-.1,0-.1-.09A.09.09,0,0,1,44.58,110.5Z"/><path class="cls-17" d="M44.67,110.63a.22.22,0,0,1-.1-.13C44.64,110.52,44.65,110.58,44.67,110.63Z"/><path class="cls-17" d="M37.42,64.07a.29.29,0,0,1,0-.09C37.51,64,37.47,64.05,37.42,64.07Z"/><path class="cls-18" d="M42.13,57.28a.11.11,0,0,1,.1-.1A.14.14,0,0,1,42.13,57.28Z"/><path class="cls-18" d="M42.22,57.19a.19.19,0,0,1,.1-.14A.21.21,0,0,1,42.22,57.19Z"/><path class="cls-17" d="M35.05,68.41s0-.11.12-.1A.15.15,0,0,1,35.05,68.41Z"/><path class="cls-5" d="M64.12,82a.29.29,0,0,1,.19-.28C64.32,81.92,64.3,81.94,64.12,82Z"/><path class="cls-5" d="M64.31,81.72c0-.11.07-.18.08-.28h.1C64.49,81.65,64.48,81.67,64.31,81.72Z"/><path class="cls-5" d="M64.57,81.35c0-.1,0-.15.1-.18S64.67,81.33,64.57,81.35Z"/><path class="cls-5" d="M64,82.22a.18.18,0,0,1,.09-.24A.3.3,0,0,1,64,82.22Z"/><path class="cls-5" d="M64.49,81.44c0-.07,0-.12.09-.09S64.55,81.45,64.49,81.44Z"/><path class="cls-18" d="M64.69,7.57a.32.32,0,0,1-.15.21A.34.34,0,0,0,64.4,8c-.06,0-.12,0-.17,0s-.2-.22-.29-.34-.08-.1,0-.16.1-.06.16,0A1.78,1.78,0,0,1,64.69,7.57Z"/><path class="cls-18" d="M65,9.87a2.33,2.33,0,0,1,.07.25.08.08,0,0,1-.08.09c-.25-.05-.42-.26-.64-.37a.26.26,0,0,1-.15-.25.56.56,0,0,1,.33.08Z"/><path class="cls-17" d="M60.88,10.92l0,.06s-.06,0-.08,0Z"/><path class="cls-19" d="M69.74,63.89l.09.45c-.06,0-.1,0-.13-.11a1.45,1.45,0,0,1-.14-.46.15.15,0,0,1,0-.08c.06,0,.06,0,.08.06S69.71,63.84,69.74,63.89Z"/><path class="cls-19" d="M69.83,64.33c.11.06.08.21.18.28v.18A.53.53,0,0,1,69.83,64.33Z"/><path class="cls-12" d="M70.07,64.82s0,0,0,.06,0,0,0,0a.14.14,0,0,1,0-.06S70.07,64.83,70.07,64.82Z"/><path class="cls-1" d="M73.87,93a.31.31,0,0,1-.25.1A.23.23,0,0,1,73.87,93Z"/><path class="cls-1" d="M72.35,90.66c0-.09.11-.11.19-.13A.14.14,0,0,1,72.35,90.66Z"/><path class="cls-12" d="M54.41,60.55s0,.05-.07,0-.24-.05-.29-.17.2-.06.34,0S54.41,60.52,54.41,60.55Z"/><path class="cls-1" d="M54.89,138.74c0-.42-.07-.83-.1-1.25a9,9,0,0,0-.17-1c-.08-.47-.18-.94-.26-1.41a17.15,17.15,0,0,0-.42-1.75c-.24-.9-.52-1.79-.82-2.67-.2-.6-.46-1.17-.71-1.75-.32-.76-.65-1.52-1-2.27a18.49,18.49,0,0,0-1-1.93c-.29-.46-.55-1-.83-1.44s-.56-1-.85-1.44-.6-1.07-1-1.57l-1.34-1.93a1.51,1.51,0,0,0-.21-.23l-.89-.9a6.49,6.49,0,0,0-2.61-1.55,1.59,1.59,0,0,0-.89,0l-.34.11a1.12,1.12,0,0,0-.84.75s-.06.06-.09.09a4.2,4.2,0,0,0,.08.62c.22,1,.44,1.91.75,2.84s.62,2,1,2.9a54.72,54.72,0,0,0,2.74,5.6l2,3.47c.58,1,1.15,2.05,1.83,3,.25.24.49.48.73.73a.3.3,0,0,1,.11.32.25.25,0,0,1-.31.12c-.47-.12-1,0-1.44-.14l-.13,0a14.06,14.06,0,0,1-1.71-.13c-.73-.07-1.47-.06-2.21-.07-.19,0-.39,0-.58,0a6.4,6.4,0,0,0-2.67.56,4.88,4.88,0,0,0-1.9,1.41,6.64,6.64,0,0,0-1.2,2.35,16,16,0,0,0-.36,1.67.28.28,0,0,0,0,.09c0,.64-.12,1.26-.1,1.9a1,1,0,0,1-.17.71c.13,0,.26,0,.4.06a1.8,1.8,0,0,0,.4,0,.24.24,0,0,0,.27-.24v0l.8.17v.06a.27.27,0,0,0,.23.25c.12,0,.23.05.35.06s.49,0,.72,0a9.63,9.63,0,0,0,1.06.08l3.82.79.12-.63c1.82,0,3.64-.06,5.45-.19a10.26,10.26,0,0,0,1.56-.21l-.06-.07c0-.06-.09-.12,0-.15a4.09,4.09,0,0,0,.75-.31,1.34,1.34,0,0,0,.51-.43,9,9,0,0,0,.92-1.66,6.32,6.32,0,0,0,.47-1.59A6.79,6.79,0,0,0,54.89,138.74Z"/><polygon class="cls-17" points="52.01 28.92 50.66 28.14 50.14 27.14 49.98 25.69 50.14 24.28 51.02 22.3 52.04 20.92 54.01 19.69 55.34 19.31 56.61 19.47 57.8 22.11 57.65 23.74 56.61 25.82 55.34 27.42 53.51 28.69 52.01 28.92"/><path class="cls-17" d="M43.08,28l.72-.63h1.6l1.88.45,1.33,1.25s.73,1.29.72,1.38-.66,1.33-.66,1.33-1.85.18-2,.15-2.48-1.29-2.48-1.29l-1.13-1.51Z"/><path d="M43.41,52.43l-.16-.15a20.1,20.1,0,0,1-3.31-3.59A18.94,18.94,0,0,1,38.31,46a28.13,28.13,0,0,1-1.77-4.15,16,16,0,0,1-.5-2.15,23.88,23.88,0,0,1-.25-2.52,9.94,9.94,0,0,1,.09-1.81A10.41,10.41,0,0,1,37,31.71a11.5,11.5,0,0,1,1.88-2.6,12.83,12.83,0,0,1,1.65-1.47,11.58,11.58,0,0,1,3.29-1.57l1.3-.37c.26-.08.52-.17.77-.27a1.84,1.84,0,0,0,.88-.75c.46-.74.93-1.48,1.4-2.22s1-1.66,1.57-2.48a19.08,19.08,0,0,1,2.51-3.08,20.12,20.12,0,0,1,4.12-3.23c.22-.13.45-.24.68-.36l.43-.23a3.28,3.28,0,0,0-.82-.33c-1.4-.4-2.82-.76-4.24-1.08a2.22,2.22,0,0,1-.39-.11.2.2,0,0,1-.1-.3,1.34,1.34,0,0,1,.3-.33A5,5,0,0,1,54,10.06a16.72,16.72,0,0,1,1.68-.35,7.55,7.55,0,0,1,1.9,0c.4,0,.8.13,1.2.2l.3,0a.69.69,0,0,0-.39-.28l-1.76-.82-1.47-.69L55.16,8a.13.13,0,0,1,0-.22,4.41,4.41,0,0,1,.71-.29,8.59,8.59,0,0,1,3.27-.27l1.12.13h.23c.1-.3.19-.59.27-.88a9.41,9.41,0,0,1,1.85-3.29A8.55,8.55,0,0,1,65.8.88,10.21,10.21,0,0,1,68.66.1a10.63,10.63,0,0,1,3.56.1,6.5,6.5,0,0,1,3.85,2.2,12,12,0,0,1,.69,1c.07.11.13.23.18.32s.2,0,.28,0a10.16,10.16,0,0,1,2.68-.78,10,10,0,0,1,2.44-.06,11.34,11.34,0,0,1,2.08.37A10.1,10.1,0,0,1,89,6a8.38,8.38,0,0,1,2.07,3.61A7.15,7.15,0,0,1,91.33,11c0,.38.08.76.08,1.13a13.75,13.75,0,0,1-.87,5,11.48,11.48,0,0,1-1.16,2.39A15.48,15.48,0,0,1,88.25,21,20.61,20.61,0,0,1,85,24l-.89.62-.39.26c0,.1,0,.21,0,.3a19.9,19.9,0,0,1,.82,5.62,22.67,22.67,0,0,1-.38,4.5c-.17.88-.34,1.75-.57,2.61a29.91,29.91,0,0,1-1.22,3.64,21.41,21.41,0,0,1-1.54,3.11s0,.11-.09.19l.49.12a4.17,4.17,0,0,1,2.19,1.2,3.88,3.88,0,0,1,1,2,6.1,6.1,0,0,1-.15,2.33,11.67,11.67,0,0,1-.93,2.64,14.47,14.47,0,0,1-1.28,2.18,14.22,14.22,0,0,1-2.34,2.5l-1.17.93-.42.35a2.83,2.83,0,0,0,.37.59,8.11,8.11,0,0,1,.78,1.33,5.38,5.38,0,0,1,.49,2.19,5.53,5.53,0,0,1-.95,3c-.11.16-.23.31-.34.48l.19.21c1.1,1.14,2.19,2.29,3.21,3.5A28.39,28.39,0,0,1,85.07,75a6,6,0,0,1,.62,1.73,3,3,0,0,1,0,.9,4.72,4.72,0,0,1-.44,1.56,12.34,12.34,0,0,1-1.58,2.47,52.85,52.85,0,0,1-3.57,3.91c-.32.32-.66.61-1,1l.22.15c.17.13.36.23.52.37a2.13,2.13,0,0,1,.7,1.52l0,.49c.19.11.38.21.55.33a2.52,2.52,0,0,1,1.13,1.36,3.06,3.06,0,0,1-.53,3.06,3.82,3.82,0,0,1-1.1.94c-.14.08-.28.18-.43.25a1,1,0,0,0-.54.62A3.54,3.54,0,0,1,78.5,97.2a5.62,5.62,0,0,1-1.14.72,12.07,12.07,0,0,1-3,1,2,2,0,0,0-.26.06.26.26,0,0,0-.1,0,.85.85,0,0,0-.08.42,21.42,21.42,0,0,1-.58,3.48,21.11,21.11,0,0,1-1.63,4.35c-.14.28-.27.57-.43.85a.78.78,0,0,0-.08.52l.21,1.61c.08.74.17,1.47.24,2.21.08.93.16,1.86.23,2.79,0,.74.09,1.48.11,2.21,0,1.83.08,3.65,0,5.48-.06,1.34-.1,2.68-.19,4s-.21,2.4-.32,3.6c0,.38-.07.76-.1,1.13-.06.6-.12,1.2-.17,1.8a1.34,1.34,0,0,0,0,.28l.33-.05c.65-.12,1.3-.27,2-.36a11.82,11.82,0,0,1,2.79-.09,12.36,12.36,0,0,1,2,.31,6.47,6.47,0,0,1,3.22,1.9,6,6,0,0,1,1.32,2.2,17,17,0,0,1,.48,1.69,10.67,10.67,0,0,1,.07,4.36,1.76,1.76,0,0,1-1.2,1.4,5.58,5.58,0,0,1-.88.2c-1.14.19-2.28.26-3.42.38a48.27,48.27,0,0,1-5.51.25c-1.12,0-2.23,0-3.35-.09s-2.34-.19-3.51-.33-2.18-.3-3.26-.49a7.6,7.6,0,0,1-1.22-.33,2.38,2.38,0,0,1-1.58-1.55l-.18-.47-.12.3A3,3,0,0,1,57,144.87a15.35,15.35,0,0,1-1.63.37c-1.27.2-2.53.39-3.81.53a25.91,25.91,0,0,1-2.92.23c-.55,0-1.09,0-1.63.06-1,0-2.08,0-3.12-.06-1.35,0-2.69-.09-4-.21a24.71,24.71,0,0,1-3.09-.44l-.56-.17a2,2,0,0,1-1.38-1.74,5.43,5.43,0,0,1-.05-.9A16.71,16.71,0,0,1,35,139.8a9.44,9.44,0,0,1,1.08-3,6.16,6.16,0,0,1,2.81-2.6,8.84,8.84,0,0,1,4.18-.76,16,16,0,0,1,2.06.3c.79.15,1.58.36,2.37.54l.23,0-.25-.43c-.83-1.34-1.69-2.67-2.48-4-.66-1.14-1.24-2.31-1.84-3.48a38.71,38.71,0,0,1-1.79-4,41.46,41.46,0,0,1-1.32-4.09c-.21-.8-.37-1.61-.51-2.43q-.26-1.48-.42-3c-.07-.67-.08-1.35-.09-2a25,25,0,0,1,.31-4c.09-.57.2-1.13.33-1.69a.91.91,0,0,0-.15-.8,30.92,30.92,0,0,1-2.07-3.5c-.75-1.52-1.49-3-2.12-4.6A41.53,41.53,0,0,1,33,88a38.08,38.08,0,0,1-.51-4.26,39.42,39.42,0,0,1,0-4.21A36.39,36.39,0,0,1,34.09,70a1.36,1.36,0,0,0,.12-.5l-.42-.24a34.08,34.08,0,0,1-4.24-2.69,29,29,0,0,1-3.25-2.81,20.37,20.37,0,0,1-2.81-3.53c-.26-.41-.48-.83-.71-1.26a29.92,29.92,0,0,1-2.26-5.46c-.49-1.59-.92-3.19-1.26-4.81-.06-.26-.1-.53-.16-.8a3.4,3.4,0,0,0-.09-.33l-.38.14a21.71,21.71,0,0,1-4,1.23,24,24,0,0,1-2.68.36,19.37,19.37,0,0,1-2.85,0,10.82,10.82,0,0,1-3.71-.92,4.26,4.26,0,0,1-2.42-3l-.56-.22a4.34,4.34,0,0,1-1.29-.73,3.07,3.07,0,0,1-.54-4.12,2.81,2.81,0,0,1,.93-.85l.2-.1a.75.75,0,0,0,.43-.53,3.75,3.75,0,0,1,2.06-2.39,6.84,6.84,0,0,1,1.89-.6,20.15,20.15,0,0,1,2.19-.27c1.46-.14,2.91-.32,4.35-.6a28,28,0,0,0,5.07-1.47A14.31,14.31,0,0,0,19,32.77v-.49a11.85,11.85,0,0,1,.2-2.79,5.64,5.64,0,0,1,2.59-3.87,4.43,4.43,0,0,1,4.29-.28,2.63,2.63,0,0,1,1.14,1,2.37,2.37,0,0,1,.26,1.75,5.45,5.45,0,0,1-.57,1.66l-1.33,2.3L25,33a.74.74,0,0,0,.08.92c.18.22.36.44.53.67a6.5,6.5,0,0,1,1.2,2.85,9.68,9.68,0,0,1,.11,1.94c0,.43,0,.87,0,1.31a.65.65,0,0,0,.27.58c.29.22.57.45.85.68,1.42,1.15,2.87,2.25,4.34,3.34.8.59,1.62,1.14,2.45,1.7,2.32,1.58,4.67,3.11,7.06,4.57.45.28.91.54,1.36.81l.15.08Zm28,.31a.28.28,0,0,0,.11,0c.09-.17.19-.34.27-.52a23.32,23.32,0,0,1,1.67-2.85,14.35,14.35,0,0,1,2.48-2.8c.3-.25.61-.49.93-.71a5.73,5.73,0,0,1,1.69-.76.76.76,0,0,0,.47-.37,26.78,26.78,0,0,0,3-6.64,31.65,31.65,0,0,0,1-4.18c.14-.88.27-1.76.33-2.65a23.54,23.54,0,0,0,0-3.66,15.9,15.9,0,0,0-.29-1.92,1.67,1.67,0,0,0-.11-.31l-.35.12-1.11.38a.81.81,0,0,1-.31,0,.26.26,0,0,1-.16-.13.21.21,0,0,1,.06-.2,1.58,1.58,0,0,1,.29-.22c.75-.52,1.52-1,2.25-1.58a19.29,19.29,0,0,0,1.78-1.47,17,17,0,0,0,2.44-2.9,12.27,12.27,0,0,0,1.68-3.59A19.12,19.12,0,0,0,90,13.51,9.26,9.26,0,0,0,90,10.36a5.91,5.91,0,0,0-.53-1.53,9,9,0,0,0-2.59-2.92,4.2,4.2,0,0,0-.49-.33,9.46,9.46,0,0,0-8-.91,9.39,9.39,0,0,0-1.5.72A9.41,9.41,0,0,0,74.23,7.5,10,10,0,0,0,72.64,10a19.43,19.43,0,0,0-1.5,4.63c0,.1,0,.21-.14.26a1.36,1.36,0,0,1-.3-.69,5.72,5.72,0,0,1-.08-1.49.59.59,0,0,0-.15-.45c-.36-.44-.71-.9-1.09-1.33A10.43,10.43,0,0,0,68,9.57,9.47,9.47,0,0,0,65.22,8c-.11,0-.22-.1-.34,0,.4.71.81,1.41,1.21,2.11.89,1.61,1,1.77,1,2.19-.11.09-.16,0-.22-.08a32.75,32.75,0,0,0-2.71-2.11,11.61,11.61,0,0,0-3.81-1.72,9.41,9.41,0,0,0-2.59-.3c-.07,0-.16,0-.17.12l.27.12c.55.27,1.12.52,1.66.81a8.89,8.89,0,0,1,2.92,2.46,1.9,1.9,0,0,1,.38.66,1.49,1.49,0,0,1,0,.21c-.17.06-.26,0-.36-.1-.59-.27-1.15-.6-1.76-.83a11.21,11.21,0,0,0-5.09-.75,5.12,5.12,0,0,0-1.23.22c0,.12.11.12.18.13a14.06,14.06,0,0,1,4,1.47,9.17,9.17,0,0,1,1.79,1.23,2.82,2.82,0,0,1,.33.36.29.29,0,0,1,0,.4l-.31-.13L59,13.71l-.4-.19-.34.18c-.69.38-1.32.84-2,1.28a20.57,20.57,0,0,0-2,1.59,15.78,15.78,0,0,0-1.53,1.53c-.61.71-1.18,1.46-1.73,2.21-.91,1.26-1.66,2.63-2.48,3.94-.25.4-.52.78-.78,1.17A3.2,3.2,0,0,1,45.6,26.8c-.13,0-.26.07-.49.13l.33.05.22,0a5.52,5.52,0,0,1,3.15,1.64.61.61,0,0,0,.49.19l1.35,0a.56.56,0,0,0,.19-.07l-.21-.16a2.75,2.75,0,0,1-1.19-2.09,5.46,5.46,0,0,1,.12-1.89,8.27,8.27,0,0,1,2.11-3.84,6.41,6.41,0,0,1,2.61-1.66,3.19,3.19,0,0,1,1.91-.07A2.61,2.61,0,0,1,58,21.25a5.18,5.18,0,0,1-.11,2.25,8.67,8.67,0,0,1-2.81,4.64,7.27,7.27,0,0,1-3.06,1.57,8.52,8.52,0,0,1-1.88.26,1.52,1.52,0,0,0-.51,0c0,.09.06.16.09.23a5.25,5.25,0,0,1,.22.63,5,5,0,0,1,0,2.24,7.77,7.77,0,0,1-.87,2.08,7.51,7.51,0,0,1-1.6,2,6.09,6.09,0,0,1-2.57,1.27,6.37,6.37,0,0,1-1.57.13.81.81,0,0,0-.38,0,3.94,3.94,0,0,0,.66,1.35,7,7,0,0,0,3.11,2.33,9.43,9.43,0,0,0,3.9.62c.24,0,.48-.05.72-.07a15.06,15.06,0,0,0,3.52-.58,16.2,16.2,0,0,0,1.65-.59,13.34,13.34,0,0,0,2.23-1.29c.19-.12.38-.25.56-.39a1.79,1.79,0,0,0,.23-.24c-.28-.31-.54-.6-.82-.87a4.68,4.68,0,0,1-.85-.87.77.77,0,0,1,.59,0A3.64,3.64,0,0,1,60.35,39,6.14,6.14,0,0,1,61,40a6.42,6.42,0,0,1,.78,2.63c0,.1,0,.23-.07.28s-.2-.09-.26-.18c-.3-.45-.6-.91-.89-1.37-.05-.06-.12-.11-.19-.19-.08.19-.15.34-.21.49A48,48,0,0,1,58,46.56a12.86,12.86,0,0,1-2.18,3.15,7.66,7.66,0,0,1-1.72,1.39,3.34,3.34,0,0,1-2.12.48,1.84,1.84,0,0,1-1.54-1.11,2.21,2.21,0,0,1-.19-.88,10.28,10.28,0,0,1,.12-1.84c.12-.93.26-1.85.38-2.78a2.21,2.21,0,0,0,0-.81l-.28,0a15.26,15.26,0,0,1-3-.34,9.1,9.1,0,0,1-2.13-.73,8.56,8.56,0,0,1-2.54-1.93,6.26,6.26,0,0,1-1.5-2.65,10.8,10.8,0,0,0-.64-1.72A7.94,7.94,0,0,1,40,32.13a7,7,0,0,1,.51-1.91c.14-.29.27-.58.4-.87q0-.09.06-.21c-.06,0-.1,0-.12,0l-.21.17a10.08,10.08,0,0,0-1.41,1.58,9.53,9.53,0,0,0-1.9,5.51,16.85,16.85,0,0,0,.31,3.82,14.48,14.48,0,0,0,.57,2,27.12,27.12,0,0,0,3,5.66,17.47,17.47,0,0,0,4.29,4.37,23.06,23.06,0,0,0,5.64,2.92,32.72,32.72,0,0,0,3.19,1c.92.22,1.86.39,2.8.52s1.91.23,2.87.31l.31,0a1.25,1.25,0,0,0,0-.15c0-.38-.07-.75-.1-1.13a14.41,14.41,0,0,1,.32-4.58A10,10,0,0,1,62,47.68a7.51,7.51,0,0,1,2.62-2.33,5.09,5.09,0,0,1,3-.53,3.82,3.82,0,0,1,1.81.66,4.9,4.9,0,0,1,1.76,2.35,7.9,7.9,0,0,1,.4,3.48c0,.48-.1,1-.15,1.44l0,.06,0,0Zm-1.17,81.4,0-.18c0-.92.11-1.83.16-2.75.09-1.45.13-2.89.12-4.34q0-3.59,0-7.15c0-1.65-.14-3.29-.29-4.92-.1-1.13-.21-2.25-.33-3.38-.1-.9-.2-1.8-.32-2.69a1.42,1.42,0,0,1,.21-1.12.56.56,0,0,0,0-.08,22.53,22.53,0,0,0,2.47-6.38c.1-.5.15-1,.21-1.52a.88.88,0,0,0,0-.55h-.77a15.81,15.81,0,0,1-2.38-.2A10.21,10.21,0,0,1,64.86,97a11.26,11.26,0,0,1-2.09-2,8.13,8.13,0,0,1-1.4-2.67,8.59,8.59,0,0,1-.43-2.12,10.08,10.08,0,0,1,.16-2.57,16.26,16.26,0,0,1,1.41-4.13,39.36,39.36,0,0,1,2.2-3.9l.38-.61a.4.4,0,0,0,0-.43c-.18-.39-.34-.8-.54-1.19a14.34,14.34,0,0,0-1.71-2.66,2.21,2.21,0,0,1-.22-.29s-.06-.1,0-.18a1.59,1.59,0,0,1,.3.14,13.08,13.08,0,0,1,1.12.84,10.79,10.79,0,0,1,1.82,2c.09.11.14.26.31.32a1.29,1.29,0,0,0,.17-.16,23,23,0,0,1,1.87-2.21A9,9,0,0,1,70,73.65a2.46,2.46,0,0,1,.39-.22,1,1,0,0,1,.24,0,1.86,1.86,0,0,1-.11.27c-.13.19-.27.37-.4.55-.79,1-1.59,2-2.35,3.1a36,36,0,0,0-2.71,4.22c-.65,1.23-1.27,2.47-1.87,3.72a10,10,0,0,0-.91,2.82,8.22,8.22,0,0,0-.1,2.21,7.54,7.54,0,0,0,1.16,3.21,8.92,8.92,0,0,0,3,2.86,10.38,10.38,0,0,0,4.85,1.45,13.75,13.75,0,0,0,4-.4,7.09,7.09,0,0,0,2.32-1,3,3,0,0,0,1.06-1.21,1.55,1.55,0,0,0-1.39-2.32A5.74,5.74,0,0,0,76,93c-.92.13-1.84.3-2.76.45-.45.07-.9.11-1.35.15a1.11,1.11,0,0,1-.36,0c-.08,0-.11-.18,0-.22l.36-.21a3.1,3.1,0,0,0,0-.86,1.45,1.45,0,0,0-.52-1l-.66.18a1.14,1.14,0,0,1-.66,0s-.09-.06-.12-.08,0-.07,0-.08a1.64,1.64,0,0,1,.22-.14,28.32,28.32,0,0,0,2.8-1.67,44,44,0,0,0,4.09-3,35.33,35.33,0,0,0,4.61-4.46,20.58,20.58,0,0,0,2.22-3.18,3.92,3.92,0,0,0,.46-1.32,2.21,2.21,0,0,0,0-.63A4.45,4.45,0,0,0,84,75.79a15.76,15.76,0,0,0-2-3.32q-1.56-2-3.29-3.91c-.29-.33-.62-.63-.93-.93a.49.49,0,0,0-.13-.08l-.27.13a9.35,9.35,0,0,1-.92.38,5.44,5.44,0,0,1-3.07,0,5.22,5.22,0,0,1-3.06-2,10.68,10.68,0,0,1-1.09-1.92,1.83,1.83,0,0,0-.14-.28.13.13,0,0,0-.11,0,.2.2,0,0,0-.14.08,1.25,1.25,0,0,0-.07.26,8.51,8.51,0,0,1-1.43,3.24,4.53,4.53,0,0,1-1.77,1.45,5.33,5.33,0,0,1-3.71.29,4.81,4.81,0,0,1-2.21-1.26,4.32,4.32,0,0,1-1.18-2.77,6.56,6.56,0,0,1,.34-2.67c0-.13.07-.26.11-.41l-.45-.11c-.74-.12-1.49-.23-2.23-.38a24.65,24.65,0,0,1-3.78-1.06,21.55,21.55,0,0,1-3.89-1.9,15.21,15.21,0,0,1-2.29-1.69,6,6,0,0,1-1.51-2,.65.65,0,0,0-.1-.15l-.08,0-.22.23c-1.16,1.33-2.29,2.68-3.32,4.12A36.2,36.2,0,0,0,38.63,63a50.09,50.09,0,0,0-2.22,4.75,27.58,27.58,0,0,0-1.25,3.86,40.35,40.35,0,0,0-.82,4.08c-.11.79-.22,1.58-.28,2.37C34,79.1,34,80.15,34,81.21a23.79,23.79,0,0,0,.13,3.16c.09.87.2,1.74.32,2.6s.25,1.64.42,2.45a39,39,0,0,0,1.67,5.72c.54,1.44,1.12,2.87,1.79,4.25A54.17,54.17,0,0,0,44,108.55a52.25,52.25,0,0,0,3.93,4.61,2.39,2.39,0,0,1,.42.63c.61,1.27,1.2,2.54,1.83,3.79q4.78,9.48,9.59,19a1.72,1.72,0,0,1,.21.82,29.58,29.58,0,0,0,.14,3,7.66,7.66,0,0,0,.38,1.77,2.18,2.18,0,0,0,1.64,1.53c.07,0,.14.05.22.06.89.16,1.77.33,2.67.46.64.1,1.28.17,1.93.23.93.08,1.86.18,2.79.21,1.44.05,2.87,0,4.3.05a4.68,4.68,0,0,0,.84-.05.9.9,0,0,0,.07-.14,11.19,11.19,0,0,0,0-3.56,12.12,12.12,0,0,0-.57-2,1.38,1.38,0,0,1-.09-.39.15.15,0,0,1,.24-.15,2.35,2.35,0,0,1,.33.3,6.17,6.17,0,0,1,1,1.74,7.5,7.5,0,0,1,.49,3.15c0,.25,0,.51,0,.76a2.3,2.3,0,0,0,0,.26.73.73,0,0,0,.2,0l2.71-.21a2.29,2.29,0,0,0,.28-.08,1.07,1.07,0,0,0,0-.21,11,11,0,0,0-.47-4.77l-.24-.69c0-.14,0-.24.07-.28a.25.25,0,0,1,.29.08,3.85,3.85,0,0,1,.27.3A6.91,6.91,0,0,1,80.54,141a8.37,8.37,0,0,1,.26,2.73c0,.1,0,.2,0,.33l.38-.07.43-.14a.77.77,0,0,0,.49-.56,1.62,1.62,0,0,0,.07-.44c0-.48,0-1,0-1.45a10.72,10.72,0,0,0-.71-3.71,4.43,4.43,0,0,0-1.2-1.73A6.94,6.94,0,0,0,76,134.32a19,19,0,0,0-4.19.32c-.76.11-1.51.28-2.26.43a.91.91,0,0,1-.23,0,.26.26,0,0,1-.14-.09.18.18,0,0,1,0-.16,1.18,1.18,0,0,1,.26-.24C69.66,134.45,69.93,134.31,70.23,134.14ZM19.06,33.65a1.57,1.57,0,0,0-.26.12A20,20,0,0,1,14,35.72a25.83,25.83,0,0,1-3,.64c-.95.13-1.92.19-2.88.29a13.86,13.86,0,0,0-1.92.27,4.46,4.46,0,0,0-1.87.87,2,2,0,0,0-.55.65.93.93,0,0,0,0,.21.79.79,0,0,0,.21,0,37,37,0,0,1,3.8.1,38.51,38.51,0,0,0,4.16.09l.16,0c-.1.25-.11.28-.31.38a3.67,3.67,0,0,1-1.34.37c-.75.06-1.51.11-2.26.14-1.19,0-2.38,0-3.57.06A7.79,7.79,0,0,0,3.18,40a2.52,2.52,0,0,0-1.37.73,1.85,1.85,0,0,0-.48,1.76A2,2,0,0,0,3,44a7,7,0,0,1,.34-.74A2.73,2.73,0,0,1,5,42a5.38,5.38,0,0,1,2.73-.14,36.06,36.06,0,0,1,3.93,1s.06,0,.08,0,.09.16,0,.23a.53.53,0,0,1-.38.12c-.37,0-.75,0-1.13,0C9.59,43.19,9,43.09,8.34,43s-1.2-.13-1.8-.16A2.5,2.5,0,0,0,5,43.26a1.68,1.68,0,0,0-.83,1.81,2.18,2.18,0,0,0,.42,1,3.3,3.3,0,0,0,1.45,1.11,8.53,8.53,0,0,0,1.56.48A13.63,13.63,0,0,0,10.4,48c.29,0,.58,0,.86,0a13.94,13.94,0,0,0,1.45-.07c.64-.08,1.28-.2,1.91-.33a21.45,21.45,0,0,0,3.94-1.15,9.27,9.27,0,0,0,2.55-1.52l1.44-1.25a2,2,0,0,1,.33-.24s.13,0,.23,0a4.24,4.24,0,0,1-.25.56,9.4,9.4,0,0,1-.62.89,11.59,11.59,0,0,1-2.12,2l-.29.23a23.76,23.76,0,0,0,.64,2.55,46.15,46.15,0,0,0,4,9.39,7.31,7.31,0,0,0,.41.66,21.88,21.88,0,0,0,3.53,4,34.18,34.18,0,0,0,3.19,2.45,29.76,29.76,0,0,0,2.89,1.68l.3.13c.23-.41.35-.85.54-1.26s.37-.85.57-1.27.4-.82.61-1.22.44-.82.67-1.23l.7-1.16c.24-.38.49-.76.75-1.13s.54-.76.82-1.13.55-.73.83-1.08.61-.71.91-1.06.61-.68.92-1,.65-.66,1-1,.68-.59,1-1l-.46-.25a52.46,52.46,0,0,1-5.07-3c-1.58-1-3.13-2.15-4.67-3.26-.95-.67-1.87-1.38-2.78-2.1s-1.91-1.57-2.86-2.37l-2-1.73c-.46-.4-.48-.49-.41-1.1,0-.26,0-.51.05-.77a9.55,9.55,0,0,0-.19-2.07,6.18,6.18,0,0,0-1-2.49c-.27-.36-.55-.72-.84-1.07a.85.85,0,0,1-.15-.92c.08-.18.15-.37.24-.54l.88-1.58c.31-.55.62-1.1.91-1.67a5.75,5.75,0,0,0,.58-1.61,1.23,1.23,0,0,0-.51-1.27,2,2,0,0,0-.82-.34,3.42,3.42,0,0,0-1.95.22A4.07,4.07,0,0,0,21,28.12a5.71,5.71,0,0,0-.89,2.44,14.69,14.69,0,0,0,0,3.38,3.4,3.4,0,0,1,0,.45.24.24,0,0,1-.38.22,1.12,1.12,0,0,1-.44-.5C19.2,34,19.14,33.81,19.06,33.65Zm21.79,72.7c0,.14-.08.24-.1.35-.07.62-.16,1.25-.19,1.88s0,1.51,0,2.26a24.91,24.91,0,0,0,.43,4.32c.2,1.1.48,2.18.73,3.26a24.28,24.28,0,0,0,1,3.1c.34.9.65,1.82,1.05,2.7.81,1.81,1.73,3.58,2.68,5.32,1,1.91,2.16,3.77,3.32,5.61a3,3,0,0,1,.22.39.9.9,0,0,1,.06.27,1.39,1.39,0,0,1-.29,0c-.21,0-.41-.11-.62-.15l-3-.62a17.25,17.25,0,0,0-2.86-.39,8.18,8.18,0,0,0-3,.38,5.42,5.42,0,0,0-2.14,1.3,6.37,6.37,0,0,0-1.6,2.85,13.1,13.1,0,0,0-.41,2.4,6.61,6.61,0,0,0,0,1.72.81.81,0,0,0,.55.66,2.61,2.61,0,0,0,.89.18c0-.12,0-.22,0-.32v-.68A7.67,7.67,0,0,1,38.94,139a2.31,2.31,0,0,1,.67-.72.3.3,0,0,1,.21,0,.18.18,0,0,1,.06.16,3.68,3.68,0,0,1-.15.47,10,10,0,0,0-.54,1.68,11.68,11.68,0,0,0-.26,3.28,1.08,1.08,0,0,0,.09.51,20.05,20.05,0,0,0,3.15.23c0-.08,0-.17,0-.26,0-.31,0-.63,0-.95a8.33,8.33,0,0,1,.35-2.27,9,9,0,0,1,.94-2,4.52,4.52,0,0,1,.5-.58.89.89,0,0,1,.22-.16c.07,0,.19,0,.21.12a.49.49,0,0,1,0,.17,4.52,4.52,0,0,1-.18.47,11.26,11.26,0,0,0-.76,4.91c0,.2.06.39.08.56s.09.05.12.05l.36,0c1.9,0,3.8.09,5.7-.06.83-.06,1.65-.15,2.47-.27s1.93-.31,2.9-.49a8.81,8.81,0,0,0,1.66-.43,2,2,0,0,0,1.16-1.13,10.86,10.86,0,0,0,.73-2.56,1.45,1.45,0,0,0,0-.36c0-.52-.1-1-.14-1.57a1.37,1.37,0,0,0-.15-.56c-.65-1.35-1.29-2.69-1.93-4-.33-.69-.64-1.4-1-2.09-1.11-2.31-2.25-4.6-3.31-6.94-1.49-3.27-3-6.54-4.23-9.93a1.13,1.13,0,0,0-.34-.46,37.4,37.4,0,0,1-3.38-3.4c-1.1-1.29-2.22-2.55-3.19-3.94C41,106.44,40.93,106.42,40.85,106.35ZM61,60.12l-.12.08a5.63,5.63,0,0,0-.81,1.35,6.11,6.11,0,0,0-.28,3.82A3.36,3.36,0,0,0,62.45,68a4.1,4.1,0,0,0,1.21.06,3.76,3.76,0,0,0,3.1-1.75A7.56,7.56,0,0,0,67.9,63.1a8.31,8.31,0,0,0-.24-3.4.87.87,0,0,1,.08-.65c.3-.6.6-1.21.88-1.83A20.43,20.43,0,0,0,70,53.34a10.29,10.29,0,0,0,.21-4,5.1,5.1,0,0,0-.7-1.93,2.67,2.67,0,0,0-1.77-1.24,3.28,3.28,0,0,0-1.91.14,5.3,5.3,0,0,0-1.47.86,6.12,6.12,0,0,0-1.94,2.56,12.09,12.09,0,0,0-.78,2.78,18.69,18.69,0,0,0-.27,3.73,27,27,0,0,0,.38,3.1c.1.62.25,1.24.37,1.86,0,.06,0,.14-.07.21A4.81,4.81,0,0,1,61,60.12Zm9.36,3.47a7.37,7.37,0,0,0,.91,1.65A4.35,4.35,0,0,0,74,67a4.92,4.92,0,0,0,1.53,0,3,3,0,0,0,1.38-.53,3.83,3.83,0,0,0,1.22-1.43,5.32,5.32,0,0,0,.43-3.4,8.12,8.12,0,0,0-.7-2,1.32,1.32,0,0,0-.15-.24l-.34.14c-.25.11-.49.23-.74.33a1.58,1.58,0,0,1-.8.13,1.12,1.12,0,0,1-.18-.08l.27-.23c.22-.15.46-.29.67-.46a22.74,22.74,0,0,0,3.85-3.87,17.55,17.55,0,0,0,2-3.22,6.79,6.79,0,0,0,.67-3.68,2.33,2.33,0,0,0-1.48-2,3.87,3.87,0,0,0-1.51-.25,5,5,0,0,0-2.83,1,9.59,9.59,0,0,0-1.76,1.55,34.12,34.12,0,0,0-3.65,5.05c0,.06-.11.12,0,.22l.61.06a2.21,2.21,0,0,1,1.93,1.77,3.17,3.17,0,0,1,.06,1.3c0,.27-.07.54-.13.81a9.16,9.16,0,0,1-1.17,3.15,6,6,0,0,1-2,2C70.89,63.31,70.62,63.44,70.34,63.59Zm6-59.46a1.49,1.49,0,0,0-.35-.53A6.75,6.75,0,0,0,74,2a6,6,0,0,0-2.69-.85,8.74,8.74,0,0,0-2.34.1c-.54.11-1.09.22-1.62.38a8,8,0,0,0-2.75,1.53,7.56,7.56,0,0,0-1.42,1.57,9.59,9.59,0,0,0-1.27,2.78,1.68,1.68,0,0,0,0,.2l.09.07a15.91,15.91,0,0,1,2.22,1.12s.08,0,.15,0l-.66-1a8.28,8.28,0,0,1-.69-1c.08,0,.13-.11.2-.12a2.68,2.68,0,0,1,.4,0,7.46,7.46,0,0,1,2.24.52,10.7,10.7,0,0,1,3.26,2,16.71,16.71,0,0,1,1.62,1.64c.07.09.13.21.28.21l.1-.24A12.73,12.73,0,0,1,72.43,8a11,11,0,0,1,1.22-1.73,11.4,11.4,0,0,1,2.39-2ZM55.77,25.94c.1-.1.14-.12.16-.16a6.54,6.54,0,0,0,1.34-3.72A2.89,2.89,0,0,0,57,20.62a1.41,1.41,0,0,0-1.14-.79,3,3,0,0,0-1.3.11,5.52,5.52,0,0,0-2.28,1.49,7.81,7.81,0,0,0-1.33,1.93,6.16,6.16,0,0,0-.53,1.43,4.2,4.2,0,0,0,0,1.93,1.87,1.87,0,0,0,1.05,1.38.75.75,0,0,0,.23,0L51.53,28a1.52,1.52,0,0,1-.22-1.29,3.4,3.4,0,0,1,.25-.72,3.46,3.46,0,0,1,1.68-1.59,2.27,2.27,0,0,1,1.36-.23,1.27,1.27,0,0,1,1.17,1.27C55.78,25.56,55.77,25.71,55.77,25.94Zm4.77,32.52-.35,0-2.25-.23c-.54-.06-1.08-.11-1.61-.2a30.31,30.31,0,0,1-4.69-1.16,24.38,24.38,0,0,1-4.12-1.72c-.64-.35-1.26-.71-1.9-1.07,0,0-.11-.11-.22,0a2.24,2.24,0,0,0,.14.36,4,4,0,0,0,.75,1c.35.31.69.62,1.07.9a20.82,20.82,0,0,0,5.92,3.06,28,28,0,0,0,5,1.18,8.6,8.6,0,0,0,1.33.15c.19-.23.37-.46.56-.67s.43-.41.65-.63Zm8.37,4.2A2.3,2.3,0,0,0,70,62.5a4.35,4.35,0,0,0,1.92-1.6,8.21,8.21,0,0,0,1.37-4.06,2,2,0,0,0-.11-.76,1.3,1.3,0,0,0-.93-.9,2.65,2.65,0,0,0-1.12,0,.67.67,0,0,0-.62.51.67.67,0,0,1-.06.12A13.37,13.37,0,0,1,68.52,59l-.43.55A10.56,10.56,0,0,1,68.91,62.66Zm11,31.05.32-.18a2.08,2.08,0,0,0,1-2.27,1.32,1.32,0,0,0-.78-1,2,2,0,0,0-.87-.22c-.63,0-1.26,0-1.9,0s-1,.08-1.48.13c-.93.09-1.86.18-2.79.25a1.89,1.89,0,0,0-.89.34,10.17,10.17,0,0,1,.2,1,9,9,0,0,1,0,1,1.82,1.82,0,0,0,.67-.14A20.94,20.94,0,0,1,76.3,92,4.23,4.23,0,0,1,78,92a2.39,2.39,0,0,1,1.76,1.47Zm-26-47.61c-.36,0-.72,0-1.08.1a5,5,0,0,0-.82.23.55.55,0,0,0-.33.35,2.41,2.41,0,0,0-.08.25,13.12,13.12,0,0,0-.26,2,2.6,2.6,0,0,0,.14,1,.77.77,0,0,0,.75.55,3.25,3.25,0,0,0,.76-.06,3.56,3.56,0,0,0,1.71-1,13.9,13.9,0,0,0,1.85-2.21,1.56,1.56,0,0,0,.16-.28.29.29,0,0,0-.16-.44,5.89,5.89,0,0,0-.8-.29A8.75,8.75,0,0,0,53.83,46.1ZM47.64,31,48,31a.64.64,0,0,0,.54-1,1.16,1.16,0,0,0-.14-.24,6.09,6.09,0,0,0-.54-.6,5,5,0,0,0-2-1.09,3.67,3.67,0,0,0-1.61-.16.56.56,0,0,0-.51.78.69.69,0,0,0,.1.25,3.63,3.63,0,0,0,.39.55,5.13,5.13,0,0,0,2.12,1.33A3.81,3.81,0,0,0,47.64,31ZM79.43,88.89a1,1,0,0,0-.23-1.07,2.33,2.33,0,0,0-.74-.51.43.43,0,0,0-.47,0l-2.44,1.71a1.13,1.13,0,0,0-.09.15l2-.22C78.12,88.92,78.78,89,79.43,88.89ZM54.28,24.61a1.39,1.39,0,0,0-1,.45.54.54,0,0,0,.25.92,1.35,1.35,0,0,0,1.41-.48s0-.05,0-.08a.49.49,0,0,0-.14-.64A.93.93,0,0,0,54.28,24.61Z"/><path class="cls-17" d="M71.4,52.74v.09l0,0,0-.06Z"/><path d="M63,107.24a16.64,16.64,0,0,1,2.12.13,1.36,1.36,0,0,1,.65.19.26.26,0,0,1,0,.45.71.71,0,0,1-.37.15l-1.57.17a31.53,31.53,0,0,0-5.12.8c-.32.09-.64.18-1,.29A18.71,18.71,0,0,0,52.7,112c-.33.24-.63.51-1,.76a1.79,1.79,0,0,1-.34.22c-.08,0-.19,0-.17-.14a.86.86,0,0,1,.07-.21,5.63,5.63,0,0,1,.78-1.1,9.93,9.93,0,0,1,2-1.77,14.28,14.28,0,0,1,3.56-1.72,12.4,12.4,0,0,1,2.69-.57Z"/><path d="M66.55,24.65a8.27,8.27,0,0,1-.63,3.29,8.62,8.62,0,0,1-2.3,3.26,5.17,5.17,0,0,1-2.34,1.22,2.72,2.72,0,0,1-3.17-1.56,4.58,4.58,0,0,1-.41-2.47,8.59,8.59,0,0,1,2-4.78,6.47,6.47,0,0,1,2.67-2,3.49,3.49,0,0,1,1.5-.25,2.58,2.58,0,0,1,2.22,1.48A4,4,0,0,1,66.55,24.65Zm-6.19,7a6.16,6.16,0,0,1-.42-.7,1.75,1.75,0,0,1-.06-1.15,3.65,3.65,0,0,1,2.3-2.65,2,2,0,0,1,.93-.15,1.4,1.4,0,0,1,1.34,1.29,4,4,0,0,1,0,.49c0,.06,0,.13.08.14l.09-.1a7,7,0,0,0,1.08-4.4,3.14,3.14,0,0,0-.56-1.55,1.62,1.62,0,0,0-1.22-.69,2.69,2.69,0,0,0-1.53.28,6.54,6.54,0,0,0-2.58,2.34,8.88,8.88,0,0,0-1,2.26,5.79,5.79,0,0,0-.22,2.45A3.56,3.56,0,0,0,59,30.73,1.64,1.64,0,0,0,60.36,31.63Zm2-2.55a1.45,1.45,0,0,0,1.17-.59.59.59,0,0,0-.45-1,1.4,1.4,0,0,0-1.28.52,1.2,1.2,0,0,0-.16.32.5.5,0,0,0,.21.59A.84.84,0,0,0,62.34,29.08Z"/><path d="M83.47,9.56a7.59,7.59,0,0,1-.62,3,7.79,7.79,0,0,1-.92,1.61,15.12,15.12,0,0,1-2.64,2.84,1.94,1.94,0,0,1-.29.21.22.22,0,0,1-.29,0c0-.18.08-.31.17-.44.33-.47.67-.93,1-1.39a18.77,18.77,0,0,0,1.18-1.77A11.1,11.1,0,0,0,82.16,11a.61.61,0,0,0,0-.46.73.73,0,0,0-.25,0,5.09,5.09,0,0,0-.5.3A9.67,9.67,0,0,0,79.19,13,19.25,19.25,0,0,0,77,16.61a4.77,4.77,0,0,1-.24.44.36.36,0,0,1-.16.14.16.16,0,0,1-.24-.12,2.68,2.68,0,0,1,0-.49,10.81,10.81,0,0,1,1.2-3.3,11.28,11.28,0,0,1,2.62-3.09,8.18,8.18,0,0,1,2-1.22,8.45,8.45,0,0,1,1.29-.42,4.28,4.28,0,0,1,1.13,0l.17.05a.16.16,0,0,1,0,.29l-.35.2Z"/><path d="M69.76,21.79a8.1,8.1,0,0,1-.69,3.11,1.48,1.48,0,0,1-.21.34s-.12.08-.16.06a.29.29,0,0,1-.14-.15.82.82,0,0,1,0-.27,14.32,14.32,0,0,0,.06-2.07,7.84,7.84,0,0,0-.74-3.19c-.13-.28-.27-.57-.41-.85,0-.11-.1-.23,0-.34s.22-.07.34,0l.16.07a3.3,3.3,0,0,1,1.56,1.86A5.63,5.63,0,0,1,69.76,21.79Z"/><path d="M68.77,27.83c.27-.34.6-.57.85-.88s.46-.63.69-.95a4.37,4.37,0,0,0,.54-1.08c.15-.37.27-.74.4-1.1s.15-.79.27-1.18a.56.56,0,0,1,.28.33,2.55,2.55,0,0,1,.14,1.84,4.18,4.18,0,0,1-2.61,2.9,2.91,2.91,0,0,1-.39.12A.92.92,0,0,1,68.77,27.83Z"/><path d="M60.13,15.92a1.69,1.69,0,0,1-.79.25,14.63,14.63,0,0,0-3.8,1.26,3,3,0,0,1-.41.18s-.09,0-.11,0,0-.1,0-.12a6.06,6.06,0,0,1,.47-.54,5.79,5.79,0,0,1,2.17-1.26,3.76,3.76,0,0,1,1.56-.18,1.41,1.41,0,0,1,.72.24A1.37,1.37,0,0,1,60.13,15.92Z"/><path d="M15.14,36.17c-.09.21-.15.37-.22.54a13.12,13.12,0,0,0-.82,2.38,11.5,11.5,0,0,0-.23,1.56c-.06.84-.07,1.68-.1,2.52,0,.15,0,.31-.15.43-.06,0-.16-.07-.2-.13a3.2,3.2,0,0,1-.29-.51,3.7,3.7,0,0,1-.25-1.14,9,9,0,0,1,.28-3.26,4.37,4.37,0,0,1,1.09-1.9,4.34,4.34,0,0,1,.64-.49S15,36.17,15.14,36.17Z"/></svg>