<?xml version="1.0" encoding="utf-8"?>
<!-- Generator: Adobe Illustrator 16.0.0, SVG Export Plug-In . SVG Version: 6.00 Build 0)  -->
<!DOCTYPE svg PUBLIC "-//W3C//DTD SVG 1.1//EN" "http://www.w3.org/Graphics/SVG/1.1/DTD/svg11.dtd">
<svg version="1.1" id="Layer_1" xmlns="http://www.w3.org/2000/svg" xmlns:xlink="http://www.w3.org/1999/xlink" x="0px" y="0px"
	 width="1058.896px" height="485.854px" viewBox="0 0 1058.896 485.854" enable-background="new 0 0 1058.896 485.854"
	 xml:space="preserve">
<g>
	<defs>
		<path id="SVGID_1_" d="M20.455,171.595c4.668-0.88,9.469-1.729,14.402-2.544c4.932-0.814,9.91-1.529,14.93-2.147
			c5.021-0.615,10.053-1.111,15.096-1.486c5.043-0.373,10.031-0.561,14.964-0.561c6.87,0,13.532,0.429,19.984,1.287
			c6.452,0.858,12.53,2.313,18.234,4.361c5.703,2.047,10.933,4.778,15.69,8.191c4.756,3.413,8.841,7.663,12.255,12.751
			c3.413,5.086,6.066,11.109,7.961,18.068c1.893,6.959,2.841,14.996,2.841,24.113c0,8.192-0.815,16.044-2.445,23.553
			c-1.629,7.51-4.008,14.499-7.135,20.975c-3.128,6.474-6.948,12.356-11.462,17.641c-4.515,5.285-9.668,9.81-15.459,13.575
			c-5.792,3.766-12.178,6.674-19.159,8.721c-6.981,2.048-14.479,3.073-22.495,3.073c-4.14,0-8.347-0.287-12.619-0.861
			c-4.272-0.571-8.721-1.452-13.345-2.643l-13.081,1.586l-1.189-0.132c0.308-2.816,0.638-6.55,0.991-11.197
			c0.352-4.647,0.693-10.053,1.024-16.218c0.33-6.166,0.649-13.026,0.958-20.58c0.308-7.554,0.583-15.68,0.826-24.378
			c0.242-8.698,0.429-17.87,0.561-27.517c0.132-9.645,0.198-19.664,0.198-30.059c0-2.113-0.088-3.965-0.264-5.55
			c-0.176-1.585-0.627-2.907-1.354-3.965c-0.726-1.057-1.806-1.849-3.237-2.377c-1.432-0.528-3.38-0.793-5.847-0.793
			c-2.907,0-6.629,0.33-11.166,0.991L20.455,171.595z M60.292,173.773c-0.044,2.203-0.11,5.483-0.198,9.845
			c-0.088,4.36-0.198,9.437-0.33,15.229c-0.132,5.791-0.297,12.111-0.495,18.96c-0.199,6.85-0.408,13.852-0.628,21.009
			c-0.221,7.156-0.462,14.281-0.727,21.371c-0.264,7.092-0.529,13.787-0.793,20.083c-0.264,6.301-0.54,12.016-0.826,17.145
			c-0.287,5.133-0.562,9.305-0.826,12.521c4.36,1.144,8.379,1.904,12.057,2.278c3.677,0.376,7.3,0.562,10.868,0.562
			c7.399,0,14.016-0.926,19.852-2.775c5.835-1.85,10.967-4.436,15.394-7.762s8.192-7.278,11.297-11.857
			c3.105-4.581,5.637-9.603,7.598-15.063c1.959-5.462,3.391-11.274,4.294-17.441c0.902-6.166,1.354-12.485,1.354-18.961
			c0-9.688-1.068-18.564-3.204-26.624c-2.137-8.06-5.616-14.996-10.438-20.81c-4.823-5.814-11.11-10.34-18.862-13.577
			c-7.751-3.237-17.221-4.856-28.407-4.856c-2.775,0-5.572,0.066-8.391,0.198C66.062,173.377,63.199,173.555,60.292,173.773z"/>
	</defs>
	<clipPath id="SVGID_2_">
		<use xlink:href="#SVGID_1_"  overflow="visible"/>
	</clipPath>
	<path clip-path="url(#SVGID_2_)" fill="none" stroke="#000000" stroke-width="24" d="M4.12,177.745c0,0,43.167-10.63,45.422,0
		c2.256,10.633-6.765,136.269-6.765,136.269l7.126-9.021c0,0,1.249-132.078,8.337-134.656c7.087-2.577,113.035-13.167,89.403,90.303
		c-15.831,69.313-82.313,60.463-126.324,42.908"/>
</g>
<g>
	<defs>
		<path id="SVGID_3_" d="M240.518,297.711c0.264,0.132,0.604,0.321,1.023,0.563c0.417,0.241,0.803,0.506,1.156,0.793
			c0.351,0.287,0.66,0.595,0.924,0.925s0.396,0.649,0.396,0.959c0,0.176-0.066,0.352-0.198,0.528
			c-2.467,3.435-5.119,6.418-7.96,8.951s-5.792,4.646-8.853,6.342c-3.063,1.695-6.178,2.951-9.348,3.766
			c-3.171,0.813-6.299,1.222-9.381,1.222c-5.286,0-10.131-1.08-14.534-3.235c-4.405-2.159-8.192-5.11-11.363-8.853
			c-3.171-3.746-5.649-8.138-7.433-13.181c-1.783-5.043-2.675-10.448-2.675-16.221c0-4.711,0.517-9.422,1.552-14.137
			c1.034-4.713,2.533-9.204,4.492-13.477c1.959-4.271,4.349-8.248,7.168-11.925c2.818-3.677,6.022-6.87,9.612-9.58
			c3.589-2.708,7.532-4.833,11.826-6.375c4.294-1.54,8.908-2.312,13.84-2.312c3.259,0,6.364,0.439,9.316,1.32
			c2.951,0.883,5.538,2.146,7.762,3.799s3.998,3.689,5.318,6.112c1.322,2.422,1.982,5.175,1.982,8.257
			c0,4.493-1.464,8.413-4.393,11.76c-2.929,3.348-6.971,6.188-12.123,8.522c-5.153,2.335-11.222,4.218-18.202,5.648
			c-6.981,1.431-14.524,2.499-22.627,3.205v1.121c0,5.64,0.715,10.793,2.146,15.459c1.431,4.67,3.403,8.668,5.913,11.992
			c2.51,3.325,5.461,5.914,8.853,7.763c3.391,1.851,7.046,2.775,10.967,2.775c3.964,0,8.027-0.981,12.189-2.941
			C232.027,305.299,236.244,302.116,240.518,297.711z M228.096,244.662c0-2.025-0.341-3.919-1.023-5.682
			c-0.683-1.761-1.631-3.291-2.841-4.591c-1.212-1.3-2.653-2.323-4.328-3.073c-1.675-0.748-3.479-1.123-5.417-1.123
			c-2.863,0-5.462,0.508-7.795,1.52c-2.335,1.014-4.426,2.39-6.277,4.13c-1.85,1.74-3.479,3.766-4.889,6.077
			c-1.41,2.313-2.609,4.77-3.6,7.366c-0.991,2.599-1.795,5.264-2.412,7.995c-0.617,2.73-1.057,5.395-1.321,7.993
			c6.254-0.44,11.858-1.199,16.814-2.278c4.955-1.08,9.139-2.468,12.552-4.163c3.413-1.696,6.021-3.722,7.828-6.078
			C227.194,250.399,228.096,247.701,228.096,244.662z"/>
	</defs>
	<clipPath id="SVGID_4_">
		<use xlink:href="#SVGID_3_"  overflow="visible"/>
	</clipPath>
	<path clip-path="url(#SVGID_4_)" fill="none" stroke="#000000" stroke-width="20" d="M165.836,265.369
		c0,0,52.831,11.918,67.651-17.395c14.818-29.316-41.714-29.108-51.222,5.153c-9.506,34.262,14.82,98.798,66.04,38.658"/>
</g>
<g>
	<defs>
		<path id="SVGID_5_" d="M266.612,294.344c0.309,3.347,1.199,6.232,2.677,8.652c1.474,2.423,3.291,4.405,5.45,5.945
			c2.156,1.545,4.547,2.689,7.167,3.436c2.619,0.751,5.23,1.125,7.829,1.125c2.423,0,4.757-0.331,7.003-0.992
			c2.247-0.661,4.229-1.607,5.946-2.839c1.719-1.235,3.094-2.753,4.13-4.561c1.032-1.805,1.551-3.831,1.551-6.078
			c0-2.334-0.55-4.381-1.65-6.143c-1.102-1.763-2.577-3.37-4.428-4.824c-1.849-1.453-3.997-2.795-6.439-4.028
			c-2.446-1.234-4.989-2.487-7.631-3.768c-2.335-1.098-4.682-2.213-7.035-3.335c-2.357-1.123-4.637-2.347-6.839-3.668
			c-2.203-1.32-4.261-2.752-6.178-4.292c-1.914-1.543-3.589-3.249-5.021-5.12c-1.431-1.873-2.554-3.965-3.367-6.276
			c-0.817-2.313-1.223-4.877-1.223-7.697c0-3.038,0.528-5.836,1.585-8.39c1.057-2.555,2.5-4.856,4.327-6.903
			c1.827-2.049,3.941-3.843,6.342-5.385c2.4-1.541,4.966-2.83,7.696-3.865c2.73-1.034,5.539-1.805,8.423-2.312
			c2.885-0.507,5.693-0.76,8.425-0.76c3.522,0,6.859,0.385,10.009,1.156c3.147,0.771,5.901,1.894,8.258,3.369
			c2.355,1.475,4.228,3.27,5.616,5.384c1.386,2.114,2.08,4.492,2.08,7.135c0,1.013-0.178,2.114-0.528,3.303
			c-0.353,1.189-0.946,2.302-1.784,3.338c-0.837,1.035-1.938,1.905-3.303,2.608c-1.367,0.705-3.039,1.08-5.021,1.124
			c-1.85,0-3.789-0.287-5.813-0.86l-0.198-0.66c0.614-1.408,1.057-2.708,1.321-3.897c0.264-1.189,0.396-2.289,0.396-3.303
			c-0.044-2.026-0.563-3.733-1.552-5.12c-0.992-1.388-2.235-2.521-3.733-3.402c-1.497-0.881-3.161-1.521-4.985-1.917
			c-1.83-0.396-3.625-0.594-5.387-0.594c-3.128,0-5.925,0.42-8.39,1.255c-2.467,0.837-4.55,1.949-6.244,3.337
			c-1.694,1.387-2.996,2.962-3.896,4.723c-0.904,1.764-1.354,3.591-1.354,5.483c0,2.424,0.638,4.591,1.915,6.509
			c1.275,1.915,2.974,3.677,5.087,5.284c2.114,1.608,4.548,3.116,7.302,4.524c2.75,1.411,5.625,2.82,8.621,4.229
			c3.347,1.586,6.672,3.226,9.975,4.922c3.304,1.697,6.254,3.621,8.853,5.782c2.597,2.156,4.701,4.635,6.31,7.43
			c1.608,2.798,2.411,6.09,2.411,9.878c0,4.536-1.002,8.565-3.005,12.088c-2.006,3.526-4.68,6.497-8.026,8.922
			c-3.35,2.421-7.192,4.259-11.528,5.515c-4.34,1.255-8.844,1.884-13.511,1.884c-2.335,0-4.748-0.177-7.233-0.528
			c-2.49-0.355-4.902-0.884-7.235-1.585c-2.335-0.706-4.549-1.574-6.639-2.611c-2.093-1.034-3.922-2.224-5.484-3.567
			c-1.563-1.342-2.798-2.841-3.7-4.492c-0.903-1.652-1.354-3.468-1.354-5.449c0-1.719,0.364-3.172,1.09-4.361
			c0.729-1.188,1.685-2.159,2.875-2.905c1.188-0.75,2.519-1.311,3.995-1.687c1.477-0.374,2.983-0.583,4.526-0.629L266.612,294.344z"
			/>
	</defs>
	<clipPath id="SVGID_6_">
		<use xlink:href="#SVGID_5_"  overflow="visible"/>
	</clipPath>
	<path clip-path="url(#SVGID_6_)" fill="none" stroke="#000000" stroke-width="38" d="M302.104,253.128
		c0,0,30.281-14.173,2.899-24.161c-27.383-9.985-47.298,7.96-36.725,27.383c10.573,19.422,44.777,23.193,46.71,33.181
		s4.188,31.567-43.167,26.463c-9.398-1.013-21.01-33.65-10.057-38.16"/>
</g>
<g>
	<defs>
		<path id="SVGID_7_" d="M361.283,225.238c-0.749,5.021-1.388,10.055-1.916,15.097c-0.528,5.043-0.959,9.92-1.288,14.633
			c-0.331,4.714-0.573,9.173-0.729,13.378c-0.153,4.208-0.229,8.005-0.229,11.396c0,4.584,0.065,8.513,0.197,11.794
			c0.133,3.28,0.351,6.043,0.661,8.29c0.307,2.246,0.691,4.043,1.156,5.386c0.461,1.343,1.032,2.378,1.719,3.104
			c0.682,0.727,1.474,1.2,2.377,1.42c0.901,0.222,1.926,0.331,3.071,0.331c2.115,0,4.394-0.32,6.839-0.958
			c2.442-0.639,4.92-1.528,7.432-2.678l1.255,3.437c-1.585,1.279-3.579,2.578-5.979,3.9c-2.401,1.32-4.921,2.532-7.564,3.631
			c-2.643,1.103-5.229,1.992-7.763,2.677c-2.533,0.683-4.723,1.022-6.573,1.022c-1.233,0-2.357-0.098-3.369-0.296
			c-1.013-0.198-1.927-0.692-2.741-1.486c-0.816-0.792-1.543-1.959-2.18-3.502c-0.639-1.542-1.167-3.633-1.585-6.275
			c-0.421-2.643-0.74-5.945-0.96-9.909c-0.219-3.965-0.33-8.767-0.33-14.402c0-3.303,0.033-7.036,0.102-11.199
			c0.063-4.161,0.163-8.631,0.295-13.411c0.132-4.778,0.309-9.821,0.529-15.128c0.218-5.308,0.506-10.779,0.858-16.417
			c0.088-1.233,0.418-2.236,0.992-3.007c0.57-0.77,1.275-1.363,2.113-1.783c0.837-0.418,1.728-0.704,2.674-0.858
			c0.948-0.153,1.818-0.231,2.611-0.231C355.909,223.191,358.685,223.874,361.283,225.238z M355.535,195.378
			c-1.542,0-2.906-0.318-4.095-0.958c-1.19-0.638-2.203-1.476-3.04-2.511c-0.838-1.034-1.477-2.223-1.916-3.567
			c-0.441-1.343-0.66-2.719-0.66-4.13c0-1.98,0.33-3.731,0.991-5.252c0.66-1.519,1.519-2.796,2.576-3.831
			c1.057-1.034,2.223-1.806,3.501-2.313c1.276-0.505,2.531-0.76,3.766-0.76c1.496,0,2.841,0.276,4.029,0.825
			c1.19,0.552,2.213,1.312,3.073,2.28c0.857,0.969,1.519,2.081,1.982,3.336c0.461,1.256,0.692,2.609,0.692,4.063
			c0,1.542-0.265,3.072-0.793,4.592c-0.528,1.519-1.267,2.896-2.213,4.128c-0.948,1.234-2.092,2.225-3.436,2.974
			S357.164,195.378,355.535,195.378z"/>
	</defs>
	<clipPath id="SVGID_8_">
		<use xlink:href="#SVGID_7_"  overflow="visible"/>
	</clipPath>
	<path clip-path="url(#SVGID_8_)" fill="none" stroke="#000000" stroke-width="17" d="M387.794,304.993
		c0,0-43.489,28.51-40.106-13.047c3.382-41.557,6.281-49.288,6.281-53.153c0-3.866-1.932-21.745-3.866-7.248
		c-1.933,14.495-3.382,97.126,20.295,93.743"/>
	<path clip-path="url(#SVGID_8_)" fill="none" stroke="#000000" stroke-width="17" d="M359.124,199.975c0,0-11.274-25.128,0-19.973
		c11.273,5.154-10.954,15.14-13.854,17.072"/>
</g>
<g>
	<defs>
		<path id="SVGID_9_" d="M458.398,235.81c2.246,3.214,3.809,6.452,4.69,9.712c0.88,3.26,1.321,6.563,1.321,9.908
			c0,3.481-0.475,6.882-1.421,10.208c-0.947,3.326-2.289,6.474-4.028,9.446c-1.742,2.973-3.832,5.705-6.277,8.192
			c-2.443,2.49-5.165,4.647-8.158,6.475c-2.996,1.83-6.211,3.248-9.646,4.26c-3.435,1.016-7.025,1.521-10.769,1.521
			c-0.97,0-1.927-0.045-2.875-0.132c-0.947-0.089-1.927-0.199-2.938-0.331c-1.543,0.309-2.952,0.771-4.229,1.389
			c-1.276,0.614-2.4,1.344-3.369,2.178c-0.97,0.838-1.718,1.729-2.246,2.676c-0.528,0.948-0.792,1.907-0.792,2.874
			c0,1.94,0.758,3.59,2.279,4.957c1.518,1.364,3.554,2.554,6.11,3.566c2.555,1.012,5.517,1.905,8.885,2.675
			c3.37,0.772,6.882,1.555,10.538,2.347c3.304,0.702,6.562,1.431,9.778,2.179c3.215,0.748,6.275,1.608,9.183,2.577
			c2.907,0.967,5.593,2.104,8.061,3.402c2.464,1.299,4.601,2.818,6.407,4.558c1.805,1.739,3.215,3.767,4.229,6.079
			c1.012,2.312,1.52,4.986,1.52,8.025c0,3.832-0.695,7.52-2.08,11.069c-1.39,3.54-3.337,6.854-5.848,9.939
			c-2.511,3.084-5.506,5.9-8.985,8.457c-3.48,2.555-7.313,4.745-11.495,6.575c-4.184,1.823-8.645,3.235-13.38,4.229
			c-4.733,0.988-9.61,1.483-14.632,1.483c-2.905,0-5.969-0.207-9.183-0.627c-3.216-0.419-6.389-1.079-9.514-1.981
			c-3.127-0.902-6.11-2.073-8.952-3.5c-2.84-1.434-5.35-3.164-7.531-5.188c-2.179-2.027-3.91-4.359-5.187-7.002
			c-1.275-2.643-1.915-5.663-1.915-9.054c0-2.819,0.463-5.525,1.387-8.123c0.925-2.601,2.17-5.021,3.732-7.267
			c1.563-2.247,3.381-4.34,5.452-6.276c2.068-1.941,4.262-3.68,6.572-5.222c2.314-1.54,4.668-2.873,7.07-3.995
			c2.399-1.124,4.723-2.015,6.968-2.675l0.133-0.332c-1.63-0.704-3.227-1.509-4.79-2.411c-1.563-0.904-2.971-1.973-4.229-3.204
			c-1.252-1.233-2.268-2.631-3.037-4.195c-0.771-1.563-1.156-3.335-1.156-5.317c0-2.246,0.517-4.262,1.552-6.046
			c1.034-1.783,2.347-3.369,3.932-4.756c1.585-1.388,3.323-2.589,5.22-3.601c1.893-1.013,3.72-1.895,5.483-2.643
			c-3.393-1.32-6.42-3.016-9.085-5.089c-2.665-2.068-4.911-4.424-6.738-7.066c-1.828-2.643-3.227-5.517-4.194-8.623
			c-0.971-3.104-1.454-6.353-1.454-9.744c0-5.771,1.123-11.109,3.37-16.021c2.245-4.91,5.273-9.15,9.085-12.718
			c3.807-3.567,8.225-6.364,13.244-8.391c5.021-2.024,10.306-3.037,15.855-3.037c2.114,0,4.052,0.153,5.813,0.462
			c1.762,0.308,3.392,0.693,4.89,1.155c1.497,0.463,2.875,0.97,4.128,1.52c1.257,0.552,2.433,1.091,3.535,1.619
			c1.673,0.837,3.313,1.574,4.921,2.213c1.609,0.64,3.47,0.958,5.583,0.958c1.762,0,3.456-0.286,5.087-0.858
			c1.63-0.572,3.061-1.399,4.295-2.478c1.232-1.079,2.213-2.4,2.941-3.964c0.724-1.563,1.089-3.337,1.089-5.318
			c0-0.308-0.011-0.595-0.032-0.858c-0.024-0.265-0.057-0.573-0.101-0.926l0.858-0.595c3.039,1.409,5.295,3.161,6.772,5.252
			c1.475,2.093,2.213,4.195,2.213,6.31c0,1.674-0.33,3.16-0.991,4.459c-0.66,1.3-1.597,2.411-2.807,3.337
			c-1.214,0.925-2.655,1.63-4.327,2.113c-1.675,0.486-3.525,0.727-5.55,0.727c-3.085,0-6.408-0.615-9.977-1.849L458.398,235.81z
			 M414.928,328.168c-3.128,0.835-6.089,2.048-8.886,3.632c-2.799,1.587-5.275,3.514-7.432,5.782
			c-2.161,2.267-3.864,4.855-5.122,7.762c-1.253,2.907-1.882,6.078-1.882,9.514c0,4.228,0.936,7.871,2.808,10.936
			c1.872,3.059,4.295,5.603,7.267,7.63c2.975,2.023,6.288,3.522,9.943,4.493c3.654,0.966,7.267,1.453,10.835,1.453
			c4.844,0,9.467-0.739,13.873-2.213c4.404-1.479,8.269-3.525,11.595-6.146c3.325-2.619,5.968-5.715,7.927-9.283
			c1.96-3.567,2.94-7.464,2.94-11.691c0-2.379-0.484-4.417-1.452-6.112c-0.971-1.694-2.304-3.171-3.998-4.426
			c-1.695-1.256-3.712-2.324-6.045-3.205c-2.335-0.88-4.889-1.695-7.663-2.443c-3.745-1.016-7.697-1.939-11.858-2.774
			C423.615,330.237,419.332,329.268,414.928,328.168z M428.537,288.197c2.377,0,4.526-0.405,6.441-1.221
			c1.917-0.813,3.621-1.905,5.12-3.271c1.496-1.363,2.774-2.96,3.831-4.789c1.058-1.828,1.926-3.743,2.611-5.748
			c0.68-2.005,1.189-4.051,1.518-6.144c0.332-2.092,0.496-4.107,0.496-6.046c0-2.421-0.21-4.878-0.628-7.366
			c-0.42-2.488-1.047-4.898-1.883-7.233c-0.838-2.335-1.906-4.514-3.202-6.54c-1.301-2.025-2.81-3.8-4.527-5.318
			c-1.719-1.52-3.679-2.72-5.88-3.602c-2.202-0.88-4.647-1.32-7.334-1.32c-2.509,0-4.767,0.396-6.771,1.188
			c-2.004,0.792-3.778,1.873-5.318,3.238c-1.541,1.365-2.852,2.938-3.932,4.723c-1.079,1.784-1.958,3.679-2.642,5.682
			c-0.684,2.005-1.189,4.041-1.519,6.111c-0.331,2.07-0.495,4.053-0.495,5.945c0,2.424,0.219,4.9,0.66,7.433
			c0.44,2.533,1.101,4.966,1.981,7.301c0.88,2.333,1.991,4.536,3.336,6.606c1.343,2.069,2.907,3.875,4.692,5.417
			c1.781,1.541,3.797,2.753,6.045,3.633C423.384,287.76,425.849,288.197,428.537,288.197z"/>
	</defs>
	<clipPath id="SVGID_10_">
		<use xlink:href="#SVGID_9_"  overflow="visible"/>
	</clipPath>
	<path clip-path="url(#SVGID_10_)" fill="none" stroke="#000000" stroke-width="32" d="M473.485,210.283
		c0,0,16.43,32.214-29.316,20.295c-45.744-11.92-47.032,23.193-48.32,28.993c-1.29,5.798,10.631,23.517,14.496,26.416
		c3.865,2.898,8.375,5.153,8.777,5.233c0.403,0.082-21.824,9.987-20.616,16.27c1.208,6.281,39.3,23.838,60.804,25.529
		s-3.141,39.624-8.215,42.04c-5.074,2.417-43.006,19.331-65.072-6.926c-20.207-24.043,30.765-43.489,29.562-44.454
		c-0.565-0.452-15.951-11.922-12.568-16.27c3.382-4.35,2.175-5.074,2.175-5.074c1.751-2.596,5.023-9.561,20.535-10.631
		c14.015-0.967,35.759-15.463,30.927-35.516c-4.832-20.055-7.384-22.619-13.099-25.769"/>
</g>
<g>
	<defs>
		<path id="SVGID_11_" d="M492.62,319.845c0.308-4.185,0.604-8.776,0.892-13.775c0.285-4.998,0.551-10.186,0.792-15.557
			c0.241-5.375,0.465-10.847,0.66-16.419c0.201-5.572,0.374-11.021,0.528-16.351c0.156-5.329,0.288-10.449,0.396-15.36
			c0.109-4.911,0.187-9.414,0.232-13.51c0-1.322,0.285-2.401,0.859-3.238c0.571-0.835,1.276-1.496,2.113-1.981
			c0.836-0.484,1.738-0.814,2.709-0.99c0.968-0.177,1.851-0.265,2.643-0.265c1.672,0,3.191,0.187,4.559,0.562
			c1.365,0.375,2.686,0.87,3.964,1.486c-0.616,3.437-1.169,7.389-1.652,11.858c-0.484,4.472-0.956,9.261-1.421,14.369
			c-0.461,5.109-0.902,10.438-1.321,15.988c-0.419,5.548-0.871,11.12-1.353,16.715l0.396,0.064
			c3.347-11.363,6.938-20.942,10.768-28.738c3.833-7.795,7.731-14.104,11.693-18.927c3.965-4.823,7.906-8.291,11.827-10.406
			c3.919-2.112,7.663-3.169,11.231-3.169c2.464,0,4.843,0.462,7.134,1.387c2.291,0.924,4.327,2.4,6.112,4.427
			c1.782,2.025,3.203,4.634,4.261,7.828c1.057,3.193,1.585,7.059,1.585,11.594c0,1.321-0.077,3.095-0.232,5.318
			c-0.154,2.225-0.341,4.702-0.56,7.432c-0.221,2.731-0.475,5.628-0.761,8.688c-0.287,3.063-0.54,6.068-0.76,9.018
			c-0.221,2.952-0.407,5.761-0.563,8.424c-0.154,2.665-0.229,4.989-0.229,6.971c0,3.437,0.141,6.233,0.43,8.389
			c0.285,2.159,0.759,3.866,1.42,5.121c0.66,1.256,1.54,2.114,2.643,2.576c1.101,0.462,2.443,0.694,4.029,0.694
			c2.291,0,4.668-0.32,7.135-0.958c2.466-0.639,4.955-1.528,7.466-2.678l1.255,3.437c-1.585,1.279-3.59,2.578-6.012,3.9
			c-2.424,1.32-4.966,2.532-7.629,3.631c-2.667,1.103-5.319,1.992-7.962,2.677c-2.643,0.683-4.978,1.022-7.003,1.022
			c-2.378,0-4.251-0.639-5.615-1.914c-1.366-1.277-2.391-3.016-3.072-5.221c-0.685-2.2-1.125-4.777-1.32-7.728
			c-0.2-2.952-0.299-6.124-0.299-9.513c0-4.142,0.142-8.402,0.431-12.786c0.285-4.381,0.604-8.555,0.958-12.52
			c0.35-3.964,0.67-7.563,0.956-10.801c0.286-3.236,0.431-5.823,0.431-7.762c0-5.153-0.971-8.952-2.907-11.396
			c-1.938-2.444-4.515-3.668-7.729-3.668c-2.556,0-5.242,1.081-8.06,3.238c-2.82,2.158-5.627,5.121-8.425,8.886
			c-2.797,3.766-5.48,8.215-8.06,13.346c-2.574,5.13-4.899,10.68-6.968,16.647c-2.071,5.969-3.789,12.213-5.154,18.729
			c-1.366,6.52-2.226,13.039-2.576,19.555l-13.808,1.719L492.62,319.845z"/>
	</defs>
	<clipPath id="SVGID_12_">
		<use xlink:href="#SVGID_11_"  overflow="visible"/>
	</clipPath>
	<path clip-path="url(#SVGID_12_)" fill="none" stroke="#000000" stroke-width="27" d="M502.799,206.418
		c0,0-1.61,93.743-5.798,109.206s27.704-90.843,54.12-84.723c26.417,6.12-3.509,86.58,16.43,84.723
		c19.938-1.856,38.013-13.063,38.013-14.906"/>
</g>
<g>
	<defs>
		<path id="SVGID_13_" d="M714.003,320.373c-1.234-8.37-2.731-17.033-4.493-25.997c-1.763-8.963-3.699-17.979-5.813-27.055
			c-1.188,2.688-2.556,5.562-4.096,8.623c-1.542,3.061-3.183,6.21-4.921,9.446c-1.742,3.237-3.558,6.497-5.451,9.777
			c-1.896,3.283-3.777,6.476-5.647,9.58c-1.874,3.105-3.725,6.066-5.55,8.886c-1.829,2.818-3.558,5.373-5.187,7.664l-7.202-0.792
			c-0.572-4.229-1.245-8.667-2.014-13.314c-0.771-4.645-1.598-9.337-2.478-14.07c-0.882-4.735-1.796-9.393-2.743-13.972
			c-0.948-4.582-1.894-8.931-2.838-13.05c-0.951-4.118-1.863-7.904-2.743-11.363c-0.882-3.456-1.697-6.396-2.444-8.818
			c-0.883-2.818-1.709-5.108-2.477-6.872c-0.772-1.76-1.565-3.126-2.379-4.095c-0.817-0.97-1.686-1.63-2.61-1.982
			s-1.981-0.528-3.172-0.528c-1.409,0-2.917,0.154-4.523,0.462c-1.608,0.308-3.535,0.727-5.781,1.256l-0.992-4.757
			c5.903-2.114,11.011-3.733,15.328-4.856c4.314-1.122,7.398-1.684,9.249-1.684c1.1,0,2.147,0.198,3.137,0.594
			c0.992,0.396,1.927,1.08,2.809,2.048c0.88,0.969,1.738,2.291,2.577,3.964c0.836,1.675,1.65,3.788,2.444,6.343
			c0.572,1.849,1.232,4.162,1.981,6.937c0.747,2.775,1.529,5.891,2.344,9.349c0.816,3.458,1.663,7.189,2.545,11.198
			c0.88,4.007,1.738,8.17,2.577,12.484c0.836,4.318,1.64,8.711,2.41,13.181c0.77,4.472,1.465,8.908,2.081,13.313
			c0.97-1.498,2.092-3.349,3.37-5.549c1.276-2.203,2.609-4.582,3.998-7.136c1.386-2.556,2.774-5.187,4.16-7.896
			c1.39-2.709,2.676-5.341,3.866-7.896c1.188-2.552,2.223-4.93,3.104-7.133c0.88-2.202,1.519-4.074,1.915-5.617
			c0.265-1.057,0.452-2.102,0.563-3.137c0.108-1.035,0.165-2.059,0.165-3.073c0-1.364-0.09-2.829-0.264-4.393
			c-0.179-1.563-0.408-3.138-0.693-4.723c-0.289-1.586-0.607-3.172-0.959-4.757c-0.353-1.586-0.706-3.083-1.057-4.493
			c-0.311-1.188-0.464-2.136-0.464-2.841c0-1.409,0.452-2.499,1.354-3.271c0.901-0.77,2.412-1.155,4.525-1.155
			c1.409,0,2.851,0.188,4.327,0.562c1.477,0.375,2.853,0.892,4.13,1.552c1.407,5.462,2.85,11.198,4.326,17.21
			s2.93,12.09,4.361,18.234c1.43,6.145,2.785,12.244,4.063,18.3c1.275,6.056,2.421,11.88,3.435,17.476
			c3.083-4.89,6.11-9.888,9.085-14.999c2.971-5.107,5.613-10.206,7.929-15.294c2.31-5.086,4.171-10.14,5.581-15.16
			c1.408-5.021,2.113-9.91,2.113-14.668c0-1.98-0.132-3.907-0.396-5.78c-0.264-1.871-0.717-3.666-1.353-5.385
			c-0.64-1.717-1.511-3.347-2.61-4.888c-1.103-1.541-2.489-2.973-4.163-4.294l0.728-1.587c0.793-0.087,1.563-0.153,2.313-0.198
			c0.747-0.042,1.475-0.066,2.18-0.066c5.857,0,10.184,1.389,12.981,4.163c2.797,2.774,4.195,6.63,4.195,11.562
			c0,3.744-0.738,7.983-2.214,12.717c-1.476,4.736-3.436,9.702-5.878,14.898c-2.446,5.197-5.21,10.493-8.292,15.889
			c-3.085,5.396-6.242,10.625-9.481,15.69c-3.235,5.065-6.406,9.833-9.514,14.303c-3.103,4.472-5.868,8.378-8.29,11.728
			L714.003,320.373z"/>
	</defs>
	<clipPath id="SVGID_14_">
		<use xlink:href="#SVGID_13_"  overflow="visible"/>
	</clipPath>
	<path clip-path="url(#SVGID_14_)" fill="none" stroke="#000000" stroke-width="42" d="M619.256,234.443
		c0,0,38.656-14.656,39.945,7.411c1.289,22.065,12.727,69.114,11.114,75.308s40.59-53.079,33.502-79.497
		c-7.088-26.416,15.786,71.194,15.463,76.026s77.636-93.422,11.274-99.864"/>
</g>
<g>
	<defs>
		<path id="SVGID_15_" d="M773.395,280.206c0-4.449,0.463-8.963,1.388-13.544s2.289-9.018,4.096-13.313
			c1.805-4.295,4.039-8.324,6.707-12.09c2.663-3.767,5.734-7.058,9.216-9.877c3.479-2.818,7.354-5.043,11.627-6.673
			c4.271-1.628,8.918-2.443,13.938-2.443c5.638,0,10.625,1.188,14.963,3.566c4.338,2.38,7.983,5.517,10.935,9.415
			c2.951,3.897,5.186,8.335,6.707,13.312c1.518,4.979,2.278,10.064,2.278,15.262c0,4.448-0.463,8.962-1.387,13.541
			c-0.926,4.584-2.304,9.02-4.13,13.313c-1.828,4.294-4.074,8.325-6.739,12.09c-2.665,3.766-5.736,7.06-9.215,9.877
			c-3.481,2.819-7.356,5.042-11.628,6.673c-4.273,1.628-8.918,2.443-13.939,2.443c-5.638,0-10.627-1.189-14.963-3.568
			c-4.339-2.377-7.973-5.516-10.902-9.413s-5.152-8.333-6.67-13.313C774.154,290.488,773.395,285.402,773.395,280.206z
			 M789.185,273.928c0,2.997,0.231,6.036,0.692,9.116c0.465,3.085,1.178,6.058,2.148,8.921c0.969,2.862,2.169,5.538,3.601,8.026
			c1.429,2.488,3.126,4.658,5.086,6.508c1.959,1.851,4.164,3.304,6.606,4.361c2.445,1.057,5.142,1.585,8.093,1.585
			c3.215,0,6.045-0.694,8.491-2.081c2.443-1.389,4.557-3.227,6.342-5.519c1.781-2.287,3.258-4.909,4.425-7.859
			c1.167-2.953,2.104-6.002,2.809-9.15c0.704-3.149,1.198-6.266,1.487-9.349c0.285-3.083,0.429-5.922,0.429-8.523
			c0-3.038-0.232-6.087-0.693-9.149c-0.463-3.061-1.179-6.012-2.147-8.852c-0.971-2.842-2.171-5.506-3.602-7.994
			c-1.432-2.488-3.127-4.646-5.085-6.476c-1.962-1.826-4.163-3.269-6.606-4.326c-2.446-1.059-5.144-1.587-8.094-1.587
			c-3.217,0-6.045,0.685-8.49,2.049c-2.442,1.367-4.557,3.194-6.342,5.483c-1.782,2.291-3.26,4.912-4.425,7.862
			c-1.169,2.95-2.105,5.99-2.81,9.116c-0.705,3.128-1.2,6.243-1.486,9.349C789.326,268.544,789.185,271.375,789.185,273.928z"/>
	</defs>
	<clipPath id="SVGID_16_">
		<use xlink:href="#SVGID_15_"  overflow="visible"/>
	</clipPath>
	<path clip-path="url(#SVGID_16_)" fill="none" stroke="#000000" stroke-width="20" d="M809.804,213.827
		c0,0-37.047,37.369-26.093,74.737c10.953,37.368,51.222,44.779,63.141-12.242c11.917-57.021-60.564-56.053-70.873-39.624"/>
</g>
<g>
	<defs>
		<path id="SVGID_17_" d="M880.09,319.909l-1.058-0.064c0.352-4.185,0.682-8.744,0.991-13.678c0.309-4.931,0.595-9.941,0.858-15.028
			c0.265-5.088,0.494-10.129,0.695-15.129c0.195-4.999,0.371-9.667,0.528-14.006c0.153-4.338,0.264-8.226,0.328-11.66
			c0.067-3.436,0.101-6.145,0.101-8.126c0-1.629-0.065-3.039-0.198-4.229c-0.133-1.188-0.432-2.179-0.892-2.972
			c-0.464-0.792-1.137-1.376-2.017-1.751c-0.881-0.374-2.069-0.562-3.566-0.562c-0.749,0-1.52,0.044-2.313,0.132
			c-0.793,0.089-1.674,0.221-2.642,0.396c-0.971,0.177-2.061,0.408-3.271,0.694c-1.212,0.286-2.608,0.628-4.194,1.024l-0.991-4.758
			c7.311-2.643,13.233-4.502,17.771-5.582c4.535-1.078,7.597-1.618,9.183-1.618c2.907,0,4.988,0.848,6.242,2.542
			c1.257,1.696,1.885,4.219,1.885,7.565c0,0.309-0.047,1.211-0.133,2.709c-0.089,1.497-0.21,3.446-0.363,5.847
			c-0.156,2.4-0.343,5.187-0.563,8.357s-0.474,6.573-0.758,10.206c-0.289,3.635-0.607,7.422-0.959,11.363
			c-0.354,3.941-0.727,7.874-1.124,11.794l0.662,0.064c2.113-8.631,4.501-16.681,7.166-24.146c2.665-7.464,5.659-13.95,8.985-19.455
			c3.326-5.506,6.98-9.832,10.967-12.982c3.986-3.148,8.358-4.723,13.114-4.723c1.673,0,3.237,0.264,4.691,0.792
			s2.708,1.267,3.765,2.213c1.059,0.948,1.895,2.07,2.511,3.37s0.926,2.72,0.926,4.261c0,1.982-0.432,3.888-1.288,5.715
			c-0.86,1.827-2.214,3.446-4.063,4.854h-0.529c-1.849-1.54-3.599-2.652-5.252-3.335c-1.65-0.683-3.402-1.024-5.252-1.024
			c-1.981,0-3.898,0.375-5.747,1.124c-1.851,0.748-3.548,1.827-5.088,3.235c-2.51,2.291-4.846,5.318-7.002,9.085
			c-2.159,3.766-4.13,7.938-5.913,12.519c-1.785,4.583-3.394,9.392-4.824,14.436s-2.665,9.955-3.699,14.732
			c-1.034,4.779-1.872,9.271-2.511,13.478c-0.638,4.207-1.088,7.741-1.354,10.602L880.09,319.909z"/>
	</defs>
	<clipPath id="SVGID_18_">
		<use xlink:href="#SVGID_17_"  overflow="visible"/>
	</clipPath>
	<path clip-path="url(#SVGID_18_)" fill="none" stroke="#000000" stroke-width="63" d="M855.249,234.767
		c0,0,39.599-20.94,36.057,14.818c-3.544,35.759-8.973,69.082-8.973,69.082S921.818,194.148,946.419,240"/>
</g>
<g>
	<defs>
		<path id="SVGID_19_" d="M986.783,275.646c5.286-1.76,10.109-3.764,14.469-6.011c4.36-2.245,8.114-4.646,11.266-7.201
			c3.146-2.554,5.581-5.241,7.299-8.061c1.718-2.818,2.577-5.703,2.577-8.653c0-1.233-0.231-2.368-0.696-3.403
			c-0.459-1.034-1.078-1.915-1.849-2.642c-0.771-0.728-1.675-1.289-2.708-1.687c-1.035-0.396-2.146-0.594-3.337-0.594
			c-2.773,0-5.647,0.859-8.621,2.577c-2.972,1.718-5.924,4.206-8.853,7.465c-2.93,3.26-5.78,7.245-8.555,11.958
			s-5.352,10.063-7.73,16.054c-2.378,5.99-4.515,12.576-6.407,19.753c-1.896,7.179-3.415,14.843-4.56,22.989l-13.344,1.719
			l-1.059-0.064c0.265-5.199,0.562-10.935,0.893-17.211c0.329-6.276,0.682-12.938,1.059-19.986
			c0.371-7.043,0.768-14.39,1.188-22.031c0.417-7.641,0.835-15.426,1.253-23.354c0.419-7.927,0.849-15.921,1.289-23.98
			s0.868-16.021,1.29-23.883c0.417-7.86,0.825-15.558,1.221-23.09c0.396-7.53,0.771-14.732,1.124-21.603
			c0.043-1.058,0.351-1.971,0.925-2.741c0.571-0.771,1.31-1.387,2.212-1.851c0.902-0.462,1.927-0.803,3.073-1.023
			c1.144-0.221,2.333-0.331,3.567-0.331c2.643,0,5.417,0.705,8.324,2.115c-1.014,9.028-1.916,17.309-2.709,24.84
			c-0.793,7.53-1.511,14.523-2.146,20.976c-0.64,6.452-1.223,12.486-1.752,18.103c-0.528,5.615-1.001,10.988-1.419,16.119
			c-0.421,5.131-0.817,10.152-1.189,15.063c-0.375,4.911-0.739,9.898-1.091,14.963c-0.353,5.065-0.717,10.306-1.091,15.725
			c-0.374,5.416-0.782,11.229-1.222,17.439l0.397,0.067c1.585-5.241,3.455-10.415,5.614-15.527
			c2.158-5.107,4.537-9.962,7.136-14.565c2.597-4.602,5.394-8.853,8.391-12.75c2.993-3.899,6.121-7.256,9.381-10.076
			c3.258-2.818,6.627-5.03,10.107-6.639c3.479-1.607,7.003-2.41,10.57-2.41c2.247,0,4.315,0.362,6.21,1.089s3.534,1.762,4.924,3.105
			c1.384,1.343,2.465,2.962,3.234,4.854c0.77,1.895,1.157,4.01,1.157,6.343c0,3.656-0.793,7.201-2.378,10.637
			c-1.586,3.436-3.832,6.738-6.739,9.91c-2.907,3.17-6.398,6.177-10.471,9.018c-4.074,2.841-8.602,5.472-13.576,7.896
			c2.95,5.417,5.604,10.053,7.96,13.905c2.354,3.855,4.491,7.092,6.41,9.712c1.914,2.619,3.643,4.702,5.186,6.243
			c1.539,1.542,2.961,2.708,4.259,3.5c1.3,0.793,2.522,1.313,3.668,1.554c1.144,0.244,2.29,0.364,3.437,0.364
			c2.288,0,4.667-0.353,7.134-1.057c2.465-0.706,4.955-1.631,7.466-2.775l1.255,3.436c-1.586,1.276-3.59,2.575-6.012,3.896
			c-2.424,1.32-4.987,2.533-7.697,3.636c-2.707,1.098-5.395,1.99-8.06,2.674c-2.666,0.682-5.01,1.025-7.036,1.025
			c-2.378,0-4.746-0.872-7.103-2.611c-2.355-1.738-4.889-4.438-7.596-8.092c-2.711-3.655-5.694-8.291-8.952-13.907
			c-3.26-5.615-7.003-12.321-11.231-20.118L986.783,275.646z"/>
	</defs>
	<clipPath id="SVGID_20_">
		<use xlink:href="#SVGID_19_"  overflow="visible"/>
	</clipPath>
	<path clip-path="url(#SVGID_20_)" fill="none" stroke="#000000" stroke-width="43" d="M970.553,121.371
		c0,0-5.476,177.181-8.375,190.71c-2.898,13.53,24.159-94.066,63.139-79.57c0,0,24.712,13.168-29.945,44.737
		c0,0,16.635,44.264,34.777,38.215c19.973-6.657,34.954-10.953,34.954-10.953"/>
</g>
</svg>
