<?xml version="1.0" encoding="utf-8"?>
<!-- Generator: Adobe Illustrator 16.0.0, SVG Export Plug-In . SVG Version: 6.00 Build 0)  -->
<!DOCTYPE svg PUBLIC "-//W3C//DTD SVG 1.1//EN" "http://www.w3.org/Graphics/SVG/1.1/DTD/svg11.dtd">
<svg version="1.1" id="Layer_1" xmlns="http://www.w3.org/2000/svg" xmlns:xlink="http://www.w3.org/1999/xlink" x="0px" y="0px"
	 width="747px" height="393px" viewBox="0 0 747 393" enable-background="new 0 0 747 393" xml:space="preserve">
<g>
	<g>
		<defs>
			<path id="SVGID_1_" d="M183.966,311.147c-3.86-2.828-5.79-7.975-5.79-15.441c0.513-15.953,3.087-32.553,7.72-49.797
				c-1.291,2.064-3.089,5.211-5.405,9.459c-2.315,4.246-4.119,7.4-5.404,9.457c-15.96,23.16-28.439,37.443-37.444,42.85
				c-11.581,7.459-20.718,8.617-27.407,3.473c-3.348-2.828-4.892-7.975-4.633-15.441c0-22.129,3.86-43.486,11.581-64.078
				c-3.606,5.15-9.138,12.545-16.598,22.195c-7.468,9.65-11.328,14.607-11.581,14.861c-1.805,2.576-2.703,2.318-2.703-0.771
				c0-2.057,0.64-3.859,1.93-5.404c14.409-19.301,26.377-36.412,35.9-51.34c9.265-1.285,15.308-3.215,18.143-5.791
				c2.829-2.57,4.246-2.83,4.246-0.771c0,1.031-0.386,2.061-1.157,3.086c-4.633,6.949-9.911,20.074-15.827,39.375
				c-5.924,19.303-8.879,33.525-8.879,42.656c0,9.137,2.315,13.703,6.949,13.703c9.517,0,23.161-14.148,40.918-42.463
				c3.86-6.176,8.878-15.309,15.055-27.406c6.176-12.094,10.163-19.555,11.966-22.389c9.005-1.285,14.989-3.215,17.951-5.791
				c2.955-2.57,4.438-2.83,4.438-0.771c0.254,1.031,0,2.061-0.771,3.086c-4.632,6.695-9.65,19.754-15.055,39.182
				c-5.404,19.436-8.106,33.719-8.106,42.85c0,9.137,2.702,13.703,8.106,13.703c2.57,0,6.176-1.025,10.809-3.088
				c4.632-2.057,9.391-5.531,14.282-10.422c17.239-17.498,29.591-36.414,37.058-56.746c4.633-12.352,5.531-21.357,2.703-27.021
				c-1.291-2.057-2.896-3.406-4.826-4.053c-1.93-0.639-2.19-1.479-0.772-2.508c1.412-1.025,2.569-1.546,3.474-1.546
				c0.898,0,1.605,0,2.124,0c10.29,2.575,15.44,8.241,15.44,16.985c0,3.861-1.031,8.365-3.088,13.512
				c-5.664,14.668-14.608,29.596-26.828,44.777c-12.227,15.188-24.964,26.637-38.216,34.357
				C201.011,315.396,190.914,316.552,183.966,311.147z"/>
		</defs>
		<clipPath id="SVGID_2_">
			<use xlink:href="#SVGID_1_"  overflow="visible"/>
		</clipPath>
		<path clip-path="url(#SVGID_2_)" fill="none" d="M183.966,311.147c-3.86-2.828-5.79-7.975-5.79-15.441
			c0.513-15.953,3.087-32.553,7.72-49.797c-1.291,2.064-3.089,5.211-5.405,9.459c-2.315,4.246-4.119,7.4-5.404,9.457
			c-15.96,23.16-28.439,37.443-37.444,42.85c-11.581,7.459-20.718,8.617-27.407,3.473c-3.348-2.828-4.892-7.975-4.633-15.441
			c0-22.129,3.86-43.486,11.581-64.078c-3.606,5.15-9.138,12.545-16.598,22.195c-7.468,9.65-11.328,14.607-11.581,14.861
			c-1.805,2.576-2.703,2.318-2.703-0.771c0-2.057,0.64-3.859,1.93-5.404c14.409-19.301,26.377-36.412,35.9-51.34
			c9.265-1.285,15.308-3.215,18.143-5.791c2.829-2.57,4.246-2.83,4.246-0.771c0,1.031-0.386,2.061-1.157,3.086
			c-4.633,6.949-9.911,20.074-15.827,39.375c-5.924,19.303-8.879,33.525-8.879,42.656c0,9.137,2.315,13.703,6.949,13.703
			c9.517,0,23.161-14.148,40.918-42.463c3.86-6.176,8.878-15.309,15.055-27.406c6.176-12.094,10.163-19.555,11.966-22.389
			c9.005-1.285,14.989-3.215,17.951-5.791c2.955-2.57,4.438-2.83,4.438-0.771c0.254,1.031,0,2.061-0.771,3.086
			c-4.632,6.695-9.65,19.754-15.055,39.182c-5.404,19.436-8.106,33.719-8.106,42.85c0,9.137,2.702,13.703,8.106,13.703
			c2.57,0,6.176-1.025,10.809-3.088c4.632-2.057,9.391-5.531,14.282-10.422c17.239-17.498,29.591-36.414,37.058-56.746
			c4.633-12.352,5.531-21.357,2.703-27.021c-1.291-2.057-2.896-3.406-4.826-4.053c-1.93-0.639-2.19-1.479-0.772-2.508
			c1.412-1.025,2.569-1.546,3.474-1.546c0.898,0,1.605,0,2.124,0c10.29,2.575,15.44,8.241,15.44,16.985
			c0,3.861-1.031,8.365-3.088,13.512c-5.664,14.668-14.608,29.596-26.828,44.777c-12.227,15.188-24.964,26.637-38.216,34.357
			C201.011,315.396,190.914,316.552,183.966,311.147z"/>
		<path clip-path="url(#SVGID_2_)" fill="none" stroke="#000000" stroke-miterlimit="10" d="M81.333,272.833
			c0,0,26.667-26.834,43.935-58.301L136,213.499c0,0-28.5,58.334-21.5,86.668c7,28.332,52.667-26,53.667-31
			s32.667-50.334,32.667-50.334s-25.667,78.279-3.667,89.473s125.667-103.473,46.667-117.139"/>
	</g>
	<g>
		<defs>
			<path id="SVGID_3_" d="M493.555,213.87c-2.315-6.43-7.272-9.65-14.861-9.65c-7.594,0-16.731,5.15-27.407,15.441
				c-10.682,10.297-19.494,20.717-26.442,31.268c15.693-28.82,24.319-44.133,25.863-45.938c1.544-1.797,2.25-3.215,2.124-4.246
				c-0.134-1.025-0.453-1.545-0.966-1.545c-0.519,0-1.803,0.906-3.86,2.703c-2.063,1.805-9.523,3.607-22.39,5.406
				c-9.234,13.361-22.253,30.514-39.051,51.439c-0.104,0.086-0.208,0.172-0.322,0.285c-14.416,19.047-30.111,28.566-47.096,28.566
				c4.373-4.113,9.265-9.777,14.669-16.984c13.897-20.074,20.846-37.059,20.846-50.955c0-10.037-5.151-15.055-15.441-15.055
				c-9.525,0-21.105,4.246-34.742,12.736c-12.872,7.469-23.807,17.633-32.812,30.498c-14.157,19.561-21.231,36.672-21.231,51.34
				c0,9.012,5.271,13.512,15.827,13.512c18.011,0,34.223-6.689,48.639-20.074c2.316,0.26,4.632,0.387,6.949,0.387
				c15.393,0,29.259-7.756,41.603-23.236c0.207-0.221,0.432-0.498,0.673-0.826c0.163-0.209,0.322-0.436,0.485-0.648
				c10.986-14.539,23.236-29.076,36.759-43.615c-3.088,7.209-9.138,22.135-18.143,44.777c-4.633,11.842-8.56,21.619-11.773,29.34
				c-3.221,7.721-5.405,12.738-6.563,15.053c-1.158,2.318-1.098,3.477,0.192,3.477c0.254,0,2.703-0.773,7.335-2.318
				c4.632-1.543,7.721-2.314,9.265-2.314l8.106-21.617c6.949-17.758,17.178-34.416,30.688-49.99
				c13.511-15.568,23.934-23.354,31.269-23.354c7.333,0,11.001,5.922,11.001,17.756c0,2.316-0.26,4.891-0.772,7.721
				c0.254,0.26,0.513,0.518,0.772,0.771c1.797-0.254,3.088-1.025,3.86-2.316c1.284-1.285,3.342-5.145,6.176-11.58
				c0.513-1.543,1.025-3.533,1.545-5.984c0.513-2.441,0.771-4.438,0.771-5.982S494.58,215.161,493.555,213.87z M317.915,294.935
				c-2.575,2.576-6.049,5.084-10.422,7.527c-4.379,2.449-8.367,3.666-11.967,3.666c-4.633,0-6.949-4.438-6.949-13.316
				s5.532-22.449,16.6-40.727c5.916-10.549,12.159-19.232,18.722-26.057c6.562-6.814,12.027-11.059,16.406-12.736
				c4.373-1.67,7.335-2.51,8.878-2.51c4.633,0,6.949,3.088,6.949,9.264c0,12.354-4.379,25.803-13.125,40.34
				C334.254,274.929,325.889,286.442,317.915,294.935z"/>
		</defs>
		<clipPath id="SVGID_4_">
			<use xlink:href="#SVGID_3_"  overflow="visible"/>
		</clipPath>
		<g clip-path="url(#SVGID_4_)">
			<path fill="none" stroke="#000000" stroke-miterlimit="10" d="M364,196.333c0,0-59.5,27.334-77.667,70.334
				c-25.807,61.084,25.474,48.736,52,12.666c67.167-91.333-8.723-66.564,2-68.834"/>
			<path fill="none" stroke="#000000" stroke-miterlimit="10" d="M331.46,287.733c0,0,26.607,5.395,40.665-9.359
				c13.875-14.563,53.625-62.875,53.625-62.875l10.75-5l-13.5,31l-28.5,69.5c0,0,37.167-77.832,58.25-87
				c7.947-3.455,38.25-31.999,34,6.75L482,256.265"/>
		</g>
	</g>
	<g>
		<defs>
			<path id="SVGID_5_" d="M586.967,203.448c5.66,0,8.495,2.189,8.495,6.563c0,3.348-1.033,6.82-3.089,10.422
				c-2.063,3.605-3.416,5.984-4.054,7.143c-0.646,1.156-1.159,1.994-1.543,2.508c-0.388,0.52-0.966,0.58-1.739,0.193
				c-0.771-0.387-1.156-0.832-1.156-1.352c0-4.887-3.993-7.334-11.968-7.334c-7.979,0-18.143,6.436-30.495,19.301
				c5.403,29.598,10.677,48.387,15.826,56.359c2.058,3.348,5.79,5.018,11.196,5.018c9.775-0.252,26.76-15.953,50.954-47.094
				c1.025,1.291,1.35,2.77,0.965,4.439c-0.387,1.678-2.257,4.572-5.597,8.686c-12.613,15.959-24.453,28.313-35.517,37.057
				c-6.946,5.666-13.895,8.492-20.844,8.492s-12.485-2.182-16.6-6.561c-4.378-5.916-9.522-22.391-15.44-49.412
				c-15.7,19.822-25.736,36.287-30.109,49.412c-1.29,3.088-4.765,4.824-10.423,5.211c-5.662,0.385-8.492-0.326-8.492-2.123
				c0-0.512,0.513-1.865,1.544-4.053c1.025-2.186,4.373-9.777,10.036-22.775c5.657-12.992,9.586-21.871,11.774-26.637
				c2.185-4.758,5.724-12.605,10.616-23.547c4.885-10.936,9.004-19.748,12.352-26.443c13.125-24.957,22.257-42.074,27.409-51.34
				c12.093-21.87,26.634-40.659,43.618-56.358c16.986-15.695,33.712-23.548,50.183-23.548c4.114,0,7.781,1.098,11.003,3.281
				c3.214,2.189,4.825,5.344,4.825,9.457v11.195c0,1.031-0.578,1.544-1.736,1.544c-1.159,0-1.737-0.254-1.737-0.771
				c0-6.948-4.893-10.423-14.669-10.423c-9.784,0-19.301,1.869-28.567,5.598c-9.264,3.732-17.242,9.203-23.933,16.405
				c-6.695,7.208-13.77,16.599-21.231,28.18c-16.983,26.249-37.057,70.388-60.218,132.405c5.916-7.975,11.447-14.922,16.599-20.844
				c-0.52-4.375,0.32-7.977,2.509-10.811c2.185-2.83,4.438-5.465,6.756-7.914c2.315-2.441,3.86-4.18,4.632-5.211l1.158,6.564
				C560.332,213.743,575.899,203.448,586.967,203.448z"/>
		</defs>
		<clipPath id="SVGID_6_">
			<use xlink:href="#SVGID_5_"  overflow="visible"/>
		</clipPath>
		<path clip-path="url(#SVGID_6_)" fill="none" stroke="#000000" stroke-miterlimit="10" d="M533.049,246.229
			c0,0,5.207,61.428,27.951,61.596c30.75,0.229,60-61.076,74.5-61.826l-42-17.5c-2.75-44.749-55.25,11-55.25,11l-8.5,11
			c-3.25,1-44.25,55.5-44.25,55.5s41-99.25,48.75-106.799c7.75-7.548,23-74.95,76-106.45s50.448,18,50.448,18"/>
	</g>
</g>
</svg>
