<?xml version="1.0" encoding="utf-8"?>
<!-- Generator: Adobe Illustrator 16.0.0, SVG Export Plug-In . SVG Version: 6.00 Build 0)  -->
<!DOCTYPE svg PUBLIC "-//W3C//DTD SVG 1.1//EN" "http://www.w3.org/Graphics/SVG/1.1/DTD/svg11.dtd">
<svg version="1.1" id="Layer_1" xmlns="http://www.w3.org/2000/svg" xmlns:xlink="http://www.w3.org/1999/xlink" x="0px" y="0px"
	 width="600px" height="300px" viewBox="0 0 600 300" enable-background="new 0 0 600 300" xml:space="preserve">
<text transform="matrix(1 0 0 1 -39 -78.9995)" font-family="'Gabriola'" font-size="126">Graphic Design</text>
<g>
	<defs>
		<path id="SVGID_1_" d="M128.612,252.783c-1.636-11.098-3.623-22.592-5.958-34.481c-2.337-11.886-4.907-23.848-7.711-35.884
			c-1.578,3.564-3.389,7.376-5.434,11.437c-2.045,4.062-4.221,8.237-6.528,12.53c-2.308,4.294-4.718,8.617-7.229,12.97
			c-2.513,4.352-5.01,8.587-7.493,12.706c-2.483,4.118-4.937,8.047-7.36,11.785c-2.425,3.74-4.718,7.127-6.879,10.165l-9.552-1.052
			c-0.76-5.608-1.651-11.492-2.672-17.657c-1.022-6.162-2.118-12.384-3.286-18.664c-1.169-6.279-2.381-12.457-3.637-18.533
			c-1.257-6.075-2.513-11.844-3.769-17.307c-1.257-5.462-2.468-10.486-3.636-15.071c-1.169-4.586-2.25-8.485-3.242-11.699
			c-1.169-3.738-2.265-6.776-3.286-9.114c-1.022-2.335-2.074-4.147-3.155-5.433c-1.082-1.284-2.234-2.161-3.461-2.629
			c-1.227-0.467-2.629-0.701-4.206-0.701c-1.871,0-3.871,0.206-6.003,0.614c-2.131,0.409-4.688,0.964-7.667,1.665l-1.314-6.309
			c7.829-2.804,14.604-4.951,20.33-6.44c5.725-1.49,9.814-2.234,12.268-2.234c1.459,0,2.848,0.263,4.162,0.788
			c1.314,0.526,2.555,1.432,3.725,2.717c1.167,1.285,2.307,3.038,3.417,5.258c1.109,2.221,2.191,5.024,3.243,8.412
			c0.758,2.454,1.635,5.521,2.628,9.202c0.993,3.681,2.029,7.813,3.111,12.399c1.081,4.586,2.205,9.538,3.374,14.853
			c1.167,5.317,2.307,10.837,3.417,16.562c1.109,5.727,2.176,11.554,3.199,17.482c1.021,5.93,1.941,11.815,2.76,17.657
			c1.284-1.986,2.774-4.439,4.469-7.361c1.694-2.92,3.462-6.075,5.301-9.464c1.84-3.388,3.681-6.879,5.521-10.471
			c1.84-3.594,3.549-7.084,5.126-10.473c1.578-3.388,2.949-6.541,4.119-9.464c1.168-2.92,2.016-5.402,2.541-7.448
			c0.351-1.401,0.599-2.789,0.745-4.162c0.145-1.372,0.219-2.729,0.219-4.075c0-1.81-0.118-3.753-0.351-5.827
			c-0.234-2.073-0.541-4.162-0.92-6.265c-0.38-2.104-0.803-4.206-1.27-6.31c-0.469-2.103-0.935-4.088-1.402-5.958
			c-0.409-1.578-0.613-2.833-0.613-3.768c0-1.869,0.598-3.315,1.796-4.338c1.197-1.021,3.198-1.534,6.002-1.534
			c1.869,0,3.782,0.25,5.74,0.745c1.957,0.497,3.781,1.183,5.477,2.06c1.869,7.244,3.782,14.853,5.74,22.827
			c1.957,7.974,3.884,16.036,5.784,24.186c1.897,8.149,3.694,16.242,5.389,24.273c1.694,8.032,3.212,15.759,4.557,23.177
			c4.089-6.483,8.106-13.113,12.049-19.892c3.943-6.776,7.448-13.538,10.515-20.285c3.067-6.748,5.535-13.451,7.405-20.111
			c1.869-6.659,2.804-13.144,2.804-19.453c0-2.629-0.175-5.184-0.525-7.667c-0.351-2.482-0.951-4.863-1.797-7.142
			c-0.847-2.278-2.001-4.439-3.461-6.484c-1.461-2.044-3.301-3.943-5.521-5.696l0.963-2.104c1.052-0.116,2.073-0.204,3.067-0.263
			c0.993-0.058,1.957-0.087,2.892-0.087c7.769,0,13.509,1.84,17.219,5.52c3.709,3.681,5.565,8.793,5.565,15.335
			c0,4.967-0.979,10.59-2.936,16.869c-1.958,6.279-4.557,12.867-7.798,19.76c-3.243,6.894-6.909,13.919-10.998,21.074
			c-4.09,7.157-8.281,14.095-12.575,20.813c-4.294,6.719-8.5,13.042-12.619,18.971c-4.119,5.931-7.785,11.115-10.997,15.555
			L128.612,252.783z"/>
	</defs>
	<clipPath id="SVGID_2_">
		<use xlink:href="#SVGID_1_"  overflow="visible"/>
	</clipPath>
	<g clip-path="url(#SVGID_2_)">
	</g>
	<path clip-path="url(#SVGID_2_)" fill="none" stroke="#000000" d="M0.162,141.76c0,0,48.319-32.396,56.555,16.473
		c8.236,48.867,13.178,81.812,13.178,85.655s53.26-58.202,43.926-99.382c-9.334-41.181,24.708,78.859,20.865,99.553
		c-3.844,20.694,110.364-131.949,8.785-132.498"/>
</g>
<g>
	<defs>
		<path id="SVGID_3_" d="M207.39,199.506c0-5.899,0.613-11.888,1.84-17.964c1.227-6.075,3.037-11.962,5.433-17.656
			c2.395-5.696,5.359-11.041,8.895-16.036c3.534-4.995,7.608-9.361,12.224-13.101c4.614-3.738,9.755-6.689,15.422-8.851
			c5.666-2.161,11.83-3.242,18.489-3.242c7.478,0,14.093,1.577,19.849,4.732c5.753,3.155,10.588,7.317,14.502,12.487
			c3.912,5.17,6.879,11.057,8.894,17.658c2.016,6.602,3.023,13.349,3.023,20.241c0,5.9-0.613,11.889-1.841,17.964
			c-1.227,6.076-3.053,11.961-5.477,17.656c-2.425,5.697-5.403,11.042-8.938,16.036c-3.536,4.995-7.61,9.363-12.224,13.101
			c-4.616,3.739-9.757,6.689-15.422,8.851c-5.667,2.161-11.83,3.242-18.49,3.242c-7.479,0-14.095-1.577-19.848-4.731
			c-5.755-3.155-10.575-7.317-14.459-12.487c-3.886-5.17-6.835-11.055-8.851-17.657C208.397,213.147,207.39,206.399,207.39,199.506z
			 M228.333,191.182c0,3.974,0.307,8.004,0.92,12.093s1.563,8.032,2.848,11.83c1.284,3.797,2.877,7.347,4.776,10.646
			c1.898,3.301,4.147,6.178,6.748,8.631c2.599,2.454,5.521,4.382,8.763,5.783c3.242,1.402,6.82,2.104,10.734,2.104
			c4.264,0,8.018-0.92,11.26-2.761c3.242-1.84,6.046-4.278,8.412-7.316c2.366-3.036,4.323-6.513,5.871-10.428
			c1.547-3.913,2.79-7.959,3.725-12.136c0.934-4.177,1.591-8.311,1.972-12.399c0.379-4.09,0.569-7.856,0.569-11.305
			c0-4.031-0.307-8.075-0.92-12.137c-0.614-4.059-1.564-7.975-2.848-11.741c-1.286-3.769-2.878-7.303-4.776-10.604
			c-1.899-3.3-4.148-6.163-6.747-8.588c-2.6-2.423-5.521-4.338-8.763-5.739c-3.243-1.402-6.822-2.104-10.735-2.104
			c-4.265,0-8.018,0.907-11.26,2.717c-3.243,1.812-6.047,4.236-8.413,7.273c-2.366,3.039-4.324,6.514-5.871,10.427
			c-1.548,3.914-2.79,7.946-3.724,12.093c-0.936,4.149-1.592,8.281-1.972,12.4C228.521,184.04,228.333,187.794,228.333,191.182z"/>
	</defs>
	<clipPath id="SVGID_4_">
		<use xlink:href="#SVGID_3_"  overflow="visible"/>
	</clipPath>
	<path clip-path="url(#SVGID_4_)" fill="none" stroke="#000000" d="M265.365,116.502l-3.69,12.08c0,0-41.883,6.025-45.178,58.743
		c-3.294,52.719,58.202,90.057,80.165,32.403c21.963-57.653-1.647-86.863-31.846-90.048"/>
</g>
<g>
	<defs>
		<path id="SVGID_5_" d="M348.909,252.17l-1.402-0.087c0.468-5.55,0.905-11.596,1.314-18.139s0.79-13.188,1.14-19.937
			c0.351-6.746,0.657-13.435,0.92-20.066c0.263-6.63,0.496-12.822,0.701-18.576c0.204-5.754,0.351-10.911,0.438-15.467
			c0.087-4.558,0.131-8.149,0.131-10.779c0-2.16-0.088-4.031-0.263-5.608s-0.569-2.892-1.183-3.943
			c-0.613-1.052-1.505-1.825-2.673-2.322c-1.17-0.496-2.746-0.745-4.732-0.745c-0.994,0-2.015,0.058-3.067,0.175
			c-1.051,0.118-2.22,0.293-3.504,0.526c-1.286,0.234-2.731,0.541-4.338,0.92c-1.608,0.381-3.461,0.833-5.564,1.358l-1.314-6.309
			c9.696-3.505,17.555-5.973,23.571-7.405c6.017-1.431,10.078-2.147,12.181-2.147c3.855,0,6.616,1.125,8.281,3.374
			c1.664,2.25,2.498,5.595,2.498,10.034c0,0.41-0.06,1.607-0.176,3.592c-0.118,1.987-0.278,4.572-0.481,7.755
			c-0.206,3.185-0.454,6.879-0.746,11.085s-0.628,8.72-1.007,13.539c-0.381,4.819-0.804,9.844-1.271,15.072
			c-0.469,5.229-0.964,10.441-1.489,15.641l0.876,0.088c2.804-11.449,5.972-22.126,9.507-32.027
			c3.534-9.902,7.506-18.504,11.918-25.807c4.409-7.302,9.258-13.042,14.546-17.219c5.287-4.176,11.085-6.266,17.395-6.266
			c2.219,0,4.294,0.351,6.221,1.052c1.929,0.701,3.593,1.68,4.995,2.936c1.402,1.257,2.511,2.747,3.33,4.469
			c0.817,1.724,1.228,3.608,1.228,5.652c0,2.629-0.57,5.156-1.71,7.58c-1.139,2.425-2.936,4.572-5.389,6.441h-0.7
			c-2.454-2.044-4.776-3.519-6.967-4.425c-2.19-0.905-4.514-1.358-6.968-1.358c-2.628,0-5.169,0.497-7.622,1.49
			c-2.454,0.994-4.704,2.425-6.748,4.294c-3.33,3.039-6.427,7.054-9.289,12.049c-2.862,4.994-5.476,10.53-7.843,16.605
			c-2.365,6.076-4.498,12.458-6.396,19.146c-1.898,6.689-3.535,13.202-4.906,19.54c-1.374,6.341-2.484,12.299-3.33,17.876
			c-0.849,5.58-1.446,10.269-1.798,14.065L348.909,252.17z"/>
	</defs>
	<clipPath id="SVGID_6_">
		<use xlink:href="#SVGID_5_"  overflow="visible"/>
	</clipPath>
	<path clip-path="url(#SVGID_6_)" fill="none" stroke="#000000" d="M315.961,137.916l3.763-0.549c0,0,44.476-14.276,44.476,1.098
		c0,15.375-9.335,104.874-9.335,104.874l6.314-1.373c0,0,41.604-172.684,75.71-84.283"/>
</g>
<g>
	<defs>
		<path id="SVGID_7_" d="M490.429,193.46c7.01-2.336,13.407-4.995,19.19-7.975s10.763-6.162,14.941-9.551
			c4.176-3.388,7.403-6.951,9.683-10.691c2.277-3.738,3.418-7.564,3.418-11.479c0-1.635-0.308-3.14-0.921-4.513
			c-0.613-1.372-1.433-2.542-2.453-3.505c-1.023-0.964-2.221-1.709-3.593-2.235c-1.374-0.525-2.849-0.789-4.426-0.789
			c-3.681,0-7.492,1.139-11.436,3.417s-7.857,5.579-11.741,9.901c-3.887,4.324-7.668,9.611-11.349,15.861
			c-3.681,6.252-7.099,13.35-10.252,21.294c-3.155,7.945-5.989,16.679-8.5,26.201c-2.513,9.521-4.528,19.688-6.047,30.494
			l-17.701,2.277l-1.401-0.087c0.351-6.893,0.744-14.502,1.183-22.827c0.438-8.325,0.905-17.16,1.402-26.508
			c0.495-9.346,1.021-19.088,1.577-29.224c0.555-10.134,1.108-20.461,1.664-30.977s1.125-21.118,1.71-31.809
			c0.583-10.69,1.152-21.25,1.708-31.678c0.555-10.428,1.096-20.636,1.621-30.626c0.526-9.989,1.021-19.541,1.49-28.654
			c0.058-1.402,0.467-2.613,1.227-3.637c0.758-1.021,1.737-1.84,2.936-2.454c1.196-0.613,2.556-1.065,4.075-1.358
			c1.519-0.292,3.095-0.438,4.731-0.438c3.506,0,7.186,0.935,11.041,2.804c-1.345,11.976-2.541,22.958-3.592,32.948
			c-1.053,9.99-2.003,19.265-2.849,27.822c-0.848,8.559-1.622,16.562-2.322,24.01c-0.701,7.448-1.329,14.576-1.884,21.381
			c-0.556,6.806-1.082,13.466-1.578,19.979c-0.496,6.514-0.979,13.131-1.445,19.847c-0.469,6.719-0.95,13.67-1.445,20.855
			c-0.498,7.187-1.038,14.896-1.621,23.134l0.525,0.088c2.103-6.951,4.585-13.815,7.448-20.592
			c2.861-6.777,6.017-13.217,9.463-19.323c3.447-6.104,7.156-11.741,11.13-16.912c3.973-5.17,8.119-9.624,12.443-13.363
			c4.322-3.738,8.791-6.673,13.407-8.807c4.613-2.132,9.288-3.199,14.02-3.199c2.98,0,5.725,0.482,8.237,1.446
			c2.512,0.964,4.688,2.337,6.529,4.119c1.84,1.782,3.271,3.929,4.293,6.44c1.021,2.513,1.533,5.316,1.533,8.413
			c0,4.849-1.051,9.551-3.154,14.107c-2.103,4.558-5.082,8.939-8.938,13.146c-3.855,4.205-8.486,8.192-13.889,11.96
			c-5.404,3.769-11.406,7.26-18.008,10.473c3.913,7.185,7.434,13.334,10.56,18.445c3.124,5.112,5.959,9.406,8.5,12.881
			c2.541,3.477,4.834,6.237,6.879,8.281c2.044,2.046,3.928,3.592,5.651,4.645c1.723,1.051,3.344,1.738,4.863,2.059
			c1.519,0.322,3.037,0.481,4.557,0.481c3.037,0,6.192-0.466,9.464-1.401c3.271-0.934,6.572-2.161,9.902-3.681l1.665,4.557
			c-2.103,1.695-4.763,3.418-7.975,5.17c-3.213,1.753-6.615,3.36-10.208,4.819c-3.593,1.46-7.157,2.643-10.691,3.549
			c-3.534,0.905-6.646,1.359-9.332,1.359c-3.154,0-6.296-1.154-9.42-3.462c-3.126-2.307-6.484-5.885-10.077-10.734
			c-3.593-4.848-7.551-10.997-11.874-18.445c-4.324-7.449-9.288-16.344-14.896-26.683L490.429,193.46z"/>
	</defs>
	<clipPath id="SVGID_8_">
		<use xlink:href="#SVGID_7_"  overflow="visible"/>
	</clipPath>
	<path clip-path="url(#SVGID_8_)" fill="none" stroke="#000000" d="M447.842,2.294c0,0,29.467-19.217,22.878,58.751
		s-14.825,182.842-14.825,182.842s38.984-118.27,76.871-111.022c37.886,7.248-7.757,54.261-31.298,62.155
		c0,0,27.536,43.936,35.873,50.696c0,0,51.979-8.055,60.765-23.429"/>
</g>
</svg>
