<?xml version="1.0" encoding="utf-8"?>
<!-- Generator: Adobe Illustrator 16.0.0, SVG Export Plug-In . SVG Version: 6.00 Build 0)  -->
<!DOCTYPE svg PUBLIC "-//W3C//DTD SVG 1.1//EN" "http://www.w3.org/Graphics/SVG/1.1/DTD/svg11.dtd">
<svg version="1.1" id="Layer_1" xmlns="http://www.w3.org/2000/svg" xmlns:xlink="http://www.w3.org/1999/xlink" x="0px" y="0px"
	 width="1000px" height="376.5px" viewBox="0 0 1000 376.5" enable-background="new 0 0 1000 376.5" xml:space="preserve">
<text transform="matrix(1 0 0 1 1375.7031 -204.9292)" font-family="'Allura-Regular'" font-size="107">So yeon</text>
<g>
	<defs>
		<path id="SVGID_1_" d="M943.416,203.319c-1.251-0.625-2.502,0.523-3.754,3.441c-17.938,36.082-32.22,54.117-42.855,54.117
			c-3.964,0-5.943-2.707-5.943-8.133c0-13.764,12.825-43.169,38.477-88.214c-1.046-0.416-2.19-0.626-3.441-0.626
			c-5.215,0-13.451,3.08-24.713,9.229c-11.261,6.153-20.909,12.825-28.936,20.02c-8.03,7.195-16.945,16.843-26.745,28.936
			c17.518-35.035,30.133-54.635,37.851-58.81c-1.672,0.42-4.223,0.313-7.664-0.313c-3.441-0.626-5.582-0.938-6.413-0.938
			c-4.379,0-7.82,1.251-10.322,3.753c-4.083,3.924-11.587,16.708-22.516,38.343c-0.553,0.209-0.98,0.606-1.256,1.229
			c-0.421,0.938-1.618,3.548-3.598,7.82c-1.984,4.277-3.598,7.562-4.849,9.854c-1.251,2.297-3.235,5.895-5.943,10.792
			c-2.713,4.902-7.195,10.587-13.451,17.048c-5.005,5.631-10.323,8.446-15.954,8.446c-7.092,0-11.994-2.605-14.702-7.821
			c11.677-11.051,20.436-23.354,26.276-36.912c4.585-10.01,6.882-19.395,6.882-28.154c0-19.185-7.614-28.779-22.835-28.779
			c-10.221,0-21.013,5.113-32.377,15.328c-11.369,10.221-20.177,22.63-26.433,37.226c-0.66,1.441-1.26,2.865-1.825,4.279
			c-14.718,31.554-30.999,47.336-48.848,47.336c-4.8,0-8.5-1.721-11.105-5.162c-2.609-3.441-3.91-8.08-3.91-13.92
			c0-8.759,1.457-16.682,4.38-23.774c4.379,0,10.738-1.408,19.082-4.223c8.338-2.815,14.805-5.992,19.395-9.541
			c15.015-11.467,22.522-23.461,22.522-35.974c0-3.543-1.774-6.774-5.317-9.697c-3.754-2.502-7.82-3.753-12.2-3.753
			s-8.969,1.046-13.764,3.128c-10.011,4.174-18.877,10.792-26.59,19.864c-7.718,9.072-13.817,18.877-18.3,29.405
			c-0.994,2.333-1.859,4.634-2.633,6.912c-6.605,12.399-11.829,21.315-15.662,26.716c-10.431,14.81-25.446,25.133-45.046,30.969
			c2.918-8.134,7.141-20.333,12.669-36.6c5.523-16.267,10.113-29.297,13.764-39.103c3.646-9.8,7.039-17.566,10.167-23.305
			c3.128-5.733,7.4-10.479,12.825-14.233h-16.892c-5.841,0-9.908,2.19-12.2,6.569c-17.938,37.123-34.308,64.338-49.112,81.646
			c-7.092,8.343-12.62,12.513-16.579,12.513c-2.713,0-4.849-0.938-6.413-2.815c-1.563-1.877-2.346-5.108-2.346-9.697
			c0-4.585,2.292-11.78,6.882-21.584c11.262-23.979,20.646-42.436,28.153-55.369c1.877-3.333,4.692-6.256,8.446-8.759
			c1.667-1.251,2.708-2.083,3.128-2.503H561.79c-6.051,0-10.117,2.19-12.199,6.569c-4.59,9.385-10.431,20.856-17.519,34.41
			l-5.63,10.948c-1.462,3.338-0.523,5.005,2.815,5.005c-1.672,2.712-3.651,6.466-5.944,11.261c-0.42,1.251-1.251,3.285-2.502,6.1
			c-1.252,2.815-1.931,4.849-2.033,6.1c-0.107,1.251-0.367,3.338-0.782,6.256c-0.421,2.923-0.21,5.113,0.625,6.569
			c1.877,9.385,8.446,14.076,19.708,14.076c8.339,0,16.579-4.271,24.713-12.825c8.133-8.549,18.246-23.461,30.343-44.733
			c-10.431,33.784-19.395,57.245-26.902,70.384c-5.005,1.457-16.267,4.326-33.784,8.603c-17.518,4.272-31.595,8.915-42.23,13.921
			c-14.179,6.461-23.979,15.015-29.405,25.65c-3.128,6.882-4.692,13.031-4.692,18.456c0,5.421,2.502,10.06,7.507,13.921
			c5.005,3.856,12.097,5.787,21.271,5.787c17.728,0,34.2-6.257,49.425-18.77c16.267-13.764,32.426-35.246,48.486-64.439
			c11.467-4.175,20.646-8.085,27.528-11.731c6.882-3.651,13.139-8.603,18.77-14.858c5.63-6.257,10.215-12.356,13.764-18.3
			c0.662-1.11,1.32-2.256,1.979-3.402c-0.071,1.195-0.106,2.381-0.106,3.559c0,9.384,2.918,16.789,8.759,22.21
			c5.836,5.426,12.929,8.133,21.271,8.133c15.642,0,28.779-7.297,39.415-21.897c2.33-3.04,4.648-6.544,6.954-10.495
			c-0.036,0.79-0.076,1.581-0.076,2.361c0,19.189,7.61,28.779,22.836,28.779c8.134,0,16.995-3.544,26.59-10.636
			c4.795,5.426,11.467,8.133,20.021,8.133c4.584,0,9.486-1.563,14.702-4.691c2.064-1.241,4.236-2.996,6.514-5.265
			c-3.139,6.521-5.523,11.414-7.143,14.649c1.462-0.836,4.487-1.359,9.072-1.564c4.585-0.211,7.664-0.577,9.228-1.096
			c1.564-0.518,2.972-1.822,4.224-3.91c13.969-27.527,28.466-48.173,43.481-61.938c10.01-9.384,16.784-14.077,20.333-14.077
			c3.544,0,5.318,1.095,5.318,3.285c0,2.189-1.149,5.161-3.441,8.915c-9.385,15.015-15.123,25.861-17.205,32.533
			c-2.087,6.677-3.128,12.356-3.128,17.048c0,4.692,1.041,8.397,3.128,11.105c3.959,5.841,9.746,8.759,17.361,8.759
			c7.61,0,15.221-4.223,22.836-12.669c7.61-8.446,16.94-23.823,27.997-46.141c0.831-1.457,1.251-2.708,1.251-3.753
			C945.293,204.78,944.668,203.945,943.416,203.319z M687.852,184.237c11.887-14.39,20.748-21.584,26.589-21.584
			c3.334,0,5.005,2.087,5.005,6.256c0,10.846-5.738,21.169-17.204,30.969c-5.006,4.174-10.9,7.508-17.675,10.01
			c-6.779,2.502-11.94,3.754-15.484,3.754C674.503,202.801,680.759,192.996,687.852,184.237z M553.97,301.23
			c-10.431,14.18-22.522,27.475-36.287,39.885c-13.764,12.405-26.692,18.612-38.789,18.612c-4.379,0-8.025-1.046-10.948-3.128
			c-2.918-2.087-4.38-5.059-4.38-8.915c0-3.861,1.149-8.085,3.441-12.669c5.841-11.472,15.436-20.129,28.779-25.965
			c8.969-3.963,30.657-10.43,65.066-19.395L553.97,301.23z M762.298,236.791c0,5.425,1.667,10.533,5.005,15.328
			c-6.467,5.63-12.308,8.446-17.518,8.446c-7.303,0-10.948-4.795-10.948-14.39c0-9.589,3.646-21.897,10.948-36.912
			c6.046-12.928,12.928-23.148,20.646-30.656c7.713-7.508,14.39-11.261,20.021-11.261c7.713,0,11.574,5.112,11.574,15.328
			c0,10.221-2.609,20.646-7.82,31.282c-4.59,9.595-8.656,17-12.2,22.21c0.416-1.667,0.626-3.285,0.626-4.849
			c0-1.564-0.89-3.285-2.659-5.162c-1.773-1.877-4.018-2.815-6.726-2.815C766.364,223.339,762.713,227.826,762.298,236.791z"/>
	</defs>
	<clipPath id="SVGID_2_">
		<use xlink:href="#SVGID_1_"  overflow="visible"/>
	</clipPath>
	<path clip-path="url(#SVGID_2_)" fill="none" stroke="#000000" stroke-width="18" stroke-miterlimit="10" d="M575,144
		c0,0-36.5,65-39.75,75.25s-21.75,41.758,3.75,43.504s49.5-55.504,61.75-70.254s14.431-32.082,25.167-30.5
		c0,0-20,38.833-33.417,74.833c-13.771,36.951-45,128.667-114,125.167c0,0-23,0.834-16.667-23.333s41.833-38.666,55.833-40.833
		c0,0,81.478-20.515,100.083-35.08c17.826-13.955,32.752-42.164,32.752-42.164S687.75,218.5,714.5,193
		c28.664-27.325-4.873-54.284-35.916-10.5s-28.583,60.999-15.417,76.833s41.834-0.166,53.667-20.5s15.416-56.083,15.416-59.583
		c0,0,22.5-37.75,39-40.75l44,7l16.5,6.5l-5,34.25l-4.25,15.25l-8.5,23.25l-14,19.75l-18.75-3.25c0,0,36.75-41.5,21-70.25
		c-16.17-29.516-54.6,19.647-57.661,24.907s-5.469,10.831-6.922,16.483C728,250,728.695,260.098,741.5,262.754
		s34.75-6.254,35.75-24.504s-11.698-10.441-8.991,2s11.741,22,18.991,21.5s42-8.25,25.5-43.5l19-66.25l35-6.5l6.916,4.833
		l-58.333,112.881c0,0,61.667-89.881,102.667-90.881c0,0-49,68-34,86.667s35.667-10.333,44-26s26.666-48.333,26.666-48.333"/>
</g>
<g>
	<defs>
		<path id="SVGID_3_" d="M324.686,54.731c0-7.298-3.338-14.18-10.01-20.646c-9.595-9.174-22.835-13.764-39.728-13.764
			c-14.81,0-31.179,3.236-49.112,9.697c-9.384,3.338-17.518,7.928-24.399,13.764c-10.636,9.179-15.954,18.354-15.954,27.528
			c0,12.308,7.821,23.359,23.461,33.159c5.836,3.548,17.567,9.335,35.192,17.361c17.621,8.031,30.5,14.546,38.633,19.551
			c12.302,7.507,20.802,15.538,25.495,24.087c4.692,8.553,7.038,16.477,7.038,23.774c0,10.431-3.441,21.066-10.323,31.907
			c-12.097,19.395-29.825,36.081-53.179,50.051c-26.902,16.267-59.333,24.399-97.286,24.399c-36.497,0-65.486-9.281-86.963-27.84
			c-16.687-14.18-25.025-32.426-25.025-54.743c0-14.18,5.162-29.82,15.485-46.923C68.332,148.996,81,136.899,96.016,129.807
			c3.128-1.251,5.474-1.667,7.038-1.251c1.564,0.42,0.259,2.4-3.91,5.943c-8.969,7.092-16.164,14.913-21.584,23.461
			c-11.682,18.354-17.518,38.271-17.518,59.748c0,14.185,3.959,26.59,11.887,37.225c14.18,18.975,38.79,29.718,73.825,32.221
			c3.959,0.415,9.854,0.625,17.674,0.625c7.82,0,18.456-1.407,31.907-4.223s26.433-7.459,38.946-13.92
			c26.902-14.18,44.313-32.533,52.24-55.056c2.503-6.672,3.754-13.139,3.754-19.395c0-14.179-6.364-26.692-19.082-37.538
			c-6.882-5.42-20.91-12.669-42.074-21.741c-21.169-9.072-35.402-16.002-42.7-20.802c-16.061-10.841-24.087-23.667-24.087-38.477
			c0-12.928,7.195-25.543,21.584-37.851C204.563,21.259,233.758,12.5,271.506,12.5c17.723,0,32.167,2.659,43.325,7.977
			c11.154,5.318,17.987,13.295,20.49,23.931c0.416,2.087,0.625,4.174,0.625,6.256c0,8.133-3.754,15.436-11.261,21.897
			c-5.215,4.174-12.2,7.507-20.959,10.01c-3.754,1.046-5.841,0.626-6.256-1.251c-0.42-2.708,2.19-4.379,7.821-5.005
			c10.01-1.251,16.159-6.256,18.456-15.015C324.373,59.007,324.686,56.818,324.686,54.731z"/>
	</defs>
	<clipPath id="SVGID_4_">
		<use xlink:href="#SVGID_3_"  overflow="visible"/>
	</clipPath>
	<path clip-path="url(#SVGID_4_)" fill="none" stroke="#000000" stroke-width="39" stroke-miterlimit="10" d="M288,84
		c0,0,55-6,40-43S198.333,6,174.333,66.333S313,125.334,301,188.667S254.5,275,185,289S60.451,268.637,53,231
		c-7.451-37.636,22.58-105.104,78-110.5"/>
</g>
<g>
	<defs>
		<path id="SVGID_5_" d="M399.444,157.647c15.221,0,22.836,9.595,22.836,28.779c0,8.759-2.297,18.144-6.882,28.154
			c-5.841,13.559-14.6,25.861-26.277,36.912c2.708,5.215,7.61,7.821,14.702,7.821c5.631,0,10.949-2.815,15.954-8.446
			c6.256-6.461,10.738-12.146,13.451-17.048c2.708-4.897,4.692-8.495,5.943-10.792c1.251-2.292,2.864-5.577,4.849-9.854
			c1.979-4.272,3.177-6.882,3.598-7.82c0.415-0.938,1.144-1.408,2.189-1.408c2.082-0.206,3.128,0.523,3.128,2.189
			c0,0.626-0.21,1.359-0.626,2.19l-1.877,4.379c-1.251,2.923-2.189,5.005-2.815,6.256c-0.626,1.251-1.721,3.495-3.285,6.726
			c-1.564,3.236-2.923,5.787-4.067,7.664c-1.148,1.877-2.712,4.379-4.692,7.507c-1.984,3.128-3.753,5.631-5.318,7.508
			c-1.564,1.877-3.495,3.964-5.787,6.256c-2.297,2.297-4.487,4.066-6.569,5.318c-5.215,3.128-10.118,4.691-14.703,4.691
			c-8.554,0-15.225-2.707-20.02-8.133c-9.595,7.092-18.457,10.636-26.59,10.636c-15.225,0-22.835-9.59-22.835-28.779
			c0-8.759,2.292-18.144,6.882-28.153c6.256-14.595,15.064-27.005,26.433-37.226C378.432,162.76,389.224,157.647,399.444,157.647z
			 M402.886,167.345c-5.631,0-12.308,3.753-20.021,11.261c-7.718,7.508-14.6,17.728-20.646,30.656
			c-7.302,15.015-10.949,27.323-10.949,36.912c0,9.595,3.646,14.39,10.949,14.39c5.21,0,11.051-2.815,17.518-8.446
			c-3.338-4.795-5.005-9.903-5.005-15.328c0.416-8.964,4.066-13.451,10.949-13.451c2.708,0,4.951,0.938,6.726,2.815
			c1.769,1.877,2.659,3.597,2.659,5.162c0,1.564-0.21,3.182-0.625,4.849c3.543-5.21,7.61-12.616,12.2-22.21
			c5.21-10.636,7.821-21.061,7.821-31.282C414.46,172.458,410.599,167.345,402.886,167.345z"/>
	</defs>
	<clipPath id="SVGID_6_">
		<use xlink:href="#SVGID_5_"  overflow="visible"/>
	</clipPath>
	<path clip-path="url(#SVGID_6_)" fill="none" stroke="#000000" stroke-width="32" stroke-miterlimit="10" d="M402.125,230.875
		c0,0,18.125-20.25,16.813-44.5c-1.744-32.213-28.236-36.498-54.604,1.958c-26.083,38.042-29.82,67.862-14.565,73.673
		c6.544,2.493,35.107,5.127,40.232-25.673c0.41-2.463-1.75-16.083-9-4.333s7,24.5,9.5,26.5s33.5,16.5,58-49.5l7.871-22.25"/>
</g>
</svg>
