<svg id="Ebene_1" data-name="Ebene 1" xmlns="http://www.w3.org/2000/svg" xmlns:xlink="http://www.w3.org/1999/xlink" viewBox="0 0 425.2 48.9">
  <defs>
    <style>
      .cls-1 {
        fill: none;
      }

      .cls-2 {
        fill: #fff;
      }

      .cls-3 {
        clip-path: url(#clip-path);
      }
    </style>
    <clipPath id="clip-path" transform="translate(-2.8 -2.5)">
      <rect class="cls-1" width="430.9" height="53.86"/>
    </clipPath>
  </defs>
  <title>Mercedes-benz</title>
  <rect class="cls-2" x="272.8" y="27.3" width="15.8" height="3.66"/>
  <g class="cls-3">
    <path class="cls-2" d="M12.5,7.5,11.1,44.3v.6c0,3.1.9,3.8,5.8,4.1v1.7l-7-.3-7.1.3V49c5-.3,5.7-.9,5.8-4.7L10.1,9.5V9.1c0-3.3-1-4-5.8-4.3V3.1c2.7.2,3.8.3,5.8.3A51.2,51.2,0,0,0,16.8,3L30,38.8,43.3,3a64.9,64.9,0,0,0,6.8.4l5.6-.3V4.8c-4.8.3-5.8,1-5.8,4.2v.5l.7,34.8c.1,3.8.8,4.4,5.9,4.7v1.7a86.7,86.7,0,0,0-8.9-.5,86.7,86.7,0,0,0-8.9.5V49c4.9-.2,5.9-1,5.9-4.4v-.3L44,7.6,32.3,39.2l-.8,2.3-1,2.7-1,2.6-.7,2.4H27.7l-.8-2.3-1-2.7-1-2.8-.8-2.5Z" transform="translate(-2.8 -2.5)"/>
    <path class="cls-2" d="M74.9,49c-6.5,0-9.3-5-9.4-16H86.6C86.5,22.1,82,16.2,73.7,16.2S59.8,23.1,59.8,34s5.4,17.3,14.5,17.3c6.9,0,11.5-4.3,12.4-11.6H83.9c-.9,6-4,9.3-9,9.3M65.7,30.4c.7-8.1,3.4-12.3,7.9-12.3s6.9,4,7.4,12.3Z" transform="translate(-2.8 -2.5)"/>
    <path class="cls-2" d="M90.8,18.9V17.6a50.6,50.6,0,0,0,9.4-1.6c.3,2.6.5,3.7.6,5.8v.8c1.6-4,4.6-6.4,8.3-6.4s6.2,2.4,6.2,5.8-1.2,3.4-3,3.4a2.6,2.6,0,0,1-2.9-2.4c0-.2.1-.4.1-.7l.2-.7v-.7c0-1-.9-1.7-2.1-1.7-3.7,0-6.1,4.5-6.1,11.5V45.5c0,3,.7,3.6,5.1,3.8v1.4c-3.9-.3-5.4-.4-7.9-.4s-4,.1-7.9.4V49.3c4.3-.2,5.1-.8,5.1-3.8V22.3c-.1-3-.5-3.4-4.1-3.4Z" transform="translate(-2.8 -2.5)"/>
    <path class="cls-2" d="M142.4,15.6V27.3h-1.6c-1.3-6.2-3.9-9.1-8.2-9.1s-8.4,5.7-8.4,15.8,2.7,15,8.2,15,7-3.1,7.8-9.4h2.9c-.9,7.6-4.9,11.7-11.3,11.7-8.2,0-13.8-6.9-13.8-17.3s5.7-17.8,14-17.8a9.3,9.3,0,0,1,7.3,3l1.9-3.6Z" transform="translate(-2.8 -2.5)"/>
    <path class="cls-2" d="M163.2,49c-6.4,0-9.3-5-9.3-16H175c-.2-10.9-4.6-16.8-13-16.8S148.2,23.1,148.2,34s5.3,17.3,14.4,17.3c7,0,11.5-4.3,12.4-11.6h-2.8c-.8,6-4,9.3-9,9.3M154,30.4c.7-8.1,3.4-12.3,7.9-12.3s7,4,7.4,12.3Z" transform="translate(-2.8 -2.5)"/>
    <path class="cls-2" d="M207.9,43.4V2.5a68,68,0,0,1-10.7,1.9V5.6c4.5,0,5,.5,5,4.2V22.2c-2.6-4.3-4.6-5.5-8.5-5.5-7.5,0-12.9,7.1-12.9,17.3s5.4,17.4,13.1,17.4c4.1,0,6.8-1.9,8.8-5.8a27.5,27.5,0,0,0,1,5.6,36.4,36.4,0,0,1,8.3-1.7h1.1V48.2c-4.8-.2-5.2-.5-5.2-4.8m-13.3,6c-5.1,0-7.8-5.3-7.8-15.4s2.5-15.3,7.6-15.3,7.9,5.3,7.9,15.7-2.6,15-7.7,15" transform="translate(-2.8 -2.5)"/>
    <path class="cls-2" d="M230.8,49c-6.5,0-9.3-5-9.4-16h21.1c-.1-10.9-4.6-16.8-12.9-16.8S215.8,23.1,215.8,34s5.3,17.3,14.4,17.3c6.9,0,11.5-4.3,12.4-11.6h-2.8c-.9,6-4,9.3-9,9.3m-9.2-18.6c.7-8.1,3.4-12.3,7.9-12.3s6.9,4,7.4,12.3Z" transform="translate(-2.8 -2.5)"/>
    <path class="cls-2" d="M248.5,51.4V39.5h1.6c1.3,6.4,4.2,9.5,9.2,9.5s7.3-2.7,7.3-6.3-1.3-4.1-4.8-5.6l-2.7-1.2-3.3-1.5C250.7,32,249,30,249,25.9s4.4-9.4,10.7-9.4a12,12,0,0,1,7.2,2.2l1.2-2.9h1.3v11h-1.7c-.6-5.7-2.9-8.4-7.4-8.4s-6.7,2.6-6.7,5.9,1.1,3.8,7.5,6.6l3,1.3c5.4,2.3,7.3,4.6,7.3,8.8,0,5.9-4.7,10.2-11.4,10.2a13,13,0,0,1-8.5-3l-1.7,3.2Z" transform="translate(-2.8 -2.5)"/>
    <path class="cls-2" d="M325,14.8a11.2,11.2,0,0,0-4.3-9c-2.4-1.7-5.2-2.5-9.8-2.5H292.3V5.1c5.1.2,5.8.8,5.8,4.6V44.1c0,3.8-.5,4.3-5.8,4.7v1.7h17.9c5.3,0,8.1-.6,11.1-2.5a13.2,13.2,0,0,0,5.9-11,11.4,11.4,0,0,0-10-11.7c5.1-1.9,7.8-5.5,7.8-10.5M304.1,5.5h6c5.9,0,8.6,2.9,8.6,9.5,0,3.2-.8,5.6-2.4,7.4s-3.4,2.3-7.4,2.3h-4.8Zm6.7,21.4c3.8,0,5.9.7,7.5,2.3s2.6,4.7,2.6,8.1c0,7.1-3.6,11-9.9,11h-2.5c-3.8,0-4.4-.5-4.4-3.7V26.9Z" transform="translate(-2.8 -2.5)"/>
    <path class="cls-2" d="M347.9,49c-6.4,0-9.2-5-9.3-16h21.1c-.1-10.9-4.6-16.8-13-16.8S332.9,23.1,332.9,34s5.3,17.3,14.5,17.3c6.9,0,11.4-4.3,12.4-11.6h-2.9c-.8,6-3.9,9.3-9,9.3m-9.2-18.6c.7-8.1,3.4-12.3,8-12.3s6.9,4,7.3,12.3Z" transform="translate(-2.8 -2.5)"/>
    <path class="cls-2" d="M363.4,19.1V17.9a38.8,38.8,0,0,0,9.4-2.1,39.7,39.7,0,0,1,.7,6.2c2.5-3.8,5.5-5.5,9.6-5.5s7.9,2.2,9.3,5.6a16.4,16.4,0,0,1,1.1,6.4v17c0,3,.7,3.6,5,3.8v1.4c-3.8-.3-5.2-.4-7.7-.4s-4.1.1-7.7.4V49.3c3.8-.1,4.7-.8,4.7-3.7V28.3c0-6.2-1.8-8.7-6.4-8.7s-7.3,3.1-7.3,8.9V45.6c0,2.9.9,3.6,4.6,3.7v1.4c-3.7-.3-5.1-.4-7.7-.4s-3.9.1-7.6.4V49.3c4.3-.2,5-.8,5-3.8v-23c-.1-2.9-.5-3.3-4-3.3h-1" transform="translate(-2.8 -2.5)"/>
    <path class="cls-2" d="M401.3,50.5l19.2-31.6h-8.8c-4.6,0-5.7,1-8.2,7.4H402l1.7-9.2H428L408.8,48.7h8.3c4.8,0,6.8-1.9,8.9-8.4h1.5l-1.9,10.2Z" transform="translate(-2.8 -2.5)"/>
  </g>
</svg>
