<?xml version="1.0" encoding="utf-8"?>
<!-- Generator: Adobe Illustrator 16.0.0, SVG Export Plug-In . SVG Version: 6.00 Build 0)  -->
<!DOCTYPE svg PUBLIC "-//W3C//DTD SVG 1.1//EN" "http://www.w3.org/Graphics/SVG/1.1/DTD/svg11.dtd">
<svg version="1.1" id="Layer_1" xmlns="http://www.w3.org/2000/svg" xmlns:xlink="http://www.w3.org/1999/xlink" x="0px" y="0px"
	 width="1280px" height="800px" viewBox="0 0 1280 800" enable-background="new 0 0 1280 800" xml:space="preserve">
<rect fill="#ECB093" width="1280" height="800"/>
<path fill="#79BB93" d="M-35.95,693.087c0,39.519,0.475,83.639,7.964,121.604c2.39,12.122,2.313,13.099,15.74,15.154
	c16.469,2.524,32.579,3.313,49.079,6.631c19.905,4.008,43.735,8.981,63.435,9.404c5.734-23.446,1.094-46.814-1.209-70.021
	c-2.025-20.412,5.313-46.973-1.275-66.232c-5.932-17.337-49.038-10.666-66.265-12.404c-21.4-2.156-42.778-4.137-64.712-4.137"/>
<path fill="#ECB093" d="M-48.93,231.432c-2.021,19.608,3.51,42.088,5.206,61.792c1.649,19.153,2.588,36.721,7.271,55.441
	c6.227,24.897,10.977,52.495,23.57,75.5c19.605,1.31,39.307,1.618,59.122,1.618c12.754,0,30.296-2.891,41.696,1.24
	c5.754-21.027-9.146-50.908-14.501-71.233c-5.071-19.243-10.173-39.462-16.189-58.234c-4.502-14.044-5.293-61.149-18.239-68.6
	c-7.568-4.357-30-0.283-38.621-0.277c-13.595,0-25.179,1.472-37.979,4.509c-3.426,0.813-6.77,1.64-9.957,2.382"/>
<path fill="#5D8151" d="M1108.658,472.066c-46.488-5.919-92.282-8.318-137.892-18.874c-19.13-4.425-39.785-5.989-58.478-10.295
	c-14.021-3.228-18.026-7.026-23.28,8.229c-4.606,13.374-2.758,29.356-7.691,42.116c75.048,7.842,149.851,12.813,223.132,21.184
	c2.181-12.357,8.799-30.931,5.581-42.186"/>
<path fill="#ECCBC4" d="M266.951,652.804c-0.77,16.593,5.675,34.554,9.341,50.585c3.582,15.658,4.707,32.006,8.54,47.273
	c6.653,26.489,16.061,54.063,18.171,81.118c29.732,1.756,58.371-17.772,86.622-24.263c26.588-6.109,51.081-10.54,78.328-12.952
	c16.203-44.257-9.231-96.528-22.154-135.942c-3.116-9.509-6.737-18.3-10.412-27.876c-5.057-13.18-7.197-14.021-22.362-17.62
	c-22.437-5.316-47.578-10.769-70.274-12.699c-33.042-2.808-57.457,32.124-77.179,52.376"/>
<path fill="#E8754D" d="M873.624,177.439c11.855-17.609,55.288-13.797,74.156-15.131c16.715-1.182,39.471-3.937,51.652-14.477
	c6.991,25.905,20.225,49.26,27.224,75.125c5.244,19.372,10.021,40.041,15.13,59.24c2.468,9.277,7.652,20.851,8.192,30.398
	c0.471,8.362,5.101,4.66-3.949,11.331c-6.051,4.457-19.19,4.791-26.412,6.205c-24.417,4.784-47.64,11.077-71.529,15.5
	c-5.522,1.024-12.068,1.834-17.712,1.178c-10.854-29.407-14.957-59.479-26.153-88.354c-5.439-14.024-9.022-29.249-14.363-43.495
	C885.379,203.022,876.135,190.328,873.624,177.439"/>
<path fill="#EE8F2A" d="M686.987,704.984c-16.813,18.904-48.02,26.539-68.582,40.811c-22.745,15.79-48.537,27.825-72.053,42.893
	c2.531,12.385,12.09,23.18,17.771,34.394c3.445,6.804,9.687,28.521,16.148,31.378c10.921,4.832,45.555-16.824,55.811-21.963
	c17.25-8.644,33.866-17.016,51.115-24.455c17.061-7.359,37.892-9.305,53.014-20.685c-7.565-14.932-15.835-31.565-25.523-45.272
	C705.347,728.867,694.063,719.675,686.987,704.984"/>
<path fill="#8FB4CA" d="M1138.813,255.679c0,26.501-1.45,36.744,4.096,62.024c2.137,9.735,5.588,19.334,6.972,28.947
	c2.079,14.464-0.173,20.839,15.085,23.433c38.008,6.468,80.872,1.38,119.645,1.38c23.592,0,46.794,2.26,70.367,1.203
	c10.046-34.352,14.806-76.584,10.823-112.643c-42.31-2.118-85.337-0.209-127.739-0.209
	C1205.29,259.813,1170.633,253.424,1138.813,255.679"/>
<path fill="#8FB4CA" d="M-25.117,21.621c0,26.501-1.45,36.742,4.096,62.024c2.137,9.735,5.589,19.334,6.971,28.947
	c2.079,14.464-0.174,20.84,15.085,23.433c38.007,6.468,80.873,1.38,119.645,1.38c23.592,0,46.795,2.261,70.368,1.203
	c10.045-34.352,14.806-76.584,10.824-112.644c-42.31-2.118-85.337-0.209-127.741-0.209C41.363,25.755,6.703,19.367-25.117,21.621"/>
<path fill="#B3815C" d="M1042.875,660.931c-30.577,0-60.364,3.575-89.975,6.587c-22.285,2.267-40.17,6.969-52.267,25.08
	c-27.887,41.75,5.982,81.779,45.416,96.864c34.945,13.371,101.665,25.159,132.591-3.372c33.078-30.52,32.578-90.758-6.891-113.781
	c-8.521-4.969-17.805-8.955-27.496-11.378"/>
<path fill="#718ABA" d="M441.382-12.709c-23.571-2.955-41.424,38.032-50,54.477c-11.195,21.464-21.576,43.469-31.67,65.329
	c-10.033,21.726-20.187,42.685-28.601,64.894c-6.252,16.506-16.19,37.373-16.403,54.859c26.3,8.876,55.828,24.502,82.631,27.667
	c12.779-41.412,26.981-84.537,35.771-126.979c5.326-25.72,11.514-50.713,15.194-76.568c2.974-20.912,4.728-41.49,13.61-60.613
	C455.558-12.702,448.532-13.458,441.382-12.709"/>
<path fill="#79BB93" d="M1200.466-54.33c-44.384,0-99.626-6.188-119.919,41.352c-8.145,19.082-11.473,41.395-16.236,60.949
	c-5.543,22.733-2.437,49.538,9.723,69.689c22.656,37.547,84.839,31.879,125.053,27.869c19.478-1.945,46.295-12.893,59.644-25.884
	c18.582-18.083,8.171-41.305,7.899-63.745c-0.322-26.513,3.462-51.807-12.031-73.316c-14.808-20.567-36.24-25.39-55.512-36.914"/>
<path fill="#EEE0DF" d="M578.095,93.187c-13.573,15.052-26.97,45.653-31.24,64.451c-3.709,16.335,7.065,18.073,20.252,28.999
	c12.645,10.476,24.121,21.551,37.45,31.557c42.904,32.211,80.537,69.083,122.843,100.844c8.725,6.55,16.151,15.917,25.382,12.162
	c7.315-2.981,13.605-16.04,19.56-21.517c15.149-13.937,37.036-23.625,50.23-39.592c-31.121-33.39-75.602-63.334-113.855-89.172
	c-40.479-27.337-81.24-55.121-122.889-82.014c-2.566-1.659-5.783-2.869-8.56-4.614"/>
<path fill="#E1B58E" d="M167.34,472.637c0.263-38.776,28.378-75.597,50.73-105.436c11.835-15.8,23.003-33.561,33.313-50.323
	c8.75-14.227,16.56-32.103,30.019-42.583c16.448,35.116,37.294,66.312,55.52,100.439c8.194,15.345,18.34,33.178,25.8,49.967
	c6.813,15.338,24.41,38.857,24.979,54.621c-36.507,1.938-73.936-0.61-110.092-2.549c-33.539-1.798-71.659,0.228-104.757-5.512"/>
<path fill="#020202" d="M639.028-8.024c42.269-3.441,87.492,1.276,130.257,1.38c28.228,0.066,56.343-4.255,84.459-5.585
	c35.182-1.666,72.288-1.551,107.438,0.275c-37.35,24.858-71.946,53.978-104.333,85.019c-17.312,16.594-42.114-2.83-62.137-7.962
	c-19.68-5.047-40.685-10.318-60.501-16.688c-17.946-5.771-36.374-11.613-53.833-20.978c-15.882-8.519-27.749-20.588-41.35-29.947"/>
<path fill="#79BB93" d="M702.425,338.315c-67.105-15.876-139.389-9.608-180.602,45.149c-23.54,31.271-32.438,84.944-16.198,124.084
	c32.953,79.422,147.762,98.169,225.745,98.169c19.164,0,37.863,0.869,54.9-5.75c11.933-21.535,28.073-28.95,22.25-57.655
	c-4.327-21.333-18.15-40.266-26.145-59.274c-8.058-19.158-15.749-39.399-23.819-59.265c-7.536-18.548-19.703-33.29-28.295-51.306
	c-4.86-10.199-9.067-26.63-20.945-30.016"/>
<path fill="#EBB197" d="M1199.518,514.721c16.977-0.094,35.277,8.326,52.786,9.988c12.784,1.218,25.591,0.45,38.487,1.008
	c17.877,0.775,37.273,3.732,54.727,3.003c-12.078,20.601-0.578,58.078-4.367,82.188c-3.896,24.785-9.991,49.723-14.748,74.39
	c-8.263,42.863-12.208,81.035-31.987,120.021c-28.042,1.65-54.322-8.291-81.078-11.856c-17.508-2.335-25.223,3.575-16.653-17.187
	c5.833-14.132,9.52-26.901,12.481-42.347c5.558-28.979,4.071-61.572,6.888-91.057c2.702-28.31,5.951-60.208,0.342-88.172
	c-2.629-13.105-5.715-26.197-8.608-38.597"/>
<path fill="#E8754D" d="M-87.189,530.749c52.733,7.372,166.998-50.736,176.423-43.563c0,0,61.042,101.48,85.58,131.527
	c-42.254,0.639-95.083-34.15-133.103-48.952c-38.497-14.982-83.89-30.401-125.084-35.197"/>
<path fill="#72AEA5" d="M-46.937-176.191c0,16.803-2.566,18.419,16.678,24.946c16.79,5.695,42.094,1.592,59.816,3.222
	c40.771,3.748,81.483,2.715,122.423,4.543c77.876,3.476,156.898,6.034,234.971,6.034c155.405,0,312.372,4.4,467.013-3.034
	c139.858-6.725,281.946-1.466,422.309-1.466c46.381,0,92.819,3.728,139.434,1.495c2.337-42.508-49.304-32.549-81.067-32.549
	c-32.834,0-65.666,0-98.498,0c-65.033,0-126.892,5.777-190.866,5.777c-120.209,0-242.577,4.297-361.966-1.611
	c-119.414-5.909-237.774,4.444-357.156,4.444c-59.927,0-119.971-7.519-178.588-7.528c-59.384-0.008-118.555-1.921-176.569-4.59
	C-39.113-176.974-37.394-179.5-46.937-176.191"/>
</svg>
