<?xml version="1.0" encoding="utf-8"?>
<!-- Generator: Adobe Illustrator 16.0.0, SVG Export Plug-In . SVG Version: 6.00 Build 0)  -->
<!DOCTYPE svg PUBLIC "-//W3C//DTD SVG 1.1//EN" "http://www.w3.org/Graphics/SVG/1.1/DTD/svg11.dtd">
<svg version="1.1" id="Layer_1" xmlns="http://www.w3.org/2000/svg" xmlns:xlink="http://www.w3.org/1999/xlink" x="0px" y="0px"
	 width="1280px" height="86.996px" viewBox="0 0 1280 86.996" enable-background="new 0 0 1280 86.996" xml:space="preserve">
<path fill="#72AEA5" d="M-46.944,14.698c0,16.803-2.405,18.419,15.631,24.946c15.736,5.695,39.451,1.592,56.061,3.222
	c38.212,3.748,76.369,2.715,114.739,4.543c72.988,3.476,147.05,6.034,220.222,6.034c145.65,0,292.765,4.399,437.7-3.034
	c131.08-6.725,264.249-1.466,395.802-1.466c43.47,0,86.993,3.728,130.682,1.494c2.19-42.507-46.209-32.548-75.979-32.548
	c-30.772,0-61.544,0-92.315,0c-60.951,0-118.927,5.777-178.886,5.777c-112.664,0-227.352,4.297-339.246-1.611
	C525.547,16.146,414.616,26.5,302.728,26.5c-56.166,0-112.441-7.519-167.379-7.528c-55.657-0.008-111.113-1.921-165.487-4.59
	C-39.611,13.916-38,11.39-46.944,14.698"/>
</svg>
