<?xml version="1.0" encoding="utf-8"?>
<!-- Generator: Adobe Illustrator 16.0.0, SVG Export Plug-In . SVG Version: 6.00 Build 0)  -->
<!DOCTYPE svg PUBLIC "-//W3C//DTD SVG 1.1//EN" "http://www.w3.org/Graphics/SVG/1.1/DTD/svg11.dtd">
<svg version="1.1" id="Layer_1" xmlns="http://www.w3.org/2000/svg" xmlns:xlink="http://www.w3.org/1999/xlink" x="0px" y="0px"
	 width="274.667px" height="235.333px" viewBox="0 0 274.667 235.333" enable-background="new 0 0 274.667 235.333"
	 xml:space="preserve">
<path fill="#020202" d="M-112.067-52.505c1.856-14.212-20.729-11.312-27.054-5.469c-8.289,7.651-7.385,20.365-17.484,25.88
	c-5.747,3.138-12.156,5.13-19.133,5.522c0.874,1.624,5.215,2.773,7.074,4.151c2.432,1.804,3.98,3.37,6.872,4.489
	c5.133,1.985,11.034,3.434,16.664,1.625c5.035-1.613,8.954-4.799,9.803-9.889c0.997-5.959-0.397-11.318,2.614-16.89
	c1.765-3.263,5.155-7.437,8.524-9.32c2.578-1.445,9.669-3.471,11.75-0.462"/>
<g>
	<path fill="#72AEA5" d="M403.946,115.799c3.05-4.454,7.146-5.867,10.794-7.291c2.655-1.036,4.924-1.273,4.517-4.236
		c-0.284-2.074-1.025-4.688-1.744-6.584c3.869-2.495,6.991-5.919,12.043-6.775c1.082,4.465,3.769,8.407,4.887,12.941
		c-4.611,2.466-10.371,3.854-15.483,5.532c-5.156,1.691-9.447,4.794-14.586,6.289"/>
	<g>
		<path fill="#EBB197" d="M418.517,67.678c6.753-2.143,6.847-0.69,8.75,5.519c1.346,4.398,2.237,9.518,4.229,13.668
			c3.945,8.216,15.183,6.703,21.398,13.51c-6.048,6.979-27.38-0.392-34.382-3.351c-11.235-4.75-2.657-5.24-0.827-10.728
			c1.598-4.793-2.828-12.6-2.175-17.76"/>
		<path fill="#FFFFFF" d="M417.21,87.45c-1.992,1.41,0.551,4.645,1.893,5.494c1.771,1.12,4.166,1.761,6.181,2.42
			c2.167,0.713,4.539,1.177,6.513,2.176c2.088,1.056,4.374,1.761,6.671,1.802c1.614,0.026,2.636-0.488,3.247-1.979
			c0.427-1.042,0.188-3.325-0.869-3.607c4.148-1.685,9.169,2.505,11.734,5.144c1.983,2.041,1.572,3.477-0.901,4.599
			c-2.353,1.063-4.877,1.652-7.365,1.399c-4.35-0.436-8.609-1.041-12.805-1.891c-4.175-0.851-9.027-1.636-13.018-3.042
			c-2.628-0.924-6.179-3.232-7.56-5.642c-1.716-2.996,2.71-6.74,5.605-6.504c0.038,0.187,0.124,0.146,0.24,0.198"/>
	</g>
	<path fill="#FFFFFF" d="M359.431,17.755c-4.205,4.174-1.479,12.493,1.913,16.286c3.676,4.115,9.607,4.891,15.192,5.225
		c5.645,0.337,11.293-0.238,16.555,1.667c5.971,2.159,8.662,6.071,12.497,10.833c5.308,6.593,7.102,22.526,8.922,23.092
		c1.673,0.522,15.052-6.804,19.979-10.255c-0.079-2.48-1.923-5.199-3.041-7.419c-1.366-2.726-1.893-4.917-2.931-7.659
		c-2.114-5.59-6.046-10.69-9.409-15.813c-6.311-9.607-15.199-16.449-25.994-18.956C382.068,12.19,370.086,11.221,359.431,17.755"/>
</g>
<path fill="#E8754D" d="M505.747,182.126c-4.897-15.851-15.904-33.856-33.587-38.146l-0.96,0.467
	c-9.618-4.037-26.688-3.093-36.872-0.91c-8.313,1.78-17.45,7.741-23.464,13.316c-8.721,8.09-14.4,26.196-13.553,41.572
	c0.729,13.229,7.83,28.138,19.67,34.539c13.255,7.173,30.047,8.274,45.584,8.274c8.435,0,14.366-0.192,21.699-3.153
	c6.748-2.73,13.82-6.991,17.774-12.671C510.188,213.721,509.814,195.29,505.747,182.126z M490.33,217.331
	c-3.016,4.328-8.405,7.573-13.543,9.651c-5.592,2.256-10.107,2.404-16.536,2.404c-11.841,0-24.632-0.841-34.732-6.304
	c-9.02-4.879-14.436-16.24-14.991-26.318c-0.644-11.716,0.589-25.382,9.885-32.976c4.851-3.961,11.987-7.493,18.321-8.848
	c7.763-1.662,20.771-2.386,28.1,0.692l0.729-0.354c13.471,3.265,21.861,16.987,25.592,29.066
	C496.256,194.375,496.541,208.419,490.33,217.331z"/>
<path fill="#E8754D" d="M-163.474,215.995c17.146-4.404,36.622-14.308,41.265-30.211l-0.505-0.863
	c4.369-8.653,3.342-24.011,0.983-33.171c-1.924-7.478-8.372-15.696-14.403-21.107c-8.751-7.843-28.335-12.954-44.968-12.189
	c-14.308,0.654-30.433,7.043-37.363,17.695c-7.755,11.923-8.945,27.027-8.945,41.002c0,7.59,0.208,12.924,3.412,19.524
	c2.95,6.068,7.56,12.429,13.703,15.987C-197.648,219.991-177.712,219.654-163.474,215.995z M-201.55,202.126
	c-4.683-2.712-8.192-7.558-10.443-12.185c-2.44-5.023-2.599-9.088-2.599-14.871c0-10.652,0.908-22.156,6.815-31.246
	c5.277-8.111,17.57-12.984,28.474-13.481c12.67-0.581,27.451,0.527,35.664,8.888c4.287,4.364,8.106,10.786,9.571,16.481
	c1.799,6.984,2.578,18.687-0.749,25.277l0.383,0.657c-3.534,12.118-18.374,19.663-31.439,23.021
	C-176.722,207.458-191.916,207.711-201.55,202.126z"/>
<g>
	<path fill="#72AEA5" d="M-92.525,99.271c-2.857,4.014-2.441,7.552-2.231,10.774c0.156,2.343,0.895,4.085-2.035,4.99
		c-2.048,0.627-4.792,1.146-6.858,1.392c-0.684,3.816-2.555,7.46-1.223,11.476c4.61-1.021,9.405-0.666,14.099-1.688
		c0.348-4.343-0.794-9.078-1.389-13.464c-0.595-4.424,0.478-8.786-0.297-13.12"/>
	<g>
		<path fill="#EBB197" d="M-110.533,81.767c7.102-0.172,6.764,1.244,6.743,7.728c-0.016,4.586-0.678,9.735,0,14.266
			c1.341,8.972,12.55,10.657,16.49,18.909c-7.865,5.002-26.108-8.012-31.938-12.798c-9.353-7.687-0.991-5.761,2.389-10.505
			c2.952-4.146,1.027-12.855,3.187-17.614"/>
		<path fill="#FFFFFF" d="M-117.643,100.337c-2.33,0.799-0.856,4.603,0.181,5.794c1.366,1.564,3.471,2.845,5.201,4.038
			c1.866,1.289,3.994,2.395,5.594,3.901c1.688,1.592,3.665,2.908,5.851,3.583c1.539,0.476,2.672,0.27,3.7-0.984
			c0.719-0.88,1.166-3.132,0.233-3.699c4.477-0.457,8.044,4.957,9.718,8.2c1.295,2.508,0.475,3.768-2.229,4.15
			c-2.568,0.361-5.162,0.226-7.468-0.71c-4.036-1.631-7.937-3.401-11.706-5.386c-3.747-1.976-8.158-4.083-11.563-6.544
			c-2.244-1.618-4.962-4.819-5.569-7.509c-0.75-3.351,4.596-5.704,7.3-4.668c-0.023,0.191,0.072,0.175,0.171,0.257"/>
	</g>
	<path fill="#FFFFFF" d="M-136.564,7.659c-5.857,1.33-8.165,9.769-7.408,14.732c0.821,5.385,5.397,9.132,9.921,12.324
		c4.575,3.228,9.655,5.683,13.042,10.034c3.836,4.934,3.939,9.633,4.534,15.648c0.821,8.327-1.983,23.391-0.765,24.815
		c1.122,1.313,11.962,1.415,18.033,1.069c1.303-2.133,1.258-5.386,1.543-7.844c0.354-3.007,1.125-5.129,1.771-7.984
		c1.311-5.817,0.825-12.165,0.825-18.242c0-11.389-3.706-21.791-11.422-29.533C-114.386,14.764-123.954,7.703-136.564,7.659"/>
</g>
<g>
	<path fill="#72AEA5" d="M138.416,183.057c-2.652-4.053-5.764-8.463-8.271-12.636c-3.042-5.051-5.963-9.926-9.202-14.862
		c-5.447-8.303-9.937-17.229-15.302-25.406c-3.355-5.114-6.917-10.211-10.063-15.426c0.543-0.857,1.386-1.377,2.418-1.489
		c11.81,16.674,22.016,34.512,32.385,51.431c2.254,3.681,4.209,7.253,6.584,10.87C139.72,179.731,142.067,180.765,138.416,183.057"
		/>
	<path fill="#EE8F2A" d="M178.914,65.286c-1.647,3.471-10.267,3.606-11.274-0.854C166.327,58.628,178.956,62.82,178.914,65.286"/>
	<path fill="#EBB197" d="M138.174,67.313c-2.673-4.799-7.678-9.23-11.163-12.485c-2.524-2.36-10.617-8.214-14.166-4.092
		c-5.245,6.095,16.161,18.894,19.294,22.596c9.259-0.972,19.71-4.887,28.884-4.176c4.479,0.346,7.917,1.467,12.381-0.018
		c1.618-0.539,1.726-1.437,1.726-1.437s-2.56,0.553-2.807-0.233c-0.361-1.139,4.435-4.236,3.961-5.08
		c-1.256-2.244-4.602-0.612-5.462-0.482c-0.573,0.084-9.799,3.145-15.595,4.091C149.293,66.97,143.971,66.412,138.174,67.313"/>
	<path fill="#EBB197" d="M146.819,17.98c2.372,2.237,5.691,7.534,5.881,10.707c-2.261,0.804-4.921,0.368-7.306,0.484
		c0.162,4.153-8.718,8.3-10.739,11.782c-2.403,4.155-2.928,11.69-2.707,16.501c-3.479-1.249-6.438-2.302-10.633-2.523
		c-0.81-5.012,3.322-10.526,4.037-15.376c0.901-6.101-1.035-11.928-1.878-17.624c-0.829-5.601-0.265-12.226,4.459-15.55
		c3.674-2.584,13.993-3.353,17.322,0.54c2.013,2.354,4.156,8.063,1.936,10.698"/>
	<path fill="#FFFFFF" d="M120.891,47.803c2.49,1.089,4.915,3.483,7.417,4.8c2.393,1.257,5.386,1.591,7.451,3.417
		c4.313,3.801,4.345,11.494,2.727,16.569c-1.684,5.286-3.973,10.185-6.52,15.098c-1.088,2.101-2.247,4.962-3.698,6.785
		c-1.646,2.062-5.716,1.348-8.308,1.477c-6.215,0.308-12.692,0.661-18.521-1.128c-2.839-0.872-5.363-2.162-8.149-3.329
		c-2.42-1.01-5.805-1.144-4.262-4.158c2.72-5.307,6.178-10.391,9.036-15.868c2.632-5.046,4.317-10.981,7.865-15.941
		c2.663-3.725,10.15-9.62,15.145-7.542"/>
	<path fill="#EE8F2A" d="M174.706,79.559c-2.394-3.031-10.885-1.698-10.803,2.842c0.108,5.906,11.226-0.754,10.604-3.143"/>
	<path fill="#EBB197" d="M134.626,73.837c-1.046-5.355-4.431-11.053-6.73-15.181c-1.669-2.991-7.545-10.954-12.217-8.067
		c-6.905,4.26,9.481,22.761,11.315,27.209c9.121,1.801,20.307,1.146,28.824,4.522c4.157,1.649,7.253,4.868,11.801,3.633
		c8.835-2.397-2.218-4.458-1.927-6.643c0.967-0.321,1.011-0.836,1.565-1.233c-5.841-1.152-10.154,0.335-15.976-0.47
		C145.326,76.787,140.428,74.686,134.626,73.837"/>
	<path fill="#020202" d="M147.675,12.421c-9.46-0.55-15.904,10.483-20.804,16.519c-4.653,5.732-13.849,14.292-22.398,12.328
		c3.799-2.77,7.982-5.914,11.457-9.228c4.508-4.297,5.127-7.925,7.117-13.024c2.916-7.469,20.185-18.22,24.854-7.053"/>
	<path fill="#EBB197" d="M131.53,24.999c1.496-4.762-6.549-4.83-7.379-0.617c-0.917,4.666,4.352,6.617,7.423,8.578
		c0.684-1.917,0.1-6.28-0.127-8.312"/>
	<path fill="#72AEA5" d="M91.355,113.22c5.927,0,12.525-0.202,18.485,0c7.218,0.245,14.171,0.498,21.401,0.492
		c12.146-0.011,24.338,1.24,36.307,1.229c7.486-0.008,15.086-0.21,22.544,0.036c0.543,1.015,0.543,2.104,0,3.123
		c-24.964,0.82-50.112-0.537-74.406-1.192c-5.284-0.144-10.268-0.495-15.561-0.491C93.988,116.42,91.406,117.961,91.355,113.22"/>
	<path fill="#72AEA5" d="M138.088,182.954c2.798-3.99,5.77-8.533,8.741-12.437c3.604-4.738,7.085-9.289,10.498-14.157
		c5.741-8.18,12.454-15.756,18.113-23.815c3.539-5.042,6.977-10.256,10.691-15.152c1.027,0.145,1.854,0.688,2.366,1.564
		c-11.188,17.209-24.118,33.452-36.109,49.473c-2.608,3.484-5.232,6.658-7.736,10.225
		C141.757,182.786,141.698,185.295,138.088,182.954"/>
	<path fill="#72AEA5" d="M185.204,77.866c0.56,3.073,1.388,6.454,1.744,9.572c0.428,3.784,0.831,7.43,1.518,11.172
		c1.152,6.286,1.038,12.815,2.174,19.014c0.713,3.876,1.632,7.774,2.086,11.678c-0.979,0.461-2.081,0.646-3.162,0.545
		c-3.188-12.787-4.179-26.044-5.803-38.739c-0.355-2.761-0.466-5.404-0.967-8.143C182.21,79.786,180.405,78.715,185.204,77.866"/>
	<path fill="#72AEA5" d="M176.752,64.167c3.724,0,6.863,0.054,9.8,2.08c2.186,1.507,5.426,5.42,4.312,8.368
		c-1.29,3.434-16.976,10.516-19.417,6.259c1.929-2.242,7.006-1.337,9.742-2.702c3.164-1.578,6.313-3.729,4.9-7.913
		c-1.665-3.057-10.847-2.422-9.616-5.822"/>
	<path fill="#72AEA5" d="M164.461,187.821c1.6,0,3.231,0.024,4.82-0.052c-0.075-5.197,3.535-10.682,4.653-15.818
		c1.12-5.149,3.083-8.947,6.617-13.095c7.531-8.839,18.366-13.363,29.788-16.022c8.894-2.064,20.617-1.291,29.335,0.38
		c1.008-1.961,1.169-4.104,0.982-6.335c-5.156-1.403-11.95-0.386-17.357-0.386c-5.748,0-12.013-0.65-17.407,0.929
		c-10.362,3.038-18.904,6.768-26.184,14.858c-9.159,10.179-15.248,22.299-15.248,36.218"/>
	<path fill="#E1B58E" d="M217.137,145.265c-1.107-0.684,6.434,34.47,7.992,42.11c1.523,7.448,3.045,14.894,4.568,22.344
		c1.338,6.546,3.269,16.837,4.695,22.758c0.162,0.104,0.308,0.079,0.42-0.07c-0.691-3.4-1.173-6.698-1.795-10.021
		c-0.677-3.627-1.416-7.251-2.163-10.97c-1.488-7.413-3.07-14.41-4.597-21.888c-1.552-7.617-3.175-15.193-4.665-22.823
		c-1.052-5.39-3.045-16.72-4.328-20.993"/>
	<path fill="#E1B58E" d="M236.684,145.79c-0.7-1.075-9.196,33.872-11.114,41.438c-1.869,7.371-3.735,14.747-5.603,22.123
		c-1.644,6.479-4.379,16.597-5.669,22.546c0.104,0.162,0.243,0.2,0.41,0.11c0.86-3.366,1.856-6.551,2.746-9.816
		c0.966-3.566,1.879-7.154,2.821-10.828c1.884-7.329,3.5-14.318,5.376-21.72c1.912-7.541,3.746-15.068,5.727-22.597
		c1.395-5.316,4.528-16.396,5.228-20.795"/>
	<path fill="#E1B58E" d="M260.234,159.535c0.051-1.271-27.394,22.827-33.396,28.003c-5.854,5.042-11.706,10.085-17.559,15.129
		c-5.145,4.434-13.316,11.257-17.861,15.446c-0.009,0.188,0.085,0.298,0.275,0.317c2.674-2.299,5.359-4.374,8.002-6.572
		c2.884-2.404,5.733-4.857,8.659-7.361c5.842-4.999,11.263-9.865,17.135-14.925c5.991-5.158,11.904-10.347,17.936-15.457
		c4.264-3.606,13.325-11.009,16.477-14.242"/>
	<path fill="#E1B58E" d="M269.011,174.001c0.535-1.163-34.169,11.346-41.722,13.993c-7.366,2.579-14.726,5.157-22.091,7.735
		c-6.473,2.266-16.678,5.665-22.496,7.923c-0.082,0.172-0.035,0.307,0.136,0.39c3.364-1.171,6.652-2.129,9.945-3.224
		c3.598-1.192,7.179-2.448,10.855-3.722c7.332-2.539,14.229-5.111,21.62-7.696c7.534-2.637,15.012-5.329,22.565-7.903
		c5.339-1.82,16.582-5.433,20.75-7.303"/>
	<path fill="#E1B58E" d="M271.608,191.001c0.952-0.882-36.05-2.072-44.071-2.402c-7.823-0.326-15.646-0.65-23.471-0.975
		c-6.874-0.283-17.642-0.891-23.909-0.946c-0.142,0.13-0.153,0.272-0.029,0.414c3.572,0.15,6.988,0.477,10.462,0.673
		c3.795,0.219,7.602,0.377,11.502,0.551c7.78,0.348,15.168,0.507,23.015,0.835c8.001,0.333,15.975,0.593,23.971,0.991
		c5.651,0.279,17.47,1.076,22.053,0.875"/>
	<path fill="#E1B58E" d="M267.945,206.438c1.203-0.5-33.013-14.203-40.408-17.245c-7.207-2.964-14.417-5.928-21.623-8.891
		c-6.339-2.607-16.198-6.839-22.052-9.022c-0.178,0.075-0.24,0.203-0.178,0.379c3.29,1.357,6.374,2.819,9.556,4.19
		c3.478,1.494,6.98,2.938,10.572,4.427c7.158,2.974,14.02,5.635,21.249,8.613c7.374,3.03,14.746,5.986,22.09,9.079
		c5.193,2.184,15.971,6.951,20.335,8.323"/>
	<path fill="#E1B58E" d="M252.578,224.989c1.305,0.174-20.723-28.686-25.439-34.99c-4.597-6.143-9.199-12.289-13.796-18.433
		c-4.041-5.403-10.242-13.963-14.093-18.762c-0.19-0.025-0.313,0.054-0.351,0.235c2.098,2.809,3.96,5.606,5.956,8.373
		c2.182,3.017,4.418,6.009,6.702,9.08c4.553,6.126,9.01,11.842,13.624,18.009c4.703,6.288,9.445,12.504,14.097,18.83
		c3.281,4.471,9.979,13.944,12.995,17.307"/>
	<path fill="#72AEA5" d="M52.863,131.368c-0.005,1.442-0.027,2.909,0.053,4.34c5.626-0.069,11.553,3.177,17.11,4.186
		c5.572,1.01,9.678,2.772,14.167,5.951c9.563,6.773,14.458,16.521,17.331,26.799c2.231,7.998,0.221,8.324-1.582,16.163
		c2.123,0.908,4.439,1.058,6.851,0.887c1.516-4.637,1.589-0.53,1.589-5.394c0-5.171,0.701-10.807-1.005-15.659
		c-3.286-9.322-7.318-17.004-16.071-23.553c-11.011-8.238-24.119-13.72-39.173-13.72"/>
	<path fill="#E1B58E" d="M98.892,178.753c0.741-0.992-37.28,5.788-45.547,7.194c-8.055,1.367-16.109,2.737-24.169,4.108
		c-7.081,1.2-18.209,2.937-24.617,4.224c-0.11,0.146-0.085,0.278,0.077,0.375c3.678-0.62,7.246-1.055,10.837-1.613
		c3.926-0.607,7.844-1.272,11.866-1.943c8.019-1.339,15.587-2.763,23.675-4.134c8.24-1.398,16.434-2.86,24.688-4.201
		c5.83-0.948,18.082-2.738,22.704-3.892"/>
	<path fill="#E1B58E" d="M98.327,196.337c1.16-0.629-36.638-8.27-44.823-9.995c-7.974-1.681-15.948-3.358-23.925-5.039
		c-7.014-1.479-17.956-3.94-24.391-5.101c-0.172,0.092-0.217,0.219-0.12,0.369c3.642,0.771,7.09,1.67,10.619,2.468
		c3.856,0.872,7.737,1.69,11.712,2.541c7.926,1.692,15.485,3.149,23.493,4.836c8.156,1.721,16.3,3.371,24.44,5.148
		c5.754,1.257,17.737,4.074,22.496,4.705"/>
	<path fill="#E1B58E" d="M83.458,217.526c1.375,0.043-24.691-24.645-30.29-30.045c-5.454-5.265-10.912-10.53-16.366-15.794
		c-4.796-4.629-12.174-11.981-16.709-16.066c-0.203-0.008-0.319,0.077-0.34,0.244c2.486,2.409,4.728,4.825,7.111,7.201
		c2.599,2.595,5.25,5.156,7.964,7.793c5.404,5.249,10.664,10.128,16.14,15.41c5.577,5.39,11.192,10.711,16.716,16.136
		c3.905,3.834,11.908,11.987,15.408,14.819"/>
	<path fill="#E1B58E" d="M67.81,225.419c1.26,0.478-12.274-30.738-15.134-37.532c-2.791-6.622-5.577-13.247-8.368-19.871
		c-2.452-5.825-6.131-15-8.569-20.234c-0.187-0.074-0.334-0.032-0.426,0.12c1.27,3.025,2.306,5.981,3.491,8.948
		c1.292,3.233,2.645,6.457,4.025,9.764c2.75,6.599,5.528,12.799,8.324,19.451c2.85,6.775,5.766,13.502,8.547,20.297
		c1.97,4.8,5.878,14.917,7.901,18.66"/>
	<path fill="#E1B58E" d="M49.424,227.757c0.949,0.855,2.24-32.429,2.601-39.648c0.347-7.037,0.699-14.069,1.05-21.107
		c0.31-6.187,0.965-15.873,1.023-21.51c-0.14-0.128-0.292-0.137-0.446-0.026c-0.163,3.212-0.511,6.286-0.728,9.414
		c-0.236,3.411-0.408,6.833-0.598,10.344c-0.375,7-0.547,13.643-0.901,20.701c-0.36,7.198-0.642,14.37-1.073,21.563
		c-0.304,5.085-1.163,15.717-0.947,19.838"/>
	<path fill="#E1B58E" d="M32.726,224.461c0.541,1.082,15.363-29.697,18.654-36.351c3.205-6.483,6.41-12.968,9.617-19.453
		c2.819-5.699,7.396-14.57,9.758-19.834c-0.079-0.162-0.223-0.216-0.408-0.159c-1.467,2.962-3.051,5.733-4.535,8.597
		c-1.618,3.126-3.177,6.28-4.789,9.51c-3.215,6.441-6.096,12.607-9.314,19.117c-3.281,6.629-6.477,13.263-9.821,19.868
		c-2.364,4.671-7.519,14.367-9.001,18.293"/>
	<path fill="#E1B58E" d="M12.657,210.64c-0.189,1.169,31.026-18.644,37.849-22.885c6.644-4.139,13.292-8.277,19.939-12.414
		c5.843-3.634,15.103-9.21,20.292-12.675c0.03-0.174-0.059-0.281-0.256-0.316c-3.039,1.886-6.063,3.56-9.051,5.356
		c-3.271,1.966-6.504,3.976-9.827,6.031c-6.63,4.094-12.807,8.104-19.476,12.258c-6.801,4.228-13.532,8.497-20.37,12.677
		c-4.835,2.955-15.085,8.979-18.718,11.688"/>
	<path fill="#72AEA5" d="M192.176,127.014c2.233,3.673,4.897,7.658,6.962,11.451c2.501,4.601,4.897,9.038,7.624,13.517
		c4.587,7.524,8.07,15.711,12.585,23.124c2.827,4.639,5.869,9.245,8.461,13.991c-0.698,0.852-1.664,1.403-2.768,1.585
		c-10.132-15.059-18.401-31.336-26.973-46.722c-1.863-3.346-3.658-6.488-5.657-9.768
		C190.095,130.391,187.926,129.514,192.176,127.014"/>
	<path fill="#72AEA5" d="M140.979,183.761c-5.311,0.377-11.207,0.972-16.555,1.169c-6.484,0.239-12.727,0.455-19.204,0.916
		c-10.876,0.776-21.876,0.438-32.592,1.202c-6.707,0.479-13.5,1.14-20.195,1.392c-0.552-0.867-0.626-1.834-0.204-2.77
		c22.302-2.306,44.916-2.687,66.717-3.645c4.742-0.202,9.227-0.206,13.966-0.544C138.408,181.09,140.617,179.56,140.979,183.761"/>
	<path fill="#72AEA5" d="M50.109,186.551c2.568-4.138,5.273-8.832,8.014-12.892c3.321-4.926,6.535-9.66,9.664-14.706
		c5.26-8.478,11.53-16.406,16.709-24.761c3.241-5.227,6.373-10.617,9.805-15.706c1.033,0.085,1.887,0.586,2.453,1.433
		C86.573,137.71,74.6,154.625,63.555,171.276c-2.403,3.616-4.841,6.93-7.136,10.625C53.765,186.185,53.852,188.69,50.109,186.551"/>
	<path fill="#EE8F2A" d="M110.649,114.787c-5.195-1.018-9.576-3.075-14.63-4.311c-1.959-0.479-5.472-1.745-7.458-1.476
		c-2.847,0.389-3.205,2.968-3.802,5.353c-1.596,6.359,2.37,7.736,7.964,9.089c4.474,1.082,10.361,2.872,14.755,1.945
		c2.551-0.532,5.057-1.418,5.97-3.971C114.582,118.255,112.251,116.871,110.649,114.787"/>
	<path fill="#EE8F2A" d="M151.263,181.627c-0.364-6.027-6.536-9.782-12.293-9.843c-13.34-0.141-26.501,2.579-39.812,3.218
		c-6.607,0.318-13.283,0.724-19.706,1.935c-6.874,1.298-13.883,2.419-21.083,2.419c-4.73-0.142-12.335-0.211-11.167,6.478
		c0.476,2.702,1.766,4.227,4.102,5.487c2.284,1.235,4.764,0.903,7.459,0.903c13.25,0,26.202,0.314,39.219,0.949
		c6.702,0.328,13.502,0.361,20.302,0.376c6.445,0.019,13.596-0.305,19.905-1.517C143.759,190.96,151.691,188.68,151.263,181.627z
		 M137.605,191.237c-6.215,1.074-13.261,1.357-19.611,1.343c-6.698-0.017-13.396-0.046-19.996-0.334
		c-12.823-0.561-25.579-0.838-38.632-0.838c-2.654,0-5.098,0.291-7.347-0.8c-2.302-1.114-3.569-2.467-4.034-4.854
		c-1.156-5.921,6.333-5.859,10.998-5.736c7.086,0,13.991-0.988,20.766-2.138c6.324-1.074,12.901-1.432,19.409-1.712
		c13.112-0.563,26.075-2.972,39.213-2.848c5.675,0.056,11.751,3.375,12.112,8.708C150.904,188.271,143.091,190.289,137.605,191.237z
		"/>
	<g>
		<path fill="#EE8F2A" d="M150.85,180.865c-0.593-5.909-5.425-8.397-10.883-9.146l0,0c-5.904-0.7-12.633,4.484-11.254,10.553
			c1.039,4.559,7.35,8.78,11.978,9.146C146.688,191.893,151.43,186.709,150.85,180.865z M140.59,190.372
			c-4.146-0.326-9.799-4.107-10.728-8.192c-1.235-5.434,4.464-10.391,9.753-9.763l0,0c4.888,0.669,9.538,3.214,10.07,8.506
			C150.208,186.153,145.96,190.798,140.59,190.372z"/>
		<path fill="#EE8F2A" d="M142.483,172.104c-0.712-0.363-2.317,7.132-2.726,8.744c-0.399,1.569-0.796,3.142-1.194,4.713
			c-0.349,1.382-1.031,3.514-1.179,4.811c0.104,0.052,0.221,0.084,0.338,0.084c0.188-0.715,0.512-1.368,0.732-2.057
			c0.245-0.751,0.439-1.513,0.649-2.296c0.417-1.56,0.672-3.068,1.075-4.644c0.41-1.61,0.755-3.223,1.217-4.816
			c0.327-1.125,1.181-3.442,1.095-4.437"/>
		<path fill="#EE8F2A" d="M133.804,172.952c-0.75,0.291,4.58,6.757,5.694,8.192c1.079,1.4,2.155,2.802,3.237,4.208
			c0.95,1.231,2.326,3.244,3.328,4.261c0.113-0.041,0.21-0.111,0.286-0.2c-0.493-0.646-0.843-1.346-1.283-1.997
			c-0.482-0.712-1.009-1.396-1.537-2.102c-1.061-1.404-2.173-2.657-3.255-4.065c-1.106-1.434-2.252-2.828-3.312-4.294
			c-0.749-1.036-2.173-3.308-3.069-3.935"/>
		<path fill="#EE8F2A" d="M129.49,182.425c-0.107,0.777,8.316-0.574,10.149-0.812c1.79-0.227,3.579-0.452,5.367-0.681
			c1.574-0.201,4.058-0.378,5.466-0.729c0.015-0.114,0-0.23-0.042-0.339c-0.816,0.1-1.623,0.049-2.425,0.104
			c-0.875,0.062-1.745,0.172-2.64,0.276c-1.783,0.207-3.453,0.536-5.249,0.764c-1.828,0.234-3.645,0.521-5.481,0.697
			c-1.298,0.129-4.039,0.223-5.042,0.674"/>
	</g>
	<path fill="#72AEA5" d="M55.729,193.52c-10.606,0.422-15.402-13.978-2.587-14.702c10.781-0.613,13.138,10.633,3.109,14.195"/>
	<g>
		<path fill="#EE8F2A" d="M181.917,80.213c0.238,1.512,0.567,3.185,0.749,4.719c0.218,1.856,0.424,3.644,0.721,5.49
			c0.496,3.103,0.623,6.284,1.108,9.34c0.302,1.907,0.673,3.836,0.902,5.756c-0.274,0.197-0.595,0.261-0.912,0.18
			c-1.249-6.326-1.87-12.825-2.66-19.063c-0.172-1.357-0.27-2.652-0.485-3.999C181.09,81.066,180.539,80.498,181.917,80.213"/>
		<path fill="#EE8F2A" d="M193.181,91.534c0.131,0.821,0.334,1.718,0.407,2.554c0.084,1.012,0.164,1.987,0.322,2.987
			c0.268,1.676,0.173,3.434,0.434,5.088c0.169,1.036,0.395,2.072,0.487,3.118c-0.285,0.134-0.605,0.194-0.913,0.18
			c-0.786-3.402-0.938-6.958-1.28-10.354c-0.074-0.738-0.078-1.445-0.195-2.179C192.307,92.078,191.801,91.812,193.181,91.534"/>
		<path fill="#EE8F2A" d="M198.786,91.534c0.132,0.821,0.332,1.718,0.404,2.554c0.084,1.012,0.167,1.987,0.326,2.987
			c0.268,1.676,0.171,3.434,0.435,5.088c0.165,1.036,0.391,2.072,0.482,3.118c-0.283,0.134-0.599,0.194-0.91,0.18
			c-0.786-3.402-0.942-6.958-1.28-10.354c-0.071-0.738-0.081-1.445-0.197-2.179C197.91,92.078,197.401,91.812,198.786,91.534"/>
		<path fill="#EE8F2A" d="M203.947,91.955c0.128,0.793,0.326,1.668,0.394,2.474c0.082,0.983,0.153,1.929,0.312,2.896
			c0.257,1.628,0.153,3.332,0.411,4.935c0.156,1.003,0.381,2.009,0.466,3.021c-0.285,0.134-0.601,0.194-0.912,0.183
			c-0.766-3.301-0.902-6.746-1.227-10.041c-0.072-0.714-0.077-1.402-0.19-2.11C203.069,92.49,202.565,92.232,203.947,91.955"/>
		<path fill="#EE8F2A" d="M186.786,80.112c0.243,1.505,0.563,3.163,0.743,4.684c0.218,1.845,0.423,3.62,0.716,5.455
			c0.492,3.076,0.614,6.233,1.096,9.267c0.305,1.897,0.668,3.813,0.897,5.716c-0.275,0.199-0.593,0.26-0.913,0.18
			c-1.242-6.279-1.852-12.73-2.637-18.924c-0.173-1.348-0.269-2.63-0.48-3.968C185.961,80.965,185.407,80.396,186.786,80.112"/>
		<path fill="#EE8F2A" d="M184.893,104.324c1.38-0.027,2.912-0.125,4.297-0.086c1.683,0.05,3.297,0.103,4.979,0.07
			c2.825-0.058,5.666,0.301,8.451,0.242c1.742-0.032,3.506-0.136,5.242-0.088c0.131,0.335,0.137,0.693,0.018,1.033
			c-5.804,0.383-11.66,0.045-17.313-0.062c-1.229-0.026-2.389-0.12-3.618-0.096C185.52,105.367,184.927,105.887,184.893,104.324"/>
		<path fill="#EE8F2A" d="M182.599,91.548c1.771-0.035,3.736-0.139,5.516-0.106c2.15,0.042,4.231,0.083,6.388,0.042
			c3.624-0.073,7.266,0.271,10.835,0.197c2.234-0.046,4.499-0.156,6.726-0.118c0.167,0.333,0.171,0.694,0.016,1.032
			c-7.44,0.411-14.954,0.108-22.2,0.03c-1.578-0.018-3.065-0.104-4.648-0.073C183.4,92.591,182.64,93.112,182.599,91.548"/>
		<path fill="#EE8F2A" d="M183.107,95.238c1.669-0.031,3.523-0.134,5.197-0.102c2.031,0.045,3.994,0.09,6.021,0.049
			c3.417-0.066,6.851,0.279,10.217,0.21c2.104-0.041,4.237-0.148,6.338-0.107c0.159,0.331,0.165,0.69,0.014,1.031
			c-7.012,0.402-14.092,0.091-20.927,0.005c-1.486-0.021-2.89-0.109-4.377-0.079C183.864,96.282,183.144,96.8,183.107,95.238"/>
		<path fill="#EE8F2A" d="M182.344,87.291c0.32-0.01,0.671-0.084,0.994-0.02c0.384,0.072,0.762,0.149,1.147,0.139
			c0.65-0.016,1.309,0.385,1.949,0.368c0.401-0.009,0.807-0.084,1.208-0.011c0.035,0.335,0.039,0.694,0.018,1.03
			c-1.335,0.295-2.686-0.126-3.992-0.315c-0.285-0.045-0.557-0.153-0.838-0.147C182.502,88.344,182.371,88.853,182.344,87.291"/>
		<path fill="#EE8F2A" d="M183.874,100.063c1.477-0.028,3.128-0.126,4.615-0.087c1.808,0.048,3.543,0.096,5.35,0.059
			c3.034-0.059,6.086,0.294,9.073,0.234c1.87-0.039,3.768-0.142,5.63-0.097c0.143,0.332,0.149,0.695,0.02,1.03
			c-6.235,0.392-12.521,0.063-18.594-0.037c-1.318-0.021-2.564-0.114-3.891-0.087C184.545,101.108,183.909,101.629,183.874,100.063"
			/>
		<path fill="#EE8F2A" d="M212.352,91.838c-0.244,0.812-0.46,1.741-0.764,2.537c-0.368,0.966-0.729,1.896-1.024,2.888
			c-0.501,1.671-1.354,3.217-1.845,4.861c-0.311,1.028-0.569,2.094-0.946,3.096c-0.309-0.034-0.614-0.148-0.875-0.329
			c0.802-3.518,2.223-6.829,3.413-10.099c0.26-0.713,0.563-1.357,0.779-2.088C211.344,91.863,211.016,91.345,212.352,91.838"/>
	</g>
</g>
</svg>
