<?xml version="1.0" encoding="utf-8"?>
<!-- Generator: Adobe Illustrator 16.0.0, SVG Export Plug-In . SVG Version: 6.00 Build 0)  -->
<!DOCTYPE svg PUBLIC "-//W3C//DTD SVG 1.1//EN" "http://www.w3.org/Graphics/SVG/1.1/DTD/svg11.dtd">
<svg version="1.1" id="Layer_1" xmlns="http://www.w3.org/2000/svg" xmlns:xlink="http://www.w3.org/1999/xlink" x="0px" y="0px"
	 width="274.667px" height="235.333px" viewBox="0 0 274.667 235.333" enable-background="new 0 0 274.667 235.333"
	 xml:space="preserve">
<path fill="#020202" d="M-112.067-52.505c1.856-14.212-20.729-11.312-27.054-5.469c-8.289,7.651-7.385,20.365-17.484,25.88
	c-5.747,3.138-12.156,5.13-19.133,5.521c0.874,1.624,5.215,2.773,7.074,4.151c2.432,1.804,3.98,3.37,6.872,4.489
	c5.133,1.985,11.034,3.434,16.664,1.625c5.035-1.613,8.954-4.799,9.803-9.889c0.997-5.959-0.397-11.318,2.614-16.89
	c1.765-3.263,5.155-7.437,8.524-9.32c2.578-1.445,9.669-3.471,11.75-0.462"/>
<g>
	<path fill="#72AEA5" d="M-78.054,115.799c3.05-4.454,7.146-5.867,10.794-7.291c2.655-1.036,4.924-1.273,4.517-4.236
		c-0.284-2.074-1.025-4.688-1.744-6.584c3.869-2.495,6.991-5.919,12.043-6.775c1.082,4.465,3.769,8.407,4.887,12.941
		c-4.611,2.466-10.371,3.854-15.483,5.532c-5.156,1.691-9.447,4.794-14.586,6.289"/>
	<g>
		<path fill="#EBB197" d="M-63.483,67.678c6.753-2.143,6.847-0.69,8.75,5.52c1.346,4.397,2.237,9.518,4.229,13.668
			c3.945,8.216,15.183,6.703,21.398,13.51c-6.048,6.979-27.38-0.392-34.382-3.351c-11.235-4.75-2.657-5.24-0.827-10.728
			c1.598-4.793-2.828-12.6-2.175-17.76"/>
		<path fill="#FFFFFF" d="M-64.79,87.45c-1.992,1.41,0.551,4.645,1.893,5.494c1.771,1.12,4.166,1.761,6.181,2.42
			c2.167,0.713,4.539,1.177,6.513,2.176c2.088,1.056,4.374,1.761,6.671,1.802c1.614,0.026,2.636-0.488,3.247-1.979
			c0.427-1.042,0.188-3.325-0.869-3.607c4.148-1.685,9.169,2.505,11.734,5.144c1.983,2.041,1.572,3.477-0.901,4.599
			c-2.353,1.063-4.877,1.652-7.365,1.399c-4.35-0.436-8.609-1.041-12.805-1.891c-4.175-0.851-9.027-1.636-13.018-3.042
			c-2.628-0.924-6.179-3.232-7.56-5.642c-1.716-2.996,2.71-6.74,5.605-6.504c0.038,0.187,0.124,0.146,0.24,0.198"/>
	</g>
	<path fill="#FFFFFF" d="M-122.569,17.755c-4.205,4.174-1.479,12.493,1.913,16.286c3.676,4.115,9.607,4.891,15.192,5.225
		c5.645,0.337,11.293-0.238,16.555,1.667c5.971,2.159,8.662,6.071,12.497,10.833c5.308,6.593,7.102,22.526,8.922,23.092
		c1.673,0.522,15.052-6.804,19.979-10.255c-0.079-2.48-1.923-5.199-3.041-7.419c-1.366-2.726-1.893-4.917-2.931-7.659
		c-2.114-5.59-6.046-10.69-9.409-15.813c-6.311-9.607-15.199-16.449-25.994-18.956C-99.932,12.19-111.914,11.221-122.569,17.755"/>
</g>
<path fill="#E8754D" d="M309.746,321.536c-4.588-14.85-14.897-31.718-31.463-35.736l-0.9,0.438
	c-9.01-3.782-25.002-2.897-34.541-0.853c-7.788,1.666-16.348,7.252-21.98,12.475c-8.17,7.578-13.49,24.541-12.695,38.945
	c0.683,12.393,7.334,26.359,18.426,32.355c12.418,6.719,28.148,7.752,42.703,7.752c7.902,0,13.459-0.182,20.328-2.955
	c6.322-2.557,12.947-6.549,16.65-11.869C313.908,351.133,313.557,333.868,309.746,321.536z M295.304,354.516
	c-2.825,4.055-7.874,7.096-12.688,9.041c-5.238,2.113-9.469,2.252-15.49,2.252c-11.094,0-23.076-0.787-32.539-5.904
	c-8.448-4.57-13.522-15.213-14.043-24.654c-0.604-10.977,0.552-23.777,9.261-30.893c4.544-3.711,11.229-7.02,17.163-8.289
	c7.271-1.557,19.457-2.234,26.324,0.648l0.683-0.332c12.62,3.059,20.479,15.914,23.976,27.23
	C300.855,333.01,301.123,346.167,295.304,354.516z"/>
<path fill="#E8754D" d="M-163.474,215.995c17.146-4.404,36.622-14.308,41.265-30.211l-0.505-0.863
	c4.369-8.652,3.342-24.01,0.983-33.17c-1.924-7.479-8.372-15.697-14.403-21.107c-8.751-7.844-28.335-12.954-44.968-12.189
	c-14.308,0.654-30.433,7.043-37.363,17.695c-7.755,11.924-8.945,27.027-8.945,41.002c0,7.59,0.208,12.924,3.412,19.523
	c2.95,6.068,7.56,12.43,13.703,15.988C-197.648,219.991-177.712,219.654-163.474,215.995z M-201.55,202.125
	c-4.683-2.711-8.192-7.558-10.443-12.185c-2.44-5.022-2.599-9.088-2.599-14.871c0-10.651,0.908-22.155,6.815-31.245
	c5.277-8.111,17.57-12.984,28.474-13.482c12.67-0.58,27.451,0.527,35.664,8.889c4.287,4.363,8.106,10.786,9.571,16.48
	c1.799,6.984,2.578,18.688-0.749,25.277l0.383,0.657c-3.534,12.118-18.374,19.663-31.439,23.021
	C-176.722,207.458-191.916,207.711-201.55,202.125z"/>
<g>
	<path fill="#72AEA5" d="M-97.525,101.271c-2.857,4.014-2.441,7.552-2.231,10.774c0.156,2.343,0.895,4.085-2.035,4.99
		c-2.048,0.627-4.792,1.146-6.858,1.391c-0.684,3.816-2.555,7.461-1.223,11.477c4.61-1.021,9.405-0.666,14.099-1.688
		c0.348-4.344-0.794-9.078-1.389-13.464c-0.595-4.424,0.478-8.786-0.297-13.12"/>
	<g>
		<path fill="#EBB197" d="M-115.533,83.767c7.102-0.172,6.764,1.244,6.743,7.728c-0.016,4.586-0.678,9.735,0,14.266
			c1.341,8.972,12.55,10.657,16.49,18.91c-7.865,5.002-26.108-8.012-31.938-12.798c-9.353-7.687-0.991-5.761,2.389-10.505
			c2.952-4.146,1.027-12.855,3.187-17.614"/>
		<path fill="#FFFFFF" d="M-122.643,102.337c-2.33,0.799-0.856,4.603,0.181,5.794c1.366,1.564,3.471,2.845,5.201,4.038
			c1.866,1.289,3.994,2.395,5.594,3.901c1.688,1.592,3.665,2.908,5.851,3.583c1.539,0.477,2.672,0.27,3.7-0.984
			c0.719-0.879,1.166-3.131,0.233-3.699c4.477-0.457,8.044,4.957,9.718,8.201c1.295,2.508,0.475,3.768-2.229,4.149
			c-2.568,0.361-5.162,0.226-7.468-0.71c-4.036-1.631-7.937-3.4-11.706-5.386c-3.747-1.976-8.158-4.083-11.563-6.544
			c-2.244-1.618-4.962-4.819-5.569-7.509c-0.75-3.351,4.596-5.704,7.3-4.668c-0.023,0.191,0.072,0.175,0.171,0.257"/>
	</g>
	<path fill="#FFFFFF" d="M-141.564,9.659c-5.857,1.33-8.165,9.769-7.408,14.732c0.821,5.385,5.397,9.132,9.921,12.324
		c4.575,3.228,9.655,5.683,13.042,10.034c3.836,4.934,3.939,9.633,4.534,15.648c0.821,8.327-1.983,23.391-0.765,24.815
		c1.122,1.313,11.962,1.415,18.033,1.069c1.303-2.133,1.258-5.386,1.543-7.844c0.354-3.007,1.125-5.129,1.771-7.984
		c1.311-5.817,0.825-12.165,0.825-18.242c0-11.389-3.706-21.791-11.422-29.533C-119.386,16.764-128.954,9.703-141.564,9.659"/>
</g>
<path fill="#EE8F2A" d="M178.914,65.286c-1.646,3.471-10.267,3.606-11.273-0.854C166.328,58.628,178.957,62.82,178.914,65.286"/>
<path fill="#EBB197" d="M138.173,67.313c-2.672-4.799-7.677-9.23-11.163-12.485c-2.524-2.36-10.617-8.214-14.166-4.092
	c-5.245,6.095,16.161,18.894,19.294,22.596c9.259-0.972,19.71-4.887,28.884-4.176c4.479,0.346,7.917,1.467,12.381-0.018
	c1.618-0.539,1.727-1.437,1.727-1.437s-2.561,0.553-2.807-0.233c-0.361-1.139,4.434-4.236,3.961-5.08
	c-1.257-2.244-4.603-0.612-5.463-0.482c-0.572,0.084-9.799,3.145-15.595,4.091C149.292,66.97,143.971,66.412,138.173,67.313"/>
<path fill="#72AEA5" d="M138.416,183.057c-2.651-4.053-5.764-8.463-8.271-12.637c-3.042-5.051-5.963-9.926-9.202-14.861
	c-5.447-8.303-9.937-17.229-15.302-25.406c-3.355-5.113-6.917-10.211-10.063-15.426c0.543-0.857,1.386-1.377,2.418-1.489
	c11.81,16.675,22.016,34.513,32.385,51.431c2.254,3.682,4.209,7.254,6.584,10.871C139.72,179.731,142.067,180.765,138.416,183.057"
	/>
<path fill="#EBB197" d="M146.819,17.98c2.372,2.237,5.69,7.534,5.882,10.707c-2.262,0.804-4.922,0.368-7.307,0.484
	c0.162,4.153-8.718,8.3-10.739,11.782c-2.403,4.155-2.928,11.69-2.707,16.501c-3.479-1.249-6.438-2.302-10.633-2.523
	c-0.81-5.012,3.322-10.526,4.037-15.376c0.901-6.101-1.035-11.928-1.878-17.624c-0.829-5.601-0.265-12.226,4.459-15.55
	c3.674-2.584,13.992-3.353,17.322,0.54c2.013,2.354,4.156,8.063,1.936,10.698"/>
<path fill="#EE8F2A" d="M174.707,79.559c-2.395-3.031-10.886-1.698-10.804,2.842c0.108,5.906,11.226-0.754,10.604-3.143"/>
<path fill="#EBB197" d="M131.53,24.999c1.496-4.762-6.549-4.83-7.379-0.617c-0.917,4.666,4.352,6.617,7.423,8.578
	c0.684-1.917,0.1-6.28-0.127-8.312"/>
<path fill="#72AEA5" d="M91.355,113.22c5.927,0,12.525-0.202,18.485,0c7.218,0.245,14.171,0.498,21.401,0.492
	c12.146-0.011,24.338,1.24,36.307,1.229c7.486-0.008,15.086-0.21,22.543,0.036c0.543,1.015,0.543,2.104,0,3.123
	c-24.963,0.82-50.111-0.537-74.405-1.192c-5.284-0.144-10.268-0.495-15.561-0.491C93.988,116.42,91.406,117.961,91.355,113.22"/>
<path fill="#72AEA5" d="M138.087,182.954c2.799-3.99,5.771-8.533,8.742-12.437c3.604-4.738,7.084-9.289,10.498-14.157
	c5.74-8.18,12.453-15.756,18.112-23.814c3.539-5.043,6.978-10.256,10.69-15.152c1.027,0.145,1.854,0.688,2.367,1.564
	c-11.188,17.209-24.119,33.451-36.109,49.473c-2.608,3.484-5.232,6.658-7.736,10.225
	C141.757,182.786,141.699,185.295,138.087,182.954"/>
<path fill="#72AEA5" d="M185.205,77.866c0.56,3.073,1.387,6.454,1.744,9.572c0.428,3.784,0.83,7.43,1.518,11.172
	c1.152,6.286,1.037,12.815,2.174,19.014c0.713,3.876,1.632,7.774,2.086,11.677c-0.979,0.462-2.081,0.646-3.162,0.546
	c-3.188-12.787-4.18-26.044-5.803-38.739c-0.355-2.761-0.467-5.404-0.967-8.143C182.21,79.786,180.405,78.715,185.205,77.866"/>
<path fill="#72AEA5" d="M176.751,64.167c3.725,0,6.863,0.054,9.801,2.08c2.186,1.507,5.426,5.42,4.313,8.368
	c-1.291,3.434-16.977,10.516-19.418,6.259c1.93-2.242,7.006-1.337,9.742-2.702c3.164-1.578,6.313-3.729,4.9-7.913
	c-1.666-3.057-10.848-2.422-9.616-5.822"/>
<path fill="#72AEA5" d="M164.46,187.821c1.601,0,3.231,0.024,4.82-0.052c-0.074-5.196,3.535-10.683,4.653-15.817
	c1.12-5.15,3.083-8.947,6.616-13.096c7.531-8.839,18.367-13.363,29.789-16.021c8.894-2.064,20.617-1.291,29.334,0.379
	c1.009-1.961,1.17-4.104,0.982-6.334c-5.156-1.403-11.949-0.387-17.357-0.387c-5.748,0-12.012-0.65-17.406,0.93
	c-10.361,3.037-18.904,6.768-26.184,14.857c-9.16,10.18-15.248,22.299-15.248,36.219"/>
<path fill="#E1B58E" d="M217.137,145.265c-1.107-0.685,6.434,34.47,7.991,42.11c1.523,7.447,3.045,14.894,4.568,22.344
	c1.338,6.546,3.27,16.837,4.695,22.758c0.162,0.104,0.309,0.079,0.42-0.07c-0.691-3.4-1.173-6.697-1.795-10.021
	c-0.678-3.627-1.416-7.25-2.163-10.969c-1.487-7.414-3.069-14.41-4.597-21.889c-1.553-7.617-3.176-15.193-4.666-22.822
	c-1.051-5.391-3.045-16.721-4.327-20.994"/>
<path fill="#E1B58E" d="M236.684,145.79c-0.7-1.074-9.196,33.873-11.114,41.438c-1.869,7.371-3.734,14.747-5.604,22.123
	c-1.643,6.479-4.379,16.597-5.668,22.546c0.104,0.162,0.242,0.2,0.41,0.109c0.859-3.365,1.855-6.551,2.746-9.815
	c0.965-3.565,1.879-7.153,2.82-10.828c1.885-7.329,3.5-14.317,5.376-21.72c1.912-7.541,3.746-15.068,5.728-22.598
	c1.395-5.315,4.527-16.396,5.228-20.795"/>
<path fill="#E1B58E" d="M260.234,159.536c0.051-1.271-27.395,22.826-33.396,28.002c-5.854,5.043-11.705,10.086-17.559,15.129
	c-5.145,4.435-13.316,11.258-17.861,15.446c-0.008,0.188,0.086,0.298,0.275,0.317c2.674-2.299,5.359-4.374,8.002-6.572
	c2.885-2.404,5.732-4.857,8.659-7.361c5.842-4.998,11.263-9.865,17.135-14.924c5.991-5.158,11.904-10.348,17.937-15.457
	c4.264-3.607,13.324-11.01,16.477-14.242"/>
<path fill="#E1B58E" d="M269.011,174c0.535-1.162-34.17,11.347-41.723,13.994c-7.365,2.578-14.726,5.156-22.09,7.734
	c-6.474,2.266-16.679,5.665-22.496,7.923c-0.082,0.173-0.035,0.308,0.135,0.39c3.365-1.17,6.652-2.129,9.945-3.224
	c3.598-1.192,7.18-2.448,10.855-3.722c7.332-2.539,14.229-5.111,21.619-7.696c7.535-2.637,15.013-5.329,22.566-7.903
	c5.338-1.82,16.581-5.433,20.75-7.303"/>
<path fill="#E1B58E" d="M271.608,191c0.952-0.881-36.05-2.071-44.071-2.401c-7.822-0.326-15.646-0.649-23.471-0.976
	c-6.874-0.283-17.643-0.891-23.908-0.945c-0.143,0.13-0.154,0.271-0.029,0.414c3.572,0.15,6.988,0.477,10.461,0.673
	c3.795,0.219,7.603,0.377,11.502,0.551c7.781,0.349,15.168,0.507,23.016,0.835c8.001,0.333,15.975,0.594,23.971,0.991
	c5.651,0.278,17.471,1.075,22.053,0.875"/>
<path fill="#E1B58E" d="M267.945,206.438c1.203-0.5-33.013-14.203-40.408-17.245c-7.207-2.964-14.416-5.928-21.623-8.892
	c-6.338-2.606-16.197-6.838-22.052-9.021c-0.178,0.075-0.239,0.203-0.178,0.379c3.29,1.357,6.374,2.819,9.556,4.19
	c3.479,1.493,6.98,2.938,10.572,4.427c7.158,2.975,14.02,5.635,21.249,8.613c7.374,3.029,14.746,5.986,22.09,9.078
	c5.192,2.185,15.972,6.951,20.335,8.324"/>
<path fill="#E1B58E" d="M252.578,224.989c1.305,0.174-20.723-28.686-25.438-34.99c-4.597-6.143-9.199-12.289-13.796-18.433
	c-4.041-5.403-10.242-13.963-14.094-18.762c-0.189-0.025-0.313,0.054-0.351,0.235c2.099,2.809,3.96,5.605,5.956,8.373
	c2.182,3.017,4.418,6.008,6.702,9.08c4.553,6.125,9.01,11.842,13.624,18.008c4.703,6.289,9.445,12.504,14.097,18.83
	c3.281,4.471,9.979,13.944,12.995,17.308"/>
<path fill="#72AEA5" d="M52.863,131.368c-0.005,1.442-0.027,2.909,0.053,4.34c5.626-0.068,11.553,3.178,17.11,4.187
	c5.572,1.01,9.678,2.772,14.167,5.95c9.563,6.773,14.458,16.521,17.331,26.8c2.231,7.998,0.221,8.323-1.582,16.163
	c2.123,0.908,4.439,1.059,6.851,0.887c1.516-4.637,1.589-0.529,1.589-5.395c0-5.17,0.701-10.807-1.005-15.658
	c-3.286-9.322-7.318-17.004-16.071-23.553c-11.011-8.238-24.119-13.721-39.173-13.721"/>
<path fill="#E1B58E" d="M98.892,178.752c0.741-0.992-37.28,5.789-45.547,7.195c-8.055,1.366-16.109,2.736-24.169,4.107
	c-7.081,1.199-18.209,2.938-24.617,4.224c-0.11,0.146-0.085,0.278,0.077,0.375c3.678-0.62,7.246-1.055,10.837-1.612
	c3.926-0.607,7.844-1.272,11.866-1.943c8.019-1.34,15.587-2.764,23.675-4.135c8.24-1.397,16.434-2.859,24.688-4.2
	c5.83-0.948,18.082-2.738,22.704-3.892"/>
<path fill="#E1B58E" d="M98.327,196.336c1.16-0.629-36.638-8.27-44.823-9.994c-7.974-1.682-15.948-3.358-23.925-5.039
	c-7.014-1.479-17.956-3.939-24.391-5.102c-0.172,0.092-0.217,0.219-0.12,0.369c3.642,0.771,7.09,1.67,10.619,2.469
	c3.856,0.871,7.737,1.689,11.712,2.541c7.926,1.691,15.485,3.148,23.493,4.836c8.156,1.721,16.3,3.371,24.44,5.147
	c5.754,1.257,17.737,4.074,22.496,4.705"/>
<path fill="#E1B58E" d="M83.458,217.526c1.375,0.043-24.691-24.645-30.29-30.045c-5.454-5.266-10.912-10.529-16.366-15.794
	c-4.796-4.629-12.174-11.981-16.709-16.065c-0.203-0.008-0.319,0.076-0.34,0.244c2.486,2.408,4.728,4.824,7.111,7.2
	c2.599,2.595,5.25,5.156,7.964,7.793c5.404,5.249,10.664,10.128,16.14,15.41c5.577,5.39,11.192,10.711,16.716,16.136
	c3.905,3.834,11.908,11.987,15.408,14.819"/>
<path fill="#E1B58E" d="M67.81,225.418c1.26,0.479-12.274-30.737-15.134-37.531c-2.791-6.622-5.577-13.247-8.368-19.871
	c-2.452-5.825-6.131-15-8.569-20.234c-0.187-0.074-0.334-0.031-0.426,0.12c1.27,3.024,2.306,5.981,3.491,8.948
	c1.292,3.232,2.645,6.457,4.025,9.764c2.75,6.6,5.528,12.799,8.324,19.451c2.85,6.775,5.766,13.502,8.547,20.297
	c1.97,4.801,5.878,14.917,7.901,18.66"/>
<path fill="#E1B58E" d="M49.424,227.756c0.949,0.855,2.24-32.428,2.601-39.647c0.347-7.036,0.699-14.069,1.05-21.106
	c0.31-6.188,0.965-15.873,1.023-21.51c-0.14-0.129-0.292-0.138-0.446-0.027c-0.163,3.213-0.511,6.287-0.728,9.414
	c-0.236,3.412-0.408,6.834-0.598,10.345c-0.375,7-0.547,13.644-0.901,20.7c-0.36,7.199-0.642,14.371-1.073,21.564
	c-0.304,5.084-1.163,15.717-0.947,19.838"/>
<path fill="#E1B58E" d="M32.726,224.461c0.541,1.082,15.363-29.697,18.654-36.352c3.205-6.482,6.41-12.968,9.617-19.453
	c2.819-5.699,7.396-14.57,9.758-19.834c-0.079-0.162-0.223-0.216-0.408-0.158c-1.467,2.961-3.051,5.732-4.535,8.596
	c-1.618,3.127-3.177,6.281-4.789,9.511c-3.215,6.44-6.096,12.606-9.314,19.117c-3.281,6.629-6.477,13.263-9.821,19.868
	c-2.364,4.67-7.519,14.367-9.001,18.293"/>
<path fill="#E1B58E" d="M12.657,210.64c-0.189,1.169,31.026-18.644,37.849-22.886c6.644-4.139,13.292-8.276,19.939-12.414
	c5.843-3.633,15.103-9.209,20.292-12.674c0.03-0.174-0.059-0.281-0.256-0.316c-3.039,1.886-6.063,3.561-9.051,5.355
	c-3.271,1.967-6.504,3.977-9.827,6.031c-6.63,4.094-12.807,8.104-19.476,12.258c-6.801,4.229-13.532,8.498-20.37,12.678
	c-4.835,2.955-15.085,8.979-18.718,11.688"/>
<path fill="#72AEA5" d="M192.175,127.014c2.234,3.673,4.898,7.658,6.963,11.451c2.501,4.601,4.896,9.037,7.624,13.517
	c4.587,7.524,8.069,15.711,12.585,23.124c2.826,4.639,5.869,9.245,8.461,13.991c-0.698,0.853-1.664,1.403-2.768,1.585
	c-10.133-15.059-18.401-31.336-26.974-46.723c-1.862-3.346-3.657-6.487-5.657-9.768
	C190.095,130.391,187.925,129.514,192.175,127.014"/>
<path fill="#72AEA5" d="M140.979,183.76c-5.311,0.378-11.207,0.973-16.555,1.17c-6.484,0.238-12.727,0.455-19.204,0.916
	c-10.876,0.775-21.876,0.438-32.592,1.201c-6.707,0.479-13.5,1.141-20.195,1.393c-0.552-0.867-0.626-1.834-0.204-2.77
	c22.302-2.307,44.916-2.688,66.717-3.646c4.742-0.202,9.227-0.206,13.966-0.544C138.408,181.09,140.617,179.56,140.979,183.76"/>
<path fill="#72AEA5" d="M50.109,186.551c2.568-4.139,5.273-8.832,8.014-12.893c3.321-4.926,6.535-9.66,9.664-14.705
	c5.26-8.479,11.53-16.406,16.709-24.762c3.241-5.227,6.373-10.617,9.805-15.706c1.033,0.085,1.887,0.587,2.453,1.433
	c-10.181,17.791-22.154,34.707-33.199,51.357c-2.403,3.616-4.841,6.93-7.136,10.625C53.765,186.185,53.852,188.69,50.109,186.551"/>
<path fill="#EE8F2A" d="M110.649,114.787c-5.195-1.018-9.576-3.075-14.63-4.311c-1.959-0.479-5.472-1.745-7.458-1.476
	c-2.847,0.389-3.205,2.968-3.802,5.353c-1.596,6.358,2.37,7.735,7.964,9.089c4.474,1.082,10.361,2.872,14.755,1.945
	c2.551-0.532,5.057-1.418,5.97-3.971C114.582,118.254,112.251,116.871,110.649,114.787"/>
<path fill="#EE8F2A" d="M151.263,181.627c-0.364-6.027-6.536-9.783-12.293-9.844c-13.34-0.141-26.501,2.579-39.812,3.219
	c-6.607,0.317-13.283,0.724-19.706,1.935c-6.874,1.298-13.883,2.419-21.083,2.419c-4.73-0.143-12.335-0.211-11.167,6.479
	c0.476,2.701,1.766,4.227,4.102,5.486c2.284,1.235,4.764,0.903,7.459,0.903c13.25,0,26.202,0.313,39.219,0.948
	c6.702,0.328,13.502,0.361,20.302,0.377c6.445,0.019,13.596-0.305,19.905-1.518C143.759,190.959,151.691,188.68,151.263,181.627z
	 M137.605,191.237c-6.215,1.074-13.261,1.357-19.611,1.344c-6.698-0.018-13.396-0.047-19.996-0.334
	c-12.823-0.562-25.579-0.838-38.632-0.838c-2.654,0-5.098,0.291-7.347-0.801c-2.302-1.113-3.569-2.467-4.034-4.854
	c-1.156-5.922,6.333-5.859,10.998-5.736c7.086,0,13.991-0.988,20.766-2.139c6.324-1.073,12.901-1.432,19.409-1.711
	c13.112-0.563,26.075-2.973,39.212-2.849c5.676,0.056,11.752,3.375,12.112,8.708C150.904,188.271,143.091,190.29,137.605,191.237z"
	/>
<g>
	<path fill="#EE8F2A" d="M150.85,180.866c-0.593-5.91-5.425-8.398-10.884-9.146l0,0c-5.903-0.7-12.632,4.484-11.253,10.553
		c1.039,4.559,7.35,8.779,11.978,9.146C146.688,191.893,151.43,186.709,150.85,180.866z M140.589,190.372
		c-4.146-0.326-9.798-4.106-10.728-8.191c-1.235-5.434,4.464-10.391,9.753-9.764l0,0c4.889,0.67,9.538,3.215,10.07,8.506
		C150.208,186.153,145.96,190.797,140.589,190.372z"/>
	<path fill="#EE8F2A" d="M142.483,172.104c-0.712-0.363-2.317,7.132-2.726,8.744c-0.399,1.568-0.797,3.143-1.194,4.713
		c-0.349,1.382-1.031,3.514-1.179,4.811c0.104,0.053,0.221,0.084,0.338,0.084c0.188-0.715,0.512-1.367,0.732-2.057
		c0.244-0.751,0.438-1.514,0.648-2.296c0.417-1.56,0.672-3.067,1.074-4.644c0.41-1.61,0.756-3.224,1.218-4.816
		c0.327-1.125,1.181-3.441,1.095-4.438"/>
	<path fill="#EE8F2A" d="M133.804,172.952c-0.75,0.291,4.58,6.758,5.693,8.192c1.08,1.399,2.155,2.802,3.237,4.208
		c0.95,1.23,2.326,3.244,3.328,4.261c0.112-0.041,0.21-0.11,0.286-0.2c-0.493-0.646-0.844-1.346-1.283-1.996
		c-0.482-0.713-1.009-1.396-1.537-2.103c-1.061-1.403-2.173-2.657-3.255-4.065c-1.106-1.434-2.252-2.828-3.312-4.293
		c-0.749-1.037-2.173-3.309-3.069-3.936"/>
	<path fill="#EE8F2A" d="M129.49,182.424c-0.107,0.777,8.316-0.573,10.149-0.811c1.79-0.229,3.579-0.453,5.366-0.682
		c1.574-0.201,4.059-0.378,5.467-0.729c0.015-0.115,0-0.23-0.042-0.34c-0.815,0.1-1.623,0.049-2.425,0.104
		c-0.875,0.063-1.746,0.173-2.641,0.277c-1.783,0.207-3.453,0.535-5.248,0.764c-1.828,0.234-3.646,0.521-5.482,0.697
		c-1.298,0.129-4.039,0.223-5.042,0.674"/>
</g>
<path fill="#72AEA5" d="M55.729,193.52c-10.606,0.422-15.402-13.979-2.587-14.702c10.781-0.612,13.138,10.634,3.109,14.195"/>
<g>
	<path fill="#EE8F2A" d="M181.917,80.213c0.238,1.512,0.566,3.185,0.748,4.719c0.219,1.856,0.424,3.644,0.722,5.49
		c0.495,3.103,0.622,6.284,1.108,9.34c0.301,1.907,0.672,3.836,0.901,5.756c-0.274,0.197-0.595,0.261-0.912,0.18
		c-1.249-6.326-1.87-12.825-2.659-19.063c-0.173-1.357-0.271-2.652-0.486-3.999C181.089,81.066,180.539,80.498,181.917,80.213"/>
	<path fill="#EE8F2A" d="M193.181,91.534c0.131,0.821,0.334,1.718,0.406,2.554c0.084,1.012,0.164,1.987,0.322,2.987
		c0.269,1.676,0.174,3.434,0.434,5.088c0.17,1.036,0.396,2.072,0.488,3.118c-0.285,0.134-0.605,0.194-0.914,0.18
		c-0.785-3.402-0.938-6.958-1.279-10.354c-0.074-0.738-0.078-1.445-0.195-2.179C192.307,92.078,191.8,91.812,193.181,91.534"/>
	<path fill="#EE8F2A" d="M198.787,91.534c0.131,0.821,0.332,1.718,0.403,2.554c0.084,1.012,0.167,1.987,0.326,2.987
		c0.269,1.676,0.171,3.434,0.435,5.088c0.166,1.036,0.391,2.072,0.482,3.118c-0.283,0.134-0.6,0.194-0.91,0.18
		c-0.786-3.402-0.941-6.958-1.279-10.354c-0.072-0.738-0.082-1.445-0.197-2.179C197.91,92.078,197.401,91.812,198.787,91.534"/>
	<path fill="#EE8F2A" d="M203.947,91.955c0.129,0.793,0.326,1.668,0.395,2.474c0.082,0.983,0.152,1.929,0.312,2.896
		c0.257,1.628,0.153,3.332,0.411,4.935c0.156,1.003,0.381,2.009,0.466,3.021c-0.284,0.134-0.601,0.194-0.911,0.183
		c-0.767-3.301-0.902-6.746-1.228-10.041c-0.072-0.714-0.077-1.402-0.19-2.11C203.069,92.49,202.565,92.232,203.947,91.955"/>
	<path fill="#EE8F2A" d="M186.787,80.112c0.242,1.505,0.563,3.163,0.742,4.684c0.219,1.845,0.424,3.62,0.717,5.455
		c0.491,3.076,0.613,6.233,1.096,9.267c0.305,1.897,0.668,3.813,0.896,5.716c-0.275,0.199-0.593,0.26-0.912,0.18
		c-1.242-6.279-1.853-12.73-2.638-18.924c-0.173-1.348-0.269-2.63-0.479-3.968C185.96,80.965,185.408,80.396,186.787,80.112"/>
	<path fill="#EE8F2A" d="M184.893,104.324c1.38-0.027,2.912-0.125,4.297-0.086c1.683,0.05,3.297,0.103,4.979,0.07
		c2.824-0.058,5.666,0.301,8.451,0.242c1.741-0.032,3.506-0.136,5.241-0.088c0.132,0.335,0.138,0.693,0.019,1.033
		c-5.805,0.383-11.66,0.045-17.313-0.062c-1.229-0.026-2.389-0.12-3.618-0.096C185.52,105.367,184.927,105.887,184.893,104.324"/>
	<path fill="#EE8F2A" d="M182.599,91.548c1.771-0.035,3.736-0.139,5.516-0.106c2.15,0.042,4.231,0.083,6.389,0.042
		c3.623-0.073,7.266,0.271,10.834,0.197c2.234-0.046,4.5-0.156,6.727-0.118c0.167,0.333,0.171,0.694,0.016,1.032
		c-7.439,0.411-14.953,0.108-22.199,0.03c-1.578-0.018-3.065-0.104-4.648-0.073C183.4,92.591,182.64,93.112,182.599,91.548"/>
	<path fill="#EE8F2A" d="M183.107,95.238c1.669-0.031,3.523-0.134,5.197-0.102c2.031,0.045,3.994,0.09,6.021,0.049
		c3.416-0.066,6.85,0.279,10.217,0.21c2.104-0.041,4.236-0.148,6.338-0.107c0.158,0.331,0.164,0.69,0.014,1.031
		c-7.012,0.402-14.092,0.091-20.928,0.005c-1.485-0.021-2.889-0.109-4.377-0.079C183.865,96.282,183.144,96.8,183.107,95.238"/>
	<path fill="#EE8F2A" d="M182.343,87.291c0.32-0.01,0.672-0.084,0.994-0.02c0.385,0.072,0.763,0.149,1.147,0.139
		c0.649-0.016,1.31,0.385,1.949,0.368c0.401-0.009,0.808-0.084,1.208-0.011c0.035,0.335,0.039,0.694,0.018,1.03
		c-1.334,0.295-2.686-0.126-3.992-0.315c-0.285-0.045-0.557-0.153-0.838-0.147C182.501,88.344,182.371,88.853,182.343,87.291"/>
	<path fill="#EE8F2A" d="M183.875,100.063c1.477-0.028,3.127-0.126,4.615-0.087c1.807,0.048,3.543,0.096,5.35,0.059
		c3.033-0.059,6.086,0.294,9.072,0.234c1.871-0.039,3.769-0.142,5.631-0.097c0.143,0.332,0.148,0.695,0.02,1.03
		c-6.234,0.392-12.521,0.063-18.594-0.037c-1.318-0.021-2.564-0.114-3.891-0.087C184.544,101.108,183.91,101.629,183.875,100.063"/>
	<path fill="#EE8F2A" d="M212.352,91.838c-0.244,0.812-0.46,1.741-0.765,2.537c-0.367,0.966-0.729,1.896-1.023,2.888
		c-0.501,1.671-1.354,3.217-1.846,4.861c-0.311,1.028-0.568,2.094-0.945,3.096c-0.309-0.034-0.613-0.147-0.875-0.329
		c0.803-3.518,2.223-6.829,3.413-10.099c0.26-0.713,0.563-1.357,0.778-2.088C211.343,91.863,211.016,91.345,212.352,91.838"/>
</g>
<path fill="#EE8F2A" d="M120.532,47.095c2.466,1.11,4.869,3.557,7.341,4.898c2.366,1.282,5.329,1.625,7.373,3.483
	c4.269,3.881,4.3,11.731,2.698,16.91c-1.667,5.391-3.931,10.393-6.451,15.402c-1.08,2.146-2.224,5.064-3.659,6.925
	c-1.627,2.106-5.656,1.376-8.22,1.508c-6.154,0.314-12.563,0.676-18.33-1.15c-2.811-0.891-5.308-2.207-8.065-3.397
	c-2.396-1.032-5.745-1.168-4.217-4.243c2.691-5.416,6.113-10.598,8.94-16.191c2.603-5.148,4.273-11.205,7.786-16.269
	c2.636-3.8,10.042-9.814,14.985-7.693"/>
<path fill="#72AEA5" d="M497.427,147.29c-2.732-4.304-5.938-8.988-8.521-13.416c-3.133-5.365-6.141-10.543-9.479-15.788
	c-5.609-8.814-10.232-18.295-15.76-26.979c-3.457-5.433-7.123-10.845-10.365-16.384c0.561-0.91,1.428-1.462,2.49-1.583
	c12.166,17.708,22.678,36.654,33.357,54.622c2.32,3.908,4.338,7.703,6.781,11.545C498.767,143.76,501.185,144.855,497.427,147.29"/>
<path fill="#EE8F2A" d="M539.138,22.217c-1.695,3.686-10.572,3.831-11.611-0.907C526.175,15.146,539.181,19.598,539.138,22.217"/>
<path fill="#EBB197" d="M497.177,24.368c-2.754-5.094-7.91-9.802-11.498-13.259c-2.602-2.507-10.938-8.725-14.592-4.346
	c-5.404,6.473,16.645,20.066,19.875,23.996c9.535-1.03,20.301-5.188,29.748-4.436c4.611,0.368,8.152,1.562,12.754-0.017
	c1.666-0.571,1.775-1.526,1.775-1.526s-2.639,0.585-2.895-0.249c-0.367-1.208,4.568-4.496,4.082-5.394
	c-1.293-2.383-4.738-0.649-5.627-0.514c-0.59,0.092-10.09,3.341-16.063,4.348C508.626,24.004,503.144,23.412,497.177,24.368"/>
<path fill="#EBB197" d="M506.083-28.022c2.441,2.374,5.859,8.001,6.055,11.371c-2.328,0.852-5.068,0.391-7.523,0.515
	c0.166,4.412-8.982,8.813-11.061,12.514c-2.479,4.412-3.016,12.413-2.791,17.523c-3.584-1.327-6.633-2.445-10.953-2.678
	c-0.832-5.322,3.424-11.182,4.16-16.331c0.928-6.48-1.066-12.669-1.936-18.717c-0.855-5.95-0.271-12.983,4.596-16.513
	c3.785-2.745,14.412-3.563,17.84,0.57c2.074,2.5,4.281,8.566,1.994,11.362"/>
<path fill="#EE8F2A" d="M534.806,37.377c-2.467-3.22-11.213-1.806-11.127,3.016c0.109,6.272,11.559-0.802,10.92-3.337"/>
<path fill="#E8754D" d="M148.083,12.065c-8.955-0.537-15.054,10.228-19.689,16.118c-4.404,5.594-13.105,13.945-21.197,12.029
	c3.596-2.702,7.557-5.772,10.842-9.002c4.268-4.193,4.854-7.735,6.736-12.71c2.758-7.288,19.104-17.778,23.521-6.883"/>
<path fill="#EBB197" d="M490.332-20.569c1.543-5.058-6.746-5.13-7.6-0.655c-0.945,4.955,4.482,7.025,7.645,9.112
	c0.703-2.038,0.105-6.672-0.131-8.829"/>
<path fill="#EBB197" d="M132.637,24.865c1.543-5.058-6.746-5.13-7.6-0.655c-0.945,4.955,4.482,7.025,7.645,9.112
	c0.703-2.038,0.105-6.672-0.131-8.829"/>
<path fill="#E8754D" d="M127.486-59.588c1.868-14.752-20.868-11.74-27.236-5.677c-8.342,7.943-7.433,21.137-17.598,26.861
	c-5.786,3.258-12.238,5.323-19.263,5.732c0.878,1.687,5.25,2.88,7.12,4.309c2.449,1.873,4.009,3.499,6.92,4.66
	c5.167,2.061,11.107,3.564,16.771,1.688c5.068-1.678,9.014-4.98,9.873-10.266c1.004-6.186-0.401-11.747,2.628-17.528
	c1.777-3.389,5.19-7.719,8.58-9.675c2.597-1.5,9.735-3.604,11.829-0.478"/>
<path fill="#72AEA5" d="M448.955,73.123c6.104,0,12.9-0.215,19.035,0c7.438,0.261,14.602,0.528,22.047,0.521
	c12.512-0.01,25.064,1.316,37.395,1.307c7.713-0.008,15.537-0.223,23.221,0.038c0.561,1.079,0.561,2.235,0,3.316
	c-25.713,0.872-51.617-0.571-76.641-1.267c-5.441-0.151-10.574-0.527-16.027-0.522C451.664,76.522,449.001,78.156,448.955,73.123"/>
<path fill="#72AEA5" d="M497.085,147.181c2.887-4.236,5.943-9.06,9.006-13.208c3.709-5.029,7.297-9.866,10.814-15.034
	c5.912-8.688,12.826-16.733,18.652-25.293c3.645-5.354,7.188-10.892,11.016-16.091c1.059,0.152,1.908,0.732,2.438,1.662
	c-11.527,18.276-24.842,35.527-37.193,52.542c-2.686,3.699-5.391,7.07-7.967,10.857
	C500.865,147.004,500.806,149.668,497.085,147.181"/>
<path fill="#72AEA5" d="M545.619,35.58c0.576,3.26,1.428,6.852,1.795,10.165c0.443,4.016,0.854,7.888,1.563,11.861
	c1.189,6.679,1.068,13.612,2.24,20.193c0.732,4.116,1.682,8.257,2.148,12.404c-1.008,0.487-2.146,0.687-3.262,0.575
	c-3.277-13.578-4.301-27.659-5.975-41.141c-0.365-2.932-0.479-5.737-0.996-8.647C542.533,37.617,540.675,36.479,545.619,35.58"/>
<path fill="#72AEA5" d="M536.912,21.027c3.834,0,7.068,0.059,10.094,2.21c2.254,1.601,5.586,5.755,4.443,8.888
	c-1.33,3.646-17.488,11.166-20.002,6.646c1.982-2.379,7.217-1.421,10.035-2.87c3.258-1.676,6.502-3.958,5.049-8.403
	c-1.721-3.244-11.178-2.572-9.906-6.183"/>
<path fill="#72AEA5" d="M524.248,152.352c1.654,0.001,3.332,0.025,4.967-0.055c-0.072-5.521,3.643-11.344,4.795-16.801
	c1.154-5.47,3.174-9.5,6.816-13.906c7.756-9.389,18.916-14.193,30.684-17.015c9.158-2.195,21.236-1.372,30.211,0.401
	c1.039-2.083,1.209-4.358,1.014-6.726c-5.309-1.491-12.307-0.411-17.877-0.411c-5.922,0-12.375-0.69-17.932,0.987
	c-10.674,3.224-19.471,7.185-26.969,15.778c-9.432,10.813-15.709,23.684-15.709,38.463"/>
<path fill="#E1B58E" d="M578.505,107.156c-1.137-0.729,6.629,36.604,8.236,44.719c1.566,7.91,3.137,15.819,4.703,23.729
	c1.379,6.954,3.367,17.883,4.838,24.171c0.166,0.109,0.314,0.084,0.434-0.074c-0.715-3.611-1.211-7.113-1.85-10.643
	c-0.697-3.854-1.459-7.701-2.23-11.65c-1.531-7.873-3.16-15.305-4.732-23.244c-1.604-8.09-3.271-16.135-4.807-24.238
	c-1.086-5.727-3.137-17.754-4.459-22.293"/>
<path fill="#E1B58E" d="M598.642,107.713c-0.723-1.141-9.475,35.973-11.447,44.006c-1.924,7.832-3.848,15.662-5.771,23.494
	c-1.689,6.885-4.512,17.629-5.84,23.947c0.107,0.17,0.252,0.211,0.426,0.116c0.883-3.573,1.912-6.958,2.824-10.426
	c0.998-3.786,1.936-7.597,2.908-11.5c1.939-7.783,3.605-15.205,5.539-23.065c1.969-8.009,3.857-16.004,5.895-23.996
	c1.439-5.648,4.664-17.417,5.389-22.086"/>
<path fill="#E1B58E" d="M622.9,122.312c0.051-1.351-28.217,24.243-34.398,29.737c-6.029,5.354-12.057,10.711-18.086,16.068
	c-5.301,4.707-13.719,11.955-18.396,16.403c-0.01,0.2,0.086,0.317,0.283,0.337c2.754-2.441,5.521-4.645,8.242-6.98
	c2.969-2.553,5.902-5.155,8.92-7.817c6.014-5.31,11.598-10.476,17.65-15.851c6.166-5.478,12.26-10.987,18.471-16.412
	c4.391-3.834,13.725-11.691,16.971-15.129"/>
<path fill="#E1B58E" d="M631.939,137.672c0.549-1.231-35.193,12.054-42.977,14.863c-7.584,2.737-15.168,5.477-22.754,8.215
	c-6.668,2.406-17.174,6.017-23.17,8.412c-0.084,0.184-0.035,0.328,0.139,0.418c3.465-1.246,6.854-2.265,10.244-3.427
	c3.705-1.269,7.396-2.599,11.186-3.952c7.553-2.699,14.654-5.428,22.27-8.175c7.758-2.799,15.459-5.657,23.24-8.394
	c5.498-1.932,17.082-5.768,21.371-7.756"/>
<path fill="#E1B58E" d="M634.617,155.728c0.977-0.935-37.133-2.201-45.398-2.554c-8.057-0.344-16.113-0.688-24.17-1.03
	c-7.082-0.304-18.174-0.949-24.629-1.007c-0.146,0.138-0.158,0.289-0.029,0.439c3.678,0.159,7.197,0.504,10.777,0.715
	c3.908,0.231,7.826,0.4,11.846,0.586c8.014,0.367,15.619,0.539,23.705,0.886c8.24,0.353,16.451,0.63,24.688,1.052
	c5.822,0.297,17.994,1.145,22.717,0.932"/>
<path fill="#E1B58E" d="M630.839,172.122c1.242-0.531-34.002-15.084-41.619-18.313c-7.424-3.147-14.848-6.294-22.271-9.442
	c-6.527-2.769-16.686-7.263-22.713-9.582c-0.186,0.078-0.248,0.217-0.182,0.402c3.389,1.439,6.563,2.995,9.842,4.449
	c3.58,1.589,7.189,3.121,10.889,4.703c7.375,3.156,14.438,5.983,21.889,9.145c7.592,3.223,15.188,6.359,22.75,9.645
	c5.348,2.32,16.451,7.381,20.947,8.838"/>
<path fill="#E1B58E" d="M615.017,191.825c1.338,0.186-21.348-30.464-26.207-37.158c-4.736-6.525-9.473-13.053-14.211-19.578
	c-4.162-5.738-10.547-14.83-14.514-19.924c-0.199-0.029-0.324,0.057-0.361,0.25c2.158,2.981,4.076,5.954,6.135,8.89
	c2.248,3.206,4.549,6.382,6.902,9.646c4.689,6.508,9.281,12.574,14.033,19.125c4.844,6.676,9.73,13.281,14.516,19.998
	c3.385,4.746,10.285,14.809,13.385,18.377"/>
<path fill="#72AEA5" d="M409.304,92.396c-0.002,1.533-0.029,3.09,0.057,4.606c5.793-0.068,11.9,3.379,17.625,4.447
	c5.736,1.071,9.967,2.944,14.59,6.321c9.848,7.194,14.889,17.545,17.85,28.46c2.305,8.493,0.232,8.843-1.629,17.167
	c2.188,0.963,4.572,1.121,7.059,0.939c1.563-4.922,1.637-0.561,1.637-5.728c0-5.491,0.725-11.478-1.035-16.632
	c-3.383-9.898-7.537-18.058-16.553-25.014c-11.344-8.747-24.848-14.569-40.352-14.569"/>
<path fill="#E1B58E" d="M456.716,142.721c0.764-1.055-38.4,6.146-46.914,7.64c-8.297,1.453-16.596,2.908-24.893,4.362
	c-7.295,1.277-18.761,3.123-25.357,4.484c-0.115,0.156-0.088,0.297,0.078,0.402c3.789-0.66,7.463-1.122,11.164-1.715
	c4.043-0.646,8.08-1.354,12.223-2.066c8.26-1.422,16.055-2.934,24.385-4.392c8.486-1.485,16.928-3.033,25.428-4.456
	c6.008-1.007,18.625-2.91,23.387-4.137"/>
<path fill="#E1B58E" d="M456.132,161.396c1.197-0.67-37.738-8.786-46.166-10.617c-8.215-1.784-16.43-3.567-24.645-5.353
	c-7.224-1.569-18.494-4.184-25.123-5.416c-0.181,0.099-0.224,0.232-0.123,0.394c3.75,0.818,7.299,1.772,10.938,2.621
	c3.973,0.925,7.969,1.794,12.064,2.696c8.164,1.8,15.95,3.345,24.196,5.138c8.399,1.826,16.79,3.578,25.175,5.468
	c5.926,1.334,18.27,4.326,23.17,4.996"/>
<path fill="#E1B58E" d="M440.818,183.896c1.416,0.049-25.436-26.17-31.197-31.903c-5.617-5.594-11.236-11.185-16.855-16.775
	c-4.939-4.916-12.543-12.725-17.211-17.063c-0.209-0.01-0.332,0.08-0.352,0.263c2.563,2.555,4.871,5.121,7.321,7.646
	c2.679,2.754,5.41,5.476,8.203,8.272c5.567,5.578,10.987,10.758,16.627,16.369c5.744,5.721,11.526,11.371,17.218,17.135
	c4.021,4.07,12.266,12.729,15.871,15.738"/>
<path fill="#E1B58E" d="M424.703,192.28c1.293,0.51-12.646-32.643-15.593-39.859c-2.87-7.033-5.743-14.067-8.616-21.104
	c-2.525-6.186-6.313-15.929-8.826-21.49c-0.191-0.077-0.342-0.032-0.438,0.129c1.308,3.213,2.375,6.354,3.595,9.501
	c1.329,3.437,2.727,6.858,4.145,10.373c2.832,7.006,5.693,13.594,8.574,20.654c2.938,7.195,5.938,14.34,8.806,21.557
	c2.028,5.101,6.054,15.844,8.138,19.82"/>
<path fill="#E1B58E" d="M405.763,194.765c0.979,0.907,2.309-34.442,2.678-42.108c0.361-7.472,0.721-14.943,1.082-22.416
	c0.318-6.57,0.994-16.857,1.055-22.846c-0.145-0.135-0.303-0.146-0.461-0.027c-0.168,3.411-0.527,6.676-0.75,9.997
	c-0.244,3.625-0.42,7.258-0.613,10.987c-0.387,7.434-0.565,14.486-0.93,21.986c-0.371,7.645-0.662,15.26-1.104,22.898
	c-0.313,5.398-1.199,16.688-0.977,21.069"/>
<path fill="#E1B58E" d="M388.563,191.262c0.558,1.15,15.823-31.538,19.213-38.604c3.304-6.886,6.604-13.771,9.904-20.658
	c2.903-6.053,7.618-15.477,10.054-21.064c-0.082-0.173-0.229-0.23-0.422-0.17c-1.512,3.144-3.145,6.089-4.67,9.129
	c-1.664,3.32-3.271,6.67-4.934,10.1c-3.311,6.842-6.276,13.393-9.594,20.303c-3.379,7.043-6.672,14.086-10.117,21.103
	c-2.434,4.959-7.742,15.257-9.271,19.429"/>
<path fill="#E1B58E" d="M367.894,176.586c-0.195,1.24,31.957-19.801,38.982-24.309c6.844-4.393,13.69-8.785,20.537-13.181
	c6.02-3.861,15.557-9.783,20.902-13.462c0.029-0.186-0.063-0.301-0.264-0.336c-3.129,2.002-6.246,3.781-9.324,5.689
	c-3.365,2.086-6.695,4.221-10.119,6.402c-6.828,4.35-13.191,8.607-20.064,13.018c-7.004,4.492-13.934,9.023-20.979,13.463
	c-4.978,3.139-15.534,9.539-19.276,12.414"/>
<path fill="#72AEA5" d="M552.798,87.772c2.299,3.901,5.043,8.134,7.17,12.164c2.576,4.884,5.045,9.598,7.855,14.353
	c4.723,7.99,8.311,16.686,12.963,24.558c2.91,4.925,6.043,9.815,8.713,14.856c-0.719,0.905-1.713,1.491-2.855,1.682
	c-10.436-15.988-18.949-33.273-27.775-49.615c-1.92-3.554-3.771-6.892-5.828-10.373C550.654,91.359,548.421,90.427,552.798,87.772"
	/>
<path fill="#72AEA5" d="M500.062,148.04c-5.467,0.398-11.539,1.033-17.049,1.24c-6.676,0.254-13.109,0.48-19.777,0.973
	c-11.205,0.824-22.535,0.465-33.576,1.276c-6.906,0.509-13.9,1.21-20.797,1.479c-0.57-0.922-0.646-1.947-0.215-2.943
	c22.973-2.447,46.266-2.854,68.721-3.867c4.883-0.219,9.504-0.22,14.387-0.58C497.417,145.202,499.695,143.579,500.062,148.04"/>
<path fill="#72AEA5" d="M406.468,151c2.646-4.392,5.43-9.377,8.254-13.691c3.422-5.229,6.732-10.258,9.957-15.614
	c5.416-9.005,11.871-17.425,17.209-26.297c3.338-5.55,6.566-11.276,10.098-16.682c1.064,0.093,1.945,0.623,2.525,1.522
	c-10.484,18.894-22.816,36.861-34.195,54.539c-2.475,3.845-4.986,7.361-7.348,11.287C410.231,150.612,410.324,153.276,406.468,151"
	/>
<path fill="#EE8F2A" d="M468.826,74.788c-5.352-1.08-9.865-3.269-15.07-4.579c-2.018-0.508-5.637-1.854-7.682-1.566
	c-2.932,0.412-3.299,3.15-3.916,5.686c-1.645,6.753,2.441,8.217,8.203,9.652c4.605,1.148,10.67,3.049,15.197,2.067
	c2.629-0.568,5.207-1.509,6.15-4.219C472.876,78.472,470.476,77.001,468.826,74.788"/>
<path fill="#EE8F2A" d="M510.658,145.772c-0.375-6.4-6.73-10.387-12.664-10.452c-13.738-0.151-27.295,2.74-41.004,3.417
	c-6.809,0.336-13.684,0.768-20.299,2.055c-7.08,1.379-14.301,2.568-21.714,2.568c-4.875-0.15-12.707-0.225-11.502,6.881
	c0.487,2.868,1.815,4.489,4.221,5.827c2.354,1.312,4.908,0.96,7.685,0.96c13.65,0,26.988,0.332,40.398,1.008
	c6.898,0.346,13.902,0.381,20.906,0.399c6.643,0.019,14.008-0.324,20.506-1.612C502.929,155.686,511.097,153.264,510.658,145.772z
	 M496.589,155.979c-6.4,1.141-13.656,1.443-20.197,1.428c-6.9-0.018-13.797-0.049-20.596-0.355
	c-13.209-0.596-26.346-0.891-39.793-0.891c-2.732,0-5.248,0.313-7.568-0.85c-2.367-1.184-3.676-2.618-4.156-5.156
	c-1.188-6.287,6.527-6.221,11.328-6.088c7.303,0,14.416-1.053,21.389-2.271c6.518-1.141,13.289-1.521,19.994-1.817
	c13.504-0.601,26.857-3.158,40.391-3.022c5.844,0.057,12.105,3.582,12.477,9.246C510.287,152.829,502.242,154.973,496.589,155.979z"
	/>
<g>
	<path fill="#EE8F2A" d="M510.23,144.963c-0.611-6.273-5.588-8.918-11.209-9.713l0,0c-6.082-0.742-13.012,4.763-11.59,11.207
		c1.066,4.842,7.568,9.324,12.336,9.713C505.945,156.672,510.832,151.168,510.23,144.963z M499.664,155.061
		c-4.271-0.348-10.092-4.361-11.049-8.697c-1.273-5.773,4.598-11.037,10.045-10.373l0,0c5.035,0.711,9.826,3.416,10.373,9.033
		C509.572,150.581,505.195,155.512,499.664,155.061z"/>
	<path fill="#EE8F2A" d="M501.615,135.659c-0.734-0.386-2.387,7.574-2.809,9.286c-0.408,1.669-0.818,3.337-1.229,5.007
		c-0.359,1.467-1.064,3.729-1.217,5.108c0.105,0.058,0.229,0.088,0.352,0.088c0.191-0.76,0.525-1.453,0.754-2.185
		c0.252-0.797,0.453-1.607,0.668-2.438c0.43-1.654,0.693-3.26,1.105-4.934c0.422-1.707,0.777-3.422,1.256-5.113
		c0.336-1.195,1.217-3.656,1.125-4.712"/>
	<path fill="#EE8F2A" d="M492.673,136.56c-0.773,0.31,4.723,7.173,5.863,8.7c1.113,1.488,2.225,2.977,3.338,4.467
		c0.977,1.309,2.395,3.445,3.428,4.529c0.115-0.047,0.215-0.119,0.293-0.217c-0.506-0.682-0.865-1.429-1.32-2.119
		c-0.496-0.756-1.037-1.48-1.584-2.229c-1.088-1.493-2.238-2.823-3.354-4.317c-1.137-1.523-2.318-3.006-3.408-4.563
		c-0.771-1.102-2.238-3.514-3.16-4.18"/>
	<path fill="#EE8F2A" d="M488.232,146.618c-0.109,0.827,8.563-0.609,10.453-0.857c1.844-0.241,3.688-0.482,5.527-0.725
		c1.619-0.213,4.178-0.402,5.627-0.775c0.02-0.121,0.002-0.245-0.043-0.36c-0.842,0.106-1.67,0.056-2.496,0.114
		c-0.898,0.064-1.797,0.182-2.719,0.291c-1.836,0.218-3.557,0.57-5.406,0.813c-1.885,0.246-3.754,0.553-5.645,0.741
		c-1.338,0.136-4.16,0.233-5.191,0.714"/>
</g>
<path fill="#72AEA5" d="M412.257,158.404c-10.924,0.448-15.865-14.845-2.666-15.616c11.105-0.649,13.537,11.295,3.205,15.078"/>
<g>
	<path fill="#EE8F2A" d="M542.234,38.069c0.244,1.606,0.582,3.383,0.77,5.011c0.227,1.972,0.439,3.872,0.742,5.832
		c0.51,3.293,0.641,6.673,1.143,9.918c0.313,2.027,0.691,4.076,0.928,6.113c-0.283,0.209-0.611,0.275-0.939,0.189
		c-1.285-6.717-1.924-13.618-2.738-20.244c-0.178-1.44-0.277-2.813-0.5-4.248C541.38,38.977,540.812,38.371,542.234,38.069"/>
	<path fill="#EE8F2A" d="M553.833,50.092c0.135,0.87,0.344,1.826,0.418,2.713c0.088,1.074,0.17,2.11,0.334,3.172
		c0.277,1.781,0.176,3.647,0.449,5.404c0.17,1.099,0.4,2.201,0.498,3.311c-0.295,0.143-0.621,0.209-0.939,0.191
		c-0.809-3.615-0.967-7.391-1.318-10.996c-0.076-0.784-0.082-1.537-0.203-2.313C552.931,50.672,552.412,50.387,553.833,50.092"/>
	<path fill="#EE8F2A" d="M559.607,50.092c0.135,0.87,0.344,1.826,0.416,2.713c0.09,1.074,0.172,2.11,0.336,3.172
		c0.273,1.781,0.176,3.647,0.445,5.404c0.174,1.099,0.404,2.201,0.498,3.311c-0.293,0.143-0.619,0.209-0.938,0.191
		c-0.811-3.615-0.969-7.391-1.32-10.996c-0.074-0.784-0.082-1.537-0.203-2.313C558.705,50.672,558.183,50.387,559.607,50.092"/>
	<path fill="#EE8F2A" d="M564.923,50.539c0.131,0.843,0.336,1.77,0.404,2.629c0.084,1.042,0.16,2.048,0.32,3.075
		c0.268,1.729,0.156,3.538,0.424,5.241c0.164,1.064,0.393,2.133,0.479,3.209c-0.293,0.14-0.619,0.206-0.938,0.19
		c-0.793-3.501-0.934-7.163-1.268-10.659c-0.072-0.761-0.076-1.491-0.191-2.244C564.019,51.108,563.5,50.834,564.923,50.539"/>
	<path fill="#EE8F2A" d="M547.25,37.964c0.244,1.596,0.578,3.358,0.764,4.974c0.225,1.959,0.436,3.846,0.736,5.791
		c0.506,3.268,0.633,6.624,1.131,9.845c0.311,2.014,0.686,4.046,0.92,6.069c-0.283,0.208-0.609,0.274-0.938,0.189
		c-1.279-6.668-1.908-13.519-2.717-20.097c-0.178-1.431-0.275-2.793-0.494-4.217C546.396,38.867,545.826,38.266,547.25,37.964"/>
	<path fill="#EE8F2A" d="M545.296,63.675c1.42-0.028,2.998-0.131,4.428-0.088c1.73,0.053,3.396,0.108,5.129,0.071
		c2.91-0.061,5.836,0.32,8.703,0.26c1.793-0.037,3.611-0.145,5.4-0.094c0.135,0.354,0.141,0.736,0.016,1.095
		c-5.975,0.405-12.008,0.049-17.83-0.066c-1.266-0.025-2.461-0.125-3.729-0.099C545.943,64.784,545.332,65.336,545.296,63.675"/>
	<path fill="#EE8F2A" d="M542.935,50.107c1.82-0.037,3.848-0.148,5.678-0.113c2.221,0.043,4.359,0.089,6.58,0.043
		c3.732-0.076,7.484,0.287,11.162,0.211c2.301-0.047,4.633-0.165,6.926-0.124c0.174,0.354,0.18,0.735,0.018,1.096
		c-7.666,0.438-15.4,0.114-22.869,0.032c-1.625-0.019-3.156-0.111-4.781-0.078C543.759,51.213,542.974,51.768,542.935,50.107"/>
	<path fill="#EE8F2A" d="M543.458,54.026c1.719-0.033,3.627-0.143,5.354-0.106c2.092,0.046,4.109,0.094,6.201,0.051
		c3.52-0.072,7.057,0.295,10.523,0.224c2.168-0.045,4.367-0.159,6.529-0.116c0.16,0.354,0.168,0.735,0.016,1.096
		c-7.227,0.43-14.518,0.098-21.557,0.006c-1.531-0.02-2.979-0.115-4.512-0.083C544.238,55.134,543.498,55.688,543.458,54.026"/>
	<path fill="#EE8F2A" d="M542.671,45.584c0.328-0.006,0.691-0.085,1.021-0.021c0.396,0.079,0.783,0.16,1.184,0.149
		c0.67-0.017,1.35,0.408,2.008,0.392c0.414-0.01,0.832-0.09,1.244-0.013c0.037,0.356,0.043,0.738,0.018,1.096
		c-1.373,0.314-2.768-0.135-4.111-0.338c-0.293-0.044-0.57-0.162-0.861-0.154C542.833,46.703,542.701,47.246,542.671,45.584"/>
	<path fill="#EE8F2A" d="M544.246,59.152c1.525-0.03,3.223-0.135,4.756-0.095c1.859,0.05,3.65,0.104,5.51,0.064
		c3.125-0.065,6.266,0.312,9.346,0.247c1.926-0.04,3.879-0.15,5.799-0.102c0.146,0.354,0.152,0.735,0.018,1.094
		c-6.418,0.415-12.895,0.066-19.146-0.04c-1.359-0.023-2.646-0.122-4.006-0.093C544.939,60.261,544.283,60.813,544.246,59.152"/>
	<path fill="#EE8F2A" d="M573.58,50.413c-0.252,0.865-0.475,1.851-0.787,2.697c-0.379,1.025-0.748,2.013-1.055,3.067
		c-0.518,1.774-1.396,3.414-1.904,5.161c-0.316,1.094-0.58,2.225-0.969,3.286c-0.318-0.035-0.633-0.156-0.904-0.349
		c0.826-3.734,2.291-7.252,3.516-10.725c0.266-0.755,0.58-1.442,0.805-2.216C572.541,50.44,572.207,49.892,573.58,50.413"/>
</g>
<path fill="#FFFFFF" d="M479.373,3.648c2.566,1.156,5.066,3.701,7.641,5.099c2.463,1.335,5.547,1.69,7.674,3.626
	c4.441,4.038,4.477,12.208,2.809,17.6c-1.734,5.61-4.092,10.817-6.715,16.031c-1.123,2.233-2.314,5.271-3.809,7.207
	c-1.693,2.192-5.887,1.433-8.555,1.568c-6.404,0.328-13.076,0.705-19.078-1.196c-2.926-0.927-5.523-2.297-8.395-3.536
	c-2.492-1.074-5.98-1.215-4.391-4.414c2.803-5.637,6.363-11.035,9.307-16.853c2.711-5.359,4.445-11.663,8.104-16.934
	c2.744-3.955,10.451-10.216,15.598-8.008"/>
<path fill="#EBB197" d="M493.521,31.3c-1.076-5.688-4.563-11.741-6.932-16.123c-1.717-3.179-7.771-11.634-12.584-8.571
	c-7.111,4.527,9.768,24.174,11.654,28.898c9.395,1.912,20.918,1.22,29.688,4.804c4.281,1.751,7.475,5.167,12.158,3.856
	c9.102-2.546-2.287-4.732-1.984-7.053c0.992-0.342,1.041-0.891,1.611-1.31c-6.018-1.224-10.459,0.354-16.455-0.499
	C504.541,34.43,499.496,32.2,493.521,31.3"/>
<path fill="#EBB197" d="M134.626,73.837c-1.046-5.355-4.431-11.053-6.73-15.181c-1.669-2.991-7.545-10.954-12.217-8.067
	c-6.905,4.26,9.481,22.761,11.315,27.209c9.121,1.801,20.306,1.146,28.824,4.522c4.157,1.649,7.253,4.868,11.801,3.633
	c8.836-2.397-2.218-4.458-1.927-6.643c0.968-0.321,1.011-0.836,1.565-1.233c-5.842-1.152-10.154,0.335-15.977-0.47
	C145.326,76.787,140.427,74.686,134.626,73.837"/>
</svg>
