<?xml version="1.0" encoding="utf-8"?>
<!-- Generator: Adobe Illustrator 16.0.0, SVG Export Plug-In . SVG Version: 6.00 Build 0)  -->
<!DOCTYPE svg PUBLIC "-//W3C//DTD SVG 1.1//EN" "http://www.w3.org/Graphics/SVG/1.1/DTD/svg11.dtd">
<svg version="1.1" id="Layer_1" xmlns="http://www.w3.org/2000/svg" xmlns:xlink="http://www.w3.org/1999/xlink" x="0px" y="0px"
	 width="162.418px" height="160.743px" viewBox="0 0 162.418 160.743" enable-background="new 0 0 162.418 160.743"
	 xml:space="preserve">
<g>
	<g>
		<g>
			<path fill="#E8744D" d="M153.413,156.913c-0.896,0-1.791-0.342-2.475-1.024L7.111,12.062c-1.367-1.367-1.367-3.583,0-4.95
				c1.367-1.366,3.583-1.366,4.95,0l143.827,143.827c1.366,1.367,1.366,3.583,0,4.95
				C155.206,156.571,154.309,156.913,153.413,156.913z"/>
			<path fill="#E8744D" d="M153.413,159.913c-1.734,0-3.366-0.676-4.595-1.901L4.99,14.183c-2.534-2.534-2.534-6.658,0-9.192
				c1.229-1.228,2.861-1.903,4.597-1.903c1.736,0,3.368,0.676,4.595,1.902l143.828,143.829c2.533,2.534,2.533,6.658,0.001,9.191
				C156.781,159.238,155.149,159.913,153.413,159.913z M9.586,9.087c-0.095,0-0.233,0.025-0.355,0.147
				C9.037,9.428,9.037,9.746,9.232,9.941l143.827,143.826c0.24,0.241,0.468,0.239,0.709-0.001c0.193-0.193,0.193-0.511-0.002-0.707
				L9.94,9.233C9.819,9.113,9.681,9.087,9.586,9.087z"/>
		</g>
	</g>
	<g>
		<g>
			<path fill="#E8744D" d="M9.586,156.913c-0.896,0-1.792-0.342-2.475-1.024c-1.367-1.367-1.367-3.583,0-4.95L150.938,7.111
				c1.368-1.366,3.583-1.366,4.95,0c1.366,1.367,1.366,3.583,0,4.95L12.062,155.888C11.378,156.571,10.482,156.913,9.586,156.913z"
				/>
			<path fill="#E8744D" d="M9.586,159.913c-1.736,0-3.368-0.676-4.596-1.902c-2.535-2.535-2.535-6.659-0.001-9.193L148.817,4.99
				c1.229-1.228,2.861-1.903,4.597-1.903s3.367,0.675,4.595,1.902c2.534,2.536,2.534,6.659,0.002,9.193L14.183,158.009
				C12.953,159.238,11.321,159.913,9.586,159.913z M153.414,9.086c-0.095,0-0.234,0.026-0.356,0.147L9.232,153.059
				c-0.195,0.195-0.195,0.513,0,0.708c0.242,0.241,0.466,0.242,0.71-0.003L153.767,9.94c0.194-0.195,0.194-0.513-0.001-0.708
				C153.647,9.112,153.508,9.086,153.414,9.086z"/>
		</g>
	</g>
</g>
</svg>
