<?xml version="1.0" encoding="utf-8"?>
<!-- Generator: Adobe Illustrator 16.0.0, SVG Export Plug-In . SVG Version: 6.00 Build 0)  -->
<!DOCTYPE svg PUBLIC "-//W3C//DTD SVG 1.1//EN" "http://www.w3.org/Graphics/SVG/1.1/DTD/svg11.dtd">
<svg version="1.1" id="Layer_1" xmlns="http://www.w3.org/2000/svg" xmlns:xlink="http://www.w3.org/1999/xlink" x="0px" y="0px"
	 width="591.059px" height="800px" viewBox="0 0 591.059 800" enable-background="new 0 0 591.059 800" xml:space="preserve">
<g>
	<path fill="#5D8151" d="M285.78,22.465c2.84-3.869,35.74-17.804,53.941-2.164c13.24,11.378,13.677,32.007,2.322,43.844
		c-8.841,9.217-14.366,6.286-17.957,19.271c-2.405,8.697,0,20.777,0,29.783c0,16.766-4.531,40.546,2.287,55.762
		c32.768,10.078,112.367,36.768,139.952,55.926c20.663,14.351,41.83,37.225,59.848,52.116c8.864,12.627,23.418,18.128,6.33,27.155
		c-14.239,7.52-32.806-1.249-44.706-7.058c-26.592-12.98-42.105-35.307-61.45-56.012c-19.583-20.957-139.83-48.645-176.227-33.72
		c-28.956,11.876-56.047,33.82-75.043,54.305c-18.22,19.649-32.913,28.212-59.895,38.98c-16.07,6.412-22.4,3.504-24.829-14.008
		c-1.777-12.822,17.047-18.72,27.742-27.557c23.303-19.258,43.304-38.724,67.261-56.932c20.202-15.352,95.736-26.524,109.506-46.912
		c15.204-22.511-5.556-54.07,4.342-74.844c4.279-8.983,18.138-12.979,22.889-23.171c8.678-18.616-8.477-24.91-13.915-27.823
		c-8.277-4.167-10.55-5.627-17.205-5.554"/>
	<path fill="#FFFFFF" d="M191.482,192.098c-58.931-9.443-161.629,117.621-155.897,175.308
		c19.526,11.699,49.774,35.701,73.683,36.564c15.837,117.074-5.028,236.429,19.565,350.856
		c133.066,3.072,279.212,44.132,411.595,4.615c3.145-100.575-25.177-145.482-28.177-239.64c-0.944-29.641-9-112.644-9-112.644
		c23.177,0,64.825-47.888,64.825-47.888s8.352-42.532-27.648-86.502c-20.981-25.627-111.389-84.419-119.511-77.016
		c-3.632,3.311-23.346,29.005-38.169,40.581c-20.747,16.199-34.799,20.023-59.349,16.404c-22.967-3.385-44.669-7.739-66.141-18.858
		L191.482,192.098z"/>
</g>
<path fill="#72AEA5" d="M315.43,377.194c-4.141-18.583,8.286-40.102,21.923-41.102c15.462-1.137,29.856,7.16,31.82,22.184
	c2.542,19.43-44.03,71.541-53.953,72.247c-10.857,0.773-57.899-49.355-53.215-70.399
	C269.087,328.274,308.155,353.855,315.43,377.194"/>
</svg>
