<?xml version="1.0" encoding="utf-8"?>
<!-- Generator: Adobe Illustrator 16.0.0, SVG Export Plug-In . SVG Version: 6.00 Build 0)  -->
<!DOCTYPE svg PUBLIC "-//W3C//DTD SVG 1.1//EN" "http://www.w3.org/Graphics/SVG/1.1/DTD/svg11.dtd">
<svg version="1.1" id="Layer_1" xmlns="http://www.w3.org/2000/svg" xmlns:xlink="http://www.w3.org/1999/xlink" x="0px" y="0px"
	 width="503px" height="800px" viewBox="0 0 503 800" enable-background="new 0 0 503 800" xml:space="preserve">
<path fill="#5D8151" d="M217.26,21.632c-4.939-0.096,37.884-18.026,57.177-2.19c14.035,11.521,14.497,32.407,2.461,44.393
	c-9.371,9.332-15.229,6.365-19.034,19.511c-2.55,8.806,0,21.038,0,30.155c0,16.976-4.803,41.053,2.424,56.459
	c34.733,10.205,119.108,37.229,148.348,56.625c21.903,14.531,44.339,37.69,63.438,52.767c9.396,12.785,24.823,18.355,6.71,27.495
	c-15.093,7.614-34.773-1.265-47.388-7.146c-28.187-13.142-44.631-35.748-65.136-56.711
	c-20.758-21.219-148.219-49.252-186.799-34.142c-30.693,12.024-59.409,34.243-79.545,54.984
	c-19.313,19.895-34.888,28.565-63.487,39.467c-17.035,6.492-23.744,3.548-26.318-14.184c-1.884-12.982,18.069-18.954,29.406-27.901
	c24.701-19.498,45.901-39.208,71.296-57.643c21.414-15.544,101.479-26.856,116.075-47.498c16.116-22.793-5.889-54.746,4.602-75.78
	c4.536-9.095,19.226-13.14,24.262-23.46c9.198-18.849-8.985-25.222-14.75-28.17C241.002,28.661,228.312,21.847,217.26,21.632z"/>
<path fill="#FFFFFF" d="M106.781,195.935c-24.009,12.064-61.734,20.373-53.26,47.401c7.183,22.915,24.483,42.618,25.965,67.211
	c1.554,25.752,3.808,56.345-3.58,81.126c-8.404,28.199-19.721,54.06-25.972,82.577c-10.314,47.044-17.491,98.737-23.481,145.197
	c-3.527,27.353-2.218,53.127-7.297,79.593c-4.283,22.313-9.263,51.799-6.103,74.705c157.592,6.296,315.337,18.08,474.942,10.669
	c11.721-22.536-0.557-60.399-3.613-83.839c-3.408-26.157-8.043-51.795-9.736-77.99c-1.829-28.271-2.313-52.572-11.352-79.515
	c-8.423-25.106-12.878-52.703-16.036-77.999c-7.409-59.331-16.738-116.089-9.355-175.891c1.413-11.449,9.188-21.5,10.814-30.932
	c2.328-13.513-8.563-18.05-22.991-25.649c-7.244-3.815-26.539-15.473-34.739-15.291c-14.007,0.308-18.58,19.038-20.049,30.961
	c-3.56,28.891-3.78,47.819-42.953,59.712c-34.38,10.436-71.06,9.804-107.331,4.548c-28.09-4.07-65.674-15.739-82.993-35.213
	c-7.708-8.666-15.357-24.174-17.228-35.507c-1.75-10.598,5.769-28.762,0.139-38.302c-1.625-2.755-6.438-6.263-9.877-7.574"/>
<g>
	<path fill="#72AEA5" d="M131.845,367.473c-6.427,0.136-9.321,10.587-4.792,15.932c5.298,6.251,11.285-0.341,11.019-6.245
		c-0.591-3.785-6.687-2.921-8.652,0.419C127.8,374.037,128.582,369.548,131.845,367.473"/>
	<path fill="#72AEA5" d="M146.961,368.268c-6.426,0.136-9.32,10.588-4.792,15.932c5.298,6.251,11.285-0.341,11.019-6.246
		c-0.591-3.785-6.687-2.921-8.652,0.419C142.917,374.833,143.699,370.343,146.961,368.268"/>
</g>
<g>
	<path fill="#72AEA5" d="M386.206,390.473c6.427-0.141,9.321-10.966,4.792-16.501c-5.298-6.475-11.285,0.354-11.019,6.468
		c0.591,3.92,6.687,3.026,8.652-0.434C390.25,383.674,389.469,388.323,386.206,390.473"/>
	<path fill="#72AEA5" d="M371.089,389.649c6.426-0.141,9.32-10.967,4.792-16.501c-5.298-6.475-11.285,0.354-11.019,6.469
		c0.591,3.92,6.687,3.025,8.652-0.435C375.133,382.85,374.352,387.5,371.089,389.649"/>
</g>
<path fill="#72AEA5" d="M170.313,595.46c-5.25-9.913-11.646-19.775-18.004-29.165c-5.002,7.804-12.482,21.678-14.843,30.895
	c2.87,0,5.719-0.072,8.559-0.191c0.765,3.703,1.396,7.471,3.108,10.765c0.87,1.674,0.811,2.534,2.417,3.315
	c1.52,0.739,9.785,0.397,11.018-0.797c1.956-1.892,1.742-8.598,1.283-14.396C165.999,595.736,168.151,595.589,170.313,595.46z"/>
<path fill="#72AEA5" d="M172.992,523.348c-2.151-0.113-4.397-0.035-6.541-0.166c1.146-4.059,0.946-10.355-0.709-14.297
	c-1.385-3.299-3.552-4.423-6.213-4.737c-0.336-2.742-0.773-5.449-1.029-8.261c0.172-0.005,0.346-0.012,0.529-0.03
	c0.708-4.643,1.114-9.702-2.93-12.188l-1.029-1.029c-1.497,3.533-3.014,11.607,1.636,13.035c0.121,2.127,0.368,5.337,0.75,8.369
	c-1.52,0.003-3.155,0.133-4.869,0.197c-1.703,0.064-3.561,0.153-5.334,0.453c-0.342-2.931-0.823-5.81-1.096-8.808
	c0.172-0.005,0.346-0.012,0.529-0.03c0.708-4.643,1.115-9.702-2.931-12.188l-1.028-1.029c-1.497,3.533-3.014,11.607,1.636,13.035
	c0.138,2.388,0.429,6.143,0.896,9.475c-2.634,0.777-4.83,2.271-5.629,5.264c-1.248,4.668,0.705,11.329,2.576,15.284l-1.608,0.015
	c-1.188,0.023-1.983-0.05-3.107-0.094c0,0.322,0.112,0.788,0.185,1.165c11.524,1.028,23.844-1.821,35.317-2.045
	C172.963,524.542,172.958,523.535,172.992,523.348z"/>
<path fill="#72AEA5" d="M154.488,677.514c0-4.732,0.197-9.556-0.03-14.268c-5.434-0.334-10.685,1.009-16.07,1.212
	c-2.516,0.094-12.588-0.896-13.275,2.498l0,0c-0.094,2.58,1.045,5.358,1.632,7.797c0.825,3.429,1.341,6.961,2.14,10.389
	c0.812,3.496,0.82,7.417,1.848,10.782c0.458,1.499,0.046,1.369,1.193,2.239c2.391,1.814,7.98,0.508,10.833,0.508
	c2.737,0,7.243,1.071,9.726,0.194C156.069,697.598,154.488,681.851,154.488,677.514z M148.318,666
	c0.367-0.584,1.504-0.7,2.099-0.158c0.735,0.947,1.312,2.369,0.473,3.611l0,0C149.209,671.256,148.042,668.026,148.318,666z
	 M151.515,697.128c-1.939,0.137-3.932,0.04-5.885,0.045c-2.6,0.003-11.649,0.93-12.968-1.243c-0.739-1.219-0.639-4.707-0.829-6.263
	c-0.267-2.184-0.77-4.464-1.055-6.73c-0.292-2.328-0.227-4.813-0.21-7.241c0.021-3.142,0.048-3.753,2.724-3.745
	c5.808,0.017,11.7-1.102,17.42,0c0.164,0.032,0.533,0.098,0.628,0.249C151.627,672.655,153.767,689.464,151.515,697.128z"/>
</svg>
