<?xml version="1.0" encoding="utf-8"?>
<!-- Generator: Adobe Illustrator 16.0.0, SVG Export Plug-In . SVG Version: 6.00 Build 0)  -->
<!DOCTYPE svg PUBLIC "-//W3C//DTD SVG 1.1//EN" "http://www.w3.org/Graphics/SVG/1.1/DTD/svg11.dtd">
<svg version="1.1" id="Layer_1" xmlns="http://www.w3.org/2000/svg" xmlns:xlink="http://www.w3.org/1999/xlink" x="0px" y="0px"
	 width="591.059px" height="800px" viewBox="0 0 591.059 800" enable-background="new 0 0 591.059 800" xml:space="preserve">
<path fill="#5D8151" d="M104.947,276.139c73.593,1.85,147.105-1.974,220.943-1.974c61.536,0,123.949,1.324,185.289-0.161
	c6.037-14.837-156.289-10.516-178.852-10.516c-41.308,0-81.559,2.152-122.682,2.136c-27.28-0.011-77.453-2.758-100.565,2.136
	C109.081,267.76,100.256,271.439,104.947,276.139z"/>
<path fill="#5D8151" d="M285.529,22.043c2.84-3.695,35.74-17.006,53.941-2.066c13.24,10.868,13.677,30.573,2.322,41.88
	c-8.841,8.804-14.366,6.005-17.957,18.407c-2.405,8.308,0,19.847,0,28.448c0,16.015-4.531,38.729,2.287,53.264
	c32.768,9.627,112.367,35.121,139.952,53.421c20.663,13.708,41.83,35.557,59.848,49.78c8.864,12.062,23.418,17.316,6.33,25.938
	c-14.239,7.183-32.806-1.193-44.706-6.742c-26.592-12.398-42.105-33.725-61.45-53.502c-19.583-20.018-139.83-46.465-176.227-32.209
	c-28.956,11.344-56.047,32.305-75.043,51.872c-18.22,18.769-32.913,26.948-59.895,37.233c-16.07,6.125-22.4,3.348-24.829-13.381
	c-1.777-12.247,17.047-17.881,27.742-26.322c23.303-18.395,43.304-36.989,67.261-54.381c20.202-14.664,95.736-25.336,109.506-44.81
	c15.204-21.503-5.556-51.647,4.342-71.491c4.279-8.58,18.138-12.396,22.889-22.133c8.678-17.782-8.477-23.794-13.915-26.576
	c-8.277-3.98-10.55-5.375-17.205-5.306"/>
<path fill="#FFFFFF" d="M518.978,736.708c1.536-16.781-1.7-34.122-4.076-50.433c-12.347-84.771-20.619-173.465-35.057-258.135
	c-10.933-64.115-11.851-146.848-45.994-165.382c-21.508-11.675-109.917-9.313-148.517-9.35c-18.324-0.016-66.316,3.736-83.817,5.535
	c-40.776,4.192-59.813,76.976-66.376,135.37c-4.32,38.443-4.222,77.406-4.222,116.829c0,34.081-1.764,68.658,0,102.691
	c2.016,38.909,29.042,54.605,66.306,60.959c12.859,2.192,32.792,2.732,55.626,2.402c4.464,19.815,9.076,39.484,13.233,59.466
	c4.243,20.399,6.018,34.004,28.054,38.257c19.558,3.774,43.718,0.004,63.757,0c38.771-0.006,83.429,2.032,121.014-5.943
	c8.433-1.791,22.763-5.488,30.034-10.014C525.461,748.673,517.669,751.01,518.978,736.708z"/>
<path fill="#72AEA5" d="M376.228,356.7c0.003-24.422,9.327-27.35,9.275-52.233c-0.018-8.083-1.136-16.464,5.492-18.162
	c10.776-2.763,11.779,6.687,12.486,14.756c1.359,15.555-5.298,17.034,10.161,14.821c10.25-1.469,24.281,0.13,25.797,7.7
	c0.078,6.625-7.004,7.759-7.004,7.759s7.005,1.515,6.626,7.382c0.457,5.678-7.383,7.947-7.383,7.947
	c9.084,0.765,7.855,13.152,1.184,14.856c0,0,4.929,1.907,4.986,6.234c0.125,9.806-31.384,17.122-40.423,13.732
	C397.424,381.492,376.227,377.517,376.228,356.7z"/>
</svg>
