<?xml version="1.0" encoding="utf-8"?>
<!-- Generator: Adobe Illustrator 16.0.0, SVG Export Plug-In . SVG Version: 6.00 Build 0)  -->
<!DOCTYPE svg PUBLIC "-//W3C//DTD SVG 1.1//EN" "http://www.w3.org/Graphics/SVG/1.1/DTD/svg11.dtd">
<svg version="1.1" id="Layer_1" xmlns="http://www.w3.org/2000/svg" xmlns:xlink="http://www.w3.org/1999/xlink" x="0px" y="0px"
	 width="645px" height="800px" viewBox="0 0 645 800" enable-background="new 0 0 645 800" xml:space="preserve">
<g>
	<path fill="#B3815C" d="M379.96,741.981c-4.824-0.108-10.526-3.574-14.628-5.698c-4.224-2.188-9.809-5.408-12.958-9.134
		c-3.391-4.006-3.406-9.854,2.639-11.002c5.117-0.971,12.403-0.034,17.354,1.681c5.811,2.007,15.507,6.184,18.881,11.738
		c4.8,7.898-3.813,13.388-10.953,12.46"/>
	<path fill="#B3815C" d="M270.524,729.044c3.803-1.838,8.585-4.345,12.417-6.794c3.419-2.188,9.637-4.927,11.234-9.336
		c2.208-6.09-0.9-9.599-6.794-10.131c-5.01-0.451-9.454,2.646-14.157,4.185c-7.609,2.487-22.047,3.714-25.875,12.436
		c-2.099,4.775,3.974,9.207,8.166,9.969c2.812,0.509,5.151-0.195,7.896-0.536c2.67-0.33,5.617,0.579,8.161,0.012"/>
	<path fill="#EBB197" d="M277.701,436.406c29.085-26.949,40.223,25.598,41.057,48.323c1.365,37.171-9.46,76.066-13.013,113.763
		c-2.818,29.92,0.653,73.457-9.729,101.648c-10.339,28.081-45.894,37.425-71.116,32.586c0.396-20.93,38.727-22.9,48.742-38.165
		c13.529-20.616,13.521-65.493,14.601-90.935c2.363-55.606-7.742-112.2-8.488-166.938"/>
	<path fill="#EBB197" d="M372.056,449.908c-32.123-28.574-44.906,23.438-46.01,46.146c-1.804,37.149,9.929,76.69,13.586,114.627
		c2.901,30.118-1.29,73.522,10.029,102.322c11.272,28.683,61.222,36.621,65.488,32.772c-0.281-20.979-29.562-21.313-40.576-37.146
		c-14.879-21.381-14.521-66.319-15.524-91.851c-2.198-55.813,9.473-111.933,10.721-166.706"/>
	<path fill="#79BB93" d="M288.928,412.126c-11.015-0.483-14.974,28.976-17.805,37.485c-3.802,11.413-14.679,30.442-4.439,40.186
		c11.18,10.638,30.729,14.185,45.717,16.233c17.766,2.432,36.385,6.81,54.278,7.449c7.746,0.275,13.348-1.084,20.283-3.75
		c3.375-10.997-3.532-30.881-4.727-42.206c-1.436-13.632-3.3-30.36-8.886-42.892c-10.237-22.962-64.423-15.452-84.588-11.649
		c-1.576,0.297-3.069,0.789-4.653,1.203"/>
	<path fill="#5F3A21" d="M282.215,404.857c-0.938,3.182-2.604,6.811-1.958,10.262c0.794,4.227,3.915,4.555,7.958,5.533
		c7.396,1.795,14.65,3.891,21.954,5.265c14.329,2.692,31.026,5.611,45.223,4.927c4.112-0.194,17.212-0.851,19.475-3.771
		c1.22-1.578,1.421-8.817,0.514-10.369c-1.875-3.199-7.151-2.813-10.497-2.897c-14.326-0.371-29.337-1.152-44.003-3.199
		c-6.61-0.926-13.061-0.881-19.706-1.793c-6.083-0.832-12.126-3.722-18.065-3.83"/>
	<path fill="#EE8F2A" d="M367.526,287.989c5.616,8.775,16.228,11.942,22.259,20.037c5.313,7.127,8.707,17.76,11.494,26.74
		c2.893,9.327,6.021,19.053,9.938,27.76c3.895,8.664,6.313,18.516,10.865,26.977c-14.909,7.689-30.323,10.617-46.364,13.313
		c-1.84,6.125,0.363,13.189,1.979,19.1c-16.303,1.303-34.603-0.757-50.758-1.385c-16.34-0.637-31.831-2.116-46.854-9.938
		c0.464-4.971,2.783-11.507,0.942-16.099c-1.867-4.657-8.594-8.68-11.834-13.199c-6.879-9.602-11.876-15.73-6.023-28.035
		c4.247-8.935,10.44-17.945,16.014-26.196c5.26-7.785,10.187-17.396,16.509-24.912c6.888-8.192,20.715-16.581,31.526-17.605
		c11.477-1.089,31.375-1.522,41.646,3.624"/>
	<path fill="#F47D20" d="M333.051,271.299c-5.149,3.71-12.024,5.74-17.451,8.848c-4.438,2.543-4.952-0.102-4.806,5.401
		c0.073,2.788,2.606,4.944,3.68,7.498c4.605,10.957,6.397,20.973,5.73,32.947c4.396-3.323,8.552-8.073,13.377-11.295
		c-0.816,18.254,0.021,35.693,1.187,53.527c7.249-13.897,5.469-31.758,5.924-47.51c0.249-8.542-1.222-17.509-3.347-25.708
		c-1.943-7.502-0.985-16.173-4.312-23.035"/>
	<path fill="#E8754D" d="M347.348,124.462c-23.558-7.635-65.63-18.625-80.008,8.093c-16.113,29.941,7.665,54.286,6.767,83.409
		c-0.489,15.842-10.962,26.957-13.912,41.676c-2.957,14.723,4.599,24.929,12.562,35.953c12.421,17.196,40.455,41.031,21.036,63.805
		c6.184-2.774,11.938-8.612,17.866-11.951c6.981-3.927,11.387-7.56,15.334-14.298c7.31-12.47,6.348-27.485,4.883-40.976
		c-2.924-26.912-13.65-49.703-19.211-76.341c-2.337-11.202-4.381-30.893,1.204-42.053c5.987-11.969,25.662-13.566,36.136-6.894
		c24.161,15.389,26.606,50.587,23.063,76.464c-0.905,6.611-1.962,12.884-3.556,19.192c1.977-5.931,8.916-9.679,13.055-14.067
		c5.395-5.722,8.686-11.125,10.499-18.713c3.247-13.582-3.655-27.102-3.788-40.201c-0.244-23.281,9.994-63.173-24.161-67.015
		c-5.874-0.66-10.276,1.685-14.979,3.392"/>
	<path fill="#F47D20" d="M354.594,271.479c3.641,4.379,8.955,7.335,12.911,11.156c3.238,3.126,4.074,0.586,3.09,5.999
		c-0.5,2.744-2.912,4.52-4.191,6.894c-5.495,10.182-8.535,19.827-9.868,31.743c-3.081-3.891-5.737-9.155-9.188-13.008
		c-2.197,18.142-5.622,35.245-9.377,52.695c-3.756-14.725,0.507-32.118,2.606-47.736c1.138-8.469,3.749-17.12,6.775-24.925
		c2.771-7.138,3.35-15.831,7.149-22.149"/>
	<path fill="#B3815C" d="M341.254,420.762c-1.854-2.63-9.626-3.9-12.613-3.084l-0.445-0.063c-5.137-1.939-7.264,10.366-5.391,13.358
		c2.127,3.398,13.825,3.326,17.506,3.644C340.952,431.207,343.218,423.536,341.254,420.762z M336.978,431.045
		c-2.188-0.187-9.095-0.461-10.357-2.479c-1.112-1.778,0.265-9.901,3.247-8.26l0.266,0.039c1.681,0.229,6.35,0.586,7.453,2.148
		C338.747,424.146,337.36,429.02,336.978,431.045z"/>
	<path fill="#B3815C" d="M270.782,730.239c1.137-8.299-0.71-14.938-5.194-21.683c-5.138-7.725-9.41-8.618-17.851-5.604
		c-11.03,3.936-21.785,12.073-24.183,24.454c-4.005,20.687,40.115,6.241,47.408,1.5"/>
	<path fill="#B3815C" d="M371.997,739.719c-0.176-5.928,6.359-12.56,10.287-15.755c4.39-3.568,8.813-5.278,14.868-3.431
		c6.204,1.895,30.874,23.57,20.089,28.473c-5.5,2.497-13.815,0.215-19.876-0.604C391.138,747.551,377.491,742.367,371.997,739.719"
		/>
	<path fill="#EBB197" d="M393.271,186.635c0.521-8.796-7.971-10.05-13.389-5.979c-1.059-3.62-2.478-7.167-4.291-10.586
		c-6.65-12.557-18.226-21.002-32.182-23.473c-9.243-1.638-40.014-7.27-39.218,8.235l-0.646-1.902
		c-7.136,3.287-5.585,28.122-5.567,35.515c0.004,0.588,0.021,1.179,0.042,1.766c-1.054-1.035-2.193-1.92-3.574-2.364
		c-3.774-1.211-8.177,1.663-7.672,8.025c0.599,7.523,10.699,14.11,16.106,16.459c1.074,3.068,2.232,6.062,3.374,8.938
		c4.799,12.097,13.771,23.707,24.977,28.014c-0.771,10.455,2.028,23.646,3.525,33.076c1.924,12.105,2.964,25.616,6.72,37.08
		c1.337,0.012,2.173-0.041,3.578-0.459c7.867-14.813,8.361-40.456,9.831-57.447c0.28-3.242,1.739-10.082,2.376-16.193
		c0.284-0.194,0.565-0.39,0.852-0.596c14.257-10.296,22.704-26.608,23.925-43.573C387.483,197.218,392.987,191.424,393.271,186.635z
		"/>
	<path fill="#020202" d="M332.521,193.571c-1.85,2.144-2.368,6.337-2.979,9.141c-0.674,3.089-1.615,6.38-1.525,9.563
		c3.714,0.779,6.949,1.903,10.905,2.289c0.084-0.335,0.124-0.621,0.13-0.962c-3.516-0.624-6.4-1.347-9.61-2.192
		c-0.126-5.444,5.183-12.118,3.045-17.578"/>
	<path fill="#020202" d="M325.979,192.517c-0.926-1.506-3.765-1.9-2.752,1.549c0.523,1.775,2.967,1.025,2.683-1.026"/>
	<path fill="#020202" d="M341.328,193.849c-0.928-1.504-3.767-1.9-2.753,1.549c0.522,1.775,2.966,1.026,2.68-1.027"/>
	<path fill="#020202" d="M321.899,191.104c-0.134,0.207-0.412,0.21-0.479,0.45c1.06,0.568,2.092,1.17,3.214,1.602
		C325.263,192.131,322.568,191.41,321.899,191.104"/>
	<path fill="#020202" d="M337.222,192.625c-0.133,0.207-0.409,0.21-0.479,0.447c1.059,0.572,2.094,1.172,3.213,1.604
		C340.587,193.651,337.889,192.93,337.222,192.625"/>
	<path fill="#020202" d="M320.929,213.125c0.665,1.583,2.324,3.27,3.277,4.491c2.262,0.848,4.064,2.635,6.544,3.25
		c2.2,0.55,4.577,0.831,6.878,1.119c4.901,0.613,7.683-2.032,11.633-4.113c1.04-2.183,3.223-3.931,4.316-6.137
		c0.312-0.213,0.244-0.04,0.507-0.38c0.104,0.031,0.479,0.072,0.6,0.076c0.046,2.946-3.074,5.437-5.084,7.195
		c-2.422,2.115-5.343,3.741-8.496,4.511c-3.146,0.765-7.732-0.041-11.003-0.821c-2.615-0.624-7.191-3.641-8.474-5.973
		c-0.54-0.979-0.755-2.042-0.951-3.024"/>
	<path fill="#B3815C" d="M387.544,304.548c-1.334-0.966-1.838-4.271-2.41-6.149c-13.688-12.556-14.018,27.198-13.93,32.935
		c0.228,14.91-3.507,30.344-3.407,45.334c0.103,15.476-0.726,30.682,0.979,45.934c0.813,7.299-0.936,14.992-0.87,22.104
		c0.033,3.796,0.884,7.244,0.75,11.086c-0.129,3.792-1.705,7.685-1.568,11.474c0.254,7.157,9.786,9.425,15.647,11.565
		c7.336,2.681,15.29,3.973,17.105-5.722c1.271-6.771-3.02-13.667-4.612-20.118c-1.641-6.632-2.677-13.335-3.933-20.05
		c-1.996-10.661-6.205-20.752-6.648-31.702c-4.357,1.454-5.477-0.19-5.146,5.125c0.209,3.331,0.979,6.504,1.377,9.745
		c0.218,1.793,2.168,8.227,0.987,9.652c-2.161,2.616-7.913,0.11-9.167-2.181c-3.039-5.542-0.222-15.696-0.278-21.794
		c-0.066-7.089-0.403-13.605,0.637-21.226c1.784-13.032,4.714-25.791,7.091-38.471c1.773-9.458,0.185-29.87,7.214-36.207"/>
</g>
</svg>
