<?xml version="1.0" encoding="utf-8"?>
<!-- Generator: Adobe Illustrator 16.0.0, SVG Export Plug-In . SVG Version: 6.00 Build 0)  -->
<!DOCTYPE svg PUBLIC "-//W3C//DTD SVG 1.1//EN" "http://www.w3.org/Graphics/SVG/1.1/DTD/svg11.dtd">
<svg version="1.1" id="Layer_1" xmlns="http://www.w3.org/2000/svg" xmlns:xlink="http://www.w3.org/1999/xlink" x="0px" y="0px"
	 width="645px" height="800px" viewBox="0 0 645 800" enable-background="new 0 0 645 800" xml:space="preserve">
<path fill="#FFFFFF" d="M202.862,158.549c11.251,10.818,25.839,20.332,44.049,25.275c-33.374,7.182-66.764-23.149-98.578-22.824
	C83,161.668,5.541,125.781,31.188,85.833C65.44,32.479,240.413,31.949,250.486,96.062c4.99,31.768-12.57,45.083-49.323,60.216"/>
<g enable-background="new    ">
	<path fill="#010101" d="M54.922,82.133v15.838h-2.011V82.133H54.922z"/>
	<path fill="#010101" d="M67.45,97.971v-9.799h-1.572v-1.574h1.572v-0.541c0-1.598,0.347-3.055,1.294-3.971
		c0.763-0.752,1.78-1.058,2.728-1.058c0.717,0,1.341,0.165,1.734,0.329l-0.277,1.598c-0.301-0.141-0.717-0.258-1.295-0.258
		c-1.733,0-2.173,1.551-2.173,3.29v0.611h2.705v1.574h-2.705v9.799H67.45z"/>
	<path fill="#010101" d="M85.805,92.19c0,4.207-2.867,6.039-5.571,6.039c-3.028,0-5.363-2.256-5.363-5.851
		c0-3.807,2.451-6.039,5.548-6.039C83.632,86.339,85.805,88.712,85.805,92.19z M76.928,92.308c0,2.491,1.41,4.371,3.398,4.371
		c1.942,0,3.398-1.856,3.398-4.417c0-1.927-0.948-4.371-3.352-4.371C77.968,87.891,76.928,90.146,76.928,92.308z"/>
	<path fill="#010101" d="M99.721,94.869c0,1.175,0.023,2.208,0.093,3.102H98.01l-0.116-1.856h-0.046
		c-0.531,0.917-1.71,2.115-3.699,2.115c-1.757,0-3.86-0.987-3.86-4.981v-6.65h2.034v6.297c0,2.162,0.647,3.619,2.497,3.619
		c1.364,0,2.312-0.963,2.682-1.88c0.116-0.305,0.185-0.681,0.185-1.057v-6.979h2.034V94.869z"/>
	<path fill="#010101" d="M105.083,89.676c0-1.175-0.023-2.139-0.092-3.078h1.803l0.115,1.88h0.046
		c0.555-1.081,1.849-2.139,3.699-2.139c1.549,0,3.953,0.94,3.953,4.841v6.791h-2.035v-6.556c0-1.833-0.67-3.36-2.589-3.36
		c-1.341,0-2.381,0.963-2.728,2.115c-0.092,0.259-0.139,0.611-0.139,0.964v6.838h-2.034L105.083,89.676L105.083,89.676z"/>
	<path fill="#010101" d="M129.563,81.287v13.747c0,1.011,0.023,2.162,0.092,2.938h-1.826l-0.092-1.974h-0.046
		c-0.624,1.269-1.988,2.232-3.814,2.232c-2.705,0-4.785-2.326-4.785-5.78c-0.023-3.784,2.289-6.11,5.017-6.11
		c1.71,0,2.866,0.822,3.375,1.739h0.046v-6.791L129.563,81.287L129.563,81.287z M127.529,91.227c0-0.258-0.023-0.611-0.093-0.869
		c-0.3-1.316-1.41-2.397-2.936-2.397c-2.104,0-3.352,1.88-3.352,4.394c0,2.303,1.109,4.206,3.306,4.206
		c1.364,0,2.612-0.916,2.982-2.467c0.069-0.282,0.093-0.564,0.093-0.893V91.227z"/>
</g>
<g enable-background="new    ">
	<path fill="#010101" d="M66.041,119.208c-0.115-2.209-0.254-4.864-0.231-6.838h-0.069c-0.532,1.856-1.179,3.83-1.965,6.016
		l-2.751,7.684h-1.526l-2.52-7.543c-0.74-2.232-1.364-4.276-1.803-6.156H55.13c-0.046,1.974-0.162,4.629-0.3,7.002l-0.417,6.791
		h-1.918l1.086-15.838h2.566l2.659,7.66c0.647,1.951,1.179,3.689,1.572,5.334h0.069c0.393-1.598,0.948-3.337,1.642-5.334l2.774-7.66
		h2.566l0.971,15.838h-1.965L66.041,119.208z"/>
	<path fill="#010101" d="M74.315,114.791l2.451,6.72c0.254,0.752,0.531,1.646,0.716,2.327h0.046
		c0.208-0.682,0.439-1.551,0.717-2.374l2.219-6.673h2.149l-3.051,8.107c-1.457,3.9-2.45,5.898-3.837,7.12
		c-0.994,0.893-1.988,1.246-2.497,1.34l-0.509-1.739c0.509-0.164,1.179-0.493,1.78-1.01c0.555-0.446,1.248-1.246,1.71-2.303
		c0.093-0.211,0.162-0.376,0.162-0.494c0-0.117-0.046-0.282-0.139-0.541l-4.138-10.48H74.315z"/>
	<path fill="#010101" d="M106.724,118.081c0,5.452-3.259,8.342-7.235,8.342c-4.115,0-7.005-3.243-7.005-8.036
		c0-5.029,3.075-8.319,7.236-8.319C103.973,110.067,106.724,113.381,106.724,118.081z M94.634,118.339
		c0,3.384,1.803,6.415,4.97,6.415c3.19,0,4.994-2.984,4.994-6.579c0-3.149-1.619-6.439-4.97-6.439
		C96.298,111.736,94.634,114.861,94.634,118.339z"/>
	<path fill="#010101" d="M112.387,114.791l1.479,5.78c0.324,1.269,0.624,2.444,0.832,3.619h0.07
		c0.254-1.152,0.624-2.374,0.994-3.596l1.826-5.804h1.711l1.734,5.687c0.416,1.363,0.74,2.561,0.994,3.713h0.069
		c0.185-1.152,0.486-2.35,0.855-3.689l1.595-5.71h2.011l-3.606,11.373h-1.849l-1.711-5.428c-0.393-1.269-0.716-2.397-0.994-3.736
		h-0.046c-0.277,1.363-0.624,2.538-1.017,3.76l-1.803,5.405h-1.85l-3.375-11.373L112.387,114.791L112.387,114.791z"/>
	<path fill="#010101" d="M130.579,117.869c0-1.175-0.023-2.139-0.092-3.078h1.803l0.115,1.88h0.046
		c0.555-1.081,1.849-2.139,3.699-2.139c1.549,0,3.953,0.94,3.953,4.841v6.791h-2.035v-6.556c0-1.833-0.67-3.36-2.589-3.36
		c-1.341,0-2.381,0.963-2.728,2.115c-0.092,0.259-0.139,0.611-0.139,0.964v6.838h-2.034L130.579,117.869L130.579,117.869z"/>
	<path fill="#010101" d="M163.242,125.647c-0.74,0.376-2.219,0.752-4.115,0.752c-4.392,0-7.698-2.82-7.698-8.013
		c0-4.958,3.306-8.319,8.137-8.319c1.942,0,3.167,0.423,3.699,0.705l-0.485,1.668c-0.763-0.376-1.849-0.658-3.144-0.658
		c-3.652,0-6.08,2.373-6.08,6.532c0,3.877,2.196,6.368,5.987,6.368c1.225,0,2.474-0.258,3.283-0.658L163.242,125.647z"/>
	<path fill="#010101" d="M180.579,118.081c0,5.452-3.259,8.342-7.235,8.342c-4.115,0-7.005-3.243-7.005-8.036
		c0-5.029,3.075-8.319,7.236-8.319C177.828,110.067,180.579,113.381,180.579,118.081z M168.488,118.339
		c0,3.384,1.803,6.415,4.97,6.415c3.19,0,4.994-2.984,4.994-6.579c0-3.149-1.619-6.439-4.97-6.439
		C170.153,111.736,168.488,114.861,168.488,118.339z"/>
	<path fill="#010101" d="M185.178,110.326h2.011v14.123h6.658v1.715h-8.669V110.326z"/>
	<path fill="#010101" d="M210.49,118.081c0,5.452-3.259,8.342-7.235,8.342c-4.115,0-7.005-3.243-7.005-8.036
		c0-5.029,3.075-8.319,7.236-8.319C207.739,110.067,210.49,113.381,210.49,118.081z M198.4,118.339c0,3.384,1.803,6.415,4.97,6.415
		c3.19,0,4.993-2.984,4.993-6.579c0-3.149-1.618-6.439-4.97-6.439C200.064,111.736,198.4,114.861,198.4,118.339z"/>
	<path fill="#010101" d="M215.09,110.538c1.017-0.211,2.474-0.329,3.861-0.329c2.15,0,3.537,0.399,4.508,1.292
		c0.786,0.705,1.225,1.786,1.225,3.008c0,2.091-1.294,3.478-2.936,4.042v0.07c1.202,0.423,1.919,1.551,2.289,3.196
		c0.509,2.209,0.878,3.736,1.202,4.347h-2.081c-0.254-0.446-0.601-1.81-1.04-3.783c-0.462-2.186-1.295-3.008-3.121-3.078h-1.896
		v6.861h-2.011V110.538z M217.101,117.751h2.058c2.15,0,3.514-1.198,3.514-3.008c0-2.044-1.457-2.937-3.583-2.96
		c-0.971,0-1.665,0.094-1.988,0.188L217.101,117.751L217.101,117.751z"/>
	<path fill="#010101" d="M229.052,124.966c0-0.846,0.578-1.457,1.364-1.457c0.832,0,1.364,0.611,1.364,1.457
		c0,0.822-0.532,1.457-1.364,1.457C229.606,126.422,229.052,125.788,229.052,124.966z M229.63,121.605l-0.324-11.279h2.219
		l-0.324,11.279H229.63z"/>
</g>
</svg>
