<?xml version="1.0" encoding="utf-8"?>
<!-- Generator: Adobe Illustrator 16.0.0, SVG Export Plug-In . SVG Version: 6.00 Build 0)  -->
<!DOCTYPE svg PUBLIC "-//W3C//DTD SVG 1.1//EN" "http://www.w3.org/Graphics/SVG/1.1/DTD/svg11.dtd">
<svg version="1.1" id="Layer_1" xmlns="http://www.w3.org/2000/svg" xmlns:xlink="http://www.w3.org/1999/xlink" x="0px" y="0px"
	 width="645px" height="800px" viewBox="0 0 645 800" enable-background="new 0 0 645 800" xml:space="preserve">
<g>
	<path fill="#EBB197" d="M282.233,364.404c-20.183-11.604-22.693,22.667-39.33,19.098c-8.349-1.793-14.48-23.894-19.507-31.462
		c-3.843-5.783-24.645-34.61-24.327-12.579c0.077,5.398,6.042,13.886,8.147,18.832c2.347,5.521,4.122,11.095,6.22,16.673
		c5.638,15.006,12.419,46.019,35.423,35.479c15.416-7.063,24.66-32.014,34.109-45.033"/>
	<path fill="#EBB197" d="M210.417,335.998c-4.603-2.744-1.18-13.306-0.914-18.142c0.251-4.59-1.022-4.294-2.662-7.759
		c-1.224-2.585-0.964-6.04-2.349-8.811c-5.901,3.886,1.263,9.727-0.979,13.505c-2.372,3.997-10.63-3.188-13.012-4.91
		c-3.189-2.311-26.205-14.752-25.118-3.563c2.997,2.3,16.057,1.958,15.26,7.715c-3.428,0.638-14.917-3.638-17.136-0.78
		c-3.503,4.519,11.588,4.993,13.409,6.276c-0.042,0.217-0.103,0.854-0.108,1.079c-3.361,1.175-10.429-0.201-12.884,3.272
		c-3.43,4.854,9.264,2.901,10.885,4.862c2.233,6.621-13.195,8.193-2.489,9.528c5.533,0.689,10.03-2.193,15.24,0.423
		c4.516,2.267,8.429,5.9,13.625,6.617L210.417,335.998z"/>
</g>
<g>
	<path fill="#EBB197" d="M393.9,378.566c23.36-5.644,16.484,28.028,34.101,29.146c8.841,0.563,21.025-19.032,28.125-24.94
		c5.426-4.516,34.121-26.567,27.773-5.448c-1.556,5.175-9.85,11.714-13.306,15.896c-3.857,4.671-7.162,9.554-10.785,14.348
		c-9.747,12.898-25.019,40.892-45.137,24.449c-13.482-11.018-15.898-37.563-21.785-52.683"/>
	<path fill="#EBB197" d="M471.932,371.924c5.255-1.744,3.938-12.787,4.661-17.577c0.686-4.543,1.921-3.991,4.307-7.05
		c1.776-2.277,2.222-5.713,4.203-8.144c5.213,5.019-3.285,9.267-1.776,13.427c1.596,4.398,11.488-0.938,14.267-2.136
		c3.728-1.607,29.739-9.059,26.33,1.673c-3.523,1.634-16.765-1.384-17.134,4.422c3.362,1.325,15.948-0.501,17.622,2.755
		c2.646,5.14-12.834,2.505-14.956,3.388c0.001,0.223-0.068,0.858-0.109,1.081c3.185,1.836,10.668,1.944,12.457,5.851
		c2.499,5.459-10.038,0.938-12.09,2.521c-3.637,6.026,11.762,10.736,0.578,9.842c-5.78-0.46-9.773-4.207-15.619-2.716
		c-5.069,1.292-9.801,4.044-15.245,3.68L471.932,371.924z"/>
</g>
</svg>
