<?xml version="1.0" encoding="utf-8"?>
<!-- Generator: Adobe Illustrator 16.0.0, SVG Export Plug-In . SVG Version: 6.00 Build 0)  -->
<!DOCTYPE svg PUBLIC "-//W3C//DTD SVG 1.1//EN" "http://www.w3.org/Graphics/SVG/1.1/DTD/svg11.dtd">
<svg version="1.1" id="Layer_1" xmlns="http://www.w3.org/2000/svg" xmlns:xlink="http://www.w3.org/1999/xlink" x="0px" y="0px"
	 width="640px" height="800px" viewBox="0 0 640 800" enable-background="new 0 0 640 800" xml:space="preserve">
<g>
	<path fill="#EEE0DF" d="M318.343,420.752c-58.964,7.265-118.161,8.063-177.365,15.904c-12.226,1.619-24.512,3.246-36.808,4.964
		c47.031,59.461,104.266,124.811,150.689,178.938c49.079-3.31,98.141-6.926,147.13-10.497c1.27-22.86,2.473-45.714,3.538-68.559
		c2.104-45.139,3.332-90.373,3.991-135.661C379.098,408.304,347.054,417.215,318.343,420.752z"/>
	<path fill="#EE8F2A" d="M572.264,297.045c21.139,5.801,44.146,10.606,67.736,15.461V0H407.912
		c0.261,81.122,1.496,162.472,2.02,243.81C463.293,263.937,517.409,281.991,572.264,297.045z"/>
	<path fill="#ECCBC4" d="M409.932,243.81c0.011,1.736,0.021,3.473,0.032,5.209c33.567,67.818,87.071,136.522,132.909,195.805
		c30.025,38.832,61.951,83.942,97.127,120.178V312.506c-23.59-4.855-46.598-9.66-67.736-15.461
		C517.409,281.991,463.293,263.937,409.932,243.81z"/>
	<path fill="#718ABA" d="M251.032,177.643c51.197,23.082,103.149,45.045,155.837,65.006c-1.725-3.619-3.408-7.235-5.01-10.846
		c1.602,3.61,3.285,7.227,5.01,10.846c1.021,0.387,2.041,0.776,3.063,1.162c-0.523-81.338-1.759-162.688-2.02-243.81H151.476
		c-21.665,29.593-38.101,64.549-54.815,97.903C147.263,126,197.66,153.58,251.032,177.643z"/>
	<path fill="#718ABA" d="M391.445,800H640V594.724c-78.988,3.89-158.403,9.532-238.011,15.337
		C398.477,673.338,394.459,736.664,391.445,800z"/>
	<path fill="#79BB93" d="M409.519,405.841c-0.659,45.288-1.887,90.522-3.991,135.661c-1.065,22.845-2.269,45.698-3.538,68.559
		c79.607-5.805,159.022-11.447,238.011-15.337v-29.722c-35.176-36.235-67.102-81.346-97.127-120.178
		c-45.838-59.283-99.342-127.987-132.909-195.805C410.279,301.322,410.279,353.617,409.519,405.841"/>
	<path fill="#EE8F2A" d="M125.418,628.31c-2.927,60.715,23.058,115.706,38.861,171.69h227.166
		c3.014-63.336,7.031-126.662,10.544-189.939C309.934,616.771,217.623,623.678,125.418,628.31z"/>
	<line fill="#020202" x1="409.964" y1="249.019" x2="409.932" y2="243.81"/>
	<path fill="none" d="M44.711,188.986C36.4,202.678,28.049,216.367,19.68,230.06C28.05,216.367,36.401,202.678,44.711,188.986z"/>
	<path fill="none" d="M72.581,142.737c-4.147,6.943-8.316,13.883-12.496,20.822C64.264,156.621,68.434,149.681,72.581,142.737z"/>
	<path fill="none" d="M57.199,168.345c-4.091,6.78-8.189,13.558-12.303,20.335C49.01,181.903,53.109,175.125,57.199,168.345z"/>
	<path fill="#E8754D" d="M0,632.977c41.762-0.931,83.578-2.565,125.418-4.667c43.137-2.167,86.296-4.842,129.441-7.752
		C208.436,566.431,151.201,501.081,104.17,441.62C69.155,446.511,34.058,452.164,0,460.544V632.977z"/>
	<path fill="#ECB093" d="M0,460.544c34.058-8.38,69.155-14.033,104.17-18.924C64.627,391.626,28.031,339.709,0,286.277V460.544z"/>
	<path fill="#8FB4CA" d="M409.964,249.019c-0.011-1.736-0.021-3.473-0.032-5.209c-1.021-0.385-2.042-0.775-3.063-1.162
		c-52.688-19.961-104.64-41.924-155.837-65.006C197.66,153.58,147.263,126,96.66,97.903c-0.965,1.925-1.931,3.845-2.898,5.758
		c-6.772,13.391-13.643,26.456-20.974,38.731c-0.068,0.115-0.139,0.23-0.207,0.345c-4.147,6.943-8.317,13.883-12.496,20.822
		c-0.961,1.596-1.923,3.191-2.886,4.786c-4.09,6.78-8.189,13.558-12.303,20.335c-0.01,0.017-0.021,0.033-0.03,0.05
		c-0.001,0.002-0.003,0.005-0.004,0.007c-0.05,0.083-0.101,0.166-0.151,0.248c-8.31,13.692-16.661,27.381-25.031,41.074
		c-0.663,1.085-1.327,2.17-1.99,3.255c-3.439,5.625-6.881,11.251-10.325,16.878C4.91,254.204,2.455,258.216,0,262.229v24.049
		c28.031,53.432,64.627,105.349,104.17,155.343c12.296-1.718,24.582-3.345,36.808-4.964c59.204-7.842,118.401-8.64,177.365-15.904
		c28.711-3.537,60.755-12.448,91.176-14.911C410.279,353.617,410.279,301.322,409.964,249.019z"/>
	<path fill="#72AEA5" d="M0,800h164.279c-15.804-55.984-41.788-110.976-38.861-171.69c-41.84,2.102-83.656,3.736-125.418,4.667V800z
		"/>
	<path fill="#E8754D" d="M41.979,67.608C60.33,77.682,78.508,87.825,96.66,97.903C113.375,64.549,129.811,29.593,151.476,0H0v45.062
		C16.245,54.043,31.34,61.769,41.979,67.608z"/>
	<path fill="none" d="M44.866,188.73c-9.838,0.48-27.281,1.331-44.866,2.187v0.043c17.582-0.869,35.022-1.734,44.861-2.223
		C44.863,188.735,44.864,188.733,44.866,188.73z"/>
	<rect x="44.863" y="188.73" fill="#8FB4CA" width="0.001" height="0.008"/>
	<path fill="#5D8151" d="M0,190.96v71.267c2.455-4.012,4.91-8.023,7.364-12.034c3.443-5.627,6.886-11.253,10.325-16.878
		c0.663-1.085,1.327-2.17,1.99-3.255c8.369-13.692,16.721-27.381,25.031-41.074c0.051-0.083,0.101-0.166,0.15-0.248
		C35.022,189.227,17.582,190.092,0,190.96z"/>
	<path fill="#5D8151" d="M44.711,188.986c0.051-0.083,0.102-0.166,0.151-0.248c0,0,0,0-0.001,0
		C44.812,188.82,44.762,188.903,44.711,188.986z"/>
	<path fill="#EE8F2A" d="M0,45.062v145.855c17.585-0.856,35.028-1.707,44.866-2.187c0.01-0.017,0.021-0.033,0.03-0.05
		c4.113-6.777,8.212-13.556,12.303-20.335c0.962-1.595,1.925-3.19,2.886-4.786c4.18-6.938,8.349-13.878,12.496-20.822
		c0.068-0.115,0.138-0.23,0.207-0.346c7.331-12.275,14.201-25.34,20.974-38.73c0.968-1.913,1.934-3.833,2.898-5.758
		C78.508,87.825,60.33,77.682,41.979,67.608C31.34,61.769,16.245,54.043,0,45.062z"/>
	<path fill="#EE8F2A" d="M60.085,163.559c-0.961,1.596-1.924,3.191-2.886,4.786C58.162,166.75,59.124,165.155,60.085,163.559z"/>
	<path fill="#EE8F2A" d="M44.866,188.73c0.01-0.017,0.021-0.033,0.03-0.05C44.887,188.697,44.876,188.714,44.866,188.73
		L44.866,188.73z"/>
	<path fill="#EE8F2A" d="M72.581,142.737c0.068-0.115,0.139-0.23,0.207-0.345c7.331-12.275,14.201-25.34,20.974-38.731
		c-6.772,13.391-13.643,26.456-20.974,38.73C72.719,142.507,72.649,142.622,72.581,142.737z"/>
	<path fill="#020202" d="M115.721,259.112c-3.539,36.97,1.313,76.525,1.419,113.932c0.067,24.688-4.375,49.28-5.744,73.872
		c-1.713,30.772-1.595,63.229,0.283,93.972c25.565-32.667,55.515-62.929,87.438-91.256c17.067-15.141-2.909-36.836-8.189-54.349
		c-5.189-17.214-10.611-35.584-17.162-52.918c-5.937-15.697-11.943-31.815-21.574-47.087c-8.761-13.891-21.173-24.271-30.8-36.166"
		/>
</g>
</svg>
