<?xml version="1.0" encoding="utf-8"?>
<!-- Generator: Adobe Illustrator 16.0.0, SVG Export Plug-In . SVG Version: 6.00 Build 0)  -->
<!DOCTYPE svg PUBLIC "-//W3C//DTD SVG 1.1//EN" "http://www.w3.org/Graphics/SVG/1.1/DTD/svg11.dtd">
<svg version="1.1" id="Layer_1" xmlns="http://www.w3.org/2000/svg" xmlns:xlink="http://www.w3.org/1999/xlink" x="0px" y="0px"
	 width="640px" height="800px" viewBox="0 0 640 800" enable-background="new 0 0 640 800" xml:space="preserve">
<g>
	<g>
		<path fill="#FFFFFF" d="M1665.922,542.333c1.935,0,1.935-3,0-3S1663.987,542.333,1665.922,542.333L1665.922,542.333z"/>
	</g>
</g>
<path fill="none" d="M657.689,233.314c-3.439,5.625-6.882,11.251-10.325,16.878C650.809,244.565,654.25,238.939,657.689,233.314z"/>
<path fill="#5D8151" d="M640,262.229c2.455-4.012,4.91-8.025,7.364-12.036c-2.454,4.011-4.909,8.022-7.364,12.034V262.229z"/>
<path fill="#5D8151" d="M633.305,273.168C633.305,273.168,633.305,273.169,633.305,273.168c2.232-3.648,4.463-7.293,6.695-10.94
	v-0.001C637.769,265.874,635.537,269.521,633.305,273.168z"/>
<g>
	<path fill="#8FB4CA" d="M640,286.277v-24.049c-2.231,3.646-4.463,7.292-6.694,10.94C635.476,277.549,637.713,281.917,640,286.277z"
		/>
	<g>
		<path fill="#020202" d="M454.057,377.332c0.009,0.026,0.018,0.053,0.026,0.079c0.905-0.493,1.815-1.037,2.718-1.531
			C455.889,376.379,454.97,376.835,454.057,377.332z"/>
		<path fill="#72AEA5" d="M267.558,193c41.592,0,83.184,0,124.776,0c-14.631-43-28.907-85.537-39.935-129.168
			C348.348,47.804,338.85,21.817,335.436,0H0v184.458c27.264,4.161,54.601,8.343,82.565,8.5
			C144.223,193.305,205.897,193,267.558,193z"/>
		<path fill="#72AEA5" d="M496.087,504.995c0.54-0.916,1.082-1.831,1.621-2.747c-15.534-41.242-29.778-83.031-43.651-124.948
			c-70.849,38.474-148.058,67.462-223.13,101.072c1.697,0.986,3.393,1.973,5.073,2.962c-1.681-0.989-3.376-1.976-5.073-2.962
			c-19.892,8.905-39.636,18.131-59.069,27.948c-56.978,28.783-99.087,79.523-154.115,109.148c-1.175,0.633-2.388,1.232-3.632,1.806
			c73.152,13.462,158.421,5.114,232.428,7.567c57.88,1.919,115.602,4.425,173.512,6.307
			C445.519,589.201,471.126,547.333,496.087,504.995"/>
		<path fill="#EEE0DF" d="M230.927,478.372c75.072-33.609,152.281-62.598,223.13-101.072
			c-16.095-48.627-31.698-97.173-48.261-145.472C401.33,218.805,396.816,206,392.334,193c-41.592,0-83.184,0-124.776,0
			c-61.66,0-123.334,0.305-184.993-0.042c-27.964-0.157-55.301-4.339-82.565-8.5V333.47c43.731,29.512,90.234,56.416,131.358,85.185
			C163.437,441.095,198.583,459.572,230.927,478.372z"/>
		<path fill="#8FB4CA" d="M171.858,506.32c19.433-9.817,39.177-19.043,59.069-27.948c-32.343-18.8-67.49-37.277-99.568-59.718
			C90.234,389.885,43.731,362.981,0,333.47v288.755c5.039-1.328,9.782-2.955,14.111-4.95c-2.465-0.453-4.918-0.929-7.355-1.434
			c2.437,0.505,4.89,0.98,7.355,1.434c1.244-0.573,2.457-1.173,3.632-1.806C72.771,585.844,114.88,535.104,171.858,506.32z"/>
		<path fill="#E1B58E" d="M420.051,631.148c-57.911-1.882-115.632-4.388-173.512-6.307c-74.007-2.453-159.276,5.895-232.428-7.567
			c-4.329,1.995-9.072,3.622-14.111,4.95V800h321.48c1.957-3.69,3.923-7.336,5.902-10.916
			C356.979,735.566,388.396,683.288,420.051,631.148z"/>
		<path fill="none" d="M454.057,377.332c0.009,0.026,0.018,0.053,0.026,0.079c0.905-0.493,1.815-1.037,2.718-1.531
			C455.889,376.379,454.97,376.835,454.057,377.332z"/>
		<path fill="#E8754D" d="M498.703,504.887c6.739,17.816,13.718,35.531,21.024,53.105c10.469,25.184,21.324,50.485,32.494,75.812
			c4.173,0.017,8.344,0.039,12.521,0.039c25.061,0,50.149-0.306,75.258-0.866V460.544c-13.497,3.32-26.835,7.057-39.932,11.362
			C567.586,482.586,533.691,502.898,498.703,504.887z"/>
		<path fill="#ECB093" d="M600.068,471.906c13.097-4.306,26.436-8.042,39.932-11.362V286.277c-2.287-4.36-4.677-8.277-6.847-13.277
			c-0.001,0-0.153,0-0.153,0v0.172c-36,59.668-72.746,119.56-107.189,180.275c-9.284,16.366-18.649,32.627-28.179,48.816
			c-0.001-0.003,0.036-0.007,0.035-0.01c-0.538,0.914-1.059,1.827-1.598,2.741c0.873-0.026,1.754-0.06,2.625-0.108
			C533.682,502.898,567.586,482.586,600.068,471.906z"/>
		<path fill="#5D8151" d="M519.727,557.992c-7.306-17.574-14.285-35.289-21.024-53.105c-0.871,0.049-1.743,0.082-2.616,0.108
			c-24.961,42.338-50.569,84.206-76.036,126.153c43.895,1.427,87.902,2.482,132.169,2.655
			C541.051,608.478,530.196,583.176,519.727,557.992z"/>
		<path fill="#72AEA5" d="M564.742,633.843c-4.178,0-8.349-0.022-12.521-0.039c24.527,55.611,50.586,111.337,77.493,166.196H640
			V632.977C614.892,633.537,589.803,633.843,564.742,633.843z"/>
		<path fill="#E8754D" d="M640,0h-67.837C590.491,16.388,616.455,32.045,640,45.062V0z"/>
		<path fill="#79BB93" d="M420.051,631.148c-31.655,52.14-63.072,104.418-92.669,157.936c-1.979,3.58-3.945,7.226-5.902,10.916
			h308.234c-26.907-54.859-52.966-110.585-77.493-166.196C507.953,633.631,463.946,632.575,420.051,631.148z"/>
		<path fill="none" d="M597.815,192.969C562.842,194.664,527.307,193,492.303,193c35.004,0,70.54,1.727,105.512,0.031
			c10.613-0.514,26.455-1.294,42.185-2.071v-0.043C624.27,191.684,608.428,192.455,597.815,192.969z"/>
		<path fill="#5D8151" d="M525.963,453.439c34.444-60.715,70.846-120.603,107.342-180.271c2.231-3.648,4.463-7.294,6.695-10.941
			V190.96c-15.73,0.777-31.572,1.557-42.185,2.071C562.842,194.727,527.307,193,492.303,193c-33.323,0-66.646,0-99.969,0
			c4.482,13,8.996,25.805,13.462,38.828c16.563,48.299,32.166,96.97,48.261,145.597c0.009-0.005,0.018-0.01,0.026-0.015
			c-0.009-0.026-0.018-0.053-0.026-0.079c0.914-0.496,1.833-0.953,2.744-1.452c-0.903,0.495-1.813,1.039-2.718,1.531
			c13.864,41.887,28.099,83.63,43.622,124.843c0.001-0.002,0.002-0.004,0.003-0.006
			C507.237,486.059,516.679,469.806,525.963,453.439z"/>
		<path fill="#5D8151" d="M525.811,453.447C560.254,392.732,597,332.841,633,273.172V273c0,0,0.152,0,0.153,0
			c-0.001,0,0.076,0,0.076,0c-36.496,60-72.86,119.641-107.304,180.355c-9.284,16.366-18.707,32.661-28.236,48.851
			c-0.001,0.002,0.007,0.024,0.006,0.026c0.001,0.003-0.069,0.018-0.068,0.021C507.156,486.063,516.526,469.813,525.811,453.447z"/>
		<path fill="#EE8F2A" d="M597.815,192.969c10.613-0.514,26.455-1.285,42.185-2.051V45.062C616.455,32.045,590.491,16.388,572.163,0
			H335.436c3.415,21.817,12.912,47.804,16.963,63.832C363.427,107.463,377.703,150,392.334,193c33.323,0,66.646,0,99.969,0
			C527.307,193,562.842,194.664,597.815,192.969z"/>
		<path fill="#020202" d="M516.443,248.737c3.231,39.693-1.199,82.161-1.296,122.321c-0.062,26.508,3.995,52.909,5.245,79.313
			c1.564,33.039,1.455,67.885-0.259,100.892c-23.343-35.073-50.689-67.563-79.839-97.976c-15.583-16.256,2.657-39.549,7.477-58.35
			c4.74-18.483,9.69-38.206,15.673-56.816c5.419-16.853,10.905-34.158,19.699-50.554c7.999-14.914,19.333-26.058,28.122-38.83"/>
	</g>
</g>
</svg>
