<?xml version="1.0" encoding="utf-8"?>
<!-- Generator: Adobe Illustrator 16.0.0, SVG Export Plug-In . SVG Version: 6.00 Build 0)  -->
<!DOCTYPE svg PUBLIC "-//W3C//DTD SVG 1.1//EN" "http://www.w3.org/Graphics/SVG/1.1/DTD/svg11.dtd">
<svg version="1.1" id="Layer_1" xmlns="http://www.w3.org/2000/svg" xmlns:xlink="http://www.w3.org/1999/xlink" x="0px" y="0px"
	 width="117px" height="34px" viewBox="0 0 117 34" enable-background="new 0 0 117 34" xml:space="preserve">
<path fill="#020202" d="M29.429,14.247C23.453,6.473,8.144,6.438,16.003,25.082c4.05,9.606,16.418,3.504,13.426-7.845"/>
<path fill="#020202" d="M111.549,9.914c-5.981-7.77-21.289-7.81-13.427,10.838c4.05,9.603,16.417,3.5,13.427-7.847"/>
<path fill="#020202" d="M6.836,9.429c-0.544,1.273-2.021,1.495-2.208,2.895c6.011,2.395,11.912,4.988,18.151,6.558
	C25.371,12.622,10.591,10.632,6.836,9.429"/>
<path fill="#020202" d="M88.953,6.179c-0.544,1.274-2.02,1.496-2.209,2.898c6.012,2.394,11.913,4.985,18.151,6.556
	C107.487,9.372,92.706,7.382,88.953,6.179"/>
</svg>
