<?xml version="1.0" encoding="utf-8"?>
<!-- Generator: Adobe Illustrator 16.0.0, SVG Export Plug-In . SVG Version: 6.00 Build 0)  -->
<!DOCTYPE svg PUBLIC "-//W3C//DTD SVG 1.1//EN" "http://www.w3.org/Graphics/SVG/1.1/DTD/svg11.dtd">
<svg version="1.1" id="Layer_1" xmlns="http://www.w3.org/2000/svg" xmlns:xlink="http://www.w3.org/1999/xlink" x="0px" y="0px"
	 width="117px" height="34px" viewBox="0 0 117 34" enable-background="new 0 0 117 34" xml:space="preserve">
<path fill="#020202" d="M29.429,21.208c-5.976-4.304-21.286-4.324-13.426,5.999c4.05,5.319,16.418,1.94,13.426-4.344"/>
<path fill="#020202" d="M111.549,17.894c-5.981-3.795-21.289-3.815-13.427,5.294c4.05,4.69,16.417,1.709,13.427-3.833"/>
<path fill="#020202" d="M6.836,17.429c-0.544,1.273-2.021,1.495-2.208,2.895c6.011,2.395,11.912,4.988,18.151,6.558
	C25.371,20.622,10.591,18.632,6.836,17.429"/>
<path fill="#020202" d="M88.953,12.179c-0.544,1.274-2.02,1.496-2.209,2.898c6.012,2.394,11.913,4.985,18.151,6.556
	C107.487,15.372,92.706,13.382,88.953,12.179"/>
</svg>
