<?xml version="1.0" encoding="utf-8"?>
<!-- Generator: Adobe Illustrator 16.0.0, SVG Export Plug-In . SVG Version: 6.00 Build 0)  -->
<!DOCTYPE svg PUBLIC "-//W3C//DTD SVG 1.1//EN" "http://www.w3.org/Graphics/SVG/1.1/DTD/svg11.dtd">
<svg version="1.1" id="Layer_1" xmlns="http://www.w3.org/2000/svg" xmlns:xlink="http://www.w3.org/1999/xlink" x="0px" y="0px"
	 width="274.667px" height="235.333px" viewBox="0 0 274.667 235.333" enable-background="new 0 0 274.667 235.333"
	 xml:space="preserve">
<path fill="#020202" d="M147.933,12.495c1.856-14.212-20.729-11.312-27.054-5.469c-8.289,7.651-7.385,20.365-17.484,25.88
	c-5.747,3.138-12.156,5.13-19.133,5.522c0.874,1.624,5.215,2.773,7.074,4.151c2.432,1.804,3.98,3.37,6.872,4.489
	c5.133,1.985,11.034,3.434,16.664,1.625c5.035-1.613,8.954-4.799,9.803-9.889c0.997-5.959-0.397-11.318,2.614-16.89
	c1.765-3.263,5.155-7.437,8.524-9.32c2.578-1.445,9.669-3.471,11.75-0.462"/>
<g>
	<path fill="#72AEA5" d="M447.946,182.799c3.05-4.454,7.146-5.867,10.794-7.291c2.655-1.036,4.924-1.273,4.517-4.236
		c-0.284-2.074-1.025-4.688-1.744-6.584c3.869-2.495,6.991-5.919,12.043-6.775c1.082,4.465,3.769,8.407,4.887,12.941
		c-4.611,2.466-10.371,3.854-15.483,5.532c-5.156,1.691-9.447,4.794-14.586,6.289"/>
	<g>
		<path fill="#EBB197" d="M462.517,134.678c6.753-2.143,6.847-0.69,8.75,5.519c1.346,4.398,2.237,9.518,4.229,13.668
			c3.945,8.216,15.183,6.703,21.398,13.51c-6.048,6.979-27.38-0.392-34.382-3.351c-11.235-4.75-2.657-5.24-0.827-10.728
			c1.598-4.793-2.828-12.6-2.175-17.76"/>
		<path fill="#FFFFFF" d="M461.21,154.45c-1.992,1.41,0.551,4.645,1.893,5.494c1.771,1.12,4.166,1.761,6.181,2.42
			c2.167,0.713,4.539,1.177,6.513,2.176c2.088,1.056,4.374,1.761,6.671,1.802c1.614,0.026,2.636-0.488,3.247-1.979
			c0.427-1.042,0.188-3.325-0.869-3.607c4.148-1.685,9.169,2.505,11.734,5.144c1.983,2.041,1.572,3.477-0.901,4.599
			c-2.353,1.063-4.877,1.652-7.365,1.399c-4.35-0.436-8.609-1.041-12.805-1.891c-4.175-0.851-9.027-1.636-13.018-3.042
			c-2.628-0.924-6.179-3.232-7.56-5.642c-1.716-2.996,2.71-6.74,5.605-6.504c0.038,0.187,0.124,0.146,0.24,0.198"/>
	</g>
	<path fill="#FFFFFF" d="M403.431,84.755c-4.205,4.174-1.479,12.493,1.913,16.286c3.676,4.115,9.607,4.891,15.192,5.225
		c5.645,0.337,11.293-0.238,16.555,1.667c5.971,2.159,8.662,6.071,12.497,10.833c5.308,6.593,7.102,22.526,8.922,23.092
		c1.673,0.522,15.052-6.804,19.979-10.255c-0.079-2.48-1.923-5.199-3.041-7.419c-1.366-2.726-1.893-4.917-2.931-7.659
		c-2.114-5.59-6.046-10.69-9.409-15.813c-6.311-9.607-15.199-16.449-25.994-18.956C426.068,79.19,414.086,78.221,403.431,84.755"/>
</g>
<path fill="#E8754D" d="M577.8,177.958c-4.58-14.825-14.875-31.665-31.413-35.678l-0.897,0.437
	c-8.996-3.775-24.961-2.893-34.485-0.851c-7.775,1.665-16.32,7.239-21.945,12.454c-8.156,7.566-13.468,24.501-12.676,38.881
	c0.683,12.374,7.323,26.316,18.397,32.304c12.396,6.709,28.102,7.739,42.633,7.739c7.889,0,13.437-0.181,20.295-2.949
	c6.312-2.554,12.926-6.539,16.624-11.852C581.954,207.507,581.604,190.27,577.8,177.958z M563.381,210.884
	c-2.82,4.048-7.861,7.083-12.666,9.027c-5.23,2.109-9.453,2.248-15.466,2.248c-11.075,0-23.038-0.786-32.484-5.896
	c-8.436-4.563-13.501-15.189-14.021-24.615c-0.603-10.957,0.55-23.738,9.244-30.841c4.537-3.704,11.212-7.008,17.136-8.274
	c7.26-1.555,19.426-2.231,26.28,0.647l0.683-0.332c12.599,3.054,20.446,15.888,23.936,27.186
	C568.923,189.414,569.189,202.549,563.381,210.884z"/>
<path fill="#E8754D" d="M370.919,230.169c16.703-4.291,35.676-13.938,40.199-29.431l-0.492-0.841
	c4.256-8.431,3.256-23.392,0.957-32.314c-1.875-7.285-8.156-15.291-14.031-20.563c-8.525-7.641-27.604-12.62-43.807-11.875
	c-13.938,0.638-29.646,6.861-36.398,17.238c-7.555,11.615-8.714,26.33-8.714,39.943c0,7.394,0.202,12.59,3.323,19.021
	c2.875,5.911,7.365,12.107,13.35,15.574C337.626,234.062,357.048,233.733,370.919,230.169z M333.825,216.658
	c-4.563-2.643-7.98-7.362-10.173-11.87c-2.378-4.894-2.532-8.854-2.532-14.487c0-10.377,0.885-21.584,6.64-30.439
	c5.142-7.901,17.116-12.648,27.738-13.133c12.343-0.566,26.742,0.514,34.743,8.658c4.176,4.251,7.896,10.507,9.324,16.056
	c1.752,6.804,2.512,18.204-0.729,24.625l0.374,0.64c-3.443,11.806-17.9,19.155-30.627,22.427
	C358.013,221.853,343.212,222.099,333.825,216.658z"/>
<g>
	<path fill="#72AEA5" d="M447.475,182.271c-2.857,4.014-2.441,7.552-2.231,10.774c0.156,2.343,0.895,4.085-2.035,4.99
		c-2.049,0.627-4.791,1.146-6.857,1.392c-0.685,3.816-2.556,7.46-1.224,11.476c4.61-1.021,9.405-0.666,14.099-1.688
		c0.348-4.343-0.794-9.078-1.389-13.464c-0.595-4.424,0.478-8.786-0.297-13.12"/>
	<g>
		<path fill="#EBB197" d="M429.468,164.767c7.102-0.172,6.764,1.244,6.742,7.728c-0.016,4.586-0.678,9.735,0,14.266
			c1.342,8.972,12.551,10.657,16.49,18.909c-7.865,5.002-26.108-8.012-31.938-12.798c-9.353-7.687-0.991-5.761,2.389-10.505
			c2.952-4.146,1.027-12.855,3.187-17.614"/>
		<path fill="#FFFFFF" d="M422.356,183.337c-2.33,0.799-0.855,4.603,0.182,5.794c1.365,1.564,3.471,2.845,5.201,4.038
			c1.865,1.289,3.994,2.395,5.594,3.901c1.688,1.592,3.664,2.908,5.851,3.583c1.539,0.476,2.672,0.27,3.7-0.984
			c0.719-0.88,1.166-3.132,0.233-3.699c4.477-0.457,8.044,4.957,9.718,8.2c1.295,2.508,0.475,3.768-2.229,4.15
			c-2.568,0.361-5.162,0.226-7.468-0.71c-4.035-1.631-7.937-3.401-11.705-5.386c-3.748-1.976-8.158-4.083-11.564-6.544
			c-2.244-1.618-4.961-4.819-5.568-7.509c-0.75-3.351,4.596-5.704,7.301-4.668c-0.023,0.191,0.071,0.175,0.171,0.257"/>
	</g>
	<path fill="#FFFFFF" d="M403.436,90.659c-5.857,1.33-8.165,9.769-7.408,14.732c0.821,5.385,5.397,9.132,9.921,12.324
		c4.575,3.228,9.654,5.683,13.042,10.034c3.836,4.934,3.939,9.633,4.534,15.648c0.82,8.327-1.983,23.391-0.766,24.815
		c1.121,1.313,11.963,1.415,18.033,1.069c1.303-2.133,1.258-5.386,1.543-7.844c0.354-3.007,1.125-5.129,1.771-7.984
		c1.311-5.817,0.825-12.165,0.825-18.242c0-11.389-3.705-21.791-11.422-29.533C425.614,97.764,416.046,90.703,403.436,90.659"/>
</g>
<g>
	<path fill="#72AEA5" d="M445.416,183.057c-2.652-4.053-5.764-8.463-8.271-12.636c-3.042-5.051-5.963-9.926-9.201-14.862
		c-5.447-8.303-9.938-17.229-15.303-25.406c-3.355-5.114-6.916-10.211-10.063-15.426c0.543-0.857,1.386-1.377,2.418-1.489
		c11.81,16.674,22.016,34.512,32.385,51.431c2.254,3.681,4.21,7.253,6.585,10.87C446.72,179.731,449.067,180.765,445.416,183.057"/>
	<path fill="#EE8F2A" d="M485.914,65.286c-1.647,3.471-10.267,3.606-11.274-0.854C473.327,58.628,485.956,62.82,485.914,65.286"/>
	<path fill="#EBB197" d="M445.174,67.313c-2.673-4.799-7.679-9.23-11.163-12.485c-2.523-2.36-10.617-8.214-14.166-4.092
		c-5.244,6.095,16.161,18.894,19.294,22.596c9.259-0.972,19.71-4.887,28.884-4.176c4.479,0.346,7.917,1.467,12.381-0.018
		c1.618-0.539,1.726-1.437,1.726-1.437s-2.56,0.553-2.807-0.233c-0.361-1.139,4.435-4.236,3.961-5.08
		c-1.256-2.244-4.602-0.612-5.462-0.482c-0.573,0.084-9.799,3.145-15.595,4.091C456.293,66.97,450.971,66.412,445.174,67.313"/>
	<path fill="#EBB197" d="M453.819,17.98c2.372,2.237,5.691,7.534,5.881,10.707c-2.261,0.804-4.921,0.368-7.306,0.484
		c0.162,4.153-8.718,8.3-10.739,11.782c-2.402,4.155-2.928,11.69-2.707,16.501c-3.479-1.249-6.438-2.302-10.633-2.523
		c-0.809-5.012,3.322-10.526,4.037-15.376c0.901-6.101-1.035-11.928-1.877-17.624c-0.83-5.601-0.266-12.226,4.459-15.55
		c3.674-2.584,13.993-3.353,17.322,0.54c2.013,2.354,4.156,8.063,1.936,10.698"/>
	<path fill="#FFFFFF" d="M427.891,47.803c2.489,1.089,4.915,3.483,7.417,4.8c2.393,1.257,5.385,1.591,7.45,3.417
		c4.313,3.801,4.345,11.494,2.727,16.569c-1.684,5.286-3.974,10.185-6.52,15.098c-1.089,2.101-2.247,4.962-3.698,6.785
		c-1.646,2.062-5.716,1.348-8.308,1.477c-6.215,0.308-12.692,0.661-18.521-1.128c-2.84-0.872-5.363-2.162-8.149-3.329
		c-2.421-1.01-5.806-1.144-4.262-4.158c2.72-5.307,6.178-10.391,9.036-15.868c2.632-5.046,4.316-10.981,7.865-15.941
		c2.662-3.725,10.15-9.62,15.145-7.542"/>
	<path fill="#EE8F2A" d="M481.706,79.559c-2.394-3.031-10.885-1.698-10.803,2.842c0.108,5.906,11.226-0.754,10.604-3.143"/>
	<path fill="#EBB197" d="M441.626,73.837c-1.046-5.355-4.43-11.053-6.729-15.181c-1.669-2.991-7.545-10.954-12.217-8.067
		c-6.905,4.26,9.481,22.761,11.315,27.209c9.121,1.801,20.307,1.146,28.824,4.522c4.157,1.649,7.253,4.868,11.801,3.633
		c8.835-2.397-2.218-4.458-1.927-6.643c0.967-0.321,1.011-0.836,1.565-1.233c-5.841-1.152-10.154,0.335-15.976-0.47
		C452.326,76.787,447.428,74.686,441.626,73.837"/>
	<path fill="#020202" d="M454.675,12.421c-9.46-0.55-15.904,10.483-20.804,16.519c-4.653,5.732-13.849,14.292-22.398,12.328
		c3.8-2.77,7.982-5.914,11.457-9.228c4.508-4.297,5.128-7.925,7.117-13.024c2.916-7.469,20.185-18.22,24.854-7.053"/>
	<path fill="#EBB197" d="M438.53,24.999c1.495-4.762-6.549-4.83-7.379-0.617c-0.918,4.666,4.352,6.617,7.423,8.578
		c0.685-1.917,0.1-6.28-0.128-8.312"/>
	<path fill="#72AEA5" d="M398.355,113.22c5.927,0,12.525-0.202,18.485,0c7.218,0.245,14.171,0.498,21.4,0.492
		c12.146-0.011,24.338,1.24,36.307,1.229c7.486-0.008,15.086-0.21,22.544,0.036c0.543,1.015,0.543,2.104,0,3.123
		c-24.964,0.82-50.112-0.537-74.405-1.192c-5.285-0.144-10.269-0.495-15.561-0.491C400.988,116.42,398.405,117.961,398.355,113.22"
		/>
	<path fill="#72AEA5" d="M445.088,182.954c2.798-3.99,5.77-8.533,8.741-12.437c3.604-4.738,7.085-9.289,10.498-14.157
		c5.741-8.18,12.454-15.756,18.113-23.815c3.539-5.042,6.977-10.256,10.691-15.152c1.027,0.145,1.854,0.688,2.366,1.564
		c-11.188,17.209-24.118,33.452-36.109,49.473c-2.608,3.484-5.232,6.658-7.736,10.225
		C448.757,182.786,448.698,185.295,445.088,182.954"/>
	<path fill="#72AEA5" d="M492.204,77.866c0.56,3.073,1.388,6.454,1.744,9.572c0.428,3.784,0.831,7.43,1.518,11.172
		c1.152,6.286,1.038,12.815,2.174,19.014c0.713,3.876,1.632,7.774,2.086,11.678c-0.979,0.461-2.081,0.646-3.162,0.545
		c-3.188-12.787-4.179-26.044-5.803-38.739c-0.355-2.761-0.466-5.404-0.967-8.143C489.21,79.786,487.405,78.715,492.204,77.866"/>
	<path fill="#72AEA5" d="M483.752,64.167c3.724,0,6.863,0.054,9.8,2.08c2.186,1.507,5.426,5.42,4.312,8.368
		c-1.29,3.434-16.976,10.516-19.417,6.259c1.929-2.242,7.006-1.337,9.742-2.702c3.164-1.578,6.313-3.729,4.9-7.913
		c-1.665-3.057-10.847-2.422-9.616-5.822"/>
	<path fill="#72AEA5" d="M471.461,187.821c1.6,0,3.231,0.024,4.82-0.052c-0.075-5.197,3.535-10.682,4.653-15.818
		c1.12-5.149,3.083-8.947,6.617-13.095c7.531-8.839,18.366-13.363,29.788-16.022c8.894-2.064,20.617-1.291,29.335,0.38
		c1.008-1.961,1.169-4.104,0.982-6.335c-5.156-1.403-11.95-0.386-17.357-0.386c-5.748,0-12.013-0.65-17.407,0.929
		c-10.362,3.038-18.904,6.768-26.184,14.858c-9.159,10.179-15.248,22.299-15.248,36.218"/>
	<path fill="#E1B58E" d="M524.137,145.265c-1.107-0.684,6.434,34.47,7.992,42.11c1.523,7.448,3.045,14.894,4.568,22.344
		c1.338,6.546,3.269,16.837,4.695,22.758c0.162,0.104,0.308,0.079,0.42-0.07c-0.691-3.4-1.173-6.698-1.795-10.021
		c-0.677-3.627-1.416-7.251-2.163-10.97c-1.488-7.413-3.07-14.41-4.597-21.888c-1.552-7.617-3.175-15.193-4.665-22.823
		c-1.052-5.39-3.045-16.72-4.328-20.993"/>
	<path fill="#E1B58E" d="M543.684,145.79c-0.7-1.075-9.196,33.872-11.114,41.438c-1.869,7.371-3.735,14.747-5.603,22.123
		c-1.644,6.479-4.379,16.597-5.669,22.546c0.104,0.162,0.243,0.2,0.41,0.11c0.86-3.366,1.856-6.551,2.746-9.816
		c0.966-3.566,1.879-7.154,2.821-10.828c1.884-7.329,3.5-14.318,5.376-21.72c1.912-7.541,3.746-15.068,5.727-22.597
		c1.395-5.316,4.528-16.396,5.228-20.795"/>
	<path fill="#E1B58E" d="M567.234,159.535c0.051-1.271-27.394,22.827-33.396,28.003c-5.854,5.042-11.706,10.085-17.559,15.129
		c-5.145,4.434-13.316,11.257-17.861,15.446c-0.009,0.188,0.085,0.298,0.275,0.317c2.674-2.299,5.359-4.374,8.002-6.572
		c2.884-2.404,5.733-4.857,8.659-7.361c5.842-4.999,11.263-9.865,17.135-14.925c5.991-5.158,11.904-10.347,17.936-15.457
		c4.264-3.606,13.325-11.009,16.477-14.242"/>
	<path fill="#E1B58E" d="M576.011,174.001c0.535-1.163-34.169,11.346-41.722,13.993c-7.366,2.579-14.726,5.157-22.091,7.735
		c-6.473,2.266-16.678,5.665-22.496,7.923c-0.082,0.172-0.035,0.307,0.136,0.39c3.364-1.171,6.652-2.129,9.945-3.224
		c3.598-1.192,7.179-2.448,10.855-3.722c7.332-2.539,14.229-5.111,21.62-7.696c7.534-2.637,15.012-5.329,22.565-7.903
		c5.339-1.82,16.582-5.433,20.75-7.303"/>
	<path fill="#E1B58E" d="M578.608,191.001c0.952-0.882-36.05-2.072-44.071-2.402c-7.823-0.326-15.646-0.65-23.471-0.975
		c-6.874-0.283-17.642-0.891-23.909-0.946c-0.142,0.13-0.153,0.272-0.029,0.414c3.572,0.15,6.988,0.477,10.462,0.673
		c3.795,0.219,7.602,0.377,11.502,0.551c7.78,0.348,15.168,0.507,23.015,0.835c8.001,0.333,15.975,0.593,23.971,0.991
		c5.651,0.279,17.47,1.076,22.053,0.875"/>
	<path fill="#E1B58E" d="M574.945,206.438c1.203-0.5-33.013-14.203-40.408-17.245c-7.207-2.964-14.417-5.928-21.623-8.891
		c-6.339-2.607-16.198-6.839-22.052-9.022c-0.178,0.075-0.24,0.203-0.178,0.379c3.29,1.357,6.374,2.819,9.556,4.19
		c3.478,1.494,6.98,2.938,10.572,4.427c7.158,2.974,14.02,5.635,21.249,8.613c7.374,3.03,14.746,5.986,22.09,9.079
		c5.193,2.184,15.971,6.951,20.335,8.323"/>
	<path fill="#E1B58E" d="M559.578,224.989c1.305,0.174-20.723-28.686-25.439-34.99c-4.597-6.143-9.199-12.289-13.796-18.433
		c-4.041-5.403-10.242-13.963-14.093-18.762c-0.19-0.025-0.313,0.054-0.351,0.235c2.098,2.809,3.96,5.606,5.956,8.373
		c2.182,3.017,4.418,6.009,6.702,9.08c4.553,6.126,9.01,11.842,13.624,18.009c4.703,6.288,9.445,12.504,14.097,18.83
		c3.281,4.471,9.979,13.944,12.995,17.307"/>
	<path fill="#72AEA5" d="M359.863,131.368c-0.005,1.442-0.027,2.909,0.054,4.34c5.625-0.069,11.553,3.177,17.109,4.186
		c5.572,1.01,9.678,2.772,14.167,5.951c9.563,6.773,14.458,16.521,17.331,26.799c2.23,7.998,0.221,8.324-1.582,16.163
		c2.123,0.908,4.439,1.058,6.852,0.887c1.516-4.637,1.588-0.53,1.588-5.394c0-5.171,0.701-10.807-1.004-15.659
		c-3.287-9.322-7.318-17.004-16.072-23.553c-11.011-8.238-24.118-13.72-39.173-13.72"/>
	<path fill="#E1B58E" d="M405.892,178.753c0.742-0.992-37.279,5.788-45.547,7.194c-8.055,1.367-16.108,2.737-24.168,4.108
		c-7.081,1.2-18.21,2.937-24.617,4.224c-0.11,0.146-0.086,0.278,0.076,0.375c3.679-0.62,7.246-1.055,10.838-1.613
		c3.926-0.607,7.844-1.272,11.866-1.943c8.019-1.339,15.587-2.763,23.675-4.134c8.24-1.398,16.434-2.86,24.689-4.201
		c5.83-0.948,18.081-2.738,22.703-3.892"/>
	<path fill="#E1B58E" d="M405.327,196.337c1.159-0.629-36.639-8.27-44.824-9.995c-7.974-1.681-15.947-3.358-23.925-5.039
		c-7.014-1.479-17.956-3.94-24.392-5.101c-0.172,0.092-0.217,0.219-0.119,0.369c3.641,0.771,7.09,1.67,10.619,2.468
		c3.855,0.872,7.736,1.69,11.712,2.541c7.926,1.692,15.485,3.149,23.493,4.836c8.155,1.721,16.3,3.371,24.439,5.148
		c5.755,1.257,17.737,4.074,22.496,4.705"/>
	<path fill="#E1B58E" d="M390.458,217.526c1.376,0.043-24.69-24.645-30.289-30.045c-5.453-5.265-10.912-10.53-16.365-15.794
		c-4.797-4.629-12.175-11.981-16.71-16.066c-0.202-0.008-0.319,0.077-0.34,0.244c2.485,2.409,4.728,4.825,7.11,7.201
		c2.6,2.595,5.251,5.156,7.965,7.793c5.404,5.249,10.664,10.128,16.141,15.41c5.576,5.39,11.191,10.711,16.716,16.136
		c3.905,3.834,11.907,11.987,15.408,14.819"/>
	<path fill="#E1B58E" d="M374.81,225.419c1.26,0.478-12.273-30.738-15.134-37.532c-2.79-6.622-5.577-13.247-8.368-19.871
		c-2.451-5.825-6.131-15-8.568-20.234c-0.187-0.074-0.334-0.032-0.426,0.12c1.27,3.025,2.306,5.981,3.491,8.948
		c1.292,3.233,2.646,6.457,4.024,9.764c2.75,6.599,5.529,12.799,8.324,19.451c2.85,6.775,5.766,13.502,8.547,20.297
		c1.971,4.8,5.879,14.917,7.902,18.66"/>
	<path fill="#E1B58E" d="M356.424,227.757c0.949,0.855,2.24-32.429,2.601-39.648c0.347-7.037,0.699-14.069,1.05-21.107
		c0.31-6.187,0.965-15.873,1.023-21.51c-0.14-0.128-0.292-0.137-0.446-0.026c-0.162,3.212-0.512,6.286-0.728,9.414
		c-0.236,3.411-0.408,6.833-0.598,10.344c-0.376,7-0.548,13.643-0.901,20.701c-0.36,7.198-0.642,14.37-1.072,21.563
		c-0.305,5.085-1.164,15.717-0.947,19.838"/>
	<path fill="#E1B58E" d="M339.726,224.461c0.541,1.082,15.363-29.697,18.654-36.351c3.205-6.483,6.41-12.968,9.617-19.453
		c2.818-5.699,7.396-14.57,9.758-19.834c-0.078-0.162-0.223-0.216-0.408-0.159c-1.467,2.962-3.051,5.733-4.535,8.597
		c-1.617,3.126-3.177,6.28-4.789,9.51c-3.215,6.441-6.096,12.607-9.314,19.117c-3.281,6.629-6.477,13.263-9.82,19.868
		c-2.365,4.671-7.52,14.367-9.002,18.293"/>
	<path fill="#E1B58E" d="M319.657,210.64c-0.189,1.169,31.026-18.644,37.849-22.885c6.644-4.139,13.292-8.277,19.939-12.414
		c5.843-3.634,15.103-9.21,20.292-12.675c0.03-0.174-0.059-0.281-0.256-0.316c-3.039,1.886-6.063,3.56-9.051,5.356
		c-3.271,1.966-6.504,3.976-9.826,6.031c-6.631,4.094-12.808,8.104-19.477,12.258c-6.801,4.228-13.531,8.497-20.369,12.677
		c-4.836,2.955-15.086,8.979-18.719,11.688"/>
	<path fill="#72AEA5" d="M499.176,127.014c2.233,3.673,4.897,7.658,6.962,11.451c2.501,4.601,4.897,9.038,7.624,13.517
		c4.587,7.524,8.07,15.711,12.585,23.124c2.827,4.639,5.869,9.245,8.461,13.991c-0.698,0.852-1.664,1.403-2.768,1.585
		c-10.132-15.059-18.401-31.336-26.973-46.722c-1.863-3.346-3.658-6.488-5.657-9.768
		C497.095,130.391,494.926,129.514,499.176,127.014"/>
	<path fill="#72AEA5" d="M447.979,183.761c-5.311,0.377-11.206,0.972-16.555,1.169c-6.483,0.239-12.728,0.455-19.204,0.916
		c-10.876,0.776-21.876,0.438-32.592,1.202c-6.707,0.479-13.501,1.14-20.195,1.392c-0.553-0.867-0.627-1.834-0.205-2.77
		c22.303-2.306,44.916-2.687,66.718-3.645c4.741-0.202,9.227-0.206,13.966-0.544C445.408,181.09,447.617,179.56,447.979,183.761"/>
	<path fill="#72AEA5" d="M357.109,186.551c2.567-4.138,5.273-8.832,8.014-12.892c3.321-4.926,6.535-9.66,9.663-14.706
		c5.26-8.478,11.53-16.406,16.709-24.761c3.241-5.227,6.373-10.617,9.806-15.706c1.032,0.085,1.887,0.586,2.453,1.433
		c-10.181,17.791-22.154,34.706-33.199,51.357c-2.403,3.616-4.841,6.93-7.136,10.625
		C360.765,186.185,360.852,188.69,357.109,186.551"/>
	<path fill="#EE8F2A" d="M417.649,114.787c-5.195-1.018-9.576-3.075-14.631-4.311c-1.959-0.479-5.472-1.745-7.457-1.476
		c-2.848,0.389-3.205,2.968-3.803,5.353c-1.596,6.359,2.371,7.736,7.965,9.089c4.473,1.082,10.36,2.872,14.755,1.945
		c2.552-0.532,5.058-1.418,5.97-3.971C421.582,118.255,419.251,116.871,417.649,114.787"/>
	<path fill="#EE8F2A" d="M458.263,181.627c-0.364-6.027-6.536-9.782-12.293-9.843c-13.34-0.141-26.502,2.579-39.813,3.218
		c-6.607,0.318-13.282,0.724-19.705,1.935c-6.874,1.298-13.883,2.419-21.084,2.419c-4.73-0.142-12.334-0.211-11.166,6.478
		c0.476,2.702,1.766,4.227,4.102,5.487c2.284,1.235,4.764,0.903,7.459,0.903c13.25,0,26.201,0.314,39.219,0.949
		c6.701,0.328,13.502,0.361,20.302,0.376c6.444,0.019,13.597-0.305,19.905-1.517C450.759,190.96,458.691,188.68,458.263,181.627z
		 M444.605,191.237c-6.216,1.074-13.261,1.357-19.61,1.343c-6.699-0.017-13.396-0.046-19.996-0.334
		c-12.822-0.561-25.578-0.838-38.633-0.838c-2.654,0-5.098,0.291-7.346-0.8c-2.303-1.114-3.57-2.467-4.035-4.854
		c-1.156-5.921,6.334-5.859,10.998-5.736c7.086,0,13.991-0.988,20.766-2.138c6.324-1.074,12.9-1.432,19.408-1.712
		c13.113-0.563,26.076-2.972,39.214-2.848c5.675,0.056,11.751,3.375,12.112,8.708C457.904,188.271,450.091,190.289,444.605,191.237z
		"/>
	<g>
		<path fill="#EE8F2A" d="M457.85,180.865c-0.593-5.909-5.425-8.397-10.883-9.146l0,0c-5.903-0.7-12.634,4.484-11.255,10.553
			c1.039,4.559,7.351,8.78,11.979,9.146C453.688,191.893,458.43,186.709,457.85,180.865z M447.59,190.372
			c-4.146-0.326-9.8-4.107-10.728-8.192c-1.235-5.434,4.464-10.391,9.753-9.763l0,0c4.888,0.669,9.538,3.214,10.07,8.506
			C457.208,186.153,452.96,190.798,447.59,190.372z"/>
		<path fill="#EE8F2A" d="M449.483,172.104c-0.712-0.363-2.317,7.132-2.726,8.744c-0.399,1.569-0.796,3.142-1.194,4.713
			c-0.349,1.382-1.031,3.514-1.179,4.811c0.104,0.052,0.221,0.084,0.338,0.084c0.188-0.715,0.512-1.368,0.732-2.057
			c0.245-0.751,0.439-1.513,0.649-2.296c0.417-1.56,0.672-3.068,1.075-4.644c0.41-1.61,0.755-3.223,1.217-4.816
			c0.327-1.125,1.181-3.442,1.095-4.437"/>
		<path fill="#EE8F2A" d="M440.804,172.952c-0.75,0.291,4.58,6.757,5.694,8.192c1.079,1.4,2.155,2.802,3.237,4.208
			c0.95,1.231,2.326,3.244,3.328,4.261c0.113-0.041,0.21-0.111,0.286-0.2c-0.493-0.646-0.843-1.346-1.283-1.997
			c-0.482-0.712-1.009-1.396-1.537-2.102c-1.061-1.404-2.173-2.657-3.255-4.065c-1.106-1.434-2.252-2.828-3.312-4.294
			c-0.749-1.036-2.173-3.308-3.069-3.935"/>
		<path fill="#EE8F2A" d="M436.489,182.425c-0.107,0.777,8.316-0.574,10.149-0.812c1.79-0.227,3.579-0.452,5.367-0.681
			c1.574-0.201,4.058-0.378,5.466-0.729c0.015-0.114,0-0.23-0.042-0.339c-0.816,0.1-1.623,0.049-2.425,0.104
			c-0.875,0.062-1.745,0.172-2.64,0.276c-1.783,0.207-3.453,0.536-5.249,0.764c-1.828,0.234-3.645,0.521-5.48,0.697
			c-1.299,0.129-4.039,0.223-5.043,0.674"/>
	</g>
	<path fill="#72AEA5" d="M362.729,193.52c-10.606,0.422-15.402-13.978-2.587-14.702c10.781-0.613,13.138,10.633,3.109,14.195"/>
	<g>
		<path fill="#EE8F2A" d="M488.917,80.213c0.238,1.512,0.567,3.185,0.749,4.719c0.218,1.856,0.424,3.644,0.721,5.49
			c0.496,3.103,0.623,6.284,1.108,9.34c0.302,1.907,0.673,3.836,0.902,5.756c-0.274,0.197-0.595,0.261-0.912,0.18
			c-1.249-6.326-1.87-12.825-2.66-19.063c-0.172-1.357-0.27-2.652-0.485-3.999C488.09,81.066,487.539,80.498,488.917,80.213"/>
		<path fill="#EE8F2A" d="M500.181,91.534c0.131,0.821,0.334,1.718,0.407,2.554c0.084,1.012,0.164,1.987,0.322,2.987
			c0.268,1.676,0.173,3.434,0.434,5.088c0.169,1.036,0.395,2.072,0.487,3.118c-0.285,0.134-0.605,0.194-0.913,0.18
			c-0.786-3.402-0.938-6.958-1.28-10.354c-0.074-0.738-0.078-1.445-0.195-2.179C499.307,92.078,498.801,91.812,500.181,91.534"/>
		<path fill="#EE8F2A" d="M505.786,91.534c0.132,0.821,0.332,1.718,0.404,2.554c0.084,1.012,0.167,1.987,0.326,2.987
			c0.268,1.676,0.171,3.434,0.435,5.088c0.165,1.036,0.391,2.072,0.482,3.118c-0.283,0.134-0.599,0.194-0.91,0.18
			c-0.786-3.402-0.942-6.958-1.28-10.354c-0.071-0.738-0.081-1.445-0.197-2.179C504.91,92.078,504.401,91.812,505.786,91.534"/>
		<path fill="#EE8F2A" d="M510.947,91.955c0.128,0.793,0.326,1.668,0.394,2.474c0.082,0.983,0.153,1.929,0.312,2.896
			c0.257,1.628,0.153,3.332,0.411,4.935c0.156,1.003,0.381,2.009,0.466,3.021c-0.285,0.134-0.601,0.194-0.912,0.183
			c-0.766-3.301-0.902-6.746-1.227-10.041c-0.072-0.714-0.077-1.402-0.19-2.11C510.069,92.49,509.565,92.232,510.947,91.955"/>
		<path fill="#EE8F2A" d="M493.786,80.112c0.243,1.505,0.563,3.163,0.743,4.684c0.218,1.845,0.423,3.62,0.716,5.455
			c0.492,3.076,0.614,6.233,1.096,9.267c0.305,1.897,0.668,3.813,0.897,5.716c-0.275,0.199-0.593,0.26-0.913,0.18
			c-1.242-6.279-1.852-12.73-2.637-18.924c-0.173-1.348-0.269-2.63-0.48-3.968C492.961,80.965,492.407,80.396,493.786,80.112"/>
		<path fill="#EE8F2A" d="M491.893,104.324c1.38-0.027,2.912-0.125,4.297-0.086c1.683,0.05,3.297,0.103,4.979,0.07
			c2.825-0.058,5.666,0.301,8.451,0.242c1.742-0.032,3.506-0.136,5.242-0.088c0.131,0.335,0.137,0.693,0.018,1.033
			c-5.804,0.383-11.66,0.045-17.313-0.062c-1.229-0.026-2.389-0.12-3.618-0.096C492.52,105.367,491.927,105.887,491.893,104.324"/>
		<path fill="#EE8F2A" d="M489.599,91.548c1.771-0.035,3.736-0.139,5.516-0.106c2.15,0.042,4.231,0.083,6.388,0.042
			c3.624-0.073,7.266,0.271,10.835,0.197c2.234-0.046,4.499-0.156,6.726-0.118c0.167,0.333,0.171,0.694,0.016,1.032
			c-7.44,0.411-14.954,0.108-22.2,0.03c-1.578-0.018-3.065-0.104-4.648-0.073C490.4,92.591,489.64,93.112,489.599,91.548"/>
		<path fill="#EE8F2A" d="M490.107,95.238c1.669-0.031,3.523-0.134,5.197-0.102c2.031,0.045,3.994,0.09,6.021,0.049
			c3.417-0.066,6.851,0.279,10.217,0.21c2.104-0.041,4.237-0.148,6.338-0.107c0.159,0.331,0.165,0.69,0.014,1.031
			c-7.012,0.402-14.092,0.091-20.927,0.005c-1.486-0.021-2.89-0.109-4.377-0.079C490.864,96.282,490.144,96.8,490.107,95.238"/>
		<path fill="#EE8F2A" d="M489.344,87.291c0.32-0.01,0.671-0.084,0.994-0.02c0.384,0.072,0.762,0.149,1.147,0.139
			c0.65-0.016,1.309,0.385,1.949,0.368c0.401-0.009,0.807-0.084,1.208-0.011c0.035,0.335,0.039,0.694,0.018,1.03
			c-1.335,0.295-2.686-0.126-3.992-0.315c-0.285-0.045-0.557-0.153-0.838-0.147C489.502,88.344,489.371,88.853,489.344,87.291"/>
		<path fill="#EE8F2A" d="M490.874,100.063c1.477-0.028,3.128-0.126,4.615-0.087c1.808,0.048,3.543,0.096,5.35,0.059
			c3.034-0.059,6.086,0.294,9.073,0.234c1.87-0.039,3.768-0.142,5.63-0.097c0.143,0.332,0.149,0.695,0.02,1.03
			c-6.235,0.392-12.521,0.063-18.594-0.037c-1.318-0.021-2.564-0.114-3.891-0.087C491.545,101.108,490.909,101.629,490.874,100.063"
			/>
		<path fill="#EE8F2A" d="M519.352,91.838c-0.244,0.812-0.46,1.741-0.764,2.537c-0.368,0.966-0.729,1.896-1.024,2.888
			c-0.501,1.671-1.354,3.217-1.845,4.861c-0.311,1.028-0.569,2.094-0.946,3.096c-0.309-0.034-0.614-0.148-0.875-0.329
			c0.802-3.518,2.223-6.829,3.413-10.099c0.26-0.713,0.563-1.357,0.779-2.088C518.344,91.863,518.016,91.345,519.352,91.838"/>
	</g>
</g>
</svg>
