<?xml version="1.0" encoding="utf-8"?>
<!-- Generator: Adobe Illustrator 16.0.0, SVG Export Plug-In . SVG Version: 6.00 Build 0)  -->
<!DOCTYPE svg PUBLIC "-//W3C//DTD SVG 1.1//EN" "http://www.w3.org/Graphics/SVG/1.1/DTD/svg11.dtd">
<svg version="1.1" id="Layer_1" xmlns="http://www.w3.org/2000/svg" xmlns:xlink="http://www.w3.org/1999/xlink" x="0px" y="0px"
	 width="274.667px" height="235.333px" viewBox="0 0 274.667 235.333" enable-background="new 0 0 274.667 235.333"
	 xml:space="preserve">
<path fill="#E8754D" d="M149.5,11.833c3.597-14.495-22-14-29.167-6.333C112.044,13.398,112.1,26.14,102,31.833
	c-5.747,3.239-13.25,5.083-19.75,6.917c0.874,1.676,6.697,3.042,8.556,4.465c2.432,1.862,3.98,3.479,6.872,4.634
	c5.133,2.049,11.034,3.545,16.664,1.677c5.035-1.665,9.809-4.605,10.658-9.859c0.997-6.152,1.871-13.707,3.333-17.333
	c1.167-2.336,3.581-8.127,6.95-10.071C137.861,10.772,147.42,8.727,149.5,11.833"/>
<g>
	<path fill="#72AEA5" d="M435.947,124.799c3.049-4.455,7.145-5.867,10.793-7.292c2.656-1.036,4.924-1.273,4.518-4.236
		c-0.285-2.074-1.021-4.688-1.744-6.584c3.869-2.495,6.99-5.919,12.043-6.775c1.082,4.465,3.771,8.407,4.891,12.941
		c-4.611,2.466-10.371,3.854-15.482,5.53c-5.156,1.691-9.447,4.796-14.586,6.289"/>
	<g>
		<path fill="#EBB197" d="M450.517,76.678c6.754-2.143,6.848-0.69,8.75,5.521c1.346,4.396,2.236,9.518,4.229,13.668
			c3.945,8.216,15.184,6.703,21.398,13.51c-6.049,6.979-27.381-0.392-34.383-3.351c-11.234-4.75-2.656-5.24-0.826-10.728
			c1.598-4.793-2.828-12.6-2.176-17.76"/>
		<path fill="#FFFFFF" d="M449.21,96.45c-1.992,1.41,0.551,4.645,1.893,5.494c1.771,1.12,4.166,1.761,6.182,2.42
			c2.166,0.713,4.539,1.177,6.512,2.176c2.088,1.056,4.375,1.761,6.672,1.802c1.613,0.026,2.641-0.488,3.246-1.979
			c0.428-1.042,0.189-3.325-0.869-3.607c4.148-1.685,9.17,2.505,11.734,5.144c1.984,2.041,1.572,3.477-0.9,4.599
			c-2.354,1.063-4.877,1.652-7.361,1.399c-4.354-0.436-8.609-1.041-12.809-1.891c-4.176-0.851-9.023-1.636-13.018-3.042
			c-2.629-0.924-6.18-3.232-7.561-5.642c-1.717-2.996,2.709-6.74,5.605-6.504c0.037,0.187,0.123,0.146,0.24,0.198"/>
	</g>
	<path fill="#FFFFFF" d="M391.431,26.755c-4.205,4.174-1.479,12.493,1.912,16.286c3.677,4.115,9.607,4.891,15.193,5.225
		c5.645,0.337,11.293-0.238,16.555,1.667c5.971,2.159,8.662,6.071,12.496,10.833c5.309,6.593,7.104,22.526,8.922,23.092
		c1.674,0.522,15.053-6.804,19.98-10.255c-0.08-2.48-1.924-5.199-3.041-7.419c-1.367-2.726-1.896-4.917-2.936-7.659
		c-2.109-5.59-6.047-10.69-9.404-15.813c-6.314-9.607-15.199-16.449-25.994-18.956C414.068,21.19,402.085,20.221,391.431,26.755"/>
</g>
<path fill="#E8754D" d="M430.226,177.536c-4.588-14.85-14.898-31.718-31.464-35.736l-0.899,0.439
	c-9.011-3.783-25.002-2.898-34.541-0.854c-7.789,1.666-16.349,7.252-21.98,12.475c-8.17,7.578-13.489,24.541-12.694,38.945
	c0.685,12.393,7.335,26.359,18.429,32.355c12.418,6.719,28.145,7.752,42.701,7.752c7.898,0,13.458-0.184,20.328-2.955
	c6.318-2.56,12.943-6.549,16.648-11.869C434.386,207.133,434.037,189.868,430.226,177.536z M415.783,210.516
	c-2.824,4.055-7.873,7.095-12.688,9.042c-5.238,2.112-9.469,2.252-15.49,2.252c-11.093,0-23.074-0.788-32.538-5.905
	c-8.448-4.57-13.522-15.214-14.044-24.654c-0.604-10.977,0.553-23.775,9.262-30.893c4.543-3.711,11.229-7.02,17.162-8.289
	c7.271-1.557,19.459-2.234,26.324,0.648l0.684-0.332c12.619,3.059,20.479,15.914,23.977,27.23
	C421.335,189.01,421.601,202.167,415.783,210.516z"/>
<path fill="#E8754D" d="M-163.474,215.995c17.146-4.404,36.622-14.308,41.265-30.211l-0.505-0.863
	c4.369-8.65,3.342-24.01,0.983-33.17c-1.924-7.479-8.372-15.697-14.403-21.105c-8.751-7.846-28.335-12.954-44.968-12.188
	c-14.308,0.652-30.433,7.043-37.363,17.693c-7.755,11.926-8.945,27.025-8.945,41.002c0,7.592,0.208,12.926,3.412,19.521
	c2.95,6.068,7.56,12.432,13.703,15.988C-197.648,219.991-177.712,219.654-163.474,215.995z M-201.55,202.125
	c-4.683-2.711-8.192-7.56-10.443-12.187c-2.44-5.021-2.599-9.088-2.599-14.871c0-10.649,0.908-22.153,6.815-31.243
	c5.277-8.111,17.57-12.984,28.474-13.482c12.67-0.58,27.451,0.527,35.664,8.889c4.287,4.363,8.106,10.786,9.571,16.48
	c1.799,6.982,2.578,18.688-0.749,25.276l0.383,0.656c-3.534,12.118-18.374,19.663-31.439,23.021
	C-176.722,207.458-191.916,207.711-201.55,202.125z"/>
<g>
	<path fill="#72AEA5" d="M435.474,123.271c-2.855,4.015-2.439,7.552-2.23,10.774c0.156,2.343,0.895,4.084-2.035,4.99
		c-2.049,0.627-4.791,1.146-6.854,1.391c-0.688,3.816-2.559,7.461-1.227,11.477c4.609-1.021,9.404-0.666,14.102-1.688
		c0.348-4.344-0.797-9.078-1.393-13.465c-0.594-4.424,0.48-8.785-0.297-13.119"/>
	<g>
		<path fill="#EBB197" d="M417.468,105.767c7.102-0.172,6.764,1.244,6.742,7.728c-0.016,4.586-0.678,9.735,0,14.265
			c1.342,8.973,12.551,10.658,16.49,18.91c-7.865,5.002-26.109-8.012-31.939-12.799c-9.352-7.688-0.99-5.763,2.39-10.504
			c2.952-4.146,1.026-12.858,3.187-17.617"/>
		<path fill="#FFFFFF" d="M410.356,124.336c-2.33,0.799-0.854,4.604,0.183,5.795c1.364,1.563,3.471,2.845,5.201,4.037
			c1.864,1.289,3.993,2.396,5.594,3.899c1.689,1.595,3.664,2.908,5.85,3.583c1.539,0.479,2.678,0.271,3.701-0.982
			c0.723-0.879,1.166-3.131,0.232-3.699c4.477-0.456,8.045,4.957,9.719,8.201c1.295,2.508,0.475,3.768-2.229,4.147
			c-2.568,0.36-5.162,0.228-7.469-0.71c-4.035-1.631-7.938-3.398-11.705-5.386c-3.748-1.978-8.158-4.083-11.564-6.546
			c-2.244-1.616-4.961-4.817-5.568-7.51c-0.75-3.351,4.599-5.703,7.304-4.668c-0.021,0.191,0.069,0.176,0.171,0.258"/>
	</g>
	<path fill="#FFFFFF" d="M391.436,31.659c-5.856,1.33-8.165,9.769-7.408,14.732c0.821,5.385,5.397,9.132,9.921,12.324
		c4.575,3.228,9.654,5.683,13.043,10.034c3.836,4.934,3.938,9.633,4.533,15.648c0.82,8.327-1.982,23.391-0.766,24.815
		c1.121,1.313,11.963,1.415,18.033,1.069c1.303-2.133,1.258-5.386,1.543-7.844c0.354-3.007,1.125-5.129,1.771-7.984
		c1.311-5.817,0.82-12.165,0.82-18.242c0-11.389-3.705-21.791-11.422-29.533C413.615,38.764,404.046,31.703,391.436,31.659"/>
</g>
<g>
	<path fill="#72AEA5" d="M433.416,126.057c-2.652-4.053-5.764-8.463-8.27-12.636c-3.043-5.051-5.964-9.926-9.202-14.862
		c-5.446-8.303-9.938-17.229-15.303-25.406c-3.354-5.114-6.916-10.211-10.063-15.426c0.543-0.857,1.387-1.377,2.418-1.489
		c11.813,16.674,22.016,34.512,32.385,51.431c2.254,3.681,4.211,7.253,6.586,10.871C434.72,122.731,437.068,123.765,433.416,126.057
		"/>
	<path fill="#EE8F2A" d="M473.914,8.286c-1.646,3.471-10.266,3.606-11.273-0.854C461.328,1.628,473.957,5.82,473.914,8.286"/>
	<path fill="#EBB197" d="M433.173,10.313c-2.672-4.799-7.678-9.23-11.162-12.485c-2.523-2.36-10.617-8.214-14.166-4.092
		c-5.244,6.095,16.16,18.894,19.293,22.596c9.26-0.972,19.711-4.887,28.885-4.176c4.479,0.346,7.918,1.467,12.381-0.018
		c1.619-0.539,1.727-1.437,1.727-1.437s-2.561,0.553-2.807-0.233c-0.361-1.139,4.434-4.236,3.961-5.08
		c-1.256-2.244-4.604-0.612-5.463-0.482c-0.572,0.084-9.799,3.145-15.594,4.091C444.292,9.97,438.97,9.412,433.173,10.313"/>
	<path fill="#EBB197" d="M441.82-39.02c2.371,2.237,5.689,7.534,5.881,10.707c-2.262,0.804-4.922,0.368-7.307,0.484
		c0.162,4.153-8.719,8.3-10.738,11.782c-2.402,4.155-2.93,11.69-2.707,16.501c-3.48-1.249-6.439-2.302-10.634-2.523
		c-0.81-5.012,3.321-10.526,4.037-15.376c0.901-6.101-1.035-11.928-1.877-17.624c-0.83-5.601-0.267-12.226,4.458-15.55
		c3.676-2.584,13.994-3.353,17.322,0.54c2.014,2.354,4.156,8.063,1.938,10.698"/>
	<path fill="#FFFFFF" d="M415.891-9.197c2.489,1.089,4.915,3.483,7.417,4.8c2.393,1.257,5.385,1.591,7.449,3.417
		c4.314,3.801,4.346,11.494,2.729,16.569c-1.686,5.286-3.975,10.185-6.521,15.098c-1.088,2.101-2.246,4.962-3.697,6.785
		c-1.645,2.062-5.717,1.348-8.309,1.477c-6.215,0.308-12.689,0.661-18.521-1.128c-2.84-0.872-5.362-2.162-8.149-3.329
		c-2.42-1.01-5.806-1.144-4.262-4.158c2.721-5.307,6.178-10.391,9.036-15.868c2.632-5.046,4.315-10.981,7.864-15.941
		c2.662-3.725,10.15-9.62,15.146-7.542"/>
	<path fill="#EE8F2A" d="M469.707,22.559c-2.395-3.031-10.885-1.698-10.803,2.842c0.107,5.906,11.225-0.754,10.604-3.143"/>
	<path fill="#EBB197" d="M429.626,16.837c-1.047-5.355-4.43-11.053-6.729-15.181c-1.674-2.991-7.548-10.954-12.221-8.067
		c-6.904,4.26,9.48,22.761,11.314,27.209c9.121,1.801,20.307,1.146,28.824,4.522c4.156,1.649,7.252,4.868,11.801,3.633
		c8.834-2.397-2.219-4.458-1.928-6.643c0.967-0.321,1.012-0.836,1.564-1.233c-5.84-1.152-10.152,0.335-15.975-0.47
		C440.326,19.787,435.427,17.686,429.626,16.837"/>
	<path fill="#020202" d="M442.675-44.579c-9.461-0.55-15.904,10.483-20.805,16.519c-4.652,5.732-13.851,14.292-22.397,12.328
		c3.8-2.77,7.981-5.914,11.456-9.228c4.509-4.297,5.129-7.925,7.117-13.024c2.916-7.469,20.186-18.22,24.855-7.053"/>
	<path fill="#EBB197" d="M427.089-32.123c1.494-4.762-6.549-4.83-7.379-0.617c-0.918,4.666,4.354,6.617,7.422,8.578
		c0.688-1.917,0.102-6.28-0.127-8.312"/>
	<path fill="#72AEA5" d="M386.355,56.22c5.928,0,12.525-0.202,18.484,0c7.219,0.245,14.172,0.498,21.4,0.492
		c12.145-0.011,24.338,1.24,36.307,1.229c7.486-0.008,15.086-0.21,22.545,0.036c0.543,1.015,0.543,2.104,0,3.123
		c-24.965,0.82-50.111-0.537-74.405-1.192c-5.285-0.144-10.269-0.495-15.562-0.491C388.988,59.42,386.406,60.961,386.355,56.22"/>
	<path fill="#72AEA5" d="M433.087,125.954c2.799-3.99,5.771-8.533,8.742-12.437c3.604-4.738,7.084-9.289,10.498-14.157
		c5.74-8.18,12.453-15.756,18.113-23.815c3.539-5.042,6.977-10.256,10.688-15.152c1.027,0.145,1.855,0.688,2.367,1.564
		c-11.189,17.209-24.119,33.452-36.109,49.473c-2.605,3.484-5.23,6.658-7.734,10.225
		C436.757,125.786,436.699,128.295,433.087,125.954"/>
	<path fill="#72AEA5" d="M480.205,20.866c0.559,3.073,1.387,6.454,1.744,9.572c0.428,3.784,0.83,7.43,1.518,11.172
		c1.152,6.286,1.037,12.815,2.174,19.014c0.717,3.876,1.637,7.774,2.086,11.678c-0.979,0.461-2.076,0.646-3.158,0.545
		c-3.189-12.787-4.184-26.044-5.807-38.739c-0.354-2.761-0.467-5.404-0.967-8.143C477.21,22.786,475.406,21.715,480.205,20.866"/>
	<path fill="#72AEA5" d="M471.751,7.167c3.725,0,6.863,0.054,9.801,2.08c2.186,1.507,5.426,5.42,4.313,8.368
		c-1.291,3.434-16.977,10.516-19.418,6.259c1.93-2.242,7.006-1.337,9.742-2.702c3.164-1.578,6.313-3.729,4.9-7.913
		c-1.666-3.057-10.848-2.422-9.617-5.822"/>
	<path fill="#72AEA5" d="M459.46,130.821c1.602,0,3.232,0.023,4.82-0.052c-0.074-5.196,3.535-10.683,4.648-15.818
		c1.121-5.149,3.084-8.947,6.617-13.095c7.531-8.839,18.367-13.363,29.789-16.022c8.896-2.064,20.617-1.291,29.334,0.38
		c1.008-1.961,1.17-4.104,0.982-6.335c-5.156-1.403-11.949-0.386-17.357-0.386c-5.748,0-12.012-0.65-17.406,0.929
		c-10.357,3.038-18.9,6.768-26.184,14.858c-9.16,10.179-15.248,22.299-15.248,36.218"/>
	<path fill="#E1B58E" d="M512.136,88.265c-1.105-0.684,6.436,34.47,7.992,42.11c1.523,7.447,3.045,14.894,4.568,22.344
		c1.338,6.546,3.27,16.837,4.691,22.758c0.162,0.104,0.313,0.079,0.42-0.07c-0.688-3.4-1.174-6.697-1.795-10.021
		c-0.678-3.627-1.416-7.25-2.158-10.969c-1.488-7.414-3.07-14.41-4.602-21.889c-1.553-7.617-3.176-15.193-4.666-22.823
		c-1.051-5.39-3.045-16.72-4.328-20.993"/>
	<path fill="#E1B58E" d="M531.683,88.79c-0.699-1.075-9.195,33.873-11.113,41.438c-1.869,7.371-3.734,14.747-5.604,22.123
		c-1.643,6.479-4.379,16.597-5.668,22.546c0.104,0.162,0.242,0.2,0.41,0.109c0.859-3.365,1.855-6.551,2.746-9.815
		c0.965-3.565,1.879-7.153,2.82-10.827c1.885-7.33,3.5-14.318,5.377-21.721c1.906-7.541,3.744-15.068,5.727-22.597
		c1.395-5.316,4.527-16.396,5.229-20.795"/>
	<path fill="#E1B58E" d="M555.234,102.535c0.051-1.271-27.395,22.827-33.396,28.002c-5.854,5.043-11.705,10.086-17.559,15.129
		c-5.145,4.435-13.316,11.258-17.861,15.447c-0.008,0.188,0.086,0.297,0.275,0.314c2.674-2.301,5.359-4.374,8.002-6.572
		c2.885-2.402,5.732-4.855,8.66-7.359c5.842-4.998,11.262-9.865,17.135-14.924c5.99-5.158,11.902-10.35,17.936-15.458
		c4.268-3.606,13.324-11.009,16.48-14.242"/>
	<path fill="#E1B58E" d="M564.011,117.001c0.535-1.163-34.17,11.346-41.723,13.994c-7.365,2.578-14.725,5.156-22.09,7.734
		c-6.479,2.266-16.682,5.665-22.496,7.923c-0.082,0.173-0.035,0.308,0.135,0.39c3.365-1.17,6.652-2.129,9.945-3.224
		c3.598-1.192,7.18-2.448,10.854-3.722c7.332-2.539,14.23-5.111,21.619-7.696c7.535-2.637,15.014-5.329,22.566-7.903
		c5.338-1.82,16.582-5.433,20.75-7.303"/>
	<path fill="#E1B58E" d="M566.609,134c0.951-0.881-36.051-2.071-44.072-2.401c-7.822-0.326-15.646-0.649-23.471-0.976
		c-6.873-0.283-17.643-0.893-23.908-0.945c-0.143,0.13-0.154,0.271-0.029,0.414c3.572,0.15,6.988,0.477,10.461,0.673
		c3.795,0.219,7.605,0.377,11.502,0.551c7.781,0.349,15.168,0.507,23.02,0.835c8.002,0.333,15.975,0.594,23.971,0.991
		c5.652,0.278,17.471,1.075,22.053,0.875"/>
	<path fill="#E1B58E" d="M562.945,149.438c1.203-0.5-33.014-14.203-40.408-17.245c-7.207-2.964-14.416-5.928-21.623-8.892
		c-6.338-2.606-16.197-6.838-22.051-9.021c-0.18,0.075-0.24,0.203-0.18,0.379c3.291,1.357,6.375,2.819,9.557,4.19
		c3.479,1.493,6.98,2.938,10.572,4.427c7.158,2.975,14.02,5.635,21.248,8.613c7.375,3.029,14.746,5.986,22.092,9.078
		c5.191,2.185,15.971,6.951,20.334,8.324"/>
	<path fill="#E1B58E" d="M547.578,167.989c1.305,0.174-20.723-28.686-25.439-34.99c-4.596-6.143-9.193-12.289-13.795-18.433
		c-4.041-5.403-10.242-13.963-14.094-18.762c-0.189-0.025-0.313,0.054-0.35,0.235c2.098,2.809,3.959,5.606,5.955,8.373
		c2.182,3.017,4.418,6.009,6.701,9.08c4.555,6.125,9.012,11.842,13.625,18.008c4.703,6.289,9.445,12.504,14.098,18.83
		c3.279,4.471,9.979,13.942,12.994,17.308"/>
	<path fill="#72AEA5" d="M347.863,74.368c-0.005,1.442-0.027,2.909,0.055,4.34c5.625-0.069,11.555,3.177,17.108,4.186
		c5.572,1.01,9.679,2.772,14.167,5.951c9.563,6.773,14.458,16.521,17.331,26.799c2.229,7.998,0.222,8.323-1.582,16.163
		c2.123,0.908,4.438,1.059,6.853,0.887c1.518-4.637,1.588-0.529,1.588-5.395c0-5.17,0.701-10.806-1.004-15.658
		c-3.287-9.322-7.316-17.004-16.07-23.553c-11.014-8.238-24.118-13.72-39.176-13.72"/>
	<path fill="#E1B58E" d="M393.892,121.752c0.742-0.992-37.279,5.789-45.547,7.195c-8.055,1.364-16.108,2.734-24.168,4.105
		c-7.081,1.197-18.211,2.938-24.617,4.224c-0.109,0.146-0.086,0.278,0.076,0.375c3.679-0.618,7.246-1.055,10.838-1.61
		c3.926-0.607,7.844-1.272,11.865-1.943c8.02-1.34,15.588-2.764,23.676-4.135c8.24-1.397,16.434-2.859,24.689-4.2
		c5.83-0.948,18.08-2.738,22.703-3.892"/>
	<path fill="#E1B58E" d="M393.328,139.336c1.158-0.629-36.64-8.271-44.824-9.994c-7.975-1.682-15.945-3.358-23.926-5.039
		c-7.014-1.479-17.955-3.939-24.392-5.102c-0.172,0.092-0.218,0.219-0.119,0.367c3.642,0.771,7.091,1.672,10.619,2.471
		c3.854,0.871,7.735,1.688,11.712,2.541c7.926,1.689,15.484,3.146,23.493,4.836c8.155,1.721,16.3,3.371,24.438,5.146
		c5.756,1.257,17.735,4.073,22.496,4.705"/>
	<path fill="#E1B58E" d="M378.458,160.526c1.375,0.043-24.69-24.645-30.289-30.045c-5.453-5.266-10.912-10.529-16.365-15.794
		c-4.797-4.629-12.176-11.981-16.711-16.066c-0.201-0.008-0.318,0.077-0.34,0.244c2.486,2.409,4.729,4.825,7.111,7.201
		c2.6,2.595,5.25,5.156,7.965,7.793c5.401,5.249,10.664,10.128,16.141,15.41c5.576,5.39,11.191,10.711,16.716,16.136
		c3.905,3.834,11.907,11.987,15.407,14.819"/>
	<path fill="#E1B58E" d="M362.81,168.418c1.26,0.479-12.273-30.737-15.135-37.531c-2.789-6.622-5.576-13.247-8.367-19.871
		c-2.451-5.825-6.131-15-8.568-20.234c-0.188-0.074-0.334-0.032-0.426,0.12c1.27,3.025,2.307,5.981,3.491,8.948
		c1.292,3.233,2.646,6.457,4.024,9.764c2.75,6.599,5.526,12.798,8.321,19.451c2.853,6.775,5.769,13.502,8.55,20.297
		c1.971,4.801,5.879,14.917,7.899,18.66"/>
	<path fill="#E1B58E" d="M344.423,170.756c0.949,0.854,2.24-32.428,2.602-39.647c0.348-7.036,0.699-14.069,1.051-21.107
		c0.309-6.187,0.965-15.873,1.022-21.51c-0.14-0.128-0.292-0.137-0.446-0.026c-0.162,3.212-0.512,6.286-0.729,9.414
		c-0.235,3.411-0.407,6.833-0.598,10.344c-0.375,7-0.55,13.644-0.9,20.7c-0.36,7.199-0.643,14.371-1.072,21.563
		c-0.305,5.086-1.164,15.719-0.947,19.84"/>
	<path fill="#E1B58E" d="M327.726,167.461c0.541,1.082,15.363-29.697,18.654-36.354c3.205-6.48,6.41-12.968,9.617-19.453
		c2.815-5.699,7.396-14.57,9.758-19.834c-0.078-0.162-0.223-0.216-0.408-0.159c-1.467,2.962-3.051,5.733-4.535,8.597
		c-1.617,3.126-3.178,6.28-4.789,9.51c-3.215,6.441-6.096,12.604-9.314,19.116c-3.281,6.63-6.477,13.264-9.817,19.867
		c-2.365,4.67-7.521,14.367-9.003,18.293"/>
	<path fill="#E1B58E" d="M307.658,153.64c-0.189,1.169,31.025-18.644,37.848-22.886c6.646-4.139,13.293-8.276,19.939-12.414
		c5.844-3.633,15.104-9.209,20.292-12.674c0.03-0.174-0.06-0.281-0.256-0.316c-3.039,1.886-6.063,3.56-9.052,5.356
		c-3.27,1.966-6.504,3.976-9.825,6.031c-6.632,4.094-12.808,8.104-19.478,12.258c-6.801,4.229-13.531,8.498-20.369,12.678
		c-4.836,2.955-15.086,8.979-18.719,11.688"/>
	<path fill="#72AEA5" d="M487.175,70.014c2.234,3.673,4.898,7.658,6.963,11.451c2.5,4.601,4.896,9.038,7.623,13.517
		c4.588,7.524,8.07,15.711,12.586,23.124c2.826,4.639,5.869,9.245,8.461,13.991c-0.697,0.853-1.664,1.403-2.768,1.585
		c-10.133-15.059-18.402-31.336-26.973-46.722c-1.863-3.346-3.658-6.488-5.658-9.768C485.095,73.391,482.925,72.514,487.175,70.014"
		/>
	<path fill="#72AEA5" d="M435.98,126.76c-5.313,0.378-11.207,0.973-16.557,1.17c-6.482,0.238-12.727,0.455-19.203,0.916
		c-10.877,0.775-21.877,0.438-32.592,1.201c-6.707,0.479-13.502,1.141-20.195,1.393c-0.553-0.867-0.627-1.834-0.205-2.77
		c22.303-2.309,44.916-2.688,66.718-3.646c4.741-0.201,9.228-0.206,13.966-0.544C433.408,124.09,435.617,122.56,435.98,126.76"/>
	<path fill="#72AEA5" d="M345.109,129.551c2.566-4.139,5.273-8.832,8.014-12.892c3.321-4.926,6.535-9.66,9.664-14.706
		c5.26-8.478,11.529-16.406,16.709-24.761c3.24-5.227,6.373-10.617,9.805-15.706c1.033,0.085,1.89,0.586,2.453,1.433
		c-10.18,17.791-22.151,34.706-33.196,51.357c-2.403,3.616-4.843,6.93-7.138,10.625C348.765,129.185,348.852,131.69,345.109,129.551
		"/>
	<path fill="#EE8F2A" d="M405.649,57.787c-5.194-1.018-9.575-3.075-14.631-4.311c-1.959-0.479-5.472-1.745-7.457-1.476
		c-2.849,0.389-3.205,2.968-3.804,5.353c-1.596,6.359,2.371,7.736,7.966,9.089c4.473,1.082,10.36,2.872,14.755,1.945
		c2.553-0.532,5.059-1.418,5.971-3.971C409.582,61.255,407.251,59.871,405.649,57.787"/>
	<path fill="#EE8F2A" d="M446.263,124.627c-0.363-6.027-6.537-9.785-12.293-9.843c-13.34-0.141-26.502,2.579-39.813,3.218
		c-6.607,0.318-13.283,0.724-19.705,1.935c-6.875,1.298-13.886,2.419-21.084,2.419c-4.73-0.143-12.334-0.211-11.166,6.479
		c0.476,2.701,1.766,4.229,4.102,5.486c2.283,1.235,4.764,0.903,7.459,0.903c13.25,0,26.201,0.313,39.219,0.948
		c6.701,0.328,13.502,0.361,20.303,0.377c6.443,0.019,13.596-0.305,19.904-1.518C438.759,133.959,446.691,131.68,446.263,124.627z
		 M432.605,134.237c-6.217,1.074-13.262,1.357-19.609,1.344c-6.699-0.018-13.396-0.047-19.996-0.334
		c-12.822-0.562-25.578-0.838-38.633-0.838c-2.654,0-5.099,0.291-7.347-0.801c-2.304-1.113-3.569-2.467-4.035-4.854
		c-1.155-5.922,6.334-5.859,10.998-5.736c7.086,0,13.991-0.988,20.767-2.139c6.324-1.073,12.899-1.432,19.408-1.711
		c13.112-0.563,26.075-2.975,39.213-2.851c5.676,0.056,11.752,3.375,12.113,8.708C445.904,131.271,438.091,133.29,432.605,134.237z"
		/>
	<g>
		<path fill="#EE8F2A" d="M445.849,123.866c-0.592-5.91-5.424-8.398-10.883-9.147l0,0c-5.902-0.7-12.633,4.485-11.254,10.553
			c1.039,4.559,7.352,8.779,11.979,9.146C441.689,134.893,446.429,129.709,445.849,123.866z M435.589,133.372
			c-4.145-0.326-9.799-4.104-10.727-8.189c-1.236-5.436,4.463-10.391,9.752-9.763l0,0c4.889,0.669,9.539,3.212,10.066,8.503
			C445.208,129.153,440.96,133.797,435.589,133.372z"/>
		<path fill="#EE8F2A" d="M437.484,115.104c-0.713-0.363-2.318,7.132-2.727,8.744c-0.398,1.568-0.797,3.143-1.193,4.713
			c-0.35,1.382-1.031,3.514-1.18,4.811c0.104,0.053,0.221,0.084,0.338,0.084c0.188-0.715,0.512-1.367,0.732-2.057
			c0.244-0.751,0.438-1.514,0.648-2.296c0.418-1.56,0.672-3.067,1.07-4.644c0.41-1.61,0.756-3.226,1.223-4.816
			c0.322-1.125,1.18-3.442,1.094-4.437"/>
		<path fill="#EE8F2A" d="M428.804,115.952c-0.75,0.291,4.58,6.757,5.693,8.192c1.08,1.399,2.156,2.802,3.238,4.208
			c0.945,1.23,2.32,3.244,3.328,4.262c0.107-0.041,0.209-0.111,0.281-0.201c-0.488-0.646-0.844-1.346-1.279-1.996
			c-0.482-0.713-1.014-1.396-1.537-2.103c-1.064-1.403-2.172-2.657-3.254-4.065c-1.107-1.434-2.252-2.828-3.314-4.293
			c-0.75-1.037-2.174-3.309-3.07-3.936"/>
		<path fill="#EE8F2A" d="M424.49,125.424c-0.107,0.777,8.314-0.573,10.148-0.811c1.789-0.23,3.578-0.453,5.367-0.684
			c1.574-0.201,4.059-0.379,5.465-0.729c0.016-0.115,0-0.229-0.041-0.341c-0.816,0.101-1.623,0.05-2.426,0.104
			c-0.875,0.063-1.744,0.174-2.639,0.277c-1.783,0.207-3.453,0.534-5.25,0.764c-1.828,0.234-3.646,0.521-5.48,0.697
			c-1.299,0.129-4.039,0.223-5.043,0.674"/>
	</g>
	<path fill="#72AEA5" d="M350.729,136.52c-10.606,0.422-15.401-13.979-2.587-14.702c10.781-0.612,13.139,10.634,3.109,14.195"/>
	<g>
		<path fill="#EE8F2A" d="M476.917,23.213c0.238,1.512,0.566,3.185,0.748,4.719c0.219,1.856,0.424,3.644,0.721,5.49
			c0.496,3.103,0.623,6.284,1.109,9.34c0.301,1.907,0.672,3.836,0.902,5.756c-0.275,0.197-0.6,0.261-0.912,0.18
			c-1.25-6.326-1.871-12.825-2.66-19.063c-0.172-1.357-0.271-2.652-0.486-3.999C476.089,24.066,475.539,23.498,476.917,23.213"/>
		<path fill="#EE8F2A" d="M488.181,34.534c0.131,0.821,0.334,1.718,0.406,2.554c0.084,1.012,0.164,1.987,0.322,2.987
			c0.268,1.676,0.174,3.434,0.434,5.088c0.17,1.036,0.396,2.072,0.488,3.118c-0.285,0.134-0.605,0.194-0.914,0.18
			c-0.785-3.402-0.938-6.958-1.279-10.354c-0.074-0.738-0.078-1.445-0.195-2.179C487.306,35.078,486.8,34.812,488.181,34.534"/>
		<path fill="#EE8F2A" d="M493.787,34.534c0.131,0.821,0.332,1.718,0.404,2.554c0.084,1.012,0.166,1.987,0.324,2.987
			c0.27,1.676,0.172,3.434,0.436,5.088c0.166,1.036,0.391,2.072,0.482,3.118c-0.283,0.134-0.6,0.194-0.91,0.18
			c-0.785-3.402-0.941-6.958-1.279-10.354c-0.072-0.738-0.082-1.445-0.197-2.179C492.91,35.078,492.402,34.812,493.787,34.534"/>
		<path fill="#EE8F2A" d="M498.947,34.955c0.129,0.793,0.326,1.668,0.395,2.474c0.082,0.983,0.152,1.929,0.314,2.896
			c0.256,1.628,0.15,3.332,0.41,4.935c0.154,1.003,0.381,2.009,0.467,3.021c-0.285,0.134-0.604,0.194-0.912,0.183
			c-0.766-3.301-0.902-6.746-1.23-10.041c-0.066-0.714-0.072-1.402-0.188-2.11C498.07,35.49,497.566,35.232,498.947,34.955"/>
		<path fill="#EE8F2A" d="M481.787,23.112c0.242,1.505,0.563,3.163,0.742,4.684c0.219,1.845,0.424,3.62,0.717,5.455
			c0.492,3.076,0.613,6.233,1.096,9.267c0.309,1.897,0.668,3.813,0.896,5.716c-0.275,0.199-0.592,0.26-0.912,0.18
			c-1.242-6.279-1.854-12.73-2.637-18.924c-0.174-1.348-0.27-2.63-0.48-3.968C480.96,23.965,480.408,23.396,481.787,23.112"/>
		<path fill="#EE8F2A" d="M479.892,47.324c1.381-0.027,2.912-0.125,4.299-0.086c1.682,0.05,3.297,0.103,4.979,0.07
			c2.824-0.058,5.666,0.301,8.451,0.242c1.742-0.032,3.506-0.136,5.242-0.088c0.131,0.335,0.137,0.693,0.018,1.033
			c-5.805,0.383-11.66,0.045-17.313-0.062c-1.23-0.026-2.391-0.12-3.619-0.096C480.521,48.367,479.927,48.887,479.892,47.324"/>
		<path fill="#EE8F2A" d="M477.599,34.548c1.771-0.035,3.736-0.139,5.516-0.106c2.15,0.042,4.23,0.083,6.389,0.042
			c3.623-0.073,7.27,0.271,10.834,0.197c2.234-0.046,4.5-0.156,6.73-0.118c0.168,0.333,0.172,0.694,0.016,1.032
			c-7.439,0.411-14.953,0.108-22.199,0.03c-1.578-0.018-3.064-0.104-4.648-0.073C478.4,35.591,477.64,36.112,477.599,34.548"/>
		<path fill="#EE8F2A" d="M478.107,38.238c1.67-0.031,3.523-0.134,5.197-0.102c2.031,0.045,3.994,0.09,6.021,0.049
			c3.416-0.066,6.85,0.279,10.217,0.21c2.104-0.041,4.236-0.148,6.338-0.107c0.158,0.331,0.164,0.69,0.014,1.031
			c-7.012,0.402-14.092,0.091-20.928,0.005c-1.484-0.021-2.889-0.109-4.377-0.079C478.865,39.282,478.144,39.8,478.107,38.238"/>
		<path fill="#EE8F2A" d="M477.343,30.291c0.32-0.01,0.672-0.084,0.994-0.02c0.385,0.072,0.762,0.149,1.148,0.139
			c0.645-0.016,1.309,0.385,1.943,0.368c0.402-0.009,0.813-0.084,1.209-0.011c0.035,0.335,0.039,0.694,0.021,1.03
			c-1.334,0.295-2.689-0.126-3.992-0.315c-0.285-0.045-0.557-0.153-0.838-0.147C477.501,31.344,477.371,31.853,477.343,30.291"/>
		<path fill="#EE8F2A" d="M478.875,43.063c1.477-0.028,3.127-0.126,4.615-0.087c1.807,0.048,3.543,0.096,5.35,0.059
			c3.033-0.059,6.086,0.294,9.072,0.234c1.871-0.039,3.768-0.142,5.631-0.097c0.146,0.332,0.148,0.695,0.021,1.03
			c-6.234,0.392-12.521,0.063-18.596-0.037c-1.316-0.021-2.563-0.114-3.891-0.087C479.544,44.108,478.91,44.629,478.875,43.063"/>
		<path fill="#EE8F2A" d="M507.351,34.838c-0.242,0.812-0.459,1.741-0.764,2.537c-0.367,0.966-0.729,1.896-1.023,2.888
			c-0.5,1.671-1.354,3.217-1.846,4.861c-0.311,1.028-0.568,2.094-0.945,3.096c-0.309-0.034-0.613-0.146-0.875-0.329
			c0.803-3.518,2.223-6.829,3.412-10.099c0.262-0.713,0.564-1.357,0.779-2.088C506.343,34.863,506.015,34.345,507.351,34.838"/>
	</g>
</g>
<path fill="#72AEA5" d="M506.427,358.29c-2.732-4.303-5.938-8.988-8.521-13.416c-3.133-5.365-6.141-10.543-9.479-15.787
	c-5.609-8.813-10.232-18.295-15.76-26.979c-3.457-5.434-7.123-10.846-10.365-16.385c0.561-0.91,1.428-1.462,2.49-1.583
	c12.164,17.708,22.678,36.653,33.357,54.622c2.316,3.908,4.338,7.703,6.777,11.545C507.765,354.76,510.185,355.856,506.427,358.29"
	/>
<path fill="#EE8F2A" d="M548.138,233.217c-1.695,3.686-10.572,3.83-11.611-0.907C535.173,226.146,548.181,230.598,548.138,233.217"
	/>
<path fill="#EBB197" d="M506.175,235.368c-2.752-5.094-7.91-9.802-11.496-13.259c-2.604-2.507-10.938-8.726-14.592-4.346
	c-5.404,6.473,16.645,20.065,19.873,23.995c9.535-1.029,20.303-5.188,29.748-4.438c4.611,0.368,8.154,1.563,12.756-0.017
	c1.666-0.571,1.775-1.526,1.775-1.526s-2.645,0.588-2.896-0.246c-0.369-1.211,4.568-4.496,4.082-5.396
	c-1.293-2.383-4.738-0.648-5.627-0.514c-0.59,0.092-10.09,3.34-16.063,4.348C517.626,235.004,512.142,234.413,506.175,235.368"/>
<path fill="#EBB197" d="M515.082,182.978c2.443,2.374,5.861,8.001,6.057,11.371c-2.33,0.853-5.064,0.392-7.52,0.515
	c0.166,4.412-8.982,8.813-11.064,12.514c-2.479,4.412-3.016,12.414-2.791,17.523c-3.584-1.326-6.635-2.445-10.951-2.678
	c-0.83-5.322,3.426-11.182,4.158-16.331c0.932-6.479-1.063-12.669-1.936-18.718c-0.857-5.949-0.271-12.982,4.596-16.512
	c3.785-2.746,14.412-3.563,17.84,0.567c2.072,2.5,4.281,8.563,1.994,11.36"/>
<path fill="#EE8F2A" d="M543.804,248.377c-2.465-3.221-11.211-1.809-11.127,3.016c0.111,6.271,11.561-0.803,10.922-3.337"/>
<path fill="#020202" d="M515.962,177.073c-9.746-0.584-16.383,11.133-21.43,17.543c-4.793,6.09-14.27,15.18-23.07,13.094
	c3.912-2.938,8.225-6.283,11.801-9.799c4.645-4.563,5.283-8.418,7.33-13.832c3.002-7.934,20.791-19.352,25.604-7.492"/>
<path fill="#EBB197" d="M499.332,190.431c1.543-5.058-6.746-5.13-7.6-0.655c-0.945,4.955,4.482,7.025,7.645,9.112
	c0.703-2.038,0.105-6.673-0.131-8.829"/>
<path fill="#020202" d="M516.226,176.09c1.912-15.094-21.35-12.012-27.865-5.809c-8.535,8.127-7.605,21.627-18.006,27.482
	c-5.92,3.333-12.521,5.443-19.709,5.861c0.898,1.729,5.371,2.947,7.283,4.41c2.508,1.916,4.104,3.58,7.08,4.77
	c5.287,2.105,11.365,3.646,17.162,1.729c5.186-1.719,9.223-5.099,10.102-10.504c1.027-6.33-0.41-12.021,2.689-17.938
	c1.818-3.469,5.311-7.895,8.777-9.896c2.658-1.535,9.961-3.689,12.104-0.488"/>
<g>
	<path fill="#72AEA5" d="M461,405.016c3.146-4.729,7.361-6.227,11.119-7.74c2.732-1.104,5.072-1.354,4.652-4.502
		c-0.295-2.201-1.059-4.979-1.799-6.992c3.986-2.646,7.199-6.283,12.404-7.195c1.117,4.744,3.881,8.928,5.035,13.746
		c-4.752,2.619-10.688,4.092-15.947,5.873c-5.313,1.799-9.73,5.094-15.023,6.682"/>
	<g>
		<path fill="#EBB197" d="M476.007,353.911c6.955-2.275,7.055-0.734,9.014,5.863c1.385,4.67,2.305,10.104,4.357,14.514
			c4.064,8.727,15.639,7.119,22.041,14.348c-6.229,7.414-28.203-0.416-35.414-3.559c-11.574-5.045-2.738-5.564-0.854-11.395
			c1.645-5.09-2.912-13.379-2.238-18.857"/>
		<path fill="#B3815C" d="M474.664,374.909c-2.053,1.5,0.563,4.934,1.949,5.838c1.826,1.188,4.291,1.867,6.363,2.568
			c2.234,0.758,4.674,1.25,6.711,2.311c2.15,1.121,4.506,1.871,6.867,1.912c1.662,0.029,2.719-0.52,3.348-2.1
			c0.439-1.105,0.193-3.531-0.896-3.83c4.277-1.791,9.447,2.658,12.09,5.463c2.043,2.166,1.621,3.689-0.934,4.881
			c-2.42,1.129-5.02,1.756-7.584,1.49c-4.479-0.465-8.865-1.109-13.189-2.014c-4.299-0.898-9.297-1.734-13.402-3.227
			c-2.707-0.982-6.367-3.439-7.787-5.992c-1.77-3.184,2.793-7.16,5.77-6.91c0.041,0.201,0.127,0.158,0.248,0.215"/>
	</g>
	<path fill="#79BB93" d="M415.149,300.895c-4.332,4.432-1.521,13.268,1.97,17.295c3.787,4.371,9.896,5.193,15.646,5.549
		c5.818,0.357,11.635-0.254,17.057,1.771c6.146,2.293,8.922,6.445,12.869,11.504c5.469,7.004,7.314,23.922,9.189,24.523
		c1.725,0.555,15.504-7.23,20.58-10.896c-0.084-2.633-1.98-5.52-3.133-7.879c-1.41-2.893-1.951-5.221-3.021-8.131
		c-2.18-5.938-6.227-11.354-9.691-16.799c-6.498-10.199-15.654-17.467-26.775-20.129
		C438.466,294.983,426.126,293.956,415.149,300.895"/>
</g>
<path fill="#72AEA5" d="M457.953,284.124c6.104,0,12.9-0.215,19.037,0c7.436,0.26,14.602,0.527,22.047,0.521
	c12.512-0.012,25.064,1.314,37.395,1.309c7.711-0.01,15.537-0.225,23.225,0.037c0.561,1.078,0.561,2.234,0,3.315
	c-25.713,0.87-51.617-0.571-76.646-1.269c-5.438-0.149-10.568-0.527-16.021-0.521C460.662,287.522,458.001,289.157,457.953,284.124"
	/>
<path fill="#72AEA5" d="M506.083,358.18c2.889-4.234,5.945-9.059,9.008-13.207c3.709-5.029,7.297-9.865,10.814-15.033
	c5.912-8.689,12.826-16.734,18.648-25.293c3.646-5.355,7.189-10.893,11.02-16.092c1.059,0.152,1.908,0.732,2.438,1.662
	c-11.527,18.275-24.844,35.527-37.193,52.541c-2.686,3.699-5.391,7.07-7.967,10.857C509.865,358.004,509.806,360.668,506.083,358.18
	"/>
<path fill="#72AEA5" d="M554.619,246.581c0.576,3.26,1.428,6.854,1.793,10.164c0.445,4.016,0.855,7.889,1.563,11.861
	c1.189,6.68,1.068,13.611,2.24,20.193c0.732,4.115,1.688,8.257,2.148,12.404c-1.008,0.486-2.146,0.686-3.262,0.574
	c-3.277-13.578-4.299-27.658-5.975-41.145c-0.363-2.932-0.477-5.735-0.996-8.645C551.533,248.618,549.675,247.479,554.619,246.581"
	/>
<path fill="#72AEA5" d="M545.912,232.027c3.834,0,7.066,0.06,10.094,2.21c2.254,1.602,5.586,5.756,4.443,8.889
	c-1.33,3.646-17.488,11.166-20.002,6.646c1.982-2.379,7.217-1.421,10.035-2.87c3.258-1.676,6.502-3.958,5.047-8.401
	c-1.719-3.244-11.176-2.571-9.904-6.185"/>
<g>
	<path fill="#72AEA5" d="M533.248,363.352c1.654,0,3.332,0.025,4.967-0.055c-0.074-5.521,3.646-11.344,4.795-16.801
		c1.154-5.469,3.174-9.5,6.814-13.906c7.758-9.389,18.918-14.193,30.686-17.016c9.156-2.195,21.234-1.371,30.211,0.396
		c1.039-2.082,1.209-4.354,1.018-6.725c-5.313-1.492-12.311-0.412-17.877-0.412c-5.926,0-12.375-0.688-17.936,0.988
		c-10.674,3.223-19.471,7.184-26.969,15.777c-9.432,10.813-15.709,23.684-15.709,38.463"/>
	<path fill="#E1B58E" d="M587.505,318.157c-1.137-0.729,6.627,36.604,8.236,44.719c1.563,7.91,3.135,15.82,4.703,23.73
		c1.379,6.953,3.367,17.883,4.836,24.17c0.168,0.109,0.313,0.084,0.434-0.074c-0.713-3.611-1.209-7.113-1.848-10.643
		c-0.697-3.854-1.459-7.701-2.23-11.65c-1.531-7.873-3.162-15.305-4.732-23.244c-1.604-8.09-3.271-16.135-4.807-24.238
		c-1.086-5.727-3.137-17.754-4.459-22.293"/>
	<path fill="#E1B58E" d="M607.64,318.713c-0.723-1.141-9.473,35.973-11.445,44.006c-1.924,7.832-3.85,15.662-5.771,23.494
		c-1.688,6.885-4.512,17.629-5.84,23.947c0.107,0.17,0.252,0.211,0.426,0.117c0.883-3.574,1.912-6.959,2.824-10.432
		c0.998-3.781,1.936-7.596,2.908-11.5c1.939-7.777,3.605-15.199,5.539-23.063c1.969-8.008,3.857-16.004,5.895-23.996
		c1.439-5.648,4.664-17.416,5.393-22.086"/>
	<path fill="#E1B58E" d="M631.9,333.313c0.051-1.352-28.217,24.242-34.4,29.736c-6.027,5.355-12.055,10.711-18.084,16.068
		c-5.301,4.707-13.719,11.955-18.398,16.4c-0.01,0.199,0.092,0.316,0.283,0.34c2.756-2.441,5.523-4.646,8.244-6.98
		c2.969-2.553,5.902-5.156,8.92-7.818c6.018-5.309,11.602-10.475,17.65-15.85c6.166-5.477,12.26-10.988,18.471-16.412
		c4.395-3.834,13.729-11.691,16.971-15.129"/>
	<path fill="#E1B58E" d="M640.939,348.672c0.549-1.23-35.193,12.053-42.975,14.863c-7.584,2.738-15.168,5.477-22.754,8.215
		c-6.67,2.406-17.174,6.016-23.17,8.412c-0.084,0.184-0.035,0.328,0.139,0.418c3.463-1.246,6.852-2.264,10.244-3.426
		c3.703-1.271,7.395-2.604,11.184-3.953c7.553-2.699,14.656-5.428,22.27-8.174c7.758-2.805,15.459-5.658,23.24-8.396
		c5.498-1.932,17.082-5.768,21.371-7.756"/>
	<path fill="#E1B58E" d="M643.617,366.727c0.977-0.934-37.135-2.199-45.398-2.553c-8.057-0.344-16.109-0.688-24.17-1.031
		c-7.084-0.303-18.174-0.947-24.629-1.006c-0.145,0.139-0.158,0.289-0.031,0.439c3.684,0.16,7.199,0.504,10.779,0.715
		c3.908,0.232,7.826,0.4,11.846,0.586c8.018,0.367,15.619,0.539,23.705,0.885c8.24,0.354,16.451,0.631,24.689,1.053
		c5.822,0.297,17.994,1.145,22.717,0.932"/>
	<path fill="#E1B58E" d="M639.839,383.122c1.242-0.531-34.002-15.084-41.619-18.314c-7.424-3.145-14.848-6.293-22.271-9.438
		c-6.527-2.771-16.688-7.262-22.713-9.582c-0.186,0.078-0.248,0.217-0.182,0.402c3.389,1.438,6.563,2.99,9.842,4.445
		c3.578,1.588,7.189,3.121,10.889,4.703c7.375,3.156,14.438,5.984,21.889,9.146c7.592,3.223,15.189,6.357,22.75,9.645
		c5.348,2.32,16.451,7.381,20.947,8.838"/>
	<path fill="#E1B58E" d="M624.017,402.825c1.338,0.186-21.35-30.463-26.207-37.158c-4.736-6.525-9.473-13.053-14.211-19.578
		c-4.162-5.738-10.547-14.83-14.514-19.924c-0.199-0.029-0.324,0.057-0.363,0.25c2.16,2.98,4.078,5.953,6.137,8.889
		c2.248,3.207,4.549,6.387,6.902,9.646c4.689,6.508,9.281,12.574,14.033,19.125c4.844,6.676,9.729,13.281,14.516,19.998
		c3.385,4.746,10.285,14.809,13.385,18.377"/>
	<path fill="#E8754D" d="M650.517,354.516c-5.045-16.834-16.385-35.957-34.594-40.512l-0.988,0.494
		c-9.906-4.287-27.49-3.281-37.98-0.967c-8.564,1.891-17.973,8.221-24.168,14.143c-8.979,8.592-14.832,27.82-13.961,44.15
		c0.752,14.051,8.068,29.883,20.264,36.684c13.654,7.617,30.947,8.785,46.949,8.785c8.689,0,14.799-0.203,22.352-3.35
		c6.951-2.896,14.232-7.426,18.314-13.455C655.091,388.071,654.708,368.497,650.517,354.516z M634.636,391.903
		c-3.105,4.596-8.654,8.045-13.951,10.252c-5.754,2.395-10.41,2.553-17.029,2.553c-12.195,0-25.369-0.893-35.775-6.693
		c-9.291-5.184-14.867-17.248-15.438-27.947c-0.664-12.443,0.604-26.957,10.178-35.021c4.996-4.207,12.35-7.957,18.875-9.396
		c7.992-1.766,21.391-2.531,28.938,0.734l0.758-0.375c13.877,3.471,22.518,18.041,26.355,30.869
		C640.738,367.526,641.031,382.44,634.636,391.903z"/>
</g>
<g>
	<path fill="#72AEA5" d="M418.304,303.397c-0.002,1.531-0.029,3.09,0.057,4.605c5.793-0.068,11.9,3.379,17.625,4.447
		c5.736,1.066,9.967,2.939,14.59,6.316c9.848,7.193,14.889,17.549,17.85,28.465c2.307,8.488,0.232,8.842-1.629,17.166
		c2.189,0.963,4.572,1.117,7.061,0.938c1.563-4.922,1.639-0.561,1.639-5.727c0-5.492,0.723-11.48-1.037-16.635
		c-3.381-9.896-7.535-18.059-16.553-25.014c-11.342-8.748-24.85-14.57-40.354-14.57"/>
	<path fill="#E1B58E" d="M465.714,353.721c0.766-1.055-38.398,6.146-46.912,7.641c-8.297,1.453-16.596,2.906-24.893,4.361
		c-7.299,1.277-18.764,3.123-25.357,4.484c-0.115,0.156-0.088,0.297,0.078,0.402c3.789-0.66,7.463-1.121,11.164-1.719
		c4.043-0.645,8.078-1.354,12.223-2.063c8.26-1.422,16.055-2.938,24.385-4.391c8.486-1.486,16.928-3.033,25.428-4.457
		c6.008-1.012,18.625-2.91,23.387-4.141"/>
	<path fill="#E1B58E" d="M465.132,372.397c1.195-0.672-37.738-8.787-46.166-10.617c-8.215-1.785-16.43-3.568-24.646-5.354
		c-7.223-1.568-18.492-4.184-25.123-5.416c-0.179,0.1-0.222,0.232-0.121,0.395c3.75,0.816,7.299,1.771,10.938,2.621
		c3.973,0.924,7.968,1.793,12.063,2.695c8.166,1.801,15.95,3.346,24.196,5.139c8.397,1.824,16.792,3.578,25.175,5.467
		c5.926,1.334,18.27,4.326,23.172,4.996"/>
	<path fill="#E1B58E" d="M449.818,394.897c1.416,0.049-25.436-26.172-31.197-31.904c-5.617-5.594-11.236-11.186-16.854-16.775
		c-4.938-4.916-12.543-12.725-17.211-17.063c-0.21-0.012-0.332,0.08-0.354,0.262c2.563,2.555,4.871,5.121,7.321,7.646
		c2.679,2.754,5.41,5.475,8.203,8.271c5.567,5.578,10.987,10.758,16.626,16.369c5.744,5.721,11.527,11.371,17.219,17.135
		c4.021,4.07,12.266,12.729,15.871,15.738"/>
	<path fill="#E1B58E" d="M433.701,403.28c1.295,0.51-12.645-32.643-15.591-39.859c-2.87-7.033-5.745-14.068-8.618-21.104
		c-2.523-6.186-6.313-15.93-8.824-21.49c-0.189-0.076-0.344-0.031-0.438,0.129c1.309,3.213,2.376,6.354,3.596,9.502
		c1.33,3.436,2.727,6.859,4.145,10.373c2.832,7.006,5.693,13.594,8.574,20.654c2.938,7.195,5.939,14.34,8.805,21.557
		c2.027,5.1,6.057,15.844,8.141,19.82"/>
	<path fill="#E1B58E" d="M414.763,405.764c0.979,0.908,2.309-34.441,2.678-42.107c0.361-7.473,0.721-14.943,1.081-22.416
		c0.317-6.57,0.995-16.857,1.056-22.846c-0.145-0.135-0.303-0.146-0.461-0.027c-0.168,3.412-0.527,6.676-0.75,9.998
		c-0.244,3.625-0.42,7.258-0.613,10.986c-0.387,7.434-0.563,14.486-0.93,21.986c-0.371,7.645-0.662,15.26-1.104,22.898
		c-0.313,5.395-1.199,16.688-0.977,21.064"/>
	<path fill="#E1B58E" d="M397.563,402.262c0.558,1.15,15.823-31.539,19.213-38.604c3.302-6.885,6.603-13.771,9.903-20.658
		c2.904-6.053,7.619-15.477,10.053-21.064c-0.08-0.174-0.227-0.23-0.42-0.17c-1.512,3.145-3.145,6.09-4.67,9.129
		c-1.664,3.32-3.271,6.67-4.934,10.1c-3.311,6.842-6.276,13.393-9.594,20.303c-3.381,7.043-6.674,14.086-10.117,21.105
		c-2.436,4.959-7.742,15.256-9.271,19.428"/>
	<path fill="#E1B58E" d="M376.894,387.586c-0.195,1.24,31.957-19.801,38.98-24.309c6.846-4.396,13.693-8.785,20.539-13.186
		c6.02-3.855,15.557-9.777,20.9-13.461c0.027-0.186-0.064-0.301-0.266-0.336c-3.129,2.002-6.246,3.781-9.32,5.689
		c-3.365,2.086-6.695,4.221-10.119,6.402c-6.828,4.35-13.191,8.607-20.064,13.018c-7.004,4.492-13.936,9.023-20.979,13.463
		c-4.978,3.139-15.534,9.539-19.276,12.414"/>
	<path fill="#E8754D" d="M427.572,412.167c17.66-4.68,37.721-15.197,42.5-32.088l-0.52-0.916c4.498-9.189,3.441-25.498,1.014-35.23
		c-1.982-7.938-8.621-16.67-14.836-22.414c-9.014-8.332-29.188-13.758-46.316-12.943c-14.738,0.691-31.349,7.479-38.48,18.793
		c-7.989,12.666-9.217,28.703-9.217,43.547c0,8.059,0.215,13.727,3.516,20.729c3.038,6.447,7.786,13.201,14.111,16.98
		C392.373,416.409,412.906,416.051,427.572,412.167z M388.351,397.436c-4.82-2.881-8.438-8.027-10.754-12.939
		c-2.516-5.336-2.678-9.656-2.678-15.795c0-11.313,0.936-23.531,7.021-33.184c5.438-8.617,18.095-13.789,29.323-14.318
		c13.055-0.617,28.277,0.561,36.738,9.439c4.412,4.633,8.346,11.455,9.857,17.504c1.852,7.416,2.652,19.844-0.771,26.844
		l0.396,0.697c-3.646,12.871-18.932,20.885-32.391,24.449C413.925,403.096,398.278,403.368,388.351,397.436z"/>
</g>
<path fill="#72AEA5" d="M561.796,298.772c2.301,3.9,5.045,8.135,7.172,12.164c2.576,4.885,5.045,9.598,7.854,14.354
	c4.723,7.99,8.313,16.686,12.965,24.557c2.91,4.93,6.043,9.816,8.713,14.857c-0.719,0.906-1.713,1.492-2.854,1.682
	c-10.438-15.984-18.951-33.27-27.779-49.611c-1.918-3.559-3.771-6.896-5.826-10.373C559.654,302.36,557.419,301.426,561.796,298.772
	"/>
<path fill="#72AEA5" d="M509.062,359.04c-5.469,0.398-11.539,1.033-17.049,1.24c-6.676,0.254-13.109,0.48-19.777,0.973
	c-11.205,0.824-22.535,0.465-33.576,1.277c-6.906,0.508-13.9,1.209-20.798,1.479c-0.569-0.922-0.646-1.943-0.214-2.939
	c22.973-2.447,46.266-2.855,68.721-3.867c4.883-0.219,9.504-0.225,14.387-0.58C506.416,356.202,508.695,354.579,509.062,359.04"/>
<path fill="#72AEA5" d="M415.468,362c2.646-4.391,5.429-9.377,8.254-13.691c3.422-5.229,6.732-10.258,9.955-15.613
	c5.418-9.006,11.871-17.426,17.209-26.297c3.34-5.551,6.568-11.277,10.1-16.684c1.064,0.094,1.945,0.623,2.525,1.521
	c-10.484,18.896-22.816,36.858-34.195,54.542c-2.475,3.844-4.986,7.355-7.348,11.287C419.231,361.612,419.322,364.276,415.468,362"
	/>
<path fill="#EE8F2A" d="M477.826,285.788c-5.352-1.08-9.865-3.269-15.072-4.578c-2.016-0.508-5.635-1.854-7.68-1.564
	c-2.932,0.412-3.299,3.148-3.916,5.688c-1.645,6.754,2.441,8.217,8.203,9.65c4.605,1.146,10.67,3.051,15.197,2.064
	c2.629-0.565,5.207-1.508,6.15-4.219C481.876,289.472,479.476,288,477.826,285.788"/>
<path fill="#EE8F2A" d="M519.658,356.772c-0.377-6.4-6.73-10.387-12.664-10.451c-13.738-0.152-27.295,2.738-41.006,3.416
	c-6.807,0.336-13.682,0.768-20.297,2.055c-7.08,1.379-14.301,2.568-21.715,2.568c-4.874-0.15-12.706-0.225-11.501,6.881
	c0.487,2.869,1.815,4.49,4.222,5.828c2.354,1.311,4.906,0.959,7.684,0.959c13.65,0,26.988,0.332,40.396,1.008
	c6.9,0.346,13.904,0.381,20.908,0.398c6.641,0.02,14.008-0.322,20.504-1.611C511.929,366.686,520.097,364.264,519.658,356.772z
	 M505.587,366.979c-6.398,1.141-13.654,1.443-20.195,1.428c-6.9-0.018-13.797-0.049-20.596-0.355
	c-13.209-0.596-26.348-0.891-39.793-0.891c-2.732,0-5.248,0.313-7.568-0.85c-2.367-1.184-3.678-2.617-4.156-5.156
	c-1.188-6.287,6.527-6.221,11.328-6.088c7.303,0,14.416-1.053,21.389-2.271c6.518-1.141,13.289-1.52,19.994-1.818
	c13.504-0.6,26.857-3.152,40.391-3.02c5.844,0.057,12.105,3.582,12.479,9.246C519.287,363.829,511.242,365.973,505.587,366.979z"/>
<g>
	<path fill="#EE8F2A" d="M519.23,355.963c-0.611-6.273-5.586-8.918-11.209-9.713l0,0c-6.082-0.742-13.01,4.762-11.59,11.207
		c1.068,4.842,7.568,9.324,12.338,9.713C514.945,367.672,519.832,362.168,519.23,355.963z M508.664,366.061
		c-4.271-0.348-10.092-4.361-11.049-8.697c-1.273-5.773,4.598-11.037,10.045-10.373l0,0c5.035,0.711,9.826,3.416,10.371,9.033
		C518.572,361.581,514.195,366.512,508.664,366.061z"/>
	<path fill="#EE8F2A" d="M510.615,346.659c-0.734-0.385-2.387,7.574-2.809,9.287c-0.408,1.668-0.818,3.336-1.229,5.006
		c-0.361,1.467-1.064,3.729-1.219,5.107c0.104,0.059,0.229,0.09,0.354,0.09c0.189-0.762,0.523-1.453,0.754-2.186
		c0.252-0.797,0.451-1.607,0.668-2.438c0.43-1.654,0.693-3.264,1.105-4.938c0.422-1.707,0.773-3.422,1.256-5.113
		c0.336-1.191,1.217-3.652,1.125-4.713"/>
	<path fill="#EE8F2A" d="M501.673,347.559c-0.773,0.311,4.723,7.174,5.863,8.701c1.111,1.488,2.225,2.977,3.336,4.467
		c0.979,1.309,2.395,3.445,3.43,4.529c0.113-0.047,0.215-0.119,0.293-0.217c-0.506-0.682-0.865-1.428-1.32-2.119
		c-0.496-0.756-1.037-1.48-1.584-2.229c-1.088-1.494-2.238-2.824-3.354-4.318c-1.137-1.523-2.318-3.006-3.408-4.564
		c-0.771-1.102-2.238-3.514-3.162-4.18"/>
	<path fill="#EE8F2A" d="M497.232,357.618c-0.109,0.828,8.563-0.609,10.453-0.857c1.844-0.242,3.686-0.479,5.527-0.725
		c1.619-0.213,4.178-0.402,5.627-0.775c0.02-0.121,0.002-0.246-0.043-0.355c-0.842,0.104-1.67,0.055-2.496,0.109
		c-0.9,0.064-1.797,0.186-2.719,0.291c-1.836,0.223-3.557,0.57-5.406,0.814c-1.885,0.246-3.754,0.553-5.645,0.742
		c-1.338,0.135-4.16,0.23-5.191,0.713"/>
</g>
<path fill="#72AEA5" d="M421.255,369.405c-10.922,0.447-15.863-14.846-2.664-15.617c11.105-0.65,13.535,11.295,3.203,15.078"/>
<g>
	<path fill="#72AEA5" d="M-39.838,192.924c-2.685,3.889-2.293,7.318-2.093,10.438c0.143,2.271,0.838,3.958-1.916,4.832
		c-1.924,0.611-4.5,1.114-6.442,1.352c-0.645,3.695-2.401,7.229-1.15,11.113c4.332-0.986,8.838-0.645,13.244-1.634
		c0.329-4.207-0.742-8.794-1.299-13.041c-0.563-4.284,0.448-8.513-0.282-12.709"/>
	<g>
		<path fill="#EBB197" d="M-56.756,175.967c6.674-0.164,6.356,1.209,6.335,7.486c-0.015,4.44-0.637,9.432,0,13.818
			c1.261,8.688,11.794,10.322,15.491,18.314c-7.387,4.846-24.529-7.762-30.003-12.396c-8.788-7.441-0.933-5.578,2.243-10.178
			c2.773-4.016,0.965-12.451,2.993-17.063"/>
		<path fill="#B3815C" d="M-63.438,193.958c-2.187,0.771-0.802,4.457,0.171,5.61c1.283,1.521,3.258,2.757,4.886,3.913
			c1.753,1.248,3.755,2.318,5.256,3.779c1.585,1.544,3.444,2.816,5.497,3.473c1.447,0.46,2.51,0.262,3.475-0.956
			c0.676-0.851,1.098-3.032,0.222-3.582c4.207-0.442,7.555,4.804,9.127,7.944c1.218,2.428,0.449,3.648-2.096,4.02
			c-2.409,0.354-4.844,0.219-7.015-0.688c-3.79-1.58-7.455-3.295-10.994-5.219c-3.52-1.914-7.667-3.953-10.866-6.338
			c-2.106-1.566-4.662-4.668-5.23-7.276c-0.708-3.243,4.317-5.522,6.857-4.521c-0.018,0.188,0.069,0.172,0.16,0.252"/>
	</g>
	<path fill="#79BB93" d="M-81.21,104.183c-5.505,1.286-7.672,9.461-6.96,14.271c0.772,5.219,5.069,8.846,9.319,11.938
		c4.299,3.129,9.072,5.506,12.251,9.722c3.605,4.778,3.704,9.331,4.262,15.157c0.772,8.065-1.866,22.658-0.718,24.041
		c1.053,1.271,11.239,1.367,16.939,1.032c1.227-2.063,1.182-5.215,1.453-7.596c0.332-2.916,1.057-4.972,1.661-7.732
		c1.234-5.637,0.776-11.786,0.776-17.676c0-11.027-3.483-21.104-10.733-28.604C-60.375,111.062-69.364,104.224-81.21,104.183"/>
</g>
<g>
	<path fill="#EE8F2A" d="M551.232,249.069c0.248,1.605,0.584,3.383,0.771,5.012c0.227,1.971,0.439,3.871,0.742,5.832
		c0.508,3.293,0.641,6.672,1.143,9.918c0.313,2.026,0.689,4.076,0.928,6.112c-0.283,0.209-0.611,0.274-0.939,0.188
		c-1.285-6.717-1.924-13.617-2.738-20.243c-0.178-1.44-0.273-2.813-0.5-4.248C550.38,249.977,549.81,249.372,551.232,249.069"/>
	<path fill="#EE8F2A" d="M562.833,261.092c0.135,0.869,0.344,1.826,0.416,2.713c0.09,1.074,0.172,2.109,0.336,3.172
		c0.277,1.781,0.176,3.646,0.449,5.404c0.17,1.099,0.396,2.201,0.496,3.311c-0.293,0.143-0.619,0.209-0.939,0.191
		c-0.809-3.615-0.969-7.391-1.316-10.996c-0.076-0.784-0.082-1.537-0.203-2.313C561.931,261.672,561.41,261.387,562.833,261.092"/>
	<path fill="#EE8F2A" d="M568.607,261.092c0.133,0.869,0.344,1.826,0.416,2.713c0.088,1.074,0.17,2.109,0.336,3.172
		c0.273,1.781,0.176,3.646,0.445,5.404c0.174,1.099,0.404,2.201,0.498,3.311c-0.293,0.143-0.619,0.209-0.938,0.191
		c-0.814-3.615-0.969-7.391-1.32-10.996c-0.074-0.784-0.082-1.537-0.203-2.313C567.705,261.672,567.183,261.387,568.607,261.092"/>
	<path fill="#EE8F2A" d="M573.923,261.54c0.129,0.842,0.334,1.771,0.404,2.629c0.084,1.041,0.16,2.047,0.32,3.074
		c0.268,1.729,0.152,3.539,0.424,5.241c0.164,1.063,0.391,2.134,0.479,3.209c-0.293,0.14-0.619,0.206-0.938,0.19
		c-0.793-3.502-0.938-7.163-1.271-10.659c-0.068-0.761-0.076-1.491-0.188-2.244C573.019,262.108,572.5,261.834,573.923,261.54"/>
	<path fill="#EE8F2A" d="M556.248,248.963c0.246,1.597,0.58,3.357,0.766,4.975c0.229,1.959,0.439,3.846,0.736,5.791
		c0.504,3.268,0.633,6.624,1.131,9.846c0.314,2.014,0.689,4.045,0.92,6.068c-0.283,0.208-0.605,0.273-0.938,0.189
		c-1.279-6.668-1.91-13.521-2.717-20.1c-0.178-1.432-0.275-2.793-0.496-4.217C555.396,249.868,554.826,249.266,556.248,248.963"/>
	<path fill="#EE8F2A" d="M554.296,274.674c1.42-0.027,2.998-0.131,4.426-0.088c1.73,0.054,3.398,0.106,5.131,0.072
		c2.91-0.063,5.836,0.317,8.703,0.26c1.793-0.037,3.611-0.146,5.398-0.094c0.137,0.354,0.143,0.733,0.018,1.094
		c-5.977,0.406-12.008,0.049-17.83-0.065c-1.266-0.024-2.461-0.125-3.729-0.099C554.943,275.784,554.332,276.336,554.296,274.674"/>
	<path fill="#EE8F2A" d="M551.935,261.107c1.82-0.037,3.848-0.147,5.678-0.112c2.221,0.043,4.359,0.088,6.58,0.043
		c3.732-0.076,7.482,0.287,11.162,0.211c2.301-0.047,4.633-0.166,6.926-0.125c0.174,0.354,0.18,0.735,0.018,1.099
		c-7.666,0.438-15.396,0.112-22.869,0.03c-1.625-0.02-3.152-0.109-4.779-0.078C552.759,262.213,551.974,262.768,551.935,261.107"/>
	<path fill="#EE8F2A" d="M552.458,265.026c1.717-0.033,3.627-0.143,5.354-0.105c2.092,0.045,4.107,0.096,6.201,0.053
		c3.52-0.072,7.057,0.295,10.521,0.224c2.168-0.045,4.369-0.157,6.529-0.114c0.158,0.354,0.17,0.733,0.018,1.096
		c-7.227,0.431-14.518,0.099-21.557,0.007c-1.531-0.021-2.98-0.115-4.516-0.083C553.238,266.133,552.498,266.688,552.458,265.026"/>
	<path fill="#EE8F2A" d="M551.671,256.584c0.328-0.006,0.689-0.086,1.021-0.021c0.395,0.079,0.779,0.16,1.182,0.148
		c0.672-0.019,1.35,0.408,2.01,0.393c0.414-0.01,0.832-0.09,1.244-0.014c0.037,0.354,0.041,0.738,0.018,1.097
		c-1.373,0.313-2.768-0.136-4.111-0.338c-0.293-0.044-0.57-0.162-0.861-0.154C551.833,257.704,551.699,258.247,551.671,256.584"/>
	<path fill="#EE8F2A" d="M553.246,270.152c1.525-0.03,3.221-0.135,4.756-0.095c1.857,0.05,3.648,0.104,5.508,0.064
		c3.125-0.065,6.271,0.312,9.352,0.246c1.926-0.039,3.879-0.15,5.799-0.104c0.145,0.354,0.146,0.732,0.018,1.094
		c-6.418,0.415-12.895,0.064-19.148-0.04c-1.359-0.021-2.645-0.122-4.006-0.093C553.939,271.26,553.283,271.813,553.246,270.152"/>
	<path fill="#EE8F2A" d="M582.578,261.413c-0.252,0.865-0.475,1.854-0.787,2.697c-0.379,1.025-0.748,2.014-1.055,3.066
		c-0.516,1.775-1.396,3.414-1.902,5.162c-0.313,1.094-0.582,2.225-0.971,3.285c-0.316-0.035-0.633-0.156-0.904-0.351
		c0.828-3.731,2.293-7.252,3.521-10.728c0.266-0.754,0.576-1.439,0.805-2.215C581.541,261.44,581.207,260.892,582.578,261.413"/>
</g>
<path fill="#FFFFFF" d="M488.371,214.648c2.568,1.156,5.068,3.701,7.643,5.099c2.467,1.336,5.551,1.69,7.678,3.627
	c4.438,4.037,4.477,12.207,2.809,17.602c-1.734,5.607-4.092,10.814-6.715,16.029c-1.123,2.232-2.314,5.271-3.814,7.207
	c-1.688,2.191-5.885,1.435-8.553,1.567c-6.406,0.328-13.076,0.705-19.08-1.196c-2.924-0.927-5.52-2.297-8.393-3.535
	c-2.492-1.072-5.98-1.215-4.391-4.414c2.803-5.637,6.363-11.033,9.307-16.854c2.711-5.359,4.445-11.662,8.104-16.934
	c2.744-3.955,10.451-10.217,15.602-8.008"/>
<path fill="#EBB197" d="M502.521,242.299c-1.076-5.688-4.563-11.74-6.932-16.123c-1.717-3.178-7.771-11.633-12.584-8.57
	c-7.113,4.527,9.768,24.174,11.652,28.898c9.395,1.912,20.92,1.22,29.688,4.804c4.281,1.751,7.477,5.167,12.158,3.856
	c9.104-2.547-2.287-4.732-1.982-7.056c0.99-0.342,1.041-0.892,1.609-1.312c-6.018-1.225-10.459,0.354-16.455-0.5
	C513.541,245.43,508.496,243.2,502.521,242.299"/>
<path fill="#72AEA5" d="M130.427,447.29c-2.732-4.303-5.938-8.988-8.521-13.416c-3.133-5.365-6.141-10.543-9.479-15.787
	c-5.609-8.813-10.232-18.295-15.76-26.979c-3.457-5.434-7.123-10.846-10.365-16.385c0.561-0.91,1.428-1.463,2.49-1.584
	c12.166,17.709,22.678,36.654,33.357,54.623c2.322,3.908,4.338,7.703,6.783,11.545C131.767,443.76,134.185,444.856,130.427,447.29"
	/>
<path fill="#EE8F2A" d="M172.138,322.217c-1.695,3.686-10.572,3.83-11.611-0.908C159.175,315.147,172.181,319.598,172.138,322.217"
	/>
<path fill="#EBB197" d="M130.177,324.368c-2.754-5.094-7.91-9.801-11.498-13.258c-2.602-2.508-10.938-8.727-14.592-4.348
	c-5.404,6.475,16.645,20.066,19.875,23.996c9.535-1.029,20.301-5.188,29.749-4.436c4.61,0.369,8.151,1.563,12.754-0.021
	c1.666-0.566,1.775-1.521,1.775-1.521s-2.64,0.586-2.894-0.248c-0.369-1.209,4.567-4.496,4.081-5.396
	c-1.293-2.383-4.739-0.646-5.627-0.514c-0.59,0.092-10.09,3.34-16.063,4.348C141.626,324.004,136.144,323.413,130.177,324.368"/>
<path fill="#EBB197" d="M139.083,271.978c2.438,2.374,5.856,8.001,6.055,11.371c-2.328,0.853-5.068,0.392-7.523,0.515
	c0.166,4.412-8.982,8.813-11.061,12.514c-2.479,4.412-3.016,12.414-2.791,17.523c-3.584-1.326-6.633-2.445-10.953-2.678
	c-0.832-5.322,3.424-11.182,4.16-16.331c0.928-6.479-1.066-12.669-1.936-18.718c-0.855-5.949-0.271-12.982,4.596-16.512
	c3.785-2.746,14.412-3.563,17.84,0.567c2.075,2.5,4.282,8.563,1.995,11.362"/>
<path fill="#EE8F2A" d="M167.806,337.377c-2.467-3.221-11.213-1.807-11.127,3.016c0.109,6.271,11.559-0.803,10.92-3.338"/>
<path fill="#E8754D" d="M139.964,266.073c-9.75-0.584-16.385,11.133-21.432,17.543c-4.793,6.09-14.264,15.18-23.07,13.094
	c3.914-2.938,8.225-6.283,11.801-9.799c4.645-4.563,5.283-8.418,7.332-13.832c3.002-7.934,20.791-19.352,25.602-7.492"/>
<path fill="#EBB197" d="M123.331,279.431c1.543-5.058-6.746-5.13-7.6-0.655c-0.945,4.955,4.484,7.025,7.646,9.112
	c0.703-2.038,0.104-6.673-0.131-8.829"/>
<g>
	<path fill="#72AEA5" d="M132.001,447.016c3.143-4.729,7.361-6.227,11.118-7.74c2.733-1.104,5.071-1.354,4.651-4.502
		c-0.293-2.201-1.058-4.979-1.797-6.992c3.985-2.646,7.198-6.283,12.403-7.195c1.117,4.744,3.881,8.928,5.035,13.746
		c-4.752,2.619-10.686,4.092-15.947,5.873c-5.313,1.799-9.729,5.094-15.024,6.682"/>
	<g>
		<path fill="#EBB197" d="M147.007,395.911c6.957-2.275,7.055-0.734,9.014,5.863c1.385,4.67,2.305,10.104,4.357,14.514
			c4.063,8.727,15.639,7.119,22.041,14.348c-6.229,7.414-28.203-0.416-35.414-3.559c-11.572-5.045-2.738-5.564-0.854-11.395
			c1.646-5.09-2.912-13.379-2.237-18.857"/>
		<path fill="#B3815C" d="M145.664,416.909c-2.054,1.5,0.563,4.934,1.948,5.838c1.828,1.188,4.291,1.867,6.365,2.568
			c2.233,0.758,4.674,1.25,6.711,2.311c2.149,1.121,4.504,1.871,6.867,1.912c1.661,0.029,2.717-0.52,3.348-2.1
			c0.438-1.105,0.193-3.531-0.897-3.83c4.277-1.791,9.447,2.658,12.094,5.463c2.041,2.166,1.617,3.689-0.938,4.881
			c-2.42,1.129-5.019,1.756-7.584,1.49c-4.478-0.465-8.865-1.109-13.188-2.014c-4.301-0.898-9.299-1.734-13.406-3.227
			c-2.707-0.982-6.365-3.439-7.787-5.992c-1.766-3.184,2.795-7.16,5.771-6.91c0.041,0.201,0.131,0.158,0.248,0.215"/>
	</g>
	<path fill="#79BB93" d="M86.149,342.895c-4.332,4.432-1.521,13.268,1.969,17.295c3.787,4.371,9.898,5.193,15.648,5.549
		c5.818,0.357,11.633-0.254,17.055,1.771c6.148,2.293,8.922,6.445,12.871,11.504c5.468,7.004,7.313,23.922,9.188,24.523
		c1.724,0.555,15.504-7.23,20.58-10.896c-0.084-2.633-1.979-5.52-3.133-7.879c-1.41-2.893-1.951-5.221-3.021-8.131
		c-2.182-5.938-6.229-11.354-9.691-16.799c-6.498-10.199-15.656-17.467-26.777-20.129
		C109.468,336.983,97.126,335.956,86.149,342.895"/>
</g>
<path fill="#72AEA5" d="M81.954,373.124c6.104,0,12.9-0.215,19.035,0c7.438,0.26,14.602,0.527,22.047,0.52
	c12.512-0.01,25.066,1.316,37.395,1.313c7.713-0.008,15.537-0.229,23.221,0.037c0.561,1.08,0.561,2.23,0,3.313
	c-25.713,0.871-51.617-0.566-76.641-1.268c-5.441-0.15-10.574-0.527-16.027-0.521C84.663,376.522,82.001,378.157,81.954,373.124"/>
<path fill="#72AEA5" d="M130.085,447.18c2.887-4.234,5.943-9.059,9.006-13.207c3.709-5.029,7.297-9.865,10.813-15.033
	c5.912-8.689,12.826-16.734,18.654-25.293c3.645-5.355,7.188-10.893,11.016-16.092c1.059,0.152,1.906,0.732,2.438,1.662
	c-11.527,18.275-24.843,35.527-37.193,52.541c-2.687,3.699-5.391,7.07-7.967,10.857C133.864,447.004,133.806,449.668,130.085,447.18
	"/>
<path fill="#72AEA5" d="M178.619,335.581c0.575,3.26,1.428,6.852,1.795,10.164c0.442,4.016,0.854,7.889,1.563,11.861
	c1.188,6.68,1.067,13.611,2.239,20.193c0.732,4.115,1.683,8.256,2.148,12.404c-1.01,0.486-2.146,0.686-3.262,0.574
	c-3.277-13.578-4.301-27.658-5.977-41.145c-0.363-2.932-0.479-5.732-0.996-8.645C175.533,337.618,173.675,336.479,178.619,335.581"
	/>
<path fill="#72AEA5" d="M169.912,321.028c3.834,0,7.067,0.059,10.094,2.209c2.254,1.602,5.586,5.756,4.443,8.889
	c-1.33,3.646-17.488,11.166-20.003,6.646c1.984-2.381,7.218-1.422,10.035-2.871c3.258-1.676,6.502-3.957,5.049-8.402
	c-1.719-3.244-11.176-2.572-9.905-6.184"/>
<g>
	<path fill="#72AEA5" d="M157.248,452.352c1.653,0,3.332,0.025,4.967-0.055c-0.07-5.521,3.645-11.344,4.795-16.801
		c1.154-5.469,3.176-9.5,6.816-13.906c7.756-9.389,18.916-14.193,30.684-17.016c9.158-2.195,21.236-1.371,30.213,0.396
		c1.037-2.082,1.209-4.354,1.014-6.725c-5.311-1.492-12.308-0.412-17.877-0.412c-5.922,0-12.375-0.688-17.934,0.988
		c-10.674,3.223-19.471,7.184-26.969,15.777c-9.433,10.813-15.709,23.684-15.709,38.463"/>
	<path fill="#E1B58E" d="M211.505,407.157c-1.137-0.729,6.629,36.604,8.236,44.719c1.565,7.91,3.137,15.82,4.7,23.73
		c1.382,6.953,3.367,17.883,4.841,24.17c0.166,0.109,0.313,0.084,0.434-0.074c-0.715-3.611-1.211-7.113-1.85-10.643
		c-0.697-3.854-1.459-7.701-2.229-11.65c-1.533-7.873-3.162-15.305-4.734-23.244c-1.603-8.09-3.271-16.135-4.805-24.238
		c-1.086-5.727-3.138-17.754-4.459-22.293"/>
	<path fill="#E1B58E" d="M231.642,407.713c-0.723-1.141-9.475,35.973-11.447,44.006c-1.924,7.832-3.848,15.662-5.771,23.494
		c-1.688,6.885-4.512,17.629-5.84,23.947c0.107,0.17,0.252,0.211,0.426,0.117c0.886-3.574,1.912-6.959,2.824-10.432
		c0.998-3.781,1.938-7.596,2.908-11.5c1.939-7.777,3.605-15.199,5.539-23.063c1.969-8.008,3.857-16.004,5.895-23.996
		c1.439-5.648,4.664-17.416,5.39-22.086"/>
	<path fill="#E1B58E" d="M255.899,422.313c0.052-1.352-28.215,24.242-34.397,29.736c-6.027,5.355-12.058,10.711-18.086,16.068
		c-5.301,4.707-13.72,11.955-18.396,16.4c-0.011,0.199,0.086,0.316,0.283,0.34c2.754-2.441,5.521-4.646,8.241-6.98
		c2.97-2.553,5.9-5.156,8.92-7.818c6.015-5.309,11.599-10.475,17.65-15.85c6.165-5.477,12.26-10.988,18.471-16.412
		c4.392-3.834,13.726-11.691,16.972-15.129"/>
	<path fill="#E1B58E" d="M264.938,437.672c0.549-1.23-35.192,12.053-42.976,14.863c-7.584,2.738-15.168,5.477-22.754,8.215
		c-6.668,2.406-17.174,6.016-23.17,8.412c-0.084,0.184-0.035,0.328,0.139,0.418c3.466-1.246,6.853-2.264,10.244-3.426
		c3.705-1.271,7.396-2.604,11.185-3.953c7.554-2.699,14.656-5.428,22.271-8.174c7.758-2.805,15.459-5.658,23.24-8.396
		c5.498-1.932,17.082-5.768,21.37-7.756"/>
	<path fill="#E1B58E" d="M267.617,455.727c0.977-0.934-37.134-2.199-45.398-2.553c-8.057-0.344-16.111-0.688-24.17-1.031
		c-7.082-0.303-18.174-0.947-24.629-1.006c-0.146,0.139-0.156,0.289-0.027,0.439c3.678,0.16,7.195,0.504,10.775,0.715
		c3.908,0.232,7.826,0.4,11.848,0.586c8.014,0.367,15.617,0.539,23.703,0.885c8.24,0.354,16.451,0.631,24.689,1.053
		c5.821,0.297,17.993,1.145,22.717,0.932"/>
	<path fill="#E1B58E" d="M263.839,472.122c1.242-0.531-34.002-15.084-41.619-18.314c-7.424-3.145-14.848-6.293-22.271-9.438
		c-6.527-2.771-16.686-7.262-22.713-9.582c-0.186,0.078-0.248,0.217-0.182,0.402c3.389,1.438,6.563,2.99,9.842,4.445
		c3.58,1.588,7.189,3.121,10.889,4.703c7.375,3.156,14.438,5.984,21.889,9.146c7.595,3.223,15.188,6.357,22.75,9.645
		c5.351,2.32,16.451,7.381,20.947,8.838"/>
	<path fill="#E1B58E" d="M248.017,491.825c1.338,0.186-21.348-30.463-26.207-37.158c-4.736-6.525-9.473-13.053-14.211-19.578
		c-4.162-5.738-10.547-14.83-14.514-19.924c-0.199-0.029-0.324,0.057-0.361,0.25c2.158,2.98,4.076,5.953,6.135,8.889
		c2.248,3.207,4.549,6.387,6.902,9.646c4.689,6.508,9.281,12.574,14.033,19.125c4.844,6.676,9.729,13.281,14.516,19.998
		c3.385,4.746,10.285,14.809,13.385,18.377"/>
	<path fill="#E8754D" d="M274.517,443.516c-5.045-16.834-16.383-35.957-34.594-40.512l-0.988,0.494
		c-9.906-4.287-27.49-3.281-37.98-0.967c-8.563,1.891-17.973,8.221-24.168,14.143c-8.979,8.592-14.832,27.82-13.961,44.15
		c0.752,14.051,8.068,29.883,20.264,36.684c13.654,7.617,30.947,8.785,46.949,8.785c8.689,0,14.799-0.203,22.354-3.35
		c6.948-2.896,14.229-7.426,18.313-13.455C279.091,477.071,278.708,457.497,274.517,443.516z M258.636,480.903
		c-3.105,4.596-8.654,8.045-13.949,10.252c-5.756,2.395-10.412,2.553-17.031,2.553c-12.195,0-25.369-0.893-35.775-6.693
		c-9.291-5.184-14.864-17.248-15.438-27.947c-0.664-12.443,0.604-26.957,10.182-35.021c4.994-4.207,12.349-7.957,18.873-9.396
		c7.992-1.766,21.392-2.531,28.938,0.734l0.754-0.375c13.875,3.471,22.519,18.041,26.356,30.869
		C264.74,456.526,265.033,471.44,258.636,480.903z"/>
</g>
<g>
	<path fill="#72AEA5" d="M42.303,392.397c-0.001,1.531-0.028,3.09,0.057,4.605c5.793-0.068,11.9,3.379,17.625,4.447
		c5.737,1.066,9.967,2.939,14.59,6.316c9.848,7.193,14.889,17.549,17.85,28.465c2.303,8.488,0.232,8.842-1.629,17.166
		c2.186,0.963,4.572,1.117,7.057,0.938c1.564-4.922,1.637-0.561,1.637-5.727c0-5.492,0.725-11.48-1.035-16.635
		c-3.383-9.896-7.537-18.059-16.553-25.014c-11.342-8.748-24.845-14.57-40.35-14.57"/>
	<path fill="#E1B58E" d="M89.716,442.721c0.764-1.055-38.401,6.146-46.914,7.641c-8.298,1.453-16.596,2.906-24.894,4.361
		c-7.295,1.277-18.76,3.123-25.357,4.484c-0.114,0.156-0.088,0.297,0.078,0.402c3.79-0.66,7.463-1.121,11.165-1.719
		c4.042-0.645,8.079-1.354,12.222-2.063c8.26-1.422,16.055-2.938,24.385-4.391c8.487-1.486,16.928-3.033,25.428-4.457
		c6.008-1.012,18.625-2.91,23.387-4.141"/>
	<path fill="#E1B58E" d="M89.132,461.397c1.197-0.672-37.739-8.787-46.167-10.617c-8.215-1.785-16.43-3.568-24.645-5.354
		c-7.223-1.568-18.494-4.184-25.123-5.416c-0.179,0.1-0.222,0.232-0.123,0.395c3.75,0.816,7.3,1.771,10.938,2.621
		c3.973,0.924,7.969,1.793,12.064,2.695c8.164,1.801,15.951,3.346,24.197,5.139c8.4,1.824,16.789,3.578,25.174,5.467
		c5.926,1.334,18.27,4.326,23.17,4.996"/>
	<path fill="#E1B58E" d="M73.817,483.897c1.416,0.049-25.433-26.172-31.198-31.904c-5.617-5.594-11.236-11.186-16.855-16.775
		c-4.939-4.916-12.542-12.725-17.21-17.063c-0.21-0.012-0.332,0.08-0.353,0.262c2.563,2.555,4.871,5.121,7.322,7.646
		c2.678,2.754,5.41,5.475,8.203,8.271c5.568,5.578,10.988,10.758,16.627,16.369c5.744,5.721,11.527,11.371,17.217,17.135
		c4.023,4.07,12.266,12.729,15.872,15.738"/>
	<path fill="#E1B58E" d="M57.702,492.28c1.294,0.51-12.644-32.643-15.591-39.859c-2.872-7.033-5.745-14.068-8.618-21.104
		c-2.525-6.186-6.313-15.93-8.826-21.49c-0.191-0.076-0.342-0.031-0.438,0.129c1.307,3.213,2.375,6.354,3.594,9.502
		c1.331,3.436,2.727,6.859,4.147,10.373c2.831,7.006,5.692,13.594,8.574,20.654c2.937,7.195,5.937,14.34,8.804,21.557
		c2.029,5.1,6.053,15.844,8.138,19.82"/>
	<path fill="#E1B58E" d="M38.762,494.764c0.979,0.908,2.309-34.441,2.678-42.107c0.361-7.473,0.722-14.943,1.082-22.416
		c0.318-6.57,0.995-16.857,1.056-22.846c-0.145-0.135-0.304-0.146-0.461-0.027c-0.168,3.412-0.528,6.676-0.751,9.998
		c-0.243,3.625-0.42,7.258-0.613,10.986c-0.387,7.434-0.566,14.486-0.93,21.986c-0.371,7.645-0.661,15.26-1.104,22.898
		c-0.313,5.395-1.199,16.688-0.977,21.064"/>
	<path fill="#E1B58E" d="M21.563,491.262c0.558,1.15,15.825-31.539,19.213-38.604c3.303-6.885,6.604-13.771,9.905-20.658
		c2.904-6.053,7.619-15.477,10.052-21.064c-0.082-0.174-0.227-0.23-0.421-0.17c-1.511,3.145-3.144,6.09-4.669,9.129
		c-1.666,3.32-3.273,6.67-4.934,10.1c-3.311,6.842-6.277,13.393-9.594,20.303c-3.378,7.043-6.671,14.086-10.116,21.105
		c-2.435,4.959-7.743,15.256-9.272,19.428"/>
	<path fill="#E1B58E" d="M0.893,476.586c-0.195,1.24,31.958-19.801,38.982-24.309c6.845-4.396,13.691-8.785,20.538-13.186
		c6.021-3.855,15.556-9.777,20.902-13.461c0.031-0.186-0.061-0.301-0.262-0.336c-3.129,2.002-6.246,3.781-9.326,5.689
		c-3.365,2.086-6.695,4.221-10.12,6.402c-6.827,4.35-13.19,8.607-20.063,13.018c-7.004,4.492-13.934,9.023-20.979,13.463
		c-4.978,3.139-15.535,9.539-19.278,12.414"/>
	<path fill="#E8754D" d="M51.571,501.167c17.663-4.68,37.723-15.197,42.502-32.088l-0.52-0.916
		c4.498-9.189,3.441-25.498,1.014-35.23c-1.984-7.938-8.623-16.67-14.838-22.414c-9.012-8.332-29.185-13.758-46.316-12.943
		c-14.739,0.691-31.349,7.479-38.483,18.793c-7.988,12.666-9.215,28.703-9.215,43.547c0,8.059,0.213,13.727,3.514,20.729
		c3.039,6.447,7.787,13.201,14.114,16.98C16.372,505.409,36.905,505.051,51.571,501.167z M12.351,486.436
		c-4.821-2.881-8.438-8.027-10.755-12.939c-2.514-5.336-2.677-9.656-2.677-15.795c0-11.313,0.935-23.531,7.021-33.184
		c5.438-8.617,18.094-13.789,29.324-14.318c13.053-0.617,28.278,0.561,36.739,9.439c4.412,4.633,8.346,11.455,9.857,17.504
		c1.852,7.416,2.656,19.844-0.771,26.844l0.395,0.697c-3.641,12.871-18.926,20.885-32.384,24.449
		C37.924,492.096,22.278,492.368,12.351,486.436z"/>
</g>
<path fill="#72AEA5" d="M185.798,387.772c2.299,3.9,5.043,8.135,7.17,12.164c2.576,4.885,5.045,9.598,7.855,14.354
	c4.723,7.99,8.311,16.686,12.963,24.557c2.907,4.93,6.043,9.816,8.713,14.857c-0.722,0.906-1.713,1.492-2.854,1.682
	c-10.437-15.984-18.951-33.27-27.776-49.611c-1.92-3.559-3.771-6.896-5.828-10.373C183.653,391.36,181.421,390.426,185.798,387.772"
	/>
<path fill="#72AEA5" d="M133.062,448.04c-5.467,0.398-11.539,1.033-17.049,1.24c-6.676,0.254-13.109,0.48-19.777,0.973
	c-11.205,0.824-22.535,0.465-33.576,1.277c-6.906,0.508-13.901,1.209-20.798,1.479c-0.57-0.922-0.646-1.943-0.215-2.939
	c22.973-2.447,46.266-2.855,68.721-3.867c4.883-0.219,9.504-0.225,14.387-0.58C130.417,445.202,132.694,443.579,133.062,448.04"/>
<path fill="#72AEA5" d="M39.467,451c2.646-4.391,5.43-9.377,8.254-13.691c3.423-5.229,6.733-10.258,9.957-15.613
	c5.416-9.006,11.872-17.426,17.209-26.297c3.338-5.551,6.566-11.277,10.098-16.684c1.064,0.094,1.945,0.623,2.525,1.523
	c-10.484,18.893-22.816,36.855-34.196,54.539c-2.475,3.844-4.986,7.355-7.347,11.287C43.231,450.612,43.323,453.276,39.467,451"/>
<path fill="#EE8F2A" d="M101.825,374.788c-5.35-1.08-9.865-3.27-15.07-4.578c-2.018-0.508-5.637-1.854-7.682-1.566
	c-2.93,0.412-3.299,3.15-3.916,5.689c-1.643,6.754,2.443,8.217,8.203,9.652c4.607,1.145,10.67,3.049,15.199,2.063
	c2.627-0.563,5.207-1.508,6.15-4.219C105.876,378.471,103.476,377,101.825,374.788"/>
<path fill="#EE8F2A" d="M143.658,445.772c-0.375-6.4-6.731-10.387-12.665-10.451c-13.738-0.152-27.295,2.738-41.004,3.416
	c-6.807,0.336-13.682,0.768-20.299,2.055c-7.08,1.379-14.299,2.568-21.713,2.568c-4.874-0.15-12.707-0.225-11.501,6.881
	c0.487,2.869,1.816,4.49,4.221,5.828c2.354,1.311,4.907,0.959,7.683,0.959c13.65,0,26.989,0.332,40.399,1.008
	c6.9,0.346,13.904,0.381,20.908,0.398c6.641,0.02,14.006-0.322,20.504-1.611C135.929,455.686,144.097,453.264,143.658,445.772z
	 M129.589,455.979c-6.4,1.141-13.656,1.443-20.197,1.428c-6.9-0.018-13.797-0.049-20.596-0.355
	c-13.209-0.596-26.346-0.891-39.792-0.891c-2.733,0-5.249,0.313-7.568-0.85c-2.368-1.184-3.677-2.617-4.157-5.156
	c-1.188-6.287,6.527-6.221,11.329-6.088c7.302,0,14.415-1.053,21.388-2.271c6.518-1.141,13.289-1.52,19.994-1.818
	c13.504-0.6,26.857-3.152,40.391-3.02c5.844,0.057,12.104,3.582,12.475,9.246C143.287,452.829,135.241,454.973,129.589,455.979z"/>
<g>
	<path fill="#EE8F2A" d="M143.229,444.963c-0.61-6.273-5.586-8.918-11.209-9.713l0,0c-6.082-0.742-13.01,4.762-11.588,11.207
		c1.066,4.842,7.568,9.324,12.336,9.713C138.944,456.672,143.832,451.168,143.229,444.963z M132.663,455.061
		c-4.27-0.348-10.092-4.361-11.049-8.697c-1.273-5.773,4.598-11.037,10.045-10.373l0,0c5.035,0.711,9.826,3.416,10.374,9.033
		C142.571,450.581,138.194,455.512,132.663,455.061z"/>
	<path fill="#EE8F2A" d="M134.614,435.659c-0.734-0.385-2.387,7.574-2.807,9.287c-0.41,1.668-0.82,3.336-1.23,5.006
		c-0.359,1.467-1.064,3.729-1.217,5.107c0.107,0.059,0.229,0.09,0.352,0.09c0.191-0.762,0.525-1.453,0.754-2.186
		c0.252-0.797,0.453-1.607,0.668-2.438c0.43-1.654,0.693-3.264,1.105-4.938c0.422-1.707,0.779-3.422,1.256-5.113
		c0.336-1.191,1.217-3.652,1.125-4.713"/>
	<path fill="#EE8F2A" d="M125.673,436.559c-0.773,0.311,4.723,7.174,5.863,8.701c1.113,1.488,2.225,2.977,3.338,4.467
		c0.977,1.309,2.395,3.445,3.428,4.529c0.115-0.047,0.215-0.119,0.293-0.217c-0.506-0.682-0.865-1.428-1.32-2.119
		c-0.496-0.756-1.037-1.48-1.584-2.229c-1.088-1.494-2.238-2.824-3.354-4.318c-1.137-1.523-2.318-3.006-3.408-4.564
		c-0.771-1.102-2.238-3.514-3.16-4.18"/>
	<path fill="#EE8F2A" d="M121.231,446.618c-0.109,0.828,8.564-0.609,10.455-0.857c1.842-0.242,3.686-0.479,5.527-0.725
		c1.619-0.213,4.178-0.402,5.626-0.775c0.019-0.121,0.002-0.246-0.043-0.355c-0.842,0.104-1.67,0.055-2.496,0.109
		c-0.899,0.064-1.797,0.186-2.718,0.291c-1.836,0.223-3.557,0.57-5.406,0.814c-1.885,0.246-3.754,0.553-5.646,0.742
		c-1.338,0.135-4.16,0.23-5.191,0.713"/>
</g>
<path fill="#72AEA5" d="M45.256,458.405c-10.924,0.447-15.865-14.846-2.665-15.617c11.104-0.65,13.536,11.295,3.204,15.078"/>
<g>
	<path fill="#72AEA5" d="M132.546,445.397c-2.943,4.26-2.514,8.02-2.297,11.439c0.158,2.49,0.92,4.34-2.098,5.299
		c-2.111,0.668-4.936,1.221-7.064,1.48c-0.707,4.051-2.633,7.924-1.26,12.184c4.748-1.082,9.688-0.705,14.52-1.791
		c0.359-4.609-0.814-9.641-1.426-14.297c-0.615-4.699,0.492-9.334-0.307-13.934"/>
	<g>
		<path fill="#EBB197" d="M113.997,426.803c7.316-0.18,6.969,1.324,6.945,8.207c-0.016,4.871-0.697,10.342,0,15.154
			c1.383,9.525,12.932,11.313,16.983,20.08c-8.099,5.311-26.892-8.51-32.894-13.594c-9.635-8.16-1.021-6.115,2.459-11.156
			c3.041-4.402,1.059-13.652,3.281-18.705"/>
		<path fill="#B3815C" d="M106.671,446.526c-2.396,0.848-0.879,4.889,0.189,6.15c1.406,1.666,3.572,3.023,5.355,4.293
			c1.924,1.367,4.117,2.539,5.764,4.143c1.738,1.691,3.775,3.088,6.025,3.807c1.586,0.506,2.752,0.285,3.811-1.047
			c0.74-0.934,1.203-3.326,0.242-3.928c4.611-0.486,8.283,5.266,10.008,8.709c1.334,2.662,0.49,4.002-2.297,4.406
			c-2.643,0.385-5.313,0.238-7.693-0.754c-4.152-1.73-8.172-3.611-12.053-5.723c-3.859-2.098-8.404-4.334-11.912-6.945
			c-2.311-1.719-5.111-5.121-5.734-7.979c-0.775-3.563,4.732-6.061,7.518-4.957c-0.02,0.205,0.076,0.188,0.176,0.271"/>
	</g>
	<path fill="#79BB93" d="M87.187,348.102c-6.035,1.41-8.41,10.373-7.631,15.646c0.846,5.721,5.557,9.697,10.217,13.086
		c4.713,3.43,9.945,6.037,13.432,10.658c3.953,5.238,4.061,10.229,4.674,16.617c0.846,8.846-2.047,24.842-0.789,26.354
		c1.154,1.396,12.322,1.5,18.572,1.135c1.344-2.266,1.295-5.719,1.592-8.324c0.363-3.195,1.158-5.451,1.822-8.48
		c1.352-6.18,0.85-12.924,0.85-19.377c0-12.094-3.818-23.141-11.766-31.363C110.03,355.647,100.175,348.147,87.187,348.102"/>
</g>
<g>
	<path fill="#EE8F2A" d="M175.233,338.069c0.246,1.605,0.582,3.383,0.771,5.012c0.229,1.971,0.438,3.871,0.742,5.832
		c0.51,3.293,0.643,6.672,1.145,9.918c0.313,2.027,0.689,4.076,0.928,6.113c-0.281,0.209-0.609,0.273-0.938,0.188
		c-1.285-6.717-1.924-13.617-2.737-20.244c-0.179-1.438-0.279-2.813-0.5-4.248C174.38,338.977,173.812,338.372,175.233,338.069"/>
	<path fill="#EE8F2A" d="M186.833,350.092c0.135,0.869,0.344,1.826,0.418,2.713c0.088,1.074,0.17,2.109,0.334,3.172
		c0.274,1.781,0.176,3.646,0.449,5.404c0.17,1.1,0.399,2.201,0.498,3.311c-0.298,0.143-0.621,0.209-0.939,0.191
		c-0.809-3.615-0.967-7.391-1.318-10.996c-0.076-0.783-0.082-1.537-0.203-2.313C185.931,350.672,185.412,350.387,186.833,350.092"/>
	<path fill="#EE8F2A" d="M192.606,350.092c0.136,0.869,0.345,1.826,0.416,2.713c0.09,1.074,0.172,2.109,0.336,3.172
		c0.274,1.781,0.177,3.646,0.447,5.404c0.172,1.1,0.403,2.201,0.498,3.311c-0.294,0.143-0.619,0.209-0.938,0.191
		c-0.811-3.615-0.969-7.391-1.32-10.996c-0.071-0.783-0.082-1.537-0.203-2.313C191.705,350.672,191.183,350.387,192.606,350.092"/>
	<path fill="#EE8F2A" d="M197.923,350.54c0.131,0.842,0.336,1.77,0.404,2.629c0.084,1.041,0.157,2.047,0.317,3.074
		c0.271,1.729,0.158,3.539,0.424,5.242c0.164,1.063,0.396,2.133,0.479,3.209c-0.293,0.139-0.617,0.205-0.938,0.189
		c-0.793-3.502-0.935-7.164-1.269-10.66c-0.071-0.76-0.075-1.49-0.19-2.242C197.019,351.108,196.5,350.834,197.923,350.54"/>
	<path fill="#EE8F2A" d="M180.25,337.963c0.244,1.596,0.578,3.359,0.766,4.975c0.227,1.959,0.438,3.846,0.734,5.791
		c0.506,3.268,0.633,6.623,1.131,9.846c0.313,2.014,0.688,4.045,0.92,6.068c-0.281,0.207-0.607,0.273-0.938,0.189
		c-1.277-6.668-1.906-13.52-2.717-20.098c-0.178-1.436-0.273-2.793-0.494-4.221C179.396,338.868,178.826,338.266,180.25,337.963"/>
	<path fill="#EE8F2A" d="M178.296,363.674c1.42-0.027,2.998-0.131,4.428-0.088c1.73,0.053,3.396,0.109,5.129,0.072
		c2.91-0.064,5.836,0.314,8.703,0.26c1.793-0.037,3.611-0.145,5.4-0.094c0.135,0.354,0.141,0.73,0.016,1.094
		c-5.975,0.406-12.008,0.049-17.83-0.066c-1.266-0.023-2.461-0.125-3.729-0.098C178.942,364.784,178.332,365.336,178.296,363.674"/>
	<path fill="#EE8F2A" d="M175.935,350.108c1.82-0.037,3.848-0.148,5.678-0.113c2.221,0.043,4.359,0.088,6.58,0.043
		c3.732-0.076,7.484,0.287,11.162,0.211c2.301-0.047,4.633-0.166,6.926-0.125c0.174,0.354,0.18,0.736,0.018,1.096
		c-7.666,0.439-15.399,0.115-22.866,0.033c-1.625-0.02-3.158-0.111-4.783-0.078C176.759,351.213,175.974,351.768,175.935,350.108"/>
	<path fill="#EE8F2A" d="M176.458,354.026c1.719-0.033,3.627-0.143,5.354-0.105c2.092,0.045,4.109,0.094,6.201,0.051
		c3.52-0.068,7.057,0.295,10.523,0.229c2.168-0.045,4.364-0.16,6.526-0.117c0.162,0.354,0.168,0.736,0.019,1.096
		c-7.229,0.432-14.521,0.1-21.56,0.006c-1.528-0.02-2.979-0.113-4.51-0.082C177.237,355.133,176.498,355.688,176.458,354.026"/>
	<path fill="#EE8F2A" d="M175.671,345.584c0.328-0.006,0.688-0.086,1.021-0.021c0.397,0.078,0.785,0.16,1.185,0.148
		c0.67-0.016,1.352,0.408,2.008,0.393c0.414-0.01,0.832-0.09,1.244-0.014c0.037,0.357,0.043,0.738,0.02,1.098
		c-1.373,0.313-2.77-0.137-4.109-0.34c-0.293-0.043-0.57-0.16-0.861-0.152C175.833,346.704,175.701,347.247,175.671,345.584"/>
	<path fill="#EE8F2A" d="M177.246,359.153c1.524-0.031,3.223-0.137,4.756-0.096c1.858,0.051,3.649,0.104,5.512,0.064
		c3.125-0.066,6.266,0.311,9.346,0.246c1.928-0.039,3.879-0.15,5.801-0.105c0.145,0.355,0.15,0.734,0.018,1.098
		c-6.418,0.416-12.896,0.063-19.147-0.039c-1.358-0.023-2.646-0.123-4.006-0.098C177.938,360.26,177.283,360.813,177.246,359.153"/>
	<path fill="#EE8F2A" d="M206.58,350.413c-0.252,0.865-0.476,1.852-0.787,2.697c-0.379,1.025-0.748,2.014-1.056,3.066
		c-0.516,1.775-1.396,3.414-1.903,5.162c-0.314,1.094-0.58,2.225-0.969,3.285c-0.318-0.035-0.634-0.156-0.904-0.348
		c0.826-3.734,2.291-7.252,3.518-10.73c0.268-0.754,0.58-1.438,0.807-2.215C205.541,350.44,205.207,349.891,206.58,350.413"/>
</g>
<path fill="#FFFFFF" d="M112.372,303.649c2.566,1.154,5.066,3.699,7.641,5.098c2.463,1.336,5.547,1.691,7.674,3.627
	c4.441,4.037,4.477,12.207,2.809,17.6c-1.734,5.609-4.092,10.816-6.715,16.031c-1.123,2.232-2.314,5.271-3.809,7.207
	c-1.693,2.191-5.887,1.438-8.555,1.568c-6.404,0.328-13.076,0.705-19.078-1.197c-2.926-0.926-5.523-2.297-8.395-3.535
	c-2.492-1.074-5.979-1.215-4.389-4.414c2.801-5.637,6.363-11.035,9.305-16.854c2.711-5.359,4.447-11.662,8.104-16.934
	c2.744-3.955,10.451-10.217,15.598-8.008"/>
<path fill="#EBB197" d="M126.521,331.299c-1.076-5.688-4.563-11.74-6.932-16.123c-1.717-3.178-7.771-11.633-12.584-8.57
	c-7.111,4.527,9.768,24.174,11.654,28.898c9.396,1.912,20.918,1.219,29.689,4.803c4.28,1.752,7.473,5.168,12.157,3.857
	c9.101-2.547-2.287-4.732-1.985-7.053c0.994-0.348,1.041-0.896,1.612-1.314c-6.018-1.225-10.459,0.355-16.454-0.5
	C137.54,334.43,132.495,332.2,126.521,331.299"/>
</svg>
