<?xml version="1.0" encoding="utf-8"?>
<!-- Generator: Adobe Illustrator 16.0.0, SVG Export Plug-In . SVG Version: 6.00 Build 0)  -->
<!DOCTYPE svg PUBLIC "-//W3C//DTD SVG 1.1//EN" "http://www.w3.org/Graphics/SVG/1.1/DTD/svg11.dtd">
<svg version="1.1" id="Layer_1" xmlns="http://www.w3.org/2000/svg" xmlns:xlink="http://www.w3.org/1999/xlink" x="0px" y="0px"
	 width="679px" height="535px" viewBox="0 0 679 535" enable-background="new 0 0 679 535" xml:space="preserve">
<path fill="#EBB197" d="M35.162,343.842c-4.08,3.229-30.342,13.408-19.87,41.939c6.503,17.723,10.438,35.374,17.019,52.873
	c7.106,18.9,16.752,36.21,24.789,55.16c8.789,20.721,13.538,35.089,38.96,25.494c45.112-17.029,88.826-36.822,134.897-54.085
	c24.598-9.216,47.077-19.205,70.793-28.995c25.159-10.384,46.601-26.651,72.862-31.084c52.485-8.859,103.364-5.615,152.331-24.202
	c26.006-9.871,41.119-26.669,55.877-48.481c11.545-17.063,32.33-36.35,23.313-57.7c-28.788-2.53-50.026,14.809-70.997,31.622
	c-13.197,10.58-55.715,39.932-72.969,21.283c20.209-25.467,56.041-39.116,82.942-56.495c21.227-13.715,44.272-27.061,66.194-42.299
	c14.146-9.833,60.334-26.595,54.354-47.945c-6.483-23.146-52.831-8.149-66.228-1.613c-23.325,11.383-42.396,35.895-70.581,33.626
	c-1.884-11.784,12.257-16.764,20.82-21.168c22.461-11.555,43.165-24.286,62.922-39.842c13.206-10.398,52.413-53.103,12.051-53.27
	c-49.459-0.203-82.214,60.632-133.586,61.37c11.914-13.173,35.198-22.069,50.875-32.34c16.515-10.82,34.28-21.583,47.479-37.459
	c19.427-23.368,4.73-44.34-24.377-31.903c-17.761,7.588-34.461,23.321-51.054,30.924c-15.229,8.998-41.164,35.812-57.981,26.866
	c1.334-14.423,27.707-22.202,37.869-28.708c14.729-9.431,28.049-21.338,42.964-30.695c11.829-7.421,40.438-20.787,24.472-36.735
	c-10.559-10.546-37.301-5.038-49.263-0.359c-24.043,9.403-45.299,24.326-68.257,36.69c-24.505,13.196-51.057,19.709-77.818,25.897
	c-47.424,10.967-77.316,46.108-105.984,84.113c-16.139,21.394-29.41,42.017-52.613,55.287
	c-21.326,12.196-43.011,22.071-62.963,36.342c-18.961,13.562-34.078,28.113-52.49,41.168
	C91.914,299.118,38.933,340.856,35.162,343.842z"/>
</svg>
