<?xml version="1.0" encoding="utf-8"?>
<!-- Generator: Adobe Illustrator 16.0.0, SVG Export Plug-In . SVG Version: 6.00 Build 0)  -->
<!DOCTYPE svg PUBLIC "-//W3C//DTD SVG 1.1//EN" "http://www.w3.org/Graphics/SVG/1.1/DTD/svg11.dtd">
<svg version="1.1" id="Layer_1" xmlns="http://www.w3.org/2000/svg" xmlns:xlink="http://www.w3.org/1999/xlink" x="0px" y="0px"
	 width="679px" height="535px" viewBox="0 0 679 535" enable-background="new 0 0 679 535" xml:space="preserve">
<path fill="#EBB197" d="M642.911,343.842c-21.463-9.796-37.02-30.733-56.752-44.724c-18.412-13.055-33.529-27.606-52.49-41.168
	c-19.952-14.271-41.637-24.146-62.963-36.342c-23.203-13.271-36.475-33.894-52.613-55.287
	c-28.668-38.005-58.561-73.146-105.984-84.113c-26.762-6.188-53.313-12.701-77.818-25.897
	c-22.958-12.364-44.214-27.287-68.257-36.69c-11.962-4.679-38.704-10.187-49.263,0.359c-15.967,15.948,12.643,29.314,24.472,36.735
	c14.915,9.357,28.235,21.265,42.964,30.695c10.162,6.506,36.535,14.285,37.869,28.708c-16.817,8.945-47.817-12.929-57.981-26.866
	c-16.593-7.603-33.293-23.336-51.054-30.924c-29.107-12.437-43.804,8.535-24.377,31.903c13.198,15.876,30.964,26.639,47.479,37.459
	c15.677,10.271,38.961,19.167,50.875,32.34c-51.372-0.738-84.127-61.573-133.586-61.37c-40.362,0.167-1.155,42.871,12.051,53.27
	c19.757,15.556,40.461,28.287,62.922,39.842c8.563,4.404,22.704,9.384,20.82,21.168c-28.186,2.269-47.256-22.243-70.581-33.626
	c-13.396-6.536-59.744-21.533-66.228,1.613c-5.98,21.351,40.208,38.112,54.354,47.945c21.922,15.238,44.968,28.584,66.194,42.299
	c26.901,17.379,62.733,31.028,82.942,56.495c-17.254,18.648-59.771-10.703-72.969-21.283
	c-20.971-16.813-42.209-34.152-70.997-31.622c-9.017,21.351,11.769,40.637,23.313,57.7c14.758,21.813,29.871,38.61,55.877,48.481
	c48.967,18.587,99.846,15.343,152.331,24.202c26.262,4.433,47.703,20.7,72.862,31.084c23.716,9.79,46.195,19.779,70.793,28.995
	c46.071,17.263,89.785,37.056,134.897,54.085c25.422,9.595,30.171-4.773,38.96-25.494c8.037-18.95,17.683-36.26,24.789-55.16
	c6.58-17.499,10.516-35.15,17.019-52.873C673.253,357.25,657.587,362.82,642.911,343.842"/>
</svg>
