<?xml version="1.0" encoding="utf-8"?>
<!-- Generator: Adobe Illustrator 16.0.0, SVG Export Plug-In . SVG Version: 6.00 Build 0)  -->
<!DOCTYPE svg PUBLIC "-//W3C//DTD SVG 1.1//EN" "http://www.w3.org/Graphics/SVG/1.1/DTD/svg11.dtd">
<svg version="1.1" id="Layer_1" xmlns="http://www.w3.org/2000/svg" xmlns:xlink="http://www.w3.org/1999/xlink" x="0px" y="0px"
	 width="118.667px" height="122.332px" viewBox="0 0 118.667 122.332" enable-background="new 0 0 118.667 122.332"
	 xml:space="preserve">
<g>
	<path stroke="#EEE0DF" stroke-width="3" stroke-miterlimit="10" d="M115.167,93.863c0,12.489-10.104,22.969-22.591,22.969H26.51
		c-12.488,0-22.344-10.479-22.344-22.969V27.8c0-12.489,9.856-22.969,22.344-22.969h66.065c12.487,0,22.591,10.479,22.591,22.969
		V93.863z"/>
	<circle stroke="#EEE0DF" stroke-width="3" stroke-miterlimit="10" cx="59.543" cy="64.832" r="33.229"/>
	<circle stroke="#EEE0DF" stroke-width="3" stroke-miterlimit="10" cx="59.543" cy="64.832" r="22.941"/>
	<circle stroke="#EEE0DF" stroke-width="3" stroke-miterlimit="10" cx="95.543" cy="24.832" r="6.58"/>
</g>
<g>
	<path fill="#EEE0DF" stroke="#000000" stroke-width="3" stroke-miterlimit="10" d="M260.167,99.863
		c0,12.489-9.856,22.969-22.343,22.969h-66.066c-12.487,0-22.591-10.479-22.591-22.969V33.8c0-12.489,10.104-22.969,22.591-22.969
		h66.066c12.487,0,22.343,10.479,22.343,22.969V99.863z"/>
	<g>
		<path fill="#EEE0DF" stroke="#000000" stroke-width="3" stroke-miterlimit="10" d="M196.873,70.442h-10.292V58.396h10.292v-4.444
			c0-6.47,1.734-11.461,5.204-14.969c3.468-3.508,8.751-5.263,15.846-5.263c2.416,0,4.717,0.196,6.9,0.586
			c2.183,0.393,3.937,0.819,5.263,1.285l-2.338,11.813c-2.339-0.779-5.146-1.171-8.42-1.171c-5.146,0-7.719,2.691-7.719,8.071v4.092
			h16.255v12.045h-16.255v52.39h-14.734V70.442z"/>
	</g>
</g>
</svg>
