<?xml version="1.0" encoding="utf-8"?>
<!-- Generator: Adobe Illustrator 16.0.0, SVG Export Plug-In . SVG Version: 6.00 Build 0)  -->
<!DOCTYPE svg PUBLIC "-//W3C//DTD SVG 1.1//EN" "http://www.w3.org/Graphics/SVG/1.1/DTD/svg11.dtd">
<svg version="1.1" id="Layer_1" xmlns="http://www.w3.org/2000/svg" xmlns:xlink="http://www.w3.org/1999/xlink" x="0px" y="0px"
	 width="426.67px" height="263.667px" viewBox="0 0 426.67 263.667" enable-background="new 0 0 426.67 263.667"
	 xml:space="preserve">
<path fill="#EE8F2A" d="M404.371,250.658c-3.151,1.361-6.955,0.325-10.092,0.17c-3.486-0.173-7.24,0.15-10.599-0.455
	c-3.369-0.606-6.433-2.515-9.983-2.199c-3.975,0.353-7.85,0.753-11.338,2.371c-2.26,1.046-7.393,5.71-10.19,3.349
	c-2.283-1.927-0.413-8.543-1.817-11.242c-3.453-6.63-14.004,0.049-18.446,1.501c-5.741,1.876-3.537-3.501-2.661-6.689
	c0.562-2.044,4.056-8.796,1.267-10.271c-1.234-0.653-5.089,0.467-6.499,0.604c-1.862,0.181-3.851,0.55-5.674,0.353
	c-1.4-0.151-4.219-0.756-5.395-1.646c-1.957-1.48-0.719-2.466,0.87-3.653c5.698-4.264,11.274-7.158,18.229-8.516
	c6.63-1.296,13.711-1.111,20.044-0.15c6.376,0.966,15.354,1.83,20.594,5.937c2.729,2.14,4.676,4.936,7.198,7.186
	c3.111,2.772,6.983,4.349,10.192,6.806c2.32,1.778,4.521,4.215,6.755,6.556c1.983,2.079,6.474,5.753,7.259,8.659
	C404.168,249.642,404.371,250.658,404.371,250.658z"/>
</svg>
