<?xml version="1.0" encoding="utf-8"?>
<!-- Generator: Adobe Illustrator 16.0.0, SVG Export Plug-In . SVG Version: 6.00 Build 0)  -->
<!DOCTYPE svg PUBLIC "-//W3C//DTD SVG 1.1//EN" "http://www.w3.org/Graphics/SVG/1.1/DTD/svg11.dtd">
<svg version="1.1" id="Layer_1" xmlns="http://www.w3.org/2000/svg" xmlns:xlink="http://www.w3.org/1999/xlink" x="0px" y="0px"
	 width="426.67px" height="263.667px" viewBox="0 0 426.67 263.667" enable-background="new 0 0 426.67 263.667"
	 xml:space="preserve">
<path fill="#EE8F2A" d="M404.34,250.345c-5.758,2.486-12.707,0.594-18.438,0.312c-6.37-0.316-13.23,0.274-19.366-0.832
	c-6.156-1.108-11.754-4.595-18.242-4.019c-7.262,0.646-14.342,1.375-20.717,4.332c-4.128,1.912-13.508,10.434-18.619,6.12
	c-4.173-3.521-0.756-15.61-3.322-20.541c-6.309-12.115-25.586,0.089-33.704,2.744c-10.49,3.429-6.462-6.397-4.861-12.224
	c1.025-3.735,7.41-16.072,2.313-18.767c-2.256-1.193-9.298,0.853-11.875,1.104c-3.403,0.332-7.036,1.005-10.367,0.646
	c-2.558-0.276-7.709-1.382-9.856-3.008c-3.577-2.704-1.314-4.505,1.589-6.675c10.413-7.791,20.602-13.078,33.308-15.56
	c12.115-2.368,25.053-2.029,36.624-0.274c11.65,1.766,28.056,3.344,37.63,10.848c4.985,3.909,8.543,9.019,13.153,13.13
	c5.685,5.066,12.759,7.946,18.622,12.437c4.24,3.249,8.261,7.702,12.343,11.979c3.625,3.798,11.828,10.512,13.263,15.822
	C403.97,248.488,404.34,250.345,404.34,250.345z"/>
<path fill="#EE8F2A" d="M-667.692,164.43c-1.323-4.218-9.083-8.376-12.503-10.857c-3.851-2.793-7.678-5.735-11.507-7.693
	c-5.295-2.707-11.322-3.966-16.558-7.153c-4.246-2.587-7.8-6.114-12.316-8.488c-8.671-4.556-21.917-3.439-31.417-3.158
	c-9.436,0.278-19.753,1.874-29.032,5.491c-9.729,3.793-17.062,9.441-24.215,17.103c-1.993,2.134-3.531,3.884-0.306,5.508
	c1.937,0.976,6.184,1.106,8.253,0.957c2.694-0.194,5.482-1.25,8.136-2.003c2.01-0.57,7.306-3.203,9.268-2.584
	c4.432,1.398,1.125,12.072,0.845,15.174c-0.437,4.838-2.231,13.188,5.605,8.967c6.065-3.269,19.623-15.696,26.36-7.023
	c2.742,3.528,1.756,13.58,5.571,15.764c4.673,2.675,10.901-5.415,13.905-7.521c4.638-3.257,10.155-4.854,15.825-6.408
	c5.069-1.392,10.009,0.56,15.053,0.55c5.028-0.01,10.39-1.465,15.49-2.132c4.591-0.602,10.376-0.106,14.591-2.903
	c-0.119-0.602-0.218-1.509-0.536-2.055"/>
<path fill="#EE8F2A" d="M-907.994,161.506c-0.901-2.873-6.186-5.705-8.517-7.396c-2.623-1.902-5.23-3.906-7.838-5.24
	c-3.607-1.844-7.712-2.701-11.278-4.871c-2.892-1.763-5.313-4.166-8.389-5.782c-5.906-3.104-14.928-2.343-21.399-2.151
	c-6.427,0.189-13.454,1.276-19.774,3.74c-6.627,2.584-11.621,6.432-16.494,11.649c-1.358,1.453-2.406,2.646-0.208,3.751
	c1.319,0.664,4.212,0.754,5.621,0.652c1.835-0.133,3.734-0.852,5.542-1.364c1.37-0.389,4.977-2.182,6.313-1.76
	c3.019,0.952,0.767,8.222,0.575,10.335c-0.298,3.296-1.52,8.983,3.818,6.107c4.131-2.226,13.366-10.691,17.955-4.784
	c1.868,2.404,1.196,9.251,3.794,10.737c3.183,1.822,7.425-3.688,9.471-5.123c3.159-2.218,6.917-3.305,10.779-4.365
	c3.453-0.947,6.818,0.383,10.253,0.375c3.425-0.006,7.077-0.998,10.551-1.452c3.127-0.409,7.067-0.072,9.938-1.978
	c-0.081-0.41-0.148-1.027-0.365-1.398"/>
</svg>
