<?xml version="1.0" encoding="utf-8"?>
<!-- Generator: Adobe Illustrator 16.0.0, SVG Export Plug-In . SVG Version: 6.00 Build 0)  -->
<!DOCTYPE svg PUBLIC "-//W3C//DTD SVG 1.1//EN" "http://www.w3.org/Graphics/SVG/1.1/DTD/svg11.dtd">
<svg version="1.1" id="Layer_1" xmlns="http://www.w3.org/2000/svg" xmlns:xlink="http://www.w3.org/1999/xlink" x="0px" y="0px"
	 width="426.67px" height="263.667px" viewBox="0 0 426.67 263.667" enable-background="new 0 0 426.67 263.667"
	 xml:space="preserve">
<path fill="#EE8F2A" d="M404.31,250.038c-8.308,3.587-18.332,0.858-26.603,0.45c-9.188-0.457-19.087,0.395-27.939-1.2
	c-8.883-1.599-16.956-6.628-26.318-5.798c-10.476,0.932-20.691,1.984-29.889,6.25c-5.956,2.758-19.489,15.053-26.863,8.83
	c-6.021-5.079-1.09-22.521-4.792-29.634c-9.101-17.479-36.914,0.129-48.627,3.958c-15.134,4.947-9.321-9.229-7.013-17.636
	c1.479-5.389,10.692-23.187,3.338-27.076c-3.257-1.722-13.415,1.229-17.134,1.593c-4.91,0.479-10.151,1.45-14.955,0.931
	c-3.689-0.399-11.124-1.994-14.221-4.339c-5.161-3.901-1.896-6.5,2.29-9.63c15.025-11.24,29.726-18.867,48.055-22.449
	c17.48-3.417,36.146-2.927,52.84-0.396c16.809,2.547,40.477,4.824,54.289,15.65c7.193,5.641,12.326,13.012,18.977,18.943
	c8.202,7.31,18.408,11.464,26.868,17.943c6.116,4.687,11.917,11.112,17.806,17.281c5.23,5.481,17.064,15.167,19.135,22.828
	C403.774,247.361,404.31,250.038,404.31,250.038z"/>
<path fill="#EE8F2A" d="M-399.573,166.383c-1.627-5.184-11.161-10.293-15.365-13.343c-4.731-3.433-9.437-7.048-14.142-9.454
	c-6.507-3.326-13.912-4.873-20.347-8.79c-5.218-3.179-9.585-7.515-15.135-10.431c-10.655-5.599-26.933-4.228-38.606-3.881
	c-11.596,0.342-24.273,2.303-35.676,6.748c-11.955,4.66-20.966,11.602-29.757,21.016c-2.449,2.622-4.339,4.773-0.376,6.768
	c2.38,1.199,7.6,1.361,10.142,1.178c3.311-0.24,6.736-1.537,9.997-2.462c2.471-0.702,8.979-3.936,11.39-3.175
	c5.446,1.717,1.382,14.834,1.038,18.646c-0.537,5.944-2.742,16.206,6.888,11.018c7.453-4.016,24.113-19.288,32.394-8.631
	c3.369,4.337,2.157,16.689,6.845,19.371c5.743,3.288,13.396-6.653,17.087-9.242c5.699-4.002,12.479-5.964,19.447-7.875
	c6.229-1.709,12.299,0.688,18.498,0.676c6.178-0.012,12.768-1.8,19.035-2.619c5.642-0.74,12.75-0.131,17.93-3.567
	c-0.145-0.74-0.268-1.854-0.658-2.526"/>
<path fill="#EE8F2A" d="M-667.692,164.43c-1.323-4.218-9.083-8.376-12.503-10.857c-3.851-2.793-7.678-5.735-11.507-7.693
	c-5.295-2.707-11.322-3.966-16.558-7.153c-4.246-2.587-7.8-6.114-12.316-8.488c-8.671-4.556-21.917-3.439-31.417-3.158
	c-9.436,0.278-19.753,1.874-29.032,5.491c-9.729,3.793-17.062,9.441-24.215,17.103c-1.993,2.134-3.531,3.884-0.306,5.508
	c1.937,0.976,6.184,1.106,8.253,0.957c2.694-0.194,5.482-1.25,8.136-2.003c2.01-0.57,7.306-3.203,9.268-2.584
	c4.432,1.398,1.125,12.072,0.845,15.174c-0.437,4.838-2.231,13.188,5.605,8.967c6.065-3.269,19.623-15.696,26.36-7.023
	c2.742,3.528,1.756,13.58,5.571,15.764c4.673,2.675,10.901-5.415,13.905-7.521c4.638-3.257,10.155-4.854,15.825-6.408
	c5.069-1.392,10.009,0.56,15.053,0.55c5.028-0.01,10.39-1.465,15.49-2.132c4.591-0.602,10.376-0.106,14.591-2.903
	c-0.119-0.602-0.218-1.509-0.536-2.055"/>
<path fill="#EE8F2A" d="M-907.994,161.506c-0.901-2.873-6.186-5.705-8.517-7.396c-2.623-1.902-5.23-3.906-7.838-5.24
	c-3.607-1.844-7.712-2.701-11.278-4.871c-2.892-1.763-5.313-4.166-8.389-5.782c-5.906-3.104-14.928-2.343-21.399-2.151
	c-6.427,0.189-13.454,1.276-19.774,3.74c-6.627,2.584-11.621,6.432-16.494,11.649c-1.358,1.453-2.406,2.646-0.208,3.751
	c1.319,0.664,4.212,0.754,5.621,0.652c1.835-0.133,3.734-0.852,5.542-1.364c1.37-0.389,4.977-2.182,6.313-1.76
	c3.019,0.952,0.767,8.222,0.575,10.335c-0.298,3.296-1.52,8.983,3.818,6.107c4.131-2.226,13.366-10.691,17.955-4.784
	c1.868,2.404,1.196,9.251,3.794,10.737c3.183,1.822,7.425-3.688,9.471-5.123c3.159-2.218,6.917-3.305,10.779-4.365
	c3.453-0.947,6.818,0.383,10.253,0.375c3.425-0.006,7.077-0.998,10.551-1.452c3.127-0.409,7.067-0.072,9.938-1.978
	c-0.081-0.41-0.148-1.027-0.365-1.398"/>
</svg>
