<?xml version="1.0" encoding="utf-8"?>
<!-- Generator: Adobe Illustrator 16.0.0, SVG Export Plug-In . SVG Version: 6.00 Build 0)  -->
<!DOCTYPE svg PUBLIC "-//W3C//DTD SVG 1.1//EN" "http://www.w3.org/Graphics/SVG/1.1/DTD/svg11.dtd">
<svg version="1.1" id="Layer_1" xmlns="http://www.w3.org/2000/svg" xmlns:xlink="http://www.w3.org/1999/xlink" x="0px" y="0px"
	 width="426.67px" height="263.667px" viewBox="0 0 426.67 263.667" enable-background="new 0 0 426.67 263.667"
	 xml:space="preserve">
<path fill="#EE8F2A" d="M404.355,250.504c-4.433,1.914-9.783,0.458-14.196,0.24c-4.904-0.243-10.186,0.211-14.91-0.64
	c-4.739-0.854-9.049-3.538-14.044-3.094c-5.591,0.497-11.042,1.059-15.95,3.335c-3.179,1.472-10.399,8.033-14.335,4.712
	c-3.213-2.711-0.582-12.018-2.558-15.814c-4.857-9.327-19.699,0.069-25.949,2.112c-8.076,2.64-4.976-4.925-3.743-9.411
	c0.79-2.876,5.705-12.374,1.781-14.449c-1.736-0.918-7.158,0.656-9.143,0.85c-2.62,0.255-5.417,0.773-7.981,0.497
	c-1.97-0.213-5.936-1.064-7.589-2.316c-2.754-2.082-1.012-3.469,1.224-5.139c8.017-5.998,15.861-10.069,25.644-11.979
	c9.327-1.823,19.288-1.563,28.197-0.211c8.97,1.359,21.6,2.574,28.971,8.352c3.839,3.01,6.578,6.943,10.127,10.109
	c4.377,3.9,9.823,6.118,14.338,9.575c3.265,2.501,6.359,5.93,9.503,9.223c2.79,2.924,9.106,8.093,10.211,12.181
	C404.07,249.075,404.355,250.504,404.355,250.504z"/>
<path fill="#EE8F2A" d="M-907.994,161.506c-0.901-2.873-6.186-5.705-8.517-7.396c-2.623-1.902-5.23-3.906-7.838-5.24
	c-3.607-1.844-7.712-2.701-11.278-4.871c-2.892-1.763-5.313-4.166-8.389-5.782c-5.906-3.104-14.928-2.343-21.399-2.151
	c-6.427,0.189-13.454,1.276-19.774,3.74c-6.627,2.584-11.621,6.432-16.494,11.649c-1.358,1.453-2.406,2.646-0.208,3.751
	c1.319,0.664,4.212,0.754,5.621,0.652c1.835-0.133,3.734-0.852,5.542-1.364c1.37-0.389,4.977-2.182,6.313-1.76
	c3.019,0.952,0.767,8.222,0.575,10.335c-0.298,3.296-1.52,8.983,3.818,6.107c4.131-2.226,13.366-10.691,17.955-4.784
	c1.868,2.404,1.196,9.251,3.794,10.737c3.183,1.822,7.425-3.688,9.471-5.123c3.159-2.218,6.917-3.305,10.779-4.365
	c3.453-0.947,6.818,0.383,10.253,0.375c3.425-0.006,7.077-0.998,10.551-1.452c3.127-0.409,7.067-0.072,9.938-1.978
	c-0.081-0.41-0.148-1.027-0.365-1.398"/>
</svg>
