<?xml version="1.0" encoding="utf-8"?>
<!-- Generator: Adobe Illustrator 16.0.0, SVG Export Plug-In . SVG Version: 6.00 Build 0)  -->
<!DOCTYPE svg PUBLIC "-//W3C//DTD SVG 1.1//EN" "http://www.w3.org/Graphics/SVG/1.1/DTD/svg11.dtd">
<svg version="1.1" id="Layer_1" xmlns="http://www.w3.org/2000/svg" xmlns:xlink="http://www.w3.org/1999/xlink" x="0px" y="0px"
	 width="426.67px" height="263.667px" viewBox="0 0 426.67 263.667" enable-background="new 0 0 426.67 263.667"
	 xml:space="preserve">
<path fill="#EE8F2A" d="M407.524,251.2c-11.112,3.386-23.51-1.533-34.002-3.239c-11.657-1.9-24.407-2.232-35.473-5.536
	c-11.103-3.313-20.681-10.887-32.744-11.17c-13.498-0.313-26.683-0.435-39.028,3.688c-7.993,2.666-27.021,16.411-35.536,7.414
	c-6.952-7.343,1.839-28.888-1.865-38.493c-9.104-23.604-47.111-5.127-62.604-1.922c-20.017,4.142-10.568-13.11-6.419-23.504
	c2.66-6.664,16.965-28.048,8.14-34.063c-3.908-2.664-17.29-0.354-22.087-0.424c-6.332-0.094-13.158,0.395-19.212-0.956
	c-4.649-1.038-13.904-4.139-17.52-7.574c-6.024-5.716-1.487-8.564,4.302-11.958c20.781-12.185,40.628-19.808,64.525-21.75
	c22.791-1.853,46.534,1.448,67.467,7.071c21.079,5.659,50.947,11.956,67.016,27.748c8.368,8.227,13.86,18.367,21.494,26.887
	c9.417,10.501,21.841,17.265,31.705,26.743c7.131,6.856,13.61,15.884,20.239,24.599c5.887,7.742,19.595,21.795,21.138,31.865
	C407.227,247.708,407.524,251.2,407.524,251.2z"/>
<path fill="#EE8F2A" d="M-833.038,303.797c-2.327-7.205-15.678-14.219-21.573-18.422c-6.636-4.73-13.235-9.717-19.822-13.018
	c-9.11-4.561-19.451-6.632-28.466-12.019c-7.311-4.371-13.449-10.364-21.219-14.366c-14.918-7.682-37.594-5.583-53.863-4.965
	c-16.161,0.611-33.812,3.489-49.656,9.818c-16.612,6.635-29.094,16.414-41.24,29.64c-3.384,3.683-5.994,6.704-0.446,9.438
	c3.331,1.645,10.61,1.81,14.152,1.524c4.612-0.372,9.373-2.22,13.908-3.547c3.436-1.006,12.471-5.589,15.84-4.558
	c7.611,2.332,2.099,20.664,1.663,25.982c-0.681,8.293-3.636,22.623,9.729,15.279c10.344-5.684,33.393-27.165,45.058-12.405
	c4.747,6.007,3.201,23.24,9.766,26.927c8.044,4.516,18.598-9.431,23.713-13.082c7.899-5.645,17.327-8.457,27.019-11.203
	c8.664-2.453,17.154,0.818,25.794,0.73c8.613-0.088,17.778-2.656,26.506-3.872c7.856-1.097,17.773-0.329,24.954-5.179
	c-0.211-1.031-0.394-2.584-0.946-3.514"/>
<path fill="#EE8F2A" d="M-399.573,166.383c-1.627-5.184-11.161-10.293-15.365-13.343c-4.731-3.433-9.437-7.048-14.142-9.454
	c-6.507-3.326-13.912-4.873-20.347-8.79c-5.218-3.179-9.585-7.515-15.135-10.431c-10.655-5.599-26.933-4.228-38.606-3.881
	c-11.596,0.342-24.273,2.303-35.676,6.748c-11.955,4.66-20.966,11.602-29.757,21.016c-2.449,2.622-4.339,4.773-0.376,6.768
	c2.38,1.199,7.6,1.361,10.142,1.178c3.311-0.24,6.736-1.537,9.997-2.462c2.471-0.702,8.979-3.936,11.39-3.175
	c5.446,1.717,1.382,14.834,1.038,18.646c-0.537,5.944-2.742,16.206,6.888,11.018c7.453-4.016,24.113-19.288,32.394-8.631
	c3.369,4.337,2.157,16.689,6.845,19.371c5.743,3.288,13.396-6.653,17.087-9.242c5.699-4.002,12.479-5.964,19.447-7.875
	c6.229-1.709,12.299,0.688,18.498,0.676c6.178-0.012,12.768-1.8,19.035-2.619c5.642-0.74,12.75-0.131,17.93-3.567
	c-0.145-0.74-0.268-1.854-0.658-2.526"/>
<path fill="#EE8F2A" d="M-667.692,164.43c-1.323-4.218-9.083-8.376-12.503-10.857c-3.851-2.793-7.678-5.735-11.507-7.693
	c-5.295-2.707-11.322-3.966-16.558-7.153c-4.246-2.587-7.8-6.114-12.316-8.488c-8.671-4.556-21.917-3.439-31.417-3.158
	c-9.436,0.278-19.753,1.874-29.032,5.491c-9.729,3.793-17.062,9.441-24.215,17.103c-1.993,2.134-3.531,3.884-0.306,5.508
	c1.937,0.976,6.184,1.106,8.253,0.957c2.694-0.194,5.482-1.25,8.136-2.003c2.01-0.57,7.306-3.203,9.268-2.584
	c4.432,1.398,1.125,12.072,0.845,15.174c-0.437,4.838-2.231,13.188,5.605,8.967c6.065-3.269,19.623-15.696,26.36-7.023
	c2.742,3.528,1.756,13.58,5.571,15.764c4.673,2.675,10.901-5.415,13.905-7.521c4.638-3.257,10.155-4.854,15.825-6.408
	c5.069-1.392,10.009,0.56,15.053,0.55c5.028-0.01,10.39-1.465,15.49-2.132c4.591-0.602,10.376-0.106,14.591-2.903
	c-0.119-0.602-0.218-1.509-0.536-2.055"/>
<path fill="#EE8F2A" d="M-907.994,161.506c-0.901-2.873-6.186-5.705-8.517-7.396c-2.623-1.902-5.23-3.906-7.838-5.24
	c-3.607-1.844-7.712-2.701-11.278-4.871c-2.892-1.763-5.313-4.166-8.389-5.782c-5.906-3.104-14.928-2.343-21.399-2.151
	c-6.427,0.189-13.454,1.276-19.774,3.74c-6.627,2.584-11.621,6.432-16.494,11.649c-1.358,1.453-2.406,2.646-0.208,3.751
	c1.319,0.664,4.212,0.754,5.621,0.652c1.835-0.133,3.734-0.852,5.542-1.364c1.37-0.389,4.977-2.182,6.313-1.76
	c3.019,0.952,0.767,8.222,0.575,10.335c-0.298,3.296-1.52,8.983,3.818,6.107c4.131-2.226,13.366-10.691,17.955-4.784
	c1.868,2.404,1.196,9.251,3.794,10.737c3.183,1.822,7.425-3.688,9.471-5.123c3.159-2.218,6.917-3.305,10.779-4.365
	c3.453-0.947,6.818,0.383,10.253,0.375c3.425-0.006,7.077-0.998,10.551-1.452c3.127-0.409,7.067-0.072,9.938-1.978
	c-0.081-0.41-0.148-1.027-0.365-1.398"/>
</svg>
