<?xml version="1.0" encoding="utf-8"?>
<!-- Generator: Adobe Illustrator 16.0.0, SVG Export Plug-In . SVG Version: 6.00 Build 0)  -->
<!DOCTYPE svg PUBLIC "-//W3C//DTD SVG 1.1//EN" "http://www.w3.org/Graphics/SVG/1.1/DTD/svg11.dtd">
<svg version="1.1" id="Layer_1" xmlns="http://www.w3.org/2000/svg" xmlns:xlink="http://www.w3.org/1999/xlink" x="0px" y="0px"
	 width="274.667px" height="235.333px" viewBox="0 0 274.667 235.333" enable-background="new 0 0 274.667 235.333"
	 xml:space="preserve">
<g>
	<path fill="#72AEA5" d="M140.475,182.271c-2.857,4.015-2.44,7.552-2.231,10.774c0.156,2.343,0.896,4.084-2.035,4.99
		c-2.048,0.627-4.792,1.146-6.858,1.391c-0.684,3.816-2.555,7.461-1.223,11.477c4.61-1.021,9.405-0.666,14.099-1.688
		c0.349-4.344-0.794-9.078-1.39-13.465c-0.594-4.424,0.479-8.785-0.297-13.119"/>
	<g>
		<path fill="#EBB197" d="M122.467,164.767c7.102-0.173,6.764,1.243,6.743,7.728c-0.016,4.586-0.678,9.735,0,14.266
			c1.341,8.973,12.55,10.658,16.491,18.91c-7.865,5.002-26.109-8.012-31.938-12.799c-9.353-7.687-0.991-5.761,2.389-10.504
			c2.952-4.146,1.027-12.855,3.187-17.615"/>
		<path fill="#FFFFFF" d="M115.357,183.336c-2.33,0.799-0.856,4.604,0.181,5.795c1.366,1.563,3.471,2.845,5.201,4.037
			c1.866,1.289,3.994,2.396,5.594,3.901c1.688,1.593,3.665,2.908,5.851,3.583c1.539,0.477,2.672,0.27,3.7-0.984
			c0.719-0.879,1.166-3.131,0.233-3.699c4.477-0.456,8.044,4.957,9.718,8.201c1.295,2.508,0.475,3.768-2.229,4.149
			c-2.567,0.361-5.162,0.226-7.468-0.71c-4.036-1.631-7.937-3.4-11.706-5.386c-3.747-1.976-8.158-4.083-11.563-6.544
			c-2.244-1.618-4.962-4.819-5.569-7.51c-0.75-3.351,4.596-5.703,7.3-4.668c-0.023,0.191,0.072,0.176,0.171,0.258"/>
	</g>
	<path fill="#FFFFFF" d="M96.436,90.659c-5.857,1.33-8.165,9.769-7.408,14.732c0.821,5.385,5.397,9.132,9.921,12.324
		c4.575,3.228,9.655,5.683,13.042,10.034c3.836,4.935,3.939,9.633,4.534,15.648c0.821,8.327-1.983,23.391-0.765,24.814
		c1.122,1.313,11.962,1.416,18.033,1.07c1.303-2.134,1.258-5.387,1.543-7.845c0.354-3.007,1.125-5.129,1.771-7.983
		c1.311-5.818,0.825-12.166,0.825-18.242c0-11.389-3.706-21.792-11.422-29.534C118.614,97.764,109.046,90.703,96.436,90.659"/>
</g>
</svg>
