<?xml version="1.0" encoding="utf-8"?>
<!-- Generator: Adobe Illustrator 16.0.0, SVG Export Plug-In . SVG Version: 6.00 Build 0)  -->
<!DOCTYPE svg PUBLIC "-//W3C//DTD SVG 1.1//EN" "http://www.w3.org/Graphics/SVG/1.1/DTD/svg11.dtd">
<svg version="1.1" id="Layer_1" xmlns="http://www.w3.org/2000/svg" xmlns:xlink="http://www.w3.org/1999/xlink" x="0px" y="0px"
	 width="274.667px" height="235.333px" viewBox="0 0 274.667 235.333" enable-background="new 0 0 274.667 235.333"
	 xml:space="preserve">
<g>
	<path fill="#72AEA5" d="M140.475,182.144c-2.857,4.099-2.44,7.706-2.231,10.995c0.156,2.393,0.896,4.168-2.035,5.092
		c-2.048,0.641-4.792,1.169-6.858,1.42c-0.684,3.895-2.555,7.612-1.223,11.711c4.61-1.043,9.405-0.68,14.099-1.723
		c0.349-4.432-0.794-9.264-1.39-13.74c-0.594-4.514,0.479-8.964-0.297-13.389"/>
	<path fill="#EBB197" d="M122.467,164.282c7.102-0.177,6.764,1.27,6.743,7.887c-0.016,4.681-0.678,9.936,0,14.559
		c1.341,9.154,12.549,10.876,16.491,19.297c-7.865,5.104-26.109-8.176-31.938-13.061c-9.353-7.846-0.991-5.879,2.389-10.721
		c2.952-4.23,1.027-13.117,3.187-17.976"/>
	<path fill="#B3815C" d="M115.357,183.232c-2.33,0.813-0.856,4.697,0.181,5.913c1.366,1.596,3.471,2.902,5.201,4.12
		c1.866,1.315,3.994,2.444,5.594,3.981c1.688,1.625,3.665,2.967,5.851,3.654c1.539,0.486,2.672,0.273,3.7-1.005
		c0.719-0.896,1.166-3.194,0.233-3.772c4.476-0.467,8.044,5.058,9.718,8.367c1.295,2.559,0.475,3.844-2.229,4.233
		c-2.567,0.37-5.162,0.229-7.468-0.726c-4.036-1.662-7.937-3.47-11.706-5.494c-3.747-2.017-8.158-4.168-11.563-6.678
		c-2.244-1.652-4.962-4.918-5.569-7.662c-0.75-3.42,4.596-5.822,7.3-4.766c-0.023,0.195,0.072,0.18,0.171,0.264"/>
	<path fill="#79BB93" d="M96.436,88.659c-5.857,1.357-8.165,9.969-7.408,15.033c0.821,5.495,5.397,9.318,9.921,12.576
		c4.575,3.292,9.655,5.798,13.042,10.238c3.836,5.035,3.939,9.83,4.534,15.97c0.821,8.497-1.983,23.868-0.765,25.321
		c1.122,1.34,11.962,1.445,18.033,1.092c1.303-2.178,1.258-5.497,1.543-8.006c0.354-3.066,1.125-5.233,1.771-8.146
		c1.311-5.938,0.825-12.415,0.825-18.614c0-11.621-3.706-22.238-11.422-30.139C118.614,95.91,109.046,88.704,96.436,88.659"/>
</g>
</svg>
