<?xml version="1.0" encoding="utf-8"?>
<!-- Generator: Adobe Illustrator 16.0.0, SVG Export Plug-In . SVG Version: 6.00 Build 0)  -->
<!DOCTYPE svg PUBLIC "-//W3C//DTD SVG 1.1//EN" "http://www.w3.org/Graphics/SVG/1.1/DTD/svg11.dtd">
<svg version="1.1" id="Layer_1" xmlns="http://www.w3.org/2000/svg" xmlns:xlink="http://www.w3.org/1999/xlink" x="0px" y="0px"
	 width="274.667px" height="235.333px" viewBox="0 0 274.667 235.333" enable-background="new 0 0 274.667 235.333"
	 xml:space="preserve">
<g>
	<path fill="#72AEA5" d="M140.946,182.743c3.05-4.496,7.146-5.922,10.794-7.359c2.655-1.045,4.924-1.284,4.518-4.273
		c-0.283-2.094-1.024-4.73-1.743-6.645c3.868-2.518,6.989-5.975,12.043-6.838c1.082,4.506,3.771,8.484,4.887,13.061
		c-4.61,2.488-10.371,3.889-15.481,5.582c-5.156,1.707-9.447,4.839-14.586,6.348"/>
	<path fill="#EBB197" d="M155.517,134.181c6.753-2.163,6.848-0.698,8.75,5.569c1.346,4.437,2.236,9.604,4.229,13.793
		c3.945,8.289,15.185,6.764,21.398,13.633c-6.048,7.043-27.38-0.396-34.382-3.383c-11.235-4.793-2.657-5.287-0.827-10.826
		c1.598-4.836-2.828-12.715-2.176-17.922"/>
	<path fill="#B3815C" d="M154.21,154.133c-1.992,1.423,0.551,4.687,1.893,5.543c1.771,1.131,4.166,1.777,6.182,2.441
		c2.166,0.721,4.539,1.189,6.512,2.196c2.089,1.065,4.375,1.778,6.673,1.819c1.612,0.025,2.636-0.493,3.245-1.998
		c0.429-1.051,0.188-3.355-0.867-3.641c4.146-1.701,9.169,2.527,11.732,5.191c1.983,2.061,1.572,3.509-0.899,4.641
		c-2.354,1.072-4.877,1.668-7.365,1.412c-4.351-0.439-8.608-1.051-12.805-1.908c-4.177-0.857-9.027-1.649-13.019-3.068
		c-2.629-0.934-6.18-3.264-7.561-5.694c-1.717-3.022,2.71-6.802,5.605-6.563c0.036,0.188,0.123,0.147,0.238,0.201"/>
	<path fill="#79BB93" d="M96.431,83.8c-4.205,4.212-1.479,12.607,1.913,16.435c3.676,4.153,9.607,4.936,15.192,5.273
		c5.645,0.34,11.293-0.241,16.555,1.683c5.971,2.178,8.663,6.126,12.497,10.932c5.31,6.653,7.104,22.731,8.922,23.303
		c1.675,0.527,15.054-6.865,19.98-10.35c-0.08-2.502-1.924-5.246-3.041-7.486c-1.367-2.752-1.894-4.961-2.932-7.729
		c-2.114-5.641-6.046-10.788-9.409-15.958c-6.312-9.695-15.198-16.599-25.994-19.129C119.068,78.184,107.086,77.207,96.431,83.8"/>
</g>
</svg>
