<?xml version="1.0" encoding="utf-8"?>
<!-- Generator: Adobe Illustrator 16.0.0, SVG Export Plug-In . SVG Version: 6.00 Build 0)  -->
<!DOCTYPE svg PUBLIC "-//W3C//DTD SVG 1.1//EN" "http://www.w3.org/Graphics/SVG/1.1/DTD/svg11.dtd">
<svg version="1.1" id="Layer_1" xmlns="http://www.w3.org/2000/svg" xmlns:xlink="http://www.w3.org/1999/xlink" x="0px" y="0px"
	 width="274.667px" height="235.333px" viewBox="0 0 274.667 235.333" enable-background="new 0 0 274.667 235.333"
	 xml:space="preserve">
<g>
	<path fill="#72AEA5" d="M140.946,182.799c3.05-4.455,7.146-5.867,10.794-7.291c2.655-1.036,4.924-1.273,4.518-4.236
		c-0.284-2.074-1.025-4.688-1.744-6.584c3.869-2.495,6.99-5.919,12.043-6.775c1.082,4.465,3.77,8.407,4.887,12.941
		c-4.611,2.466-10.371,3.854-15.482,5.531c-5.156,1.691-9.447,4.795-14.586,6.289"/>
	<g>
		<path fill="#EBB197" d="M155.517,134.678c6.753-2.143,6.847-0.69,8.75,5.52c1.346,4.396,2.236,9.518,4.229,13.668
			c3.945,8.215,15.184,6.702,21.398,13.51c-6.048,6.979-27.38-0.393-34.382-3.352c-11.235-4.75-2.657-5.24-0.827-10.729
			c1.598-4.793-2.828-12.6-2.176-17.76"/>
		<path fill="#FFFFFF" d="M154.21,154.45c-1.992,1.41,0.551,4.645,1.893,5.494c1.771,1.12,4.166,1.762,6.182,2.42
			c2.166,0.713,4.539,1.178,6.512,2.176c2.089,1.057,4.375,1.762,6.672,1.803c1.613,0.025,2.636-0.488,3.246-1.979
			c0.428-1.042,0.188-3.325-0.868-3.606c4.147-1.686,9.169,2.504,11.733,5.144c1.983,2.041,1.572,3.478-0.9,4.599
			c-2.354,1.063-4.877,1.652-7.365,1.399c-4.35-0.437-8.609-1.041-12.805-1.892c-4.176-0.85-9.027-1.635-13.018-3.041
			c-2.629-0.924-6.18-3.232-7.561-5.643c-1.717-2.996,2.71-6.74,5.605-6.504c0.037,0.188,0.123,0.146,0.239,0.198"/>
	</g>
	<path fill="#FFFFFF" d="M96.431,84.755c-4.205,4.174-1.479,12.493,1.913,16.286c3.676,4.115,9.607,4.891,15.192,5.225
		c5.645,0.337,11.293-0.238,16.555,1.667c5.971,2.159,8.663,6.071,12.497,10.833c5.309,6.593,7.103,22.525,8.922,23.092
		c1.674,0.521,15.053-6.804,19.979-10.255c-0.079-2.479-1.923-5.199-3.041-7.419c-1.366-2.727-1.893-4.917-2.931-7.659
		c-2.114-5.59-6.046-10.69-9.409-15.813c-6.312-9.607-15.198-16.449-25.994-18.956C119.068,79.19,107.086,78.221,96.431,84.755"/>
</g>
</svg>
