<?xml version="1.0" encoding="utf-8"?>
<!-- Generator: Adobe Illustrator 16.0.0, SVG Export Plug-In . SVG Version: 6.00 Build 0)  -->
<!DOCTYPE svg PUBLIC "-//W3C//DTD SVG 1.1//EN" "http://www.w3.org/Graphics/SVG/1.1/DTD/svg11.dtd">
<svg version="1.1" id="Layer_1" xmlns="http://www.w3.org/2000/svg" xmlns:xlink="http://www.w3.org/1999/xlink" x="0px" y="0px"
	 width="1280px" height="800px" viewBox="0 0 1280 800" enable-background="new 0 0 1280 800" xml:space="preserve">
<path fill="#EEE0DF" d="M1281-1h-206.559c-5.653,6.038-10.622,12.208-14.635,19.97c-14.216,27.494,3.201,51.848-5.196,78.085
	c-5.34,16.684-24.73,26.126-36.714,33.088c-42.321,24.594-85.63,29.89-92.59,79.151c18.936-0.449,38.164,0.194,57.802,2.025
	c34.732,3.238,73.04,9.322,101.479,31.87c25.002,19.821,26.322,49.104,33.735,77.864c19.228,74.6,118.191,103.158,112.815,190.655
	c-5.198,84.599-151.439,110.67-217.208,118.358c-71.021,8.303-188.493-9.228-188.493-9.228
	c-71.685-8.075-168.767-59.202-168.767-59.202c-3.012-1.463-6.001-2.901-8.971-4.332c-0.178,0.609-0.354,1.219-0.519,1.844
	c-10.399,39.188,9.006,78.594-28.49,109.754c-32.249,26.799-79.063,14.934-108.213,47.084C487.774,741.026,490.564,772,491.898,802
	H1281V-1z"/>
<path fill="#FFFFFF" d="M510.479,715.986c29.15-32.15,75.964-20.279,108.213-47.078c37.496-31.16,18.091-70.569,28.49-109.757
	c0.165-0.625,0.341-1.235,0.519-1.845c-31.608-15.225-60.761-29.207-86.442-53.284c-71.561-67.088-53.625-73.479-50.084-115.88
	c2.835-33.956,55.953-59.254,82.33-74.776c41.395-24.358,90.755-44.003,134.176-61.041c65.455-25.683,129.631-41.417,197.627-43.032
	c6.96-49.261,50.269-54.557,92.59-79.151c11.983-6.962,31.374-16.404,36.714-33.088c8.397-26.237-9.02-50.591,5.196-78.085
	c4.013-7.762,8.981-13.933,14.635-19.97H1v803h490.898C490.564,772,487.774,741.026,510.479,715.986z"/>
</svg>
