<?xml version="1.0" encoding="utf-8"?>
<!-- Generator: Adobe Illustrator 16.0.0, SVG Export Plug-In . SVG Version: 6.00 Build 0)  -->
<!DOCTYPE svg PUBLIC "-//W3C//DTD SVG 1.1//EN" "http://www.w3.org/Graphics/SVG/1.1/DTD/svg11.dtd">
<svg version="1.1" id="Layer_1" xmlns="http://www.w3.org/2000/svg" xmlns:xlink="http://www.w3.org/1999/xlink" x="0px" y="0px"
	 width="55px" height="116px" viewBox="0 0 55 116" enable-background="new 0 0 55 116" xml:space="preserve">
<path fill="#5D8151" d="M49.862,61.98c0.032-0.074,0.063-0.146,0.089-0.224c0.026-0.08,0.045-0.16,0.063-0.241
	c0.017-0.076,0.032-0.15,0.041-0.228c0.011-0.081,0.014-0.162,0.016-0.243c0.003-0.08,0.003-0.159-0.003-0.239
	c-0.005-0.078-0.017-0.155-0.029-0.233c-0.014-0.081-0.028-0.161-0.05-0.24c-0.021-0.079-0.049-0.154-0.077-0.23
	c-0.028-0.074-0.057-0.148-0.092-0.221c-0.039-0.079-0.086-0.154-0.134-0.23c-0.028-0.044-0.047-0.092-0.078-0.135L10.442,5.324
	C9.632,4.205,8.07,3.955,6.951,4.763C5.833,5.571,5.581,7.135,6.39,8.254l38.048,52.644L6.47,107.963
	c-0.866,1.074-0.698,2.648,0.377,3.516c0.462,0.372,1.017,0.554,1.567,0.554c0.73,0,1.454-0.318,1.948-0.931L49.528,62.55
	c0.032-0.04,0.054-0.086,0.083-0.128c0.053-0.074,0.104-0.147,0.148-0.226C49.799,62.125,49.83,62.054,49.862,61.98z"/>
</svg>
