<?xml version="1.0" encoding="utf-8"?>
<!-- Generator: Adobe Illustrator 16.0.0, SVG Export Plug-In . SVG Version: 6.00 Build 0)  -->
<!DOCTYPE svg PUBLIC "-//W3C//DTD SVG 1.1//EN" "http://www.w3.org/Graphics/SVG/1.1/DTD/svg11.dtd">
<svg version="1.1" id="Layer_1" xmlns="http://www.w3.org/2000/svg" xmlns:xlink="http://www.w3.org/1999/xlink" x="0px" y="0px"
	 width="55px" height="116px" viewBox="0 0 55 116" enable-background="new 0 0 55 116" xml:space="preserve">
<path fill="#E8744D" d="M49.861,61.98c0.033-0.074,0.063-0.146,0.09-0.225c0.025-0.08,0.045-0.16,0.063-0.24
	c0.018-0.076,0.032-0.15,0.041-0.229c0.012-0.081,0.014-0.162,0.016-0.243c0.004-0.08,0.004-0.159-0.002-0.239
	c-0.006-0.078-0.018-0.154-0.029-0.232c-0.014-0.081-0.027-0.161-0.051-0.24c-0.021-0.079-0.049-0.154-0.076-0.23
	c-0.028-0.074-0.057-0.147-0.092-0.221c-0.039-0.079-0.086-0.154-0.135-0.23c-0.027-0.043-0.047-0.092-0.078-0.135L10.442,5.324
	C9.632,4.205,8.07,3.955,6.951,4.763C5.833,5.571,5.581,7.135,6.39,8.254l38.047,52.645L6.47,107.963
	c-0.866,1.074-0.698,2.648,0.377,3.516c0.462,0.373,1.017,0.555,1.567,0.555c0.73,0,1.454-0.318,1.948-0.932L49.527,62.55
	c0.033-0.04,0.055-0.086,0.084-0.128c0.053-0.074,0.104-0.146,0.147-0.227C49.799,62.125,49.83,62.055,49.861,61.98z"/>
</svg>
