<?xml version="1.0" encoding="utf-8"?>
<!-- Generator: Adobe Illustrator 16.0.0, SVG Export Plug-In . SVG Version: 6.00 Build 0)  -->
<!DOCTYPE svg PUBLIC "-//W3C//DTD SVG 1.1//EN" "http://www.w3.org/Graphics/SVG/1.1/DTD/svg11.dtd">
<svg version="1.1" id="Layer_1" xmlns="http://www.w3.org/2000/svg" xmlns:xlink="http://www.w3.org/1999/xlink" x="0px" y="0px"
	 width="411px" height="800px" viewBox="0 0 411 800" enable-background="new 0 0 411 800" xml:space="preserve">
<path fill="#020202" d="M212.286,18.426c-42.993,1.848-94.999-14.284-131.868,19.36C46.548,68.69,29.134,152.16,37.092,199.236
	c8.256,48.845,28.833,77.418,39.852,125.251c10.471,45.454,7.255,101.293-2.305,146.374c-6.233,29.403-17.132,61.443-26.57,88.134
	c-4.735,13.392-9.454,27.472-15.459,40.592c-5.975,13.054-13.965,22.184-19.655,34.993c33.692-23.311,62.896-51.589,89.918-86.117
	c25.874-33.059,37.329-74.058,68.579-99.919c33.579-27.792,83.572-11.858,112.91,14.926c30.985,28.29,41.804,78.736,62.421,116.83
	c11.991,22.153,29.509,40.593,49.646,48.457c1.964-11.207-5.331-26.644-8.193-36.524c-3.209-11.092-7.185-23.005-9.39-34.668
	c-4.399-23.263-5.547-47.428-5.547-72.127c0-54.377,1.807-106.46,5.574-159.48c3.456-48.661-1.141-108.065,4.925-155.268
	c2.917-22.692-0.601-50.124-4.082-73.203C376.422,75.667,357.519,42.4,342.93,28.31c-16.553-15.986-46.395-18.665-66.472-18.669
	C263.296,9.637,242.914,9.641,212.286,18.426"/>
<path fill="#EBB197" d="M392.707,777.301c-6.966-17.149-14.189-34.115-21.477-51.075c-15.464-35.994-33.5-74.518-52.661-108.107
	c-6.561-11.504-13.15-22.646-20.634-33.47c-1.905-3.391-4.181-6.741-5.87-9.905c-19.594-36.669-35.981-76.6-37.865-122.333
	c-0.585-14.203-0.569-28.57-0.452-42.928c32.691-12.477,56.458-39.256,72.259-84.486c5.334-15.272,7.895-32.999,8.414-51.385
	c20.197-9.173,47.887-31.712,47.687-54.866c-0.314-36.427-42.137-39.379-53.125-9.827c-1.97-10.53-4.365-20.534-7.028-29.613
	c-14.673-50.034-37.138-77.659-76.438-77.603c-18.954,0.028-35.346,7.786-54.039,7.756c-19.662-0.029-38.726,1.552-58.249,1.552
	l8.472,1.55c-15.183-0.882-38.149,18.744-39.186,41.883c-0.884,19.707,4.694,43.428,8.735,63.46
	c-15.02-8.895-35.734-0.185-35.945,26.523c-0.221,27.773,36.435,54.661,53.848,58.654c6.216,21.731,14.247,41.75,25.26,55.775
	c12.208,15.543,23.248,30.291,36.353,43.613c-0.266,7.54-1.002,14.877-2.7,21.631c-4.657,18.509-11.744,34.65-16.766,52.671
	c-5.92,21.247-10.966,45.853-18.653,68.178c-5.138,12.021-12.579,23.854-17.33,34.576c-7.258,16.381-13.301,32.152-19.859,47.831
	c-14.685,35.105-32.811,70.23-45.78,106.288c-5.349,14.873-17.82,35.43-18.854,51.328c-0.946,14.545,24.536,29.875,34.482,37.304
	c31.036,23.183,65.458,28.615,102.141,30.788c35.186,2.084,71.507,2.257,106.761-0.004c33.479-2.146,68.75-7.147,97.227-25.936
	C410.529,814.529,400.197,795.748,392.707,777.301z"/>
<path fill="#020202" d="M206.938,226.068c-5.192,8.007-5.01,22.252-5.77,31.899c-0.838,10.629-2.482,22.063-0.723,32.653
	c12.755,0.907,24.091,3.18,37.479,2.658c0.135-1.153,0.135-2.121,0-3.275c-12.033-0.468-22.007-1.569-33.124-2.921
	c-2.902-18.132,11.783-42.869,2.138-60.127"/>
<path fill="#020202" d="M211.071,325.803c0.813-4.448,7.719,0.365,9.674,0.102c3.346-0.452,6.13-1.488,9.464-0.953
	c-1.655,5.299-4.842,5.047-7.318,5.698c-2.499,0.656-6.883,0.459-10.122-2.388C211.731,327.349,211.071,325.803,211.071,325.803z"/>
<path fill="#020202" d="M185.123,197.559c-5.871,0-11.937-0.628-16.772,3.049c4.155,2.34,12.876,1.114,16.243-1.766"/>
<path fill="#020202" d="M240.197,193.065c-5.871,0-11.938-0.629-16.773,3.048c4.154,2.34,12.876,1.114,16.243-1.764"/>
<g>
	<path fill="#020202" d="M779.594,207.539c-3.777-4.609-13.452-4.63-8.484,6.425c2.559,5.696,10.375,2.078,8.484-4.652"/>
	<path fill="#020202" d="M831.491,204.97c-3.78-4.607-13.454-4.631-8.485,6.427c2.559,5.694,10.375,2.075,8.485-4.653"/>
	<path fill="#020202" d="M765.315,204.683c-0.345,0.755-1.278,0.887-1.396,1.716c3.799,1.42,7.527,2.958,11.471,3.889
		C777.029,206.576,767.688,205.396,765.315,204.683"/>
	<path fill="#020202" d="M817.211,202.755c-0.344,0.756-1.277,0.887-1.396,1.718c3.799,1.419,7.529,2.956,11.471,3.888
		C828.924,204.648,819.583,203.469,817.211,202.755"/>
</g>
</svg>
