<?xml version="1.0" encoding="utf-8"?>
<!-- Generator: Adobe Illustrator 16.0.0, SVG Export Plug-In . SVG Version: 6.00 Build 0)  -->
<!DOCTYPE svg PUBLIC "-//W3C//DTD SVG 1.1//EN" "http://www.w3.org/Graphics/SVG/1.1/DTD/svg11.dtd">
<svg version="1.1" id="Layer_1" xmlns="http://www.w3.org/2000/svg" xmlns:xlink="http://www.w3.org/1999/xlink" x="0px" y="0px"
	 width="1280px" height="800px" viewBox="0 0 1280 800" enable-background="new 0 0 1280 800" xml:space="preserve">
<path fill="#ECB093" d="M1281,1h-199.127c-21.346,45.209-121.135,32.004-140.098,80.602c-11.719,30.037,3.713,77.207,8.859,117.186
	c7.07,54.916-19.9,73.258-61.365,93.24c-77.178,37.193-206,36.406-198.781,138.1c4.09,57.672,29.867,129.313,7.326,170.732
	c-20.672,37.99-67.072,52.412-115.873,67.158c-50.182,15.168-75.199,37.49-77.721,89.525c-0.523,10.805-0.855,26.328,0.707,43.457
	H1281V1z"/>
<path fill="#FFFFFF" d="M504.221,757.543c2.521-52.035,27.539-74.357,77.721-89.525c48.801-14.746,95.201-29.168,115.873-67.158
	c22.541-41.42-3.236-113.061-7.326-170.732c-7.219-101.693,121.604-100.906,198.781-138.1c41.465-19.982,68.436-38.324,61.365-93.24
	c-5.146-39.979-20.578-87.148-8.859-117.186C960.738,33.004,1060.527,46.209,1081.873,1H1v800h503.928
	C503.365,783.871,503.697,768.348,504.221,757.543z"/>
</svg>
