<?xml version="1.0" encoding="utf-8"?>
<!-- Generator: Adobe Illustrator 16.0.0, SVG Export Plug-In . SVG Version: 6.00 Build 0)  -->
<!DOCTYPE svg PUBLIC "-//W3C//DTD SVG 1.1//EN" "http://www.w3.org/Graphics/SVG/1.1/DTD/svg11.dtd">
<svg version="1.1" id="Layer_1" xmlns="http://www.w3.org/2000/svg" xmlns:xlink="http://www.w3.org/1999/xlink" x="0px" y="0px"
	 width="282px" height="244.447px" viewBox="0 0 282 244.447" enable-background="new 0 0 282 244.447" xml:space="preserve">
<g>
	<path fill="#EBB197" d="M76.888,28.98c9.289-6.795,23.991-17.972,34.315-13.325c5.474,2.463,8.148,8.445,13.075,11.78
		c7.951,5.378,16.264,3.493,25.516,0.168c6.805-2.44,14.565-6.16,22.336-4.622c8.351,1.658,13.013,8.84,20.334,11.563
		c12.598,4.686,30.554-7.392,42.396,0.861c5.186,3.615,7.765,12.947,12.601,17.746c5.171,5.129,11.654,8.808,12.379,16.82
		c1.553,17.068-20.172,20.564-31.917,15.967c-15.761-6.169-23.835,3.349-38.965,6.352c-16.787,3.333-25.377-5.644-40.774-8.131
		c-26.867-4.332-60.996,13.889-83.077-9.961c-4.976-5.378-7.279-12.142-14.418-15.749c-5.301-2.682-13.087-1.747-17.668-5.322
		C19.286,42.428,30.8,22.854,46.305,25.711C56.468,27.588,65.576,30.51,76.888,28.98"/>
	<g>
		<path fill="#72AEA5" d="M82.523,89.418c-0.329-0.21-0.083-0.138-0.437-0.113c-1.426,10.949-2.686,21.126-3.823,32.255
			c0.104,0.208,0.235,0.41,0.354,0.532C80.002,111.261,81.292,100.102,82.523,89.418"/>
		<path fill="#72AEA5" d="M98.473,100.94c-0.33-0.218-0.082-0.146-0.437-0.113c-1.425,10.95-2.686,21.118-3.831,32.247
			c0.103,0.216,0.234,0.41,0.362,0.532C95.953,122.783,97.233,111.616,98.473,100.94"/>
		<path fill="#72AEA5" d="M120.624,89.418c-0.33-0.21-0.083-0.138-0.437-0.113c-1.426,10.949-2.69,21.126-3.823,32.255
			c0.103,0.208,0.235,0.41,0.354,0.532C118.103,111.261,119.392,100.102,120.624,89.418"/>
		<path fill="#72AEA5" d="M135.244,105.368c-0.331-0.209-0.079-0.146-0.433-0.113c-1.425,10.95-2.69,21.126-3.835,32.255
			c0.107,0.208,0.234,0.401,0.354,0.531C132.727,127.212,134.003,116.044,135.244,105.368"/>
		<path fill="#72AEA5" d="M155.181,95.618c-0.329-0.209-0.081-0.137-0.436-0.113c-1.426,10.957-2.687,21.126-3.831,32.255
			c0.106,0.216,0.234,0.41,0.354,0.531C152.66,117.47,153.95,106.301,155.181,95.618"/>
		<path fill="#72AEA5" d="M172.458,109.797c-0.329-0.21-0.077-0.146-0.432-0.114c-1.425,10.95-2.69,21.127-3.836,32.255
			c0.106,0.21,0.235,0.41,0.354,0.531C169.94,131.64,171.222,120.481,172.458,109.797"/>
		<path fill="#72AEA5" d="M193.282,99.603c-0.33-0.209-0.078-0.138-0.433-0.113c-1.425,10.958-2.69,21.129-3.836,32.255
			c0.104,0.216,0.235,0.41,0.354,0.532C190.76,121.455,192.051,110.288,193.282,99.603"/>
		<path fill="#72AEA5" d="M213.661,111.125c-0.33-0.21-0.084-0.138-0.438-0.113c-1.424,10.949-2.685,21.126-3.829,32.255
			c0.106,0.21,0.234,0.411,0.354,0.532C211.14,132.969,212.43,121.81,213.661,111.125"/>
	</g>
	<g>
		<path fill="#72AEA5" d="M61.259,171.376c-0.33-0.21-0.083-0.138-0.437-0.113c-1.426,10.95-2.687,21.128-3.831,32.255
			c0.103,0.21,0.239,0.41,0.354,0.531C58.738,193.22,60.027,182.06,61.259,171.376"/>
		<path fill="#72AEA5" d="M77.209,182.898c-0.329-0.21-0.083-0.146-0.437-0.113c-1.425,10.95-2.686,21.128-3.831,32.247
			c0.103,0.218,0.235,0.412,0.354,0.54C74.688,204.741,75.977,193.582,77.209,182.898"/>
		<path fill="#72AEA5" d="M99.359,171.376c-0.33-0.21-0.083-0.138-0.437-0.113c-1.426,10.95-2.69,21.128-3.832,32.255
			c0.103,0.21,0.243,0.41,0.354,0.531C96.838,193.22,98.128,182.06,99.359,171.376"/>
		<path fill="#72AEA5" d="M113.979,187.326c-0.329-0.209-0.078-0.138-0.432-0.113c-1.425,10.95-2.69,21.129-3.835,32.255
			c0.107,0.209,0.235,0.41,0.354,0.531C111.462,209.169,112.748,198.01,113.979,187.326"/>
		<path fill="#72AEA5" d="M133.917,177.584c-0.329-0.218-0.083-0.146-0.437-0.122c-1.425,10.958-2.686,21.129-3.831,32.255
			c0.103,0.218,0.235,0.412,0.354,0.531C131.396,199.428,132.677,188.259,133.917,177.584"/>
		<path fill="#72AEA5" d="M151.194,191.755c-0.33-0.21-0.079-0.138-0.441-0.113c-1.417,10.949-2.682,21.129-3.826,32.255
			c0.105,0.218,0.233,0.41,0.353,0.532C148.677,213.598,149.954,202.438,151.194,191.755"/>
		<path fill="#72AEA5" d="M172.018,181.569c-0.33-0.209-0.083-0.146-0.438-0.113c-1.42,10.95-2.686,21.129-3.83,32.247
			c0.103,0.218,0.234,0.411,0.353,0.54C169.496,203.413,170.777,192.253,172.018,181.569"/>
		<path fill="#72AEA5" d="M192.396,193.083c-0.33-0.21-0.083-0.138-0.438-0.114c-1.425,10.952-2.685,21.129-3.832,32.255
			c0.108,0.218,0.237,0.412,0.356,0.532C189.876,214.935,191.155,203.767,192.396,193.083"/>
	</g>
</g>
<path fill="#EBB197" d="M20.99-224.317c5.929-4.335,15.311-11.468,21.895-8.504c3.494,1.573,5.199,5.39,8.339,7.517
	c5.068,3.431,10.374,2.229,16.279,0.109c4.337-1.557,9.288-3.931,14.245-2.949c5.327,1.056,8.301,5.641,12.969,7.375
	c8.041,2.988,19.493-4.713,27.048,0.552c3.31,2.306,4.956,8.257,8.04,11.319c3.297,3.273,7.432,5.619,7.896,10.727
	c0.991,10.888-12.867,13.121-20.359,10.188c-10.052-3.934-15.203,2.137-24.858,4.052c-10.708,2.124-16.19-3.599-26.011-5.185
	c-17.139-2.767-38.908,8.858-52.996-6.356c-3.176-3.431-4.643-7.744-9.195-10.046c-3.383-1.711-8.351-1.118-11.273-3.396
	c-8.765-6.829-1.419-19.315,8.475-17.489C7.969-225.207,13.777-223.344,20.99-224.317"/>
<g>
	<path fill="#72AEA5" d="M24.59-185.766c-0.211-0.135-0.052-0.09-0.279-0.072c-0.908,6.986-1.713,13.478-2.442,20.574
		c0.067,0.137,0.149,0.262,0.227,0.34C22.982-171.83,23.801-178.952,24.59-185.766"/>
	<path fill="#72AEA5" d="M34.764-178.418c-0.211-0.135-0.052-0.09-0.279-0.072c-0.908,6.986-1.713,13.478-2.442,20.574
		c0.067,0.138,0.149,0.262,0.227,0.34C33.156-164.482,33.975-171.604,34.764-178.418"/>
	<path fill="#72AEA5" d="M48.895-185.766c-0.211-0.135-0.052-0.09-0.279-0.072c-0.908,6.986-1.713,13.478-2.442,20.574
		c0.067,0.137,0.149,0.262,0.227,0.34C47.287-171.83,48.105-178.952,48.895-185.766"/>
	<path fill="#72AEA5" d="M58.221-175.592c-0.211-0.135-0.052-0.09-0.279-0.072c-0.908,6.986-1.713,13.478-2.442,20.574
		c0.067,0.138,0.149,0.262,0.227,0.34C56.613-161.656,57.432-168.777,58.221-175.592"/>
	<path fill="#72AEA5" d="M70.938-181.81c-0.211-0.135-0.051-0.09-0.279-0.072c-0.907,6.987-1.713,13.478-2.441,20.574
		c0.066,0.138,0.15,0.263,0.227,0.34C69.33-167.874,70.149-174.995,70.938-181.81"/>
	<path fill="#72AEA5" d="M81.96-172.766c-0.211-0.135-0.052-0.09-0.279-0.072c-0.908,6.986-1.713,13.478-2.442,20.574
		c0.067,0.138,0.15,0.262,0.227,0.34C80.353-158.83,81.172-165.951,81.96-172.766"/>
	<path fill="#72AEA5" d="M95.242-179.266c-0.21-0.135-0.051-0.09-0.279-0.072c-0.907,6.986-1.713,13.478-2.441,20.574
		c0.067,0.138,0.15,0.262,0.227,0.34C93.636-165.33,94.454-172.451,95.242-179.266"/>
	<path fill="#72AEA5" d="M108.243-171.918c-0.211-0.135-0.052-0.09-0.279-0.072c-0.908,6.986-1.713,13.478-2.442,20.574
		c0.067,0.138,0.15,0.263,0.227,0.34C106.636-157.982,107.454-165.104,108.243-171.918"/>
</g>
<path fill="#EBB197" d="M203.841-216.687c5.93-4.336,15.311-11.468,21.895-8.504c3.494,1.573,5.199,5.39,8.34,7.517
	c5.068,3.431,10.374,2.229,16.278,0.109c4.338-1.557,9.289-3.932,14.246-2.949c5.327,1.055,8.301,5.641,12.969,7.375
	c8.041,2.988,19.493-4.713,27.048,0.551c3.309,2.307,4.955,8.258,8.04,11.32c3.297,3.273,7.432,5.619,7.896,10.727
	c0.991,10.888-12.867,13.12-20.359,10.188c-10.053-3.934-15.203,2.136-24.858,4.051c-10.708,2.125-16.19-3.599-26.012-5.184
	c-17.138-2.768-38.907,8.858-52.995-6.357c-3.176-3.43-4.643-7.743-9.196-10.046c-3.382-1.71-8.35-1.117-11.273-3.396
	c-8.764-6.828-1.419-19.314,8.475-17.488C190.819-217.576,196.629-215.713,203.841-216.687"/>
<g>
	<path fill="#72AEA5" d="M200.658-152.982c-0.211-0.135-0.052-0.09-0.279-0.072c-0.908,6.986-1.713,13.478-2.442,20.574
		c0.067,0.137,0.149,0.262,0.227,0.34C199.051-139.047,199.869-146.169,200.658-152.982"/>
	<path fill="#72AEA5" d="M210.832-145.635c-0.211-0.135-0.051-0.09-0.279-0.072c-0.908,6.986-1.713,13.478-2.441,20.574
		c0.066,0.138,0.149,0.262,0.227,0.34C209.225-131.699,210.043-138.82,210.832-145.635"/>
	<path fill="#72AEA5" d="M224.963-152.982c-0.211-0.135-0.051-0.09-0.279-0.072c-0.908,6.986-1.713,13.478-2.441,20.574
		c0.066,0.137,0.149,0.262,0.227,0.34C223.355-139.047,224.174-146.169,224.963-152.982"/>
	<path fill="#72AEA5" d="M234.289-142.809c-0.211-0.135-0.051-0.09-0.279-0.072c-0.908,6.986-1.713,13.478-2.441,20.574
		c0.066,0.138,0.149,0.262,0.227,0.34C232.682-128.873,233.5-135.994,234.289-142.809"/>
	<path fill="#72AEA5" d="M247.007-149.026c-0.211-0.135-0.052-0.09-0.279-0.072c-0.908,6.987-1.714,13.478-2.442,20.574
		c0.067,0.138,0.15,0.263,0.227,0.34C245.399-135.091,246.218-142.212,247.007-149.026"/>
	<path fill="#72AEA5" d="M258.029-139.982c-0.211-0.135-0.053-0.09-0.279-0.072c-0.908,6.986-1.714,13.478-2.443,20.574
		c0.068,0.138,0.15,0.262,0.228,0.34C256.422-126.047,257.24-133.168,258.029-139.982"/>
	<path fill="#72AEA5" d="M271.312-146.482c-0.211-0.135-0.052-0.09-0.279-0.072c-0.908,6.986-1.713,13.478-2.442,20.574
		c0.067,0.138,0.15,0.262,0.227,0.34C269.704-132.547,270.522-139.668,271.312-146.482"/>
	<path fill="#72AEA5" d="M284.312-139.135c-0.21-0.135-0.052-0.09-0.279-0.072c-0.907,6.986-1.713,13.478-2.442,20.574
		c0.068,0.138,0.15,0.263,0.227,0.34C282.704-125.199,283.523-132.32,284.312-139.135"/>
</g>
<path fill="#EBB197" d="M566.718-199.447c5.929-4.336,15.311-11.468,21.895-8.504c3.494,1.573,5.199,5.39,8.339,7.516
	c5.068,3.432,10.375,2.229,16.279,0.11c4.338-1.557,9.289-3.931,14.245-2.949c5.327,1.056,8.301,5.641,12.97,7.376
	c8.041,2.986,19.492-4.715,27.047,0.551c3.31,2.306,4.956,8.258,8.04,11.319c3.297,3.273,7.433,5.619,7.897,10.727
	c0.99,10.888-12.868,13.12-20.36,10.188c-10.052-3.935-15.203,2.135-24.858,4.051c-10.707,2.124-16.19-3.6-26.011-5.185
	c-17.139-2.767-38.908,8.858-52.995-6.356c-3.176-3.43-4.644-7.744-9.196-10.047c-3.382-1.71-8.351-1.117-11.273-3.395
	c-8.765-6.829-1.419-19.314,8.475-17.489C553.696-200.338,559.505-198.474,566.718-199.447"/>
<g>
	<path fill="#72AEA5" d="M563.534-135.743c-0.211-0.135-0.051-0.091-0.279-0.072c-0.907,6.987-1.713,13.478-2.441,20.574
		c0.066,0.138,0.149,0.263,0.227,0.34C561.927-121.808,562.746-128.93,563.534-135.743"/>
	<path fill="#72AEA5" d="M573.709-128.396c-0.211-0.135-0.052-0.09-0.279-0.072c-0.908,6.987-1.714,13.478-2.442,20.574
		c0.067,0.138,0.149,0.263,0.227,0.34C572.102-114.46,572.92-121.581,573.709-128.396"/>
	<path fill="#72AEA5" d="M587.839-135.743c-0.21-0.135-0.051-0.091-0.279-0.072c-0.907,6.987-1.713,13.478-2.441,20.574
		c0.067,0.138,0.149,0.263,0.227,0.34C586.232-121.808,587.051-128.93,587.839-135.743"/>
	<path fill="#72AEA5" d="M597.166-125.569c-0.211-0.135-0.052-0.09-0.279-0.072c-0.908,6.987-1.714,13.478-2.442,20.574
		c0.067,0.138,0.149,0.263,0.227,0.34C595.559-111.634,596.377-118.755,597.166-125.569"/>
	<path fill="#72AEA5" d="M609.883-131.787c-0.211-0.135-0.051-0.09-0.279-0.072c-0.907,6.987-1.713,13.479-2.441,20.574
		c0.066,0.139,0.149,0.263,0.227,0.34C608.275-117.852,609.095-124.973,609.883-131.787"/>
	<path fill="#72AEA5" d="M620.905-122.743c-0.211-0.135-0.052-0.09-0.279-0.072c-0.908,6.987-1.713,13.478-2.442,20.574
		c0.067,0.138,0.15,0.263,0.227,0.34C619.298-108.808,620.116-115.929,620.905-122.743"/>
	<path fill="#72AEA5" d="M634.188-129.243c-0.21-0.135-0.051-0.09-0.279-0.072c-0.907,6.987-1.713,13.478-2.441,20.574
		c0.067,0.138,0.149,0.263,0.227,0.34C632.581-115.308,633.399-122.43,634.188-129.243"/>
	<path fill="#72AEA5" d="M647.188-121.896c-0.211-0.135-0.052-0.09-0.279-0.072c-0.908,6.987-1.713,13.478-2.442,20.574
		c0.067,0.138,0.15,0.263,0.227,0.341C645.581-107.96,646.399-115.081,647.188-121.896"/>
</g>
<path fill="#EBB197" d="M382.453-202.556c5.93-4.336,15.311-11.468,21.895-8.504c3.494,1.573,5.199,5.39,8.34,7.516
	c5.068,3.432,10.374,2.229,16.279,0.11c4.337-1.557,9.288-3.932,14.244-2.949c5.328,1.055,8.301,5.641,12.97,7.375
	c8.041,2.987,19.493-4.714,27.048,0.551c3.309,2.307,4.955,8.258,8.039,11.32c3.298,3.272,7.433,5.619,7.897,10.726
	c0.991,10.889-12.868,13.121-20.36,10.188c-10.052-3.935-15.203,2.136-24.857,4.051c-10.708,2.125-16.191-3.599-26.012-5.185
	c-17.139-2.767-38.908,8.859-52.995-6.356c-3.176-3.43-4.644-7.743-9.196-10.046c-3.382-1.71-8.35-1.117-11.273-3.396
	c-8.764-6.828-1.418-19.314,8.475-17.488C369.432-203.446,375.24-201.582,382.453-202.556"/>
<g>
	<path fill="#72AEA5" d="M386.053-164.005c-0.211-0.135-0.051-0.09-0.279-0.072c-0.908,6.987-1.713,13.478-2.441,20.574
		c0.066,0.138,0.149,0.263,0.227,0.34C384.445-150.069,385.264-157.19,386.053-164.005"/>
	<path fill="#72AEA5" d="M396.227-156.656c-0.211-0.135-0.051-0.091-0.279-0.072c-0.908,6.986-1.713,13.477-2.441,20.574
		c0.066,0.137,0.149,0.262,0.227,0.34C394.619-142.721,395.438-149.843,396.227-156.656"/>
	<path fill="#72AEA5" d="M410.357-164.005c-0.211-0.135-0.051-0.09-0.279-0.072c-0.908,6.987-1.713,13.478-2.441,20.574
		c0.066,0.138,0.149,0.263,0.227,0.34C408.75-150.069,409.568-157.19,410.357-164.005"/>
	<path fill="#72AEA5" d="M419.684-153.83c-0.211-0.135-0.051-0.091-0.279-0.073c-0.908,6.987-1.713,13.478-2.441,20.575
		c0.066,0.137,0.149,0.262,0.227,0.34C418.076-139.895,418.895-147.017,419.684-153.83"/>
	<path fill="#72AEA5" d="M432.401-160.049c-0.211-0.134-0.052-0.09-0.279-0.072c-0.907,6.987-1.713,13.479-2.442,20.574
		c0.067,0.139,0.15,0.264,0.227,0.341C430.794-146.112,431.613-153.234,432.401-160.049"/>
	<path fill="#72AEA5" d="M443.424-151.004c-0.211-0.135-0.052-0.091-0.279-0.073c-0.908,6.987-1.713,13.478-2.442,20.574
		c0.067,0.138,0.149,0.263,0.227,0.341C441.816-137.068,442.635-144.19,443.424-151.004"/>
	<path fill="#72AEA5" d="M456.706-157.505c-0.211-0.135-0.051-0.09-0.279-0.072c-0.907,6.987-1.713,13.478-2.441,20.574
		c0.066,0.138,0.149,0.263,0.227,0.341C455.099-143.569,455.918-150.69,456.706-157.505"/>
	<path fill="#72AEA5" d="M469.707-150.156c-0.211-0.135-0.052-0.09-0.279-0.072c-0.908,6.986-1.714,13.478-2.442,20.574
		c0.067,0.137,0.149,0.262,0.227,0.34C468.1-136.221,468.918-143.343,469.707-150.156"/>
</g>
<g>
	<path fill="#72AEA5" d="M372.487-111.721c-0.211-0.135-0.052-0.09-0.279-0.072c-0.908,6.986-1.713,13.477-2.442,20.574
		c0.067,0.137,0.15,0.262,0.227,0.34C370.88-97.785,371.699-104.907,372.487-111.721"/>
	<path fill="#72AEA5" d="M382.662-104.373c-0.211-0.135-0.052-0.09-0.279-0.072c-0.908,6.986-1.714,13.478-2.442,20.574
		c0.067,0.138,0.149,0.262,0.227,0.34C381.055-90.438,381.873-97.559,382.662-104.373"/>
	<path fill="#72AEA5" d="M396.792-111.721c-0.211-0.135-0.052-0.09-0.279-0.072c-0.907,6.986-1.713,13.477-2.442,20.574
		c0.067,0.137,0.15,0.262,0.227,0.34C395.185-97.785,396.004-104.907,396.792-111.721"/>
	<path fill="#72AEA5" d="M406.118-101.547c-0.21-0.135-0.052-0.09-0.279-0.072c-0.907,6.986-1.713,13.478-2.442,20.574
		c0.068,0.138,0.15,0.262,0.227,0.34C404.512-87.611,405.33-94.732,406.118-101.547"/>
	<path fill="#72AEA5" d="M418.836-107.765c-0.211-0.135-0.051-0.09-0.279-0.072c-0.908,6.987-1.713,13.478-2.441,20.574
		c0.066,0.138,0.149,0.263,0.227,0.34C417.229-93.829,418.047-100.95,418.836-107.765"/>
	<path fill="#72AEA5" d="M429.857-98.721c-0.211-0.135-0.051-0.09-0.279-0.072c-0.907,6.986-1.713,13.478-2.441,20.574
		c0.066,0.138,0.15,0.262,0.227,0.34C428.25-84.785,429.069-91.906,429.857-98.721"/>
	<path fill="#72AEA5" d="M443.141-105.221c-0.211-0.135-0.051-0.09-0.279-0.072c-0.908,6.986-1.713,13.478-2.441,20.574
		c0.066,0.137,0.149,0.262,0.227,0.34C441.533-91.285,442.352-98.406,443.141-105.221"/>
	<path fill="#72AEA5" d="M456.141-97.873c-0.21-0.135-0.051-0.09-0.279-0.072c-0.907,6.986-1.713,13.478-2.441,20.574
		c0.067,0.138,0.149,0.263,0.227,0.34C454.533-83.938,455.353-91.059,456.141-97.873"/>
</g>
<path fill="#EBB197" d="M744.481-188.426c5.93-4.335,15.311-11.467,21.895-8.504c3.494,1.573,5.199,5.391,8.34,7.517
	c5.068,3.431,10.375,2.229,16.279,0.109c4.337-1.557,9.288-3.931,14.245-2.948c5.327,1.055,8.301,5.641,12.969,7.375
	c8.041,2.987,19.493-4.714,27.048,0.551c3.309,2.307,4.955,8.258,8.04,11.32c3.297,3.272,7.433,5.619,7.896,10.726
	c0.991,10.888-12.867,13.121-20.359,10.188c-10.052-3.935-15.204,2.136-24.858,4.051c-10.708,2.125-16.19-3.599-26.012-5.185
	c-17.138-2.767-38.907,8.858-52.995-6.356c-3.176-3.43-4.643-7.743-9.196-10.046c-3.382-1.71-8.35-1.118-11.273-3.396
	c-8.764-6.828-1.418-19.314,8.475-17.488C731.46-189.315,737.27-187.452,744.481-188.426"/>
<g>
	<path fill="#72AEA5" d="M748.081-149.874c-0.21-0.135-0.051-0.09-0.279-0.072c-0.907,6.987-1.713,13.478-2.441,20.574
		c0.067,0.138,0.149,0.263,0.227,0.34C746.475-135.938,747.293-143.06,748.081-149.874"/>
	<path fill="#72AEA5" d="M758.256-142.526c-0.211-0.135-0.052-0.09-0.279-0.072c-0.908,6.987-1.713,13.478-2.442,20.574
		c0.067,0.138,0.15,0.263,0.227,0.341C756.648-128.591,757.467-135.712,758.256-142.526"/>
	<path fill="#72AEA5" d="M772.387-149.874c-0.211-0.135-0.052-0.09-0.279-0.072c-0.908,6.987-1.714,13.478-2.442,20.574
		c0.067,0.138,0.149,0.263,0.227,0.34C770.779-135.938,771.598-143.06,772.387-149.874"/>
	<path fill="#72AEA5" d="M781.713-139.7c-0.211-0.135-0.052-0.09-0.279-0.072c-0.908,6.987-1.714,13.478-2.442,20.574
		c0.067,0.138,0.15,0.263,0.227,0.341C780.105-125.765,780.924-132.886,781.713-139.7"/>
	<path fill="#72AEA5" d="M794.43-145.918c-0.21-0.135-0.051-0.09-0.279-0.072c-0.907,6.987-1.713,13.479-2.441,20.574
		c0.067,0.139,0.149,0.263,0.227,0.341C792.823-131.982,793.642-139.104,794.43-145.918"/>
	<path fill="#72AEA5" d="M805.452-136.874c-0.211-0.135-0.052-0.09-0.279-0.072c-0.908,6.987-1.713,13.478-2.442,20.574
		c0.067,0.138,0.15,0.263,0.227,0.341C803.845-122.938,804.663-130.06,805.452-136.874"/>
	<path fill="#72AEA5" d="M818.735-143.374c-0.211-0.135-0.052-0.09-0.279-0.072c-0.908,6.987-1.714,13.478-2.442,20.574
		c0.067,0.138,0.15,0.263,0.227,0.34C817.128-129.438,817.946-136.56,818.735-143.374"/>
	<path fill="#72AEA5" d="M831.735-136.025c-0.211-0.135-0.052-0.091-0.279-0.073c-0.908,6.987-1.713,13.478-2.442,20.575
		c0.067,0.137,0.15,0.262,0.227,0.34C830.128-122.09,830.946-129.212,831.735-136.025"/>
</g>
<g>
	<path fill="#72AEA5" d="M734.516-97.59c-0.211-0.135-0.051-0.091-0.279-0.073c-0.907,6.987-1.713,13.478-2.441,20.574
		c0.066,0.138,0.149,0.263,0.227,0.341C732.908-83.654,733.728-90.776,734.516-97.59"/>
	<path fill="#72AEA5" d="M744.69-90.242c-0.211-0.135-0.052-0.09-0.279-0.072c-0.908,6.986-1.714,13.478-2.442,20.574
		c0.067,0.138,0.15,0.262,0.227,0.34C743.083-76.307,743.901-83.428,744.69-90.242"/>
	<path fill="#72AEA5" d="M758.82-97.59c-0.21-0.135-0.051-0.091-0.279-0.073c-0.907,6.987-1.713,13.478-2.441,20.574
		c0.067,0.138,0.149,0.263,0.227,0.341C757.214-83.654,758.032-90.776,758.82-97.59"/>
	<path fill="#72AEA5" d="M768.147-87.416c-0.211-0.135-0.052-0.09-0.279-0.072c-0.908,6.986-1.714,13.478-2.442,20.574
		c0.067,0.137,0.15,0.262,0.227,0.34C766.54-73.48,767.358-80.602,768.147-87.416"/>
	<path fill="#72AEA5" d="M780.864-93.634c-0.21-0.135-0.051-0.09-0.279-0.072c-0.907,6.987-1.713,13.478-2.441,20.574
		c0.067,0.138,0.149,0.263,0.227,0.34C779.258-79.698,780.076-86.82,780.864-93.634"/>
	<path fill="#72AEA5" d="M791.887-84.59c-0.211-0.135-0.052-0.09-0.279-0.072c-0.908,6.986-1.713,13.478-2.442,20.574
		c0.067,0.137,0.15,0.262,0.227,0.34C790.279-70.654,791.098-77.775,791.887-84.59"/>
	<path fill="#72AEA5" d="M805.17-91.09c-0.211-0.135-0.052-0.09-0.279-0.072c-0.908,6.986-1.714,13.477-2.442,20.574
		c0.067,0.137,0.149,0.262,0.227,0.34C803.563-77.154,804.381-84.276,805.17-91.09"/>
	<path fill="#72AEA5" d="M818.17-83.742c-0.211-0.135-0.052-0.09-0.279-0.072c-0.908,6.986-1.713,13.478-2.442,20.574
		c0.067,0.138,0.15,0.262,0.227,0.34C816.563-69.807,817.381-76.928,818.17-83.742"/>
</g>
</svg>
