<?xml version="1.0" encoding="utf-8"?>
<!-- Generator: Adobe Illustrator 16.0.0, SVG Export Plug-In . SVG Version: 6.00 Build 0)  -->
<!DOCTYPE svg PUBLIC "-//W3C//DTD SVG 1.1//EN" "http://www.w3.org/Graphics/SVG/1.1/DTD/svg11.dtd">
<svg version="1.1" id="Layer_1" xmlns="http://www.w3.org/2000/svg" xmlns:xlink="http://www.w3.org/1999/xlink" x="0px" y="0px"
	 width="549.333px" height="157px" viewBox="0 0 549.333 157" enable-background="new 0 0 549.333 157" xml:space="preserve">
<path fill="#E8754D" d="M580.2,239.538c-0.869-1.659,0.618-3.032,1.966-4.524c1.27-1.402,1.084-2.77,0.054-4.152
	c-1.256-1.687-1.844-3.126-0.596-4.893c1.09-1.547,2.273-3.156,0.694-4.756c-0.858-0.868-2.315-1.489-2.313-2.468
	c0.002-0.904,1.136-2.126,1.733-2.986c0.328-0.473,0.569-1.76,0.724-1.76H452.667v30h129.479
	C582.744,242,581.001,241.073,580.2,239.538z"/>
<path fill="#5D8151" d="M422.258,236.571c-0.866-1.659,0.619-2.85,1.969-4.341c1.27-1.403,1.082-2.68,0.053-4.061
	c-1.258-1.688-1.846-3.081-0.597-4.848c1.092-1.547,2.274-3.132,0.694-4.731c-0.859-0.87-2.313-1.806-2.313-2.787
	c0.002-0.496,0.348-1.804,0.756-1.804H296.667v30h125.495c0.712-2,1.502-1.862,1.938-2.715
	C424.993,239.529,423.104,238.185,422.258,236.571z"/>
<path fill="#E8754D" d="M548.822,117.138c2.274-8.78-4.373-11.743-9.829-18.335c-4.361-5.271-3.996-13.208-0.282-18.508
	c4.356-6.214,9.288-9.352,7.443-17.608c-1.558-6.973-10.315-10.384-9.951-18.024c0.386-8.119,9.936-13.531,11.373-21.295
	c1.605-8.67-11.282-12.996-11.417-20.949c-0.014-0.822,0.063-1.627,0.209-2.418H340.683h-7.943H75.667h-13h-14h-11h-38v157h38h11h14
	h13H332.74h7.943H546.78c-0.018-0.091-0.03-0.18-0.05-0.271c-1.726-7.927-9.918-10.648-8.47-19.323
	C539.542,129.74,546.933,124.426,548.822,117.138z"/>
<path fill="#EE8F2A" d="M475.804,276.538c-0.869-1.659,0.618-3.032,1.966-4.524c1.27-1.402,1.084-2.77,0.053-4.152
	c-1.256-1.687-1.844-3.126-0.595-4.893c1.09-1.547,2.273-3.156,0.694-4.756c-0.858-0.868-2.315-1.489-2.313-2.468
	c0.002-0.904,1.136-2.126,1.733-2.986c0.328-0.473,0.568-1.76,0.724-1.76H371.667v30h106.082
	C478.348,279,476.605,278.073,475.804,276.538z"/>
</svg>
