<?xml version="1.0" encoding="utf-8"?>
<!-- Generator: Adobe Illustrator 16.0.0, SVG Export Plug-In . SVG Version: 6.00 Build 0)  -->
<!DOCTYPE svg PUBLIC "-//W3C//DTD SVG 1.1//EN" "http://www.w3.org/Graphics/SVG/1.1/DTD/svg11.dtd">
<svg version="1.1" id="Layer_1" xmlns="http://www.w3.org/2000/svg" xmlns:xlink="http://www.w3.org/1999/xlink" x="0px" y="0px"
	 width="274.667px" height="235.333px" viewBox="0 0 274.667 235.333" enable-background="new 0 0 274.667 235.333"
	 xml:space="preserve">
<path fill="#E8754D" d="M63.918,230.168c16.704-4.291,35.676-13.938,40.2-29.43l-0.493-0.842c4.256-8.432,3.256-23.393,0.958-32.314
	c-1.875-7.285-8.156-15.291-14.031-20.563c-8.525-7.641-27.603-12.62-43.807-11.875c-13.938,0.639-29.646,6.861-36.398,17.238
	c-7.555,11.615-8.714,26.33-8.714,39.943c0,7.394,0.202,12.59,3.324,19.021c2.874,5.911,7.364,12.106,13.349,15.573
	C30.626,234.062,50.048,233.733,63.918,230.168z M26.825,216.659c-4.562-2.644-7.98-7.363-10.173-11.871
	c-2.377-4.894-2.532-8.854-2.532-14.486c0-10.377,0.885-21.584,6.639-30.439c5.141-7.9,17.116-12.648,27.738-13.133
	c12.343-0.566,26.742,0.514,34.743,8.658c4.176,4.251,7.896,10.507,9.324,16.056c1.752,6.804,2.511,18.204-0.729,24.625l0.374,0.64
	c-3.443,11.807-17.899,19.156-30.627,22.428C51.013,221.853,36.211,222.099,26.825,216.659z"/>
</svg>
