<?xml version="1.0" encoding="utf-8"?>
<!-- Generator: Adobe Illustrator 16.0.0, SVG Export Plug-In . SVG Version: 6.00 Build 0)  -->
<!DOCTYPE svg PUBLIC "-//W3C//DTD SVG 1.1//EN" "http://www.w3.org/Graphics/SVG/1.1/DTD/svg11.dtd">
<svg version="1.1" id="Layer_1" xmlns="http://www.w3.org/2000/svg" xmlns:xlink="http://www.w3.org/1999/xlink" x="0px" y="0px"
	 width="274.667px" height="235.333px" viewBox="0 0 274.667 235.333" enable-background="new 0 0 274.667 235.333"
	 xml:space="preserve">
<path fill="#E8754D" d="M269.205,176.559c-4.588-14.85-14.897-31.717-31.463-35.734l-0.9,0.438
	c-9.01-3.782-25.002-2.896-34.541-0.854c-7.788,1.668-16.348,7.252-21.98,12.475c-8.17,7.578-13.49,24.541-12.695,38.945
	c0.683,12.394,7.334,26.359,18.426,32.355c12.418,6.72,28.147,7.752,42.703,7.752c7.901,0,13.459-0.182,20.328-2.954
	c6.321-2.558,12.946-6.55,16.65-11.87C273.367,206.157,273.016,188.891,269.205,176.559z M254.763,209.54
	c-2.825,4.055-7.874,7.094-12.688,9.041c-5.238,2.113-9.469,2.252-15.49,2.252c-11.094,0-23.076-0.787-32.539-5.904
	c-8.448-4.57-13.522-15.215-14.043-24.655c-0.604-10.976,0.552-23.776,9.261-30.892c4.544-3.711,11.229-7.021,17.163-8.289
	c7.271-1.557,19.457-2.234,26.324,0.648l0.683-0.332c12.62,3.059,20.479,15.914,23.976,27.229
	C260.314,188.034,260.582,201.19,254.763,209.54z"/>
</svg>
