<?xml version="1.0" encoding="utf-8"?>
<!-- Generator: Adobe Illustrator 22.1.0, SVG Export Plug-In . SVG Version: 6.00 Build 0)  -->
<svg version="1.1" id="레이어_1" xmlns="http://www.w3.org/2000/svg" xmlns:xlink="http://www.w3.org/1999/xlink" x="0px"
	 y="0px" viewBox="0 0 45 45" style="enable-background:new 0 0 45 45;" xml:space="preserve">
<style type="text/css">
	.st0{stroke:#FFFFFF;stroke-width:0.5;stroke-miterlimit:10;}
</style>
<g>
	<path class="st0" d="M20.3,28.2l20.8-2.2c0.9-0.1,1.6-0.8,1.7-1.7l1.9-14.6c0.1-0.5-0.1-1.1-0.4-1.5c-0.4-0.4-0.9-0.7-1.4-0.7
		l-29.7-1l-2-4.7C11,1.3,10.4,0.8,9.6,0.7L2.4,0C1.9,0,1.4,0.1,1,0.4C0.6,0.8,0.3,1.2,0.3,1.7c-0.1,0.5,0.1,1,0.4,1.4
		C1,3.6,1.5,3.8,2,3.9l6.1,0.6l9,21.5l-1.2,1.3l0,0c-0.7,0.8-2.8,3.2-1.7,5.5c1,2.2,3.8,2.2,4.2,2.2h23.1c1.1,0,1.9-0.9,1.9-1.9
		c0-1.1-0.9-1.9-1.9-1.9H18.4c-0.1,0-0.3,0-0.4-0.1c0.1-0.3,0.4-0.7,0.9-1.2L20.3,28.2z M20.6,24.3l-5.7-13.7l25.8,0.9l-1.4,11
		L20.6,24.3z"/>
	<path class="st0" d="M38.3,35.1c-2.7,0-4.9,2.2-4.9,4.9c0,2.7,2.2,4.9,4.9,4.9c2.7,0,4.9-2.2,4.9-4.9C43.2,37.3,41,35.1,38.3,35.1z
		 M39.4,40.1c0,0.6-0.5,1.1-1.1,1.1s-1.1-0.5-1.1-1.1c0-0.6,0.5-1.1,1.1-1.1S39.4,39.5,39.4,40.1z"/>
	<path class="st0" d="M19,35.1c-2.7,0-4.9,2.2-4.9,4.9c0,2.7,2.2,4.9,4.9,4.9c2.7,0,4.9-2.2,4.9-4.9C23.9,37.3,21.7,35.1,19,35.1z
		 M20,40.1c0,0.6-0.5,1.1-1.1,1.1c-0.6,0-1.1-0.5-1.1-1.1c0-0.6,0.5-1.1,1.1-1.1C19.5,39,20,39.5,20,40.1z"/>
</g>
</svg>
