<?xml version="1.0" encoding="utf-8"?>
<!-- Generator: Adobe Illustrator 19.0.0, SVG Export Plug-In . SVG Version: 6.00 Build 0)  -->
<svg version="1.1" id="레이어_1" xmlns="http://www.w3.org/2000/svg" xmlns:xlink="http://www.w3.org/1999/xlink" x="0px"
	 y="0px" viewBox="0 0 326 319.6" style="enable-background:new 0 0 326 319.6;" xml:space="preserve">
<style type="text/css">
	.st0{stroke:#000000;stroke-width:7;stroke-miterlimit:10;}
</style>
<g id="XMLID_1991_">
	<path id="XMLID_1992_" class="st0" d="M163,304.8L32.1,173.9l0,0l-1.1-1.1C-5,136.7-5,78,31,41.9c36.1-36.1,94.8-36.1,130.9,0
		L163,43l1.1-1.1c36.1-36.1,94.8-36.1,130.9,0l0,0C331,78,331,136.7,295,172.8L163,304.8z M47,173.9L163,289.8l124.5-124.5
		c31.9-31.9,31.9-83.9,0-115.9c-31.9-31.9-83.9-31.9-115.9,0L163,58l-8.6-8.6c-31.9-31.9-83.9-31.9-115.9,0
		c-31.9,31.9-31.9,83.9,0,115.9L47,173.9L47,173.9z"/>
</g>
</svg>
