<?xml version="1.0" encoding="utf-8"?>
<!-- Generator: Adobe Illustrator 16.0.0, SVG Export Plug-In . SVG Version: 6.00 Build 0)  -->
<!DOCTYPE svg PUBLIC "-//W3C//DTD SVG 1.1//EN" "http://www.w3.org/Graphics/SVG/1.1/DTD/svg11.dtd">
<svg version="1.1" id="Layer_1" xmlns="http://www.w3.org/2000/svg" xmlns:xlink="http://www.w3.org/1999/xlink" x="0px" y="0px"
	 width="446.48px" height="1377px" viewBox="0 0 446.48 1377" enable-background="new 0 0 446.48 1377" xml:space="preserve">
<path fill="#90B5CB" d="M-1675.864,1143.729L-1675.864,1143.729c1.538,0.021,3.076,0.036,4.614,0.057l0,0
	C-1672.787,1143.766-1674.325,1143.751-1675.864,1143.729C-1675.863,1143.729-1675.863,1143.729-1675.864,1143.729z"/>
<g>
	<path fill="#EEE0DF" d="M2366.631,3185.6c-26.771-14.328-41.869-36.946-54.477-61.563
		c-48.684,19.912-104.905,29.291-140.001,33.585c-76.745,9.399-203.663-10.444-203.663-10.444
		c-77.473-9.137-182.364-67.01-182.364-67.01c-26.354-13.535-103.099-65.278-103.099-65.278
		c-77.339-75.934-57.952-83.132-54.123-131.124c3.057-38.433,60.465-67.05,88.975-84.618
		c33.051-20.373,70.799-37.811,107.189-53.316c-0.587-1.315-1.188-2.644-1.759-3.936c-16.052-36.255-32.871-61.993-70.091-76.065
		c-34.652-13.1-75.135-1.097-105-22.611c-47.639-34.321-46.163-99.678-82.085-144.647c-1.167-1.461-1.134-2.913-4.134-4.355V3294
		h904v-92.785C2438,3185.223,2396.153,3201.395,2366.631,3185.6z"/>
	<path fill="#FFFFFF" d="M1561,1910v584.216c4.375,1.442,3.789,2.895,4.957,4.355c35.922,44.97,34.594,110.326,82.233,144.647
		c29.864,21.515,70.688,9.512,105.339,22.611c37.221,14.072,54.209,39.811,70.26,76.065c0.571,1.292,1.255,2.62,1.844,3.936
		c12.861-5.479,25.597-10.73,37.849-15.767c70.745-29.069,140.116-46.873,213.603-48.702c0-0.012,0.014-0.021,0.018-0.032
		c20.455-0.511,41.24,0.243,62.462,2.308c37.54,3.669,78.931,10.563,109.667,36.083c27.019,22.438,28.454,55.583,36.463,88.133
		c20.778,84.436,127.723,116.771,121.914,215.807c-2.842,48.473-44.751,79.959-94.666,100.377
		c12.608,24.616,26.241,47.234,53.014,61.563c29.521,15.795,72.045-0.377,98.045,15.615V1910H1561z"/>
</g>
<g>
	<path fill="#73AEA5" d="M0,496.223c9.005-2.927,18.017-5.839,27.037-8.729c0,0,0,0,0,0s0.001,0,0.001,0
		c-0.006-0.008-0.012-0.018-0.016-0.028c0.04-0.013,0.079-0.025,0.118-0.038c-4.001-7.133-7.911-14.326-11.74-21.571
		C10.126,455.88,5.006,445.802,0,435.646V496.223z"/>
	<g>
		<g>
			<path fill="none" d="M231.124,606.705c-0.041-23.679,0.705-47.451,0.841-71.028C231.829,559.254,231.083,583.026,231.124,606.705
				z"/>
			<path fill="none" d="M236.723,735.759c-0.091-0.053-0.183-0.104-0.276-0.161c-7.609-4.469-15.217-8.95-22.825-13.439
				c2.153,1.27,4.304,2.533,6.456,3.802c5.457,3.216,10.914,6.433,16.37,9.639c0.092,0.055,0.184,0.109,0.276,0.162
				c-0.544-10.586-1.506-29.346-2.471-48.261C235.218,706.415,236.178,725.175,236.723,735.759z"/>
			<path fill="none" d="M231.986,286.834c0-41.459-0.132-82.923-0.138-124.385C231.854,203.912,231.986,245.376,231.986,286.834z"/>
			<path fill="none" d="M169.725,1128.532c0.001,0,0.001-0.001,0.002-0.001c-50.173,0.293-100.34,0.33-150.457-0.19
				C69.386,1128.861,119.552,1128.824,169.725,1128.532z"/>
			<path fill="none" d="M175.517,1128.496L175.517,1128.496c0.128-0.001,0.256-0.002,0.383-0.003
				C175.773,1128.494,175.646,1128.495,175.517,1128.496z"/>
			<path fill="none" d="M288.229,765.805c10.232,5.914,20.958,11.551,31.959,17.072c-7.565-3.797-14.996-7.65-22.229-11.608
				C294.674,769.471,291.426,767.652,288.229,765.805z"/>
			<path fill="none" d="M446.48,359.855c-21.973,3.328-47.754,12.032-65.652,16.879C398.727,371.888,424.508,363.185,446.48,359.855
				z"/>
			<path fill="none" d="M331.273,788.367c-14.88-7.287-29.401-14.677-43.043-22.563c3.196,1.848,6.444,3.666,9.729,5.464
				C308.699,777.146,319.878,782.787,331.273,788.367z"/>
			<path fill="none" d="M155.048,687.5h0.001c-4.055-2.401-8.105-4.803-12.161-7.203c-0.026-0.016-0.052-0.031-0.078-0.046
				c-5.428,2.303-9.725,4.829-14.491,7.249c4.845-2.46,9.7-4.867,14.569-7.202C146.944,682.699,150.995,685.1,155.048,687.5h-0.002
				c4.459,2.642,8.918,5.282,13.377,7.924c5.034,2.98,10.066,5.96,15.097,8.938c-5.032-2.979-10.065-5.959-15.098-8.941
				C163.964,692.782,159.508,690.142,155.048,687.5z"/>
			<path fill="none" d="M99.17,1376c5.395-25.377,10.735-50.128,17.183-72.87C109.906,1325.871,104.565,1350.623,99.17,1376z"/>
			<path fill="#EE8F27" d="M175.517,1128.496c-22.369,57.405-42.434,115.623-59.164,174.634
				c-6.448,22.742-11.788,47.493-17.183,72.87h347.31v-249.676c-0.778,0.002-1.556,0.008-2.334,0.011
				c-89.255,0.295-178.756,1.602-268.246,2.158C175.773,1128.494,175.646,1128.495,175.517,1128.496z"/>
			<path fill="#ECCCC5" d="M175.517,1128.496c-1.93,0.014-3.86,0.023-5.79,0.035c-0.001,0-0.001,0.001-0.002,0.001
				c0.001,0,0.001,0,0.002,0c-57.714,27.651-116,67.879-169.727,107.35V1376h99.17c5.395-25.377,10.735-50.129,17.183-72.87
				C133.083,1244.119,153.148,1185.901,175.517,1128.496z"/>
			<path fill="#718ABA" d="M188.861,1119.813c-4.013,1.723-8.032,3.533-12.053,5.389l0,0
				C180.83,1123.346,184.849,1121.535,188.861,1119.813z"/>
			<path fill="#718ABA" d="M176.809,1125.201c4.021-1.855,8.04-3.666,12.053-5.389
				C184.849,1121.535,180.83,1123.346,176.809,1125.201C176.809,1125.202,176.809,1125.202,176.809,1125.201
				c-0.431,1.099-0.864,2.197-1.292,3.295c0.128-0.001,0.256-0.002,0.383-0.003c89.489-0.559,178.99-1.863,268.246-2.158
				c0.777-0.003,1.555-0.009,2.332-0.011V850.456c-32.887-23.309-71.738-40.989-108.806-58.97
				c-31.224,54.438-61.875,108.653-88.619,166.069C223.401,1012.632,198.992,1068.521,176.809,1125.201z"/>
			<path fill="#718ABA" d="M444.146,1126.335c-89.256,0.295-178.757,1.6-268.246,2.158
				C265.39,1127.937,354.891,1126.63,444.146,1126.335z"/>
			<path fill="#7ABC94" d="M0,1235.881c53.726-39.471,112.012-79.697,169.725-107.349c-50.173,0.292-100.339,0.329-150.455-0.191
				c-6.424-0.067-12.847-0.146-19.27-0.231V1235.881z"/>
			<path fill="#7ABC94" d="M0,1235.882c53.727-39.471,112.013-79.698,169.727-107.35c-0.001,0-0.001,0-0.002,0
				C112.012,1156.184,53.726,1196.41,0,1235.882L0,1235.882z"/>
			<path fill="none" d="M207.22,718.375c4.286,2.531,8.572,5.059,12.858,7.585c-2.152-1.269-4.303-2.532-6.456-3.802
				C211.488,720.899,209.354,719.636,207.22,718.375z"/>
			<polygon fill="none" points="236.731,735.766 236.731,735.764 236.729,735.764 			"/>
			<path fill="none" d="M236.724,735.761c0.001,0.002,0.003,0.002,0.005,0.003h0.003c-0.535-10.584-1.479-29.348-2.432-48.264
				h-0.047C235.218,706.415,236.179,725.175,236.724,735.761z"/>
			<path fill="#EE8F27" d="M297.959,771.269c-3.285-1.798-6.533-3.616-9.729-5.464c-0.129-0.075-0.257-0.15-0.384-0.224
				c0.127,0.073,0.255,0.15,0.383,0.224C291.426,767.652,294.674,769.471,297.959,771.269z"/>
			<path fill="#EE8F27" d="M320.188,782.877c3.667,1.841,7.365,3.669,11.085,5.49c-11.395-5.58-22.574-11.222-33.314-17.099
				C305.192,775.227,312.624,779.08,320.188,782.877z"/>
			<path fill="#90B5CB" d="M320.188,782.877c-11.001-5.521-21.727-11.158-31.959-17.072c-0.128-0.073-0.256-0.15-0.383-0.224
				c-7.716-4.462-15.43-8.945-23.141-13.442c-1.773-1.034-3.545-2.07-5.32-3.104c-7.534-4.401-15.067-8.811-22.599-13.235
				c-0.019-0.011-0.036-0.022-0.055-0.033c-0.002-0.001-0.002-0.002-0.003-0.002h-0.006h0.006c-0.002-0.001-0.004-0.001-0.005-0.003
				c-0.092-0.053-0.184-0.107-0.276-0.162c-5.457-3.206-10.914-6.423-16.37-9.639c5.457,3.216,10.913,6.433,16.369,9.639
				c0.093,0.056,0.185,0.109,0.276,0.162c-0.091-0.053-0.183-0.106-0.276-0.162c-15.217-8.939-30.431-17.923-45.648-26.928
				c-1.207-0.715-2.412-1.429-3.618-2.142c-1.219-0.722-2.439-1.445-3.66-2.167c-5.031-2.979-10.063-5.958-15.097-8.938
				c-4.459-2.642-8.918-5.282-13.377-7.924h0.001c-4.052-2.4-8.103-4.801-12.158-7.202c-4.869,2.335-9.724,4.742-14.569,7.202
				C84.572,709.716,41.74,736.942,0,766.744v361.365c6.423,0.086,12.846,0.164,19.27,0.231c50.117,0.521,100.284,0.483,150.457,0.19
				c1.93-0.012,3.86-0.021,5.79-0.035l0,0h-0.001c0.429-1.099,0.86-2.196,1.292-3.294c22.183-56.681,46.592-112.57,72.245-167.646
				c26.745-57.416,57.396-111.633,88.62-166.069l0,0c0.001,0,0.001-0.001,0.001-0.001c-2.139-1.038-4.272-2.078-6.4-3.118
				C327.553,786.546,323.855,784.718,320.188,782.877z"/>
			<path fill="#90B5CB" d="M249.052,957.556c-25.652,55.076-50.062,110.966-72.245,167.646c0,0,0.001,0,0.001-0.001
				C198.992,1068.521,223.401,1012.632,249.052,957.556c26.745-57.416,57.396-111.632,88.62-166.069l0,0
				C306.448,845.923,275.797,900.14,249.052,957.556z"/>
			<polygon fill="#90B5CB" points="176.809,1125.201 176.808,1125.202 176.809,1125.201 			"/>
			<path fill="#90B5CB" d="M176.809,1125.201C176.809,1125.202,176.808,1125.202,176.809,1125.201
				c-0.433,1.099-0.864,2.196-1.292,3.295h0.001C175.945,1127.398,176.378,1126.3,176.809,1125.201
				C176.809,1125.202,176.809,1125.202,176.809,1125.201z"/>
			<path fill="#90B5CB" d="M190.798,708.671c15.218,9.005,30.432,17.988,45.648,26.928c-5.457-3.206-10.913-6.423-16.369-9.639
				c-4.286-2.526-8.572-5.054-12.858-7.585C201.746,715.142,196.272,711.909,190.798,708.671z"/>
			<path fill="#73AEA5" d="M241.478-1c-4.623,29.33-9.271,58.739-9.446,88.821c-0.144,24.875-0.187,49.751-0.184,74.628
				c0.006,41.461,0.138,82.926,0.138,124.385c0,44.744,0,89.487,0,134.231c47.788-15.739,95.063-31.098,143.553-42.961
				c1.67-0.409,3.438-0.869,5.289-1.37c17.898-4.847,43.679-13.551,65.652-16.879V-1H241.478z"/>
			<path fill="#EEE0DF" d="M0,435.646c5.006,10.156,10.126,20.234,15.399,30.211c3.829,7.245,7.738,14.438,11.74,21.571
				c54.003-17.301,108.055-34.074,161.695-51.88c14.474-4.804,28.705-9.66,43.152-14.482c0-44.744,0-89.487,0-134.231
				c0-41.458-0.132-82.922-0.138-124.385c-0.003-24.877,0.04-49.754,0.184-74.628c0.175-30.082,4.823-59.492,9.446-88.821H75.872
				C49.573,36.722,25.136,76.356,0,113.393V435.646z"/>
			<path fill="#EEE0DF" d="M231.848,162.45c-0.003-24.877,0.04-49.754,0.184-74.628C231.888,112.695,231.845,137.572,231.848,162.45
				z"/>
			<path fill="#90B5CB" d="M75.872-1H0v114.392C25.135,76.355,49.572,36.722,75.872-1z"/>
			<path fill="#90B5CB" d="M0,113.393C25.136,76.356,49.573,36.722,75.872-1C49.572,36.722,25.135,76.355,0,113.392V113.393z"/>
			<path fill="#ECB194" d="M0,596.974v169.77c41.74-29.801,84.571-57.027,128.319-79.243h0.001c4.766-2.42,9.063-4.946,14.491-7.249
				C95.417,652.19,47.891,624.197,0,596.974z"/>
			<path fill="#ECB194" d="M0,766.743L0,766.743c41.74-29.801,84.572-57.027,128.32-79.243h-0.001
				C84.571,709.716,41.74,736.942,0,766.743z"/>
			<path fill="#E8754D" d="M371.343,732.659c-11.196,19.742-22.469,39.298-33.669,58.826c37.07,17.981,75.918,35.662,108.807,58.971
				V687.5v-72.978c-18.214,19.718-35.613,47.648-50.081,72.978C386.419,704.976,377.832,721.215,371.343,732.659z"/>
			<path fill="none" d="M231.124,606.705c0.021,11.84,0.239,23.656,0.828,35.413c0.57,11.416,1.439,28.46,2.301,45.382h0.047
				c-0.851-16.922-1.708-33.966-2.279-45.382c-1.884-37.623-0.035-75.852-0.035-113.509c0,2.354-0.008,4.709-0.021,7.067
				C231.829,559.254,231.083,583.026,231.124,606.705z"/>
			<path fill="#5E8152" d="M27.16,487.465c-0.01,0.003-0.019,0.006-0.03,0.009c0.549,0.98,1.056,1.967,1.609,2.942
				c-0.004-0.009-0.01-0.018-0.015-0.027c0.005,0.009,0.01,0.018,0.014,0.027c-0.547-0.967-1.15-1.942-1.696-2.914
				c-9.021,2.89-18.034,5.802-27.042,8.73v100.628c11.451,6.528,22.882,13.099,34.294,19.7
				c21.313,12.31,42.584,24.732,63.854,37.223c14.93,8.744,29.841,17.485,44.738,26.186h0.191c0,0,0,0.164,0,0.165
				c0-0.001,0,0.081,0,0.081c-0.026-0.016-0.053-0.031-0.079-0.047c-0.064,0.027-0.124,0.055-0.187,0.082
				c0.026,0.015,0.052,0.03,0.078,0.046c4.055,2.4,8.106,4.802,12.161,7.203h-0.001c4.459,2.642,8.916,5.282,13.375,7.921
				c5.033,2.982,10.066,5.962,15.098,8.941c1.22,0.722,2.44,1.445,3.661,2.167c1.206,0.715,2.412,1.43,3.618,2.142
				c5.465,3.234,10.931,6.462,16.396,9.69c2.142,1.265,4.285,2.533,6.426,3.797c7.608,4.489,15.216,8.971,22.825,13.439
				c0.093,0.057,0.185,0.108,0.276,0.161c-0.544-10.584-1.505-29.344-2.47-48.259c-0.862-16.922-1.731-33.966-2.301-45.382
				c-0.589-11.757-0.806-23.573-0.828-35.413c-0.041-23.679,0.705-47.451,0.841-71.028c0.014-2.358,0.021-4.714,0.021-7.067
				c0-35.847,0-71.695,0-107.544c-14.448,4.822-28.679,9.678-43.152,14.482C135.155,453.367,81.202,470.151,27.16,487.465z"/>
			<path fill="#5E8152" d="M213.622,722.158c-2.141-1.264-4.284-2.532-6.426-3.797c0.008,0.004,0.016,0.009,0.024,0.014
				C209.354,719.636,211.488,720.899,213.622,722.158z"/>
			<path fill="#5E8152" d="M190.799,708.671c-1.206-0.712-2.412-1.427-3.618-2.142c-1.22-0.722-2.44-1.445-3.661-2.167
				c1.22,0.722,2.44,1.445,3.66,2.167C188.386,707.242,189.592,707.956,190.799,708.671c5.465,3.234,10.931,6.462,16.396,9.69
				C201.73,715.133,196.265,711.905,190.799,708.671z"/>
			<path fill="#5E8152" d="M207.196,718.361c-5.465-3.229-10.931-6.456-16.397-9.69c5.474,3.238,10.947,6.471,16.421,9.704
				C207.212,718.37,207.204,718.365,207.196,718.361z"/>
			<path fill="#5E8152" d="M188.834,435.547c-53.64,17.806-107.692,34.58-161.695,51.88c0.008,0.012,0.014,0.025,0.021,0.038
				C81.202,470.151,135.155,453.367,188.834,435.547z"/>
			<path fill="#5E8152" d="M34.127,616.465c0.056,0.032,0.112,0.064,0.167,0.097C22.882,609.96,11.451,603.39,0,596.861v0.001
				C11.395,603.357,22.77,609.896,34.127,616.465z"/>
			<path fill="#5E8152" d="M34.127,616.465C22.768,609.904,11.394,603.379,0,596.897v0.076
				c47.891,27.224,95.417,55.217,142.811,83.277c0.063-0.027,0.123-0.055,0.187-0.082c-14.893-8.768-29.764-17.524-44.633-26.257
				C77,641.399,55.595,628.883,34.127,616.465z"/>
			<path fill="#5E8152" d="M142.886,679.97c-14.897-8.7-29.808-17.441-44.738-26.186c0.072,0.043,0.145,0.085,0.217,0.128
				C113.221,662.613,128.061,671.312,142.886,679.97z"/>
			<path fill="#5E8152" d="M231.952,642.118c-0.589-11.757-0.806-23.573-0.828-35.413
				C231.146,618.545,231.363,630.361,231.952,642.118z"/>
			<path fill="#5E8152" d="M34.294,616.562c21.339,12.344,42.617,24.785,63.854,37.223
				C76.878,641.294,55.607,628.871,34.294,616.562z"/>
			<path fill="#5E8152" d="M143.077,680.216c0,0,0-0.082,0-0.081c-0.027,0.012-0.052,0.023-0.079,0.034
				C143.023,680.185,143.051,680.2,143.077,680.216z"/>
			<path fill="#5E8152" d="M142.998,680.169c0.027-0.011,0.052-0.022,0.079-0.034c0-0.001,0-0.165,0-0.165h-0.191
				c-14.825-8.658-29.665-17.356-44.521-26.058C113.234,662.645,128.105,671.401,142.998,680.169z"/>
			<path fill="#5E8152" d="M98.365,653.912c-0.073-0.043-0.145-0.085-0.217-0.128c-21.236-12.438-42.514-24.879-63.854-37.223
				c-0.055-0.032-0.111-0.064-0.167-0.097C55.595,628.883,77,641.399,98.365,653.912z"/>
			<path fill="#5E8152" d="M34.127,616.465C22.77,609.896,11.395,603.357,0,596.862v0.035
				C11.394,603.379,22.768,609.904,34.127,616.465z"/>
			<path fill="#EE8F27" d="M375.54,378.104c-48.49,11.863-95.765,27.222-143.553,42.961c0,35.849,0,71.697,0,107.544
				c0,37.657-1.85,75.886,0.035,113.509c0.57,11.416,1.428,28.46,2.279,45.382c0.952,18.916,1.897,37.68,2.432,48.264l0,0l0,0
				c0,0.001,0,0.001,0,0.002c0.02,0.011,0.037,0.022,0.055,0.033c7.532,4.425,15.065,8.834,22.599,13.235
				c1.774,1.034,3.546,2.07,5.32,3.104c7.71,4.497,15.424,8.98,23.141,13.442c0.127,0.073,0.255,0.148,0.384,0.224
				c13.642,7.886,28.163,15.275,43.043,22.563c2.127,1.04,4.261,2.08,6.4,3.118c11.2-19.528,22.473-39.084,33.669-58.826
				c6.489-11.444,15.077-27.684,25.057-45.159c14.468-25.329,31.867-53.26,50.081-72.978V359.855
				c-21.973,3.33-47.754,12.032-65.652,16.879C378.977,377.236,377.209,377.696,375.54,378.104z"/>
		</g>
		<path fill="#030303" d="M95.154,919.602c-2.773,29.317,1.029,60.685,1.112,90.347c0.053,19.578-3.43,39.079-4.503,58.58
			c-1.343,24.402-1.25,50.14,0.222,74.519c20.04-25.904,43.515-49.901,68.538-72.365c13.378-12.006-2.28-29.211-6.418-43.098
			c-4.068-13.65-8.317-28.218-13.452-41.963c-4.655-12.448-9.361-25.23-16.911-37.341c-6.867-11.015-16.596-19.247-24.142-28.679"/>
	</g>
</g>
<g>
	<g>
		<path fill="none" d="M-1925.997,838.099c-68.265-3.148-130.095,24.804-193.041,41.807
			C-2056.091,862.905-1994.263,834.95-1925.997,838.099z"/>
		<path fill="none" d="M-2119.038,1124.286c68.611,3.124,137.21,7.245,205.761,10.923
			C-1981.827,1131.53-2050.427,1127.41-2119.038,1124.286z"/>
		<path fill="none" d="M-1787.345,548.358c-0.001,0-0.001-0.001-0.002-0.001c0.03,0.939,0.067,1.877,0.122,2.814
			c2.166,36.464,23.667,71.823,35.925,105.767c-12.258-33.943-33.76-69.313-35.924-105.775
			C-1787.278,550.232-1787.316,549.292-1787.345,548.358z"/>
		<path fill="none" d="M-1828.394,1139.436c-25.686-1.146-51.382-2.441-77.084-3.806l0,0
			C-1879.774,1136.994-1854.079,1138.29-1828.394,1139.436c50.751,2.264,101.611,3.586,152.53,4.294c0-0.001,0-0.001,0-0.002
			C-1726.784,1143.021-1777.643,1141.698-1828.394,1139.436z"/>
		<path fill="none" d="M-1931.244,703.177c-0.63-27.012-0.974-54.001-0.974-80.961
			C-1932.218,649.176-1931.874,676.166-1931.244,703.177z"/>
		<path fill="none" d="M-1739.504,695.106c-3.186-11.769-6.697-23.415-10.64-34.888
			C-1746.202,671.691-1742.69,683.338-1739.504,695.106z"/>
		<path fill="none" d="M-1917.281,977.35c-2.446-34.698-4.743-69.406-6.766-104.104c5.091,87.498,11.915,175.047,18.567,262.385
			c0,0,0.001,0,0.001,0C-1909.494,1082.928-1913.56,1030.147-1917.281,977.35z"/>
		<path fill="none" d="M-1929.188,466.56c2.117-62.299,4.935-124.395,7.092-186.661
			C-1924.254,342.165-1927.071,404.26-1929.188,466.56z"/>
		<path fill="none" d="M-1924.109,872.148c-0.66-11.352-1.292-22.701-1.888-34.05
			C-1925.401,849.447-1924.768,860.798-1924.109,872.148z"/>
		<path fill="none" d="M-1932.173,608.744c0.17-41.669,1.1-83.123,2.403-124.471
			C-1931.074,525.621-1932.004,567.076-1932.173,608.744c28.476-12.015,56.923-23.691,85.238-34.956
			C-1875.25,585.053-1903.698,596.729-1932.173,608.744z"/>
		<path fill="#EEE0DF" d="M-1710.511,854.839c-1.821-13.153-3.65-26.37-5.582-39.597
			c-66.855,50.595-140.331,112.166-201.188,162.107c3.721,52.798,7.787,105.578,11.803,158.28
			c25.702,1.364,51.398,2.66,77.084,3.806c50.751,2.263,101.61,3.585,152.53,4.292c-2.77-32.726-12.789-67.198-16.766-98.084
			C-1700.796,982.212-1701.694,918.528-1710.511,854.839z"/>
		<path fill="#ECCCC5" d="M-1719.694,1287.19c-43.661,32.301-94.38,66.646-135.122,104.486h183.566v-140.118
			C-1687.878,1263.634-1704.079,1275.639-1719.694,1287.19z"/>
		<rect x="-1905.479" y="1135.629" fill="#718ABA" width="0" height="0.001"/>
		<path fill="#718ABA" d="M-1913.277,1135.209c-68.551-3.678-137.15-7.799-205.761-10.923v267.391h230.804
			c-4.375-84.975-10.718-170.407-17.246-256.047C-1908.078,1135.491-1910.678,1135.349-1913.277,1135.209z"/>
		<path fill="#7ABC94" d="M-1719.694,1287.189c15.615-11.552,31.816-23.557,48.444-35.632v-107.771
			c-1.538-0.021-3.077-0.035-4.614-0.057l0,0c-50.919-0.708-101.779-2.03-152.53-4.293c-25.685-1.146-51.38-2.442-77.084-3.807
			c6.526,85.64,12.87,171.073,17.244,256.047l0,0v0.001h33.417c0,0,0-0.001,0.001-0.001h-0.001
			C-1814.074,1353.835-1763.355,1319.49-1719.694,1287.189z"/>
		<path fill="#7ABC94" d="M-1671.25,1251.559L-1671.25,1251.559c-16.628,12.074-32.83,24.079-48.444,35.631
			c-43.661,32.301-94.38,66.646-135.123,104.487h0.001c40.741-37.841,91.461-72.186,135.122-104.486
			C-1704.079,1275.639-1687.878,1263.634-1671.25,1251.559z"/>
		<path fill="#7ABC94" d="M-1905.478,1135.63c0,0-0.001,0-0.001,0c6.528,85.64,12.871,171.072,17.246,256.047l0,0
			C-1892.608,1306.703-1898.952,1221.27-1905.478,1135.63z"/>
		<path fill="#EE8F27" d="M-1905.479,1135.63c-6.652-87.338-13.476-174.887-18.567-262.385c-0.021-0.366-0.042-0.731-0.063-1.097
			c-0.659-11.351-1.292-22.701-1.888-34.05c-68.266-3.148-130.095,24.807-193.041,41.807v244.381
			c68.611,3.124,137.211,7.244,205.761,10.923C-1910.678,1135.349-1908.078,1135.491-1905.479,1135.63z"/>
		<path fill="#EE8F27" d="M-1913.277,1135.209c2.599,0.14,5.199,0.282,7.797,0.421l0,0
			C-1908.078,1135.491-1910.678,1135.349-1913.277,1135.209z"/>
		<path fill="#90B5CB" d="M-1710.51,854.839c8.816,63.689,9.714,127.373,17.882,190.805c3.977,30.887,13.995,65.359,16.766,98.084
			c0,0-0.001,0-0.001,0c0,0.001,0,0.001,0,0.002c0,0,0,0,0.001,0c1.538,0.021,3.076,0.036,4.613,0.057V782.421
			c-15.09,10.65-30.043,21.621-44.842,32.82C-1714.16,828.468-1712.331,841.686-1710.51,854.839z"/>
		<path fill="#90B5CB" d="M-1710.511,854.839c8.817,63.689,9.715,127.373,17.882,190.805c3.977,30.886,13.996,65.358,16.766,98.084
			c0,0,0,0,0.001,0c-2.771-32.725-12.789-67.197-16.766-98.084C-1700.796,982.212-1701.694,918.528-1710.511,854.839
			c-1.82-13.153-3.649-26.371-5.58-39.598c0,0-0.001,0.001-0.001,0.001C-1714.161,828.469-1712.332,841.686-1710.511,854.839z"/>
		<path fill="#73AEA5" d="M-1787.345,548.358c0-0.006-0.001-0.013-0.001-0.02c1.027,0.58,2.054,1.14,3.082,1.719
			c-0.003,0.001-0.008-0.039-0.011-0.038c0.005,0.003,0.01,0.006,0.016,0.009c-0.001-0.004-0.004-0.014-0.004-0.014
			c0.031,0.018,0.061,0.034,0.092,0.052c37.329-13.452,75.047-25.997,112.923-38.167v-60.577
			c-30.548-61.266-56.788-125.437-86.164-188.219c-1.109,1.826-2.218,3.65-3.331,5.458c1.112-1.807,2.222-3.632,3.331-5.458
			c-10.013-21.399-20.386-42.639-31.424-63.546c-32.364-61.295-89.413-106.595-122.722-165.793
			c-0.711-1.263-1.386-2.568-2.031-3.906c-15.135,78.695-5.749,170.425-8.507,250.04c-2.157,62.266-4.975,124.362-7.092,186.661
			c47.164,27.396,94.238,54.946,141.841,81.798C-1787.347,548.357-1787.346,548.358-1787.345,548.358z"/>
		<path fill="#EEE0DF" d="M-1671.25,129.07c-6.284,9.153-12.61,18.154-19.02,26.921c-25.231,34.509-46.006,72.319-67.144,107.113
			c29.377,62.782,55.616,126.953,86.164,188.219V129.07z"/>
		<path fill="#EEE0DF" d="M-1671.25,451.322c-30.548-61.266-56.787-125.437-86.164-188.219
			C-1728.037,325.886-1701.798,390.057-1671.25,451.322L-1671.25,451.322z"/>
		<path fill="#90B5CB" d="M-1911.978,21.945c-0.567,2.621-1.103,5.26-1.612,7.911c0,0,0,0.001,0,0.001
			c0.646,1.338,1.32,2.644,2.032,3.907c33.309,59.198,90.359,104.498,122.72,165.793c11.038,20.907,21.411,42.147,31.424,63.546
			c21.138-34.795,41.913-72.604,67.144-107.115c6.41-8.767,12.736-17.768,19.02-26.92V14.677h-247.904
			c1.493,5.42,3.322,10.522,5.564,15.179C-1913.081,27.205-1912.545,24.566-1911.978,21.945z"/>
		<path fill="#90B5CB" d="M-1788.837,199.558c-32.361-61.295-89.412-106.595-122.72-165.793c-0.712-1.264-1.386-2.569-2.032-3.907
			c0,0,0,0.001,0,0.001c0.645,1.338,1.319,2.643,2.031,3.906C-1878.25,92.963-1821.201,138.262-1788.837,199.558z"/>
		<path fill="#90B5CB" d="M-1671.25,129.07v-0.001c-6.284,9.153-12.61,18.154-19.02,26.92
			c-25.231,34.511-46.006,72.32-67.144,107.115c21.138-34.794,41.913-72.604,67.144-107.113
			C-1683.86,147.224-1677.534,138.223-1671.25,129.07z"/>
		<path fill="#E1B58E" d="M-1929.188,466.56c2.117-62.3,4.935-124.395,7.092-186.661c2.758-79.615-6.628-171.345,8.507-250.04
			c0,0,0-0.001,0-0.001c-2.242-4.657-4.072-9.76-5.564-15.181h-199.883V360.52c4.149,2.104,8.249,4.22,12.273,6.349
			C-2046.591,398.708-1987.812,432.506-1929.188,466.56z"/>
		<rect x="-1913.591" y="29.857" fill="#E1B58E" width="0.002" height="0.002"/>
		<path fill="#E1B58E" d="M-1913.59,29.856c-2.242-4.657-4.071-9.759-5.564-15.179h-0.001c1.492,5.421,3.322,10.523,5.564,15.181
			C-1913.59,29.857-1913.59,29.856-1913.59,29.856z"/>
		<path fill="#E8754D" d="M-1716.093,815.242L-1716.093,815.242c0-0.001,0.001-0.002,0.001-0.002
			c-5.499-37.67-11.855-75.424-21.277-112.063c-0.693-2.697-1.409-5.386-2.135-8.07c-3.187-11.769-6.698-23.415-10.64-34.888
			c-0.375-1.092-0.761-2.186-1.156-3.28c-12.258-33.943-33.76-69.303-35.925-105.767c-20.032,7.25-39.95,14.758-59.709,22.616
			c-28.315,11.265-56.762,22.941-85.239,34.957c-0.02,4.49-0.044,8.978-0.044,13.471c0,26.96,0.344,53.949,0.974,80.961
			c1.046,44.927,2.884,89.912,5.248,134.922c0.596,11.349,1.228,22.698,1.888,34.05c0.021,0.365,0.041,0.73,0.063,1.097
			c2.022,34.698,4.32,69.406,6.766,104.104C-1856.423,927.408-1782.948,865.837-1716.093,815.242z"/>
		<path fill="#E8754D" d="M-1924.046,873.245c-0.021-0.366-0.042-0.731-0.063-1.097
			C-1924.088,872.514-1924.068,872.879-1924.046,873.245z"/>
		<rect x="-1716.093" y="815.241" fill="#E8754D" width="0.002" height="0.001"/>
		<path fill="#ECB194" d="M-1784.258,550.103C-1784.258,550.103-1784.258,550.103-1784.258,550.103L-1784.258,550.103
			c-1.03-0.581-2.058-1.163-3.087-1.744c0.029,0.934,0.067,1.874,0.121,2.805c2.165,36.462,23.666,71.832,35.924,105.775
			c0.395,1.095,0.781,2.188,1.156,3.28c3.943,11.473,7.454,23.119,10.64,34.888c0.727,2.685,1.442,5.373,2.135,8.07
			c9.422,36.64,15.778,74.394,21.277,112.063c14.799-11.2,29.751-22.17,44.842-32.82V612.65
			c-19.314-10.853-38.682-21.595-58.131-32.152C-1747.782,570.51-1766.056,560.354-1784.258,550.103z"/>
		<path fill="#ECB194" d="M-1716.091,815.24L-1716.091,815.24c14.799-11.198,29.751-22.169,44.842-32.819v-0.001
			C-1686.34,793.07-1701.292,804.04-1716.091,815.24z"/>
		<path fill="#ECB194" d="M-1784.258,550.103c-0.001-0.002-0.004-0.003-0.006-0.004c0.014-0.005,0.029-0.01,0.043-0.016
			c-0.008,0.003-0.018,0.006-0.021,0.005c-0.003,0.001-0.013-0.042-0.019-0.06c-0.005-0.003-0.011-0.006-0.016-0.009
			c0.003-0.001,0.008,0.039,0.011,0.038c-1.028-0.579-2.055-1.139-3.082-1.719c0,0.007,0,0.014,0.001,0.02
			C-1786.316,548.939-1785.288,549.521-1784.258,550.103L-1784.258,550.103z"/>
		<path fill="#ECB194" d="M-1737.369,703.177c-0.693-2.697-1.409-5.386-2.135-8.07
			C-1738.777,697.791-1738.062,700.479-1737.369,703.177z"/>
		<path fill="#5E8152" d="M-1846.935,573.788c19.76-7.858,39.678-15.366,59.709-22.616c-0.055-0.938-0.092-1.875-0.122-2.814
			c-47.603-26.852-94.677-54.4-141.841-81.798c-0.201,5.903-0.395,11.807-0.581,17.714c-1.304,41.348-2.233,82.802-2.403,124.471
			C-1903.698,596.729-1875.25,585.053-1846.935,573.788z"/>
		<path fill="#5E8152" d="M-1929.188,466.56c47.164,27.398,94.238,54.946,141.841,81.798
			C-1834.95,521.506-1882.025,493.956-1929.188,466.56z"/>
		<path fill="#73AEA5" d="M-1925.997,838.099c-2.364-45.01-4.201-89.995-5.248-134.922c-0.63-27.011-0.974-54.001-0.974-80.961
			c0-4.493,0.024-8.98,0.044-13.471c-62.527,26.386-125.182,54.42-186.864,83.366v11.065v176.729
			C-2056.091,862.902-1994.262,834.95-1925.997,838.099z"/>
		<path fill="#7ABC94" d="M-1929.77,484.273c0.187-5.907,0.38-11.811,0.581-17.714c-58.624-34.053-117.403-67.852-177.576-99.691
			c-4.025-2.128-8.124-4.244-12.273-6.349v331.592c61.682-28.946,124.337-56.98,186.864-83.366
			C-1932.004,567.076-1931.074,525.621-1929.77,484.273z"/>
		<path fill="#7ABC94" d="M-2119.038,360.52c4.149,2.105,8.249,4.22,12.273,6.349
			C-2110.789,364.74-2114.888,362.624-2119.038,360.52z"/>
		<path fill="#5E8152" d="M-1729.39,580.334c4.267,2.315,8.53,4.642,12.789,6.976c15.159,8.308,30.272,16.732,45.351,25.229V511.91
			c-37.873,12.167-75.595,24.71-112.917,38.159C-1765.996,560.303-1747.758,570.364-1729.39,580.334z"/>
		<path fill="#5E8152" d="M-1769.667,558.199c-0.828-0.462-1.656-0.924-2.484-1.387
			C-1771.323,557.274-1770.495,557.737-1769.667,558.199z"/>
		<path fill="#5E8152" d="M-1784.172,550.066c0.002,0.001,0.004,0.002,0.006,0.003c37.322-13.449,75.044-25.992,112.917-38.159
			v-0.011C-1709.125,524.069-1746.844,536.614-1784.172,550.066z"/>
		<path fill="#5E8152" d="M-1671.25,612.539L-1671.25,612.539c-15.079-8.497-30.192-16.922-45.351-25.229
			C-1701.441,595.617-1686.329,604.042-1671.25,612.539z"/>
		<path fill="#5E8152" d="M-1729.285,580.457c-13.516-7.336-26.967-14.775-40.381-22.258c-0.829-0.462-1.656-0.925-2.484-1.387
			c-4.018-2.244-8.05-4.473-12.056-6.729c-0.017,0.006-0.034,0.012-0.052,0.019c0,0,0,0,0,0
			c18.202,10.251,36.476,20.407,54.877,30.396c19.45,10.558,38.817,21.3,58.131,32.152v-0.076
			C-1690.524,601.735-1709.853,591.006-1729.285,580.457z"/>
		<path fill="#5E8152" d="M-1784.221,550.083c-0.015,0.006-0.029,0.011-0.043,0.016c0.002,0.001,0.004,0.002,0.006,0.004
			c0.018-0.007,0.035-0.013,0.052-0.019c-0.001-0.001-0.003-0.002-0.005-0.003C-1784.212,550.081-1784.217,550.082-1784.221,550.083
			z"/>
		<path fill="#5E8152" d="M-1784.172,550.066c-0.031-0.018-0.061-0.034-0.092-0.052c0,0,0.003,0.01,0.004,0.014
			c0.025,0.014,0.05,0.028,0.075,0.042C-1784.181,550.069-1784.177,550.067-1784.172,550.066z"/>
		<path fill="#5E8152" d="M-1784.221,550.083c0.012-0.004,0.024-0.009,0.036-0.013c-0.025-0.014-0.05-0.028-0.075-0.042
			c0.006,0.018,0.016,0.061,0.019,0.06C-1784.239,550.089-1784.229,550.086-1784.221,550.083z"/>
		<path fill="#5E8152" d="M-1772.15,556.813c0.828,0.463,1.656,0.925,2.484,1.387c13.372,7.448,26.792,14.815,40.277,22.135
			c-18.368-9.97-36.606-20.031-54.776-30.265c-0.004,0.002-0.008,0.003-0.012,0.005
			C-1780.174,552.329-1776.164,554.573-1772.15,556.813z"/>
		<polygon fill="#5E8152" points="-1784.178,550.074 -1784.166,550.069 -1784.172,550.066 -1784.185,550.07 		"/>
		<path fill="#5E8152" d="M-1729.285,580.457c19.433,10.549,38.761,21.278,58.036,32.117v-0.035
			c-15.079-8.497-30.192-16.922-45.351-25.229c-4.259-2.334-8.522-4.66-12.789-6.976c-13.485-7.319-26.905-14.687-40.277-22.135
			C-1756.252,565.682-1742.801,573.121-1729.285,580.457z"/>
		<path fill="#5E8152" d="M-1784.207,550.084c4.006,2.256,8.039,4.484,12.056,6.729c-4.013-2.239-8.023-4.483-12.028-6.738
			C-1784.188,550.077-1784.197,550.08-1784.207,550.084z"/>
		<path fill="#5E8152" d="M-1784.185,550.07c-0.012,0.004-0.024,0.009-0.036,0.013c0.003-0.001,0.008-0.002,0.009-0.002
			c0.001,0.001,0.003,0.002,0.005,0.003c0.009-0.004,0.019-0.007,0.028-0.01C-1784.181,550.073-1784.183,550.071-1784.185,550.07z"
			/>
	</g>
	<path fill="#030303" d="M-1761.463,939.966c2.526,29.655-0.938,61.384-1.014,91.388c-0.048,19.805,3.124,39.528,4.101,59.255
		c1.223,24.684,1.138,50.717-0.202,75.376c-18.25-26.202-39.631-50.477-62.422-73.197c-12.184-12.145,2.077-29.547,5.846-43.593
		c3.706-13.811,7.576-28.545,12.254-42.448c4.237-12.591,8.525-25.521,15.401-37.771c6.254-11.142,15.116-19.468,21.987-29.01"/>
</g>
</svg>
