<?xml version="1.0" encoding="utf-8"?>
<!-- Generator: Adobe Illustrator 16.0.0, SVG Export Plug-In . SVG Version: 6.00 Build 0)  -->
<!DOCTYPE svg PUBLIC "-//W3C//DTD SVG 1.1//EN" "http://www.w3.org/Graphics/SVG/1.1/DTD/svg11.dtd">
<svg version="1.1" id="Layer_1" xmlns="http://www.w3.org/2000/svg" xmlns:xlink="http://www.w3.org/1999/xlink" x="0px" y="0px"
	 width="446.48px" height="1377px" viewBox="0 0 446.48 1377" enable-background="new 0 0 446.48 1377" xml:space="preserve">
<path fill="#90B5CB" d="M444.173,1129.053L444.173,1129.053c1.538,0.021,3.076,0.036,4.614,0.057l0,0
	C447.25,1129.089,445.712,1129.074,444.173,1129.053C444.174,1129.053,444.174,1129.053,444.173,1129.053z"/>
<g>
	<path fill="#EEE0DF" d="M2366.631,3185.6c-26.771-14.328-41.869-36.946-54.477-61.563
		c-48.684,19.912-104.905,29.291-140.001,33.585c-76.745,9.399-203.663-10.444-203.663-10.444
		c-77.473-9.137-182.364-67.01-182.364-67.01c-26.354-13.535-103.099-65.278-103.099-65.278
		c-77.339-75.934-57.952-83.132-54.123-131.124c3.057-38.433,60.465-67.05,88.975-84.618
		c33.051-20.373,70.799-37.811,107.189-53.316c-0.587-1.315-1.188-2.644-1.759-3.936c-16.052-36.255-32.871-61.993-70.091-76.065
		c-34.652-13.1-75.135-1.097-105-22.611c-47.639-34.321-46.163-99.678-82.085-144.647c-1.167-1.461-1.134-2.913-4.134-4.355V3294
		h904v-92.785C2438,3185.223,2396.153,3201.395,2366.631,3185.6z"/>
	<path fill="#FFFFFF" d="M1561,1910v584.216c4.375,1.442,3.789,2.895,4.957,4.355c35.922,44.97,34.594,110.326,82.233,144.647
		c29.864,21.515,70.688,9.512,105.339,22.611c37.221,14.072,54.209,39.811,70.26,76.065c0.571,1.292,1.255,2.62,1.844,3.936
		c12.861-5.479,25.597-10.73,37.849-15.767c70.745-29.069,140.116-46.873,213.603-48.702c0-0.012,0.014-0.021,0.018-0.032
		c20.455-0.511,41.24,0.243,62.462,2.308c37.54,3.669,78.931,10.563,109.667,36.083c27.019,22.438,28.454,55.583,36.463,88.133
		c20.778,84.436,127.723,116.771,121.914,215.807c-2.842,48.473-44.751,79.959-94.666,100.377
		c12.608,24.616,26.241,47.234,53.014,61.563c29.521,15.795,72.045-0.377,98.045,15.615V1910H1561z"/>
</g>
<g>
	<path fill="#73AEA5" d="M1978.588,463.635c9.11-2.927,18.228-5.839,27.353-8.729c0,0,0,0,0,0s0.001,0,0.001,0
		c-0.006-0.008-0.012-0.018-0.017-0.028c0.04-0.013,0.08-0.025,0.119-0.038c-4.048-7.133-8.003-14.326-11.877-21.571
		c-5.335-9.977-10.515-20.055-15.579-30.21V463.635z"/>
	<g>
		<g>
			<path fill="none" d="M2212.412,574.117c-0.041-23.679,0.713-47.451,0.851-71.028
				C2213.125,526.666,2212.371,550.438,2212.412,574.117z"/>
			<path fill="none" d="M2218.076,703.171c-0.093-0.053-0.186-0.104-0.279-0.161c-7.698-4.469-15.395-8.95-23.092-13.439
				c2.178,1.27,4.354,2.533,6.531,3.802c5.521,3.216,11.041,6.433,16.562,9.639c0.093,0.055,0.186,0.109,0.279,0.162
				c-0.551-10.586-1.523-29.346-2.5-48.261C2216.554,673.827,2217.525,692.587,2218.076,703.171z"/>
			<path fill="none" d="M2213.284,254.247c0-41.459-0.134-82.923-0.14-124.385C2213.15,171.324,2213.284,212.789,2213.284,254.247z"
				/>
			<path fill="none" d="M2150.296,1095.944c0.001,0,0.001-0.001,0.002-0.001c-50.76,0.293-101.513,0.33-152.215-0.19
				C2048.784,1096.273,2099.536,1096.236,2150.296,1095.944z"/>
			<path fill="none" d="M2156.155,1095.908L2156.155,1095.908c0.13-0.001,0.259-0.002,0.388-0.003
				C2156.414,1095.906,2156.285,1095.907,2156.155,1095.908z"/>
			<path fill="none" d="M2270.185,733.217c10.352,5.914,21.202,11.551,32.332,17.072c-7.653-3.797-15.171-7.65-22.488-11.608
				C2276.704,736.883,2273.418,735.064,2270.185,733.217z"/>
			<path fill="none" d="M2430.284,327.268c-22.229,3.328-48.312,12.032-66.419,16.879
				C2381.973,339.3,2408.055,330.597,2430.284,327.268z"/>
			<path fill="none" d="M2313.731,755.779c-15.054-7.287-29.745-14.677-43.546-22.563c3.233,1.848,6.52,3.666,9.843,5.464
				C2290.894,744.558,2302.203,750.199,2313.731,755.779z"/>
			<path fill="none" d="M2135.447,654.912h0.002c-4.103-2.401-8.2-4.803-12.303-7.203c-0.026-0.016-0.053-0.031-0.079-0.046
				c-5.491,2.303-9.839,4.829-14.66,7.249c4.901-2.46,9.813-4.867,14.739-7.202C2127.249,650.111,2131.347,652.512,2135.447,654.912
				h-0.002c4.512,2.642,9.022,5.282,13.534,7.924c5.093,2.98,10.184,5.96,15.273,8.938c-5.091-2.979-10.183-5.959-15.274-8.941
				C2144.468,660.194,2139.959,657.554,2135.447,654.912z"/>
			<path fill="none" d="M2078.917,1343.412c5.458-25.377,10.86-50.128,17.384-72.87
				C2089.777,1293.283,2084.375,1318.035,2078.917,1343.412z"/>
			<path fill="#EE8F27" d="M2156.155,1095.908c-22.63,57.405-42.93,115.623-59.854,174.634
				c-6.523,22.742-11.926,47.493-17.384,72.87h351.367v-249.676c-0.787,0.002-1.574,0.008-2.361,0.011
				c-90.298,0.295-180.845,1.602-271.38,2.158C2156.414,1095.906,2156.285,1095.907,2156.155,1095.908z"/>
			<path fill="#ECCCC5" d="M2156.155,1095.908c-1.952,0.014-3.905,0.023-5.857,0.035c-0.001,0-0.001,0.001-0.002,0.001
				c0.001,0,0.001,0,0.002,0c-58.389,27.651-117.355,67.879-171.71,107.35v140.118h100.329c5.458-25.377,10.86-50.129,17.384-72.87
				C2113.226,1211.531,2133.525,1153.313,2156.155,1095.908z"/>
			<path fill="#718ABA" d="M2169.655,1087.225c-4.06,1.723-8.126,3.533-12.193,5.389l0,0
				C2161.53,1090.758,2165.596,1088.947,2169.655,1087.225z"/>
			<path fill="#718ABA" d="M2157.462,1092.613c4.067-1.855,8.134-3.666,12.193-5.389
				C2165.596,1088.947,2161.53,1090.758,2157.462,1092.613C2157.462,1092.614,2157.462,1092.614,2157.462,1092.613
				c-0.436,1.099-0.874,2.197-1.307,3.295c0.13-0.001,0.259-0.002,0.388-0.003c90.534-0.559,181.081-1.863,271.38-2.158
				c0.786-0.003,1.573-0.009,2.359-0.011V817.868c-33.271-23.309-72.576-40.989-110.077-58.97
				c-31.589,54.438-62.599,108.653-89.654,166.069C2204.599,980.044,2179.904,1035.934,2157.462,1092.613z"/>
			<path fill="#718ABA" d="M2427.923,1093.747c-90.299,0.295-180.846,1.6-271.38,2.158
				C2247.078,1095.349,2337.625,1094.042,2427.923,1093.747z"/>
			<path fill="#7ABC94" d="M1978.588,1203.293c54.354-39.471,113.32-79.697,171.708-107.349
				c-50.76,0.292-101.512,0.329-152.213-0.191c-6.499-0.067-12.997-0.146-19.495-0.231V1203.293z"/>
			<path fill="#7ABC94" d="M1978.588,1203.294c54.354-39.471,113.321-79.698,171.71-107.35c-0.001,0-0.001,0-0.002,0
				C2091.908,1123.596,2032.941,1163.822,1978.588,1203.294L1978.588,1203.294z"/>
			<path fill="none" d="M2188.229,685.787c4.336,2.531,8.672,5.059,13.008,7.585c-2.177-1.269-4.354-2.532-6.531-3.802
				C2192.547,688.312,2190.388,687.048,2188.229,685.787z"/>
			<polygon fill="none" points="2218.085,703.178 2218.085,703.176 2218.082,703.176 			"/>
			<path fill="none" d="M2218.077,703.173c0.001,0.002,0.003,0.002,0.005,0.003h0.003c-0.541-10.584-1.497-29.348-2.46-48.264
				h-0.048C2216.554,673.827,2217.526,692.587,2218.077,703.173z"/>
			<path fill="#EE8F27" d="M2280.028,738.681c-3.323-1.798-6.609-3.616-9.843-5.464c-0.131-0.075-0.26-0.15-0.389-0.224
				c0.129,0.073,0.258,0.15,0.388,0.224C2273.418,735.064,2276.704,736.883,2280.028,738.681z"/>
			<path fill="#EE8F27" d="M2302.517,750.289c3.71,1.841,7.451,3.669,11.215,5.49c-11.528-5.58-22.838-11.222-33.703-17.099
				C2287.346,742.639,2294.863,746.492,2302.517,750.289z"/>
			<path fill="#90B5CB" d="M2302.517,750.289c-11.13-5.521-21.98-11.158-32.332-17.072c-0.13-0.073-0.259-0.15-0.388-0.224
				c-7.807-4.462-15.61-8.945-23.411-13.442c-1.794-1.034-3.587-2.07-5.382-3.104c-7.622-4.401-15.243-8.811-22.863-13.235
				c-0.019-0.011-0.036-0.022-0.056-0.033c-0.002-0.001-0.002-0.002-0.003-0.002h-0.006h0.006c-0.002-0.001-0.004-0.001-0.005-0.003
				c-0.094-0.053-0.187-0.107-0.279-0.162c-5.521-3.206-11.041-6.423-16.562-9.639c5.521,3.216,11.04,6.433,16.561,9.639
				c0.094,0.056,0.187,0.109,0.279,0.162c-0.093-0.053-0.186-0.106-0.279-0.162c-15.395-8.939-30.786-17.923-46.182-26.928
				c-1.221-0.715-2.44-1.429-3.66-2.142c-1.233-0.722-2.468-1.445-3.702-2.167c-5.09-2.979-10.181-5.958-15.273-8.938
				c-4.512-2.642-9.022-5.282-13.534-7.924h0.001c-4.1-2.4-8.197-4.801-12.3-7.202c-4.926,2.335-9.838,4.742-14.739,7.202
				c-44.26,22.216-87.592,49.442-129.819,79.244v361.365c6.498,0.086,12.996,0.164,19.495,0.231
				c50.702,0.521,101.455,0.483,152.215,0.19c1.952-0.012,3.905-0.021,5.857-0.035l0,0h-0.001c0.434-1.099,0.87-2.196,1.307-3.294
				c22.442-56.681,47.137-112.57,73.089-167.646c27.057-57.416,58.066-111.633,89.655-166.069l0,0c0.001,0,0.001-0.001,0.001-0.001
				c-2.164-1.038-4.322-2.078-6.475-3.118C2309.968,753.958,2306.227,752.13,2302.517,750.289z"/>
			<path fill="#90B5CB" d="M2230.55,924.968c-25.952,55.076-50.646,110.966-73.089,167.646c0,0,0.001,0,0.001-0.001
				C2179.904,1035.934,2204.599,980.044,2230.55,924.968c27.057-57.416,58.066-111.632,89.655-166.069l0,0
				C2288.616,813.335,2257.606,867.552,2230.55,924.968z"/>
			<polygon fill="#90B5CB" points="2157.462,1092.613 2157.461,1092.614 2157.462,1092.613 			"/>
			<path fill="#90B5CB" d="M2157.462,1092.613C2157.462,1092.614,2157.461,1092.614,2157.462,1092.613
				c-0.438,1.099-0.874,2.196-1.308,3.295h0.001C2156.588,1094.811,2157.026,1093.712,2157.462,1092.613
				C2157.462,1092.614,2157.462,1092.614,2157.462,1092.613z"/>
			<path fill="#90B5CB" d="M2171.615,676.083c15.396,9.005,30.787,17.988,46.182,26.928c-5.521-3.206-11.04-6.423-16.561-9.639
				c-4.336-2.526-8.672-5.054-13.008-7.585C2182.69,682.554,2177.153,679.321,2171.615,676.083z"/>
			<path fill="#73AEA5" d="M2222.887-33.588c-4.677,29.33-9.379,58.739-9.557,88.821c-0.146,24.875-0.188,49.751-0.186,74.628
				c0.006,41.461,0.14,82.926,0.14,124.385c0,44.744,0,89.487,0,134.231c48.347-15.739,96.174-31.098,145.23-42.961
				c1.689-0.409,3.478-0.869,5.351-1.37c18.107-4.847,44.189-13.551,66.419-16.879V-33.588H2222.887z"/>
			<path fill="#EEE0DF" d="M1978.588,403.058c5.064,10.156,10.244,20.234,15.579,30.211c3.874,7.245,7.829,14.438,11.877,21.571
				c54.634-17.301,109.317-34.074,163.584-51.88c14.643-4.804,29.04-9.66,43.656-14.482c0-44.744,0-89.487,0-134.231
				c0-41.458-0.134-82.922-0.14-124.385c-0.003-24.877,0.04-49.754,0.186-74.628c0.178-30.082,4.88-59.492,9.557-88.821h-167.541
				c-26.605,37.722-51.328,77.356-76.758,114.393V403.058z"/>
			<path fill="#EEE0DF" d="M2213.145,129.862c-0.003-24.877,0.04-49.754,0.186-74.628
				C2213.185,80.107,2213.142,104.984,2213.145,129.862z"/>
			<path fill="#90B5CB" d="M2055.346-33.588h-76.758V80.804C2004.017,43.768,2028.739,4.134,2055.346-33.588z"/>
			<path fill="#90B5CB" d="M1978.588,80.805c25.43-37.037,50.152-76.671,76.758-114.393
				c-26.606,37.722-51.329,77.355-76.758,114.392V80.805z"/>
			<path fill="#ECB194" d="M1978.588,564.386v169.77c42.228-29.801,85.559-57.027,129.818-79.243h0.001
				c4.821-2.42,9.169-4.946,14.66-7.249C2075.119,619.603,2027.038,591.609,1978.588,564.386z"/>
			<path fill="#ECB194" d="M1978.588,734.155L1978.588,734.155c42.228-29.801,85.56-57.027,129.819-79.243h-0.001
				C2064.146,677.128,2020.815,704.354,1978.588,734.155z"/>
			<path fill="#E8754D" d="M2354.269,700.071c-11.327,19.742-22.731,39.298-34.063,58.826
				c37.503,17.981,76.805,35.662,110.078,58.971V654.912v-72.978c-18.427,19.718-36.029,47.648-50.666,72.978
				C2369.521,672.388,2360.834,688.627,2354.269,700.071z"/>
			<path fill="none" d="M2212.412,574.117c0.021,11.84,0.241,23.656,0.837,35.413c0.577,11.416,1.456,28.46,2.328,45.382h0.048
				c-0.861-16.922-1.729-33.966-2.306-45.382c-1.906-37.623-0.035-75.852-0.035-113.509c0,2.354-0.008,4.709-0.021,7.067
				C2213.125,526.666,2212.371,550.438,2212.412,574.117z"/>
			<path fill="#5E8152" d="M2006.065,454.877c-0.01,0.003-0.02,0.006-0.03,0.009c0.556,0.98,1.068,1.967,1.628,2.942
				c-0.005-0.009-0.011-0.018-0.016-0.027c0.005,0.009,0.01,0.018,0.015,0.027c-0.554-0.967-1.164-1.942-1.716-2.914
				c-9.127,2.89-18.245,5.802-27.358,8.73v100.628c11.585,6.528,23.149,13.099,34.694,19.7c21.563,12.31,43.082,24.732,64.6,37.223
				c15.104,8.744,30.189,17.485,45.261,26.186h0.193c0,0,0,0.164,0,0.165c0-0.001,0,0.081,0,0.081
				c-0.026-0.016-0.054-0.031-0.08-0.047c-0.064,0.027-0.125,0.055-0.188,0.082c0.026,0.015,0.053,0.03,0.079,0.046
				c4.103,2.4,8.2,4.802,12.303,7.203h-0.002c4.512,2.642,9.021,5.282,13.531,7.921c5.092,2.982,10.184,5.962,15.274,8.941
				c1.234,0.722,2.469,1.445,3.703,2.167c1.22,0.715,2.44,1.43,3.66,2.142c5.529,3.234,11.059,6.462,16.588,9.69
				c2.167,1.265,4.335,2.533,6.501,3.797c7.697,4.489,15.394,8.971,23.092,13.439c0.094,0.057,0.187,0.108,0.279,0.161
				c-0.551-10.584-1.522-29.344-2.499-48.259c-0.872-16.922-1.751-33.966-2.328-45.382c-0.596-11.757-0.815-23.573-0.837-35.413
				c-0.041-23.679,0.713-47.451,0.851-71.028c0.014-2.358,0.021-4.714,0.021-7.067c0-35.847,0-71.695,0-107.544
				c-14.616,4.822-29.014,9.678-43.656,14.482C2115.322,420.779,2060.738,437.563,2006.065,454.877z"/>
			<path fill="#5E8152" d="M2194.705,689.57c-2.166-1.264-4.334-2.532-6.501-3.797c0.008,0.004,0.017,0.009,0.024,0.014
				C2190.388,687.048,2192.547,688.312,2194.705,689.57z"/>
			<path fill="#5E8152" d="M2171.616,676.083c-1.22-0.712-2.44-1.427-3.66-2.142c-1.234-0.722-2.469-1.445-3.703-2.167
				c1.234,0.722,2.469,1.445,3.702,2.167C2169.175,674.654,2170.395,675.368,2171.616,676.083c5.529,3.234,11.059,6.462,16.588,9.69
				C2182.675,682.545,2177.146,679.317,2171.616,676.083z"/>
			<path fill="#5E8152" d="M2188.204,685.773c-5.529-3.229-11.059-6.456-16.589-9.69c5.538,3.238,11.075,6.471,16.613,9.704
				C2188.221,685.782,2188.212,685.777,2188.204,685.773z"/>
			<path fill="#5E8152" d="M2169.628,402.959c-54.267,17.806-108.95,34.58-163.584,51.88c0.008,0.012,0.015,0.025,0.021,0.038
				C2060.738,437.563,2115.322,420.779,2169.628,402.959z"/>
			<path fill="#5E8152" d="M2013.113,583.877c0.057,0.032,0.113,0.064,0.169,0.097c-11.545-6.602-23.109-13.172-34.694-19.7v0.001
				C1990.116,570.77,2001.624,577.308,2013.113,583.877z"/>
			<path fill="#5E8152" d="M2013.113,583.877c-11.491-6.561-22.998-13.086-34.525-19.567v0.076
				c48.45,27.224,96.531,55.217,144.479,83.277c0.063-0.027,0.124-0.055,0.188-0.082c-15.066-8.768-30.111-17.524-45.154-26.257
				C2056.487,608.812,2034.832,596.295,2013.113,583.877z"/>
			<path fill="#5E8152" d="M2123.143,647.382c-15.071-8.7-30.156-17.441-45.261-26.186c0.073,0.043,0.146,0.085,0.22,0.128
				C2093.132,630.025,2108.145,638.724,2123.143,647.382z"/>
			<path fill="#5E8152" d="M2213.249,609.53c-0.596-11.757-0.815-23.573-0.837-35.413
				C2212.434,585.957,2212.653,597.773,2213.249,609.53z"/>
			<path fill="#5E8152" d="M2013.282,583.974c21.589,12.344,43.115,24.785,64.6,37.223
				C2056.364,608.706,2034.845,596.283,2013.282,583.974z"/>
			<path fill="#5E8152" d="M2123.336,647.628c0,0,0-0.082,0-0.081c-0.027,0.012-0.053,0.023-0.08,0.034
				C2123.282,647.597,2123.31,647.612,2123.336,647.628z"/>
			<path fill="#5E8152" d="M2123.256,647.581c0.027-0.011,0.053-0.022,0.08-0.034c0-0.001,0-0.165,0-0.165h-0.193
				c-14.998-8.658-30.011-17.356-45.041-26.058C2093.145,630.057,2108.189,638.813,2123.256,647.581z"/>
			<path fill="#5E8152" d="M2078.102,621.324c-0.073-0.043-0.146-0.085-0.22-0.128c-21.484-12.438-43.011-24.879-64.6-37.223
				c-0.056-0.032-0.112-0.064-0.169-0.097C2034.832,596.295,2056.487,608.812,2078.102,621.324z"/>
			<path fill="#5E8152" d="M2013.113,583.877c-11.489-6.569-22.997-13.107-34.525-19.603v0.035
				C1990.115,570.791,2001.622,577.316,2013.113,583.877z"/>
			<path fill="#EE8F27" d="M2358.515,345.517c-49.057,11.863-96.884,27.222-145.23,42.961c0,35.849,0,71.697,0,107.544
				c0,37.657-1.871,75.886,0.035,113.509c0.577,11.416,1.444,28.46,2.306,45.382c0.963,18.916,1.919,37.68,2.46,48.264l0,0l0,0
				c0,0.001,0,0.001,0,0.002c0.02,0.011,0.037,0.022,0.056,0.033c7.62,4.425,15.241,8.834,22.863,13.235
				c1.795,1.034,3.588,2.07,5.382,3.104c7.801,4.497,15.604,8.98,23.411,13.442c0.129,0.073,0.258,0.148,0.389,0.224
				c13.801,7.886,28.492,15.275,43.546,22.563c2.152,1.04,4.311,2.08,6.475,3.118c11.331-19.528,22.735-39.084,34.063-58.826
				c6.565-11.444,15.253-27.684,25.35-45.159c14.637-25.329,32.239-53.26,50.666-72.978V327.268
				c-22.229,3.33-48.312,12.032-66.419,16.879C2361.992,344.648,2360.204,345.108,2358.515,345.517z"/>
		</g>
		<path fill="#030303" d="M2074.854,887.014c-2.806,29.317,1.041,60.685,1.125,90.347c0.054,19.578-3.47,39.079-4.556,58.58
			c-1.358,24.402-1.265,50.14,0.225,74.519c20.273-25.904,44.023-49.901,69.338-72.365c13.535-12.006-2.307-29.211-6.493-43.098
			c-4.115-13.65-8.414-28.218-13.609-41.963c-4.709-12.448-9.471-25.23-17.108-37.341c-6.947-11.015-16.79-19.247-24.424-28.679"/>
	</g>
</g>
<g>
	<g>
		<path fill="none" d="M194.041,823.422C125.775,820.273,63.946,848.226,1,865.229C63.946,848.229,125.774,820.273,194.041,823.422z
			"/>
		<path fill="none" d="M1,1109.609c68.611,3.124,137.21,7.245,205.761,10.923C138.21,1116.854,69.61,1112.733,1,1109.609z"/>
		<path fill="none" d="M332.692,533.682c-0.001,0-0.001-0.001-0.002-0.001c0.03,0.939,0.067,1.877,0.122,2.814
			c2.166,36.464,23.667,71.823,35.925,105.767c-12.258-33.943-33.76-69.313-35.924-105.775
			C332.759,535.556,332.721,534.615,332.692,533.682z"/>
		<path fill="none" d="M291.643,1124.759c-25.686-1.146-51.382-2.441-77.084-3.806l0,0
			C240.263,1122.317,265.958,1123.613,291.643,1124.759c50.751,2.264,101.611,3.586,152.53,4.294c0-0.001,0-0.001,0-0.002
			C393.253,1128.344,342.395,1127.021,291.643,1124.759z"/>
		<path fill="none" d="M188.793,688.5c-0.63-27.012-0.974-54.001-0.974-80.961C187.819,634.499,188.163,661.489,188.793,688.5z"/>
		<path fill="none" d="M380.533,680.43c-3.186-11.769-6.697-23.415-10.64-34.888C373.835,657.015,377.347,668.661,380.533,680.43z"
			/>
		<path fill="none" d="M202.756,962.673c-2.446-34.698-4.743-69.406-6.766-104.104c5.091,87.498,11.915,175.047,18.567,262.385
			c0,0,0.001,0,0.001,0C210.543,1068.251,206.478,1015.471,202.756,962.673z"/>
		<path fill="none" d="M190.849,451.883c2.117-62.299,4.935-124.395,7.092-186.661C195.783,327.488,192.966,389.583,190.849,451.883
			z"/>
		<path fill="none" d="M195.928,857.472c-0.66-11.352-1.292-22.701-1.888-34.05C194.636,834.771,195.27,846.121,195.928,857.472z"/>
		<path fill="none" d="M187.864,594.067c0.17-41.669,1.1-83.123,2.403-124.471C188.963,510.944,188.033,552.399,187.864,594.067
			c28.476-12.015,56.923-23.691,85.238-34.956C244.787,570.376,216.339,582.053,187.864,594.067z"/>
		<path fill="#EEE0DF" d="M409.526,840.162c-1.821-13.153-3.65-26.37-5.582-39.597c-66.855,50.595-140.331,112.166-201.188,162.107
			c3.721,52.798,7.787,105.578,11.803,158.28c25.702,1.364,51.398,2.66,77.084,3.806c50.751,2.263,101.61,3.585,152.53,4.292
			c-2.77-32.726-12.789-67.198-16.766-98.084C419.241,967.535,418.343,903.852,409.526,840.162z"/>
		<path fill="#ECCCC5" d="M400.343,1272.514c-43.661,32.301-94.38,66.646-135.122,104.486h183.566v-140.118
			C432.159,1248.957,415.958,1260.962,400.343,1272.514z"/>
		<rect x="214.558" y="1120.952" fill="#718ABA" width="0" height="0.001"/>
		<path fill="#718ABA" d="M206.76,1120.532c-68.551-3.678-137.15-7.799-205.761-10.923V1377h230.804
			c-4.375-84.975-10.718-170.407-17.246-256.047C211.959,1120.814,209.359,1120.672,206.76,1120.532z"/>
		<path fill="#7ABC94" d="M400.343,1272.513c15.615-11.552,31.816-23.557,48.444-35.632v-107.771
			c-1.538-0.021-3.077-0.035-4.614-0.057l0,0c-50.919-0.708-101.779-2.03-152.53-4.293c-25.685-1.146-51.38-2.442-77.084-3.807
			c6.526,85.64,12.87,171.073,17.244,256.047l0,0v0.001h33.417c0,0,0-0.001,0.001-0.001h-0.001
			C305.963,1339.158,356.682,1304.813,400.343,1272.513z"/>
		<path fill="#7ABC94" d="M448.788,1236.882L448.788,1236.882c-16.628,12.074-32.83,24.079-48.444,35.631
			c-43.661,32.301-94.38,66.646-135.123,104.487h0.001c40.741-37.841,91.461-72.186,135.122-104.486
			C415.958,1260.962,432.159,1248.957,448.788,1236.882z"/>
		<path fill="#7ABC94" d="M214.559,1120.953c0,0-0.001,0-0.001,0c6.528,85.64,12.871,171.072,17.246,256.047l0,0
			C227.429,1292.026,221.085,1206.593,214.559,1120.953z"/>
		<path fill="#EE8F27" d="M214.558,1120.953c-6.652-87.338-13.476-174.887-18.567-262.385c-0.021-0.366-0.042-0.731-0.063-1.097
			c-0.659-11.351-1.292-22.701-1.888-34.05C125.774,820.273,63.946,848.229,1,865.229v244.381
			c68.611,3.124,137.211,7.244,205.761,10.923C209.359,1120.672,211.959,1120.814,214.558,1120.953z"/>
		<path fill="#EE8F27" d="M206.76,1120.532c2.599,0.14,5.199,0.282,7.797,0.421l0,0
			C211.959,1120.814,209.359,1120.672,206.76,1120.532z"/>
		<path fill="#90B5CB" d="M409.527,840.162c8.816,63.689,9.714,127.373,17.882,190.805c3.977,30.887,13.995,65.359,16.766,98.084
			c0,0-0.001,0-0.001,0c0,0.001,0,0.001,0,0.002c0,0,0,0,0.001,0c1.538,0.021,3.076,0.036,4.613,0.057V767.744
			c-15.09,10.65-30.043,21.621-44.842,32.82C405.877,813.791,407.706,827.009,409.527,840.162z"/>
		<path fill="#90B5CB" d="M409.526,840.162c8.817,63.689,9.715,127.373,17.882,190.805c3.977,30.886,13.996,65.358,16.766,98.084
			c0,0,0,0,0.001,0c-2.771-32.725-12.789-67.197-16.766-98.084C419.241,967.535,418.343,903.852,409.526,840.162
			c-1.82-13.153-3.649-26.371-5.58-39.598c0,0-0.001,0.001-0.001,0.001C405.876,813.792,407.705,827.009,409.526,840.162z"/>
		<path fill="#73AEA5" d="M332.692,533.682c0-0.006-0.001-0.013-0.001-0.02c1.027,0.58,2.054,1.14,3.082,1.719
			c-0.003,0.001-0.008-0.039-0.011-0.038c0.005,0.003,0.01,0.006,0.016,0.009c-0.001-0.004-0.004-0.014-0.004-0.014
			c0.031,0.018,0.061,0.034,0.092,0.052c37.329-13.452,75.047-25.997,112.923-38.167v-60.577
			C418.239,375.38,392,311.209,362.624,248.427c-1.109,1.826-2.218,3.65-3.331,5.458c1.112-1.807,2.222-3.632,3.331-5.458
			c-10.013-21.399-20.386-42.639-31.424-63.546c-32.364-61.295-89.413-106.595-122.722-165.793
			c-0.711-1.263-1.386-2.568-2.031-3.906c-15.135,78.695-5.749,170.425-8.507,250.04c-2.157,62.266-4.975,124.362-7.092,186.661
			c47.164,27.396,94.238,54.946,141.841,81.798C332.69,533.681,332.691,533.682,332.692,533.682z"/>
		<path fill="#EEE0DF" d="M448.788,114.393c-6.284,9.153-12.61,18.154-19.02,26.921c-25.231,34.509-46.006,72.319-67.144,107.113
			c29.377,62.782,55.616,126.953,86.164,188.219V114.393z"/>
		<path fill="#EEE0DF" d="M448.788,436.646c-30.548-61.266-56.787-125.437-86.164-188.219
			C392,311.209,418.239,375.38,448.788,436.646L448.788,436.646z"/>
		<path fill="#90B5CB" d="M208.06,7.268c-0.567,2.621-1.103,5.26-1.612,7.911c0,0,0,0.001,0,0.001
			c0.646,1.338,1.32,2.644,2.032,3.907c33.309,59.198,90.359,104.498,122.72,165.793c11.038,20.907,21.411,42.147,31.424,63.546
			c21.138-34.795,41.913-72.604,67.144-107.115c6.41-8.767,12.736-17.768,19.02-26.92V0H200.883
			c1.493,5.42,3.322,10.522,5.564,15.179C206.957,12.528,207.492,9.889,208.06,7.268z"/>
		<path fill="#90B5CB" d="M331.2,184.881c-32.361-61.295-89.412-106.595-122.72-165.793c-0.712-1.264-1.386-2.569-2.032-3.907
			c0,0,0,0.001,0,0.001c0.645,1.338,1.319,2.643,2.031,3.906C241.787,78.286,298.836,123.585,331.2,184.881z"/>
		<path fill="#90B5CB" d="M448.788,114.393v-0.001c-6.284,9.153-12.61,18.154-19.02,26.92
			c-25.231,34.511-46.006,72.32-67.144,107.115c21.138-34.794,41.913-72.604,67.144-107.113
			C436.177,132.547,442.503,123.546,448.788,114.393z"/>
		<path fill="#E1B58E" d="M190.849,451.883c2.117-62.3,4.935-124.395,7.092-186.661c2.758-79.615-6.628-171.345,8.507-250.04
			c0,0,0-0.001,0-0.001c-2.242-4.657-4.072-9.76-5.564-15.181H1v345.843c4.149,2.104,8.249,4.22,12.273,6.349
			C73.446,384.031,132.225,417.83,190.849,451.883z"/>
		<rect x="206.446" y="15.18" fill="#E1B58E" width="0.002" height="0.002"/>
		<path fill="#E1B58E" d="M206.447,15.179c-2.242-4.657-4.071-9.759-5.564-15.179h-0.001c1.492,5.421,3.322,10.523,5.564,15.181
			C206.447,15.18,206.447,15.18,206.447,15.179z"/>
		<path fill="#E8754D" d="M403.944,800.565L403.944,800.565c0-0.001,0.001-0.002,0.001-0.002
			c-5.499-37.67-11.855-75.424-21.277-112.063c-0.693-2.697-1.409-5.386-2.135-8.07c-3.187-11.769-6.698-23.415-10.64-34.888
			c-0.375-1.092-0.761-2.186-1.156-3.28c-12.258-33.943-33.76-69.303-35.925-105.767c-20.032,7.25-39.95,14.758-59.709,22.616
			c-28.315,11.265-56.762,22.941-85.239,34.957c-0.02,4.49-0.044,8.978-0.044,13.471c0,26.96,0.344,53.949,0.974,80.961
			c1.046,44.927,2.884,89.912,5.248,134.922c0.596,11.349,1.228,22.698,1.888,34.05c0.021,0.365,0.041,0.73,0.063,1.097
			c2.022,34.698,4.32,69.406,6.766,104.104C263.614,912.731,337.089,851.16,403.944,800.565z"/>
		<path fill="#E8754D" d="M195.991,858.568c-0.021-0.366-0.042-0.731-0.063-1.097C195.949,857.837,195.969,858.202,195.991,858.568z
			"/>
		<rect x="403.944" y="800.564" fill="#E8754D" width="0.002" height="0.001"/>
		<path fill="#ECB194" d="M335.779,535.426C335.779,535.426,335.779,535.426,335.779,535.426L335.779,535.426
			c-1.03-0.581-2.058-1.163-3.087-1.744c0.029,0.934,0.067,1.874,0.121,2.805c2.165,36.462,23.666,71.832,35.924,105.775
			c0.395,1.095,0.781,2.188,1.156,3.28c3.943,11.473,7.454,23.119,10.64,34.888c0.727,2.685,1.442,5.373,2.135,8.07
			c9.422,36.64,15.778,74.394,21.277,112.063c14.799-11.2,29.751-22.17,44.842-32.82v-169.77
			c-19.314-10.853-38.682-21.595-58.131-32.152C372.255,555.833,353.981,545.677,335.779,535.426z"/>
		<path fill="#ECB194" d="M403.946,800.563L403.946,800.563c14.799-11.198,29.751-22.169,44.842-32.819v-0.001
			C433.697,778.394,418.745,789.363,403.946,800.563z"/>
		<path fill="#ECB194" d="M335.779,535.426c-0.001-0.002-0.004-0.003-0.006-0.004c0.014-0.005,0.029-0.01,0.043-0.016
			c-0.008,0.003-0.018,0.006-0.021,0.005c-0.003,0.001-0.013-0.042-0.019-0.06c-0.005-0.003-0.011-0.006-0.016-0.009
			c0.003-0.001,0.008,0.039,0.011,0.038c-1.028-0.579-2.055-1.139-3.082-1.719c0,0.007,0,0.014,0.001,0.02
			C333.721,534.263,334.75,534.845,335.779,535.426L335.779,535.426z"/>
		<path fill="#ECB194" d="M382.668,688.5c-0.693-2.697-1.409-5.386-2.135-8.07C381.26,683.114,381.975,685.803,382.668,688.5z"/>
		<path fill="#5E8152" d="M273.102,559.111c19.76-7.858,39.678-15.366,59.709-22.616c-0.055-0.938-0.092-1.875-0.122-2.814
			c-47.603-26.852-94.677-54.4-141.841-81.798c-0.201,5.903-0.395,11.807-0.581,17.714c-1.304,41.348-2.233,82.802-2.403,124.471
			C216.339,582.053,244.787,570.376,273.102,559.111z"/>
		<path fill="#5E8152" d="M190.849,451.883c47.164,27.398,94.238,54.946,141.841,81.798
			C285.087,506.829,238.012,479.279,190.849,451.883z"/>
		<path fill="#73AEA5" d="M194.041,823.422c-2.364-45.01-4.201-89.995-5.248-134.922c-0.63-27.011-0.974-54.001-0.974-80.961
			c0-4.493,0.024-8.98,0.044-13.471C125.336,620.454,62.681,648.488,1,677.435V688.5v176.729
			C63.946,848.226,125.775,820.273,194.041,823.422z"/>
		<path fill="#7ABC94" d="M190.268,469.597c0.187-5.907,0.38-11.811,0.581-17.714c-58.624-34.053-117.403-67.852-177.576-99.691
			c-4.025-2.128-8.124-4.244-12.273-6.349v331.592c61.682-28.946,124.337-56.98,186.864-83.366
			C188.033,552.399,188.963,510.944,190.268,469.597z"/>
		<path fill="#7ABC94" d="M1,345.843c4.149,2.105,8.249,4.22,12.273,6.349C9.248,350.063,5.149,347.947,1,345.843z"/>
		<path fill="#5E8152" d="M390.647,565.657c4.267,2.315,8.53,4.642,12.789,6.976c15.159,8.308,30.272,16.732,45.351,25.229V497.233
			c-37.873,12.167-75.595,24.71-112.917,38.159C354.041,545.626,372.279,555.688,390.647,565.657z"/>
		<path fill="#5E8152" d="M350.371,543.522c-0.828-0.462-1.656-0.924-2.484-1.387C348.714,542.598,349.542,543.061,350.371,543.522z
			"/>
		<path fill="#5E8152" d="M335.865,535.39c0.002,0.001,0.004,0.002,0.006,0.003c37.322-13.449,75.044-25.992,112.917-38.159v-0.011
			C410.912,509.393,373.193,521.938,335.865,535.39z"/>
		<path fill="#5E8152" d="M448.788,597.862L448.788,597.862c-15.079-8.497-30.192-16.922-45.351-25.229
			C418.596,580.94,433.708,589.365,448.788,597.862z"/>
		<path fill="#5E8152" d="M390.752,565.78c-13.516-7.336-26.967-14.775-40.381-22.258c-0.829-0.462-1.656-0.925-2.484-1.387
			c-4.018-2.244-8.05-4.473-12.056-6.729c-0.017,0.006-0.034,0.012-0.052,0.019c0,0,0,0,0,0
			c18.202,10.251,36.476,20.407,54.877,30.396c19.45,10.558,38.817,21.3,58.131,32.152v-0.076
			C429.513,587.059,410.185,576.329,390.752,565.78z"/>
		<path fill="#5E8152" d="M335.816,535.406c-0.015,0.006-0.029,0.011-0.043,0.016c0.002,0.001,0.004,0.002,0.006,0.004
			c0.018-0.007,0.035-0.013,0.052-0.019c-0.001-0.001-0.003-0.002-0.005-0.003C335.825,535.404,335.82,535.405,335.816,535.406z"/>
		<path fill="#5E8152" d="M335.865,535.39c-0.031-0.018-0.061-0.034-0.092-0.052c0,0,0.003,0.01,0.004,0.014
			c0.025,0.014,0.05,0.028,0.075,0.042C335.856,535.393,335.86,535.391,335.865,535.39z"/>
		<path fill="#5E8152" d="M335.816,535.406c0.012-0.004,0.024-0.009,0.036-0.013c-0.025-0.014-0.05-0.028-0.075-0.042
			c0.006,0.018,0.016,0.061,0.019,0.06C335.798,535.412,335.808,535.409,335.816,535.406z"/>
		<path fill="#5E8152" d="M347.887,542.136c0.828,0.463,1.656,0.925,2.484,1.387c13.372,7.448,26.792,14.815,40.277,22.135
			c-18.368-9.97-36.606-20.031-54.776-30.265c-0.004,0.002-0.008,0.003-0.012,0.005
			C339.863,537.652,343.874,539.896,347.887,542.136z"/>
		<polygon fill="#5E8152" points="335.859,535.397 335.871,535.393 335.865,535.39 335.853,535.394 		"/>
		<path fill="#5E8152" d="M390.752,565.78c19.433,10.549,38.761,21.278,58.036,32.117v-0.035
			c-15.079-8.497-30.192-16.922-45.351-25.229c-4.259-2.334-8.522-4.66-12.789-6.976c-13.485-7.319-26.905-14.687-40.277-22.135
			C363.785,551.005,377.236,558.444,390.752,565.78z"/>
		<path fill="#5E8152" d="M335.831,535.407c4.006,2.256,8.039,4.484,12.056,6.729c-4.013-2.239-8.023-4.483-12.028-6.738
			C335.85,535.4,335.84,535.403,335.831,535.407z"/>
		<path fill="#5E8152" d="M335.853,535.394c-0.012,0.004-0.024,0.009-0.036,0.013c0.003-0.001,0.008-0.002,0.009-0.002
			c0.001,0.001,0.003,0.002,0.005,0.003c0.009-0.004,0.019-0.007,0.028-0.01C335.856,535.396,335.854,535.395,335.853,535.394z"/>
	</g>
	<path fill="#030303" d="M358.574,925.289c2.526,29.655-0.938,61.384-1.014,91.388c-0.048,19.805,3.124,39.528,4.101,59.255
		c1.223,24.684,1.138,50.717-0.202,75.376c-18.25-26.202-39.631-50.477-62.422-73.197c-12.184-12.145,2.077-29.547,5.846-43.593
		c3.706-13.811,7.576-28.545,12.254-42.448c4.237-12.591,8.525-25.521,15.401-37.771c6.254-11.142,15.116-19.468,21.987-29.01"/>
</g>
</svg>
