<?xml version="1.0" encoding="utf-8"?>
<!-- Generator: Adobe Illustrator 16.0.0, SVG Export Plug-In . SVG Version: 6.00 Build 0)  -->
<!DOCTYPE svg PUBLIC "-//W3C//DTD SVG 1.1//EN" "http://www.w3.org/Graphics/SVG/1.1/DTD/svg11.dtd">
<svg version="1.1" id="Layer_1" xmlns="http://www.w3.org/2000/svg" xmlns:xlink="http://www.w3.org/1999/xlink" x="0px" y="0px"
	 width="900px" height="319px" viewBox="0 0 900 319" enable-background="new 0 0 900 319" xml:space="preserve">
<path fill="#EBB197" d="M872.556,206.148c-13.531-5.799-23.336-18.195-35.777-26.477c-11.606-7.732-21.138-16.346-33.092-24.376
	c-12.577-8.449-26.246-14.295-39.692-21.517c-14.627-7.855-22.991-20.067-33.168-32.734c-18.071-22.5-36.917-43.306-66.814-49.8
	c-16.871-3.663-33.609-7.52-49.057-15.332c-14.474-7.321-27.874-16.156-43.03-21.723c-7.542-2.771-24.401-6.031-31.057,0.213
	c-10.065,9.442,7.97,17.355,15.43,21.75c9.4,5.541,17.798,12.589,27.083,18.173c6.407,3.852,23.033,8.458,23.874,16.997
	c-10.603,5.296-30.146-7.655-36.551-15.907c-10.463-4.501-20.989-13.816-32.188-18.308c-18.349-7.363-27.613,5.053-15.367,18.888
	c8.32,9.4,19.52,15.772,29.933,22.178c9.882,6.082,24.563,11.348,32.071,19.147c-32.385-0.437-53.034-36.455-84.214-36.335
	c-25.444,0.1-0.729,25.384,7.595,31.539c12.457,9.21,25.509,16.748,39.668,23.589c5.399,2.608,14.314,5.557,13.127,12.533
	c-17.771,1.343-29.793-13.169-44.495-19.91c-8.446-3.869-37.665-12.748-41.752,0.957c-3.771,12.64,25.348,22.565,34.265,28.385
	c13.818,9.024,28.35,16.925,41.73,25.044c16.96,10.29,39.548,18.37,52.288,33.449c-10.877,11.042-37.68-6.337-46.001-12.601
	c-13.22-9.955-26.608-20.22-44.756-18.723c-5.687,12.641,7.418,24.059,14.697,34.16c9.302,12.914,18.831,22.861,35.226,28.706
	c30.868,11.005,62.942,9.084,96.032,14.328c16.555,2.625,30.07,12.255,45.934,18.404c14.95,5.796,29.122,11.71,44.628,17.168
	c29.044,10.22,56.602,21.938,85.044,32.021c16.023,5.679,19.019-2.828,24.559-15.096c5.066-11.219,11.148-21.465,15.627-32.655
	c4.148-10.362,6.631-20.814,10.729-31.304C891.684,214.088,881.808,217.385,872.556,206.148"/>
<path fill="#EBB197" d="M27.171,206.596c12.852-5.802,22.168-18.196,33.988-26.479c11.026-7.731,20.081-16.346,31.436-24.374
	c11.949-8.451,24.933-14.295,37.708-21.52c13.895-7.854,21.84-20.065,31.508-32.732c17.167-22.5,35.07-43.307,63.471-49.799
	c16.027-3.666,31.928-7.521,46.603-15.334c13.749-7.318,26.48-16.154,40.878-21.721c7.164-2.771,23.181-6.032,29.503,0.212
	c9.56,9.442-7.572,17.355-14.658,21.749c-8.931,5.542-16.908,12.59-25.729,18.175c-6.086,3.851-21.88,8.457-22.681,16.996
	c10.073,5.296,28.638-7.655,34.725-15.907c9.937-4.5,19.938-13.815,30.576-18.308c17.431-7.364,26.232,5.053,14.598,18.889
	c-7.904,9.398-18.542,15.771-28.434,22.176c-9.389,6.082-23.333,11.35-30.467,19.146c30.764-0.437,50.38-36.454,80-36.334
	c24.172,0.099,0.695,25.383-7.213,31.539c-11.834,9.211-24.232,16.748-37.685,23.589c-5.129,2.608-13.597,5.556-12.469,12.535
	c16.88,1.34,28.302-13.17,42.267-19.911c8.024-3.868,35.782-12.75,39.664,0.956c3.581,12.64-24.08,22.564-32.551,28.384
	c-13.126,9.024-26.929,16.927-39.641,25.047c-16.112,10.288-37.569,18.369-49.673,33.448c10.333,11.041,35.794-6.338,43.701-12.602
	c12.557-9.953,25.275-20.221,42.517-18.724c5.402,12.643-7.046,24.06-13.963,34.161c-8.836,12.914-17.889,22.864-33.462,28.706
	c-29.325,11.005-59.796,9.084-91.229,14.328c-15.726,2.627-28.566,12.255-43.634,18.407c-14.203,5.793-27.667,11.71-42.396,17.165
	c-27.592,10.222-53.771,21.939-80.791,32.021c-15.221,5.679-18.066-2.828-23.329-15.095c-4.814-11.22-10.59-21.466-14.844-32.656
	c-3.942-10.362-6.3-20.814-10.193-31.304C9,214.532,18.38,217.831,27.171,206.596"/>
</svg>
