<?xml version="1.0" encoding="utf-8"?>
<!-- Generator: Adobe Illustrator 16.0.0, SVG Export Plug-In . SVG Version: 6.00 Build 0)  -->
<!DOCTYPE svg PUBLIC "-//W3C//DTD SVG 1.1//EN" "http://www.w3.org/Graphics/SVG/1.1/DTD/svg11.dtd">
<svg version="1.1" id="Layer_1" xmlns="http://www.w3.org/2000/svg" xmlns:xlink="http://www.w3.org/1999/xlink" x="0px" y="0px"
	 width="600px" height="800px" viewBox="0 0 600 800" enable-background="new 0 0 600 800" xml:space="preserve">
<path fill="#FFFFFF" d="M127.993,679.455c36.848-13.343,36.099-56.43,43.374-93.525c7.184-36.628,28.633-57.688,62.955-69.371
	c20.028-6.819,38.463-11.906,61.693-12.151c24.173-0.257,46.748,0.063,64.661-12.51c35.146-24.671,29.005-77.09,46.048-115.704
	c17.172-38.902,56.39-41.509,97.343-51.421c38.779-9.389,77.451-31.577,95.934-67.431V0H0v725.492
	C31.965,691.944,83.169,695.686,127.993,679.455z"/>
<path fill="#ECB093" d="M600,800V257.341c-18.482,35.854-57.154,58.042-95.934,67.431c-40.953,9.913-80.171,12.519-97.343,51.421
	c-17.043,38.614-10.901,91.033-46.048,115.704c-17.913,12.573-40.487,12.253-64.661,12.51c-23.23,0.245-41.666,5.332-61.693,12.151
	C200,528.242,178.55,549.302,171.367,585.93c-7.275,37.096-6.525,80.183-43.374,93.525C83.169,695.686,31.965,691.944,0,725.492V800
	H600z"/>
</svg>
