<?xml version="1.0" encoding="utf-8"?>
<!-- Generator: Adobe Illustrator 16.0.0, SVG Export Plug-In . SVG Version: 6.00 Build 0)  -->
<!DOCTYPE svg PUBLIC "-//W3C//DTD SVG 1.1//EN" "http://www.w3.org/Graphics/SVG/1.1/DTD/svg11.dtd">
<svg version="1.1" id="Layer_1" xmlns="http://www.w3.org/2000/svg" xmlns:xlink="http://www.w3.org/1999/xlink" x="0px" y="0px"
	 width="903px" height="1377px" viewBox="0 0 903 1377" enable-background="new 0 0 903 1377" xml:space="preserve">
<path fill="none" d="M849.197,1279.345c4.225,0.013,8.461-0.03,12.667-0.021C857.677,1279.309,853.438,1279.353,849.197,1279.345z"
	/>
<path fill="#EEE0DF" d="M1983.002,1293.007c-11.374-6.996-25.911-7.837-41.138-7.891c-4.206-0.01-8.442,0.033-12.667,0.021
	c-15.588-0.028-31.186-0.76-44.24-7.745c-12.686-6.789-22.418-15.441-30.492-25.283c-9.351-10.929-16.677-23.326-23.311-36.279
	c-48.685,19.912-104.905,29.291-140.001,33.585c-76.745,9.398-203.663-10.444-203.663-10.444
	c-77.474-9.137-182.364-67.01-182.364-67.01c-26.354-13.535-103.099-65.278-103.099-65.278
	c-77.34-75.934-57.952-83.132-54.123-131.124c3.057-38.433,60.465-67.05,88.975-84.617c33.051-20.373,70.799-37.812,107.189-53.316
	c-0.588-1.315-1.188-2.644-1.76-3.936c-16.052-36.256-32.871-61.993-70.091-76.065c-29.069-10.989-62.239-4.322-89.804-14.587
	c-5.311-1.972-10.411-4.559-15.225-8.026c-47.639-34.32-46.311-99.677-82.232-144.646c-1.068-1.336-0.681-2.666-3.957-3.988v799.417
	h904v-92.785c-0.656-0.375-1.327-0.715-1.998-1.055V1293.007z"/>
<path fill="#FFFFFF" d="M1085.134,590.363c35.923,44.97,34.446,110.326,82.084,144.648c4.812,3.466,9.901,6.054,15.196,8.024
	c27.641,10.264,61.048,3.598,90.115,14.585c37.221,14.072,54.209,39.811,70.26,76.064c0.57,1.293,1.255,2.62,1.844,3.937
	c12.861-5.479,25.598-10.73,37.85-15.767c70.744-29.069,140.115-46.873,213.603-48.702c0-0.013,0.014-0.021,0.018-0.032
	c20.455-0.511,41.24,0.243,62.462,2.308c37.54,3.669,78.932,10.563,109.668,36.083c27.019,22.438,28.453,55.583,36.463,88.133
	c20.777,84.437,127.723,116.771,121.914,215.808c-2.843,48.473-44.751,79.959-94.666,100.377
	c6.634,12.953,13.555,25.35,22.521,36.279c8.42,9.843,18.481,18.494,31.166,25.283c12.897,6.9,28.146,7.7,43.566,7.745
	c4.24,0.008,8.479-0.036,12.667-0.021c14.757,0.032,29.111,0.737,41.138,6.836v-717.16H1080v11.216c0.371,0.123,0.695,0.245,1,0.368
	v-0.368C1084,587.45,1083.967,588.902,1085.134,590.363z"/>
<path fill="#FFFFFF" d="M774.465,1246.316c8.074,9.842,17.807,18.494,30.492,25.283c13.055,6.985,28.652,7.717,44.24,7.745
	c-15.42-0.045-30.669-0.845-43.566-7.745C792.946,1264.811,782.885,1256.159,774.465,1246.316z"/>
<path fill="#FFFFFF" d="M903.002,1287.215v-1.055c-12.026-6.099-26.381-6.804-41.138-6.836
	C877.091,1279.378,891.628,1280.219,903.002,1287.215z"/>
<path fill="#EEE0DF" d="M442.82,693.563c-21.109-17.339-58.653-24.836-87.268-33.275c-37.711-11.121-63.181-25.07-85.291-51.982
	c-20.525-24.984-24.731-57-43.499-82.313c-13.436-18.125-31.517-36.923-53.409-47.975c-22.264-11.238-48.478-16.645-72.066-26.241
	c-63.299-25.754-75-84.458-89.516-140.069C9.138,301.616,5.127,293.073,0,285.706V763.81h473.443
	c-0.021-0.066-0.04-0.137-0.061-0.204C466.469,740.575,462.748,709.931,442.82,693.563z"/>
<path fill="#FFFFFF" d="M903.002-4H0v289.706c5.127,7.368,9.138,15.911,11.771,26.001c14.516,55.611,26.217,114.314,89.516,140.069
	c23.589,9.596,49.803,15.003,72.066,26.241c21.892,11.052,39.973,29.851,53.409,47.975c18.768,25.314,22.974,57.329,43.499,82.313
	c22.11,26.912,47.58,40.861,85.291,51.982c28.615,8.438,66.159,15.936,87.268,33.275c19.928,16.368,23.649,47.013,30.563,70.043
	c0.021,0.067,0.04,0.138,0.061,0.204h429.559V-4z"/>
</svg>
