<?xml version="1.0" encoding="utf-8"?>
<!-- Generator: Adobe Illustrator 16.0.0, SVG Export Plug-In . SVG Version: 6.00 Build 0)  -->
<!DOCTYPE svg PUBLIC "-//W3C//DTD SVG 1.1//EN" "http://www.w3.org/Graphics/SVG/1.1/DTD/svg11.dtd">
<svg version="1.1" id="Layer_1" xmlns="http://www.w3.org/2000/svg" xmlns:xlink="http://www.w3.org/1999/xlink" x="0px" y="0px"
	 width="900px" height="1279px" viewBox="0 0 900 1279" enable-background="new 0 0 900 1279" xml:space="preserve">
<g>
	<polygon fill="#EEE0DF" points="0,1278.5 0,-0.5 898.869,-0.5 898.869,600.063 898.869,1278.5 	"/>
	<path fill="#EEE0DF" d="M0,1279.5V-0.5h900v1280H0z M1.131,0.5v1278h897.738V0.5H1.131z"/>
</g>
<path fill="#020202" d="M567.598,438.465c0,0-11.318,31.665-13.095,36.356c0,0-10.509,26.941-12.29,59.891
	c0,0-0.512,20.836,2.209,26.588c0,0-2.919,22.204-4.403,21.756c0,0-0.191,6.828,22.379,10.66h49.547l-0.442,5.646
	c0,0,55.264-0.377,91.681-8.566l-31.735-131.926c0,0,5.323-15.999,2.645-24.82C674.088,434.048,604.524,440.422,567.598,438.465z"/>
<g>
	<polygon fill="#020202" points="598.078,588.072 598.078,969.51 611.631,972.195 610.572,583.166 	"/>
	<path fill="#FFFFFF" d="M612.624,972.9l-14.546-2.942V593.989l14.658-1.133l-0.02,0.86L612.624,972.9z M600.517,969.057
		l11.43,2.431l-1.108-376.904l-10.321,0.148V969.057z"/>
</g>
<g>
	<polygon fill="#020202" points="11.766,878.1 87.554,854.4 152.695,869.501 83.165,895.457 	"/>
	<path fill="#FFFFFF" d="M83.207,896.051L9.649,878.167l77.879-24.354l0.169,0.04l66.963,15.521L83.207,896.051z M13.883,878.029
		l69.245,16.837l67.605-25.24l-63.158-14.64L13.883,878.029z"/>
</g>
<g>
	<polygon fill="#020202" points="146.609,908.918 227.575,882.613 297.171,899.373 222.89,928.183 	"/>
	<path fill="#FFFFFF" d="M222.932,928.777l-0.197-0.051l-78.167-19.746l82.986-26.96l0.177,0.04l71.345,17.182L222.932,928.777z
		 M148.658,908.851l74.194,18.732l72.419-28.085L227.6,883.2L148.658,908.851z"/>
</g>
<g>
	<polygon fill="#020202" points="316.368,943.902 397.333,917.597 466.929,934.357 392.647,963.167 	"/>
	<path fill="#FFFFFF" d="M392.689,963.763l-0.198-0.052l-78.166-19.744l82.986-26.964l0.177,0.043l71.347,17.181L392.689,963.763z
		 M318.413,943.834l74.192,18.736l72.422-28.089l-67.668-16.296L318.413,943.834z"/>
</g>
<g>
	<polygon fill="#020202" points="501.777,993.179 596.985,963.866 678.826,982.547 591.478,1014.649 	"/>
	<path fill="#FFFFFF" d="M591.513,1015.24l-0.184-0.047l-91.7-21.947l97.33-29.968l0.172,0.034l83.689,19.101L591.513,1015.24z
		 M503.926,993.11l87.51,20.945l85.396-31.387l-79.825-18.216L503.926,993.11z"/>
</g>
<g>
	<g>
		<polygon fill="#FFFFFF" points="1050.412,995.352 92.08,787.958 92.08,787.442 91.443,-4.721 93.261,-4.724 94.974,786.926 
			1051.049,994.086 		"/>
	</g>
	<g>
		<line fill="none" x1="93.943" y1="786.641" x2="-749.729" y2="1006.773"/>
		<polygon fill="#FFFFFF" points="-749.543,1007.399 -749.913,1006.148 93.758,786.016 94.133,787.267 		"/>
	</g>
</g>
<g>
	<polygon fill="#020202" points="230.028,746.089 227.767,890.052 237.194,890.052 238.713,746.089 	"/>
	<path fill="#FFFFFF" d="M237.793,890.052h-10.642l2.283-145.183h9.886L237.793,890.052z M228.378,888.832h8.224l1.5-142.743h-7.485
		L228.378,888.832z"/>
</g>
<g>
	<polygon fill="#020202" points="87.554,554.545 91.228,863.211 99.657,863.211 93.605,554.545 	"/>
	<path fill="#FFFFFF" d="M100.269,863.211h-9.633l-0.007-0.896l-3.685-308.99h7.251l0.01,0.89L100.269,863.211z M91.823,861.991
		h7.219l-6.027-307.446h-4.853L91.823,861.991z"/>
</g>
<g>
	<path fill="#020202" d="M124.337,450.396c3.011,10.723,8.425,18.623,8.425,18.623c14.45,10.72,12.041,29.056,12.041,29.056
		l11.352,56.146c-22.875,12.413-72.926,4.513-72.926,4.513v-4.513c0,0.019,0.18,0.031,0.095,0.049
		c-14.52,2.738-42.175-0.049-42.175-0.049c-9.029-50.217,5.364-73.071,5.364-73.071c5.416-5.923,5.878-34.138,5.878-34.138
		L124.337,450.396z"/>
	<path fill="#FFFFFF" d="M116.876,561.774c-17.655,0-33.205-2.463-33.361-2.483l-0.289-0.08v-4.258
		c-4.88,0.719-9.986,1.086-16.787,1.086c-12.475,0-25.086-1.246-25.21-1.257l-0.508-0.046l-0.104-0.424
		c-8.961-49.842,5.261-73.22,5.409-73.449c5.278-5.784,5.771-33.578,5.776-33.861l0.005-0.584l72.997,3.436l0.114,0.399
		c2.793,9.948,7.741,17.541,8.301,18.381c13.928,10.409,12.348,27.987,12.192,29.419l11.502,56.45l-0.372,0.202
		C147.9,559.398,134.556,561.774,116.876,561.774z M83.227,558.251c3.66,0.415,17.471,2.394,33.262,2.394
		c17.208,0,30.422-2.258,38.888-6.716l-11.28-55.835l0.064-0.084c0.025-0.182,2.212-18.156-11.792-28.549l-0.124-0.136
		c-0.053-0.079-5.362-7.902-8.382-18.38l-70.875-3.338c-0.098,4.194-0.88,28.31-6.001,33.912
		c-0.079,0.146-14.004,23.09-5.282,72.185c2.354,0.225,13.45,1.208,24.526,1.208c7.117,0,12.857-0.402,17.054-1.193l0.122,0.503
		l0.312-0.479l-0.022,0.192l-0.469,0.628V558.251z"/>
</g>
<g>
	<path fill="#020202" d="M103.269,342.062l39.728,14.621l21.672,68.823c0,0-10.235,25.456-43.339,14.17c0,0,0.6,8.464,3.011,10.72
		c0,0-61.403-0.563-72.238,3.386c0,0-4.214-12.413-21.674-20.877c0,0-2.408-53.604,13.848-66.017c0,0,19.262-20.909,34.914-22.302
		L103.269,342.062z"/>
	<path fill="#FFFFFF" d="M51.722,454.526l-0.196-0.571c-0.038-0.123-4.365-12.302-21.372-20.548l-0.314-0.153l-0.015-0.325
		c-0.098-2.199-2.233-54.032,14.065-66.479c0.717-0.793,19.526-21.028,35.239-22.428l24.218-2.54l0.139,0.052l40.003,14.723
		l21.814,69.27l-0.075,0.178c-0.073,0.173-7.245,17.419-28.069,17.419c-4.703,0.002-9.799-0.882-15.163-2.625
		c0.279,2.73,1.112,7.955,2.763,9.498l1.042,0.975l-1.475-0.011c0,0-3.031-0.027-7.861-0.027c-16.502,0-55.792,0.329-64.149,3.375
		L51.722,454.526z M31.016,432.557c15.366,7.558,20.412,17.985,21.447,20.506c9.623-2.935,47.783-3.257,64.003-3.257
		c3.042,0,5.368,0.011,6.682,0.02c-1.904-3.132-2.396-9.796-2.417-10.11l-0.064-0.864l0.87,0.296
		c5.551,1.892,10.809,2.853,15.631,2.85c18.902,0,26.082-14.76,26.867-16.521l-21.529-68.368l-39.32-14.471l-23.931,2.509
		c-15.24,1.358-34.338,21.903-34.526,22.113C29.473,378.92,30.855,428.062,31.016,432.557z"/>
</g>
<g>
	<path fill="#020202" d="M73.517,346.15c0,0-22.247,7.092-23.637,15.632h8.845l-4.819,8.478c0,0,5.953,4.521,7.794,16.935
		l4.853-16.931L73.517,346.15z"/>
	<path fill="#FFFFFF" d="M61.508,390.032l-0.407-2.753c-1.779-12.006-7.518-16.524-7.575-16.569l-0.382-0.588l4.575-8.34h-8.535
		l0.099-0.345c1.427-9.274,23.131-15.685,24.054-15.959l1.054-0.238L61.508,390.032z M54.659,369.809
		c1.255,1.13,5.278,5.516,7.178,14.567l10.803-37.767c-4.271,1.403-20.066,6.632-22.032,13.952h9.117L54.659,369.809z"/>
</g>
<g>
	<path fill="#020202" d="M97.486,364.631c0,0,6.19-15.177,14.209-15.848l-3.613-6.722c0,0-44.2,21.336-44.67,39.163
		c0,0,11.565-15.8,21.196-19.583L97.486,364.631z"/>
	<path fill="#FFFFFF" d="M62.757,383.112l0.051-1.904c0.48-17.954,43.184-38.772,45.002-39.65l0.539-0.26l4.281,7.973l-0.881,0.076
		c-7.557,0.632-13.643,15.338-13.699,15.486l-0.189,0.467l-13.198-3.064c-9.328,3.802-20.638,19.15-20.755,19.309L62.757,383.112z
		 M107.821,342.827c-4.808,2.4-40.134,20.511-43.547,36.295c3.354-4.278,12.256-14.92,20.1-18l0.185-0.074l12.561,2.917
		c1.097-2.534,6.505-14.175,13.666-15.622L107.821,342.827z"/>
</g>
<g>
	<path fill="#020202" d="M41.865,873.964c0,0-10.835,5.643-3.01,7.142c0,0,29.098,4.889,54.778-17.305c0,0,3.626-4.648-2.008-6.583
		c0,0-4.015-2.443-15.25,3.573l-8.429,4.516L41.865,873.964z"/>
	<path fill="#FFFFFF" d="M46.092,881.512c0,0,0,0-0.003,0c-4.511,0-7.226-0.138-7.339-0.157c-2.059-0.396-3.14-0.946-3.314-2.01
		c-0.407-2.48,5.039-5.385,6.136-5.954l26.177-8.652l8.329-4.446c6.386-3.426,10.509-4.136,12.839-4.136
		c1.786,0,2.711,0.413,2.97,0.552c1.795,0.628,2.914,1.598,3.326,2.871c0.712,2.208-1.017,4.148-1.092,4.245
		C76.009,879.491,56.26,881.512,46.092,881.512z M88.922,857.296c-2.188,0-6.084,0.687-12.244,3.99L68.25,865.8l-26.183,8.692
		c-2.33,1.222-5.646,3.569-5.439,4.835c0.083,0.517,0.919,0.953,2.352,1.227c0.012,0.003,2.719,0.445,7.111,0.445
		c9.99,0,29.403-2.286,47.139-17.614l0,0c-0.019,0,1.367-1.849,0.834-3.482c-0.3-0.931-1.19-1.652-2.637-2.151l-0.123-0.063l0,0
		C91.3,857.696,90.576,857.296,88.922,857.296z"/>
</g>
<g>
	<path fill="#020202" d="M59.861,878.475c0,0-2.343-8.65-10.369-11.659c0,0-6.023-0.755-6.421,5.826
		C43.071,872.645,54.917,877.864,59.861,878.475z"/>
	<path fill="#FFFFFF" d="M60.665,879.144l-0.884-0.108c-4.981-0.615-16.481-5.666-16.97-5.874l-0.367-0.169l0.025-0.381
		c0.36-5.927,5.042-6.389,6.471-6.389c0.392,0,0.632,0.034,0.632,0.034l0.143,0.029c8.216,3.078,10.632,11.679,10.731,12.046
		L60.665,879.144z M43.7,872.296c1.908,0.827,10.623,4.532,15.288,5.464c-0.821-2.204-3.521-8.056-9.645-10.392
		c-0.077-0.009-0.219-0.019-0.403-0.019C47.491,867.354,44.149,867.842,43.7,872.296z"/>
</g>
<g>
	<path fill="#020202" d="M46.683,866.788l16.052-2.98c0,0,9.841,1.597,12.747,11.515l-15.624,3.152L46.683,866.788z"/>
	<path fill="#FFFFFF" d="M59.678,879.088l-14.26-12.634l17.309-3.223l0.111,0.021c0.103,0.017,10.252,1.775,13.228,11.922
		l0.167,0.579L59.678,879.088z M47.94,867.127l12.103,10.733l14.68-2.963c-2.804-8.441-10.977-10.317-11.988-10.518L47.94,867.127z"
		/>
</g>
<g>
	<path fill="#020202" d="M74.373,348.784l-4.215-23.086c0,0,14.449-7.335,30.7-6.77l7.224,23.135c0,0-22.876,9.591-41.536,28.213
		C66.546,370.275,70.157,354.378,74.373,348.784z"/>
	<path fill="#FFFFFF" d="M65.51,372.133l0.448-1.979c0.146-0.645,3.607-15.727,7.779-21.501l-4.244-23.258l0.381-0.192
		c0.141-0.073,14.766-7.399,31.009-6.839l0.433,0.017l7.495,23.997l-0.483,0.201c-0.229,0.095-22.982,9.765-41.344,28.084
		L65.51,372.133z M70.827,326.011l4.182,22.908l-0.143,0.19c-3.22,4.271-6.129,14.876-7.245,19.299
		c16.746-16.089,36.446-25.195,39.742-26.657l-6.955-22.275C86.12,319.083,73.185,324.893,70.827,326.011z"/>
</g>
<g>
	<line fill="none" x1="83.227" y1="553.325" x2="83.227" y2="532.585"/>
	<rect x="83.227" y="533.736" fill="none" stroke="#FFFFFF" stroke-miterlimit="10" width="0" height="20.243"/>
</g>
<g>
	<path fill="#020202" d="M69.558,881.861c0,0-10.837,5.643-3.012,7.141c0,0,29.096,4.895,54.778-17.304c0,0,3.625-4.644-2.008-6.584
		c0,0-4.014-2.447-15.25,3.577l-8.428,4.512L69.558,881.861z"/>
	<path fill="#FFFFFF" d="M73.783,890.052c0,0,0,0-0.003,0c-4.51,0-7.226-0.457-7.34-0.478c-2.06-0.395-3.138-1.108-3.314-2.171
		c-0.405-2.485,5.041-5.465,6.136-6.035l26.179-8.69l8.33-4.472c6.386-3.421,10.506-4.14,12.836-4.14
		c1.786,0,2.708,0.408,2.971,0.539c1.795,0.635,2.913,1.6,3.325,2.874c0.712,2.207-1.018,4.472-1.09,4.567
		C103.7,887.717,83.952,890.052,73.783,890.052z M116.611,865.197c-2.185,0-6.08,0.689-12.242,3.99l-8.425,4.508L69.76,882.39
		c-2.331,1.223-5.648,3.574-5.439,4.834c0.084,0.522,0.92,0.955,2.35,1.233c0.015,0.002,2.72,0.439,7.114,0.439
		c9.99,0,29.403-2.287,47.138-17.609l0,0c-0.017,0,1.364-1.853,0.833-3.487c-0.298-0.929-1.188-1.65-2.636-2.152l-0.12-0.055l0,0
		C118.992,865.595,118.268,865.197,116.611,865.197z"/>
</g>
<g>
	<path fill="#020202" d="M87.554,886.375c0,0-2.347-8.655-10.37-11.667c0,0-6.022-0.753-6.423,5.829
		C70.761,880.543,82.605,885.764,87.554,886.375z"/>
	<path fill="#FFFFFF" d="M88.354,887.044l-0.88-0.11c-4.982-0.617-16.485-5.669-16.97-5.881l-0.369-0.162l0.024-0.383
		c0.363-5.923,5.046-6.383,6.474-6.383c0.389,0,0.633,0.026,0.633,0.026l0.144,0.036c8.214,3.078,10.632,11.681,10.731,12.045
		L88.354,887.044z M71.393,880.196c1.909,0.825,10.623,4.532,15.286,5.465c-0.821-2.21-3.52-8.059-9.642-10.397
		c-0.077-0.009-0.222-0.018-0.405-0.018C75.183,875.25,71.841,875.742,71.393,880.196z"/>
</g>
<g>
	<path fill="#020202" d="M74.373,874.688l16.055-2.985c0,0,9.839,1.6,12.744,11.52l-15.621,3.153L74.373,874.688z"/>
	<path fill="#FFFFFF" d="M87.368,886.989l-14.256-12.643l17.307-3.218l0.112,0.019c0.103,0.017,10.253,1.775,13.227,11.926
		l0.168,0.576L87.368,886.989z M75.634,875.026l12.102,10.739l14.677-2.967c-2.803-8.443-10.977-10.318-11.985-10.519
		L75.634,875.026z"/>
</g>
<g>
	<path fill="#020202" d="M197.678,437.588c0,0-19.313,21.739-20.113,41.115l13.445,275.777c0,0,19.098,11.519,47.158-0.518v10.157
		c0,0,36.19,1.879,47.426,0l11.374-6.071l-4.751-299.192l-43.308-25.931L197.678,437.588z"/>
	<path fill="#FFFFFF" d="M268.649,765.52c-13.831,0-29.783-0.827-29.942-0.835l-0.538-0.028v-9.815
		c-8.54,3.434-16.513,4.668-24.679,4.668c0,0,0,0-0.004,0c-13.702,0-22.172-4.597-22.526-4.805l-0.268-0.026l-13.737-276.01
		c0.802-19.394,20.059-41.252,20.256-41.473l0.159-0.16l0.247-0.017l51.472-4.674l43.794,26.204l0.007,0.302l4.818,299.528
		l-11.738,6.3C282.625,765.237,276.795,765.52,268.649,765.52z M239.39,763.586c2.441,0.146,16.972,0.807,29.298,0.807
		c7.998,0,13.698-0.272,16.993-0.811l10.832-5.851l-4.81-298.559l-42.895-25.662l-50.812,4.614
		c-1.827,2.115-19.079,22.555-19.822,40.598l13.7,275.127c1.545,0.813,9.604,4.438,21.625,4.438h0.002
		c8.27,0,16.705-1.53,25.003-5.137l0.893-0.069v10.499L239.39,763.586L239.39,763.586z"/>
</g>
<g>
	<line fill="none" x1="218.447" y1="520.206" x2="238.713" y2="753.963"/>
	<polygon fill="#FFFFFF" points="238.111,754.008 217.848,520.253 219.046,520.162 239.314,753.918 	"/>
</g>
<g>
	<line fill="none" x1="280.249" y1="554.782" x2="285.868" y2="764.12"/>
	<polygon fill="#FFFFFF" points="285.267,764.134 279.645,554.797 280.852,554.769 286.47,764.105 	"/>
</g>
<g>
	<path fill="#020202" d="M202.395,881.861c0,0,17.208-11.061,34.271-7.335c0,0,12.602,4.427,0,16.411
		c0,0-27.597,17.178-40.568,10.82C183.131,895.412,202.395,881.861,202.395,881.861z"/>
	<path fill="#FFFFFF" d="M203.079,903.74c-2.823,0-5.263-0.498-7.261-1.477c-2.973-1.448-4.58-3.407-4.786-5.804
		c-0.588-6.813,10.526-14.718,11.001-15.05c0.149-0.098,12.947-8.216,27.302-8.216c2.578,0,5.093,0.267,7.468,0.787
		c0.275,0.09,4.922,1.768,5.896,5.882c0.785,3.329-1.102,7.192-5.604,11.475l-0.097,0.077
		C236.191,891.914,217.032,903.74,203.079,903.74z M229.334,874.324c-13.985,0-26.475,7.915-26.602,8.001
		c-0.088,0.064-11.04,7.85-10.5,14.043c0.175,1.985,1.569,3.636,4.144,4.9c1.823,0.889,4.081,1.348,6.702,1.348
		c13.245,0,32.079-11.415,33.203-12.109c4.164-3.976,5.925-7.477,5.239-10.4c-0.833-3.524-5.021-5.034-5.063-5.049
		C234.243,874.574,231.824,874.324,229.334,874.324z"/>
</g>
<g>
	<path fill="#020202" d="M220.051,336.161l-34.512,15.877c0,0-15.25,21.38-12.839,48.74c0,0-13.358,18.077-0.261,21.982
		l20.927,22.543c0,0,32.305,13.36,73.238,0.009l12.037-12.384l46.552-21.123c0,0-21.794-60.543-44.608-65.771l-34.646-9.875H220.051
		z"/>
	<path fill="#FFFFFF" d="M229.401,450.843c-0.002,0-0.002,0-0.005,0c-21.559,0-36.127-5.409-36.27-5.47l-0.212,0.104l-20.818-22.245
		c-2.837-0.89-4.7-2.431-5.521-4.716c-2.352-6.486,4.455-16.259,5.508-17.715c-2.306-27.15,12.808-48.468,12.96-48.678l0.092-0.122
		l34.92-15.584l25.957-2.544l34.746,12.035c22.849,5.235,44.114,63.254,45.012,65.721l0.174,0.474l-46.931,21.299l-12.063,12.423
		l-0.145-0.45C254.657,449.336,242.073,450.843,229.401,450.843z M193.729,444.342c1.433,0.563,15.411,5.281,35.665,5.281
		c0,0,0.003,0,0.008,0c12.485,0,24.886-1.425,36.862-5.315l12.121-12.148l46.07-20.773c-2.109-5.638-23.318-60.003-44.497-64.855
		l-33.944-11.437l-25.379,2.745l-34.683,14.361c-1.239,1.79-14.921,22.631-12.653,48.393l0.019,0.372l-0.125,0.256
		c-0.078,0.105-7.774,10.619-5.48,16.953c0.713,1.966,2.364,3.371,4.911,4.13l0.161,0.061l0.113-0.148L193.729,444.342z"/>
</g>
<path fill="#020202" d="M211.33,315.216l4.607,25.864c0,0-1.964,7.483,5.153,10.941c0,0,13.124,3.456,22.219,0
	c0,0,10.434-5.017,9.053-16.335l-4.229-24.943C248.133,310.744,232.68,305.05,211.33,315.216z"/>
<g>
	<path fill="none" stroke="#FFFFFF" stroke-miterlimit="10" d="M216.038,341.645l-4.814-27.043c0,0,20.066-9.027,36.923-3.761
		l4.813,24.827c0,0,0.802,21.718-24.077,17.628C228.882,353.296,214.435,354.391,216.038,341.645z"/>
	<path fill="#FFFFFF" d="M234.745,353.241c-1.836,0-3.818,0.393-5.896,0.057c-0.806,0.045-7.402,0.579-11.086-3.311
		c-1.987-2.091-2.771-4.847-2.332-8.469l-4.875-27.313l0.409-0.146c0.123-0.054,12.302-5.448,25.541-5.448
		c4.289,0,8.266,0.575,11.832,1.688l0.335,0.109l4.881,25.156c0.025,0.427,0.254,8.02-5.399,13.501
		c-3.241,3.144-7.751,4.177-13.405,4.177C234.747,353.241,234.745,353.241,234.745,353.241z M228.908,352.729l0.076,0.011
		c2.034,0.331,3.972,0.5,5.763,0.5c0,0,0.001,0,0.003,0c5.314,0,9.533-1.477,12.54-4.395c5.301-5.145,5.072-13.082,5.07-13.16
		l-4.749-24.415c-3.355-1.01-7.092-1.518-11.11-1.518c-11.608,0-22.402,4.258-24.61,5.183l4.752,26.695l-0.009,0.079
		c-0.419,3.328,0.262,5.953,2.023,7.81c2.771,2.921,7.487,3.233,9.385,3.233c0.482,0,0.774-0.019,0.788-0.019L228.908,352.729z"/>
</g>
<g>
	<path fill="#020202" d="M294.635,356.167c0,0-4.754-24.335-23.21-10.004c0,0-14.45,5.728-6.424,86.767l-12.04,23.467l5.616,77.508
		c0,0,65.016-0.374,66.621-32.725l-22.476-63.404l-0.324-12.954c0,0-10.914,30.137-27.771,8.107
		C274.631,432.929,260.862,310.463,294.635,356.167z"/>
	<path fill="#FFFFFF" d="M258.016,534.476l-0.036-0.532l-5.629-77.655l12.036-23.46c-7.694-77.867,5.335-86.463,6.707-87.143
		c3.95-3.055,7.623-4.605,10.904-4.605c10.188,0,13.109,14.376,13.229,14.986l0.503,2.574l-1.593-2.152
		c-4.889-6.619-8.976-9.974-12.148-9.974c-1.234,0-2.321,0.509-3.329,1.555c-11.221,11.685-3.852,80.954-3.449,84.654
		c3.938,5.11,7.833,7.699,11.58,7.699c9.209,0,14.98-15.623,15.037-15.78l1.094-3.014l0.396,16.047l22.484,63.427l-0.005,0.104
		c-1.614,32.509-66.565,33.259-67.22,33.261L258.016,534.476z M253.573,456.509l5.566,76.824
		c6.367-0.146,63.841-2.314,65.453-32.072l-22.467-63.385l-0.255-10.242c-2.16,4.679-7.396,13.917-15.073,13.917
		c-4.188,0-8.444-2.788-12.65-8.292l-0.094-0.121l-0.02-0.149c-0.333-2.989-8.095-73.356,3.737-85.675
		c1.231-1.279,2.652-1.928,4.221-1.928c3.19,0,6.887,2.627,11.254,8.015c-1.375-4.111-4.696-11.195-11.246-11.195
		c-3.013,0-6.44,1.477-10.191,4.389l-0.151,0.086c-0.128,0.057-13.886,7.161-6.058,86.196l0.017,0.155L253.573,456.509z"/>
</g>
<g>
	<path fill="#020202" d="M215.235,900.677c0,0,6.583-25.932-9.946-29.536l-31.791,29.536
		C173.498,900.677,174.744,919.205,215.235,900.677z"/>
	<path fill="#FFFFFF" d="M186.421,909.572c0,0,0,0-0.003,0c-12.783,0-13.512-8.724-13.521-8.812l-0.016-0.282l0.191-0.191
		l32.025-29.763l0.327,0.068c3.652,0.798,6.502,2.711,8.466,5.688c5.821,8.82,2.091,23.887,1.928,24.528l-0.067,0.258l-0.259,0.167
		C203.476,906.734,193.693,909.572,186.421,909.572z M174.13,900.889c0.203,1.339,1.716,7.463,12.289,7.463h0.002
		c7.037,0,16.549-2.713,28.291-8.061c0.467-2.037,3.315-15.606-1.845-23.411c-1.734-2.627-4.223-4.347-7.397-5.109L174.13,900.889z"
		/>
</g>
<g>
	<path fill="#020202" d="M231.29,890.892c0,0,17.207-11.06,34.27-7.342c0,0,12.601,4.428,0,16.418c0,0-27.6,17.177-40.566,10.821
		C212.025,904.438,231.29,890.892,231.29,890.892z"/>
	<path fill="#FFFFFF" d="M231.976,912.766c-2.822,0-5.261-0.495-7.26-1.473c-2.973-1.455-4.583-3.407-4.789-5.805
		c-0.589-6.815,10.528-14.718,11.001-15.054c0.148-0.093,12.949-8.212,27.303-8.212c2.579,0,5.096,0.263,7.466,0.782
		c0.275,0.089,4.926,1.768,5.896,5.884c0.786,3.332-1.098,7.195-5.601,11.477l-0.098,0.075
		C265.085,900.942,245.926,912.766,231.976,912.766z M258.228,883.35c-13.988,0-26.474,7.926-26.6,8.008
		c-0.089,0.063-11.042,7.848-10.501,14.043c0.174,1.983,1.567,3.632,4.143,4.894c1.82,0.896,4.08,1.349,6.703,1.349
		c13.245,0,32.078-11.417,33.202-12.107c4.164-3.98,5.925-7.482,5.238-10.403c-0.833-3.52-5.023-5.031-5.062-5.049
		C263.141,883.603,260.718,883.35,258.228,883.35z"/>
</g>
<g>
	<path fill="#020202" d="M244.131,909.704c0,0,6.583-25.936-9.946-29.542l-31.791,29.542
		C202.395,909.704,203.64,928.231,244.131,909.704z"/>
	<path fill="#FFFFFF" d="M215.315,918.111c0,0-0.001,0-0.002,0c-12.784,0-13.511-8.479-13.521-8.567l-0.017-0.159l0.191-0.125
		l32.026-29.73l0.325,0.083c3.654,0.792,6.504,2.717,8.468,5.698c5.821,8.813,2.089,23.89,1.927,24.526l-0.067,0.258l-0.258-0.075
		C232.37,915.518,222.586,918.111,215.315,918.111z M203.024,909.672c0.203,1.337,1.714,7.221,12.286,7.221c0.001,0,0.003,0,0.003,0
		c7.039,0,16.552-2.47,28.29-7.817c0.472-2.036,3.319-15.479-1.84-23.295c-1.736-2.624-4.223-4.405-7.398-5.169L203.024,909.672z"/>
</g>
<g>
	<polygon fill="#020202" points="403.052,620.427 407.87,924.211 416.298,924.211 413.285,620.427 	"/>
	<path fill="#FFFFFF" d="M416.906,924.211h-9.631l-4.834-305.004h11.442l0.004,0.715L416.906,924.211z M408.458,922.993h7.23
		l-2.995-302.566h-9.024L408.458,922.993z"/>
</g>
<g>
	<path fill="#020202" d="M431.348,325.697l48.158,15.948l44.549,109.63l-29.498,19.436l-16.854-18.623l-2.409,172.66
		c0,0-61.231,7.902-91.416-5.641c0,0-28.982,3.947-47.042-3.948l6.019-155.733l-25.884-12.415l30.098-100.724l45.75-17.768
		L431.348,325.697z"/>
	<path fill="#FFFFFF" d="M436.438,627.606c-23.127,0-40.844-2.663-52.657-7.916c-1.193,0.153-8.042,0.971-16.65,0.971
		c-8.73,0-21.123-0.866-30.545-4.991l-0.363-0.157l0.015-0.375l6.005-155.375l-25.981-12.46l30.312-101.434l46.206-17.913
		l38.655-2.833l48.542,16.075l44.811,110.285l-30.329,19.986l-16.174-17.869l-2.395,171.643l-0.511,0.066
		C475.196,625.332,457.337,627.606,436.438,627.606z M383.971,618.523l0.165,0.076c11.655,5.227,29.254,7.877,52.304,7.877
		c18.84,0,35.194-1.854,38.253-2.223l2.421-173.678l17.542,19.376l28.662-18.885l-44.28-108.976l-47.773-15.821l-38.304,2.804
		l-45.391,17.629l-29.888,100.017l25.792,12.366l-0.018,0.36l-6.006,155.355c9.184,3.906,21.176,4.73,29.675,4.73
		c9.351,0,16.59-0.972,16.662-0.982L383.971,618.523z"/>
</g>
<g>
	<path fill="#020202" d="M397.066,346.212c0,0-18.593,43.895-13.713,76.582v196.414"/>
	<path fill="#FFFFFF" d="M384.993,619.207h-1.64V422.793c-4.879-32.378,13.792-76.119,13.975-76.557l1.231,0.417
		c-0.184,0.437-18.364,43.673-13.624,75.829L384.993,619.207z"/>
</g>
<g>
	<path fill="#020202" d="M397.437,445.32c0,0,33.498,14.169,54.238,5.957v-41.504l-48.725-11.849L397.437,445.32z"/>
	<path fill="none" stroke="#FFFFFF" stroke-miterlimit="10" d="M437.015,453.283C437.013,453.283,437.013,453.283,437.015,453.283
		c-18.362,0-38.654-8.227-38.863-8.313l0,0l5.652-47.246l47.87,11.611v42.303l0.018,0.201
		C447.629,453.571,442.936,453.283,437.015,453.283z M398.154,444.97c3.023,1.167,22.159,8.313,38.862,8.313h0.283
		c5.573,0,10.732,0.127,14.391-1.444l-0.016-41.63l-47.867-11.573L398.154,444.97z"/>
</g>
<g>
	<polygon fill="#020202" points="408.472,387.202 403.052,398.229 426.533,415.462 456.026,415.462 458.438,405.665 	"/>
	<path fill="#FFFFFF" d="M456.5,415.462h-30.173l-24.023-17.348l5.87-11.616l50.974,18.541L456.5,415.462z M426.735,414.243h28.816
		l2.174-8.558l-48.95-17.782l-4.971,9.821L426.735,414.243z"/>
</g>
<g>
	<path fill="#FFFFFF" d="M342.253,459.434c-1.194-62.063,14.365-89.167,14.523-89.435l1.051,0.547
		c-0.155,0.265-15.56,27.152-14.371,88.869L342.253,459.434z"/>
</g>
<g>
	<path fill="#FFFFFF" d="M478.3,452.096l-1.203-0.016c0.231-16.68-2.974-39.97-3.007-40.201l1.194-0.147
		C475.321,411.967,478.534,435.332,478.3,452.096z"/>
</g>
<g>
	<path fill="#020202" d="M573.412,963.167c0,0,13.848-6.903,32.509,0c0,0,15.049,16.496-35.514,24.96L573.412,963.167z"/>
	<path fill="#FFFFFF" d="M569.716,988.818l3.134-26.01l0.279-0.136c0.256-0.129,6.398-3.133,16.067-3.133
		c5.67,0,11.368,1.041,16.944,3.106l0.138,0.053l0.098,0.104c0.146,0.163,3.585,4.016,1.658,9.075
		c-2.849,7.464-15.478,13.125-37.531,16.809L569.716,988.818z M573.973,963.537l-2.881,23.902
		c26.266-4.505,33.985-11.151,35.813-15.952c1.532-4.015-0.858-7.244-1.354-7.855c-5.384-1.967-10.887-2.972-16.349-2.972
		C580.955,960.663,575.266,962.962,573.973,963.537z"/>
</g>
<g>
	<path fill="#020202" d="M580.037,963.167c0,0,1.029-14.162-8.515-12.094l-16.165,25.77c0,0-21.674,6.206-8.429,15.8
		c0,0,17.522,5.643,33.144-5.643L580.037,963.167z"/>
	<path fill="#FFFFFF" d="M557.637,994.617c-6.359,0-10.724-1.382-10.904-1.441l-0.175-0.088c-3.429-2.484-4.916-5.01-4.433-7.514
		c1.056-5.414,11.131-8.689,12.827-9.202l16.181-25.794l0.252-0.06c2.607-0.564,4.753-0.037,6.322,1.54
		c3.448,3.457,2.955,10.834,2.93,11.147l0.034,24.07l-0.235,0.174C572.23,993.374,563.513,994.617,557.637,994.617z
		 M547.213,992.135c0.653,0.199,4.771,1.354,10.426,1.354c5.63,0,13.961-1.182,21.828-6.768l-0.028-23.557
		c0.005-0.112,0.484-7.241-2.612-10.341c-1.236-1.241-2.841-1.653-4.916-1.256l-16.149,25.748l-0.227,0.063
		c-0.114,0.029-11.222,3.274-12.221,8.396C542.913,987.815,544.226,989.952,547.213,992.135z"/>
</g>
<g>
	<path fill="#020202" d="M605.921,972.195c0,0,13.848-6.906,32.507,0c0,0,15.051,16.495-35.514,24.96L605.921,972.195z"/>
	<path fill="#FFFFFF" d="M602.221,997.846l3.134-26.008l0.281-0.139c0.258-0.126,6.397-3.136,16.069-3.136
		c5.666,0,11.366,1.046,16.943,3.112l0.137,0.054l0.098,0.104c0.146,0.163,3.587,4.017,1.659,9.071
		c-2.848,7.466-15.477,13.122-37.529,16.815L602.221,997.846z M606.481,972.563l-2.881,23.902
		c26.264-4.498,33.981-11.146,35.812-15.943c1.53-4.016-0.86-7.246-1.356-7.855c-5.384-1.977-10.885-2.974-16.349-2.974
		C613.461,969.69,607.774,971.989,606.481,972.563z"/>
</g>
<g>
	<path fill="#020202" d="M612.541,972.195c0,0,1.031-14.166-8.515-12.096l-16.165,25.771c0,0-21.672,6.209-8.426,15.798
		c0,0,17.518,5.646,33.141-5.643L612.541,972.195z"/>
	<path fill="#FFFFFF" d="M590.147,1003.645c-6.362,0-10.729-1.385-10.909-1.446l-0.175-0.086c-3.428-2.479-4.915-5.008-4.431-7.511
		c1.055-5.419,11.13-8.688,12.827-9.203l16.18-25.797l0.253-0.056c2.601-0.563,4.752-0.04,6.32,1.535
		c3.445,3.458,2.955,10.835,2.932,11.152l0.033,24.069l-0.234,0.173C604.74,1002.4,596.018,1003.645,590.147,1003.645z
		 M579.718,1001.163c0.656,0.196,4.772,1.348,10.43,1.348c5.626,0,13.959-1.18,21.826-6.768l-0.03-23.553
		c0.006-0.11,0.482-7.244-2.613-10.346c-1.23-1.234-2.841-1.651-4.913-1.25l-16.153,25.746l-0.225,0.067
		c-0.113,0.029-11.22,3.277-12.221,8.397C575.42,996.843,576.735,998.98,579.718,1001.163z"/>
</g>
<g>
	<g>
		<path fill="#020202" d="M356.097,931.703c0,0-16.852,7.339-6.622,12.98c0,0,23.859,1.848,46.952-12.98
			c0,0,12.585-8.674-4.214-11.285C392.217,920.418,365.671,924.342,356.097,931.703z"/>
		<path fill="#FFFFFF" d="M352.128,945.318L352.128,945.318c-1.704,0-2.665-0.073-2.702-0.076l-0.138-0.015l-0.123-0.066
			c-2.47-1.362-3.681-2.973-3.585-4.78c0.24-4.626,9.23-8.737,10.192-9.164c9.633-7.346,35.258-11.207,36.349-11.362l0.095-0.015
			l0.098,0.015c5.466,0.85,8.539,2.466,9.138,4.805c0.918,3.594-4.44,7.337-4.667,7.491
			C378.282,944.038,359.393,945.318,352.128,945.318z M349.665,944.127c0.314,0.019,1.172,0.063,2.466,0.063
			c7.147,0,25.747-1.26,43.961-12.952c0.03-0.021,4.925-3.438,4.194-6.313c-0.469-1.814-3.255-3.176-8.069-3.934
			c-1.753,0.267-26.682,4.19-35.735,11.149l-0.126,0.074c-2.602,1.138-9.388,4.82-9.567,8.227
			C346.718,941.771,347.687,943.009,349.665,944.127z"/>
	</g>
	<g>
		<path fill="#020202" d="M351.285,934.336c0,0,9.276-16.424,18.661-13.918c0,0,13.166,4.381,16.818,16.579l-13.192,4.773
			C373.569,941.771,365.777,933.835,351.285,934.336z"/>
		<path fill="#FFFFFF" d="M373.404,942.438l-0.279-0.283c-0.075-0.077-7.793-7.755-21.819-7.252l-1.042,0.036l0.487-0.861
			c0.333-0.595,8.275-14.481,17.204-14.481c0.73,0,1.453,0.096,2.155,0.281c0.175,0.057,13.543,4.632,17.233,16.969l0.148,0.491
			L373.404,942.438z M352.593,933.973c12.418,0,19.617,5.857,21.126,7.249l12.306-4.51c-3.73-11.412-16.158-15.692-16.286-15.735
			c-0.558-0.142-1.172-0.126-1.791-0.126c-7.006,0-13.751,10.686-15.631,13.126C352.416,933.973,352.505,933.973,352.593,933.973z"
			/>
	</g>
</g>
<g>
	<g>
		<path fill="#020202" d="M389.81,942.988c0,0-16.854,7.339-6.625,12.984c0,0,23.862,1.845,46.955-12.984
			c0,0,12.583-8.674-4.216-11.285C425.927,931.703,399.382,935.628,389.81,942.988z"/>
		<path fill="#FFFFFF" d="M385.839,956.604L385.839,956.604c-1.706,0-2.663-0.073-2.702-0.076l-0.133-0.014l-0.123-0.067
			c-2.473-1.365-3.685-2.974-3.586-4.781c0.238-4.624,9.229-8.735,10.193-9.165c9.633-7.347,35.258-11.202,36.349-11.362
			l0.096-0.014l0.095,0.014c5.466,0.848,8.542,2.466,9.138,4.804c0.917,3.594-4.438,7.336-4.665,7.492
			C411.995,955.322,393.104,956.604,385.839,956.604z M383.374,955.412c0.317,0.019,1.173,0.063,2.466,0.063
			c7.153,0,25.748-1.261,43.96-12.954c0.031-0.022,4.929-3.437,4.193-6.312c-0.464-1.814-3.253-3.178-8.066-3.935
			c-1.753,0.268-26.683,4.191-35.736,11.148l-0.126,0.075c-2.604,1.14-9.392,4.819-9.57,8.228
			C380.427,953.055,381.397,954.293,383.374,955.412z"/>
	</g>
	<g>
		<path fill="#020202" d="M384.993,945.621c0,0,9.276-16.424,18.662-13.918c0,0,13.167,4.382,16.817,16.582l-13.192,4.77
			C407.28,953.055,399.49,945.119,384.993,945.621z"/>
		<path fill="#FFFFFF" d="M407.115,953.719l-0.279-0.277c-0.076-0.078-7.8-7.771-21.821-7.252l-1.042,0.036l0.489-0.863
			c0.331-0.593,8.276-14.479,17.202-14.479c0.733,0,1.454,0.094,2.16,0.28c0.172,0.056,13.54,4.633,17.23,16.966l0.146,0.493
			L407.115,953.719z M386.308,943.732c12.416,0,19.616,6.618,21.125,8.012l12.305-4.133c-3.73-11.412-16.158-15.501-16.287-15.536
			c-0.555-0.15-1.17-0.802-1.791-0.802c-7.004,0-13.75,10.02-15.626,12.459C386.128,943.732,386.217,943.732,386.308,943.732z"/>
	</g>
</g>
<g>
	<path fill="#020202" d="M392.82,328.518l-3.01-25.391c0,0,10.233-10.722,34.913-7.336l6.022,23.104l12.039,9.623
		c0,0-36.115,19.489-49.36,17.645C393.423,346.163,372.353,343.19,392.82,328.518z"/>
	<path fill="#FFFFFF" d="M395.353,346.851c-0.727,0-1.404-0.043-2.02-0.126c-0.35-0.049-8.592-1.264-9.887-5.993
		c-0.931-3.392,2.011-7.585,8.743-12.462l-3.003-25.327l0.177-0.187c0.322-0.335,8.024-8.186,26.06-8.186
		c3.004,0,6.165,0.225,9.388,0.667l0.4,0.055l6.073,23.298l12.539,10.022l-0.737,0.4
		C441.732,329.735,409.85,346.851,395.353,346.851z M390.439,303.331l3.019,25.442l-0.274,0.193
		c-6.41,4.596-9.378,8.565-8.573,11.48c1.099,4.011,8.821,5.147,8.902,5.159c0.556,0.077,1.175,0.117,1.843,0.117
		c12.98,0,41.417-14.678,46.387-17.297l-11.535-9.22l-5.972-22.907c-3.028-0.4-5.992-0.604-8.816-0.604
		C399.435,295.694,391.693,302.176,390.439,303.331z"/>
</g>
<g>
	<path fill="none" stroke="#FFFFFF" stroke-miterlimit="10" d="M567.093,437.981c0,0-9.48,32.832-14.897,41.295
		c0,0-14.974,40.452-8.354,81.984c0,0-1.69,20.634-4.703,21.761c0,0,0.377,15.773,72.357,10.695v5.646
		c0,0,77.876-0.566,91.119-9.028l-19.753-175.484L567.093,437.981z"/>
	<path fill="#FFFFFF" d="M611.497,599.928v-5.603c-9.76,0.637-17.758-0.739-25.397-0.739h-0.126
		c-46.286,0-47.438-10.479-47.449-10.98l0.511,0.052l0.125-0.373c1.658-0.621,3.377-11.156,4.091-21.106
		c-6.544-41.176,8.231-81.732,8.382-82.14l0.053-0.078c5.312-8.299,14.736-40.809,14.833-41.136l0.094-0.329l0.359-0.069
		l116.536-23.26l19.975,176.442l-0.299,0.188c-13.242,8.465-87.973,9.104-91.152,9.126L611.497,599.928z M612.717,593.108v5.679
		c6.102-0.077,76.453-1.029,89.572-8.742l-19.8-174.514l-114.894,22.932c-1.061,3.658-9.7,32.904-14.871,41.049
		c-0.614,1.703-14.429,41.436-8.328,81.663v0.063l0.025,0.062c-0.237,3.341-1.514,19.228-4.405,21.756
		c0.479,1.692,4.987,10.659,45.826,10.659c0.002,0,0,0,0,0c7.793,0,16.646-0.116,26.138-0.785L612.717,593.108z"/>
</g>
<g>
	<path fill="#020202" d="M600.503,512.465c0,0-1.202,59.811,11.438,81.252"/>
	<path fill="#FFFFFF" d="M611.631,594.387c-12.578-21.329-11.779-79.483-11.73-81.934l1.204,0.023
		c-0.016,0.596-0.788,59.318,11.632,80.381L611.631,594.387z"/>
</g>
<g>
	<path fill="#020202" d="M560.346,459.425c0,0,76.484-5.643,110.996,0"/>
	<path fill="#FFFFFF" d="M560.395,459.987l-0.094-1.123c0.764-0.06,76.958-5.585,111.146,0.004l-0.208,1.111
		C637.197,454.417,561.16,459.93,560.395,459.987z"/>
</g>
<g>
	<path fill="#020202" d="M589.7,471.333c0,0-1.821,49.965,13.829,39.246l2.674-52.416h-16.54L589.7,471.333z"/>
	<path fill="#FFFFFF" d="M599.426,511.492L599.426,511.492c-1.402-0.002-2.688-0.559-3.822-1.655
		c-7.592-7.366-6.557-37.549-6.509-38.852l-0.032-14.042h17.772l-2.719,53.214l-0.233-0.068
		C602.31,511.169,600.808,511.492,599.426,511.492z M590.271,458.163l0.028,12.887c-0.011,0.335-1.068,31.227,6.173,38.251
		c0.908,0.879,1.875,1.185,2.957,1.187l0,0c1.056,0,2.234,0.014,3.515-0.819l2.63-51.504L590.271,458.163L590.271,458.163z"/>
</g>
<g>
	<ellipse fill="#020202" cx="596.287" cy="450.963" rx="4.216" ry="3.95"/>
	<path fill="#FFFFFF" d="M596.287,455.477c-2.656,0-4.813-2.026-4.813-4.514c0-2.492,2.161-4.515,4.813-4.515
		c2.658,0,4.813,2.023,4.813,4.515C601.103,453.45,598.945,455.477,596.287,455.477z M596.287,447.576
		c-1.992,0-3.612,1.519-3.612,3.386c0,1.866,1.618,3.383,3.612,3.383c1.996,0,3.612-1.517,3.612-3.383
		C599.899,449.095,598.283,447.576,596.287,447.576z"/>
</g>
<g>
	<rect x="622.478" y="441.083" fill="#020202" width="8.541" height="18.3"/>
	<path fill="#FFFFFF" d="M632.238,459.383h-9.761v-19.52h9.761V459.383z M623.697,458.163h7.321v-17.08h-7.321V458.163z"/>
</g>
<g>
	<polygon fill="#020202" points="566.356,443.523 566.356,458.296 571.236,457.731 571.236,443.523 	"/>
	<path fill="#FFFFFF" d="M566.356,458.936v-16.633h6.1v15.929L566.356,458.936z M566.356,443.523v14.135l4.88-0.425v-13.71H566.356z
		"/>
</g>
<g>
	<path fill="#020202" d="M589.558,322.565l-43.837,19.496l-21.672,65.45c0,0,11.438,14.672,26.485,13.545c0,0,0,20.874,16.855,22.57
		l99.926-5.851c0,0,15.651-8.821,15.651-15.591c0,0,12.039,21.442,36.116-1.693c0,0-13.24-29.341-10.232-50.217
		c0,0,3.009-32.221-23.478-47.708c0,0-17.008-5.799-21.675-3.67L589.558,322.565z"/>
	<path fill="#FFFFFF" d="M567.38,444.193l-0.05-0.006c-15.55-1.56-17.202-19.044-17.374-22.529c-0.36,0.017-0.718,0.025-1.074,0.025
		c-14.361,0-24.878-13.272-25.316-13.837l-0.178-0.229l21.837-65.959l0.239-0.107l43.947-19.542l0.115-0.006l74.04-3.665
		c0.764-0.321,1.779-0.476,3.099-0.476c6.607,0,18.428,4.002,18.929,4.172l0.112,0.053c26.499,15.491,23.791,47.91,23.762,48.235
		c-2.957,20.514,10.057,49.658,10.192,49.951l0.153,0.344l-0.28,0.27c-7.534,7.238-14.704,10.906-21.307,10.906
		c-7.978,0-12.964-5.44-14.881-8.019c-1.952,6.667-15.098,14.145-15.699,14.484l-0.127,0.071l-0.146,0.01L567.38,444.193z
		 M550.497,420.447v0.61c0,0.202,0.522,20.347,16.59,22.001l99.833-5.839c1.455-0.842,15.339-8.969,15.339-15.035v-2.276
		l1.193,2.011c0.052,0.089,5.069,8.747,14.735,8.747c6.189,0,12.987-3.466,20.187-10.304c-1.476-3.389-12.938-30.602-10.118-50.167
		c0.025-0.29,2.666-31.987-23.142-47.121c-0.919-0.309-12.289-4.086-18.452-4.086c-1.187,0-2.089,0.14-2.687,0.413l-0.23,0.056
		l-74.034,3.665l-43.488,19.342l-21.496,64.939c1.506,1.82,11.883,14.085,25.444,13.092L550.497,420.447z"/>
</g>
<g>
	<path fill="#020202" d="M687.603,323.949c0,0,1.805-4.28-8.333-3.239c0,0-17.968,6.681-10.744,43.357
		c0,0,6.623,96.52,0.601,112.303c0,0-0.573,14.653,8.142,24.81c0,0,6.333,33.29,0,42.883c0,0-5.73,13.419,2.693,17.148
		c0,0,7.227,7.679,18.063,3.731c0,0,14.447,9.026,24.681,1.13c0,0,15.649-9.029,0-32.164c0,0-16.855-49.057-21.677-57.536
		l-5.414-16.945l-5.503-30.33l-7.14-6.909l1.935,9.763l3.483,33.119c0,0-10.835,11.287-10.835,6.206c0,0,6.02-82.942,0.602-94.227
		C678.156,377.044,668.75,322.766,687.603,323.949z"/>
	<path fill="#FFFFFF" d="M712.717,569.873c-7.041,0-13.393-3.496-14.767-4.304c-2.03,0.707-4.082,1.064-6.095,1.064
		c-7.045,0-11.567-4.27-12.263-4.961c-8.681-3.973-3.127-17.255-2.885-17.818c5.98-9.074,0.431-40.07-0.008-42.433
		c-8.654-10.196-8.201-24.467-8.175-25.072l0.032-0.169c5.911-15.494-0.569-111.113-0.636-112.076
		c-7.222-36.643,10.369-43.639,11.117-43.917l0.158-0.036c4.604-0.476,7.528,0.073,8.65,1.619c0.824,1.136,0.33,2.339,0.312,2.389
		l-0.164,0.382l-0.435-0.026c-2.444-0.167-4.398,0.649-6.038,2.457c-9.298,10.244-3.103,48.021-2.781,49.914
		c5.361,11.544-0.338,91.043-0.585,94.429c0,0.71,0.234,0.71,0.36,0.71c1.7,0,6.492-4.307,9.249-7.148l-3.457-32.871l-2.295-11.556
		l8.656,8.379l5.536,30.503l5.403,16.878c4.697,8.246,20.671,54.636,21.642,57.457c5.938,8.803,8.124,16.623,6.491,23.25
		c-1.636,6.635-6.52,9.519-6.726,9.634C720.19,568.741,716.7,569.873,712.717,569.873z M698.096,564.308l0.261,0.163
		c0.071,0.044,6.938,4.275,14.36,4.275c3.697,0,6.934-1.044,9.606-3.112c0.111-0.071,4.747-2.826,6.256-9.002
		c1.551-6.331-0.601-13.877-6.379-22.423l-0.071-0.13c-0.166-0.487-16.891-49.104-21.629-57.443l-5.465-17.047l-5.49-30.226
		l-5.615-5.439l1.572,7.922l3.514,33.416l-0.18,0.185c-0.756,0.791-7.48,7.708-10.319,7.708c-0.47,0-1.563-0.184-1.563-1.88
		c0.063-0.865,5.95-82.969,0.654-93.995l-0.044-0.143c-0.28-1.629-6.805-40.361,3.042-51.211c1.729-1.904,3.885-3.183,6.395-3.183
		c0.037,0,0.077,0,0.118,0c0.026,0-0.016-0.314-0.274-0.662c-0.431-0.584-1.601-1.125-4.689-1.125c-0.818,0-1.739,0.128-2.731,0.229
		c-1.176,0.507-17.118,8.163-10.305,42.743c0.277,4.005,6.547,96.563,0.609,112.528c-0.025,1.196-0.126,14.886,8.01,24.362
		l0.095,0.118l0.026,0.143c0.263,1.366,6.302,33.617-0.077,43.28c-0.012,0.044-5.379,12.886,2.434,16.343l0.196,0.138
		c0.046,0.047,4.494,4.67,11.442,4.67c1.959,0,3.963-0.37,5.947-1.095L698.096,564.308z"/>
</g>
<g>
	<path fill="#020202" d="M720.498,996.025c0,0-16.853,11.854-4.814,20.875c0,0,44.146,38.048,97.119,7.36
		c0,0,10.438-11.121-12.842-14.131L720.498,996.025z"/>
	<path fill="#FFFFFF" d="M770.161,1036.454c-0.003,0-0.003,0-0.007,0c-31.918,0-54.654-19.104-54.878-19.301
		c-3.045-2.281-4.581-4.897-4.532-7.92c0.123-7.14,9.017-13.435,9.393-13.698l0.212-0.126l79.724,14.162
		c8.682,1.119,13.828,3.534,15.263,7.146c1.573,3.961-1.929,7.753-2.078,7.913l-0.136-0.056
		C799.318,1032.568,784.864,1036.454,770.161,1036.454z M720.653,996.628c-1.327,0.989-8.608,6.687-8.707,12.71
		c-0.038,2.65,1.342,4.838,4.108,6.915c0.256,0.215,22.659,18.981,54.098,18.981c0.002,0,0.006,0,0.006,0
		c14.452,0,28.66-3.766,42.241-11.615c0.414-0.477,3.028-3.533,1.804-6.618c-1.251-3.147-6.209-5.312-14.326-6.366L720.653,996.628z
		"/>
</g>
<g>
	<path fill="#020202" d="M595.637,318.362v-25.955c0,0,16.582-11.284,40.658-4.514l4.078,23.699l23.104,7.305
		c0,0-56.799,27.68-80.874,6.801L595.637,318.362z"/>
	<path fill="#FFFFFF" d="M608.802,334.054c-10.884,0-19.487-2.672-25.563-7.944l-1.232-0.524l13.63-7.553v-25.903l0.863-0.17
		c0.381-0.28,9.913-6.793,25.177-6.793c5.06,0,10.401,0.735,15.563,2.187l0.447,0.103l3.653,23.713l23.867,7.613l-1.224,0.613
		C663.685,319.542,634.045,334.054,608.802,334.054z M584.055,325.801c5.813,4.728,14.234,7.125,24.437,7.125
		c22.002,0,47.606-11.187,53.512-13.928l-21.789-6.984l-3.572-23.682c-4.93-1.352-10.467-2.038-15.292-2.038
		c-13.546,0-23.273,5.397-24.493,6.401v25.998L584.055,325.801z"/>
</g>
<g>
	<path fill="#020202" d="M708.859,923.804l12.838,84.45c0,0,39.332,30.094,85.08,10.532l9.634-87.817L708.859,923.804z"/>
	<path fill="#FFFFFF" d="M774.762,1025.936L774.762,1025.936c-30.521,0-53.217-17.085-53.444-17.258l-0.18-0.133l-0.03-0.216
		l-12.947-85.142l108.917,7.255l-9.734,88.722l-0.313,0.122C796.697,1023.706,785.84,1025.936,774.762,1025.936z M722.262,1007.95
		c2.195,1.604,23.857,16.88,52.497,16.88c10.792,0,21.376-2.159,31.457-6.424l9.533-86.922l-106.191-7.067L722.262,1007.95z"/>
</g>
<g>
	<path fill="#020202" d="M701.779,890.513v37.239c0,0,56.122,35.246,118.342,4.835V899.54
		C820.121,899.54,761.56,859.29,701.779,890.513z"/>
	<path fill="#FFFFFF" d="M767.443,944.952c-0.002,0-0.005,0-0.008,0c-37.33,0-65.184-16.839-65.459-17.013l-0.197,0.117v-37.874
		l0.234-0.167c15.022-7.919,31.322-11.941,48.52-11.941c38.949,0,70.017,20.801,70.325,21.01l0.483,0.171v33.678l-0.58-0.128
		C804.105,941.052,785.997,944.952,767.443,944.952z M702.999,927.444c2.44,1.747,29.434,16.288,64.435,16.288c0,0,0.007,0,0.01,0
		c18.233,0,35.597-3.429,52.678-11.484v-32.416c-4.879-1.955-32.589-20.618-69.295-20.618c-16.869,0-34.406,3.913-47.827,11.634
		V927.444L702.999,927.444z"/>
</g>
<g>
	<path fill="#020202" d="M702.237,890.513c0,0,58.39,41.753,117.988,9.027"/>
	<path fill="#FFFFFF" d="M771.363,912.578c-12.379,0-23.563-2.12-32.662-4.739c-21.895-6.305-36.684-16.774-36.831-16.879
		l0.732-0.896c0.146,0.104,14.793,10.463,36.495,16.706c19.991,5.748,50.242,9.074,80.824-7.718l0.607,0.975
		C803.478,909.392,786.529,912.578,771.363,912.578z"/>
</g>
<g>
	<path fill="#FFFFFF" d="M761.179,891.184l-0.311-0.22c-1.81-1.276-44.435-31.429-52.531-49.804
		c-1.032-1.1-14.667-15.42-41.869-33.32l0.691-0.925c28.321,18.632,42.02,33.423,42.154,33.576l0.103,0.154
		c7.52,17.272,47.898,46.364,51.868,49.195c3.817-2.006,38.559-20.649,49.778-41.152l1.073,0.516
		c-11.984,21.908-50.229,41.608-50.612,41.809L761.179,891.184z"/>
</g>
<g>
	<path fill="#FFFFFF" d="M761.463,892.406l-22.806-48.682c-16.009-35.097,12.705-94.479,12.998-95.075l1.094,0.477
		c-0.29,0.589-28.787,59.521-12.988,94.147l21.238,45.348l13.06-64.673c-5.508-21.768,9.048-67.094,9.673-69.015l1.147,0.328
		c-0.152,0.472-15.134,47.123-9.621,68.546l0.028,0.117L761.463,892.406z"/>
</g>
<g>
	<polygon fill="#FFFFFF" points="775.162,824.26 774.188,823.6 796.147,795.105 818.102,699.156 774.177,637.398 775.177,636.772 
		819.388,698.926 819.333,699.16 797.272,795.577 	"/>
</g>
<g>
	<path fill="#FFFFFF" d="M797.108,795.762l-0.795-0.84l36.725-30.525l0.228-0.004c23.483-0.287,39.472-23.292,39.632-23.525
		l1.011,0.608c-0.16,0.237-16.404,23.612-40.402,24.042L797.108,795.762z"/>
</g>
<g>
	<line fill="none" x1="826.044" y1="754.528" x2="799.303" y2="784.006"/>
	<polygon fill="#FFFFFF" points="799.763,784.372 798.845,783.639 825.586,754.162 826.503,754.896 	"/>
</g>
<g>
	<path fill="#FFFFFF" d="M735.711,830.329l-0.915-0.735c23.601-25.896,31.387-70.02,31.46-70.455l1.192,0.179
		C767.37,759.764,759.534,804.192,735.711,830.329z"/>
</g>
<g>
	<line fill="none" x1="692.805" y1="769.267" x2="735.254" y2="807.379"/>
	<polygon fill="#FFFFFF" points="734.837,807.786 692.391,769.675 693.221,768.858 735.668,806.973 	"/>
</g>
<g>
	<path fill="#020202" stroke="#FFFFFF" stroke-miterlimit="10" d="M666.815,788.321"/>
</g>
<g>
	<path fill="#020202" d="M662.912,787.818c0,0,19.859,7.797,3.809,19.886C666.721,807.704,653.488,801.738,662.912,787.818z"/>
	<path fill="#FFFFFF" d="M666.8,808.366l-0.34-0.155c-0.224-0.097-5.437-2.503-7.065-7.838c-1.176-3.848-0.162-8.173,3.01-12.854
		l0.275-0.403l0.472,0.185c0.383,0.15,9.415,3.762,10.361,10.06c0.533,3.544-1.624,7.178-6.413,10.782L666.8,808.366z
		 M663.146,788.536c-2.761,4.231-3.633,8.104-2.601,11.515c1.248,4.106,4.973,6.375,6.106,6.979c4.22-3.258,6.126-6.456,5.666-9.509
		C671.577,792.613,664.97,789.35,663.146,788.536z"/>
</g>
<g>
	<path fill="#020202" d="M673.781,816.265c0,0,5.623,19.487-14.411,15.025C659.372,831.292,656.271,817.843,673.781,816.265z"/>
	<path fill="#FFFFFF" d="M664.763,832.521c-1.652,0-3.509-0.229-5.528-0.68l-0.371-0.083l-0.078-0.346
		c-0.053-0.225-1.23-5.563,2.263-10.038c2.518-3.23,6.786-5.136,12.68-5.67l0.504-0.038l0.13,0.458
		c0.102,0.338,2.376,8.437-1.483,13.159C671.124,831.431,668.394,832.521,664.763,832.521z M659.9,830.827
		c5.752,1.205,9.833,0.455,12.022-2.231c3.005-3.682,1.805-9.965,1.396-11.716c-5.261,0.561-9.058,2.288-11.292,5.147
		C659.331,825.474,659.715,829.618,659.9,830.827z"/>
</g>
<g>
	<path fill="#020202" d="M660.065,808.619c0,0-17.995,11.078-19.722-8.152C640.344,800.467,653.015,793.511,660.065,808.619z"/>
	<path fill="#FFFFFF" d="M649.848,812.358c-4.123,0-9.227-2.06-10.102-11.847l-0.031-0.352l0.329-0.181
		c0.129-0.067,3.097-1.676,7.026-1.676c4.038,0,9.661,1.754,13.551,10.09l0.204,0.432l-0.428,0.263
		C660.179,809.222,655.025,812.358,649.848,812.358z M640.977,800.79c0.717,6.928,3.694,10.438,8.87,10.438
		c3.99,0,8.125-2.098,9.449-2.829c-2.872-5.869-7.092-8.969-12.23-8.969C644.191,799.431,641.822,800.396,640.977,800.79z"/>
</g>
<g>
	<path fill="#020202" d="M691.678,769.475c0,0-14.129,15.442-22.451-2.644C669.226,766.831,679.464,756.776,691.678,769.475z"/>
	<path fill="#FFFFFF" d="M679.818,776.182c-4.607,0-8.361-3.07-11.149-9.127l-0.157-0.341l0.276-0.274
		c0.167-0.16,4.093-3.945,10.074-3.945c4.583,0,9.047,2.219,13.264,6.607l0.355,0.37l-0.345,0.376
		C691.896,770.102,686.261,776.182,679.818,776.182z M669.944,766.966c2.561,5.363,5.875,8.087,9.875,8.087
		c5.025,0,9.733-4.28,11.044-5.578c-3.867-3.885-7.904-5.855-12-5.855C674.259,763.619,670.911,766.145,669.944,766.966z"/>
</g>
<g>
	<path fill="#020202" d="M714.361,759.749c0,0-4.551,19.89-21.076,7.72C693.282,767.469,697.162,754.055,714.361,759.749z"/>
	<path fill="#FFFFFF" d="M703.021,771.977c-3.049,0-6.449-1.368-10.111-4.063l-0.312-0.229l0.104-0.362
		c0.025-0.095,2.884-9.543,13.8-9.543c2.466,0,5.174,0.482,8.058,1.439l0.498,0.169l-0.109,0.482
		C714.834,760.362,712.074,771.977,703.021,771.977z M693.981,767.264c3.317,2.372,6.355,3.585,9.04,3.585
		c7.105,0,10.007-8.583,10.622-10.732c-2.566-0.804-4.964-1.211-7.143-1.211C697.566,758.905,694.583,765.609,693.981,767.264z"/>
</g>
<g>
	<path fill="#020202" d="M749.274,749.594c0,0-4.55,19.889-21.075,7.719C728.196,757.313,732.077,743.897,749.274,749.594z"/>
	<path fill="#FFFFFF" d="M737.936,761.819c-3.048,0-6.448-1.363-10.11-4.058l-0.313-0.231l0.104-0.358
		c0.026-0.099,2.884-9.547,13.801-9.547c2.466,0,5.172,0.486,8.058,1.446l0.5,0.164l-0.114,0.482
		C749.752,750.205,746.986,761.819,737.936,761.819z M728.896,757.106c3.317,2.373,6.354,3.583,9.039,3.583
		c7.108,0,10.008-8.578,10.623-10.729c-2.566-0.806-4.962-1.213-7.142-1.213C732.479,748.748,729.499,755.452,728.896,757.106z"/>
</g>
<g>
	<path fill="#020202" d="M760.229,757.809c0,0,12.1,16.885-8.72,19.574C751.513,777.383,743.912,765.447,760.229,757.809z"/>
	<path fill="#FFFFFF" d="M751.202,777.992l-0.204-0.325c-0.126-0.195-3.027-4.851-1.32-10.322c1.269-4.066,4.73-7.446,10.286-10.04
		l0.478-0.227l0.292,0.412c0.229,0.326,5.646,7.998,2.764,14.034c-1.652,3.448-5.653,5.609-11.896,6.418L751.202,777.992z
		 M760.012,758.545c-4.954,2.417-8.041,5.479-9.178,9.107c-1.319,4.212,0.418,8.008,1.01,9.119
		c5.565-0.789,9.115-2.709,10.547-5.704C764.647,766.347,761.073,760.197,760.012,758.545z"/>
</g>
<g>
	<path fill="#020202" d="M774.84,807.669c0,0-5.681,19.638-21.484,6.655C753.354,814.324,757.99,801.121,774.84,807.669z"/>
	<path fill="#FFFFFF" d="M763.325,819.322c-3.179,0-6.671-1.544-10.369-4.574l-0.301-0.247l0.128-0.353
		c0.031-0.092,3.231-8.87,13.401-8.87c2.713,0,5.703,0.631,8.886,1.866l0.486,0.188l-0.135,0.48
		C775.286,808.285,771.993,819.322,763.325,819.322z M754.064,814.158c3.352,2.678,6.467,4.037,9.261,4.037
		c6.787,0,10.051-8.121,10.776-10.194c-2.847-1.054-5.51-1.586-7.919-1.586C757.992,806.412,754.748,812.611,754.064,814.158z"/>
</g>
<g>
	<path fill="#020202" d="M796.352,845.833c0,0,12.098,16.884-8.719,19.572C787.63,865.405,780.032,853.472,796.352,845.833z"/>
	<path fill="#FFFFFF" d="M787.318,866.015l-0.202-0.32c-0.128-0.195-3.028-4.855-1.32-10.32c1.268-4.067,4.729-7.449,10.286-10.047
		l0.479-0.224l0.292,0.414c0.229,0.321,5.646,7.992,2.76,14.033c-1.652,3.449-5.652,5.605-11.896,6.413L787.318,866.015z
		 M796.134,846.568c-4.956,2.413-8.04,5.475-9.175,9.107c-1.322,4.212,0.415,8.004,1.005,9.113c5.569-0.785,9.116-2.7,10.55-5.698
		C800.766,854.368,797.19,848.219,796.134,846.568z"/>
</g>
<g>
	<path fill="#020202" d="M824.094,795.887c0,0-13.084,16.229-22.587-1.343C801.507,794.548,811.064,783.921,824.094,795.887z"/>
	<path fill="#FFFFFF" d="M812.122,803.284c-4.354,0-8.108-2.854-11.155-8.48l-0.178-0.331l0.258-0.284
		c0.168-0.18,4.166-4.549,10.599-4.549c4.309,0,8.639,1.965,12.864,5.851l0.382,0.349l-0.319,0.392
		C824.342,796.517,818.81,803.284,812.122,803.284z M802.237,794.641c2.782,4.99,6.108,7.514,9.887,7.514
		c5.221,0,9.891-4.805,11.159-6.217c-3.864-3.435-7.775-5.175-11.629-5.175C806.675,790.763,803.2,793.72,802.237,794.641z"/>
</g>
<g>
	<path fill="#020202" d="M849.377,755.262c0,0-13.084,16.234-22.585-1.34C826.793,753.922,836.35,743.295,849.377,755.262z"/>
	<path fill="#FFFFFF" d="M837.406,762.657c-4.356,0-8.107-2.854-11.156-8.479l-0.178-0.33l0.26-0.285
		c0.166-0.186,4.168-4.549,10.6-4.549c4.31,0,8.637,1.967,12.863,5.854l0.381,0.342l-0.319,0.396
		C849.623,755.889,844.093,762.657,837.406,762.657z M827.521,754.016c2.781,4.988,6.107,7.514,9.886,7.514
		c5.219,0,9.887-4.805,11.156-6.224c-3.863-3.433-7.772-5.169-11.626-5.169C831.957,750.137,828.482,753.093,827.521,754.016z"/>
</g>
<g>
	<path fill="#020202" d="M871.268,742.037c0,0-21.667-1.183-11.359-18.348C859.91,723.689,874.646,725.235,871.268,742.037z"/>
	<path fill="#FFFFFF" d="M871.76,742.63l-0.533-0.027c-0.415-0.024-10.205-0.624-13.59-6.431c-1.937-3.314-1.348-7.608,1.743-12.758
		l0.197-0.324l0.394,0.036c0.241,0.025,5.956,0.676,9.569,5.262c2.688,3.409,3.465,8.036,2.314,13.751L871.76,742.63z
		 M860.232,724.308c-2.699,4.632-3.217,8.434-1.54,11.314c2.642,4.535,10.034,5.593,12.074,5.802
		c0.942-5.16,0.205-9.326-2.194-12.371C865.788,725.521,861.531,724.533,860.232,724.308z"/>
</g>
<g>
	<path fill="#020202" d="M892.231,753.344c0,0-18.169,11.124-20.771-8.422C871.463,744.922,884.291,737.95,892.231,753.344z"/>
	<path fill="#FFFFFF" d="M881.876,757.061c-4.296,0-9.685-2.094-11.011-12.073l-0.049-0.37l0.344-0.188
		c0.124-0.066,3.08-1.65,7.091-1.65c4.195,0,10.123,1.789,14.519,10.313l0.23,0.449l-0.442,0.27
		C892.345,753.947,887.202,757.061,881.876,757.061z M872.113,745.24c1.042,7.095,4.327,10.696,9.765,10.696
		c4.09,0,8.224-2.063,9.573-2.803c-3.253-6.03-7.804-9.224-13.193-9.224C875.321,743.91,872.971,744.848,872.113,745.24z"/>
</g>
<g>
	<path fill="#020202" d="M776.684,643.878c0,0-18.169,11.125-20.771-8.421C755.911,635.456,768.741,628.483,776.684,643.878z"/>
	<path fill="#FFFFFF" d="M766.327,647.593c-4.294,0-9.686-2.091-11.009-12.067l-0.049-0.369l0.342-0.187
		c0.125-0.069,3.083-1.651,7.093-1.651c4.193,0,10.122,1.79,14.518,10.313l0.229,0.444l-0.442,0.273
		C776.797,644.484,771.655,647.593,766.327,647.593z M756.565,635.777c1.042,7.091,4.326,10.689,9.763,10.689
		c4.093,0,8.225-2.061,9.574-2.805c-3.25-6.03-7.803-9.218-13.19-9.218C759.773,634.444,757.424,635.382,756.565,635.777z"/>
</g>
<g>
	<path fill="#020202" d="M787.519,748.828c0,0-18.168,11.125-20.767-8.42C766.751,740.408,779.579,733.438,787.519,748.828z"/>
	<path fill="#FFFFFF" d="M777.162,752.546c-4.292,0-9.686-2.093-11.007-12.069l-0.051-0.375l0.343-0.183
		c0.127-0.071,3.083-1.651,7.094-1.651c4.193,0,10.121,1.79,14.519,10.313l0.229,0.447l-0.442,0.272
		C787.632,749.434,782.491,752.546,777.162,752.546z M767.4,740.728c1.043,7.092,4.328,10.69,9.762,10.69
		c4.091,0,8.226-2.063,9.575-2.802c-3.253-6.033-7.804-9.225-13.192-9.225C770.611,739.397,768.26,740.332,767.4,740.728z"/>
</g>
<g>
	<path fill="#020202" d="M778.262,734.553c0,0-21.682,0.891-13.287-17.172C764.978,717.381,779.804,717.516,778.262,734.553z"/>
	<path fill="#FFFFFF" d="M777.778,735.125c-2.378,0-10.401-0.381-13.815-5.262c-2.167-3.105-2.012-7.379,0.462-12.706l0.163-0.345
		l0.396,0.006c0.243,0.003,5.993,0.102,10.091,4.318c3.041,3.132,4.316,7.661,3.791,13.461l-0.042,0.496l-0.531,0.024
		C778.292,735.118,778.106,735.125,777.778,735.125z M765.364,717.968c-2.147,4.786-2.281,8.581-0.394,11.278
		c3.114,4.449,10.99,4.74,12.733,4.749c0.383-5.23-0.807-9.3-3.525-12.099C771.023,718.644,766.68,718.067,765.364,717.968z"/>
</g>
<g>
	<path fill="#020202" d="M786.135,723.934c0,0-16.699-12.987,2.463-21.087C788.594,702.847,799.483,712.281,786.135,723.934z"/>
	<path fill="#FFFFFF" d="M786.155,724.688l-0.406-0.319c-0.32-0.248-7.827-6.177-6.882-12.733c0.54-3.742,3.732-6.878,9.481-9.306
		l0.363-0.153l0.29,0.254c0.178,0.154,4.368,3.848,4.383,9.551c0.007,4.234-2.296,8.395-6.838,12.363L786.155,724.688z
		 M788.462,703.527c-5.104,2.229-7.928,5.006-8.398,8.26c-0.738,5.128,4.543,10.084,6.056,11.383
		c4.025-3.634,6.063-7.389,6.061-11.17C792.177,707.611,789.366,704.434,788.462,703.527z"/>
</g>
<g>
	<path fill="#020202" d="M790.949,745.378c0,0-16.698-12.994,2.463-21.089C793.41,724.289,804.3,733.723,790.949,745.378z"/>
	<path fill="#FFFFFF" d="M790.973,746.129l-0.406-0.318c-0.324-0.248-7.827-6.176-6.883-12.736c0.539-3.746,3.733-6.875,9.481-9.303
		l0.361-0.152l0.293,0.253c0.179,0.152,4.365,3.847,4.379,9.551c0.007,4.234-2.291,8.396-6.839,12.362L790.973,746.129z
		 M793.275,724.969c-5.104,2.227-7.925,5.008-8.398,8.262c-0.74,5.124,4.545,10.078,6.058,11.379
		c4.022-3.635,6.061-7.388,6.058-11.166C796.99,729.053,794.181,725.876,793.275,724.969z"/>
</g>
<g>
	<path fill="#020202" d="M783.357,767.731c0,0-0.614-20.334,18.522-12.189C801.879,755.542,801.507,769.435,783.357,767.731z"/>
	<path fill="#FFFFFF" d="M786.331,768.441c-0.968,0-1.99-0.051-3.034-0.149l-0.526-0.049l-0.019-0.497
		c-0.01-0.32-0.184-7.886,4.141-12.056c3.376-3.255,8.567-3.501,15.233-0.662l0.362,0.154l-0.009,0.373
		C802.476,755.685,801.958,768.441,786.331,768.441z M783.959,767.214c0.818,0.066,1.61,0.094,2.37,0.094
		c13.178,0,14.738-9.38,14.92-11.411c-5.97-2.457-10.549-2.264-13.498,0.577C784.386,759.725,783.999,765.491,783.959,767.214z"/>
</g>
<g>
	<ellipse fill="#020202" cx="753.403" cy="824.112" rx="10.324" ry="7.843"/>
	<path fill="#FFFFFF" d="M753.406,832.521c-6.025,0-10.927-3.774-10.927-8.409c0-4.637,4.903-8.415,10.927-8.415
		s10.922,3.778,10.922,8.415C764.328,828.747,759.43,832.521,753.406,832.521z M753.406,816.833c-5.362,0-9.725,3.265-9.725,7.279
		s4.362,7.276,9.725,7.276c5.36,0,9.721-3.262,9.721-7.276S758.765,816.833,753.406,816.833z"/>
</g>
<g enable-background="new    ">
	<path fill="#E8754D" d="M51.38,397.062c0.677,0,1.333,0.102,1.964,0.303c0.632,0.202,1.195,0.527,1.689,0.975
		c0.495,0.449,0.889,1.03,1.182,1.745c0.292,0.715,0.439,1.575,0.439,2.581v9.862h-3.462v-9.12c0-2.216-0.961-3.323-2.885-3.323
		c-0.274,0-0.598,0.041-0.974,0.125c-0.378,0.082-0.735,0.248-1.073,0.494c-0.337,0.248-0.628,0.6-0.865,1.058
		c-0.238,0.457-0.357,1.063-0.357,1.813v8.954h-3.461v-20.764h3.269v7.36H46.9c0.533-0.769,1.187-1.304,1.964-1.607
		C49.643,397.214,50.479,397.062,51.38,397.062z"/>
	<path fill="#E8754D" d="M75.392,411.125c-0.734,0.495-1.596,0.889-2.582,1.181c-0.991,0.292-2.2,0.439-3.628,0.439
		c-0.881,0-1.731-0.114-2.557-0.344c-0.823-0.229-1.56-0.612-2.211-1.153c-0.649-0.539-1.172-1.264-1.564-2.169
		c-0.394-0.907-0.59-2.037-0.59-3.393v-1.564c0-1.227,0.178-2.284,0.534-3.172c0.359-0.888,0.848-1.622,1.47-2.198
		c0.625-0.576,1.352-1.002,2.185-1.277c0.834-0.274,1.736-0.413,2.707-0.413c0.951,0,1.836,0.139,2.651,0.413
		c0.815,0.275,1.515,0.693,2.103,1.25c0.585,0.558,1.044,1.254,1.374,2.087c0.33,0.833,0.496,1.799,0.496,2.897v2.5H65.638
		c0,1.209,0.32,2.119,0.961,2.733c0.641,0.613,1.566,0.92,2.775,0.92c0.897,0,1.693-0.096,2.391-0.289
		c0.694-0.191,1.428-0.508,2.198-0.946L75.392,411.125z M72.452,403.599v-0.661c0-0.402-0.062-0.787-0.178-1.152
		c-0.118-0.366-0.316-0.687-0.588-0.961c-0.276-0.275-0.625-0.494-1.045-0.659c-0.422-0.165-0.935-0.248-1.539-0.248
		c-1.154,0-2.02,0.302-2.596,0.907c-0.579,0.604-0.866,1.337-0.866,2.197v0.578H72.452z"/>
	<path fill="#E8754D" d="M90.228,400.495c-0.257-0.109-0.532-0.192-0.826-0.248c-0.292-0.055-0.658-0.082-1.097-0.082
		c-0.478,0-0.921,0.082-1.333,0.247c-0.414,0.164-0.771,0.399-1.071,0.699c-0.303,0.303-0.541,0.66-0.716,1.072
		c-0.175,0.412-0.261,0.865-0.261,1.36v8.981h-3.461v-15.134h3.326v2.197h0.055c0.402-0.769,0.939-1.382,1.606-1.84
		c0.668-0.458,1.544-0.688,2.622-0.688c0.383,0,0.771,0.029,1.155,0.083c0.383,0.055,0.713,0.128,0.99,0.22L90.228,400.495z"/>
	<path fill="#E8754D" d="M108.225,411.125c-0.734,0.495-1.596,0.889-2.583,1.181c-0.99,0.292-2.198,0.439-3.626,0.439
		c-0.881,0-1.731-0.114-2.557-0.344c-0.824-0.229-1.56-0.612-2.212-1.153c-0.65-0.539-1.172-1.264-1.565-2.169
		c-0.393-0.907-0.589-2.037-0.589-3.393v-1.564c0-1.227,0.178-2.284,0.534-3.172c0.358-0.888,0.847-1.622,1.471-2.198
		c0.625-0.576,1.35-1.002,2.185-1.277c0.834-0.274,1.734-0.413,2.706-0.413c0.952,0,1.836,0.139,2.651,0.413
		c0.815,0.275,1.516,0.693,2.104,1.25c0.584,0.558,1.043,1.254,1.374,2.087c0.33,0.833,0.494,1.799,0.494,2.897v2.5H98.47
		c0,1.209,0.322,2.119,0.961,2.733c0.64,0.613,1.567,0.92,2.773,0.92c0.898,0,1.695-0.096,2.391-0.289
		c0.696-0.191,1.43-0.508,2.2-0.946L108.225,411.125z M105.283,403.599v-0.661c0-0.402-0.06-0.787-0.179-1.152
		c-0.118-0.366-0.316-0.687-0.589-0.961c-0.276-0.275-0.623-0.494-1.043-0.659c-0.423-0.165-0.936-0.248-1.539-0.248
		c-1.153,0-2.018,0.302-2.596,0.907c-0.578,0.604-0.866,1.337-0.866,2.197v0.578H105.283z"/>
	<path fill="#E8754D" d="M115.203,407.554l-0.524-16.15h3.901l-0.522,16.15H115.203z M114.817,410.219h3.628v3.57h-3.628V410.219z"
		/>
</g>
<line fill="none" stroke="#FFFFFF" stroke-miterlimit="10" x1="566.356" y1="443.929" x2="566.356" y2="459.383"/>
<line fill="none" stroke="#FFFFFF" stroke-miterlimit="10" x1="83.227" y1="553.325" x2="83.227" y2="559.211"/>
<g>
	<path fill="#020202" d="M103.363,341.852l39.025,14.361l21.29,67.606c0,0-10.055,25.005-42.573,13.918c0,0,0.588,8.315,2.958,10.53
		c0,0-60.316-0.553-70.959,3.326c0,0-4.14-12.192-21.291-20.508c0,0-2.365-52.655,13.603-64.847c0,0,18.922-20.54,34.296-21.908
		L103.363,341.852z"/>
	<path fill="#FFFFFF" d="M52.729,452.327l-0.192-0.562c-0.037-0.121-4.288-12.084-20.994-20.185l-0.308-0.15l-0.015-0.32
		c-0.096-2.16-2.194-53.075,13.815-65.301c0.705-0.779,19.181-20.655,34.615-22.032l23.79-2.493l0.137,0.05l39.295,14.461
		l21.428,68.044l-0.073,0.175c-0.073,0.17-7.117,17.111-27.573,17.111c-4.619,0.002-9.625-0.868-14.894-2.58
		c0.274,2.682,1.092,7.814,2.713,9.33l1.024,0.957l-1.449-0.009c0,0-2.977-0.027-7.722-0.027c-16.211,0-54.805,0.323-63.014,3.314
		L52.729,452.327z M32.39,430.746c15.094,7.423,20.05,17.666,21.067,20.142c9.453-2.881,46.937-3.197,62.871-3.197
		c2.988,0,5.272,0.009,6.563,0.019c-1.87-3.078-2.354-9.623-2.374-9.932l-0.063-0.849l0.854,0.292
		c5.452,1.858,10.617,2.802,15.354,2.799c18.567,0,25.62-14.498,26.392-16.228l-21.148-67.159l-38.624-14.215l-23.507,2.466
		c-14.969,1.333-33.73,21.514-33.915,21.721C30.875,378.058,32.232,426.33,32.39,430.746z"/>
</g>
<g>
	<path fill="#020202" d="M74.139,345.868c0,0-21.854,6.967-23.219,15.356h8.688l-4.733,8.328c0,0,5.847,4.441,7.656,16.636
		l4.767-16.632L74.139,345.868z"/>
	<path fill="#FFFFFF" d="M62.343,388.974l-0.4-2.706c-1.749-11.792-7.385-16.231-7.441-16.275l-0.375-0.578l4.494-8.192h-8.384
		l0.097-0.34c1.4-9.109,22.721-15.407,23.628-15.677l1.035-0.232L62.343,388.974z M55.614,369.108
		c1.232,1.109,5.185,5.419,7.05,14.309l10.611-37.098c-4.194,1.378-19.71,6.514-21.642,13.705h8.956L55.614,369.108z"/>
</g>
<g>
	<path fill="#020202" d="M97.684,364.022c0,0,6.08-14.908,13.958-15.567l-3.55-6.603c0,0-43.417,20.959-43.879,38.471
		c0,0,11.36-15.521,20.821-19.237L97.684,364.022z"/>
	<path fill="#FFFFFF" d="M63.569,382.176l0.05-1.872c0.472-17.636,42.419-38.086,44.205-38.947l0.529-0.257l4.207,7.833
		l-0.866,0.074c-7.424,0.621-13.402,15.066-13.457,15.211l-0.185,0.459l-12.965-3.01c-9.163,3.735-20.272,18.812-20.387,18.968
		L63.569,382.176z M107.835,342.604c-4.723,2.358-39.424,20.148-42.776,35.652c3.295-4.203,12.039-14.654,19.743-17.68l0.182-0.074
		l12.339,2.866c1.077-2.489,6.39-13.923,13.423-15.346L107.835,342.604z"/>
</g>
<g>
	<path fill="#020202" d="M74.979,348.455l-4.14-22.677c0,0,14.194-7.206,30.157-6.651l7.095,22.726c0,0-22.47,9.421-40.8,27.714
		C67.291,369.566,70.838,353.95,74.979,348.455z"/>
	<path fill="#FFFFFF" d="M66.274,371.39l0.439-1.942c0.143-0.633,3.542-15.449,7.642-21.121l-4.169-22.846l0.375-0.189
		c0.138-0.071,14.504-7.269,30.46-6.718l0.425,0.017l7.362,23.573l-0.474,0.196c-0.225,0.094-22.576,9.592-40.613,27.587
		L66.274,371.39z M71.496,326.084l4.107,22.503l-0.141,0.187c-3.163,4.196-6.021,14.613-7.116,18.957
		c16.449-15.804,35.8-24.749,39.039-26.186l-6.833-21.88C86.518,319.28,73.812,324.986,71.496,326.084z"/>
</g>
<path fill="#EEE0DF" d="M106.176,342.836c1.257-0.651,1.984-1.009,1.984-1.009s-0.76,0.325-2.111,0.964L106.176,342.836z"/>
<path fill="#90B5CB" d="M124.028,448.607c0,0-35.445-0.328-56.634,1.291c-6.363,0.486-11.441,1.147-13.882,2.046
	c0,0-0.007-0.018-0.02-0.043c-0.121,2.089-0.29,4.524-0.533,7.066c4.565,2.458,9.403,4.508,14.458,6.104
	c8.11,2.556,16.766,3.96,25.778,3.96c12.838,0,24.977-2.818,35.777-7.817C127.338,457.986,125.423,453.618,124.028,448.607z"/>
<path fill="#EE8F27" d="M67.253,371.108l-0.818,2.868c0.248-0.475,0.524-0.948,0.82-1.421L67.253,371.108z"/>
<path fill="#EE8F27" d="M106.176,342.836l-0.125-0.044c-5.97,2.82-23.509,11.841-38.354,26.761l-0.083,0.29l-0.36,1.267l0.002,1.447
	C75.318,359.479,99.134,346.479,106.176,342.836z"/>
<path fill="#EE8F27" d="M67.213,348.879c-0.02,0.01-0.033,0.019-0.054,0.029c0.021-0.009,0.034-0.016,0.054-0.024V348.879z"/>
<path fill="#EE8F27" d="M142.246,356.24l-32.924-12.235l2.371,4.45c-7.833,0.66-13.874,15.619-13.874,15.619l-12.574-2.946
	c-6.569,2.609-14.062,10.998-17.979,15.814c-1.43,1.76-2.38,3.037-2.637,3.383l-1.745,6.133
	c-1.798-12.235-7.609-16.301-7.609-16.301l4.7-7.817h-8.632c0.07-1.199,0.196-1.118,0.36-1.547
	c-3.573,3.284-5.825,5.628-5.825,5.628c-15.867,12.234-13.517,65.007-13.517,65.007c16.469,8.061,20.865,19.725,21.143,20.502
	c0.01,0.027,0.018,0.028,0.018,0.028c2.44-0.899,7.519-1.569,13.885-2.055c21.186-1.618,56.632-1.294,56.632-1.294
	c-2.35-2.224-2.937-10.566-2.937-10.566c32.323,11.122,42.313-13.969,42.313-13.969L142.246,356.24z"/>
<path fill="#ECB194" d="M101.112,319.026c-15.867-0.556-29.974,6.672-29.974,6.672l3.57,19.758l0.54,2.997
	c-1.314,1.761-2.569,4.561-3.667,7.554l-3.89,13.544c14.846-14.921,32.382-23.942,38.353-26.761
	c1.351-0.639,2.113-0.963,2.113-0.963L101.112,319.026z"/>
<path fill="#ECB194" d="M67.697,369.553l3.89-13.546c-2.34,6.374-3.973,13.627-3.973,13.627
	C67.641,369.606,67.67,369.581,67.697,369.553z"/>
<path fill="#FFFFFF" d="M171.239,400.045c0,0-11.423,15.458-2.395,20.593c3.774-8.89,5.871-18.59,5.871-28.756
	c0-5.153-0.543-10.183-1.563-15.054C171.474,383.642,170.497,391.531,171.239,400.045z"/>
<path fill="#EEE0DF" d="M11.676,391.881c0,28.753,16.635,53.814,41.281,67.086c0.244-2.542,0.418-4.975,0.534-7.066
	c-0.275-0.778-4.67-12.473-21.144-20.534c0,0-2.351-52.835,13.516-65.07c0,0,2.251-2.467,5.827-5.751
	c1.695-4.506,10.258-9.292,15.915-11.883l-0.627-29.83C35.543,329.532,11.676,358.437,11.676,391.881z"/>
<path fill="#EEE0DF" d="M173.155,376.828c-7.399-35.399-40.375-62.096-79.958-62.096c-8.978,0-19.681,1.52-27.796,4.657
	l0.873,29.901c2.344-1.311,6.064-3.052,8.436-3.832L71.14,325.7c0,0,14.104-7.229,29.971-6.673l7.052,22.8l1.161,2.177
	l32.924,12.235l21.155,67.834c0,0-9.99,25.09-42.313,13.967c0,0,0.586,8.342,2.938,10.565c1.392,5.011,3.31,9.378,4.946,12.605
	c18.045-8.355,32.332-22.834,39.871-40.574c-9.028-5.135,2.394-20.593,2.394-20.593
	C170.497,391.531,171.474,383.642,173.155,376.828z"/>
<path fill="#FFFFFF" d="M93.364,310.371c-0.581,0.021-1.044,0.046-1.621,0.068l0.073,8.949c0.572-0.041,1.143-0.08,1.692-0.115
	c0.023-0.002,0.038-0.005,0.06-0.006c0.147-0.015,0.303-0.026,0.449-0.042l-0.271-8.867
	C93.612,310.363,93.498,310.367,93.364,310.371z"/>
<g>
	<polygon fill="#F37D21" points="67.172,348.884 67.177,348.875 67.172,348.879 	"/>
	<path fill="#F37D21" d="M67.177,348.875c0.15-0.089,0.31-0.168,0.461-0.255C67.383,348.705,67.187,348.789,67.177,348.875z"/>
	<path fill="#F37D21" d="M51.609,360.786c-0.091,0.449-0.204,0.356-0.271,1.555h8.632l-4.7,7.816c0,0,5.812,4.189,7.604,16.424
		l1.749-6.195c0.255-0.346,1.205-1.656,2.635-3.416c3.918-4.817,11.411-13.22,17.981-15.828l12.572,2.938
		c0,0,6.043-14.963,13.872-15.624l-2.37-4.453l-1.16-2.176c0,0-0.728,0.357-1.988,1.008c-7.041,3.641-30.856,16.643-38.921,29.72
		c-0.289,0.474-0.569,0.946-0.819,1.421l0.817-2.868l0.362-1.266l0.083-0.291c-0.027,0.026-0.056,0.055-0.083,0.083
		c0,0,1.633-7.254,3.973-13.627l0.147-0.516c1.054-2.795,2.257-5.378,3.495-7.038l-0.55-2.997l-3.588,1.429
		c-0.487,0.21-5.113,2.456-5.972,2.941C65.119,349.83,52.761,355.106,51.609,360.786z"/>
</g>
<g enable-background="new    ">
	<path fill="#010101" d="M32.277,413.279c1.241,0,2.141-0.221,2.697-0.663c0.557-0.44,0.836-0.992,0.836-1.66v-0.296
		c0-0.792-0.293-1.38-0.877-1.768c-0.584-0.387-1.434-0.705-2.548-0.958c-0.809-0.179-1.624-0.37-2.443-0.567
		c-0.82-0.198-1.556-0.495-2.212-0.891c-0.658-0.395-1.192-0.929-1.607-1.604c-0.414-0.676-0.622-1.579-0.622-2.712v-0.352
		c0-0.593,0.117-1.209,0.35-1.847c0.234-0.639,0.622-1.228,1.161-1.769c0.538-0.541,1.254-0.985,2.145-1.334
		c0.89-0.351,1.991-0.526,3.305-0.526c1.079,0,2.114,0.112,3.103,0.336c0.989,0.225,1.979,0.653,2.969,1.28l-1.62,2.672
		c-0.791-0.503-1.528-0.832-2.212-0.985c-0.684-0.152-1.413-0.229-2.185-0.229c-0.612,0-1.144,0.073-1.593,0.217
		c-0.449,0.144-0.824,0.331-1.119,0.567c-0.296,0.234-0.519,0.485-0.663,0.754c-0.144,0.271-0.216,0.54-0.216,0.811v0.324
		c0,0.469,0.113,0.845,0.338,1.133c0.226,0.289,0.526,0.525,0.904,0.715c0.376,0.188,0.824,0.342,1.336,0.46
		c0.513,0.117,1.056,0.238,1.631,0.364c1.151,0.252,2.12,0.562,2.9,0.93c0.781,0.367,1.413,0.786,1.889,1.255
		c0.476,0.468,0.818,0.984,1.024,1.552c0.206,0.566,0.31,1.182,0.31,1.847v0.351c0,1.079-0.193,1.982-0.579,2.712
		c-0.388,0.728-0.914,1.313-1.578,1.753c-0.667,0.439-1.429,0.756-2.294,0.944c-0.865,0.189-1.764,0.282-2.697,0.282
		c-0.701,0-1.39-0.059-2.064-0.174c-0.676-0.116-1.309-0.275-1.902-0.472c-0.593-0.199-1.146-0.437-1.658-0.716
		c-0.513-0.279-0.959-0.571-1.337-0.875l1.672-2.753c0.594,0.504,1.358,0.943,2.293,1.323
		C30.054,413.087,31.106,413.279,32.277,413.279z"/>
	<path fill="#010101" d="M45.254,396.631h3.453v19.452h-3.453V396.631z"/>
	<path fill="#010101" d="M62.225,396.631c2.896,0,5.028,0.715,6.393,2.144c1.369,1.429,2.052,3.495,2.052,6.192v2.779
		c0,1.35-0.153,2.541-0.46,3.572c-0.305,1.035-0.795,1.904-1.471,2.604c-0.675,0.702-1.543,1.237-2.604,1.605
		c-1.062,0.37-2.346,0.552-3.858,0.552h-6.825v-19.45L62.225,396.631L62.225,396.631z M58.878,413.172h2.887
		c0.863,0,1.631-0.101,2.307-0.297c0.675-0.199,1.241-0.514,1.699-0.946c0.459-0.431,0.81-1.002,1.052-1.713
		c0.244-0.71,0.365-1.578,0.365-2.603v-2.509c0-2.053-0.454-3.49-1.362-4.318c-0.909-0.826-2.263-1.24-4.061-1.24h-2.887V413.172z"
		/>
	<path fill="#010101" d="M80.92,402.594c-0.144-0.342-0.287-0.742-0.431-1.201c-0.145-0.459-0.333-1.039-0.568-1.741v16.431h-3.211
		v-19.452h4.911l4.775,12.087l4.587-12.087h4.965v19.452h-3.265v-16.431c-0.198,0.81-0.369,1.417-0.513,1.822
		c-0.144,0.405-0.278,0.779-0.404,1.121l-4.075,10.253H84.94L80.92,402.594z"/>
	<path fill="#010101" d="M110.224,396.334c1.097,0,2.145,0.158,3.143,0.474c0.999,0.315,1.874,0.809,2.63,1.484
		c0.756,0.675,1.353,1.542,1.793,2.603c0.441,1.062,0.662,2.348,0.662,3.859v3.21c0,1.528-0.22,2.827-0.662,3.899
		c-0.441,1.069-1.033,1.938-1.778,2.603c-0.747,0.667-1.621,1.151-2.62,1.458c-0.998,0.304-2.056,0.458-3.17,0.458
		c-1.117,0-2.174-0.154-3.171-0.458c-0.999-0.307-1.872-0.791-2.619-1.458c-0.747-0.665-1.341-1.534-1.781-2.603
		c-0.44-1.072-0.662-2.371-0.662-3.899v-3.21c0-1.511,0.221-2.797,0.662-3.859c0.439-1.062,1.039-1.928,1.793-2.603
		c0.756-0.675,1.633-1.17,2.631-1.484C108.077,396.494,109.125,396.334,110.224,396.334z M110.224,413.225
		c0.665,0,1.285-0.086,1.861-0.257c0.575-0.171,1.078-0.473,1.512-0.905c0.43-0.43,0.77-1.016,1.011-1.753
		c0.244-0.737,0.367-1.663,0.367-2.78v-2.345c0-1.117-0.123-2.042-0.367-2.78c-0.241-0.737-0.578-1.323-1.011-1.754
		c-0.433-0.431-0.937-0.731-1.512-0.904c-0.575-0.17-1.197-0.257-1.861-0.257c-0.648,0-1.261,0.087-1.835,0.257
		c-0.575,0.172-1.078,0.473-1.51,0.904c-0.432,0.432-0.775,1.017-1.024,1.754c-0.251,0.739-0.377,1.665-0.377,2.78v2.345
		c0,1.118,0.124,2.043,0.377,2.78c0.251,0.737,0.595,1.323,1.024,1.753c0.431,0.432,0.934,0.734,1.51,0.905
		C108.964,413.139,109.575,413.225,110.224,413.225z"/>
	<path fill="#010101" d="M132.023,396.334c1.096,0,2.144,0.158,3.143,0.474c0.998,0.315,1.875,0.809,2.629,1.484
		c0.755,0.675,1.353,1.542,1.794,2.603c0.439,1.062,0.661,2.348,0.661,3.859v3.21c0,1.528-0.222,2.827-0.661,3.899
		c-0.441,1.069-1.034,1.938-1.78,2.603c-0.747,0.667-1.62,1.151-2.618,1.458c-0.999,0.304-2.057,0.458-3.171,0.458
		c-1.118,0-2.172-0.154-3.17-0.458c-0.997-0.307-1.872-0.791-2.618-1.458c-0.746-0.665-1.34-1.534-1.779-2.603
		c-0.441-1.072-0.662-2.371-0.662-3.899v-3.21c0-1.511,0.221-2.797,0.662-3.859c0.439-1.062,1.037-1.928,1.793-2.603
		c0.757-0.675,1.631-1.17,2.631-1.484C129.877,396.492,130.925,396.334,132.023,396.334z M132.023,413.225
		c0.665,0,1.284-0.086,1.861-0.257c0.576-0.171,1.08-0.473,1.512-0.905c0.431-0.43,0.77-1.016,1.012-1.753
		c0.242-0.737,0.364-1.663,0.364-2.78v-2.345c0-1.117-0.122-2.042-0.364-2.78c-0.242-0.737-0.58-1.323-1.012-1.754
		c-0.432-0.431-0.935-0.731-1.512-0.904c-0.574-0.17-1.196-0.257-1.861-0.257c-0.648,0-1.26,0.087-1.835,0.257
		c-0.575,0.172-1.078,0.473-1.512,0.904c-0.431,0.432-0.774,1.017-1.024,1.754c-0.251,0.739-0.375,1.665-0.375,2.78v2.345
		c0,1.118,0.125,2.043,0.375,2.78c0.253,0.737,0.594,1.323,1.024,1.753c0.432,0.432,0.935,0.734,1.512,0.905
		C130.765,413.139,131.375,413.225,132.023,413.225z"/>
	<path fill="#010101" d="M149.748,396.631v16.541h8.876v2.911h-12.33v-19.451L149.748,396.631L149.748,396.631z"/>
</g>
<g>
	<path fill="#EEE0DF" d="M690.405,429.559L690.405,429.559l5.444,30.285l5.359,16.919c4.763,8.469,21.429,57.452,21.429,57.452
		c15.479,23.098,0,32.113,0,32.113c-7.976,6.219-18.54,1.936-22.657-0.16l1.937,17.379c40.646-4.889,72.073-37.713,72.073-77.506
		c0-37.923-28.546-69.531-66.41-76.649C700.144,432.978,694.42,431.837,690.405,429.559z"/>
	<polygon fill="#EEE0DF" points="685.264,432.409 684.889,430.493 687.645,455.275 	"/>
	<path fill="#90B5CB" d="M688.707,465.478l-1.063-10.203l-2.758-24.782l-0.452-2.308c-1.367,0.11-2.72,0.249-4.068,0.418
		c-0.021,0.025-0.04,0.047-0.063,0.072c-0.82,22.182-2.314,43.003-2.314,43.003C677.99,476.748,688.707,465.478,688.707,465.478z"/>
	<path fill="#90B5CB" d="M671.945,459.845c0.321-7.008,0.323-15.414,0.207-24.298c-2.402,1.641-4.256,2.681-4.256,2.681
		l-19.502,1.157c-6.156,3.578-11.781,7.907-16.638,12.838v5.128C646.325,457.432,661.35,458.094,671.945,459.845z"/>
	<path fill="#90B5CB" d="M698.234,565.201c-10.715,3.943-17.86-3.723-17.86-3.723c-8.335-3.723-2.665-17.121-2.665-17.121
		c6.268-9.58,0-42.822,0-42.822c-8.618-10.143-8.05-24.934-8.05-24.934c1.149-3.05,1.833-8.582,2.188-17.08h-47.039
		c-10.041,13.354-15.981,29.071-15.981,46.359c0,43.164,36.973,78.238,82.584,78.238c3.566,0,7.062-0.199,10.508-0.611
		l-1.936-17.361C698.879,565.586,698.234,565.201,698.234,565.201z"/>
	<path fill="#FFFFFF" d="M631.756,457.351v-5.128c-2.428,1.643-3.32,3.348-4.815,5.119c-0.381,0.455-0.823,0.751-1.189,1.216
		c-0.302,0.373-0.647,0.965-0.942,0.965h47.039C661.247,458.31,646.325,457.432,631.756,457.351z"/>
	<path fill="#FFFFFF" d="M688.762,427.95l1.644,1.608c4.015,2.279,9.738,3.419,17.175-0.164c-5.233-0.984-10.639-1.508-16.175-1.508
		C690.521,427.887,689.644,427.925,688.762,427.95z"/>
	<path fill="#FFFFFF" d="M672.101,435.547c-0.025-1.808-0.055-3.631-0.088-5.469c-8.497,1.935-16.485,5.101-23.728,9.308
		l19.588-1.157C667.87,438.228,669.7,437.188,672.101,435.547z"/>
	<path fill="#FFFFFF" d="M680.309,428.61c-0.003,0.022-0.003,0.043-0.003,0.064c0.024-0.024,0.045-0.048,0.064-0.072
		C680.351,428.605,680.332,428.608,680.309,428.61z"/>
	<path fill="#B3815C" d="M684.889,430.493l-0.257-2.321c-0.068,0.005-0.129,0.009-0.194,0.013L684.889,430.493z"/>
	<path fill="#B3815C" d="M671.847,459.845L671.847,459.845L671.847,459.845z"/>
	<path fill="#B3815C" d="M690.405,429.559l-1.643-1.608c-0.232,0.007-0.474,0.009-0.709,0.018
		C688.76,428.526,689.545,429.067,690.405,429.559z"/>
	<path fill="#B3815C" d="M722.641,534.215c0,0-16.667-48.983-21.429-57.45l-5.357-16.92l-5.441-30.287h-0.003
		c-0.861-0.49-1.644-1.031-2.353-1.591c-1.146,0.042-2.289,0.115-3.423,0.204l0.258,2.321l0.381,1.916l2.381,22.866l1.063,10.203
		c0,0-10.716,11.268-10.716,6.197c0,0,1.494-20.818,2.313-43.002c0-0.023,0-0.043,0.002-0.065c-2.813,0.359-5.582,0.849-8.297,1.468
		c0.035,1.838,0.068,3.662,0.088,5.47c0.115,8.883,0.064,17.289-0.254,24.298c-0.355,7.802-1.037,13.872-2.191,16.919
		c0,0-0.566,14.633,8.053,24.774c0,0,6.266,33.24,0,42.82c0,0-5.672,13.396,2.663,17.121c0,0,7.145,7.666,17.86,3.723
		c0,0,0.646,0.406,1.749,0.969c4.12,2.094,14.682,6.377,22.657,0.16C722.641,566.33,738.12,557.314,722.641,534.215z"/>
</g>
<g enable-background="new    ">
	<path fill="#010101" d="M653.938,522.189c1.258,0,2.167-0.223,2.733-0.668c0.566-0.447,0.848-1.01,0.848-1.684v-0.301
		c0-0.803-0.297-1.398-0.888-1.789c-0.592-0.393-1.453-0.717-2.582-0.973c-0.822-0.18-1.646-0.373-2.474-0.574
		c-0.832-0.201-1.577-0.5-2.241-0.9c-0.667-0.4-1.209-0.943-1.628-1.627c-0.421-0.684-0.63-1.598-0.63-2.746v-0.357
		c0-0.6,0.119-1.225,0.354-1.871c0.235-0.648,0.631-1.242,1.177-1.791c0.546-0.547,1.271-0.998,2.174-1.352
		c0.9-0.357,2.017-0.535,3.348-0.535c1.093,0,2.142,0.115,3.143,0.342c1.003,0.229,2.005,0.662,3.009,1.299l-1.642,2.705
		c-0.801-0.51-1.548-0.842-2.242-0.998c-0.693-0.154-1.431-0.232-2.212-0.232c-0.622,0-1.159,0.074-1.614,0.221
		s-0.833,0.338-1.135,0.574c-0.3,0.236-0.524,0.492-0.669,0.766c-0.147,0.273-0.222,0.545-0.222,0.82v0.33
		c0,0.471,0.115,0.854,0.344,1.146c0.229,0.291,0.531,0.531,0.915,0.725c0.38,0.189,0.835,0.346,1.354,0.465
		c0.518,0.119,1.069,0.242,1.652,0.369c1.164,0.256,2.147,0.568,2.938,0.941c0.79,0.373,1.43,0.797,1.912,1.271
		c0.48,0.475,0.829,0.998,1.038,1.572c0.208,0.574,0.313,1.199,0.313,1.871v0.357c0,1.092-0.194,2.008-0.588,2.746
		c-0.39,0.738-0.924,1.332-1.597,1.777c-0.672,0.445-1.448,0.766-2.322,0.957c-0.875,0.191-1.788,0.287-2.732,0.287
		c-0.712,0-1.409-0.061-2.092-0.178c-0.685-0.119-1.328-0.277-1.93-0.48c-0.599-0.199-1.162-0.441-1.681-0.723
		c-0.52-0.283-0.971-0.58-1.353-0.889l1.696-2.789c0.602,0.512,1.377,0.957,2.322,1.34
		C651.686,521.998,652.75,522.189,653.938,522.189z"/>
	<path fill="#010101" d="M667.084,505.324h7.436c1.186,0,2.2,0.141,3.048,0.424c0.847,0.283,1.543,0.676,2.091,1.176
		c0.548,0.502,0.952,1.098,1.217,1.791c0.266,0.693,0.396,1.439,0.396,2.242v0.574c0,0.801-0.136,1.563-0.41,2.283
		c-0.274,0.719-0.692,1.346-1.258,1.885c-0.565,0.537-1.267,0.967-2.103,1.285c-0.839,0.32-1.833,0.48-2.979,0.48h-3.937v7.57
		h-3.499L667.084,505.324L667.084,505.324z M670.583,508.25v6.26h3.471c1.147,0,2.05-0.219,2.706-0.656
		c0.654-0.438,0.985-1.23,0.985-2.377v-0.494c0-0.545-0.082-0.99-0.246-1.34c-0.164-0.346-0.396-0.623-0.696-0.832
		s-0.662-0.357-1.081-0.439c-0.419-0.08-0.874-0.123-1.367-0.123L670.583,508.25L670.583,508.25z"/>
	<path fill="#010101" d="M686.873,505.324h3.5v19.707h-3.5V505.324z"/>
	<path fill="#010101" d="M704.066,505.324c2.933,0,5.091,0.725,6.477,2.172c1.386,1.449,2.077,3.541,2.077,6.273v2.816
		c0,1.367-0.155,2.572-0.465,3.621c-0.311,1.047-0.806,1.928-1.49,2.637c-0.684,0.711-1.563,1.252-2.638,1.627
		c-1.076,0.373-2.378,0.561-3.909,0.561h-6.916v-19.707H704.066z M700.675,522.08h2.926c0.874,0,1.651-0.1,2.336-0.301
		c0.685-0.199,1.258-0.52,1.723-0.955c0.464-0.439,0.821-1.016,1.066-1.738c0.246-0.719,0.369-1.598,0.369-2.637v-2.543
		c0-2.078-0.461-3.535-1.382-4.373c-0.92-0.838-2.291-1.256-4.112-1.256h-2.926V522.08z"/>
	<path fill="#010101" d="M731.425,505.324v2.898h-9.211v5.303h8.637v2.842h-8.637v5.768h9.402v2.896h-12.875v-19.705
		L731.425,505.324L731.425,505.324z"/>
	<path fill="#010101" d="M745.283,517.135h-4.02v7.896h-3.499v-19.705h7.461c1.02,0,1.928,0.137,2.72,0.41
		c0.79,0.273,1.455,0.646,1.994,1.119c0.538,0.477,0.947,1.045,1.232,1.711c0.282,0.664,0.424,1.389,0.424,2.17v1.012
		c0,1.039-0.256,1.973-0.765,2.803c-0.511,0.83-1.277,1.473-2.296,1.928c0.654,1.439,1.296,2.863,1.925,4.277
		c0.632,1.412,1.271,2.838,1.929,4.275h-3.8L745.283,517.135z M741.265,508.25v5.959h3.226c1.347,0,2.291-0.236,2.829-0.711
		c0.533-0.475,0.806-1.082,0.806-1.832v-0.818c0-0.768-0.257-1.391-0.767-1.875c-0.511-0.48-1.365-0.725-2.569-0.725L741.265,508.25
		L741.265,508.25z"/>
</g>
<g>
	<path fill="#EEE0DF" d="M853.957,758.799c-1.041-25.976-15.331-48.738-36.676-62.383c-13.296-8.496-29.319-13.455-46.569-13.455
		c-46.019,0-83.325,35.307-83.325,78.86c0,1.3,0.057,2.936,0.124,4.215c1.455,0.947,2.936,1.842,4.467,3.452
		c0,0-1.607,0.791-3.901,2.382c3.96,27.101,22.585,50.63,47.945,61.639c10.565,4.586,22.308,7.165,34.69,7.165
		c0.278,0,0.543-0.019,0.823-0.021c45.638-0.421,82.504-35.55,82.504-78.838C854.036,760.806,853.996,759.801,853.957,758.799z
		 M849.336,755.169c0,0-13.057,16.354-22.535-1.352C826.798,753.817,836.335,743.111,849.336,755.169z M783.458,767.729
		c0,0-0.612-20.484,18.479-12.274C801.938,755.449,801.568,769.447,783.458,767.729z M766.886,740.204c0,0,12.8-7.024,20.728,8.481
		C787.612,748.686,769.485,759.895,766.886,740.204z M791.035,745.209c0,0-16.664-13.087,2.457-21.243
		C793.492,723.966,804.356,733.469,791.035,745.209z M788.685,702.364c0,0,10.866,9.503-2.455,21.243
		C786.229,723.607,769.565,710.521,788.685,702.364z M765.119,717.006c0,0,14.795,0.135,13.257,17.298
		C778.376,734.304,756.745,735.199,765.119,717.006z M760.381,757.734c0,0,12.071,17.014-8.7,19.725
		C751.686,777.453,744.098,765.429,760.381,757.734z M749.45,749.456c0,0-4.543,20.037-21.032,7.784
		C728.42,757.234,732.291,743.719,749.45,749.456z M714.611,759.688c0,0-4.544,20.034-21.03,7.778
		C693.581,767.467,697.448,753.951,714.611,759.688z M760.453,818.664c2.093,1.451,3.418,3.537,3.418,5.866
		c0,4.366-4.615,7.903-10.298,7.903c-5.692,0-10.303-3.537-10.303-7.903c0-4.363,4.613-7.899,10.303-7.899
		c1.159,0,2.271,0.155,3.313,0.429c-1.069-0.635-2.186-1.406-3.366-2.385c0,0,4.4-12.623,20.184-7.161
		c0.414,0.138,0.83,0.283,1.257,0.457c0,0-0.434,1.509-1.396,3.424C771.619,815.261,767.51,820.765,760.453,818.664z
		 M801.568,794.746c0,0,9.536-10.706,22.535,1.352C824.105,796.098,811.053,812.448,801.568,794.746z"/>
	<path fill="#E8754D" d="M691.978,769.488c-1.533-1.61-3.017-2.505-4.467-3.452c0.123,2.374,0.229,3.521,0.569,5.844
		C690.367,770.285,691.978,769.488,691.978,769.488z"/>
	<path fill="#7ABC94" d="M693.581,767.467c16.486,12.262,21.03-7.778,21.03-7.778C697.448,753.951,693.581,767.467,693.581,767.467z
		"/>
	<path fill="#E8754D" d="M728.42,757.234c16.487,12.259,21.033-7.782,21.033-7.782C732.291,743.719,728.42,757.234,728.42,757.234z"
		/>
	<path fill="#5E8152" d="M760.381,757.734c-16.283,7.694-8.7,19.725-8.7,19.725C772.457,774.745,760.381,757.734,760.381,757.734z"
		/>
	<path fill="#7ABC94" d="M773.702,807.508c-0.075,1.313-0.123,2.612-0.136,3.881c0.957-1.915,1.395-3.422,1.395-3.422
		C774.531,807.797,774.115,807.651,773.702,807.508z"/>
	<path fill="#7ABC94" d="M753.521,814.671c1.18,0.979,2.297,1.754,3.366,2.383c1.335,0.346,2.542,0.898,3.566,1.608
		c7.057,2.098,11.165-3.401,13.11-7.273c0.021-1.269,0.068-2.568,0.138-3.881C757.92,802.046,753.521,814.671,753.521,814.671z"/>
	<path fill="#5E8152" d="M801.568,794.746c9.481,17.696,22.535,1.352,22.535,1.352C811.105,784.04,801.568,794.746,801.568,794.746z
		"/>
	<path fill="#7ABC94" d="M849.336,755.169c-13.001-12.058-22.535-1.352-22.535-1.352
		C836.278,771.518,849.336,755.169,849.336,755.169z"/>
	<path fill="#5E8152" d="M766.886,740.204c2.599,19.69,20.728,8.481,20.728,8.481C779.688,733.18,766.886,740.204,766.886,740.204z"
		/>
	<path fill="#E8754D" d="M778.376,734.304c1.538-17.163-13.257-17.298-13.257-17.298
		C756.745,735.199,778.376,734.304,778.376,734.304z"/>
	<path fill="#7ABC94" d="M786.229,723.607c13.321-11.74,2.456-21.243,2.456-21.243C769.565,710.521,786.229,723.607,786.229,723.607
		z"/>
	<path fill="#5E8152" d="M791.035,745.209c13.321-11.74,2.457-21.243,2.457-21.243C774.373,732.122,791.035,745.209,791.035,745.209
		z"/>
	<path fill="#E8754D" d="M783.458,767.729c18.108,1.718,18.479-12.274,18.479-12.274
		C782.846,747.245,783.458,767.729,783.458,767.729z"/>
	<path fill="#5E8152" d="M760.453,818.664c-1.024-0.706-2.231-1.255-3.567-1.607C758.149,817.805,759.342,818.332,760.453,818.664z"
		/>
	<g>
		<path fill="#B3815C" d="M738.794,830.007c0.124-0.571-1.397,0.176-2.021,0.292c-0.948-6.979-0.532-14.491,0.264-21.857
			l-0.376,0.368l-0.417,0.411l-0.437-0.399c-0.878,8.467-1.273,16.818,0.216,24.693c0.435,0.196,0.858,0.34,1.302,0.534
			c-0.172-0.836-0.239-2.043-0.239-2.043"/>
		<path fill="#B3815C" d="M776.482,825.82l0.331-0.435l-0.279-0.21c-5.091-21.268,9.498-68.413,9.646-68.875l-1.149-0.331
			c-0.622,1.938-15.145,47.604-9.649,69.531l-3.938,15.178c0.412,0,0.829-0.025,1.238-0.034l3.881-14.929L776.482,825.82z"/>
		<path fill="#B3815C" d="M754.116,750.119l-1.094-0.477c-0.201,0.414-13.917,30.521-17.267,59.624l1.172,0.176
			C740.079,780.27,753.918,750.532,754.116,750.119z"/>
		<path fill="#B3815C" d="M797.423,796.445l-21.126,27.676c0.089,0.419,0.181,0.83,0.283,1.23l0.026,0.123l-0.046,0.24l21.871-28.65
			l-0.051,0.043l1.086-0.911l-0.512-1.089l2.438-10.759l-0.35-0.64l-0.475,1.557l0.824-0.914l0.266-1.175l18.898-83.389l0.179-1.035
			c-0.817-0.565-2.199-1.526-3.038-2.068l1.551,2.255L797.423,796.445z"/>
		<path fill="#B3815C" d="M834.229,765.505l-35.275,29.603l-0.411,1.812l-0.114,0.146l36.264-30.431
			c7.468-0.136,13.563-3.599,19.271-6.82c-0.012-0.434,0-0.859-0.022-1.292c-5.734,3.33-11.916,6.888-19.491,6.98L834.229,765.505z"
			/>
		<polygon fill="#B3815C" points="827.253,755.566 826.796,755.198 801.66,783.174 801.394,784.349 		"/>
		<path fill="#B3815C" d="M768.784,760.394l-1.19-0.183c-0.076,0.44-7.971,43.884-30.822,70.089c0.07,0.515,0.452,0.907,0.536,1.417
			C760.928,805.357,768.705,760.842,768.784,760.394z"/>
		<path fill="#B3815C" d="M736.138,807.539l-41.419-37.536l-0.414,0.411l41.756,37.849
			C736.087,808.029,736.111,807.778,736.138,807.539z"/>
	</g>
	<path fill="#5E8152" d="M753.573,816.631c-5.692,0-10.303,3.542-10.303,7.899c0,4.366,4.613,7.903,10.303,7.903
		c5.687,0,10.298-3.537,10.298-7.903c0-2.33-1.325-4.417-3.418-5.866c-1.111-0.33-2.305-0.859-3.567-1.607
		C755.844,816.786,754.73,816.631,753.573,816.631z"/>
</g>
<g>
	<g enable-background="new    ">
		<path fill="#010101" d="M727.546,763.878h-8.244v8.906h-3.53v-19.881h3.53v8.05h8.244v-8.05h3.53v19.881h-3.53V763.878z"/>
		<path fill="#010101" d="M737.972,752.902h3.528v19.881h-3.528V752.902z"/>
		<path fill="#010101" d="M755.317,752.902c2.959,0,5.138,0.73,6.536,2.191c1.398,1.46,2.096,3.572,2.096,6.329v2.839
			c0,1.38-0.156,2.598-0.469,3.653c-0.313,1.058-0.813,1.945-1.504,2.662s-1.578,1.265-2.664,1.642
			c-1.084,0.379-2.397,0.564-3.942,0.564h-6.976v-19.881H755.317L755.317,752.902z M751.896,769.808h2.951
			c0.883,0,1.667-0.102,2.358-0.304c0.69-0.202,1.27-0.523,1.738-0.965s0.827-1.024,1.074-1.752c0.249-0.726,0.374-1.612,0.374-2.66
			v-2.567c0-2.097-0.465-3.564-1.394-4.413c-0.93-0.846-2.313-1.268-4.151-1.268h-2.951V769.808z"/>
		<path fill="#010101" d="M777.047,752.902c2.96,0,5.138,0.73,6.538,2.191c1.396,1.46,2.096,3.572,2.096,6.329v2.839
			c0,1.38-0.155,2.598-0.471,3.653c-0.313,1.058-0.812,1.945-1.503,2.662c-0.69,0.717-1.577,1.265-2.662,1.642
			c-1.086,0.379-2.398,0.564-3.945,0.564h-6.976v-19.881H777.047L777.047,752.902z M773.629,769.808h2.949
			c0.884,0,1.669-0.102,2.36-0.304c0.688-0.202,1.267-0.523,1.737-0.965c0.469-0.441,0.827-1.024,1.075-1.752
			c0.247-0.726,0.372-1.612,0.372-2.66v-2.567c0-2.097-0.465-3.564-1.393-4.413c-0.929-0.848-2.313-1.268-4.152-1.268h-2.949
			V769.808z"/>
		<path fill="#010101" d="M804.652,752.902v2.922h-9.293v5.352h8.712v2.867h-8.712v5.82h9.485v2.922h-12.989v-19.881
			L804.652,752.902L804.652,752.902z"/>
		<path fill="#010101" d="M811.052,752.902h4.056l6.783,12.051c0.201,0.369,0.428,0.823,0.677,1.365
			c0.247,0.541,0.443,1.135,0.592,1.776v-15.192h3.309v19.881h-4.055l-6.814-12.076c-0.256-0.441-0.495-0.919-0.715-1.435
			c-0.223-0.517-0.397-1.057-0.525-1.627v15.138h-3.309L811.052,752.902L811.052,752.902z"/>
	</g>
	<g enable-background="new    ">
		<path fill="#010101" d="M740.148,785.691c1.398,0,2.633,0.165,3.71,0.497c1.075,0.331,2.117,0.9,3.13,1.709l-1.902,2.704
			c-0.811-0.681-1.609-1.127-2.4-1.338c-0.792-0.212-1.637-0.318-2.537-0.318c-0.586,0-1.166,0.089-1.736,0.262
			c-0.571,0.177-1.075,0.493-1.517,0.953c-0.441,0.459-0.799,1.085-1.075,1.872c-0.277,0.792-0.414,1.805-0.414,3.036v2.04
			c0,1.046,0.127,1.94,0.383,2.677c0.26,0.736,0.604,1.332,1.036,1.792c0.434,0.459,0.934,0.795,1.505,1.006
			c0.569,0.212,1.168,0.318,1.792,0.318c0.919,0,1.862-0.141,2.828-0.429c0.966-0.284,1.844-0.831,2.632-1.64l1.876,2.702
			c-0.588,0.586-1.209,1.051-1.863,1.393c-0.655,0.342-1.303,0.606-1.943,0.8c-0.646,0.192-1.28,0.317-1.904,0.372
			c-0.626,0.056-1.214,0.083-1.764,0.083c-1.086,0-2.118-0.157-3.103-0.469c-0.984-0.315-1.849-0.81-2.592-1.492
			c-0.742-0.68-1.337-1.544-1.778-2.59c-0.44-1.048-0.662-2.318-0.662-3.806v-3.558c0-1.489,0.217-2.771,0.648-3.847
			s1.024-1.968,1.778-2.675c0.752-0.708,1.631-1.229,2.633-1.559C737.91,785.858,738.992,785.691,740.148,785.691z"/>
		<path fill="#010101" d="M756.669,785.996v16.905h9.072v2.979H753.14v-19.885H756.669z"/>
		<path fill="#010101" d="M770.955,785.996h3.528v19.883h-3.528V785.996z"/>
		<path fill="#010101" d="M781.378,805.879v-19.883h12.794v2.979h-9.266v5.684h8.688v2.977h-8.688v8.246L781.378,805.879
			L781.378,805.879z"/>
		<path fill="#010101" d="M799.827,805.879v-19.883h12.796v2.979h-9.266v5.684h8.688v2.977h-8.688v8.246L799.827,805.879
			L799.827,805.879z"/>
	</g>
</g>
<g>
	<polygon fill="#020202" points="318.428,941.676 404.457,913.728 478.404,931.533 399.479,962.144 	"/>
	<path fill="#FFFFFF" d="M399.523,962.777l-0.209-0.055l-83.053-20.98l88.174-28.646l0.188,0.043l75.806,18.257L399.523,962.777z
		 M320.606,941.604l78.833,19.905l76.947-29.842l-71.903-17.317L320.606,941.604z"/>
</g>
<g>
	<path fill="#020202" d="M377.703,912.926c0,0,18.283-11.751,36.414-7.793c0,0,13.389,4.704,0,17.438
		c0,0-29.323,18.251-43.105,11.496C357.234,927.326,377.703,912.926,377.703,912.926z"/>
	<path fill="#FFFFFF" d="M378.429,936.175c-2.999,0-5.592-0.529-7.714-1.569c-3.159-1.539-4.867-3.619-5.085-6.167
		c-0.625-7.239,11.185-15.639,11.689-15.991c0.158-0.103,13.756-8.729,29.008-8.729c2.74,0,5.412,0.283,7.935,0.835
		c0.292,0.097,5.231,1.88,6.264,6.252c0.834,3.536-1.17,7.643-5.954,12.19l-0.102,0.082
		C413.612,923.608,393.254,936.175,378.429,936.175z M406.327,904.918c-14.86,0-28.131,8.411-28.266,8.502
		c-0.093,0.069-11.729,8.34-11.156,14.922c0.186,2.109,1.667,3.862,4.403,5.207c1.937,0.944,4.336,1.43,7.121,1.43
		c14.073,0,34.085-12.126,35.279-12.864c4.424-4.226,6.295-7.944,5.566-11.052c-0.885-3.743-5.336-5.349-5.38-5.364
		C411.542,905.186,408.972,904.918,406.327,904.918z"/>
</g>
<g>
	<path fill="#020202" d="M391.345,932.918c0,0,6.995-27.552-10.568-31.383l-33.778,31.383
		C346.999,932.918,348.323,952.605,391.345,932.918z"/>
	<path fill="#FFFFFF" d="M360.73,942.37c0,0,0,0-0.003,0c-13.582,0-14.357-9.269-14.367-9.362l-0.017-0.3l0.203-0.202l34.028-31.624
		l0.347,0.073c3.88,0.848,6.909,2.88,8.996,6.044c6.185,9.371,2.222,25.38,2.048,26.062l-0.071,0.274l-0.275,0.177
		C378.851,939.355,368.456,942.37,360.73,942.37z M347.671,933.145c0.215,1.422,1.823,7.93,13.057,7.93h0.002
		c7.477,0,17.584-2.884,30.06-8.564c0.496-2.166,3.522-16.583-1.96-24.875c-1.843-2.791-4.486-4.619-7.858-5.428L347.671,933.145z"
		/>
</g>
<g>
	<path fill="#020202" d="M408.403,922.521c0,0,18.283-11.751,36.412-7.801c0,0,13.39,4.706,0,17.446c0,0-29.325,18.25-43.102,11.498
		C387.935,936.916,408.403,922.521,408.403,922.521z"/>
	<path fill="#FFFFFF" d="M409.132,945.766c-2.997,0-5.59-0.527-7.713-1.566c-3.159-1.546-4.869-3.62-5.089-6.168
		c-0.625-7.241,11.187-15.639,11.69-15.995c0.157-0.099,13.758-8.725,29.01-8.725c2.739,0,5.415,0.278,7.932,0.83
		c0.292,0.096,5.235,1.878,6.264,6.252c0.836,3.542-1.165,7.645-5.951,12.196l-0.104,0.078
		C444.311,933.201,423.956,945.766,409.132,945.766z M437.026,914.51c-14.862,0-28.128,8.419-28.263,8.508
		c-0.095,0.066-11.732,8.337-11.158,14.92c0.185,2.109,1.665,3.859,4.401,5.201c1.935,0.95,4.335,1.433,7.123,1.433
		c14.073,0,34.083-12.132,35.277-12.864c4.424-4.23,6.297-7.951,5.566-11.054c-0.886-3.74-5.337-5.347-5.379-5.365
		C442.247,914.777,439.672,914.51,437.026,914.51z"/>
</g>
<g>
	<path fill="#020202" d="M422.047,942.511c0,0,6.994-27.556-10.567-31.389l-33.779,31.389
		C377.703,942.511,379.025,962.196,422.047,942.511z"/>
	<path fill="#FFFFFF" d="M391.43,951.445c0,0-0.001,0-0.002,0c-13.583,0-14.355-9.011-14.366-9.105l-0.018-0.167l0.204-0.135
		l34.028-31.589l0.346,0.088c3.882,0.843,6.911,2.888,8.998,6.055c6.184,9.365,2.219,25.385,2.047,26.061l-0.071,0.274l-0.274-0.079
		C409.552,948.688,399.156,951.445,391.43,951.445z M378.371,942.477c0.215,1.421,1.822,7.672,13.055,7.672c0.001,0,0.002,0,0.002,0
		c7.479,0,17.587-2.625,30.059-8.307c0.501-2.162,3.527-16.446-1.956-24.75c-1.845-2.788-4.487-4.682-7.86-5.491L378.371,942.477z"
		/>
</g>
<path fill="#EEE0DF" d="M406.202,845.076c-2.56-0.21-5.142-0.347-7.756-0.347c-34.05,0-63.57,18.282-78.265,45.021
	c-1.586,2.883-3,5.859-4.229,8.937l-2.374,6.856c-2.142,7.207-3.313,14.789-3.313,22.64c0,46.094,39.479,83.453,88.175,83.453
	c48.698,0,88.177-37.359,88.177-83.453c0-0.686-0.036-1.367-0.056-2.051c-1.012-39.562-31.095-72.298-70.828-79.783"/>
<path fill="#ECB194" d="M420.269,944.722c-40.78,18.212-42.084-0.893-42.084-0.893l7.403-6.94
	c-36.702,15.095-37.915-2.681-37.915-2.681l0.864-0.81l-29.253,9.594l80.548,20.543l78.438-30.715l-27.994-6.806
	c-0.754,2.1-2.389,4.565-5.386,7.441C444.884,933.458,432.623,941.156,420.269,944.722z"/>
<polygon fill="#FFFFFF" points="350.657,842.294 349.931,843.622 516.823,879.809 516.827,878.338 "/>
<path fill="#ECB194" d="M405.255,905.542c2.988-0.099,6.051,0.111,9.118,0.784c0,0,0.293,0.106,0.735,0.319l0.63-60.3
	c-3.121-0.587-6.306-1.004-9.537-1.27L405.255,905.542z"/>
<path fill="#B3815C" d="M447.862,917.669c-1.485-1.183-2.978-1.715-2.978-1.715c-2.874-0.632-5.751-0.862-8.559-0.805
	c-5.858,0.12-11.401,1.491-15.964,3.111c-0.269-0.414-0.558-0.823-0.87-1.214c0.952-2.191,0.955-4.011,0.458-5.48
	c-0.931-2.751-3.546-4.305-4.837-4.923c-0.449-0.215-0.735-0.318-0.735-0.318c-3.065-0.676-6.129-0.89-9.118-0.785
	c-2.82,0.097-5.558,0.474-8.151,1.028c-2.599,0.561-5.042,1.281-7.257,2.069c-1.296-2.024-3.056-3.714-5.446-4.843l-3.489-0.762
	l-32.375,30.366l-0.863,0.813c0,0,1.215,17.776,37.912,2.68l-7.401,6.939c0,0,1.304,19.098,42.084,0.893
	c12.353-3.567,24.615-11.264,24.615-11.264c2.998-2.881,4.632-5.345,5.386-7.444C451.746,921.912,449.813,919.226,447.862,917.669z"
	/>
<g enable-background="new    ">
	<path fill="#010101" d="M319.952,973.229c1.264,0,2.179-0.225,2.746-0.674s0.851-1.011,0.851-1.688v-0.303
		c0-0.806-0.298-1.404-0.893-1.799c-0.596-0.396-1.459-0.72-2.596-0.975c-0.825-0.185-1.651-0.375-2.484-0.576
		c-0.835-0.201-1.587-0.504-2.254-0.906c-0.667-0.401-1.212-0.947-1.633-1.635c-0.422-0.688-0.632-1.606-0.632-2.76v-0.358
		c0-0.604,0.119-1.23,0.357-1.881c0.236-0.649,0.63-1.25,1.181-1.799c0.55-0.549,1.275-0.999,2.183-1.36
		c0.906-0.356,2.028-0.535,3.366-0.535c1.1,0,2.152,0.115,3.16,0.345c1.007,0.231,2.015,0.666,3.021,1.304l-1.647,2.722
		c-0.806-0.515-1.557-0.847-2.252-1.003c-0.695-0.154-1.437-0.233-2.224-0.233c-0.622,0-1.162,0.074-1.62,0.22
		c-0.459,0.147-0.838,0.34-1.141,0.578c-0.302,0.236-0.526,0.494-0.673,0.768c-0.146,0.275-0.22,0.55-0.22,0.824v0.329
		c0,0.478,0.113,0.86,0.343,1.156c0.23,0.294,0.536,0.536,0.921,0.729c0.385,0.191,0.837,0.35,1.36,0.466
		c0.521,0.12,1.076,0.244,1.661,0.372c1.171,0.254,2.156,0.569,2.951,0.944c0.796,0.375,1.437,0.802,1.923,1.278
		c0.483,0.476,0.833,0.999,1.044,1.578c0.209,0.577,0.314,1.204,0.314,1.881v0.357c0,1.1-0.195,2.019-0.592,2.759
		c-0.393,0.74-0.929,1.335-1.604,1.787c-0.677,0.448-1.456,0.769-2.334,0.96c-0.88,0.19-1.796,0.29-2.747,0.29
		c-0.715,0-1.417-0.061-2.101-0.18c-0.685-0.122-1.331-0.281-1.936-0.48c-0.604-0.202-1.167-0.443-1.69-0.731
		c-0.52-0.282-0.975-0.579-1.361-0.89l1.704-2.803c0.604,0.514,1.382,0.961,2.335,1.346
		C317.693,973.038,318.763,973.229,319.952,973.229z"/>
	<path fill="#010101" d="M340.99,955.98c1.115,0,2.184,0.161,3.2,0.481c1.015,0.32,1.911,0.824,2.677,1.51
		c0.77,0.688,1.378,1.571,1.827,2.651c0.448,1.079,0.673,2.39,0.673,3.927v3.268c0,1.555-0.226,2.878-0.673,3.971
		c-0.451,1.09-1.053,1.972-1.812,2.649c-0.759,0.677-1.648,1.171-2.664,1.483c-1.018,0.312-2.093,0.468-3.227,0.468
		c-1.137,0-2.211-0.156-3.227-0.468c-1.017-0.311-1.905-0.804-2.666-1.483c-0.759-0.677-1.364-1.56-1.812-2.649
		c-0.448-1.093-0.673-2.413-0.673-3.971v-3.268c0-1.54,0.225-2.848,0.673-3.927c0.451-1.08,1.057-1.963,1.828-2.651
		c0.768-0.686,1.659-1.189,2.675-1.51C338.807,956.142,339.872,955.98,340.99,955.98z M340.99,973.173
		c0.676,0,1.309-0.083,1.895-0.26c0.584-0.174,1.099-0.478,1.539-0.919c0.439-0.441,0.784-1.035,1.031-1.787
		c0.246-0.749,0.368-1.692,0.368-2.828v-2.39c0-1.134-0.123-2.08-0.368-2.83c-0.247-0.75-0.591-1.347-1.031-1.785
		c-0.44-0.44-0.952-0.745-1.539-0.921c-0.588-0.173-1.218-0.26-1.895-0.26c-0.66,0-1.281,0.087-1.867,0.26
		c-0.585,0.176-1.099,0.48-1.54,0.921c-0.439,0.438-0.786,1.034-1.043,1.785c-0.257,0.75-0.386,1.696-0.386,2.83v2.39
		c0,1.136,0.129,2.079,0.386,2.828c0.254,0.752,0.604,1.346,1.043,1.787c0.441,0.441,0.952,0.745,1.54,0.919
		C339.707,973.088,340.331,973.173,340.99,973.173z"/>
	<path fill="#010101" d="M359.966,962.354c-0.145-0.352-0.294-0.756-0.439-1.224c-0.146-0.464-0.341-1.054-0.576-1.768v16.723
		h-3.267v-19.8h4.998l4.859,12.302l4.671-12.302h5.051v19.8h-3.321v-16.723c-0.201,0.823-0.375,1.439-0.52,1.853
		c-0.147,0.412-0.285,0.793-0.413,1.141l-4.146,10.437h-2.8L359.966,962.354z"/>
	<path fill="#010101" d="M395.479,956.283v2.966h-5.796v16.833h-3.515v-16.833h-5.822v-2.966H395.479z"/>
	<path fill="#010101" d="M412.286,967.215h-8.214v8.87h-3.515v-19.8h3.515v8.021h8.214v-8.021h3.516v19.8h-3.516V967.215z"/>
	<path fill="#010101" d="M422.831,956.283h3.516v19.799h-3.516V956.283z"/>
	<path fill="#010101" d="M433.379,956.283h4.035l6.756,12.003c0.202,0.363,0.427,0.818,0.675,1.358
		c0.246,0.539,0.444,1.131,0.59,1.772v-15.134h3.297v19.799h-4.036l-6.783-12.028c-0.257-0.439-0.496-0.913-0.715-1.428
		c-0.219-0.514-0.395-1.056-0.521-1.621v15.077h-3.294L433.379,956.283L433.379,956.283z"/>
	<path fill="#010101" d="M463.834,955.98c1.172,0,2.336,0.166,3.487,0.495c1.151,0.33,2.24,0.906,3.268,1.73l-1.894,2.691
		c-0.732-0.641-1.522-1.09-2.362-1.345c-0.842-0.258-1.677-0.386-2.5-0.386c-0.77,0-1.475,0.087-2.114,0.261
		c-0.642,0.175-1.195,0.486-1.662,0.935c-0.465,0.447-0.836,1.07-1.099,1.867c-0.266,0.794-0.4,1.825-0.4,3.09v2.032
		c0,1.081,0.137,1.989,0.412,2.73c0.274,0.741,0.655,1.346,1.14,1.813c0.485,0.464,1.061,0.797,1.731,0.999
		c0.667,0.202,1.404,0.303,2.21,0.303c0.64,0,1.216-0.045,1.73-0.137c0.514-0.093,1.015-0.239,1.51-0.439v-4.753h-4.147v-2.938
		h7.637v9.64c-0.44,0.296-0.935,0.554-1.483,0.784c-0.549,0.229-1.127,0.414-1.73,0.563c-0.604,0.146-1.222,0.262-1.854,0.344
		c-0.632,0.083-1.24,0.126-1.826,0.126c-1.265,0-2.431-0.155-3.501-0.466c-1.071-0.312-2.006-0.806-2.801-1.484
		c-0.798-0.678-1.421-1.541-1.867-2.581c-0.45-1.045-0.675-2.307-0.675-3.79v-3.543c0-1.483,0.221-2.761,0.66-3.832
		c0.439-1.07,1.05-1.957,1.826-2.663c0.779-0.705,1.705-1.223,2.786-1.552C461.398,956.146,462.57,955.98,463.834,955.98z"/>
</g>
</svg>
