<?xml version="1.0" encoding="utf-8"?>
<!-- Generator: Adobe Illustrator 16.0.0, SVG Export Plug-In . SVG Version: 6.00 Build 0)  -->
<!DOCTYPE svg PUBLIC "-//W3C//DTD SVG 1.1//EN" "http://www.w3.org/Graphics/SVG/1.1/DTD/svg11.dtd">
<svg version="1.1" id="Layer_1" xmlns="http://www.w3.org/2000/svg" xmlns:xlink="http://www.w3.org/1999/xlink" x="0px" y="0px"
	 width="1663px" height="500px" viewBox="0 0 1663 500" enable-background="new 0 0 1663 500" xml:space="preserve">
<polyline fill="#33308E" points="-0.781,348.505 -1.127,301.849 53.019,301.849 53.019,321.63 56.189,321.63 56.189,332.697 
	83.666,332.697 110.614,325.178 147.601,325.178 147.601,320.049 194.629,320.049 194.629,325.178 215.764,325.178 215.764,335.859 
	239.014,335.859 239.014,331.643 277.059,331.643 277.059,336.385 294.496,336.385 294.496,332.697 299.78,332.697 299.78,336.912 
	325.671,336.912 325.671,325.178 330.955,325.178 330.955,336.385 334.654,336.385 334.654,345.344 337.296,345.344 
	337.296,342.183 345.75,342.183 345.75,348.505 379.039,348.505 379.039,315.834 426.066,315.834 448.788,315.834 448.788,310.035 
	463.583,310.035 472.565,310.035 476.792,314.251 507.439,314.251 507.439,306.347 546.013,306.347 546.013,312.143 556.58,312.143 
	575.603,312.143 575.603,337.438 616.289,337.438 616.289,325.178 658.967,325.178 699.132,325.178 699.132,340.026 
	704.417,340.026 704.417,333.703 723.665,333.703 723.665,342.135 733.617,352.06 748.302,337.415 764.867,337.415 774.765,327.543 
	817.51,327.543 852.568,327.543 852.568,316.837 876.699,316.837 876.699,310.511 913.693,310.511 913.693,301.849 967.598,301.849 
	967.598,312.621 981.471,312.621 981.471,326.955 1010.933,326.955 1020.233,317.68 1062.723,317.68 1062.723,311.565 
	1094.431,311.565 1094.431,315.782 1119.798,315.782 1119.798,309.457 1150.449,309.457 1150.449,315.782 1155.734,315.782 
	1164.189,307.35 1201.184,307.35 1201.184,317.89 1201.184,335.812 1224.932,335.812 1231.309,329.451 1298.423,329.451 
	1309.538,340.537 1323.79,340.537 1323.79,326.955 1415.744,326.955 1423.355,334.545 1435.827,334.545 1469.648,334.545 
	1469.648,321.053 1502.414,321.053 1502.414,301.849 1511.813,292.477 1533.066,292.477 1542.521,301.906 1542.521,326.323 
	1627.135,326.323 1627.135,316.837 1664.128,316.837 1664.128,503.081 -0.781,503.081 -1.127,301.849 "/>
</svg>
