<?xml version="1.0" encoding="utf-8"?>
<!-- Generator: Adobe Illustrator 16.0.0, SVG Export Plug-In . SVG Version: 6.00 Build 0)  -->
<!DOCTYPE svg PUBLIC "-//W3C//DTD SVG 1.1//EN" "http://www.w3.org/Graphics/SVG/1.1/DTD/svg11.dtd">
<svg version="1.1" id="Layer_1" xmlns="http://www.w3.org/2000/svg" xmlns:xlink="http://www.w3.org/1999/xlink" x="0px" y="0px"
	 width="1663px" height="500px" viewBox="0 0 1663 500" enable-background="new 0 0 1663 500" xml:space="preserve">
<polygon opacity="0.5" fill="none" points="1601.118,397.54 1663,397.54 1663,370.041 1574.164,370.041 "/>
<polygon opacity="0.5" fill="none" points="655.229,365.041 660.042,339.169 491.589,339.169 480.698,365.041 "/>
<polygon opacity="0.5" fill="none" points="1645.713,443.037 1663,443.037 1663,402.54 1606.019,402.54 "/>
<polygon opacity="0.5" fill="none" points="262.085,402.54 230.01,443.037 442.44,443.037 459.488,402.54 "/>
<polygon opacity="0.5" fill="none" points="63.982,402.54 24.288,443.037 223.632,443.037 255.708,402.54 "/>
<polygon opacity="0.5" fill="none" points="1569.264,365.041 1663,365.041 1663,339.169 1543.905,339.169 "/>
<polygon opacity="0.5" fill="none" points="475.273,365.041 486.165,339.169 312.278,339.169 291.786,365.041 "/>
<polygon opacity="0.5" fill="none" points="285.408,365.041 305.899,339.169 126.096,339.169 100.737,365.041 "/>
<polygon opacity="0.5" fill="none" points="464.913,402.54 447.865,443.037 640.72,443.037 648.253,402.54 "/>
<polygon opacity="0.5" fill="none" points="1002.685,365.041 997.871,339.169 834,339.169 834,365.041 "/>
<polygon opacity="0.5" fill="none" points="1182.302,365.041 1171.411,339.169 1002.957,339.169 1007.771,365.041 "/>
<polygon opacity="0.5" fill="none" points="829,365.041 829,339.169 665.128,339.169 660.315,365.041 "/>
<polygon opacity="0.5" fill="none" points="653.34,402.54 645.806,443.037 829,443.037 829,402.54 "/>
<polygon opacity="0.5" fill="none" points="834,402.54 834,443.037 1017.194,443.037 1009.66,402.54 "/>
<polygon opacity="0.5" fill="none" points="1562.263,365.041 1536.904,339.169 1357.101,339.169 1377.592,365.041 "/>
<polygon opacity="0.5" fill="none" points="1203.512,402.54 1220.559,443.037 1432.989,443.037 1400.914,402.54 "/>
<polygon opacity="0.5" fill="none" points="1014.746,402.54 1022.28,443.037 1215.135,443.037 1198.088,402.54 "/>
<polygon opacity="0.5" fill="none" points="1371.214,365.041 1350.723,339.169 1176.835,339.169 1187.726,365.041 "/>
<polygon opacity="0.5" fill="none" points="1407.292,402.54 1439.367,443.037 1638.712,443.037 1599.018,402.54 "/>
<polygon opacity="0.5" fill="none" points="95.836,370.041 68.883,397.54 259.667,397.54 281.448,370.041 "/>
<polygon opacity="0.5" fill="none" points="287.826,370.041 266.046,397.54 461.593,397.54 473.168,370.041 "/>
<polygon opacity="0.5" fill="none" points="0,402.54 0,397.54 61.882,397.54 88.835,370.041 0,370.041 0,365.041 93.736,365.041 
	119.095,339.169 -1,339.169 -1,461.694 12.387,448.037 0,448.037 0,443.037 17.288,443.037 56.981,402.54 "/>
<polygon opacity="0.5" fill="none" points="1008.7,370.041 1013.816,397.54 1195.982,397.54 1184.406,370.041 "/>
<polygon opacity="0.5" fill="none" points="659.385,370.041 654.27,397.54 829,397.54 829,370.041 "/>
<polygon opacity="0.5" fill="none" points="478.593,370.041 467.018,397.54 649.184,397.54 654.299,370.041 "/>
<polygon opacity="0.5" fill="none" points="834,370.041 834,397.54 1008.73,397.54 1003.614,370.041 "/>
<polygon opacity="0.5" fill="none" points="1189.83,370.041 1201.406,397.54 1396.954,397.54 1375.174,370.041 "/>
<polygon opacity="0.5" fill="none" points="1403.332,397.54 1594.117,397.54 1567.164,370.041 1381.552,370.041 "/>
<polygon opacity="0.5" fill="none" points="1663,459.654 1663,448.037 1650.613,448.037 "/>
<polygon opacity="0.5" fill="#6C52A2" points="1650.613,448.037 1663,448.037 1663,443.037 1645.713,443.037 "/>
<polygon opacity="0.5" fill="#6C52A2" points="1439.367,443.037 1443.328,448.037 1643.612,448.037 1638.712,443.037 "/>
<polygon opacity="0.5" fill="#6C52A2" points="24.288,443.037 19.388,448.037 219.672,448.037 223.632,443.037 "/>
<polygon opacity="0.5" fill="#6C52A2" points="0,448.037 12.387,448.037 17.288,443.037 0,443.037 "/>
<polygon opacity="0.5" fill="#6C52A2" points="230.01,443.037 226.05,448.037 440.335,448.037 442.44,443.037 "/>
<polygon opacity="0.5" fill="#6C52A2" points="447.865,443.037 445.76,448.037 639.79,448.037 640.72,443.037 "/>
<polygon opacity="0.5" fill="#6C52A2" points="834,443.037 834,448.037 1018.124,448.037 1017.194,443.037 "/>
<polygon opacity="0.5" fill="#6C52A2" points="1022.28,443.037 1023.21,448.037 1217.24,448.037 1215.135,443.037 "/>
<polygon opacity="0.5" fill="#6C52A2" points="1220.559,443.037 1222.664,448.037 1436.949,448.037 1432.989,443.037 "/>
<polygon opacity="0.5" fill="#6C52A2" points="645.806,443.037 644.876,448.037 829,448.037 829,443.037 "/>
<polygon opacity="0.5" fill="#6C52A2" points="654.27,397.54 653.34,402.54 829,402.54 829,397.54 "/>
<polygon opacity="0.5" fill="#6C52A2" points="68.883,397.54 63.982,402.54 255.708,402.54 259.667,397.54 "/>
<polygon opacity="0.5" fill="#6C52A2" points="266.046,397.54 262.085,402.54 459.488,402.54 461.593,397.54 "/>
<polygon opacity="0.5" fill="#6C52A2" points="1403.332,397.54 1407.292,402.54 1599.018,402.54 1594.117,397.54 "/>
<polygon opacity="0.5" fill="#6C52A2" points="0,397.54 0,402.54 56.981,402.54 61.882,397.54 "/>
<polygon opacity="0.5" fill="#6C52A2" points="1201.406,397.54 1203.512,402.54 1400.914,402.54 1396.954,397.54 "/>
<polygon opacity="0.5" fill="#6C52A2" points="467.018,397.54 464.913,402.54 648.253,402.54 649.184,397.54 "/>
<polygon opacity="0.5" fill="#6C52A2" points="834,397.54 834,402.54 1009.66,402.54 1008.73,397.54 "/>
<polygon opacity="0.5" fill="#6C52A2" points="1013.816,397.54 1014.746,402.54 1198.088,402.54 1195.982,397.54 "/>
<polygon opacity="0.5" fill="#6C52A2" points="1606.019,402.54 1663,402.54 1663,397.54 1601.118,397.54 "/>
<polygon opacity="0.5" fill="#6C52A2" points="654.299,370.041 655.229,365.041 480.698,365.041 478.593,370.041 "/>
<polygon opacity="0.5" fill="#6C52A2" points="829,370.041 829,365.041 660.315,365.041 659.385,370.041 "/>
<polygon opacity="0.5" fill="#6C52A2" points="281.448,370.041 285.408,365.041 100.737,365.041 95.836,370.041 "/>
<polygon opacity="0.5" fill="#6C52A2" points="473.168,370.041 475.273,365.041 291.786,365.041 287.826,370.041 "/>
<polygon opacity="0.5" fill="#6C52A2" points="1184.406,370.041 1182.302,365.041 1007.771,365.041 1008.7,370.041 "/>
<polygon opacity="0.5" fill="#6C52A2" points="1003.614,370.041 1002.685,365.041 834,365.041 834,370.041 "/>
<polygon opacity="0.5" fill="#6C52A2" points="1574.164,370.041 1663,370.041 1663,365.041 1569.264,365.041 "/>
<polygon opacity="0.5" fill="#6C52A2" points="0,365.041 0,370.041 88.835,370.041 93.736,365.041 "/>
<polygon opacity="0.5" fill="#6C52A2" points="1567.164,370.041 1562.263,365.041 1377.592,365.041 1381.552,370.041 "/>
<polygon opacity="0.5" fill="#6C52A2" points="1375.174,370.041 1371.214,365.041 1187.726,365.041 1189.83,370.041 "/>
<polygon opacity="0.5" fill="#6C52A2" points="126.831,338.419 123.261,334.919 119.095,339.169 126.096,339.169 "/>
<polygon opacity="0.5" fill="#6C52A2" points="1650.613,448.037 1645.713,443.037 1606.019,402.54 1601.118,397.54 
	1574.164,370.041 1569.264,365.041 1543.905,339.169 1536.904,339.169 1562.263,365.041 1567.164,370.041 1594.117,397.54 
	1599.018,402.54 1638.712,443.037 1643.612,448.037 1663,466.797 1663,459.654 "/>
<polygon opacity="0.5" fill="#6C52A2" points="1539.739,334.919 1536.169,338.419 1536.904,339.169 1543.905,339.169 "/>
<polygon opacity="0.5" fill="#6C52A2" points="291.786,365.041 312.278,339.169 305.899,339.169 285.408,365.041 "/>
<polygon opacity="0.5" fill="#6C52A2" points="255.708,402.54 223.632,443.037 230.01,443.037 262.085,402.54 "/>
<polygon opacity="0.5" fill="#6C52A2" points="281.448,370.041 259.667,397.54 266.046,397.54 287.826,370.041 "/>
<polygon opacity="0.5" fill="#6C52A2" points="178.667,500 185.092,500 226.05,448.287 219.672,448.287 "/>
<polygon opacity="0.5" fill="#6C52A2" points="223.632,443.037 219.672,448.037 226.05,448.037 230.01,443.037 "/>
<polygon opacity="0.5" fill="#6C52A2" points="259.667,397.54 255.708,402.54 262.085,402.54 266.046,397.54 "/>
<polygon opacity="0.5" fill="#6C52A2" points="287.826,370.041 291.786,365.041 285.408,365.041 281.448,370.041 "/>
<polygon opacity="0.5" fill="#6C52A2" points="313.477,337.655 309.557,334.552 305.899,339.169 312.278,339.169 "/>
<g opacity="0.5">
	<polygon fill="#6C52A2" points="-1,334.169 -1,339.169 119.095,339.169 123.261,334.919 126.831,338.419 126.096,339.169 
		305.899,339.169 309.557,334.552 313.477,337.655 312.278,339.169 486.165,339.169 487.625,335.699 492.233,337.639 
		491.589,339.169 660.042,339.169 660.592,336.212 665.508,337.126 665.128,339.169 829,339.169 829,336.387 834,336.387 
		834,339.169 997.871,339.169 997.491,337.126 1002.407,336.212 1002.957,339.169 1171.411,339.169 1170.767,337.639 
		1175.374,335.699 1176.835,339.169 1350.723,339.169 1349.523,337.655 1353.443,334.552 1357.101,339.169 1536.904,339.169 
		1536.169,338.419 1539.739,334.919 1543.905,339.169 1663,339.169 1663,334.169 	"/>
	<polygon fill="#6C52A2" points="93.736,365.041 88.835,370.041 61.882,397.54 56.981,402.54 17.288,443.037 12.387,448.037 
		0,460.675 0,467.817 19.388,448.037 24.288,443.037 63.982,402.54 68.883,397.54 95.836,370.041 100.737,365.041 126.096,339.169 
		119.095,339.169 	"/>
	<polygon fill="#6C52A2" points="475.273,365.041 473.168,370.041 461.593,397.54 459.488,402.54 442.44,443.037 440.335,448.037 
		418.5,500 423.886,500 445.76,448.037 447.865,443.037 464.913,402.54 467.018,397.54 478.593,370.041 480.698,365.041 
		491.589,339.169 486.165,339.169 	"/>
</g>
<polygon opacity="0.5" fill="#6C52A2" points="492.233,337.639 487.625,335.699 486.165,339.169 491.589,339.169 "/>
<polygon opacity="0.5" fill="#6C52A2" points="829,336.387 829,339.169 829,365.041 829,370.041 829,397.54 829,402.54 829,443.037 
	829,448.037 829,500 834,500 834,448.037 834,443.037 834,402.54 834,397.54 834,370.041 834,365.041 834,339.169 834,336.387 "/>
<polygon opacity="0.5" fill="#6C52A2" points="660.042,339.169 655.229,365.041 654.299,370.041 649.184,397.54 648.253,402.54 
	640.72,443.037 639.79,448.037 630.208,500 635.209,500 644.876,448.037 645.806,443.037 653.34,402.54 654.27,397.54 
	659.385,370.041 660.315,365.041 665.128,339.169 "/>
<polygon opacity="0.5" fill="#6C52A2" points="665.508,337.126 660.592,336.212 660.042,339.169 665.128,339.169 "/>
<polygon opacity="0.5" fill="#6C52A2" points="1222.664,448.037 1220.559,443.037 1203.512,402.54 1201.406,397.54 1189.83,370.041 
	1187.726,365.041 1176.835,339.169 1171.411,339.169 1182.302,365.041 1184.406,370.041 1195.982,397.54 1198.088,402.54 
	1215.135,443.037 1217.24,448.037 1239.114,500 1244.625,500 "/>
<polygon opacity="0.5" fill="#6C52A2" points="1175.374,335.699 1170.767,337.639 1171.411,339.169 1176.835,339.169 "/>
<polygon opacity="0.5" fill="#6C52A2" points="1023.21,448.037 1022.28,443.037 1014.746,402.54 1013.816,397.54 1008.7,370.041 
	1007.771,365.041 1002.957,339.169 997.871,339.169 1002.685,365.041 1003.614,370.041 1008.73,397.54 1009.66,402.54 
	1017.194,443.037 1018.124,448.037 1027.791,500 1032.906,500 "/>
<polygon opacity="0.5" fill="#6C52A2" points="1002.407,336.212 997.491,337.126 997.871,339.169 1002.957,339.169 "/>
<polygon opacity="0.5" fill="#6C52A2" points="1443.328,448.037 1439.367,443.037 1407.292,402.54 1403.332,397.54 
	1381.552,370.041 1377.592,365.041 1357.101,339.169 1350.723,339.169 1371.214,365.041 1375.174,370.041 1396.954,397.54 
	1400.914,402.54 1432.989,443.037 1436.949,448.037 1478.105,500 1484.625,500 "/>
<polygon opacity="0.5" fill="#6C52A2" points="1353.443,334.552 1349.523,337.655 1350.723,339.169 1357.101,339.169 "/>
</svg>
