<?xml version="1.0" encoding="utf-8"?>
<!-- Generator: Adobe Illustrator 16.0.0, SVG Export Plug-In . SVG Version: 6.00 Build 0)  -->
<!DOCTYPE svg PUBLIC "-//W3C//DTD SVG 1.1//EN" "http://www.w3.org/Graphics/SVG/1.1/DTD/svg11.dtd">
<svg version="1.1" id="Layer_1" xmlns="http://www.w3.org/2000/svg" xmlns:xlink="http://www.w3.org/1999/xlink" x="0px" y="0px"
	 width="100px" height="100px" viewBox="0 0 100 100" enable-background="new 0 0 100 100" xml:space="preserve">
<path fill="none" stroke="#FFFFFF" stroke-width="3" stroke-miterlimit="10" d="M44.648,30.852c0,0,3.232-0.923,3.386-4.924
	c0,0,2.029-3.801-8.157-18.929c-0.946-1.406-2.039-3.386-5.232-4.309c-2.644-0.765-7.08,0.346-10.311,3.848
	c0,0-7.477,5.874-6.464,21.545c0.399,6.174,1.078,10.772,6.002,24.007c0,0,13.389,31.086,35.088,42.475
	c0,0,8.619,6.157,21.084-1.229c0,0,4.464-3.542-0.923-14.468c0,0-8.004-19.082-16.314-12.157c0,0-14.62,6.309-22.314-16.467
	C40.493,50.242,34.337,36.699,44.648,30.852z"/>
</svg>
