<?xml version="1.0" encoding="utf-8"?>
<!-- Generator: Adobe Illustrator 16.0.0, SVG Export Plug-In . SVG Version: 6.00 Build 0)  -->
<!DOCTYPE svg PUBLIC "-//W3C//DTD SVG 1.1//EN" "http://www.w3.org/Graphics/SVG/1.1/DTD/svg11.dtd">
<svg version="1.1" id="Layer_1" xmlns="http://www.w3.org/2000/svg" xmlns:xlink="http://www.w3.org/1999/xlink" x="0px" y="0px"
	 width="496px" height="270px" viewBox="0 0 496 270" enable-background="new 0 0 496 270" xml:space="preserve">
<g>
	<path fill="#FFFFFF" d="M97.06,22.965h7.239c0,0,0.25-20.219-20.968-22.965c0,0-20.219-3.245-26.709,22.965
		c0,0-5.552,50.719,5.329,62.763c0,0,15.18,17.988,33.112,5.133c0,0,8.654-6.989,9.236-18.389h-6.823
		c0,0-0.666,14.145-15.393,15.268c0,0-19.346,1.373-19.346-26.833V37.942c0,0-0.54-19.22,9.445-26.875c0,0,3.161-2.996,9.984-2.829
		C82.167,8.237,95.812,8.403,97.06,22.965z"/>
	<path fill="#FFFFFF" d="M150.186,34.946v-6.864c-32.034-4.119-33.199,20.011-33.199,20.011v45.68h7.156V47.682
		C124.143,47.682,127.97,33.032,150.186,34.946z"/>
	<path fill="#FFFFFF" d="M496,200.379v-8.039c-37.515-4.822-38.878,23.433-38.878,23.433v53.494h8.38v-53.974
		C465.502,215.293,469.983,198.138,496,200.379z"/>
	<path fill="#FFFFFF" d="M204.187,63.818c0,0,3.661-24.826-14.312-36.209c0,0-19.345-10.192-28.956,18.105
		c0,0-6.489,21.267,3.828,39.905c0,0,9.817,14.977,28.123,6.656c0,0,8.487-3.661,10.15-13.979h-7.405c0,0-3.495,12.814-19.72,7.572
		c0,0-9.984-5.159-8.986-22.05H204.187z M181.699,34.697c15.362,0,14.916,21.467,14.916,21.467h-29.205
		C168.408,33.365,181.699,34.697,181.699,34.697z"/>
	<path fill="#FFFFFF" d="M423.518,63.818c0,0,3.66-24.826-14.313-36.209c0,0-19.346-10.192-28.955,18.105
		c0,0-6.49,21.267,3.828,39.905c0,0,9.816,14.977,28.122,6.656c0,0,8.487-3.661,10.151-13.979h-7.405c0,0-3.494,12.814-19.72,7.572
		c0,0-9.984-5.159-8.986-22.05H423.518z M400.716,34.697c15.363,0,14.917,21.467,14.917,21.467h-29.205
		C387.426,33.365,400.716,34.697,400.716,34.697z"/>
	<path fill="#FFFFFF" d="M439.752,234.547c0,0,4.191-28.419-16.383-41.452c0,0-22.146-11.668-33.148,20.726
		c0,0-7.428,24.348,4.382,45.683c0,0,11.24,17.146,32.195,7.619c0,0,9.715-4.189,11.62-16.001h-8.477c0,0-4.002,14.669-22.575,8.668
		c0,0-11.43-5.906-10.287-25.242H439.752z M413.649,201.209c17.589,0,17.077,24.576,17.077,24.576h-33.433
		C398.437,199.685,413.649,201.209,413.649,201.209z"/>
	<path fill="#FFFFFF" d="M234.057,26.709c-17.973,0-20.219,17.348-20.219,17.348h8.612c0-9.735,13.105-9.375,13.105-9.375
		c12.98,0,13.479,12.121,13.479,12.121v8.487h-25.211c-13.313,2.372-10.858,16.225-10.858,16.225v9.86
		c0,10.484,10.733,12.356,10.733,12.356h26.834c5.491,0,5.616-8.487,5.616-8.487V50.422
		C256.148,26.584,234.057,26.709,234.057,26.709z M248.785,86.118h-19.47c0,0-8.653-0.333-8.653-9.652v-2.996
		c0,0,0-10.817,8.653-10.817h19.47V86.118z"/>
	<path fill="#FFFFFF" d="M266.758,29.704h6.739V8.237h6.739v21.467h11.233v6.74h-11.233v43.434c0,0-0.832,6.906,11.233,6.906v6.948
		c0,0-18.223,4.035-18.223-12.606s0-44.598,0-44.598h-6.489V29.704z"/>
	<rect x="306.696" y="0.749" fill="#FFFFFF" width="8.319" height="11.149"/>
	<rect x="306.696" y="28.706" fill="#FFFFFF" width="8.319" height="65.025"/>
	<rect x="236.701" y="161.399" fill="#FFFFFF" width="9.55" height="12.795"/>
	<rect x="236.701" y="193.482" fill="#FFFFFF" width="9.55" height="74.628"/>
	<polygon fill="#FFFFFF" points="326.5,28.706 334.987,28.706 349.297,80.959 364.108,28.706 372.761,28.706 353.624,93.731 
		344.804,93.731 	"/>
	<path fill="#FFFFFF" d="M58.909,193.953c0-25.961-22.138-32.117-22.138-32.117H0v108.168h9.651l-0.125-45.598h27.246
		C59.232,224.406,58.909,193.953,58.909,193.953z M36.771,216.752H9.485v-45.599h27.287c0,0,13.151,5.825,13.151,22.8
		C49.923,193.953,49.248,216.752,36.771,216.752z"/>
	<path fill="#FFFFFF" d="M72.055,193.953h7.697v50.173c0,0-0.209,18.722,32.491,15.976v-66.148h8.487v69.394
		c0,0,0,6.657-17.224,6.657c0,0-30.453-0.916-31.452-25.628V193.953z"/>
	<rect x="206.016" y="161.836" fill="#FFFFFF" width="8.986" height="106.274"/>
	<g>
		<path fill="#FFFFFF" d="M286.629,270.219c-7.58,0-20.16-3.519-22.646-17.407l6.88-1.23c2.249,12.559,16.308,11.658,16.904,11.609
			l0.206-0.016l0.205,0.008c15.287,0.659,15.819-6.498,16.303-12.807l0.063-0.796c0.328-3.966-0.532-7.056-2.629-9.444
			c-4.038-4.603-11.453-5.078-11.527-5.082l-0.124-0.008c-10.189-0.851-17.444-4.157-21.563-9.832
			c-5.003-6.895-3.257-14.6-3.181-14.925c3.697-15.25,16.143-18.107,22.393-17.501c16.914,0.086,22.184,11.844,22.603,18.07
			l-6.974,0.47l3.486-0.233l-3.484,0.261c-0.1-1.184-1.389-11.578-15.817-11.578l-0.391-0.021
			c-1.189-0.121-11.878-0.79-15.018,12.16c-0.035,0.158-1.052,5.005,2.095,9.266c2.878,3.9,8.391,6.221,16.387,6.894
			c1.031,0.063,10.538,0.808,16.367,7.449c3.368,3.834,4.829,8.757,4.343,14.63l-0.059,0.755
			c-0.45,5.851-1.485,19.299-21.521,19.301c-0.601,0-1.217-0.012-1.851-0.037C287.62,270.203,287.137,270.219,286.629,270.219z"/>
	</g>
	<path fill="#FFFFFF" d="M333.405,161.836h-7.987v108.383h7.987v-67.279c0,0,29.729-5.201,31.701,13.087v54.192h7.738v-56.17
		c0,0,0-19.763-25.878-20.566h-13.646L333.405,161.836z"/>
	<path fill="#FFFFFF" d="M169.073,195.784c0,0-3.91-2.206-21.695-1.831l0.062-32.554h-8.32v100.948c0,0,0,9.32,22.965,7.656
		c0,0,24.295-3.328,27.291-35.279C189.375,234.725,191.039,203.106,169.073,195.784z M175.896,248.619
		c-10.484,18.971-28.706,11.232-28.706,11.232v-56.413c20.219-2.996,26.459,7.238,26.459,7.238
		C186.879,229.148,175.896,248.619,175.896,248.619z"/>
</g>
</svg>
