<?xml version="1.0" encoding="utf-8"?>
<!-- Generator: Adobe Illustrator 16.0.0, SVG Export Plug-In . SVG Version: 6.00 Build 0)  -->
<!DOCTYPE svg PUBLIC "-//W3C//DTD SVG 1.1//EN" "http://www.w3.org/Graphics/SVG/1.1/DTD/svg11.dtd">
<svg version="1.1" id="Layer_1" xmlns="http://www.w3.org/2000/svg" xmlns:xlink="http://www.w3.org/1999/xlink" x="0px" y="0px"
	 width="1663px" height="500px" viewBox="0 0 1663 500" enable-background="new 0 0 1663 500" xml:space="preserve">
<path fill="#5A5064" d="M1132.128,500H0V351.857c23.306-53.614,338.631-103.595,338.631-103.595
	c85.582,17.854,207.018-12.098,207.018-12.098c47.92-22.925,105.041-21.163,105.041-21.163c20.04,4.232,69.073,2.822,69.073,2.822
	c41.129,14.108,79.517,7.054,79.517,7.054c83.25-33.174,187.562-57.846,187.562-57.846s112.371-17.65,145.287,0
	c32.917,17.65,0,0,0,0s82.828,5.098,180.609,14.336c97.779,9.24,0,1.294,0,1.294s111.027-4.97,139.812-25.778h16.448l34.952,13.048
	l53.458,11.437l30.84,11.838l58.299,12.695l16.454,10.58V500H1132.128z"/>
</svg>
