<?xml version="1.0" encoding="utf-8"?>
<!-- Generator: Adobe Illustrator 16.0.0, SVG Export Plug-In . SVG Version: 6.00 Build 0)  -->
<!DOCTYPE svg PUBLIC "-//W3C//DTD SVG 1.1//EN" "http://www.w3.org/Graphics/SVG/1.1/DTD/svg11.dtd">
<svg version="1.1" id="Layer_1" xmlns="http://www.w3.org/2000/svg" xmlns:xlink="http://www.w3.org/1999/xlink" x="0px" y="0px"
	 width="1663px" height="500px" viewBox="0 0 1663 500" enable-background="new 0 0 1663 500" xml:space="preserve">
<path fill="#665B72" d="M1663,310.941l-20.986-8.465l-18.181,4.232l-9.792-4.232l-18.183-9.877h-9.79l-8.392-8.465h-37.763v-7.055
	h-20.98l-30.771-8.465h-36.365l-55.945-14.109l-16.784-15.52h-27.974l-23.776-11.286h-23.777l-37.764-19.753h-29.371h-20.979
	h-13.986h-25.177c0,0-26.574,5.645-40.56,12.699c0,0-47.588,31.633-96.507,53.612c-31.834,14.305-85.788,18.559-136.268,29.629
	c-53.009,11.627-101.902,7.055-214.994,29.63c0,0-235.27,21.707-282.326,26.805c-100.823,10.924-309.102-36.684-405.609,0v139.678
	h1663V310.941z"/>
</svg>
